<?xml version="1.0" encoding="UTF-8" standalone="no"?>
<svg viewBox="-0.5 -0.5 841.0 961.0" preserveAspectRatio="xMidYMin meet" data-height="961.0" data-width="841.0" style="max-height:961.0px; max-width:841.0px; transform:translate(0, 0)" xmlns="http://www.w3.org/2000/svg">

<style type="text/css">

g rect {
    fill:#ffffff;
    stroke-width:1.0;
    stroke:#000001;
    fill-opacity:1;
}

.cx-c {
    font-size:11.0px;
    font-family:monospace;
    pointer-events:none;
    font-weight:bold;
    fill:#000002;
    text-anchor:start;
}

.cx-a {
    font-size:14.0px;
    font-family:monospace;
    text-anchor:middle;
    pointer-events:none;
    fill:#000003;
}

.cx-b {
    fill:#000004;
}
    
</style>
<g id="cx-0-26"><rect shape-rendering="crispEdge"  x="780.0" y="0.0" width="30.0" height="30.0" /><text dy="1em"  class="cx-c" x="782.0" y="2.0" >1</text><text dy=".28em"  class="cx-a" x="795.0" y="15.0"></text></g><g id="cx-1-26"><rect shape-rendering="crispEdge"  x="780.0" y="30.0" width="30.0" height="30.0" /><text dy=".28em"  class="cx-a" x="795.0" y="45.0"></text></g><g id="cx-2-26"><rect shape-rendering="crispEdge"  x="780.0" y="60.0" width="30.0" height="30.0" /><text dy=".28em"  class="cx-a" x="795.0" y="75.0"></text></g><g id="cx-3-26"><rect shape-rendering="crispEdge"  x="780.0" y="90.0" width="30.0" height="30.0" /><text dy=".28em"  class="cx-a" x="795.0" y="105.0"></text></g><g id="cx-4-19"><rect shape-rendering="crispEdge"  x="570.0" y="120.0" width="30.0" height="30.0" /><text dy="1em"  class="cx-c" x="572.0" y="122.0" >2</text><text dy=".28em"  class="cx-a" x="585.0" y="135.0"></text></g><g id="cx-4-26"><rect shape-rendering="crispEdge"  x="780.0" y="120.0" width="30.0" height="30.0" /><text dy=".28em"  class="cx-a" x="795.0" y="135.0"></text></g><g id="cx-5-8"><rect shape-rendering="crispEdge"  x="240.0" y="150.0" width="30.0" height="30.0" /><text dy="1em"  class="cx-c" x="242.0" y="152.0" >3</text><text dy=".28em"  class="cx-a" x="255.0" y="165.0"></text></g><g id="cx-5-10"><rect shape-rendering="crispEdge"  x="300.0" y="150.0" width="30.0" height="30.0" /><text dy="1em"  class="cx-c" x="302.0" y="152.0" >4</text><text dy=".28em"  class="cx-a" x="315.0" y="165.0"></text></g><g id="cx-5-16"><rect shape-rendering="crispEdge"  x="480.0" y="150.0" width="30.0" height="30.0" /><text dy="1em"  class="cx-c" x="482.0" y="152.0" >5</text><text dy=".28em"  class="cx-a" x="495.0" y="165.0"></text></g><g id="cx-5-19"><rect shape-rendering="crispEdge"  x="570.0" y="150.0" width="30.0" height="30.0" /><text dy=".28em"  class="cx-a" x="585.0" y="165.0"></text></g><g id="cx-5-26"><rect shape-rendering="crispEdge"  x="780.0" y="150.0" width="30.0" height="30.0" /><text dy=".28em"  class="cx-a" x="795.0" y="165.0"></text></g><g id="cx-6-8"><rect shape-rendering="crispEdge"  x="240.0" y="180.0" width="30.0" height="30.0" /><text dy=".28em"  class="cx-a" x="255.0" y="195.0"></text></g><g id="cx-6-10"><rect shape-rendering="crispEdge"  x="300.0" y="180.0" width="30.0" height="30.0" /><text dy=".28em"  class="cx-a" x="315.0" y="195.0"></text></g><g id="cx-6-16"><rect shape-rendering="crispEdge"  x="480.0" y="180.0" width="30.0" height="30.0" /><text dy=".28em"  class="cx-a" x="495.0" y="195.0"></text></g><g id="cx-6-19"><rect shape-rendering="crispEdge"  x="570.0" y="180.0" width="30.0" height="30.0" /><text dy=".28em"  class="cx-a" x="585.0" y="195.0"></text></g><g id="cx-6-26"><rect shape-rendering="crispEdge"  x="780.0" y="180.0" width="30.0" height="30.0" /><text dy=".28em"  class="cx-a" x="795.0" y="195.0"></text></g><g id="cx-7-8"><rect shape-rendering="crispEdge"  x="240.0" y="210.0" width="30.0" height="30.0" /><text dy=".28em"  class="cx-a" x="255.0" y="225.0"></text></g><g id="cx-7-10"><rect shape-rendering="crispEdge"  x="300.0" y="210.0" width="30.0" height="30.0" /><text dy=".28em"  class="cx-a" x="315.0" y="225.0"></text></g><g id="cx-7-16"><rect shape-rendering="crispEdge"  x="480.0" y="210.0" width="30.0" height="30.0" /><text dy=".28em"  class="cx-a" x="495.0" y="225.0"></text></g><g id="cx-7-19"><rect shape-rendering="crispEdge"  x="570.0" y="210.0" width="30.0" height="30.0" /><text dy=".28em"  class="cx-a" x="585.0" y="225.0"></text></g><g id="cx-7-24"><rect shape-rendering="crispEdge"  x="720.0" y="210.0" width="30.0" height="30.0" /><text dy="1em"  class="cx-c" x="722.0" y="212.0" >6</text><text dy=".28em"  class="cx-a" x="735.0" y="225.0"></text></g><g id="cx-7-26"><rect shape-rendering="crispEdge"  x="780.0" y="210.0" width="30.0" height="30.0" /><text dy=".28em"  class="cx-a" x="795.0" y="225.0"></text></g><g id="cx-8-8"><rect shape-rendering="crispEdge"  x="240.0" y="240.0" width="30.0" height="30.0" /><text dy=".28em"  class="cx-a" x="255.0" y="255.0"></text></g><g id="cx-8-10"><rect shape-rendering="crispEdge"  x="300.0" y="240.0" width="30.0" height="30.0" /><text dy=".28em"  class="cx-a" x="315.0" y="255.0"></text></g><g id="cx-8-12"><rect shape-rendering="crispEdge"  x="360.0" y="240.0" width="30.0" height="30.0" /><text dy="1em"  class="cx-c" x="362.0" y="242.0" >7</text><text dy=".28em"  class="cx-a" x="375.0" y="255.0"></text></g><g id="cx-8-16"><rect shape-rendering="crispEdge"  x="480.0" y="240.0" width="30.0" height="30.0" /><text dy=".28em"  class="cx-a" x="495.0" y="255.0"></text></g><g id="cx-8-19"><rect shape-rendering="crispEdge"  x="570.0" y="240.0" width="30.0" height="30.0" /><text dy=".28em"  class="cx-a" x="585.0" y="255.0"></text></g><g id="cx-8-22"><rect shape-rendering="crispEdge"  x="660.0" y="240.0" width="30.0" height="30.0" /><text dy="1em"  class="cx-c" x="662.0" y="242.0" >8</text><text dy=".28em"  class="cx-a" x="675.0" y="255.0"></text></g><g id="cx-8-24"><rect shape-rendering="crispEdge"  x="720.0" y="240.0" width="30.0" height="30.0" /><text dy=".28em"  class="cx-a" x="735.0" y="255.0"></text></g><g id="cx-8-26"><rect shape-rendering="crispEdge"  x="780.0" y="240.0" width="30.0" height="30.0" /><text dy=".28em"  class="cx-a" x="795.0" y="255.0"></text></g><g id="cx-9-8"><rect shape-rendering="crispEdge"  x="240.0" y="270.0" width="30.0" height="30.0" /><text dy=".28em"  class="cx-a" x="255.0" y="285.0"></text></g><g id="cx-9-10"><rect shape-rendering="crispEdge"  x="300.0" y="270.0" width="30.0" height="30.0" /><text dy=".28em"  class="cx-a" x="315.0" y="285.0"></text></g><g id="cx-9-12"><rect shape-rendering="crispEdge"  x="360.0" y="270.0" width="30.0" height="30.0" /><text dy=".28em"  class="cx-a" x="375.0" y="285.0"></text></g><g id="cx-9-15"><rect shape-rendering="crispEdge"  x="450.0" y="270.0" width="30.0" height="30.0" /><text dy="1em"  class="cx-c" x="452.0" y="272.0" >9</text><text dy=".28em"  class="cx-a" x="465.0" y="285.0"></text></g><g id="cx-9-16"><rect shape-rendering="crispEdge"  x="480.0" y="270.0" width="30.0" height="30.0" /><text dy=".28em"  class="cx-a" x="495.0" y="285.0"></text></g><g id="cx-9-17"><rect shape-rendering="crispEdge"  x="510.0" y="270.0" width="30.0" height="30.0" /><text dy=".28em"  class="cx-a" x="525.0" y="285.0"></text></g><g id="cx-9-18"><rect shape-rendering="crispEdge"  x="540.0" y="270.0" width="30.0" height="30.0" /><text dy=".28em"  class="cx-a" x="555.0" y="285.0"></text></g><g id="cx-9-19"><rect shape-rendering="crispEdge"  x="570.0" y="270.0" width="30.0" height="30.0" /><text dy=".28em"  class="cx-a" x="585.0" y="285.0"></text></g><g id="cx-9-20"><rect shape-rendering="crispEdge"  x="600.0" y="270.0" width="30.0" height="30.0" /><text dy=".28em"  class="cx-a" x="615.0" y="285.0"></text></g><g id="cx-9-21"><rect shape-rendering="crispEdge"  x="630.0" y="270.0" width="30.0" height="30.0" /><text dy=".28em"  class="cx-a" x="645.0" y="285.0"></text></g><g id="cx-9-22"><rect shape-rendering="crispEdge"  x="660.0" y="270.0" width="30.0" height="30.0" /><text dy=".28em"  class="cx-a" x="675.0" y="285.0"></text></g><g id="cx-9-23"><rect shape-rendering="crispEdge"  x="690.0" y="270.0" width="30.0" height="30.0" /><text dy=".28em"  class="cx-a" x="705.0" y="285.0"></text></g><g id="cx-9-24"><rect shape-rendering="crispEdge"  x="720.0" y="270.0" width="30.0" height="30.0" /><text dy=".28em"  class="cx-a" x="735.0" y="285.0"></text></g><g id="cx-9-26"><rect shape-rendering="crispEdge"  x="780.0" y="270.0" width="30.0" height="30.0" /><text dy=".28em"  class="cx-a" x="795.0" y="285.0"></text></g><g id="cx-10-4"><rect shape-rendering="crispEdge"  x="120.0" y="300.0" width="30.0" height="30.0" /><text dy="1em"  class="cx-c" x="122.0" y="302.0" >10</text><text dy=".28em"  class="cx-a" x="135.0" y="315.0"></text></g><g id="cx-10-5"><rect shape-rendering="crispEdge"  x="150.0" y="300.0" width="30.0" height="30.0" /><text dy=".28em"  class="cx-a" x="165.0" y="315.0"></text></g><g id="cx-10-6"><rect shape-rendering="crispEdge"  x="180.0" y="300.0" width="30.0" height="30.0" /><text dy=".28em"  class="cx-a" x="195.0" y="315.0"></text></g><g id="cx-10-7"><rect shape-rendering="crispEdge"  x="210.0" y="300.0" width="30.0" height="30.0" /><text dy=".28em"  class="cx-a" x="225.0" y="315.0"></text></g><g id="cx-10-8"><rect shape-rendering="crispEdge"  x="240.0" y="300.0" width="30.0" height="30.0" /><text dy=".28em"  class="cx-a" x="255.0" y="315.0"></text></g><g id="cx-10-9"><rect shape-rendering="crispEdge"  x="270.0" y="300.0" width="30.0" height="30.0" /><text dy=".28em"  class="cx-a" x="285.0" y="315.0"></text></g><g id="cx-10-10"><rect shape-rendering="crispEdge"  x="300.0" y="300.0" width="30.0" height="30.0" /><text dy=".28em"  class="cx-a" x="315.0" y="315.0"></text></g><g id="cx-10-11"><rect shape-rendering="crispEdge"  x="330.0" y="300.0" width="30.0" height="30.0" /><text dy=".28em"  class="cx-a" x="345.0" y="315.0"></text></g><g id="cx-10-12"><rect shape-rendering="crispEdge"  x="360.0" y="300.0" width="30.0" height="30.0" /><text dy=".28em"  class="cx-a" x="375.0" y="315.0"></text></g><g id="cx-10-13"><rect shape-rendering="crispEdge"  x="390.0" y="300.0" width="30.0" height="30.0" /><text dy=".28em"  class="cx-a" x="405.0" y="315.0"></text></g><g id="cx-10-16"><rect shape-rendering="crispEdge"  x="480.0" y="300.0" width="30.0" height="30.0" /><text dy=".28em"  class="cx-a" x="495.0" y="315.0"></text></g><g id="cx-10-22"><rect shape-rendering="crispEdge"  x="660.0" y="300.0" width="30.0" height="30.0" /><text dy=".28em"  class="cx-a" x="675.0" y="315.0"></text></g><g id="cx-10-24"><rect shape-rendering="crispEdge"  x="720.0" y="300.0" width="30.0" height="30.0" /><text dy=".28em"  class="cx-a" x="735.0" y="315.0"></text></g><g id="cx-10-26"><rect shape-rendering="crispEdge"  x="780.0" y="300.0" width="30.0" height="30.0" /><text dy=".28em"  class="cx-a" x="795.0" y="315.0"></text></g><g id="cx-11-8"><rect shape-rendering="crispEdge"  x="240.0" y="330.0" width="30.0" height="30.0" /><text dy=".28em"  class="cx-a" x="255.0" y="345.0"></text></g><g id="cx-11-10"><rect shape-rendering="crispEdge"  x="300.0" y="330.0" width="30.0" height="30.0" /><text dy=".28em"  class="cx-a" x="315.0" y="345.0"></text></g><g id="cx-11-12"><rect shape-rendering="crispEdge"  x="360.0" y="330.0" width="30.0" height="30.0" /><text dy=".28em"  class="cx-a" x="375.0" y="345.0"></text></g><g id="cx-11-16"><rect shape-rendering="crispEdge"  x="480.0" y="330.0" width="30.0" height="30.0" /><text dy=".28em"  class="cx-a" x="495.0" y="345.0"></text></g><g id="cx-11-18"><rect shape-rendering="crispEdge"  x="540.0" y="330.0" width="30.0" height="30.0" /><text dy="1em"  class="cx-c" x="542.0" y="332.0" >11</text><text dy=".28em"  class="cx-a" x="555.0" y="345.0"></text></g><g id="cx-11-22"><rect shape-rendering="crispEdge"  x="660.0" y="330.0" width="30.0" height="30.0" /><text dy=".28em"  class="cx-a" x="675.0" y="345.0"></text></g><g id="cx-11-24"><rect shape-rendering="crispEdge"  x="720.0" y="330.0" width="30.0" height="30.0" /><text dy=".28em"  class="cx-a" x="735.0" y="345.0"></text></g><g id="cx-11-26"><rect shape-rendering="crispEdge"  x="780.0" y="330.0" width="30.0" height="30.0" /><text dy=".28em"  class="cx-a" x="795.0" y="345.0"></text></g><g id="cx-12-8"><rect shape-rendering="crispEdge"  x="240.0" y="360.0" width="30.0" height="30.0" /><text dy=".28em"  class="cx-a" x="255.0" y="375.0"></text></g><g id="cx-12-10"><rect shape-rendering="crispEdge"  x="300.0" y="360.0" width="30.0" height="30.0" /><text dy=".28em"  class="cx-a" x="315.0" y="375.0"></text></g><g id="cx-12-12"><rect shape-rendering="crispEdge"  x="360.0" y="360.0" width="30.0" height="30.0" /><text dy=".28em"  class="cx-a" x="375.0" y="375.0"></text></g><g id="cx-12-16"><rect shape-rendering="crispEdge"  x="480.0" y="360.0" width="30.0" height="30.0" /><text dy=".28em"  class="cx-a" x="495.0" y="375.0"></text></g><g id="cx-12-18"><rect shape-rendering="crispEdge"  x="540.0" y="360.0" width="30.0" height="30.0" /><text dy=".28em"  class="cx-a" x="555.0" y="375.0"></text></g><g id="cx-12-22"><rect shape-rendering="crispEdge"  x="660.0" y="360.0" width="30.0" height="30.0" /><text dy=".28em"  class="cx-a" x="675.0" y="375.0"></text></g><g id="cx-12-24"><rect shape-rendering="crispEdge"  x="720.0" y="360.0" width="30.0" height="30.0" /><text dy="1em"  class="cx-c" x="722.0" y="362.0" >12</text><text dy=".28em"  class="cx-a" x="735.0" y="375.0"></text></g><g id="cx-12-25"><rect shape-rendering="crispEdge"  x="750.0" y="360.0" width="30.0" height="30.0" /><text dy=".28em"  class="cx-a" x="765.0" y="375.0"></text></g><g id="cx-12-26"><rect shape-rendering="crispEdge"  x="780.0" y="360.0" width="30.0" height="30.0" /><text dy=".28em"  class="cx-a" x="795.0" y="375.0"></text></g><g id="cx-12-27"><rect shape-rendering="crispEdge"  x="810.0" y="360.0" width="30.0" height="30.0" /><text dy=".28em"  class="cx-a" x="825.0" y="375.0"></text></g><g id="cx-13-8"><rect shape-rendering="crispEdge"  x="240.0" y="390.0" width="30.0" height="30.0" /><text dy=".28em"  class="cx-a" x="255.0" y="405.0"></text></g><g id="cx-13-10"><rect shape-rendering="crispEdge"  x="300.0" y="390.0" width="30.0" height="30.0" /><text dy=".28em"  class="cx-a" x="315.0" y="405.0"></text></g><g id="cx-13-12"><rect shape-rendering="crispEdge"  x="360.0" y="390.0" width="30.0" height="30.0" /><text dy=".28em"  class="cx-a" x="375.0" y="405.0"></text></g><g id="cx-13-16"><rect shape-rendering="crispEdge"  x="480.0" y="390.0" width="30.0" height="30.0" /><text dy=".28em"  class="cx-a" x="495.0" y="405.0"></text></g><g id="cx-13-18"><rect shape-rendering="crispEdge"  x="540.0" y="390.0" width="30.0" height="30.0" /><text dy=".28em"  class="cx-a" x="555.0" y="405.0"></text></g><g id="cx-13-22"><rect shape-rendering="crispEdge"  x="660.0" y="390.0" width="30.0" height="30.0" /><text dy=".28em"  class="cx-a" x="675.0" y="405.0"></text></g><g id="cx-13-24"><rect shape-rendering="crispEdge"  x="720.0" y="390.0" width="30.0" height="30.0" /><text dy=".28em"  class="cx-a" x="735.0" y="405.0"></text></g><g id="cx-13-26"><rect shape-rendering="crispEdge"  x="780.0" y="390.0" width="30.0" height="30.0" /><text dy=".28em"  class="cx-a" x="795.0" y="405.0"></text></g><g id="cx-14-0"><rect shape-rendering="crispEdge"  x="0.0" y="420.0" width="30.0" height="30.0" /><text dy="1em"  class="cx-c" x="2.0" y="422.0" >13</text><text dy=".28em"  class="cx-a" x="15.0" y="435.0"></text></g><g id="cx-14-1"><rect shape-rendering="crispEdge"  x="30.0" y="420.0" width="30.0" height="30.0" /><text dy=".28em"  class="cx-a" x="45.0" y="435.0"></text></g><g id="cx-14-2"><rect shape-rendering="crispEdge"  x="60.0" y="420.0" width="30.0" height="30.0" /><text dy=".28em"  class="cx-a" x="75.0" y="435.0"></text></g><g id="cx-14-3"><rect shape-rendering="crispEdge"  x="90.0" y="420.0" width="30.0" height="30.0" /><text dy=".28em"  class="cx-a" x="105.0" y="435.0"></text></g><g id="cx-14-4"><rect shape-rendering="crispEdge"  x="120.0" y="420.0" width="30.0" height="30.0" /><text dy="1em"  class="cx-c" x="122.0" y="422.0" >14</text><text dy=".28em"  class="cx-a" x="135.0" y="435.0"></text></g><g id="cx-14-5"><rect shape-rendering="crispEdge"  x="150.0" y="420.0" width="30.0" height="30.0" /><text dy=".28em"  class="cx-a" x="165.0" y="435.0"></text></g><g id="cx-14-6"><rect shape-rendering="crispEdge"  x="180.0" y="420.0" width="30.0" height="30.0" /><text dy=".28em"  class="cx-a" x="195.0" y="435.0"></text></g><g id="cx-14-7"><rect shape-rendering="crispEdge"  x="210.0" y="420.0" width="30.0" height="30.0" /><text dy=".28em"  class="cx-a" x="225.0" y="435.0"></text></g><g id="cx-14-8"><rect shape-rendering="crispEdge"  x="240.0" y="420.0" width="30.0" height="30.0" /><text dy=".28em"  class="cx-a" x="255.0" y="435.0"></text></g><g id="cx-14-9"><rect shape-rendering="crispEdge"  x="270.0" y="420.0" width="30.0" height="30.0" /><text dy=".28em"  class="cx-a" x="285.0" y="435.0"></text></g><g id="cx-14-10"><rect shape-rendering="crispEdge"  x="300.0" y="420.0" width="30.0" height="30.0" /><text dy=".28em"  class="cx-a" x="315.0" y="435.0"></text></g><g id="cx-14-12"><rect shape-rendering="crispEdge"  x="360.0" y="420.0" width="30.0" height="30.0" /><text dy=".28em"  class="cx-a" x="375.0" y="435.0"></text></g><g id="cx-14-14"><rect shape-rendering="crispEdge"  x="420.0" y="420.0" width="30.0" height="30.0" /><text dy="1em"  class="cx-c" x="422.0" y="422.0" >15</text><text dy=".28em"  class="cx-a" x="435.0" y="435.0"></text></g><g id="cx-14-16"><rect shape-rendering="crispEdge"  x="480.0" y="420.0" width="30.0" height="30.0" /><text dy=".28em"  class="cx-a" x="495.0" y="435.0"></text></g><g id="cx-14-18"><rect shape-rendering="crispEdge"  x="540.0" y="420.0" width="30.0" height="30.0" /><text dy=".28em"  class="cx-a" x="555.0" y="435.0"></text></g><g id="cx-14-22"><rect shape-rendering="crispEdge"  x="660.0" y="420.0" width="30.0" height="30.0" /><text dy=".28em"  class="cx-a" x="675.0" y="435.0"></text></g><g id="cx-14-24"><rect shape-rendering="crispEdge"  x="720.0" y="420.0" width="30.0" height="30.0" /><text dy=".28em"  class="cx-a" x="735.0" y="435.0"></text></g><g id="cx-15-4"><rect shape-rendering="crispEdge"  x="120.0" y="450.0" width="30.0" height="30.0" /><text dy=".28em"  class="cx-a" x="135.0" y="465.0"></text></g><g id="cx-15-8"><rect shape-rendering="crispEdge"  x="240.0" y="450.0" width="30.0" height="30.0" /><text dy=".28em"  class="cx-a" x="255.0" y="465.0"></text></g><g id="cx-15-12"><rect shape-rendering="crispEdge"  x="360.0" y="450.0" width="30.0" height="30.0" /><text dy=".28em"  class="cx-a" x="375.0" y="465.0"></text></g><g id="cx-15-14"><rect shape-rendering="crispEdge"  x="420.0" y="450.0" width="30.0" height="30.0" /><text dy=".28em"  class="cx-a" x="435.0" y="465.0"></text></g><g id="cx-15-17"><rect shape-rendering="crispEdge"  x="510.0" y="450.0" width="30.0" height="30.0" /><text dy="1em"  class="cx-c" x="512.0" y="452.0" >16</text><text dy=".28em"  class="cx-a" x="525.0" y="465.0"></text></g><g id="cx-15-18"><rect shape-rendering="crispEdge"  x="540.0" y="450.0" width="30.0" height="30.0" /><text dy=".28em"  class="cx-a" x="555.0" y="465.0"></text></g><g id="cx-15-19"><rect shape-rendering="crispEdge"  x="570.0" y="450.0" width="30.0" height="30.0" /><text dy=".28em"  class="cx-a" x="585.0" y="465.0"></text></g><g id="cx-15-20"><rect shape-rendering="crispEdge"  x="600.0" y="450.0" width="30.0" height="30.0" /><text dy=".28em"  class="cx-a" x="615.0" y="465.0"></text></g><g id="cx-15-21"><rect shape-rendering="crispEdge"  x="630.0" y="450.0" width="30.0" height="30.0" /><text dy=".28em"  class="cx-a" x="645.0" y="465.0"></text></g><g id="cx-15-22"><rect shape-rendering="crispEdge"  x="660.0" y="450.0" width="30.0" height="30.0" /><text dy=".28em"  class="cx-a" x="675.0" y="465.0"></text></g><g id="cx-15-23"><rect shape-rendering="crispEdge"  x="690.0" y="450.0" width="30.0" height="30.0" /><text dy=".28em"  class="cx-a" x="705.0" y="465.0"></text></g><g id="cx-15-24"><rect shape-rendering="crispEdge"  x="720.0" y="450.0" width="30.0" height="30.0" /><text dy=".28em"  class="cx-a" x="735.0" y="465.0"></text></g><g id="cx-15-25"><rect shape-rendering="crispEdge"  x="750.0" y="450.0" width="30.0" height="30.0" /><text dy=".28em"  class="cx-a" x="765.0" y="465.0"></text></g><g id="cx-16-4"><rect shape-rendering="crispEdge"  x="120.0" y="480.0" width="30.0" height="30.0" /><text dy=".28em"  class="cx-a" x="135.0" y="495.0"></text></g><g id="cx-16-8"><rect shape-rendering="crispEdge"  x="240.0" y="480.0" width="30.0" height="30.0" /><text dy=".28em"  class="cx-a" x="255.0" y="495.0"></text></g><g id="cx-16-10"><rect shape-rendering="crispEdge"  x="300.0" y="480.0" width="30.0" height="30.0" /><text dy="1em"  class="cx-c" x="302.0" y="482.0" >17</text><text dy=".28em"  class="cx-a" x="315.0" y="495.0"></text></g><g id="cx-16-11"><rect shape-rendering="crispEdge"  x="330.0" y="480.0" width="30.0" height="30.0" /><text dy=".28em"  class="cx-a" x="345.0" y="495.0"></text></g><g id="cx-16-12"><rect shape-rendering="crispEdge"  x="360.0" y="480.0" width="30.0" height="30.0" /><text dy=".28em"  class="cx-a" x="375.0" y="495.0"></text></g><g id="cx-16-13"><rect shape-rendering="crispEdge"  x="390.0" y="480.0" width="30.0" height="30.0" /><text dy=".28em"  class="cx-a" x="405.0" y="495.0"></text></g><g id="cx-16-14"><rect shape-rendering="crispEdge"  x="420.0" y="480.0" width="30.0" height="30.0" /><text dy=".28em"  class="cx-a" x="435.0" y="495.0"></text></g><g id="cx-16-18"><rect shape-rendering="crispEdge"  x="540.0" y="480.0" width="30.0" height="30.0" /><text dy=".28em"  class="cx-a" x="555.0" y="495.0"></text></g><g id="cx-16-22"><rect shape-rendering="crispEdge"  x="660.0" y="480.0" width="30.0" height="30.0" /><text dy=".28em"  class="cx-a" x="675.0" y="495.0"></text></g><g id="cx-16-24"><rect shape-rendering="crispEdge"  x="720.0" y="480.0" width="30.0" height="30.0" /><text dy=".28em"  class="cx-a" x="735.0" y="495.0"></text></g><g id="cx-17-4"><rect shape-rendering="crispEdge"  x="120.0" y="510.0" width="30.0" height="30.0" /><text dy=".28em"  class="cx-a" x="135.0" y="525.0"></text></g><g id="cx-17-14"><rect shape-rendering="crispEdge"  x="420.0" y="510.0" width="30.0" height="30.0" /><text dy=".28em"  class="cx-a" x="435.0" y="525.0"></text></g><g id="cx-17-18"><rect shape-rendering="crispEdge"  x="540.0" y="510.0" width="30.0" height="30.0" /><text dy=".28em"  class="cx-a" x="555.0" y="525.0"></text></g><g id="cx-17-24"><rect shape-rendering="crispEdge"  x="720.0" y="510.0" width="30.0" height="30.0" /><text dy=".28em"  class="cx-a" x="735.0" y="525.0"></text></g><g id="cx-18-4"><rect shape-rendering="crispEdge"  x="120.0" y="540.0" width="30.0" height="30.0" /><text dy=".28em"  class="cx-a" x="135.0" y="555.0"></text></g><g id="cx-18-14"><rect shape-rendering="crispEdge"  x="420.0" y="540.0" width="30.0" height="30.0" /><text dy=".28em"  class="cx-a" x="435.0" y="555.0"></text></g><g id="cx-18-17"><rect shape-rendering="crispEdge"  x="510.0" y="540.0" width="30.0" height="30.0" /><text dy="1em"  class="cx-c" x="512.0" y="542.0" >18</text><text dy=".28em"  class="cx-a" x="525.0" y="555.0"></text></g><g id="cx-18-24"><rect shape-rendering="crispEdge"  x="720.0" y="540.0" width="30.0" height="30.0" /><text dy=".28em"  class="cx-a" x="735.0" y="555.0"></text></g><g id="cx-19-4"><rect shape-rendering="crispEdge"  x="120.0" y="570.0" width="30.0" height="30.0" /><text dy=".28em"  class="cx-a" x="135.0" y="585.0"></text></g><g id="cx-19-8"><rect shape-rendering="crispEdge"  x="240.0" y="570.0" width="30.0" height="30.0" /><text dy="1em"  class="cx-c" x="242.0" y="572.0" >19</text><text dy=".28em"  class="cx-a" x="255.0" y="585.0"></text></g><g id="cx-19-10"><rect shape-rendering="crispEdge"  x="300.0" y="570.0" width="30.0" height="30.0" /><text dy="1em"  class="cx-c" x="302.0" y="572.0" >20</text><text dy=".28em"  class="cx-a" x="315.0" y="585.0"></text></g><g id="cx-19-11"><rect shape-rendering="crispEdge"  x="330.0" y="570.0" width="30.0" height="30.0" /><text dy=".28em"  class="cx-a" x="345.0" y="585.0"></text></g><g id="cx-19-12"><rect shape-rendering="crispEdge"  x="360.0" y="570.0" width="30.0" height="30.0" /><text dy=".28em"  class="cx-a" x="375.0" y="585.0"></text></g><g id="cx-19-13"><rect shape-rendering="crispEdge"  x="390.0" y="570.0" width="30.0" height="30.0" /><text dy=".28em"  class="cx-a" x="405.0" y="585.0"></text></g><g id="cx-19-14"><rect shape-rendering="crispEdge"  x="420.0" y="570.0" width="30.0" height="30.0" /><text dy=".28em"  class="cx-a" x="435.0" y="585.0"></text></g><g id="cx-19-15"><rect shape-rendering="crispEdge"  x="450.0" y="570.0" width="30.0" height="30.0" /><text dy=".28em"  class="cx-a" x="465.0" y="585.0"></text></g><g id="cx-19-16"><rect shape-rendering="crispEdge"  x="480.0" y="570.0" width="30.0" height="30.0" /><text dy=".28em"  class="cx-a" x="495.0" y="585.0"></text></g><g id="cx-19-17"><rect shape-rendering="crispEdge"  x="510.0" y="570.0" width="30.0" height="30.0" /><text dy=".28em"  class="cx-a" x="525.0" y="585.0"></text></g><g id="cx-19-18"><rect shape-rendering="crispEdge"  x="540.0" y="570.0" width="30.0" height="30.0" /><text dy=".28em"  class="cx-a" x="555.0" y="585.0"></text></g><g id="cx-19-21"><rect shape-rendering="crispEdge"  x="630.0" y="570.0" width="30.0" height="30.0" /><text dy="1em"  class="cx-c" x="632.0" y="572.0" >21</text><text dy=".28em"  class="cx-a" x="645.0" y="585.0"></text></g><g id="cx-19-22"><rect shape-rendering="crispEdge"  x="660.0" y="570.0" width="30.0" height="30.0" /><text dy=".28em"  class="cx-a" x="675.0" y="585.0"></text></g><g id="cx-19-23"><rect shape-rendering="crispEdge"  x="690.0" y="570.0" width="30.0" height="30.0" /><text dy=".28em"  class="cx-a" x="705.0" y="585.0"></text></g><g id="cx-19-24"><rect shape-rendering="crispEdge"  x="720.0" y="570.0" width="30.0" height="30.0" /><text dy=".28em"  class="cx-a" x="735.0" y="585.0"></text></g><g id="cx-19-25"><rect shape-rendering="crispEdge"  x="750.0" y="570.0" width="30.0" height="30.0" /><text dy=".28em"  class="cx-a" x="765.0" y="585.0"></text></g><g id="cx-19-26"><rect shape-rendering="crispEdge"  x="780.0" y="570.0" width="30.0" height="30.0" /><text dy=".28em"  class="cx-a" x="795.0" y="585.0"></text></g><g id="cx-20-4"><rect shape-rendering="crispEdge"  x="120.0" y="600.0" width="30.0" height="30.0" /><text dy=".28em"  class="cx-a" x="135.0" y="615.0"></text></g><g id="cx-20-8"><rect shape-rendering="crispEdge"  x="240.0" y="600.0" width="30.0" height="30.0" /><text dy=".28em"  class="cx-a" x="255.0" y="615.0"></text></g><g id="cx-20-10"><rect shape-rendering="crispEdge"  x="300.0" y="600.0" width="30.0" height="30.0" /><text dy=".28em"  class="cx-a" x="315.0" y="615.0"></text></g><g id="cx-20-14"><rect shape-rendering="crispEdge"  x="420.0" y="600.0" width="30.0" height="30.0" /><text dy=".28em"  class="cx-a" x="435.0" y="615.0"></text></g><g id="cx-20-17"><rect shape-rendering="crispEdge"  x="510.0" y="600.0" width="30.0" height="30.0" /><text dy=".28em"  class="cx-a" x="525.0" y="615.0"></text></g><g id="cx-20-20"><rect shape-rendering="crispEdge"  x="600.0" y="600.0" width="30.0" height="30.0" /><text dy="1em"  class="cx-c" x="602.0" y="602.0" >22</text><text dy=".28em"  class="cx-a" x="615.0" y="615.0"></text></g><g id="cx-20-24"><rect shape-rendering="crispEdge"  x="720.0" y="600.0" width="30.0" height="30.0" /><text dy=".28em"  class="cx-a" x="735.0" y="615.0"></text></g><g id="cx-21-4"><rect shape-rendering="crispEdge"  x="120.0" y="630.0" width="30.0" height="30.0" /><text dy=".28em"  class="cx-a" x="135.0" y="645.0"></text></g><g id="cx-21-8"><rect shape-rendering="crispEdge"  x="240.0" y="630.0" width="30.0" height="30.0" /><text dy=".28em"  class="cx-a" x="255.0" y="645.0"></text></g><g id="cx-21-10"><rect shape-rendering="crispEdge"  x="300.0" y="630.0" width="30.0" height="30.0" /><text dy=".28em"  class="cx-a" x="315.0" y="645.0"></text></g><g id="cx-21-14"><rect shape-rendering="crispEdge"  x="420.0" y="630.0" width="30.0" height="30.0" /><text dy=".28em"  class="cx-a" x="435.0" y="645.0"></text></g><g id="cx-21-17"><rect shape-rendering="crispEdge"  x="510.0" y="630.0" width="30.0" height="30.0" /><text dy="1em"  class="cx-c" x="512.0" y="632.0" >23</text><text dy=".28em"  class="cx-a" x="525.0" y="645.0"></text></g><g id="cx-21-18"><rect shape-rendering="crispEdge"  x="540.0" y="630.0" width="30.0" height="30.0" /><text dy=".28em"  class="cx-a" x="555.0" y="645.0"></text></g><g id="cx-21-19"><rect shape-rendering="crispEdge"  x="570.0" y="630.0" width="30.0" height="30.0" /><text dy=".28em"  class="cx-a" x="585.0" y="645.0"></text></g><g id="cx-21-20"><rect shape-rendering="crispEdge"  x="600.0" y="630.0" width="30.0" height="30.0" /><text dy=".28em"  class="cx-a" x="615.0" y="645.0"></text></g><g id="cx-21-21"><rect shape-rendering="crispEdge"  x="630.0" y="630.0" width="30.0" height="30.0" /><text dy=".28em"  class="cx-a" x="645.0" y="645.0"></text></g><g id="cx-21-22"><rect shape-rendering="crispEdge"  x="660.0" y="630.0" width="30.0" height="30.0" /><text dy=".28em"  class="cx-a" x="675.0" y="645.0"></text></g><g id="cx-21-23"><rect shape-rendering="crispEdge"  x="690.0" y="630.0" width="30.0" height="30.0" /><text dy=".28em"  class="cx-a" x="705.0" y="645.0"></text></g><g id="cx-21-24"><rect shape-rendering="crispEdge"  x="720.0" y="630.0" width="30.0" height="30.0" /><text dy=".28em"  class="cx-a" x="735.0" y="645.0"></text></g><g id="cx-21-25"><rect shape-rendering="crispEdge"  x="750.0" y="630.0" width="30.0" height="30.0" /><text dy=".28em"  class="cx-a" x="765.0" y="645.0"></text></g><g id="cx-21-26"><rect shape-rendering="crispEdge"  x="780.0" y="630.0" width="30.0" height="30.0" /><text dy=".28em"  class="cx-a" x="795.0" y="645.0"></text></g><g id="cx-21-27"><rect shape-rendering="crispEdge"  x="810.0" y="630.0" width="30.0" height="30.0" /><text dy=".28em"  class="cx-a" x="825.0" y="645.0"></text></g><g id="cx-22-4"><rect shape-rendering="crispEdge"  x="120.0" y="660.0" width="30.0" height="30.0" /><text dy=".28em"  class="cx-a" x="135.0" y="675.0"></text></g><g id="cx-22-8"><rect shape-rendering="crispEdge"  x="240.0" y="660.0" width="30.0" height="30.0" /><text dy=".28em"  class="cx-a" x="255.0" y="675.0"></text></g><g id="cx-22-10"><rect shape-rendering="crispEdge"  x="300.0" y="660.0" width="30.0" height="30.0" /><text dy=".28em"  class="cx-a" x="315.0" y="675.0"></text></g><g id="cx-22-14"><rect shape-rendering="crispEdge"  x="420.0" y="660.0" width="30.0" height="30.0" /><text dy=".28em"  class="cx-a" x="435.0" y="675.0"></text></g><g id="cx-22-17"><rect shape-rendering="crispEdge"  x="510.0" y="660.0" width="30.0" height="30.0" /><text dy=".28em"  class="cx-a" x="525.0" y="675.0"></text></g><g id="cx-22-20"><rect shape-rendering="crispEdge"  x="600.0" y="660.0" width="30.0" height="30.0" /><text dy=".28em"  class="cx-a" x="615.0" y="675.0"></text></g><g id="cx-22-24"><rect shape-rendering="crispEdge"  x="720.0" y="660.0" width="30.0" height="30.0" /><text dy=".28em"  class="cx-a" x="735.0" y="675.0"></text></g><g id="cx-23-4"><rect shape-rendering="crispEdge"  x="120.0" y="690.0" width="30.0" height="30.0" /><text dy=".28em"  class="cx-a" x="135.0" y="705.0"></text></g><g id="cx-23-8"><rect shape-rendering="crispEdge"  x="240.0" y="690.0" width="30.0" height="30.0" /><text dy=".28em"  class="cx-a" x="255.0" y="705.0"></text></g><g id="cx-23-10"><rect shape-rendering="crispEdge"  x="300.0" y="690.0" width="30.0" height="30.0" /><text dy=".28em"  class="cx-a" x="315.0" y="705.0"></text></g><g id="cx-23-17"><rect shape-rendering="crispEdge"  x="510.0" y="690.0" width="30.0" height="30.0" /><text dy=".28em"  class="cx-a" x="525.0" y="705.0"></text></g><g id="cx-23-20"><rect shape-rendering="crispEdge"  x="600.0" y="690.0" width="30.0" height="30.0" /><text dy=".28em"  class="cx-a" x="615.0" y="705.0"></text></g><g id="cx-23-24"><rect shape-rendering="crispEdge"  x="720.0" y="690.0" width="30.0" height="30.0" /><text dy=".28em"  class="cx-a" x="735.0" y="705.0"></text></g><g id="cx-24-4"><rect shape-rendering="crispEdge"  x="120.0" y="720.0" width="30.0" height="30.0" /><text dy=".28em"  class="cx-a" x="135.0" y="735.0"></text></g><g id="cx-24-8"><rect shape-rendering="crispEdge"  x="240.0" y="720.0" width="30.0" height="30.0" /><text dy=".28em"  class="cx-a" x="255.0" y="735.0"></text></g><g id="cx-24-10"><rect shape-rendering="crispEdge"  x="300.0" y="720.0" width="30.0" height="30.0" /><text dy=".28em"  class="cx-a" x="315.0" y="735.0"></text></g><g id="cx-24-17"><rect shape-rendering="crispEdge"  x="510.0" y="720.0" width="30.0" height="30.0" /><text dy=".28em"  class="cx-a" x="525.0" y="735.0"></text></g><g id="cx-24-20"><rect shape-rendering="crispEdge"  x="600.0" y="720.0" width="30.0" height="30.0" /><text dy=".28em"  class="cx-a" x="615.0" y="735.0"></text></g><g id="cx-25-5"><rect shape-rendering="crispEdge"  x="150.0" y="750.0" width="30.0" height="30.0" /><text dy="1em"  class="cx-c" x="152.0" y="752.0" >24</text><text dy=".28em"  class="cx-a" x="165.0" y="765.0"></text></g><g id="cx-25-6"><rect shape-rendering="crispEdge"  x="180.0" y="750.0" width="30.0" height="30.0" /><text dy=".28em"  class="cx-a" x="195.0" y="765.0"></text></g><g id="cx-25-7"><rect shape-rendering="crispEdge"  x="210.0" y="750.0" width="30.0" height="30.0" /><text dy=".28em"  class="cx-a" x="225.0" y="765.0"></text></g><g id="cx-25-8"><rect shape-rendering="crispEdge"  x="240.0" y="750.0" width="30.0" height="30.0" /><text dy=".28em"  class="cx-a" x="255.0" y="765.0"></text></g><g id="cx-25-9"><rect shape-rendering="crispEdge"  x="270.0" y="750.0" width="30.0" height="30.0" /><text dy=".28em"  class="cx-a" x="285.0" y="765.0"></text></g><g id="cx-25-10"><rect shape-rendering="crispEdge"  x="300.0" y="750.0" width="30.0" height="30.0" /><text dy=".28em"  class="cx-a" x="315.0" y="765.0"></text></g><g id="cx-25-11"><rect shape-rendering="crispEdge"  x="330.0" y="750.0" width="30.0" height="30.0" /><text dy=".28em"  class="cx-a" x="345.0" y="765.0"></text></g><g id="cx-25-12"><rect shape-rendering="crispEdge"  x="360.0" y="750.0" width="30.0" height="30.0" /><text dy=".28em"  class="cx-a" x="375.0" y="765.0"></text></g><g id="cx-25-13"><rect shape-rendering="crispEdge"  x="390.0" y="750.0" width="30.0" height="30.0" /><text dy=".28em"  class="cx-a" x="405.0" y="765.0"></text></g><g id="cx-25-14"><rect shape-rendering="crispEdge"  x="420.0" y="750.0" width="30.0" height="30.0" /><text dy=".28em"  class="cx-a" x="435.0" y="765.0"></text></g><g id="cx-25-15"><rect shape-rendering="crispEdge"  x="450.0" y="750.0" width="30.0" height="30.0" /><text dy=".28em"  class="cx-a" x="465.0" y="765.0"></text></g><g id="cx-25-16"><rect shape-rendering="crispEdge"  x="480.0" y="750.0" width="30.0" height="30.0" /><text dy=".28em"  class="cx-a" x="495.0" y="765.0"></text></g><g id="cx-25-20"><rect shape-rendering="crispEdge"  x="600.0" y="750.0" width="30.0" height="30.0" /><text dy=".28em"  class="cx-a" x="615.0" y="765.0"></text></g><g id="cx-26-8"><rect shape-rendering="crispEdge"  x="240.0" y="780.0" width="30.0" height="30.0" /><text dy=".28em"  class="cx-a" x="255.0" y="795.0"></text></g><g id="cx-26-10"><rect shape-rendering="crispEdge"  x="300.0" y="780.0" width="30.0" height="30.0" /><text dy=".28em"  class="cx-a" x="315.0" y="795.0"></text></g><g id="cx-26-20"><rect shape-rendering="crispEdge"  x="600.0" y="780.0" width="30.0" height="30.0" /><text dy=".28em"  class="cx-a" x="615.0" y="795.0"></text></g><g id="cx-27-8"><rect shape-rendering="crispEdge"  x="240.0" y="810.0" width="30.0" height="30.0" /><text dy=".28em"  class="cx-a" x="255.0" y="825.0"></text></g><g id="cx-27-10"><rect shape-rendering="crispEdge"  x="300.0" y="810.0" width="30.0" height="30.0" /><text dy=".28em"  class="cx-a" x="315.0" y="825.0"></text></g><g id="cx-27-20"><rect shape-rendering="crispEdge"  x="600.0" y="810.0" width="30.0" height="30.0" /><text dy=".28em"  class="cx-a" x="615.0" y="825.0"></text></g><g id="cx-28-8"><rect shape-rendering="crispEdge"  x="240.0" y="840.0" width="30.0" height="30.0" /><text dy=".28em"  class="cx-a" x="255.0" y="855.0"></text></g><g id="cx-28-20"><rect shape-rendering="crispEdge"  x="600.0" y="840.0" width="30.0" height="30.0" /><text dy=".28em"  class="cx-a" x="615.0" y="855.0"></text></g><g id="cx-29-7"><rect shape-rendering="crispEdge"  x="210.0" y="870.0" width="30.0" height="30.0" /><text dy="1em"  class="cx-c" x="212.0" y="872.0" >25</text><text dy=".28em"  class="cx-a" x="225.0" y="885.0"></text></g><g id="cx-29-8"><rect shape-rendering="crispEdge"  x="240.0" y="870.0" width="30.0" height="30.0" /><text dy=".28em"  class="cx-a" x="255.0" y="885.0"></text></g><g id="cx-29-9"><rect shape-rendering="crispEdge"  x="270.0" y="870.0" width="30.0" height="30.0" /><text dy=".28em"  class="cx-a" x="285.0" y="885.0"></text></g><g id="cx-29-10"><rect shape-rendering="crispEdge"  x="300.0" y="870.0" width="30.0" height="30.0" /><text dy=".28em"  class="cx-a" x="315.0" y="885.0"></text></g><g id="cx-29-11"><rect shape-rendering="crispEdge"  x="330.0" y="870.0" width="30.0" height="30.0" /><text dy=".28em"  class="cx-a" x="345.0" y="885.0"></text></g><g id="cx-29-12"><rect shape-rendering="crispEdge"  x="360.0" y="870.0" width="30.0" height="30.0" /><text dy=".28em"  class="cx-a" x="375.0" y="885.0"></text></g><g id="cx-29-13"><rect shape-rendering="crispEdge"  x="390.0" y="870.0" width="30.0" height="30.0" /><text dy=".28em"  class="cx-a" x="405.0" y="885.0"></text></g><g id="cx-29-14"><rect shape-rendering="crispEdge"  x="420.0" y="870.0" width="30.0" height="30.0" /><text dy=".28em"  class="cx-a" x="435.0" y="885.0"></text></g><g id="cx-29-15"><rect shape-rendering="crispEdge"  x="450.0" y="870.0" width="30.0" height="30.0" /><text dy=".28em"  class="cx-a" x="465.0" y="885.0"></text></g><g id="cx-29-16"><rect shape-rendering="crispEdge"  x="480.0" y="870.0" width="30.0" height="30.0" /><text dy=".28em"  class="cx-a" x="495.0" y="885.0"></text></g><g id="cx-29-20"><rect shape-rendering="crispEdge"  x="600.0" y="870.0" width="30.0" height="30.0" /><text dy=".28em"  class="cx-a" x="615.0" y="885.0"></text></g><g id="cx-30-8"><rect shape-rendering="crispEdge"  x="240.0" y="900.0" width="30.0" height="30.0" /><text dy=".28em"  class="cx-a" x="255.0" y="915.0"></text></g><g id="cx-30-20"><rect shape-rendering="crispEdge"  x="600.0" y="900.0" width="30.0" height="30.0" /><text dy=".28em"  class="cx-a" x="615.0" y="915.0"></text></g><g id="cx-31-5"><rect shape-rendering="crispEdge"  x="150.0" y="930.0" width="30.0" height="30.0" /><text dy="1em"  class="cx-c" x="152.0" y="932.0" >26</text><text dy=".28em"  class="cx-a" x="165.0" y="945.0"></text></g><g id="cx-31-6"><rect shape-rendering="crispEdge"  x="180.0" y="930.0" width="30.0" height="30.0" /><text dy=".28em"  class="cx-a" x="195.0" y="945.0"></text></g><g id="cx-31-7"><rect shape-rendering="crispEdge"  x="210.0" y="930.0" width="30.0" height="30.0" /><text dy=".28em"  class="cx-a" x="225.0" y="945.0"></text></g><g id="cx-31-8"><rect shape-rendering="crispEdge"  x="240.0" y="930.0" width="30.0" height="30.0" /><text dy=".28em"  class="cx-a" x="255.0" y="945.0"></text></g><g id="cx-31-9"><rect shape-rendering="crispEdge"  x="270.0" y="930.0" width="30.0" height="30.0" /><text dy=".28em"  class="cx-a" x="285.0" y="945.0"></text></g><g id="cx-31-10"><rect shape-rendering="crispEdge"  x="300.0" y="930.0" width="30.0" height="30.0" /><text dy=".28em"  class="cx-a" x="315.0" y="945.0"></text></g><g id="cx-31-11"><rect shape-rendering="crispEdge"  x="330.0" y="930.0" width="30.0" height="30.0" /><text dy=".28em"  class="cx-a" x="345.0" y="945.0"></text></g><g id="cx-31-12"><rect shape-rendering="crispEdge"  x="360.0" y="930.0" width="30.0" height="30.0" /><text dy=".28em"  class="cx-a" x="375.0" y="945.0"></text></g><g id="cx-31-13"><rect shape-rendering="crispEdge"  x="390.0" y="930.0" width="30.0" height="30.0" /><text dy=".28em"  class="cx-a" x="405.0" y="945.0"></text></g></svg>