<?xml version="1.0" encoding="utf-8" standalone="no"?>
<!DOCTYPE svg PUBLIC "-//W3C//DTD SVG 1.1//EN"
  "http://www.w3.org/Graphics/SVG/1.1/DTD/svg11.dtd">
<svg xmlns:xlink="http://www.w3.org/1999/xlink" width="720pt" height="360pt" viewBox="0 0 720 360" xmlns="http://www.w3.org/2000/svg" version="1.1">
 <metadata>
  <rdf:RDF xmlns:dc="http://purl.org/dc/elements/1.1/" xmlns:cc="http://creativecommons.org/ns#" xmlns:rdf="http://www.w3.org/1999/02/22-rdf-syntax-ns#">
   <cc:Work>
    <dc:type rdf:resource="http://purl.org/dc/dcmitype/StillImage"/>
    <dc:date>2024-10-16T14:40:01.058503</dc:date>
    <dc:format>image/svg+xml</dc:format>
    <dc:creator>
     <cc:Agent>
      <dc:title>Matplotlib v3.9.2, https://matplotlib.org/</dc:title>
     </cc:Agent>
    </dc:creator>
   </cc:Work>
  </rdf:RDF>
 </metadata>
 <defs>
  <style type="text/css">*{stroke-linejoin: round; stroke-linecap: butt}</style>
 </defs>
 <g id="figure_1">
  <g id="patch_1">
   <path d="M 0 360 
L 720 360 
L 720 0 
L 0 0 
z
" style="fill: #ffffff"/>
  </g>
  <g id="axes_1">
   <g id="patch_2">
    <path d="M 90 320.4 
L 648 320.4 
L 648 43.2 
L 90 43.2 
z
" style="fill: #ffffff"/>
   </g>
   <g id="matplotlib.axis_1">
    <g id="xtick_1">
     <g id="line2d_1">
      <path d="M 100.627115 320.4 
L 100.627115 43.2 
" clip-path="url(#pae7cff0b28)" style="fill: none; stroke: #b0b0b0; stroke-width: 0.8; stroke-linecap: square"/>
     </g>
     <g id="line2d_2">
      <defs>
       <path id="mce0a3985eb" d="M 0 0 
L 0 3.5 
" style="stroke: #000000; stroke-width: 0.8"/>
      </defs>
      <g>
       <use xlink:href="#mce0a3985eb" x="100.627115" y="320.4" style="stroke: #000000; stroke-width: 0.8"/>
      </g>
     </g>
     <g id="text_1">
      <!-- 0 -->
      <g transform="translate(96.173365 338.037813) scale(0.14 -0.14)">
       <defs>
        <path id="DejaVuSans-30" d="M 2034 4250 
Q 1547 4250 1301 3770 
Q 1056 3291 1056 2328 
Q 1056 1369 1301 889 
Q 1547 409 2034 409 
Q 2525 409 2770 889 
Q 3016 1369 3016 2328 
Q 3016 3291 2770 3770 
Q 2525 4250 2034 4250 
z
M 2034 4750 
Q 2819 4750 3233 4129 
Q 3647 3509 3647 2328 
Q 3647 1150 3233 529 
Q 2819 -91 2034 -91 
Q 1250 -91 836 529 
Q 422 1150 422 2328 
Q 422 3509 836 4129 
Q 1250 4750 2034 4750 
z
" transform="scale(0.015625)"/>
       </defs>
       <use xlink:href="#DejaVuSans-30"/>
      </g>
     </g>
    </g>
    <g id="xtick_2">
     <g id="line2d_3">
      <path d="M 163.824954 320.4 
L 163.824954 43.2 
" clip-path="url(#pae7cff0b28)" style="fill: none; stroke: #b0b0b0; stroke-width: 0.8; stroke-linecap: square"/>
     </g>
     <g id="line2d_4">
      <g>
       <use xlink:href="#mce0a3985eb" x="163.824954" y="320.4" style="stroke: #000000; stroke-width: 0.8"/>
      </g>
     </g>
     <g id="text_2">
      <!-- 10 -->
      <g transform="translate(154.917454 338.037813) scale(0.14 -0.14)">
       <defs>
        <path id="DejaVuSans-31" d="M 794 531 
L 1825 531 
L 1825 4091 
L 703 3866 
L 703 4441 
L 1819 4666 
L 2450 4666 
L 2450 531 
L 3481 531 
L 3481 0 
L 794 0 
L 794 531 
z
" transform="scale(0.015625)"/>
       </defs>
       <use xlink:href="#DejaVuSans-31"/>
       <use xlink:href="#DejaVuSans-30" x="63.623047"/>
      </g>
     </g>
    </g>
    <g id="xtick_3">
     <g id="line2d_5">
      <path d="M 227.022792 320.4 
L 227.022792 43.2 
" clip-path="url(#pae7cff0b28)" style="fill: none; stroke: #b0b0b0; stroke-width: 0.8; stroke-linecap: square"/>
     </g>
     <g id="line2d_6">
      <g>
       <use xlink:href="#mce0a3985eb" x="227.022792" y="320.4" style="stroke: #000000; stroke-width: 0.8"/>
      </g>
     </g>
     <g id="text_3">
      <!-- 20 -->
      <g transform="translate(218.115292 338.037813) scale(0.14 -0.14)">
       <defs>
        <path id="DejaVuSans-32" d="M 1228 531 
L 3431 531 
L 3431 0 
L 469 0 
L 469 531 
Q 828 903 1448 1529 
Q 2069 2156 2228 2338 
Q 2531 2678 2651 2914 
Q 2772 3150 2772 3378 
Q 2772 3750 2511 3984 
Q 2250 4219 1831 4219 
Q 1534 4219 1204 4116 
Q 875 4013 500 3803 
L 500 4441 
Q 881 4594 1212 4672 
Q 1544 4750 1819 4750 
Q 2544 4750 2975 4387 
Q 3406 4025 3406 3419 
Q 3406 3131 3298 2873 
Q 3191 2616 2906 2266 
Q 2828 2175 2409 1742 
Q 1991 1309 1228 531 
z
" transform="scale(0.015625)"/>
       </defs>
       <use xlink:href="#DejaVuSans-32"/>
       <use xlink:href="#DejaVuSans-30" x="63.623047"/>
      </g>
     </g>
    </g>
    <g id="xtick_4">
     <g id="line2d_7">
      <path d="M 290.220631 320.4 
L 290.220631 43.2 
" clip-path="url(#pae7cff0b28)" style="fill: none; stroke: #b0b0b0; stroke-width: 0.8; stroke-linecap: square"/>
     </g>
     <g id="line2d_8">
      <g>
       <use xlink:href="#mce0a3985eb" x="290.220631" y="320.4" style="stroke: #000000; stroke-width: 0.8"/>
      </g>
     </g>
     <g id="text_4">
      <!-- 30 -->
      <g transform="translate(281.313131 338.037813) scale(0.14 -0.14)">
       <defs>
        <path id="DejaVuSans-33" d="M 2597 2516 
Q 3050 2419 3304 2112 
Q 3559 1806 3559 1356 
Q 3559 666 3084 287 
Q 2609 -91 1734 -91 
Q 1441 -91 1130 -33 
Q 819 25 488 141 
L 488 750 
Q 750 597 1062 519 
Q 1375 441 1716 441 
Q 2309 441 2620 675 
Q 2931 909 2931 1356 
Q 2931 1769 2642 2001 
Q 2353 2234 1838 2234 
L 1294 2234 
L 1294 2753 
L 1863 2753 
Q 2328 2753 2575 2939 
Q 2822 3125 2822 3475 
Q 2822 3834 2567 4026 
Q 2313 4219 1838 4219 
Q 1578 4219 1281 4162 
Q 984 4106 628 3988 
L 628 4550 
Q 988 4650 1302 4700 
Q 1616 4750 1894 4750 
Q 2613 4750 3031 4423 
Q 3450 4097 3450 3541 
Q 3450 3153 3228 2886 
Q 3006 2619 2597 2516 
z
" transform="scale(0.015625)"/>
       </defs>
       <use xlink:href="#DejaVuSans-33"/>
       <use xlink:href="#DejaVuSans-30" x="63.623047"/>
      </g>
     </g>
    </g>
    <g id="xtick_5">
     <g id="line2d_9">
      <path d="M 353.41847 320.4 
L 353.41847 43.2 
" clip-path="url(#pae7cff0b28)" style="fill: none; stroke: #b0b0b0; stroke-width: 0.8; stroke-linecap: square"/>
     </g>
     <g id="line2d_10">
      <g>
       <use xlink:href="#mce0a3985eb" x="353.41847" y="320.4" style="stroke: #000000; stroke-width: 0.8"/>
      </g>
     </g>
     <g id="text_5">
      <!-- 40 -->
      <g transform="translate(344.51097 338.037813) scale(0.14 -0.14)">
       <defs>
        <path id="DejaVuSans-34" d="M 2419 4116 
L 825 1625 
L 2419 1625 
L 2419 4116 
z
M 2253 4666 
L 3047 4666 
L 3047 1625 
L 3713 1625 
L 3713 1100 
L 3047 1100 
L 3047 0 
L 2419 0 
L 2419 1100 
L 313 1100 
L 313 1709 
L 2253 4666 
z
" transform="scale(0.015625)"/>
       </defs>
       <use xlink:href="#DejaVuSans-34"/>
       <use xlink:href="#DejaVuSans-30" x="63.623047"/>
      </g>
     </g>
    </g>
    <g id="xtick_6">
     <g id="line2d_11">
      <path d="M 416.616308 320.4 
L 416.616308 43.2 
" clip-path="url(#pae7cff0b28)" style="fill: none; stroke: #b0b0b0; stroke-width: 0.8; stroke-linecap: square"/>
     </g>
     <g id="line2d_12">
      <g>
       <use xlink:href="#mce0a3985eb" x="416.616308" y="320.4" style="stroke: #000000; stroke-width: 0.8"/>
      </g>
     </g>
     <g id="text_6">
      <!-- 50 -->
      <g transform="translate(407.708808 338.037813) scale(0.14 -0.14)">
       <defs>
        <path id="DejaVuSans-35" d="M 691 4666 
L 3169 4666 
L 3169 4134 
L 1269 4134 
L 1269 2991 
Q 1406 3038 1543 3061 
Q 1681 3084 1819 3084 
Q 2600 3084 3056 2656 
Q 3513 2228 3513 1497 
Q 3513 744 3044 326 
Q 2575 -91 1722 -91 
Q 1428 -91 1123 -41 
Q 819 9 494 109 
L 494 744 
Q 775 591 1075 516 
Q 1375 441 1709 441 
Q 2250 441 2565 725 
Q 2881 1009 2881 1497 
Q 2881 1984 2565 2268 
Q 2250 2553 1709 2553 
Q 1456 2553 1204 2497 
Q 953 2441 691 2322 
L 691 4666 
z
" transform="scale(0.015625)"/>
       </defs>
       <use xlink:href="#DejaVuSans-35"/>
       <use xlink:href="#DejaVuSans-30" x="63.623047"/>
      </g>
     </g>
    </g>
    <g id="xtick_7">
     <g id="line2d_13">
      <path d="M 479.814147 320.4 
L 479.814147 43.2 
" clip-path="url(#pae7cff0b28)" style="fill: none; stroke: #b0b0b0; stroke-width: 0.8; stroke-linecap: square"/>
     </g>
     <g id="line2d_14">
      <g>
       <use xlink:href="#mce0a3985eb" x="479.814147" y="320.4" style="stroke: #000000; stroke-width: 0.8"/>
      </g>
     </g>
     <g id="text_7">
      <!-- 60 -->
      <g transform="translate(470.906647 338.037813) scale(0.14 -0.14)">
       <defs>
        <path id="DejaVuSans-36" d="M 2113 2584 
Q 1688 2584 1439 2293 
Q 1191 2003 1191 1497 
Q 1191 994 1439 701 
Q 1688 409 2113 409 
Q 2538 409 2786 701 
Q 3034 994 3034 1497 
Q 3034 2003 2786 2293 
Q 2538 2584 2113 2584 
z
M 3366 4563 
L 3366 3988 
Q 3128 4100 2886 4159 
Q 2644 4219 2406 4219 
Q 1781 4219 1451 3797 
Q 1122 3375 1075 2522 
Q 1259 2794 1537 2939 
Q 1816 3084 2150 3084 
Q 2853 3084 3261 2657 
Q 3669 2231 3669 1497 
Q 3669 778 3244 343 
Q 2819 -91 2113 -91 
Q 1303 -91 875 529 
Q 447 1150 447 2328 
Q 447 3434 972 4092 
Q 1497 4750 2381 4750 
Q 2619 4750 2861 4703 
Q 3103 4656 3366 4563 
z
" transform="scale(0.015625)"/>
       </defs>
       <use xlink:href="#DejaVuSans-36"/>
       <use xlink:href="#DejaVuSans-30" x="63.623047"/>
      </g>
     </g>
    </g>
    <g id="xtick_8">
     <g id="line2d_15">
      <path d="M 543.011986 320.4 
L 543.011986 43.2 
" clip-path="url(#pae7cff0b28)" style="fill: none; stroke: #b0b0b0; stroke-width: 0.8; stroke-linecap: square"/>
     </g>
     <g id="line2d_16">
      <g>
       <use xlink:href="#mce0a3985eb" x="543.011986" y="320.4" style="stroke: #000000; stroke-width: 0.8"/>
      </g>
     </g>
     <g id="text_8">
      <!-- 70 -->
      <g transform="translate(534.104486 338.037813) scale(0.14 -0.14)">
       <defs>
        <path id="DejaVuSans-37" d="M 525 4666 
L 3525 4666 
L 3525 4397 
L 1831 0 
L 1172 0 
L 2766 4134 
L 525 4134 
L 525 4666 
z
" transform="scale(0.015625)"/>
       </defs>
       <use xlink:href="#DejaVuSans-37"/>
       <use xlink:href="#DejaVuSans-30" x="63.623047"/>
      </g>
     </g>
    </g>
    <g id="xtick_9">
     <g id="line2d_17">
      <path d="M 606.209825 320.4 
L 606.209825 43.2 
" clip-path="url(#pae7cff0b28)" style="fill: none; stroke: #b0b0b0; stroke-width: 0.8; stroke-linecap: square"/>
     </g>
     <g id="line2d_18">
      <g>
       <use xlink:href="#mce0a3985eb" x="606.209825" y="320.4" style="stroke: #000000; stroke-width: 0.8"/>
      </g>
     </g>
     <g id="text_9">
      <!-- 80 -->
      <g transform="translate(597.302325 338.037813) scale(0.14 -0.14)">
       <defs>
        <path id="DejaVuSans-38" d="M 2034 2216 
Q 1584 2216 1326 1975 
Q 1069 1734 1069 1313 
Q 1069 891 1326 650 
Q 1584 409 2034 409 
Q 2484 409 2743 651 
Q 3003 894 3003 1313 
Q 3003 1734 2745 1975 
Q 2488 2216 2034 2216 
z
M 1403 2484 
Q 997 2584 770 2862 
Q 544 3141 544 3541 
Q 544 4100 942 4425 
Q 1341 4750 2034 4750 
Q 2731 4750 3128 4425 
Q 3525 4100 3525 3541 
Q 3525 3141 3298 2862 
Q 3072 2584 2669 2484 
Q 3125 2378 3379 2068 
Q 3634 1759 3634 1313 
Q 3634 634 3220 271 
Q 2806 -91 2034 -91 
Q 1263 -91 848 271 
Q 434 634 434 1313 
Q 434 1759 690 2068 
Q 947 2378 1403 2484 
z
M 1172 3481 
Q 1172 3119 1398 2916 
Q 1625 2713 2034 2713 
Q 2441 2713 2670 2916 
Q 2900 3119 2900 3481 
Q 2900 3844 2670 4047 
Q 2441 4250 2034 4250 
Q 1625 4250 1398 4047 
Q 1172 3844 1172 3481 
z
" transform="scale(0.015625)"/>
       </defs>
       <use xlink:href="#DejaVuSans-38"/>
       <use xlink:href="#DejaVuSans-30" x="63.623047"/>
      </g>
     </g>
    </g>
    <g id="text_10">
     <!-- Compressive strength [MPa] -->
     <g transform="translate(270.225625 355.587188) scale(0.14 -0.14)">
      <defs>
       <path id="DejaVuSans-43" d="M 4122 4306 
L 4122 3641 
Q 3803 3938 3442 4084 
Q 3081 4231 2675 4231 
Q 1875 4231 1450 3742 
Q 1025 3253 1025 2328 
Q 1025 1406 1450 917 
Q 1875 428 2675 428 
Q 3081 428 3442 575 
Q 3803 722 4122 1019 
L 4122 359 
Q 3791 134 3420 21 
Q 3050 -91 2638 -91 
Q 1578 -91 968 557 
Q 359 1206 359 2328 
Q 359 3453 968 4101 
Q 1578 4750 2638 4750 
Q 3056 4750 3426 4639 
Q 3797 4528 4122 4306 
z
" transform="scale(0.015625)"/>
       <path id="DejaVuSans-6f" d="M 1959 3097 
Q 1497 3097 1228 2736 
Q 959 2375 959 1747 
Q 959 1119 1226 758 
Q 1494 397 1959 397 
Q 2419 397 2687 759 
Q 2956 1122 2956 1747 
Q 2956 2369 2687 2733 
Q 2419 3097 1959 3097 
z
M 1959 3584 
Q 2709 3584 3137 3096 
Q 3566 2609 3566 1747 
Q 3566 888 3137 398 
Q 2709 -91 1959 -91 
Q 1206 -91 779 398 
Q 353 888 353 1747 
Q 353 2609 779 3096 
Q 1206 3584 1959 3584 
z
" transform="scale(0.015625)"/>
       <path id="DejaVuSans-6d" d="M 3328 2828 
Q 3544 3216 3844 3400 
Q 4144 3584 4550 3584 
Q 5097 3584 5394 3201 
Q 5691 2819 5691 2113 
L 5691 0 
L 5113 0 
L 5113 2094 
Q 5113 2597 4934 2840 
Q 4756 3084 4391 3084 
Q 3944 3084 3684 2787 
Q 3425 2491 3425 1978 
L 3425 0 
L 2847 0 
L 2847 2094 
Q 2847 2600 2669 2842 
Q 2491 3084 2119 3084 
Q 1678 3084 1418 2786 
Q 1159 2488 1159 1978 
L 1159 0 
L 581 0 
L 581 3500 
L 1159 3500 
L 1159 2956 
Q 1356 3278 1631 3431 
Q 1906 3584 2284 3584 
Q 2666 3584 2933 3390 
Q 3200 3197 3328 2828 
z
" transform="scale(0.015625)"/>
       <path id="DejaVuSans-70" d="M 1159 525 
L 1159 -1331 
L 581 -1331 
L 581 3500 
L 1159 3500 
L 1159 2969 
Q 1341 3281 1617 3432 
Q 1894 3584 2278 3584 
Q 2916 3584 3314 3078 
Q 3713 2572 3713 1747 
Q 3713 922 3314 415 
Q 2916 -91 2278 -91 
Q 1894 -91 1617 61 
Q 1341 213 1159 525 
z
M 3116 1747 
Q 3116 2381 2855 2742 
Q 2594 3103 2138 3103 
Q 1681 3103 1420 2742 
Q 1159 2381 1159 1747 
Q 1159 1113 1420 752 
Q 1681 391 2138 391 
Q 2594 391 2855 752 
Q 3116 1113 3116 1747 
z
" transform="scale(0.015625)"/>
       <path id="DejaVuSans-72" d="M 2631 2963 
Q 2534 3019 2420 3045 
Q 2306 3072 2169 3072 
Q 1681 3072 1420 2755 
Q 1159 2438 1159 1844 
L 1159 0 
L 581 0 
L 581 3500 
L 1159 3500 
L 1159 2956 
Q 1341 3275 1631 3429 
Q 1922 3584 2338 3584 
Q 2397 3584 2469 3576 
Q 2541 3569 2628 3553 
L 2631 2963 
z
" transform="scale(0.015625)"/>
       <path id="DejaVuSans-65" d="M 3597 1894 
L 3597 1613 
L 953 1613 
Q 991 1019 1311 708 
Q 1631 397 2203 397 
Q 2534 397 2845 478 
Q 3156 559 3463 722 
L 3463 178 
Q 3153 47 2828 -22 
Q 2503 -91 2169 -91 
Q 1331 -91 842 396 
Q 353 884 353 1716 
Q 353 2575 817 3079 
Q 1281 3584 2069 3584 
Q 2775 3584 3186 3129 
Q 3597 2675 3597 1894 
z
M 3022 2063 
Q 3016 2534 2758 2815 
Q 2500 3097 2075 3097 
Q 1594 3097 1305 2825 
Q 1016 2553 972 2059 
L 3022 2063 
z
" transform="scale(0.015625)"/>
       <path id="DejaVuSans-73" d="M 2834 3397 
L 2834 2853 
Q 2591 2978 2328 3040 
Q 2066 3103 1784 3103 
Q 1356 3103 1142 2972 
Q 928 2841 928 2578 
Q 928 2378 1081 2264 
Q 1234 2150 1697 2047 
L 1894 2003 
Q 2506 1872 2764 1633 
Q 3022 1394 3022 966 
Q 3022 478 2636 193 
Q 2250 -91 1575 -91 
Q 1294 -91 989 -36 
Q 684 19 347 128 
L 347 722 
Q 666 556 975 473 
Q 1284 391 1588 391 
Q 1994 391 2212 530 
Q 2431 669 2431 922 
Q 2431 1156 2273 1281 
Q 2116 1406 1581 1522 
L 1381 1569 
Q 847 1681 609 1914 
Q 372 2147 372 2553 
Q 372 3047 722 3315 
Q 1072 3584 1716 3584 
Q 2034 3584 2315 3537 
Q 2597 3491 2834 3397 
z
" transform="scale(0.015625)"/>
       <path id="DejaVuSans-69" d="M 603 3500 
L 1178 3500 
L 1178 0 
L 603 0 
L 603 3500 
z
M 603 4863 
L 1178 4863 
L 1178 4134 
L 603 4134 
L 603 4863 
z
" transform="scale(0.015625)"/>
       <path id="DejaVuSans-76" d="M 191 3500 
L 800 3500 
L 1894 563 
L 2988 3500 
L 3597 3500 
L 2284 0 
L 1503 0 
L 191 3500 
z
" transform="scale(0.015625)"/>
       <path id="DejaVuSans-20" transform="scale(0.015625)"/>
       <path id="DejaVuSans-74" d="M 1172 4494 
L 1172 3500 
L 2356 3500 
L 2356 3053 
L 1172 3053 
L 1172 1153 
Q 1172 725 1289 603 
Q 1406 481 1766 481 
L 2356 481 
L 2356 0 
L 1766 0 
Q 1100 0 847 248 
Q 594 497 594 1153 
L 594 3053 
L 172 3053 
L 172 3500 
L 594 3500 
L 594 4494 
L 1172 4494 
z
" transform="scale(0.015625)"/>
       <path id="DejaVuSans-6e" d="M 3513 2113 
L 3513 0 
L 2938 0 
L 2938 2094 
Q 2938 2591 2744 2837 
Q 2550 3084 2163 3084 
Q 1697 3084 1428 2787 
Q 1159 2491 1159 1978 
L 1159 0 
L 581 0 
L 581 3500 
L 1159 3500 
L 1159 2956 
Q 1366 3272 1645 3428 
Q 1925 3584 2291 3584 
Q 2894 3584 3203 3211 
Q 3513 2838 3513 2113 
z
" transform="scale(0.015625)"/>
       <path id="DejaVuSans-67" d="M 2906 1791 
Q 2906 2416 2648 2759 
Q 2391 3103 1925 3103 
Q 1463 3103 1205 2759 
Q 947 2416 947 1791 
Q 947 1169 1205 825 
Q 1463 481 1925 481 
Q 2391 481 2648 825 
Q 2906 1169 2906 1791 
z
M 3481 434 
Q 3481 -459 3084 -895 
Q 2688 -1331 1869 -1331 
Q 1566 -1331 1297 -1286 
Q 1028 -1241 775 -1147 
L 775 -588 
Q 1028 -725 1275 -790 
Q 1522 -856 1778 -856 
Q 2344 -856 2625 -561 
Q 2906 -266 2906 331 
L 2906 616 
Q 2728 306 2450 153 
Q 2172 0 1784 0 
Q 1141 0 747 490 
Q 353 981 353 1791 
Q 353 2603 747 3093 
Q 1141 3584 1784 3584 
Q 2172 3584 2450 3431 
Q 2728 3278 2906 2969 
L 2906 3500 
L 3481 3500 
L 3481 434 
z
" transform="scale(0.015625)"/>
       <path id="DejaVuSans-68" d="M 3513 2113 
L 3513 0 
L 2938 0 
L 2938 2094 
Q 2938 2591 2744 2837 
Q 2550 3084 2163 3084 
Q 1697 3084 1428 2787 
Q 1159 2491 1159 1978 
L 1159 0 
L 581 0 
L 581 4863 
L 1159 4863 
L 1159 2956 
Q 1366 3272 1645 3428 
Q 1925 3584 2291 3584 
Q 2894 3584 3203 3211 
Q 3513 2838 3513 2113 
z
" transform="scale(0.015625)"/>
       <path id="DejaVuSans-5b" d="M 550 4863 
L 1875 4863 
L 1875 4416 
L 1125 4416 
L 1125 -397 
L 1875 -397 
L 1875 -844 
L 550 -844 
L 550 4863 
z
" transform="scale(0.015625)"/>
       <path id="DejaVuSans-4d" d="M 628 4666 
L 1569 4666 
L 2759 1491 
L 3956 4666 
L 4897 4666 
L 4897 0 
L 4281 0 
L 4281 4097 
L 3078 897 
L 2444 897 
L 1241 4097 
L 1241 0 
L 628 0 
L 628 4666 
z
" transform="scale(0.015625)"/>
       <path id="DejaVuSans-50" d="M 1259 4147 
L 1259 2394 
L 2053 2394 
Q 2494 2394 2734 2622 
Q 2975 2850 2975 3272 
Q 2975 3691 2734 3919 
Q 2494 4147 2053 4147 
L 1259 4147 
z
M 628 4666 
L 2053 4666 
Q 2838 4666 3239 4311 
Q 3641 3956 3641 3272 
Q 3641 2581 3239 2228 
Q 2838 1875 2053 1875 
L 1259 1875 
L 1259 0 
L 628 0 
L 628 4666 
z
" transform="scale(0.015625)"/>
       <path id="DejaVuSans-61" d="M 2194 1759 
Q 1497 1759 1228 1600 
Q 959 1441 959 1056 
Q 959 750 1161 570 
Q 1363 391 1709 391 
Q 2188 391 2477 730 
Q 2766 1069 2766 1631 
L 2766 1759 
L 2194 1759 
z
M 3341 1997 
L 3341 0 
L 2766 0 
L 2766 531 
Q 2569 213 2275 61 
Q 1981 -91 1556 -91 
Q 1019 -91 701 211 
Q 384 513 384 1019 
Q 384 1609 779 1909 
Q 1175 2209 1959 2209 
L 2766 2209 
L 2766 2266 
Q 2766 2663 2505 2880 
Q 2244 3097 1772 3097 
Q 1472 3097 1187 3025 
Q 903 2953 641 2809 
L 641 3341 
Q 956 3463 1253 3523 
Q 1550 3584 1831 3584 
Q 2591 3584 2966 3190 
Q 3341 2797 3341 1997 
z
" transform="scale(0.015625)"/>
       <path id="DejaVuSans-5d" d="M 1947 4863 
L 1947 -844 
L 622 -844 
L 622 -397 
L 1369 -397 
L 1369 4416 
L 622 4416 
L 622 4863 
L 1947 4863 
z
" transform="scale(0.015625)"/>
      </defs>
      <use xlink:href="#DejaVuSans-43"/>
      <use xlink:href="#DejaVuSans-6f" x="69.824219"/>
      <use xlink:href="#DejaVuSans-6d" x="131.005859"/>
      <use xlink:href="#DejaVuSans-70" x="228.417969"/>
      <use xlink:href="#DejaVuSans-72" x="291.894531"/>
      <use xlink:href="#DejaVuSans-65" x="330.757812"/>
      <use xlink:href="#DejaVuSans-73" x="392.28125"/>
      <use xlink:href="#DejaVuSans-73" x="444.380859"/>
      <use xlink:href="#DejaVuSans-69" x="496.480469"/>
      <use xlink:href="#DejaVuSans-76" x="524.263672"/>
      <use xlink:href="#DejaVuSans-65" x="583.443359"/>
      <use xlink:href="#DejaVuSans-20" x="644.966797"/>
      <use xlink:href="#DejaVuSans-73" x="676.753906"/>
      <use xlink:href="#DejaVuSans-74" x="728.853516"/>
      <use xlink:href="#DejaVuSans-72" x="768.0625"/>
      <use xlink:href="#DejaVuSans-65" x="806.925781"/>
      <use xlink:href="#DejaVuSans-6e" x="868.449219"/>
      <use xlink:href="#DejaVuSans-67" x="931.828125"/>
      <use xlink:href="#DejaVuSans-74" x="995.304688"/>
      <use xlink:href="#DejaVuSans-68" x="1034.513672"/>
      <use xlink:href="#DejaVuSans-20" x="1097.892578"/>
      <use xlink:href="#DejaVuSans-5b" x="1129.679688"/>
      <use xlink:href="#DejaVuSans-4d" x="1168.693359"/>
      <use xlink:href="#DejaVuSans-50" x="1254.972656"/>
      <use xlink:href="#DejaVuSans-61" x="1310.775391"/>
      <use xlink:href="#DejaVuSans-5d" x="1372.054688"/>
     </g>
    </g>
   </g>
   <g id="matplotlib.axis_2">
    <g id="ytick_1">
     <g id="line2d_19">
      <path d="M 90 317.60866 
L 648 317.60866 
" clip-path="url(#pae7cff0b28)" style="fill: none; stroke: #b0b0b0; stroke-width: 0.8; stroke-linecap: square"/>
     </g>
     <g id="line2d_20">
      <defs>
       <path id="mf7aa41bfa1" d="M 0 0 
L -3.5 0 
" style="stroke: #000000; stroke-width: 0.8"/>
      </defs>
      <g>
       <use xlink:href="#mf7aa41bfa1" x="90" y="317.60866" style="stroke: #000000; stroke-width: 0.8"/>
      </g>
     </g>
     <g id="text_11">
      <!-- $\mathdefault{10^{-3}}$ -->
      <g transform="translate(50.1 322.927566) scale(0.14 -0.14)">
       <defs>
        <path id="DejaVuSans-2212" d="M 678 2272 
L 4684 2272 
L 4684 1741 
L 678 1741 
L 678 2272 
z
" transform="scale(0.015625)"/>
       </defs>
       <use xlink:href="#DejaVuSans-31" transform="translate(0 0.765625)"/>
       <use xlink:href="#DejaVuSans-30" transform="translate(63.623047 0.765625)"/>
       <use xlink:href="#DejaVuSans-2212" transform="translate(128.203125 39.046875) scale(0.7)"/>
       <use xlink:href="#DejaVuSans-33" transform="translate(186.855469 39.046875) scale(0.7)"/>
      </g>
     </g>
    </g>
    <g id="ytick_2">
     <g id="line2d_21">
      <path d="M 90 230.329569 
L 648 230.329569 
" clip-path="url(#pae7cff0b28)" style="fill: none; stroke: #b0b0b0; stroke-width: 0.8; stroke-linecap: square"/>
     </g>
     <g id="line2d_22">
      <g>
       <use xlink:href="#mf7aa41bfa1" x="90" y="230.329569" style="stroke: #000000; stroke-width: 0.8"/>
      </g>
     </g>
     <g id="text_12">
      <!-- $\mathdefault{10^{-2}}$ -->
      <g transform="translate(50.1 235.648475) scale(0.14 -0.14)">
       <use xlink:href="#DejaVuSans-31" transform="translate(0 0.765625)"/>
       <use xlink:href="#DejaVuSans-30" transform="translate(63.623047 0.765625)"/>
       <use xlink:href="#DejaVuSans-2212" transform="translate(128.203125 39.046875) scale(0.7)"/>
       <use xlink:href="#DejaVuSans-32" transform="translate(186.855469 39.046875) scale(0.7)"/>
      </g>
     </g>
    </g>
    <g id="ytick_3">
     <g id="line2d_23">
      <path d="M 90 143.050478 
L 648 143.050478 
" clip-path="url(#pae7cff0b28)" style="fill: none; stroke: #b0b0b0; stroke-width: 0.8; stroke-linecap: square"/>
     </g>
     <g id="line2d_24">
      <g>
       <use xlink:href="#mf7aa41bfa1" x="90" y="143.050478" style="stroke: #000000; stroke-width: 0.8"/>
      </g>
     </g>
     <g id="text_13">
      <!-- $\mathdefault{10^{-1}}$ -->
      <g transform="translate(50.1 148.369385) scale(0.14 -0.14)">
       <use xlink:href="#DejaVuSans-31" transform="translate(0 0.684375)"/>
       <use xlink:href="#DejaVuSans-30" transform="translate(63.623047 0.684375)"/>
       <use xlink:href="#DejaVuSans-2212" transform="translate(128.203125 38.965625) scale(0.7)"/>
       <use xlink:href="#DejaVuSans-31" transform="translate(186.855469 38.965625) scale(0.7)"/>
      </g>
     </g>
    </g>
    <g id="ytick_4">
     <g id="line2d_25">
      <path d="M 90 55.771388 
L 648 55.771388 
" clip-path="url(#pae7cff0b28)" style="fill: none; stroke: #b0b0b0; stroke-width: 0.8; stroke-linecap: square"/>
     </g>
     <g id="line2d_26">
      <g>
       <use xlink:href="#mf7aa41bfa1" x="90" y="55.771388" style="stroke: #000000; stroke-width: 0.8"/>
      </g>
     </g>
     <g id="text_14">
      <!-- $\mathdefault{10^{0}}$ -->
      <g transform="translate(58.36 61.090294) scale(0.14 -0.14)">
       <use xlink:href="#DejaVuSans-31" transform="translate(0 0.765625)"/>
       <use xlink:href="#DejaVuSans-30" transform="translate(63.623047 0.765625)"/>
       <use xlink:href="#DejaVuSans-30" transform="translate(128.203125 39.046875) scale(0.7)"/>
      </g>
     </g>
    </g>
    <g id="ytick_5">
     <g id="line2d_27">
      <defs>
       <path id="m2b62832d9e" d="M 0 0 
L -2 0 
" style="stroke: #000000; stroke-width: 0.6"/>
      </defs>
      <g>
       <use xlink:href="#m2b62832d9e" x="90" y="291.335036" style="stroke: #000000; stroke-width: 0.6"/>
      </g>
     </g>
    </g>
    <g id="ytick_6">
     <g id="line2d_28">
      <g>
       <use xlink:href="#m2b62832d9e" x="90" y="275.965951" style="stroke: #000000; stroke-width: 0.6"/>
      </g>
     </g>
    </g>
    <g id="ytick_7">
     <g id="line2d_29">
      <g>
       <use xlink:href="#m2b62832d9e" x="90" y="265.061411" style="stroke: #000000; stroke-width: 0.6"/>
      </g>
     </g>
    </g>
    <g id="ytick_8">
     <g id="line2d_30">
      <g>
       <use xlink:href="#m2b62832d9e" x="90" y="256.603193" style="stroke: #000000; stroke-width: 0.6"/>
      </g>
     </g>
    </g>
    <g id="ytick_9">
     <g id="line2d_31">
      <g>
       <use xlink:href="#m2b62832d9e" x="90" y="249.692326" style="stroke: #000000; stroke-width: 0.6"/>
      </g>
     </g>
    </g>
    <g id="ytick_10">
     <g id="line2d_32">
      <g>
       <use xlink:href="#m2b62832d9e" x="90" y="243.849271" style="stroke: #000000; stroke-width: 0.6"/>
      </g>
     </g>
    </g>
    <g id="ytick_11">
     <g id="line2d_33">
      <g>
       <use xlink:href="#m2b62832d9e" x="90" y="238.787787" style="stroke: #000000; stroke-width: 0.6"/>
      </g>
     </g>
    </g>
    <g id="ytick_12">
     <g id="line2d_34">
      <g>
       <use xlink:href="#m2b62832d9e" x="90" y="234.323241" style="stroke: #000000; stroke-width: 0.6"/>
      </g>
     </g>
    </g>
    <g id="ytick_13">
     <g id="line2d_35">
      <g>
       <use xlink:href="#m2b62832d9e" x="90" y="204.055945" style="stroke: #000000; stroke-width: 0.6"/>
      </g>
     </g>
    </g>
    <g id="ytick_14">
     <g id="line2d_36">
      <g>
       <use xlink:href="#m2b62832d9e" x="90" y="188.68686" style="stroke: #000000; stroke-width: 0.6"/>
      </g>
     </g>
    </g>
    <g id="ytick_15">
     <g id="line2d_37">
      <g>
       <use xlink:href="#m2b62832d9e" x="90" y="177.78232" style="stroke: #000000; stroke-width: 0.6"/>
      </g>
     </g>
    </g>
    <g id="ytick_16">
     <g id="line2d_38">
      <g>
       <use xlink:href="#m2b62832d9e" x="90" y="169.324103" style="stroke: #000000; stroke-width: 0.6"/>
      </g>
     </g>
    </g>
    <g id="ytick_17">
     <g id="line2d_39">
      <g>
       <use xlink:href="#m2b62832d9e" x="90" y="162.413236" style="stroke: #000000; stroke-width: 0.6"/>
      </g>
     </g>
    </g>
    <g id="ytick_18">
     <g id="line2d_40">
      <g>
       <use xlink:href="#m2b62832d9e" x="90" y="156.570181" style="stroke: #000000; stroke-width: 0.6"/>
      </g>
     </g>
    </g>
    <g id="ytick_19">
     <g id="line2d_41">
      <g>
       <use xlink:href="#m2b62832d9e" x="90" y="151.508696" style="stroke: #000000; stroke-width: 0.6"/>
      </g>
     </g>
    </g>
    <g id="ytick_20">
     <g id="line2d_42">
      <g>
       <use xlink:href="#m2b62832d9e" x="90" y="147.044151" style="stroke: #000000; stroke-width: 0.6"/>
      </g>
     </g>
    </g>
    <g id="ytick_21">
     <g id="line2d_43">
      <g>
       <use xlink:href="#m2b62832d9e" x="90" y="116.776854" style="stroke: #000000; stroke-width: 0.6"/>
      </g>
     </g>
    </g>
    <g id="ytick_22">
     <g id="line2d_44">
      <g>
       <use xlink:href="#m2b62832d9e" x="90" y="101.407769" style="stroke: #000000; stroke-width: 0.6"/>
      </g>
     </g>
    </g>
    <g id="ytick_23">
     <g id="line2d_45">
      <g>
       <use xlink:href="#m2b62832d9e" x="90" y="90.50323" style="stroke: #000000; stroke-width: 0.6"/>
      </g>
     </g>
    </g>
    <g id="ytick_24">
     <g id="line2d_46">
      <g>
       <use xlink:href="#m2b62832d9e" x="90" y="82.045012" style="stroke: #000000; stroke-width: 0.6"/>
      </g>
     </g>
    </g>
    <g id="ytick_25">
     <g id="line2d_47">
      <g>
       <use xlink:href="#m2b62832d9e" x="90" y="75.134145" style="stroke: #000000; stroke-width: 0.6"/>
      </g>
     </g>
    </g>
    <g id="ytick_26">
     <g id="line2d_48">
      <g>
       <use xlink:href="#m2b62832d9e" x="90" y="69.29109" style="stroke: #000000; stroke-width: 0.6"/>
      </g>
     </g>
    </g>
    <g id="ytick_27">
     <g id="line2d_49">
      <g>
       <use xlink:href="#m2b62832d9e" x="90" y="64.229605" style="stroke: #000000; stroke-width: 0.6"/>
      </g>
     </g>
    </g>
    <g id="ytick_28">
     <g id="line2d_50">
      <g>
       <use xlink:href="#m2b62832d9e" x="90" y="59.76506" style="stroke: #000000; stroke-width: 0.6"/>
      </g>
     </g>
    </g>
    <g id="text_15">
     <!-- ${P[X &gt; x]}$ -->
     <g transform="translate(43.188437 209.03) rotate(-90) scale(0.14 -0.14)">
      <defs>
       <path id="DejaVuSans-Oblique-50" d="M 1081 4666 
L 2541 4666 
Q 3178 4666 3512 4369 
Q 3847 4072 3847 3500 
Q 3847 2731 3353 2303 
Q 2859 1875 1966 1875 
L 1172 1875 
L 806 0 
L 172 0 
L 1081 4666 
z
M 1613 4147 
L 1275 2394 
L 2069 2394 
Q 2606 2394 2893 2669 
Q 3181 2944 3181 3456 
Q 3181 3784 2986 3965 
Q 2791 4147 2438 4147 
L 1613 4147 
z
" transform="scale(0.015625)"/>
       <path id="DejaVuSans-Oblique-58" d="M 878 4666 
L 1516 4666 
L 2316 2981 
L 3763 4666 
L 4500 4666 
L 2578 2438 
L 3738 0 
L 3103 0 
L 2163 1966 
L 459 0 
L -275 0 
L 1906 2509 
L 878 4666 
z
" transform="scale(0.015625)"/>
       <path id="DejaVuSans-3e" d="M 678 3150 
L 678 3719 
L 4684 2266 
L 4684 1747 
L 678 294 
L 678 863 
L 3897 2003 
L 678 3150 
z
" transform="scale(0.015625)"/>
       <path id="DejaVuSans-Oblique-78" d="M 3841 3500 
L 2234 1784 
L 3219 0 
L 2559 0 
L 1819 1388 
L 531 0 
L -166 0 
L 1556 1844 
L 641 3500 
L 1300 3500 
L 1972 2234 
L 3144 3500 
L 3841 3500 
z
" transform="scale(0.015625)"/>
      </defs>
      <use xlink:href="#DejaVuSans-Oblique-50" transform="translate(0 0.015625)"/>
      <use xlink:href="#DejaVuSans-5b" transform="translate(60.302734 0.015625)"/>
      <use xlink:href="#DejaVuSans-Oblique-58" transform="translate(99.316406 0.015625)"/>
      <use xlink:href="#DejaVuSans-3e" transform="translate(187.304688 0.015625)"/>
      <use xlink:href="#DejaVuSans-Oblique-78" transform="translate(290.576172 0.015625)"/>
      <use xlink:href="#DejaVuSans-5d" transform="translate(349.755859 0.015625)"/>
     </g>
    </g>
   </g>
   <g id="line2d_51">
    <path d="M 115.363636 55.820519 
L 115.363636 55.869714 
L 130.84962 55.968296 
L 130.84962 56.017684 
L 141.498958 56.116652 
L 141.498958 56.166233 
L 144.49245 56.265591 
L 144.49245 56.315367 
L 148.069825 56.415117 
L 148.069825 56.46509 
L 150.170063 56.565235 
L 150.170063 56.615407 
L 152.475095 56.71595 
L 152.475095 56.766322 
L 154.570975 56.867267 
L 154.570975 56.917841 
L 159.451195 57.01919 
L 159.451195 57.069967 
L 161.407641 57.171725 
L 161.407641 57.222707 
L 162.152746 57.324876 
L 162.152746 57.376064 
L 164.026402 57.478649 
L 164.026402 57.530045 
L 166.248645 57.633047 
L 166.314005 57.73633 
L 168.645181 57.839895 
L 168.645181 57.891784 
L 172.623432 57.995776 
L 172.623432 58.047879 
L 173.202958 58.1523 
L 173.202958 58.204618 
L 176.357672 58.309473 
L 176.357672 58.362009 
L 177.608228 58.4673 
L 177.608228 58.520055 
L 179.368593 58.625787 
L 179.451383 58.731815 
L 181.107172 58.83814 
L 181.107172 58.891414 
L 184.026589 58.998189 
L 184.061448 59.105264 
L 185.028777 59.212644 
L 185.028777 59.266447 
L 186.074539 59.374285 
L 186.074539 59.428319 
L 187.294594 59.536618 
L 187.294594 59.590885 
L 190.388305 59.645228 
L 190.388305 59.69965 
L 190.388305 59.75415 
L 192.828415 59.863386 
L 192.876345 59.972938 
L 194.135616 60.082807 
L 194.135616 60.137861 
L 195.355671 60.24821 
L 195.355671 60.358881 
L 195.73476 60.469876 
L 195.73476 60.525496 
L 197.577914 60.581198 
L 197.577914 60.692847 
L 198.057222 60.748795 
L 198.057222 60.804826 
L 198.710823 60.860939 
L 198.750039 61.029781 
L 199.024551 61.086229 
L 199.05941 61.199377 
L 199.791443 61.256079 
L 199.791443 61.312865 
L 200.584479 61.369737 
L 200.584479 61.426693 
L 202.436348 61.483736 
L 202.436348 61.540865 
L 203.503896 61.59808 
L 203.503896 61.655381 
L 204.928746 61.712769 
L 204.928746 61.770244 
L 207.364498 61.827807 
L 207.364498 61.885456 
L 209.329658 61.943194 
L 209.329658 62.00102 
L 209.55624 62.058934 
L 209.604171 62.175029 
L 210.214198 62.23321 
L 210.214198 62.29148 
L 210.824226 62.34984 
L 210.824226 62.40829 
L 211.477827 62.40829 
L 211.477827 62.46683 
L 211.477827 62.584183 
L 211.835129 62.642996 
L 211.835129 62.7019 
L 214.127089 62.760896 
L 214.15759 62.879163 
L 214.571538 62.938436 
L 214.597682 63.05726 
L 215.181565 63.05726 
L 215.181565 63.116812 
L 215.181565 63.176458 
L 216.183753 63.236197 
L 216.201183 63.35596 
L 220.148932 63.415983 
L 220.148932 63.476102 
L 221.368987 63.536316 
L 221.368987 63.596626 
L 222.915842 63.657032 
L 222.915842 63.717535 
L 224.109753 63.778134 
L 224.109753 63.838831 
L 226.597794 63.899624 
L 226.597794 63.960516 
L 227.556409 64.021505 
L 227.556409 64.082592 
L 231.608734 64.143779 
L 231.608734 64.205064 
L 232.828789 64.266448 
L 232.828789 64.327932 
L 233.48239 64.389516 
L 233.48239 64.4512 
L 233.76126 64.512984 
L 233.76126 64.57487 
L 235.007459 64.636856 
L 235.007459 64.698945 
L 236.380021 64.761135 
L 236.380021 64.823427 
L 237.142555 64.885822 
L 237.142555 64.948319 
L 238.10117 65.01092 
L 238.10117 65.073625 
L 238.523832 65.136433 
L 238.523832 65.199346 
L 239.103358 65.262363 
L 239.138217 65.452045 
L 240.54128 65.515484 
L 240.54128 65.57903 
L 242.754808 65.642682 
L 242.754808 65.706441 
L 243.643706 65.770308 
L 243.643706 65.834282 
L 244.942193 65.898365 
L 244.942193 65.962556 
L 245.55222 66.026856 
L 245.639367 66.155784 
L 247.382303 66.220413 
L 247.382303 66.285152 
L 248.166624 66.350002 
L 248.166624 66.414963 
L 249.255959 66.480036 
L 249.299532 66.675927 
L 250.345293 66.74145 
L 250.345293 66.807086 
L 250.685166 66.872836 
L 250.685166 66.9387 
L 250.955321 66.9387 
L 250.955321 67.004679 
L 250.955321 67.070772 
L 251.264692 67.136982 
L 251.347481 67.269748 
L 252.59368 67.336307 
L 252.59368 67.402982 
L 253.133991 67.469774 
L 253.133991 67.536685 
L 254.092605 67.603714 
L 254.140536 67.738128 
L 254.789779 67.805515 
L 254.859497 68.008396 
L 255.068649 68.076265 
L 255.138367 68.212368 
L 255.966261 68.280604 
L 255.966261 68.348962 
L 257.927064 68.417444 
L 257.927064 68.48605 
L 258.537091 68.554781 
L 258.537091 68.623636 
L 259.234266 68.692617 
L 259.277839 68.830956 
L 259.757146 68.900315 
L 259.757146 69.109158 
L 261.29093 69.179028 
L 261.29093 69.249028 
L 262.153683 69.319157 
L 262.245187 69.530327 
L 262.545843 69.600979 
L 262.545843 69.671763 
L 263.212516 69.742679 
L 263.212516 69.813729 
L 264.27135 69.884911 
L 264.27135 69.956228 
L 265.334541 70.027679 
L 265.334541 70.170987 
L 265.874851 70.242844 
L 265.874851 70.314838 
L 266.415161 70.386969 
L 266.415161 70.459238 
L 266.903183 70.531644 
L 266.981615 70.676874 
L 269.648306 70.749698 
L 269.648306 70.822662 
L 270.345481 70.895767 
L 270.375982 71.042401 
L 270.911935 71.115931 
L 270.911935 71.189604 
L 271.521962 71.263421 
L 271.521962 71.337381 
L 272.742017 71.411487 
L 272.742017 71.485737 
L 274.615673 71.560133 
L 274.615673 71.634676 
L 275.443568 71.709365 
L 275.530715 71.859187 
L 276.140742 71.93432 
L 276.140742 72.009603 
L 276.789986 72.085035 
L 276.789986 72.160618 
L 277.173431 72.236352 
L 277.173431 72.312238 
L 278.188692 72.388275 
L 278.188692 72.464466 
L 279.45232 72.54081 
L 279.45232 72.617308 
L 281.543843 72.693961 
L 281.543843 72.770769 
L 283.509003 72.847734 
L 283.509003 72.924854 
L 283.896806 73.002132 
L 283.896806 73.079568 
L 284.898994 73.157162 
L 284.898994 73.234916 
L 286.380489 73.312829 
L 286.380489 73.390903 
L 286.729077 73.469138 
L 286.729077 73.547535 
L 287.382677 73.626094 
L 287.382677 73.704817 
L 287.644118 73.783703 
L 287.644118 73.862754 
L 288.472012 73.941969 
L 288.489442 74.1009 
L 289.387054 74.180616 
L 289.404483 74.340552 
L 290.724757 74.420774 
L 290.724757 74.501166 
L 291.129989 74.581729 
L 291.129989 74.662463 
L 291.696443 74.74337 
L 291.696443 74.82445 
L 292.999288 74.905703 
L 293.047219 75.068735 
L 294.310847 75.150515 
L 294.310847 75.232471 
L 295.792342 75.314605 
L 295.792342 75.396918 
L 296.689954 75.479409 
L 296.707384 75.644933 
L 297.670356 75.727966 
L 297.670356 75.811182 
L 298.232452 75.894581 
L 298.232452 75.978164 
L 298.755333 75.978164 
L 298.755333 76.061932 
L 298.755333 76.230024 
L 299.191067 76.314351 
L 299.195424 76.483569 
L 299.931815 76.568462 
L 299.931815 76.653546 
L 301.064723 76.738822 
L 301.064723 76.824289 
L 301.67475 76.90995 
L 301.67475 76.995804 
L 302.071268 77.081854 
L 302.071268 77.168099 
L 302.650794 77.254541 
L 302.676938 77.428019 
L 303.112672 77.515057 
L 303.186747 77.689734 
L 303.554631 77.777375 
L 303.554631 77.865219 
L 304.942755 77.953268 
L 304.942755 78.041521 
L 305.395918 78.129981 
L 305.395918 78.218647 
L 306.820768 78.307521 
L 306.820768 78.396604 
L 307.687879 78.485897 
L 307.687879 78.575401 
L 308.254333 78.665116 
L 308.254333 78.755045 
L 308.559346 78.845187 
L 308.559346 78.935544 
L 309.204233 79.026117 
L 309.300094 79.299143 
L 309.517961 79.39059 
L 309.561535 79.574149 
L 309.735828 79.666262 
L 309.735828 79.758601 
L 310.393786 79.851164 
L 310.393786 79.943955 
L 310.91231 80.036973 
L 310.91231 80.13022 
L 311.43519 80.223696 
L 311.43519 80.317404 
L 311.696631 80.317404 
L 311.696631 80.411344 
L 311.705345 80.69457 
L 311.831708 80.789451 
L 311.831708 80.884569 
L 312.611672 80.979928 
L 312.611672 81.075526 
L 313.526713 81.171366 
L 313.61386 81.46035 
L 313.722794 81.55717 
L 313.788154 81.751554 
L 314.223888 81.849121 
L 314.228245 82.143338 
L 315.16943 82.241921 
L 315.269649 82.439857 
L 317.012585 82.539215 
L 317.012585 82.638833 
L 318.014773 82.738714 
L 318.014773 82.838859 
L 319.016961 82.93927 
L 319.09975 83.140891 
L 319.801282 83.242106 
L 319.801282 83.343592 
L 320.367736 83.44535 
L 320.367736 83.547381 
L 322.302395 83.649689 
L 322.302395 83.752273 
L 323.24358 83.855135 
L 323.287153 84.061702 
L 323.722887 84.061702 
L 323.722887 84.165409 
L 323.805677 84.373677 
L 323.984328 84.373677 
L 323.984328 84.478243 
L 323.984328 84.583097 
L 326.642305 84.688242 
L 326.642305 84.79368 
L 327.252332 84.899412 
L 327.291548 85.111764 
L 330.346043 85.218388 
L 330.3504 85.43254 
L 330.942998 85.540072 
L 330.969143 85.864509 
L 331.85804 85.973275 
L 331.85804 86.082353 
L 333.221887 86.191747 
L 333.221887 86.301457 
L 334.049781 86.301457 
L 334.049781 86.411486 
L 334.049781 86.521834 
L 334.267648 86.632506 
L 334.267648 86.743501 
L 334.398369 86.743501 
L 334.398369 86.854822 
L 335.923437 86.854822 
L 335.923437 86.966471 
L 336.097731 86.966471 
L 336.141304 87.303405 
L 336.533465 87.303405 
L 336.620612 87.529703 
L 336.751332 87.529703 
L 336.755689 87.75736 
L 337.012772 87.75736 
L 337.012772 87.871704 
L 337.143492 87.871704 
L 337.226282 88.565104 
L 339.021506 88.565104 
L 339.021506 88.681914 
L 339.496456 88.681914 
L 339.601032 88.91662 
L 340.237203 88.91662 
L 340.280777 89.271426 
L 340.498644 89.271426 
L 340.498644 89.390436 
L 340.760084 89.390436 
L 340.760084 89.509822 
L 341.248106 89.509822 
L 341.248106 89.629584 
L 341.500832 89.629584 
L 341.500832 89.749726 
L 342.067286 89.749726 
L 342.141361 90.112455 
L 342.851607 90.112455 
L 342.851607 90.23414 
L 343.679501 90.23414 
L 343.692573 90.478688 
L 344.594543 90.478688 
L 344.638116 90.724824 
L 344.764479 90.724824 
L 344.764479 90.848494 
L 345.20457 90.848494 
L 345.20457 90.972569 
L 345.640304 90.972569 
L 345.640304 91.097051 
L 345.862528 91.097051 
L 345.862528 91.221944 
L 346.424625 91.221944 
L 346.424625 91.347249 
L 347.069511 91.347249 
L 347.069511 91.47297 
L 347.426813 91.47297 
L 347.452957 91.72567 
L 348.559721 91.72567 
L 348.559721 91.852654 
L 348.777588 91.852654 
L 348.777588 91.980065 
L 348.930095 91.980065 
L 348.995455 92.364889 
L 349.130533 92.364889 
L 349.130533 92.494037 
L 349.474763 92.494037 
L 349.518336 92.75366 
L 349.605483 92.75366 
L 349.605483 92.884142 
L 349.762347 92.884142 
L 349.849494 93.14646 
L 349.95407 93.14646 
L 349.980214 93.410606 
L 350.781964 93.410606 
L 350.781964 93.543373 
L 350.921399 93.543373 
L 350.956258 93.810309 
L 351.174125 93.810309 
L 351.283058 94.079139 
L 351.518355 94.079139 
L 351.522712 94.349889 
L 352.023806 94.349889 
L 352.023806 94.485992 
L 353.788528 94.485992 
L 353.788528 94.622587 
L 354.354983 94.622587 
L 354.354983 94.89726 
L 354.659996 94.89726 
L 354.659996 95.035347 
L 355.121874 95.035347 
L 355.220226 95.31304 
L 355.880051 95.31304 
L 355.880051 95.452652 
L 356.978101 95.452652 
L 357.01296 95.73343 
L 357.187253 95.73343 
L 357.187253 95.874603 
L 357.710134 95.874603 
L 357.710134 96.016303 
L 358.215585 96.016303 
L 358.215585 96.158536 
L 358.843042 96.158536 
L 358.886615 96.444611 
L 359.265704 96.444611 
L 359.322349 96.732862 
L 360.063097 96.732862 
L 360.071812 97.169391 
L 360.368111 97.169391 
L 360.368111 97.316025 
L 360.760271 97.316025 
L 360.760271 97.463228 
L 361.631739 97.463228 
L 361.631739 97.611006 
L 362.067473 97.611006 
L 362.067473 97.9083 
L 362.328914 97.9083 
L 362.328914 98.057826 
L 363.156808 98.057826 
L 363.16988 98.509976 
L 364.036991 98.509976 
L 364.036991 98.6619 
L 364.285359 98.6619 
L 364.285359 98.814434 
L 365.335478 98.814434 
L 365.335478 98.967586 
L 365.644849 98.967586 
L 365.644849 99.121358 
L 366.250519 99.121358 
L 366.250519 99.275757 
L 366.943336 99.275757 
L 366.943336 99.430787 
L 367.427001 99.430787 
L 367.505433 99.742762 
L 367.906308 99.742762 
L 367.906308 99.899718 
L 368.124175 99.899718 
L 368.124175 100.057327 
L 369.980401 100.057327 
L 370.084977 100.374524 
L 370.128551 100.374524 
L 370.128551 100.534124 
L 372.459727 100.534124 
L 372.459727 100.694398 
L 372.742954 100.694398 
L 372.742954 100.855353 
L 373.963009 100.855353 
L 373.963009 101.016994 
L 374.760403 101.016994 
L 374.834477 101.506096 
L 375.531652 101.506096 
L 375.531652 101.670542 
L 375.949956 101.670542 
L 376.054532 102.335556 
L 376.790923 102.335556 
L 376.79528 102.842087 
L 377.013147 102.842087 
L 377.013147 103.012446 
L 377.422737 103.012446 
L 377.422737 103.183574 
L 378.015335 103.183574 
L 378.015335 103.355478 
L 378.333421 103.355478 
L 378.333421 103.528166 
L 379.278963 103.528166 
L 379.278963 103.701644 
L 379.540404 103.701644 
L 379.540404 103.875919 
L 380.010996 103.875919 
L 380.010996 104.050999 
L 380.455445 104.050999 
L 380.494661 104.581145 
L 380.586165 104.581145 
L 380.586165 104.759521 
L 380.760459 104.759521 
L 380.760459 104.938741 
L 381.152619 104.938741 
L 381.152619 105.118811 
L 381.370486 105.118811 
L 381.370486 105.299742 
L 381.980514 105.299742 
L 382.006658 105.664214 
L 382.546968 105.664214 
L 382.564397 106.032225 
L 382.721261 106.032225 
L 382.721261 106.217579 
L 383.109065 106.217579 
L 383.109065 106.403844 
L 384.185328 106.403844 
L 384.185328 106.591029 
L 385.553532 106.591029 
L 385.553532 106.968194 
L 386.943523 106.968194 
L 386.943523 107.158194 
L 387.340041 107.158194 
L 387.340041 107.541074 
L 390.303032 107.541074 
L 390.303032 107.733974 
L 390.416323 107.733974 
L 390.416323 107.927861 
L 390.695192 107.927861 
L 390.695192 108.122745 
L 392.612422 108.122745 
L 392.612422 108.318636 
L 392.786715 108.318636 
L 392.873862 108.713482 
L 392.900006 108.713482 
L 392.900006 108.912458 
L 393.788903 108.912458 
L 393.788903 109.112484 
L 395.662559 109.112484 
L 395.662559 109.313571 
L 397.226844 109.313571 
L 397.226844 109.51573 
L 397.845586 109.51573 
L 397.845586 109.718974 
L 399.061284 109.718974 
L 399.061284 109.923313 
L 399.409871 109.923313 
L 399.409871 110.12876 
L 400.194192 110.12876 
L 400.194192 110.335326 
L 402.154995 110.335326 
L 402.154995 110.543024 
L 402.329288 110.543024 
L 402.329288 110.751867 
L 402.599443 110.751867 
L 402.599443 110.961866 
L 402.799881 110.961866 
L 402.799881 111.173036 
L 403.76721 111.173036 
L 403.76721 111.385388 
L 404.943692 111.385388 
L 404.943692 111.598937 
L 405.771586 111.598937 
L 405.771586 111.813696 
L 406.512334 111.813696 
L 406.512334 112.029679 
L 407.688816 112.029679 
L 407.688816 112.246899 
L 408.372918 112.246899 
L 408.372918 112.465371 
L 408.51671 112.465371 
L 408.51671 112.68511 
L 408.996017 112.68511 
L 408.996017 112.90613 
L 409.327175 112.90613 
L 409.327175 113.128446 
L 410.128926 113.128446 
L 410.216072 113.577029 
L 411.466629 113.577029 
L 411.566848 114.490443 
L 411.871861 114.490443 
L 411.871861 114.722277 
L 415.183439 114.722277 
L 415.183439 115.190244 
L 415.96776 115.190244 
L 415.96776 115.426412 
L 416.447068 115.426412 
L 416.447068 115.664061 
L 416.577788 115.664061 
L 416.577788 115.903209 
L 417.100669 115.903209 
L 417.100669 116.143875 
L 419.845792 116.143875 
L 419.946011 116.629841 
L 420.412246 116.629841 
L 420.412246 116.875181 
L 420.756476 116.875181 
L 420.756476 117.122118 
L 421.022274 117.122118 
L 421.022274 117.370676 
L 422.547343 117.370676 
L 422.612703 117.872734 
L 423.070223 117.872734 
L 423.15737 118.381531 
L 423.200944 118.381531 
L 423.28809 118.897251 
L 425.031026 118.897251 
L 425.031026 119.157766 
L 425.684627 119.157766 
L 425.684627 119.420084 
L 427.51471 119.420084 
L 427.566998 119.95023 
L 428.394892 119.95023 
L 428.394892 120.21811 
L 428.996205 120.21811 
L 428.996205 120.487896 
L 429.301219 120.487896 
L 429.301219 120.759617 
L 429.519086 120.759617 
L 429.519086 121.033299 
L 430.041966 121.033299 
L 430.041966 121.308972 
L 430.521274 121.308972 
L 430.521274 121.866406 
L 431.174875 121.866406 
L 431.174875 122.148227 
L 431.915622 122.148227 
L 431.950481 122.718235 
L 432.046342 122.718235 
L 432.076844 123.296946 
L 433.135677 123.296946 
L 433.135677 123.589649 
L 434.442879 123.589649 
L 434.482095 124.181924 
L 434.996261 124.181924 
L 434.996261 124.481569 
L 437.475587 124.481569 
L 437.475587 124.783601 
L 438.015897 124.783601 
L 438.015897 125.088059 
L 438.495205 125.088059 
L 438.495205 125.394982 
L 438.887365 125.394982 
L 438.887365 125.704411 
L 439.71526 125.704411 
L 439.71526 126.016387 
L 439.950556 126.016387 
L 439.950556 126.330951 
L 440.150994 126.330951 
L 440.150994 126.648148 
L 440.456007 126.648148 
L 440.456007 126.968022 
L 441.283902 126.968022 
L 441.283902 127.290619 
L 441.632489 127.290619 
L 441.632489 127.615984 
L 442.503957 127.615984 
L 442.503957 127.944166 
L 443.636865 127.944166 
L 443.636865 128.275215 
L 443.889591 128.275215 
L 443.889591 128.60918 
L 444.286108 128.60918 
L 444.286108 128.946114 
L 445.680457 128.946114 
L 445.680457 129.28607 
L 446.730576 129.28607 
L 446.730576 129.629103 
L 447.55847 129.629103 
L 447.55847 129.975268 
L 448.342791 129.975268 
L 448.342791 130.324624 
L 448.621661 130.324624 
L 448.621661 130.677229 
L 449.214259 130.677229 
L 449.214259 131.033146 
L 449.4757 131.033146 
L 449.4757 131.392436 
L 449.859146 131.392436 
L 449.859146 131.755164 
L 451.087915 131.755164 
L 451.087915 132.121397 
L 451.349356 132.121397 
L 451.436502 132.864653 
L 451.697943 132.864653 
L 451.697943 133.241819 
L 452.002956 133.241819 
L 452.002956 133.622775 
L 453.440878 133.622775 
L 453.440878 134.007599 
L 453.876612 134.007599 
L 453.876612 134.789169 
L 454.922374 134.789169 
L 454.922374 135.186082 
L 455.140241 135.186082 
L 455.140241 135.587195 
L 455.445254 135.587195 
L 455.445254 135.992598 
L 456.665309 135.992598 
L 456.665309 136.402384 
L 457.667498 136.402384 
L 457.667498 136.816649 
L 458.408245 136.816649 
L 458.447461 137.659013 
L 458.538965 137.659013 
L 458.538965 138.08732 
L 459.23614 138.08732 
L 459.23614 138.520523 
L 459.671874 138.520523 
L 459.671874 138.958734 
L 459.802594 138.958734 
L 459.889741 139.850654 
L 461.022649 139.850654 
L 461.022649 140.304609 
L 462.19913 140.304609 
L 462.286277 141.700036 
L 466.643616 141.700036 
L 466.643616 142.176833 
L 470.478075 142.176833 
L 470.478075 142.659703 
L 472.133864 142.659703 
L 472.221011 143.6443 
L 473.484639 143.6443 
L 473.484639 144.146358 
L 474.094667 144.146358 
L 474.094667 144.655155 
L 474.748268 144.655155 
L 474.748268 145.170875 
L 475.401869 145.170875 
L 475.401869 145.693709 
L 476.621924 145.693709 
L 476.621924 146.223855 
L 477.225726 146.223855 
L 477.225726 146.761521 
L 478.321286 146.761521 
L 478.321286 147.306923 
L 478.539153 147.306923 
L 478.539153 147.860288 
L 479.14918 147.860288 
L 479.14918 148.421852 
L 481.06641 148.421852 
L 481.06641 148.99186 
L 481.58929 148.99186 
L 481.676437 150.158254 
L 481.850731 150.158254 
L 481.850731 150.755193 
L 485.815909 150.755193 
L 485.815909 151.361683 
L 486.730951 151.361683 
L 486.730951 151.978035 
L 487.624205 151.978035 
L 487.624205 152.604576 
L 489.040341 152.604576 
L 489.040341 153.241647 
L 491.542698 153.241647 
L 491.542698 153.889608 
L 491.959758 153.889608 
L 491.959758 154.548839 
L 492.395492 154.548839 
L 492.395492 155.219739 
L 495.619923 155.219739 
L 495.619923 155.902727 
L 499.672248 155.902727 
L 499.672248 156.598248 
L 506.992578 156.598248 
L 506.992578 158.764828 
L 510.783464 158.764828 
L 510.783464 161.062793 
L 512.65712 161.062793 
L 512.65712 162.676008 
L 515.819303 162.676008 
L 515.819303 163.509115 
L 517.145179 163.509115 
L 517.158251 165.232358 
L 517.711633 165.232358 
L 517.711633 166.124278 
L 520.413184 166.124278 
L 520.413184 167.037691 
L 521.502518 167.037691 
L 521.502518 167.973661 
L 522.156119 167.973661 
L 522.156119 168.933328 
L 522.66655 168.933328 
L 522.66655 169.917924 
L 522.94044 169.917924 
L 522.94044 170.928779 
L 523.419748 170.928779 
L 523.419748 171.967333 
L 523.724761 171.967333 
L 523.724761 173.035145 
L 524.770523 173.035145 
L 524.770523 174.133913 
L 527.646367 174.133913 
L 527.646367 175.265484 
L 528.474261 175.265484 
L 528.474261 176.431878 
L 529.084289 176.431878 
L 529.084289 177.635307 
L 529.520023 177.635307 
L 529.520023 178.8782 
L 533.528775 178.8782 
L 533.528775 180.163232 
L 535.116091 180.163232 
L 535.116091 181.493363 
L 538.583288 181.493363 
L 538.583288 182.871872 
L 547.428687 182.871872 
L 547.428687 184.302413 
L 551.219572 184.302413 
L 551.219572 188.949633 
L 553.267522 188.949633 
L 553.267522 190.634569 
L 553.746829 190.634569 
L 553.746829 192.397902 
L 556.274086 192.397902 
L 556.274086 194.247285 
L 557.537714 194.247285 
L 557.537714 196.191548 
L 561.938627 196.191548 
L 561.938627 198.240957 
L 563.855856 198.240957 
L 563.855856 200.407537 
L 566.383113 200.407537 
L 566.383113 202.705503 
L 569.346104 202.705503 
L 569.346104 205.151824 
L 569.520398 205.151824 
L 569.520398 207.766987 
L 572.701255 207.766987 
L 572.701255 210.576037 
L 577.755769 210.576037 
L 577.755769 213.610042 
L 582.418122 213.610042 
L 582.418122 216.908193 
L 585.99114 216.908193 
L 585.99114 220.520909 
L 589.128424 220.520909 
L 589.128424 239.883666 
L 598.627424 239.883666 
L 598.627424 246.794534 
L 601.764708 246.794534 
L 601.764708 266.157291 
L 606.122048 266.157291 
L 606.122048 281.526376 
L 607.472823 281.526376 
L 607.472823 307.8 
L 617.276836 307.8 
L 617.276836 361 
L 617.276836 361 
" clip-path="url(#pae7cff0b28)" style="fill: none; stroke: #000000; stroke-width: 1.5; stroke-linecap: square"/>
   </g>
   <g id="line2d_52">
    <path d="M 115.363636 55.8 
L 141.498958 55.972273 
L 158.335717 56.300948 
L 168.802046 56.655721 
L 181.760773 57.311707 
L 193.525589 58.158666 
L 203.503896 59.09108 
L 214.15759 60.321651 
L 224.109753 61.700352 
L 234.353858 63.354974 
L 244.201445 65.169986 
L 254.441192 67.285707 
L 264.27135 69.528235 
L 275.443568 72.316046 
L 286.51121 75.31322 
L 298.145306 78.697616 
L 309.918836 82.345966 
L 322.459259 86.455547 
L 336.141304 91.174115 
L 350.956258 96.526162 
L 366.250519 102.280409 
L 383.109065 108.852558 
L 402.599443 116.700275 
L 423.28809 125.268312 
L 448.342791 135.901706 
L 475.401869 147.62589 
L 506.992578 161.54214 
L 506.992578 161.54214 
L 547.428687 179.599821 
L 601.764708 204.130276 
L 601.764708 204.130276 
L 622.636364 213.603587 
L 622.636364 213.603587 
" clip-path="url(#pae7cff0b28)" style="fill: none; stroke: #6495ed; stroke-width: 1.5; stroke-linecap: square"/>
   </g>
   <g id="patch_3">
    <path d="M 90 320.4 
L 90 43.2 
" style="fill: none; stroke: #000000; stroke-width: 0.8; stroke-linejoin: miter; stroke-linecap: square"/>
   </g>
   <g id="patch_4">
    <path d="M 648 320.4 
L 648 43.2 
" style="fill: none; stroke: #000000; stroke-width: 0.8; stroke-linejoin: miter; stroke-linecap: square"/>
   </g>
   <g id="patch_5">
    <path d="M 90 320.4 
L 648 320.4 
" style="fill: none; stroke: #000000; stroke-width: 0.8; stroke-linejoin: miter; stroke-linecap: square"/>
   </g>
   <g id="patch_6">
    <path d="M 90 43.2 
L 648 43.2 
" style="fill: none; stroke: #000000; stroke-width: 0.8; stroke-linejoin: miter; stroke-linecap: square"/>
   </g>
   <g id="text_16">
    <!-- Exceedance plot in log-scale -->
    <g transform="translate(240.508125 37.2) scale(0.18 -0.18)">
     <defs>
      <path id="DejaVuSans-45" d="M 628 4666 
L 3578 4666 
L 3578 4134 
L 1259 4134 
L 1259 2753 
L 3481 2753 
L 3481 2222 
L 1259 2222 
L 1259 531 
L 3634 531 
L 3634 0 
L 628 0 
L 628 4666 
z
" transform="scale(0.015625)"/>
      <path id="DejaVuSans-78" d="M 3513 3500 
L 2247 1797 
L 3578 0 
L 2900 0 
L 1881 1375 
L 863 0 
L 184 0 
L 1544 1831 
L 300 3500 
L 978 3500 
L 1906 2253 
L 2834 3500 
L 3513 3500 
z
" transform="scale(0.015625)"/>
      <path id="DejaVuSans-63" d="M 3122 3366 
L 3122 2828 
Q 2878 2963 2633 3030 
Q 2388 3097 2138 3097 
Q 1578 3097 1268 2742 
Q 959 2388 959 1747 
Q 959 1106 1268 751 
Q 1578 397 2138 397 
Q 2388 397 2633 464 
Q 2878 531 3122 666 
L 3122 134 
Q 2881 22 2623 -34 
Q 2366 -91 2075 -91 
Q 1284 -91 818 406 
Q 353 903 353 1747 
Q 353 2603 823 3093 
Q 1294 3584 2113 3584 
Q 2378 3584 2631 3529 
Q 2884 3475 3122 3366 
z
" transform="scale(0.015625)"/>
      <path id="DejaVuSans-64" d="M 2906 2969 
L 2906 4863 
L 3481 4863 
L 3481 0 
L 2906 0 
L 2906 525 
Q 2725 213 2448 61 
Q 2172 -91 1784 -91 
Q 1150 -91 751 415 
Q 353 922 353 1747 
Q 353 2572 751 3078 
Q 1150 3584 1784 3584 
Q 2172 3584 2448 3432 
Q 2725 3281 2906 2969 
z
M 947 1747 
Q 947 1113 1208 752 
Q 1469 391 1925 391 
Q 2381 391 2643 752 
Q 2906 1113 2906 1747 
Q 2906 2381 2643 2742 
Q 2381 3103 1925 3103 
Q 1469 3103 1208 2742 
Q 947 2381 947 1747 
z
" transform="scale(0.015625)"/>
      <path id="DejaVuSans-6c" d="M 603 4863 
L 1178 4863 
L 1178 0 
L 603 0 
L 603 4863 
z
" transform="scale(0.015625)"/>
      <path id="DejaVuSans-2d" d="M 313 2009 
L 1997 2009 
L 1997 1497 
L 313 1497 
L 313 2009 
z
" transform="scale(0.015625)"/>
     </defs>
     <use xlink:href="#DejaVuSans-45"/>
     <use xlink:href="#DejaVuSans-78" x="63.183594"/>
     <use xlink:href="#DejaVuSans-63" x="120.613281"/>
     <use xlink:href="#DejaVuSans-65" x="175.59375"/>
     <use xlink:href="#DejaVuSans-65" x="237.117188"/>
     <use xlink:href="#DejaVuSans-64" x="298.640625"/>
     <use xlink:href="#DejaVuSans-61" x="362.117188"/>
     <use xlink:href="#DejaVuSans-6e" x="423.396484"/>
     <use xlink:href="#DejaVuSans-63" x="486.775391"/>
     <use xlink:href="#DejaVuSans-65" x="541.755859"/>
     <use xlink:href="#DejaVuSans-20" x="603.279297"/>
     <use xlink:href="#DejaVuSans-70" x="635.066406"/>
     <use xlink:href="#DejaVuSans-6c" x="698.542969"/>
     <use xlink:href="#DejaVuSans-6f" x="726.326172"/>
     <use xlink:href="#DejaVuSans-74" x="787.507812"/>
     <use xlink:href="#DejaVuSans-20" x="826.716797"/>
     <use xlink:href="#DejaVuSans-69" x="858.503906"/>
     <use xlink:href="#DejaVuSans-6e" x="886.287109"/>
     <use xlink:href="#DejaVuSans-20" x="949.666016"/>
     <use xlink:href="#DejaVuSans-6c" x="981.453125"/>
     <use xlink:href="#DejaVuSans-6f" x="1009.236328"/>
     <use xlink:href="#DejaVuSans-67" x="1070.417969"/>
     <use xlink:href="#DejaVuSans-2d" x="1133.894531"/>
     <use xlink:href="#DejaVuSans-73" x="1169.978516"/>
     <use xlink:href="#DejaVuSans-63" x="1222.078125"/>
     <use xlink:href="#DejaVuSans-61" x="1277.058594"/>
     <use xlink:href="#DejaVuSans-6c" x="1338.337891"/>
     <use xlink:href="#DejaVuSans-65" x="1366.121094"/>
    </g>
   </g>
   <g id="legend_1">
    <g id="patch_7">
     <path d="M 495.270938 95.49875 
L 638.2 95.49875 
Q 641 95.49875 641 92.69875 
L 641 53 
Q 641 50.2 638.2 50.2 
L 495.270938 50.2 
Q 492.470937 50.2 492.470937 53 
L 492.470937 92.69875 
Q 492.470937 95.49875 495.270938 95.49875 
z
" style="fill: #ffffff; opacity: 0.8; stroke: #cccccc; stroke-linejoin: miter"/>
    </g>
    <g id="line2d_53">
     <path d="M 498.070938 61.537812 
L 498.070938 61.537812 
L 512.070938 61.537812 
L 512.070938 61.537812 
L 526.070938 61.537812 
" style="fill: none; stroke: #000000; stroke-width: 1.5; stroke-linecap: square"/>
    </g>
    <g id="text_17">
     <!-- Empirical CDF -->
     <g transform="translate(537.270938 66.437812) scale(0.14 -0.14)">
      <defs>
       <path id="DejaVuSans-44" d="M 1259 4147 
L 1259 519 
L 2022 519 
Q 2988 519 3436 956 
Q 3884 1394 3884 2338 
Q 3884 3275 3436 3711 
Q 2988 4147 2022 4147 
L 1259 4147 
z
M 628 4666 
L 1925 4666 
Q 3281 4666 3915 4102 
Q 4550 3538 4550 2338 
Q 4550 1131 3912 565 
Q 3275 0 1925 0 
L 628 0 
L 628 4666 
z
" transform="scale(0.015625)"/>
       <path id="DejaVuSans-46" d="M 628 4666 
L 3309 4666 
L 3309 4134 
L 1259 4134 
L 1259 2759 
L 3109 2759 
L 3109 2228 
L 1259 2228 
L 1259 0 
L 628 0 
L 628 4666 
z
" transform="scale(0.015625)"/>
      </defs>
      <use xlink:href="#DejaVuSans-45"/>
      <use xlink:href="#DejaVuSans-6d" x="63.183594"/>
      <use xlink:href="#DejaVuSans-70" x="160.595703"/>
      <use xlink:href="#DejaVuSans-69" x="224.072266"/>
      <use xlink:href="#DejaVuSans-72" x="251.855469"/>
      <use xlink:href="#DejaVuSans-69" x="292.96875"/>
      <use xlink:href="#DejaVuSans-63" x="320.751953"/>
      <use xlink:href="#DejaVuSans-61" x="375.732422"/>
      <use xlink:href="#DejaVuSans-6c" x="437.011719"/>
      <use xlink:href="#DejaVuSans-20" x="464.794922"/>
      <use xlink:href="#DejaVuSans-43" x="496.582031"/>
      <use xlink:href="#DejaVuSans-44" x="566.40625"/>
      <use xlink:href="#DejaVuSans-46" x="643.408203"/>
     </g>
    </g>
    <g id="line2d_54">
     <path d="M 498.070938 82.087187 
L 512.070938 82.087187 
L 526.070938 82.087187 
" style="fill: none; stroke: #6495ed; stroke-width: 1.5; stroke-linecap: square"/>
    </g>
    <g id="text_18">
     <!-- Gumbel CDF -->
     <g transform="translate(537.270938 86.987187) scale(0.14 -0.14)">
      <defs>
       <path id="DejaVuSans-47" d="M 3809 666 
L 3809 1919 
L 2778 1919 
L 2778 2438 
L 4434 2438 
L 4434 434 
Q 4069 175 3628 42 
Q 3188 -91 2688 -91 
Q 1594 -91 976 548 
Q 359 1188 359 2328 
Q 359 3472 976 4111 
Q 1594 4750 2688 4750 
Q 3144 4750 3555 4637 
Q 3966 4525 4313 4306 
L 4313 3634 
Q 3963 3931 3569 4081 
Q 3175 4231 2741 4231 
Q 1884 4231 1454 3753 
Q 1025 3275 1025 2328 
Q 1025 1384 1454 906 
Q 1884 428 2741 428 
Q 3075 428 3337 486 
Q 3600 544 3809 666 
z
" transform="scale(0.015625)"/>
       <path id="DejaVuSans-75" d="M 544 1381 
L 544 3500 
L 1119 3500 
L 1119 1403 
Q 1119 906 1312 657 
Q 1506 409 1894 409 
Q 2359 409 2629 706 
Q 2900 1003 2900 1516 
L 2900 3500 
L 3475 3500 
L 3475 0 
L 2900 0 
L 2900 538 
Q 2691 219 2414 64 
Q 2138 -91 1772 -91 
Q 1169 -91 856 284 
Q 544 659 544 1381 
z
M 1991 3584 
L 1991 3584 
z
" transform="scale(0.015625)"/>
       <path id="DejaVuSans-62" d="M 3116 1747 
Q 3116 2381 2855 2742 
Q 2594 3103 2138 3103 
Q 1681 3103 1420 2742 
Q 1159 2381 1159 1747 
Q 1159 1113 1420 752 
Q 1681 391 2138 391 
Q 2594 391 2855 752 
Q 3116 1113 3116 1747 
z
M 1159 2969 
Q 1341 3281 1617 3432 
Q 1894 3584 2278 3584 
Q 2916 3584 3314 3078 
Q 3713 2572 3713 1747 
Q 3713 922 3314 415 
Q 2916 -91 2278 -91 
Q 1894 -91 1617 61 
Q 1341 213 1159 525 
L 1159 0 
L 581 0 
L 581 4863 
L 1159 4863 
L 1159 2969 
z
" transform="scale(0.015625)"/>
      </defs>
      <use xlink:href="#DejaVuSans-47"/>
      <use xlink:href="#DejaVuSans-75" x="77.490234"/>
      <use xlink:href="#DejaVuSans-6d" x="140.869141"/>
      <use xlink:href="#DejaVuSans-62" x="238.28125"/>
      <use xlink:href="#DejaVuSans-65" x="301.757812"/>
      <use xlink:href="#DejaVuSans-6c" x="363.28125"/>
      <use xlink:href="#DejaVuSans-20" x="391.064453"/>
      <use xlink:href="#DejaVuSans-43" x="422.851562"/>
      <use xlink:href="#DejaVuSans-44" x="492.675781"/>
      <use xlink:href="#DejaVuSans-46" x="569.677734"/>
     </g>
    </g>
   </g>
  </g>
 </g>
 <defs>
  <clipPath id="pae7cff0b28">
   <rect x="90" y="43.2" width="558" height="277.2"/>
  </clipPath>
 </defs>
</svg>
