<?xml version="1.0" encoding="utf-8" standalone="no"?>
<!DOCTYPE svg PUBLIC "-//W3C//DTD SVG 1.1//EN"
  "http://www.w3.org/Graphics/SVG/1.1/DTD/svg11.dtd">
<svg xmlns:xlink="http://www.w3.org/1999/xlink" width="1080pt" height="720pt" viewBox="0 0 1080 720" xmlns="http://www.w3.org/2000/svg" version="1.1">
 <metadata>
  <rdf:RDF xmlns:dc="http://purl.org/dc/elements/1.1/" xmlns:cc="http://creativecommons.org/ns#" xmlns:rdf="http://www.w3.org/1999/02/22-rdf-syntax-ns#">
   <cc:Work>
    <dc:type rdf:resource="http://purl.org/dc/dcmitype/StillImage"/>
    <dc:date>2024-09-27T06:39:50.730434</dc:date>
    <dc:format>image/svg+xml</dc:format>
    <dc:creator>
     <cc:Agent>
      <dc:title>Matplotlib v3.9.2, https://matplotlib.org/</dc:title>
     </cc:Agent>
    </dc:creator>
   </cc:Work>
  </rdf:RDF>
 </metadata>
 <defs>
  <style type="text/css">*{stroke-linejoin: round; stroke-linecap: butt}</style>
 </defs>
 <g id="figure_1">
  <g id="patch_1">
   <path d="M 0 720 
L 1080 720 
L 1080 0 
L 0 0 
z
" style="fill: #ffffff"/>
  </g>
  <g id="axes_1">
   <g id="patch_2">
    <path d="M 39.308701 538.88 
L 180.05603 538.88 
L 180.05603 25.44 
L 39.308701 25.44 
z
" style="fill: #ffffff"/>
   </g>
   <g id="patch_3">
    <path d="M 180.05603 537.453778 
L 150.915796 537.453778 
L 150.915796 487.536 
L 180.05603 487.536 
z
" clip-path="url(#p9685223947)" style="fill: #808080; opacity: 0.5"/>
   </g>
   <g id="patch_4">
    <path d="M 180.05603 487.536 
L 180.05603 487.536 
L 180.05603 437.618222 
L 180.05603 437.618222 
z
" clip-path="url(#p9685223947)" style="fill: #808080; opacity: 0.5"/>
   </g>
   <g id="patch_5">
    <path d="M 180.05603 437.618222 
L 162.57189 437.618222 
L 162.57189 387.700444 
L 180.05603 387.700444 
z
" clip-path="url(#p9685223947)" style="fill: #808080; opacity: 0.5"/>
   </g>
   <g id="patch_6">
    <path d="M 180.05603 387.700444 
L 162.57189 387.700444 
L 162.57189 337.782667 
L 180.05603 337.782667 
z
" clip-path="url(#p9685223947)" style="fill: #808080; opacity: 0.5"/>
   </g>
   <g id="patch_7">
    <path d="M 180.05603 337.782667 
L 92.635329 337.782667 
L 92.635329 287.864889 
L 180.05603 287.864889 
z
" clip-path="url(#p9685223947)" style="fill: #808080; opacity: 0.5"/>
   </g>
   <g id="patch_8">
    <path d="M 180.05603 287.864889 
L 51.839002 287.864889 
L 51.839002 237.947111 
L 180.05603 237.947111 
z
" clip-path="url(#p9685223947)" style="fill: #808080; opacity: 0.5"/>
   </g>
   <g id="patch_9">
    <path d="M 180.05603 237.947111 
L 46.010955 237.947111 
L 46.010955 188.029333 
L 180.05603 188.029333 
z
" clip-path="url(#p9685223947)" style="fill: #808080; opacity: 0.5"/>
   </g>
   <g id="patch_10">
    <path d="M 180.05603 188.029333 
L 80.979235 188.029333 
L 80.979235 138.111556 
L 180.05603 138.111556 
z
" clip-path="url(#p9685223947)" style="fill: #808080; opacity: 0.5"/>
   </g>
   <g id="patch_11">
    <path d="M 180.05603 138.111556 
L 115.947516 138.111556 
L 115.947516 88.193778 
L 180.05603 88.193778 
z
" clip-path="url(#p9685223947)" style="fill: #808080; opacity: 0.5"/>
   </g>
   <g id="patch_12">
    <path d="M 180.05603 88.193778 
L 133.431656 88.193778 
L 133.431656 38.276 
L 180.05603 38.276 
z
" clip-path="url(#p9685223947)" style="fill: #808080; opacity: 0.5"/>
   </g>
   <g id="matplotlib.axis_1"/>
   <g id="matplotlib.axis_2"/>
   <g id="line2d_1">
    <path d="M 168.416447 537.453778 
L 167.52693 530.451284 
L 166.964557 524.449146 
L 166.610886 518.447009 
L 166.474947 512.444871 
L 166.551066 506.442733 
L 166.879793 499.44024 
L 167.502068 491.437389 
L 168.885178 477.432402 
L 169.781087 467.428839 
L 170.268951 459.425989 
L 170.45631 452.423495 
L 170.409762 446.421357 
L 170.158178 440.41922 
L 169.695031 434.417082 
L 169.016674 428.414945 
L 168.118695 422.412807 
L 166.992579 416.410669 
L 165.623271 410.408532 
L 164.280268 405.40675 
L 162.735793 400.404969 
L 160.970244 395.403188 
L 158.962698 390.401406 
L 156.692574 385.399625 
L 154.141508 380.397844 
L 151.295229 375.396062 
L 148.14527 370.394281 
L 144.690351 365.3925 
L 140.937302 360.390718 
L 136.901494 355.388937 
L 132.606749 350.387156 
L 127.156414 344.385018 
L 120.475754 337.382524 
L 110.57577 327.378961 
L 96.737362 313.373974 
L 90.150458 306.37148 
L 84.821425 300.369342 
L 80.662699 295.367561 
L 76.801827 290.36578 
L 73.271421 285.363998 
L 70.702761 281.362573 
L 68.372498 277.361148 
L 66.287772 273.359723 
L 64.452769 269.358298 
L 62.868797 265.356873 
L 61.534457 261.355448 
L 60.445869 257.354023 
L 59.596963 253.352598 
L 58.979815 249.351173 
L 58.58499 245.349747 
L 58.401894 241.348322 
L 58.419107 237.346897 
L 58.624674 233.345472 
L 59.127863 228.343691 
L 59.882248 223.34191 
L 60.86416 218.340128 
L 62.050654 213.338347 
L 63.713794 207.336209 
L 65.605142 201.334072 
L 68.059261 194.331578 
L 70.742712 187.329084 
L 74.056791 179.326234 
L 77.619868 171.323384 
L 81.439989 163.320534 
L 85.013003 156.31804 
L 88.821646 149.315546 
L 92.878863 142.313052 
L 97.182247 135.310558 
L 102.369914 127.307708 
L 109.14583 117.304145 
L 123.476714 96.296664 
L 128.630331 88.293813 
L 132.905193 81.29132 
L 136.946385 74.288826 
L 141.293877 66.285976 
L 145.394556 58.283125 
L 150.254837 48.279563 
L 154.894353 38.276 
L 154.894353 38.276 
" clip-path="url(#p9685223947)" style="fill: none; stroke: #ff0000; stroke-opacity: 0.3; stroke-width: 1.5; stroke-linecap: square"/>
   </g>
   <g id="line2d_2">
    <path d="M 178.554517 537.453778 
L 177.834613 523.44879 
L 176.99341 511.444515 
L 175.993513 500.440596 
L 174.855152 490.437033 
L 173.612016 481.433827 
L 172.132011 472.43062 
L 170.593758 464.42777 
L 168.824336 456.42492 
L 166.803615 448.42207 
L 164.814426 441.419576 
L 162.606826 434.417082 
L 160.170834 427.414588 
L 157.498401 420.412094 
L 154.583837 413.409601 
L 151.424238 406.407107 
L 148.019901 399.404613 
L 144.374715 392.402119 
L 140.496514 385.399625 
L 135.794649 377.396775 
L 130.829541 369.393925 
L 124.97062 360.390718 
L 118.19157 350.387156 
L 107.707328 335.381812 
L 95.147339 317.375399 
L 88.45772 307.371836 
L 83.381823 299.368986 
L 79.206705 292.366492 
L 75.865619 286.364354 
L 72.775736 280.362217 
L 69.965588 274.360079 
L 67.856655 269.358298 
L 65.97443 264.356517 
L 64.331584 259.354735 
L 62.939294 254.352954 
L 61.807119 249.351173 
L 60.942887 244.349391 
L 60.35261 239.34761 
L 60.080471 235.346185 
L 59.987557 231.34476 
L 60.074286 227.343335 
L 60.340269 223.34191 
L 60.922931 218.340128 
L 61.779687 213.338347 
L 62.904576 208.336566 
L 64.28982 203.334784 
L 65.925906 198.333003 
L 67.801699 193.331222 
L 69.904568 188.32944 
L 72.220528 183.327659 
L 75.259501 177.325521 
L 78.555226 171.323384 
L 82.684799 164.32089 
L 87.073544 157.318396 
L 92.341264 149.315546 
L 99.191926 139.311983 
L 125.543011 101.298445 
L 131.376403 92.295238 
L 136.314588 84.292388 
L 140.986438 76.289538 
L 144.836501 69.287044 
L 148.45236 62.28455 
L 151.826685 55.282057 
L 154.956048 48.279563 
L 157.84057 41.277069 
L 159.002551 38.276 
L 159.002551 38.276 
" clip-path="url(#p9685223947)" style="fill: none; stroke: #0000ff; stroke-width: 1.5; stroke-linecap: square"/>
   </g>
   <g id="patch_13">
    <path d="M 39.308701 538.88 
L 39.308701 25.44 
" style="fill: none; stroke: #000000; stroke-width: 0.8; stroke-linejoin: miter; stroke-linecap: square"/>
   </g>
   <g id="patch_14">
    <path d="M 180.05603 538.88 
L 180.05603 25.44 
" style="fill: none; stroke: #000000; stroke-width: 0.8; stroke-linejoin: miter; stroke-linecap: square"/>
   </g>
   <g id="patch_15">
    <path d="M 39.308701 538.88 
L 180.05603 538.88 
" style="fill: none; stroke: #000000; stroke-width: 0.8; stroke-linejoin: miter; stroke-linecap: square"/>
   </g>
   <g id="patch_16">
    <path d="M 39.308701 25.44 
L 180.05603 25.44 
" style="fill: none; stroke: #000000; stroke-width: 0.8; stroke-linejoin: miter; stroke-linecap: square"/>
   </g>
   <g id="legend_1">
    <g id="patch_17">
     <path d="M 44.748217 533.88 
L 173.05603 533.88 
Q 175.05603 533.88 175.05603 531.88 
L 175.05603 488.845625 
Q 175.05603 486.845625 173.05603 486.845625 
L 44.748217 486.845625 
Q 42.748217 486.845625 42.748217 488.845625 
L 42.748217 531.88 
Q 42.748217 533.88 44.748217 533.88 
z
" style="fill: #ffffff; opacity: 0.8; stroke: #cccccc; stroke-linejoin: miter"/>
    </g>
    <g id="line2d_3">
     <path d="M 46.748217 494.944063 
L 56.748217 494.944063 
L 66.748217 494.944063 
" style="fill: none; stroke: #ff0000; stroke-opacity: 0.3; stroke-width: 1.5; stroke-linecap: square"/>
    </g>
    <g id="text_1">
     <!-- KDE Estimate -->
     <g transform="translate(74.748217 498.444063) scale(0.1 -0.1)">
      <defs>
       <path id="DejaVuSans-4b" d="M 628 4666 
L 1259 4666 
L 1259 2694 
L 3353 4666 
L 4166 4666 
L 1850 2491 
L 4331 0 
L 3500 0 
L 1259 2247 
L 1259 0 
L 628 0 
L 628 4666 
z
" transform="scale(0.015625)"/>
       <path id="DejaVuSans-44" d="M 1259 4147 
L 1259 519 
L 2022 519 
Q 2988 519 3436 956 
Q 3884 1394 3884 2338 
Q 3884 3275 3436 3711 
Q 2988 4147 2022 4147 
L 1259 4147 
z
M 628 4666 
L 1925 4666 
Q 3281 4666 3915 4102 
Q 4550 3538 4550 2338 
Q 4550 1131 3912 565 
Q 3275 0 1925 0 
L 628 0 
L 628 4666 
z
" transform="scale(0.015625)"/>
       <path id="DejaVuSans-45" d="M 628 4666 
L 3578 4666 
L 3578 4134 
L 1259 4134 
L 1259 2753 
L 3481 2753 
L 3481 2222 
L 1259 2222 
L 1259 531 
L 3634 531 
L 3634 0 
L 628 0 
L 628 4666 
z
" transform="scale(0.015625)"/>
       <path id="DejaVuSans-20" transform="scale(0.015625)"/>
       <path id="DejaVuSans-73" d="M 2834 3397 
L 2834 2853 
Q 2591 2978 2328 3040 
Q 2066 3103 1784 3103 
Q 1356 3103 1142 2972 
Q 928 2841 928 2578 
Q 928 2378 1081 2264 
Q 1234 2150 1697 2047 
L 1894 2003 
Q 2506 1872 2764 1633 
Q 3022 1394 3022 966 
Q 3022 478 2636 193 
Q 2250 -91 1575 -91 
Q 1294 -91 989 -36 
Q 684 19 347 128 
L 347 722 
Q 666 556 975 473 
Q 1284 391 1588 391 
Q 1994 391 2212 530 
Q 2431 669 2431 922 
Q 2431 1156 2273 1281 
Q 2116 1406 1581 1522 
L 1381 1569 
Q 847 1681 609 1914 
Q 372 2147 372 2553 
Q 372 3047 722 3315 
Q 1072 3584 1716 3584 
Q 2034 3584 2315 3537 
Q 2597 3491 2834 3397 
z
" transform="scale(0.015625)"/>
       <path id="DejaVuSans-74" d="M 1172 4494 
L 1172 3500 
L 2356 3500 
L 2356 3053 
L 1172 3053 
L 1172 1153 
Q 1172 725 1289 603 
Q 1406 481 1766 481 
L 2356 481 
L 2356 0 
L 1766 0 
Q 1100 0 847 248 
Q 594 497 594 1153 
L 594 3053 
L 172 3053 
L 172 3500 
L 594 3500 
L 594 4494 
L 1172 4494 
z
" transform="scale(0.015625)"/>
       <path id="DejaVuSans-69" d="M 603 3500 
L 1178 3500 
L 1178 0 
L 603 0 
L 603 3500 
z
M 603 4863 
L 1178 4863 
L 1178 4134 
L 603 4134 
L 603 4863 
z
" transform="scale(0.015625)"/>
       <path id="DejaVuSans-6d" d="M 3328 2828 
Q 3544 3216 3844 3400 
Q 4144 3584 4550 3584 
Q 5097 3584 5394 3201 
Q 5691 2819 5691 2113 
L 5691 0 
L 5113 0 
L 5113 2094 
Q 5113 2597 4934 2840 
Q 4756 3084 4391 3084 
Q 3944 3084 3684 2787 
Q 3425 2491 3425 1978 
L 3425 0 
L 2847 0 
L 2847 2094 
Q 2847 2600 2669 2842 
Q 2491 3084 2119 3084 
Q 1678 3084 1418 2786 
Q 1159 2488 1159 1978 
L 1159 0 
L 581 0 
L 581 3500 
L 1159 3500 
L 1159 2956 
Q 1356 3278 1631 3431 
Q 1906 3584 2284 3584 
Q 2666 3584 2933 3390 
Q 3200 3197 3328 2828 
z
" transform="scale(0.015625)"/>
       <path id="DejaVuSans-61" d="M 2194 1759 
Q 1497 1759 1228 1600 
Q 959 1441 959 1056 
Q 959 750 1161 570 
Q 1363 391 1709 391 
Q 2188 391 2477 730 
Q 2766 1069 2766 1631 
L 2766 1759 
L 2194 1759 
z
M 3341 1997 
L 3341 0 
L 2766 0 
L 2766 531 
Q 2569 213 2275 61 
Q 1981 -91 1556 -91 
Q 1019 -91 701 211 
Q 384 513 384 1019 
Q 384 1609 779 1909 
Q 1175 2209 1959 2209 
L 2766 2209 
L 2766 2266 
Q 2766 2663 2505 2880 
Q 2244 3097 1772 3097 
Q 1472 3097 1187 3025 
Q 903 2953 641 2809 
L 641 3341 
Q 956 3463 1253 3523 
Q 1550 3584 1831 3584 
Q 2591 3584 2966 3190 
Q 3341 2797 3341 1997 
z
" transform="scale(0.015625)"/>
       <path id="DejaVuSans-65" d="M 3597 1894 
L 3597 1613 
L 953 1613 
Q 991 1019 1311 708 
Q 1631 397 2203 397 
Q 2534 397 2845 478 
Q 3156 559 3463 722 
L 3463 178 
Q 3153 47 2828 -22 
Q 2503 -91 2169 -91 
Q 1331 -91 842 396 
Q 353 884 353 1716 
Q 353 2575 817 3079 
Q 1281 3584 2069 3584 
Q 2775 3584 3186 3129 
Q 3597 2675 3597 1894 
z
M 3022 2063 
Q 3016 2534 2758 2815 
Q 2500 3097 2075 3097 
Q 1594 3097 1305 2825 
Q 1016 2553 972 2059 
L 3022 2063 
z
" transform="scale(0.015625)"/>
      </defs>
      <use xlink:href="#DejaVuSans-4b"/>
      <use xlink:href="#DejaVuSans-44" x="65.576172"/>
      <use xlink:href="#DejaVuSans-45" x="142.578125"/>
      <use xlink:href="#DejaVuSans-20" x="205.761719"/>
      <use xlink:href="#DejaVuSans-45" x="237.548828"/>
      <use xlink:href="#DejaVuSans-73" x="300.732422"/>
      <use xlink:href="#DejaVuSans-74" x="352.832031"/>
      <use xlink:href="#DejaVuSans-69" x="392.041016"/>
      <use xlink:href="#DejaVuSans-6d" x="419.824219"/>
      <use xlink:href="#DejaVuSans-61" x="517.236328"/>
      <use xlink:href="#DejaVuSans-74" x="578.515625"/>
      <use xlink:href="#DejaVuSans-65" x="617.724609"/>
     </g>
    </g>
    <g id="line2d_4">
     <path d="M 46.748217 509.622187 
L 56.748217 509.622187 
L 66.748217 509.622187 
" style="fill: none; stroke: #0000ff; stroke-width: 1.5; stroke-linecap: square"/>
    </g>
    <g id="text_2">
     <!-- Norm mle estimate -->
     <g transform="translate(74.748217 513.122187) scale(0.1 -0.1)">
      <defs>
       <path id="DejaVuSans-4e" d="M 628 4666 
L 1478 4666 
L 3547 763 
L 3547 4666 
L 4159 4666 
L 4159 0 
L 3309 0 
L 1241 3903 
L 1241 0 
L 628 0 
L 628 4666 
z
" transform="scale(0.015625)"/>
       <path id="DejaVuSans-6f" d="M 1959 3097 
Q 1497 3097 1228 2736 
Q 959 2375 959 1747 
Q 959 1119 1226 758 
Q 1494 397 1959 397 
Q 2419 397 2687 759 
Q 2956 1122 2956 1747 
Q 2956 2369 2687 2733 
Q 2419 3097 1959 3097 
z
M 1959 3584 
Q 2709 3584 3137 3096 
Q 3566 2609 3566 1747 
Q 3566 888 3137 398 
Q 2709 -91 1959 -91 
Q 1206 -91 779 398 
Q 353 888 353 1747 
Q 353 2609 779 3096 
Q 1206 3584 1959 3584 
z
" transform="scale(0.015625)"/>
       <path id="DejaVuSans-72" d="M 2631 2963 
Q 2534 3019 2420 3045 
Q 2306 3072 2169 3072 
Q 1681 3072 1420 2755 
Q 1159 2438 1159 1844 
L 1159 0 
L 581 0 
L 581 3500 
L 1159 3500 
L 1159 2956 
Q 1341 3275 1631 3429 
Q 1922 3584 2338 3584 
Q 2397 3584 2469 3576 
Q 2541 3569 2628 3553 
L 2631 2963 
z
" transform="scale(0.015625)"/>
       <path id="DejaVuSans-6c" d="M 603 4863 
L 1178 4863 
L 1178 0 
L 603 0 
L 603 4863 
z
" transform="scale(0.015625)"/>
      </defs>
      <use xlink:href="#DejaVuSans-4e"/>
      <use xlink:href="#DejaVuSans-6f" x="74.804688"/>
      <use xlink:href="#DejaVuSans-72" x="135.986328"/>
      <use xlink:href="#DejaVuSans-6d" x="175.349609"/>
      <use xlink:href="#DejaVuSans-20" x="272.761719"/>
      <use xlink:href="#DejaVuSans-6d" x="304.548828"/>
      <use xlink:href="#DejaVuSans-6c" x="401.960938"/>
      <use xlink:href="#DejaVuSans-65" x="429.744141"/>
      <use xlink:href="#DejaVuSans-20" x="491.267578"/>
      <use xlink:href="#DejaVuSans-65" x="523.054688"/>
      <use xlink:href="#DejaVuSans-73" x="584.578125"/>
      <use xlink:href="#DejaVuSans-74" x="636.677734"/>
      <use xlink:href="#DejaVuSans-69" x="675.886719"/>
      <use xlink:href="#DejaVuSans-6d" x="703.669922"/>
      <use xlink:href="#DejaVuSans-61" x="801.082031"/>
      <use xlink:href="#DejaVuSans-74" x="862.361328"/>
      <use xlink:href="#DejaVuSans-65" x="901.570312"/>
     </g>
    </g>
    <g id="patch_18">
     <path d="M 46.748217 527.800313 
L 66.748217 527.800313 
L 66.748217 520.800313 
L 46.748217 520.800313 
z
" style="fill: #808080; opacity: 0.5"/>
    </g>
    <g id="text_3">
     <!-- Histogram -->
     <g transform="translate(74.748217 527.800313) scale(0.1 -0.1)">
      <defs>
       <path id="DejaVuSans-48" d="M 628 4666 
L 1259 4666 
L 1259 2753 
L 3553 2753 
L 3553 4666 
L 4184 4666 
L 4184 0 
L 3553 0 
L 3553 2222 
L 1259 2222 
L 1259 0 
L 628 0 
L 628 4666 
z
" transform="scale(0.015625)"/>
       <path id="DejaVuSans-67" d="M 2906 1791 
Q 2906 2416 2648 2759 
Q 2391 3103 1925 3103 
Q 1463 3103 1205 2759 
Q 947 2416 947 1791 
Q 947 1169 1205 825 
Q 1463 481 1925 481 
Q 2391 481 2648 825 
Q 2906 1169 2906 1791 
z
M 3481 434 
Q 3481 -459 3084 -895 
Q 2688 -1331 1869 -1331 
Q 1566 -1331 1297 -1286 
Q 1028 -1241 775 -1147 
L 775 -588 
Q 1028 -725 1275 -790 
Q 1522 -856 1778 -856 
Q 2344 -856 2625 -561 
Q 2906 -266 2906 331 
L 2906 616 
Q 2728 306 2450 153 
Q 2172 0 1784 0 
Q 1141 0 747 490 
Q 353 981 353 1791 
Q 353 2603 747 3093 
Q 1141 3584 1784 3584 
Q 2172 3584 2450 3431 
Q 2728 3278 2906 2969 
L 2906 3500 
L 3481 3500 
L 3481 434 
z
" transform="scale(0.015625)"/>
      </defs>
      <use xlink:href="#DejaVuSans-48"/>
      <use xlink:href="#DejaVuSans-69" x="75.195312"/>
      <use xlink:href="#DejaVuSans-73" x="102.978516"/>
      <use xlink:href="#DejaVuSans-74" x="155.078125"/>
      <use xlink:href="#DejaVuSans-6f" x="194.287109"/>
      <use xlink:href="#DejaVuSans-67" x="255.46875"/>
      <use xlink:href="#DejaVuSans-72" x="318.945312"/>
      <use xlink:href="#DejaVuSans-61" x="360.058594"/>
      <use xlink:href="#DejaVuSans-6d" x="421.337891"/>
     </g>
    </g>
   </g>
  </g>
  <g id="axes_2">
   <g id="patch_19">
    <path d="M 224.71603 538.88 
L 1069.2 538.88 
L 1069.2 25.44 
L 224.71603 25.44 
z
" style="fill: #ffffff"/>
   </g>
   <g id="PathCollection_1">
    <defs>
     <path id="m317890c44d" d="M 0 3 
C 0.795609 3 1.55874 2.683901 2.12132 2.12132 
C 2.683901 1.55874 3 0.795609 3 0 
C 3 -0.795609 2.683901 -1.55874 2.12132 -2.12132 
C 1.55874 -2.683901 0.795609 -3 0 -3 
C -0.795609 -3 -1.55874 -2.683901 -2.12132 -2.12132 
C -2.683901 -1.55874 -3 -0.795609 -3 0 
C -3 0.795609 -2.683901 1.55874 -2.12132 2.12132 
C -1.55874 2.683901 -0.795609 3 0 3 
z
" style="stroke: #000000"/>
    </defs>
    <g clip-path="url(#p7c4d358511)">
     <use xlink:href="#m317890c44d" x="550.445561" y="49.444987" style="fill: #ff0000; stroke: #000000"/>
     <use xlink:href="#m317890c44d" x="417.740937" y="215.812883" style="fill: #ff0000; stroke: #000000"/>
     <use xlink:href="#m317890c44d" x="538.381504" y="173.470753" style="fill: #ff0000; stroke: #000000"/>
     <use xlink:href="#m317890c44d" x="719.342355" y="68.782338" style="fill: #ff0000; stroke: #000000"/>
     <use xlink:href="#m317890c44d" x="429.804994" y="70.115948" style="fill: #ff0000; stroke: #000000"/>
     <use xlink:href="#m317890c44d" x="671.086128" y="242.151688" style="fill: #ff0000; stroke: #000000"/>
     <use xlink:href="#m317890c44d" x="622.829901" y="449.861506" style="fill: #ff0000; stroke: #000000"/>
     <use xlink:href="#m317890c44d" x="683.150185" y="393.84987" style="fill: #ff0000; stroke: #000000"/>
     <use xlink:href="#m317890c44d" x="465.997164" y="355.841974" style="fill: #ff0000; stroke: #000000"/>
     <use xlink:href="#m317890c44d" x="526.317448" y="314.500052" style="fill: #ff0000; stroke: #000000"/>
     <use xlink:href="#m317890c44d" x="767.598582" y="472.866286" style="fill: #ff0000; stroke: #000000"/>
     <use xlink:href="#m317890c44d" x="514.253391" y="185.806649" style="fill: #ff0000; stroke: #000000"/>
     <use xlink:href="#m317890c44d" x="393.612824" y="280.159584" style="fill: #ff0000; stroke: #000000"/>
     <use xlink:href="#m317890c44d" x="405.67688" y="340.838857" style="fill: #ff0000; stroke: #000000"/>
     <use xlink:href="#m317890c44d" x="369.48471" y="337.171429" style="fill: #ff0000; stroke: #000000"/>
     <use xlink:href="#m317890c44d" x="634.893958" y="64.781506" style="fill: #ff0000; stroke: #000000"/>
     <use xlink:href="#m317890c44d" x="755.534525" y="436.192" style="fill: #ff0000; stroke: #000000"/>
     <use xlink:href="#m317890c44d" x="478.061221" y="191.474494" style="fill: #ff0000; stroke: #000000"/>
     <use xlink:href="#m317890c44d" x="381.548767" y="137.796675" style="fill: #ff0000; stroke: #000000"/>
     <use xlink:href="#m317890c44d" x="429.804994" y="68.782338" style="fill: #ff0000; stroke: #000000"/>
     <use xlink:href="#m317890c44d" x="369.48471" y="106.456831" style="fill: #ff0000; stroke: #000000"/>
     <use xlink:href="#m317890c44d" x="671.086128" y="229.148987" style="fill: #ff0000; stroke: #000000"/>
     <use xlink:href="#m317890c44d" x="550.445561" y="375.512727" style="fill: #ff0000; stroke: #000000"/>
     <use xlink:href="#m317890c44d" x="441.869051" y="326.835948" style="fill: #ff0000; stroke: #000000"/>
     <use xlink:href="#m317890c44d" x="490.125277" y="270.157506" style="fill: #ff0000; stroke: #000000"/>
     <use xlink:href="#m317890c44d" x="369.48471" y="469.53226" style="fill: #ff0000; stroke: #000000"/>
     <use xlink:href="#m317890c44d" x="646.958015" y="52.779013" style="fill: #ff0000; stroke: #000000"/>
     <use xlink:href="#m317890c44d" x="659.022072" y="116.125506" style="fill: #ff0000; stroke: #000000"/>
     <use xlink:href="#m317890c44d" x="490.125277" y="67.78213" style="fill: #ff0000; stroke: #000000"/>
     <use xlink:href="#m317890c44d" x="417.740937" y="150.799377" style="fill: #ff0000; stroke: #000000"/>
     <use xlink:href="#m317890c44d" x="683.150185" y="53.779221" style="fill: #ff0000; stroke: #000000"/>
     <use xlink:href="#m317890c44d" x="381.548767" y="496.53787" style="fill: #ff0000; stroke: #000000"/>
     <use xlink:href="#m317890c44d" x="526.317448" y="103.78961" style="fill: #ff0000; stroke: #000000"/>
     <use xlink:href="#m317890c44d" x="405.67688" y="181.805818" style="fill: #ff0000; stroke: #000000"/>
     <use xlink:href="#m317890c44d" x="550.445561" y="231.816208" style="fill: #ff0000; stroke: #000000"/>
     <use xlink:href="#m317890c44d" x="417.740937" y="73.449974" style="fill: #ff0000; stroke: #000000"/>
     <use xlink:href="#m317890c44d" x="526.317448" y="153.466597" style="fill: #ff0000; stroke: #000000"/>
     <use xlink:href="#m317890c44d" x="490.125277" y="427.856935" style="fill: #ff0000; stroke: #000000"/>
     <use xlink:href="#m317890c44d" x="526.317448" y="494.870857" style="fill: #ff0000; stroke: #000000"/>
     <use xlink:href="#m317890c44d" x="743.470469" y="53.445818" style="fill: #ff0000; stroke: #000000"/>
     <use xlink:href="#m317890c44d" x="646.958015" y="320.167896" style="fill: #ff0000; stroke: #000000"/>
     <use xlink:href="#m317890c44d" x="345.356597" y="242.485091" style="fill: #ff0000; stroke: #000000"/>
     <use xlink:href="#m317890c44d" x="417.740937" y="506.539948" style="fill: #ff0000; stroke: #000000"/>
     <use xlink:href="#m317890c44d" x="598.701788" y="404.185351" style="fill: #ff0000; stroke: #000000"/>
     <use xlink:href="#m317890c44d" x="743.470469" y="444.193662" style="fill: #ff0000; stroke: #000000"/>
     <use xlink:href="#m317890c44d" x="683.150185" y="309.499013" style="fill: #ff0000; stroke: #000000"/>
     <use xlink:href="#m317890c44d" x="562.509618" y="476.533714" style="fill: #ff0000; stroke: #000000"/>
     <use xlink:href="#m317890c44d" x="719.342355" y="189.140675" style="fill: #ff0000; stroke: #000000"/>
     <use xlink:href="#m317890c44d" x="369.48471" y="236.150442" style="fill: #ff0000; stroke: #000000"/>
     <use xlink:href="#m317890c44d" x="586.637731" y="359.842805" style="fill: #ff0000; stroke: #000000"/>
     <use xlink:href="#m317890c44d" x="405.67688" y="472.866286" style="fill: #ff0000; stroke: #000000"/>
     <use xlink:href="#m317890c44d" x="453.933107" y="111.124468" style="fill: #ff0000; stroke: #000000"/>
     <use xlink:href="#m317890c44d" x="574.573675" y="290.161662" style="fill: #ff0000; stroke: #000000"/>
     <use xlink:href="#m317890c44d" x="659.022072" y="215.479481" style="fill: #ff0000; stroke: #000000"/>
     <use xlink:href="#m317890c44d" x="381.548767" y="314.833455" style="fill: #ff0000; stroke: #000000"/>
     <use xlink:href="#m317890c44d" x="683.150185" y="379.846961" style="fill: #ff0000; stroke: #000000"/>
     <use xlink:href="#m317890c44d" x="381.548767" y="211.478649" style="fill: #ff0000; stroke: #000000"/>
     <use xlink:href="#m317890c44d" x="441.869051" y="419.188468" style="fill: #ff0000; stroke: #000000"/>
     <use xlink:href="#m317890c44d" x="357.420654" y="85.119065" style="fill: #ff0000; stroke: #000000"/>
     <use xlink:href="#m317890c44d" x="393.612824" y="185.139844" style="fill: #ff0000; stroke: #000000"/>
    </g>
   </g>
   <g id="PathCollection_2">
    <defs>
     <path id="m1e54d019c5" d="M 0 3 
C 0.795609 3 1.55874 2.683901 2.12132 2.12132 
C 2.683901 1.55874 3 0.795609 3 0 
C 3 -0.795609 2.683901 -1.55874 2.12132 -2.12132 
C 1.55874 -2.683901 0.795609 -3 0 -3 
C -0.795609 -3 -1.55874 -2.683901 -2.12132 -2.12132 
C -2.683901 -1.55874 -3 -0.795609 -3 0 
C -3 0.795609 -2.683901 1.55874 -2.12132 2.12132 
C -1.55874 2.683901 -0.795609 3 0 3 
z
" style="stroke: #000000"/>
    </defs>
    <g clip-path="url(#p7c4d358511)">
     <use xlink:href="#m1e54d019c5" x="586.637731" y="286.827636" style="fill: #808080; stroke: #000000"/>
     <use xlink:href="#m1e54d019c5" x="719.342355" y="325.83574" style="fill: #808080; stroke: #000000"/>
     <use xlink:href="#m1e54d019c5" x="622.829901" y="225.814961" style="fill: #808080; stroke: #000000"/>
     <use xlink:href="#m1e54d019c5" x="731.406412" y="301.497351" style="fill: #808080; stroke: #000000"/>
     <use xlink:href="#m1e54d019c5" x="719.342355" y="382.847584" style="fill: #808080; stroke: #000000"/>
     <use xlink:href="#m1e54d019c5" x="731.406412" y="250.153351" style="fill: #808080; stroke: #000000"/>
     <use xlink:href="#m1e54d019c5" x="695.214242" y="476.867117" style="fill: #808080; stroke: #000000"/>
     <use xlink:href="#m1e54d019c5" x="731.406412" y="213.479065" style="fill: #808080; stroke: #000000"/>
     <use xlink:href="#m1e54d019c5" x="671.086128" y="146.13174" style="fill: #808080; stroke: #000000"/>
     <use xlink:href="#m1e54d019c5" x="538.381504" y="195.808727" style="fill: #808080; stroke: #000000"/>
     <use xlink:href="#m1e54d019c5" x="743.470469" y="402.85174" style="fill: #808080; stroke: #000000"/>
     <use xlink:href="#m1e54d019c5" x="671.086128" y="188.47387" style="fill: #808080; stroke: #000000"/>
     <use xlink:href="#m1e54d019c5" x="646.958015" y="203.143584" style="fill: #808080; stroke: #000000"/>
     <use xlink:href="#m1e54d019c5" x="683.150185" y="135.79626" style="fill: #808080; stroke: #000000"/>
     <use xlink:href="#m1e54d019c5" x="707.278298" y="329.169766" style="fill: #808080; stroke: #000000"/>
     <use xlink:href="#m1e54d019c5" x="610.765845" y="311.832831" style="fill: #808080; stroke: #000000"/>
     <use xlink:href="#m1e54d019c5" x="683.150185" y="126.79439" style="fill: #808080; stroke: #000000"/>
     <use xlink:href="#m1e54d019c5" x="586.637731" y="234.483429" style="fill: #808080; stroke: #000000"/>
     <use xlink:href="#m1e54d019c5" x="767.598582" y="246.152519" style="fill: #808080; stroke: #000000"/>
     <use xlink:href="#m1e54d019c5" x="598.701788" y="257.488208" style="fill: #808080; stroke: #000000"/>
     <use xlink:href="#m1e54d019c5" x="731.406412" y="115.458701" style="fill: #808080; stroke: #000000"/>
     <use xlink:href="#m1e54d019c5" x="659.022072" y="112.124675" style="fill: #808080; stroke: #000000"/>
     <use xlink:href="#m1e54d019c5" x="574.573675" y="248.152935" style="fill: #808080; stroke: #000000"/>
     <use xlink:href="#m1e54d019c5" x="478.061221" y="207.811221" style="fill: #808080; stroke: #000000"/>
     <use xlink:href="#m1e54d019c5" x="622.829901" y="480.201143" style="fill: #808080; stroke: #000000"/>
     <use xlink:href="#m1e54d019c5" x="586.637731" y="247.48613" style="fill: #808080; stroke: #000000"/>
     <use xlink:href="#m1e54d019c5" x="562.509618" y="129.46161" style="fill: #808080; stroke: #000000"/>
     <use xlink:href="#m1e54d019c5" x="646.958015" y="234.150026" style="fill: #808080; stroke: #000000"/>
     <use xlink:href="#m1e54d019c5" x="779.662639" y="323.168519" style="fill: #808080; stroke: #000000"/>
     <use xlink:href="#m1e54d019c5" x="646.958015" y="183.472831" style="fill: #808080; stroke: #000000"/>
     <use xlink:href="#m1e54d019c5" x="622.829901" y="159.134442" style="fill: #808080; stroke: #000000"/>
     <use xlink:href="#m1e54d019c5" x="755.534525" y="292.495481" style="fill: #808080; stroke: #000000"/>
     <use xlink:href="#m1e54d019c5" x="755.534525" y="263.822857" style="fill: #808080; stroke: #000000"/>
     <use xlink:href="#m1e54d019c5" x="659.022072" y="192.141299" style="fill: #808080; stroke: #000000"/>
     <use xlink:href="#m1e54d019c5" x="586.637731" y="158.801039" style="fill: #808080; stroke: #000000"/>
     <use xlink:href="#m1e54d019c5" x="743.470469" y="175.471169" style="fill: #808080; stroke: #000000"/>
     <use xlink:href="#m1e54d019c5" x="574.573675" y="198.809351" style="fill: #808080; stroke: #000000"/>
     <use xlink:href="#m1e54d019c5" x="659.022072" y="156.467221" style="fill: #808080; stroke: #000000"/>
     <use xlink:href="#m1e54d019c5" x="695.214242" y="232.483013" style="fill: #808080; stroke: #000000"/>
     <use xlink:href="#m1e54d019c5" x="610.765845" y="48.778182" style="fill: #808080; stroke: #000000"/>
     <use xlink:href="#m1e54d019c5" x="646.958015" y="326.835948" style="fill: #808080; stroke: #000000"/>
     <use xlink:href="#m1e54d019c5" x="574.573675" y="218.146701" style="fill: #808080; stroke: #000000"/>
     <use xlink:href="#m1e54d019c5" x="683.150185" y="288.161247" style="fill: #808080; stroke: #000000"/>
     <use xlink:href="#m1e54d019c5" x="622.829901" y="132.795636" style="fill: #808080; stroke: #000000"/>
     <use xlink:href="#m1e54d019c5" x="646.958015" y="286.494234" style="fill: #808080; stroke: #000000"/>
     <use xlink:href="#m1e54d019c5" x="731.406412" y="49.111584" style="fill: #808080; stroke: #000000"/>
     <use xlink:href="#m1e54d019c5" x="646.958015" y="148.465558" style="fill: #808080; stroke: #000000"/>
     <use xlink:href="#m1e54d019c5" x="839.982922" y="283.160208" style="fill: #808080; stroke: #000000"/>
     <use xlink:href="#m1e54d019c5" x="671.086128" y="136.463065" style="fill: #808080; stroke: #000000"/>
     <use xlink:href="#m1e54d019c5" x="683.150185" y="273.15813" style="fill: #808080; stroke: #000000"/>
     <use xlink:href="#m1e54d019c5" x="634.893958" y="278.492571" style="fill: #808080; stroke: #000000"/>
     <use xlink:href="#m1e54d019c5" x="695.214242" y="328.169558" style="fill: #808080; stroke: #000000"/>
     <use xlink:href="#m1e54d019c5" x="562.509618" y="267.490286" style="fill: #808080; stroke: #000000"/>
     <use xlink:href="#m1e54d019c5" x="634.893958" y="304.497974" style="fill: #808080; stroke: #000000"/>
     <use xlink:href="#m1e54d019c5" x="683.150185" y="86.452675" style="fill: #808080; stroke: #000000"/>
     <use xlink:href="#m1e54d019c5" x="719.342355" y="278.159169" style="fill: #808080; stroke: #000000"/>
     <use xlink:href="#m1e54d019c5" x="634.893958" y="277.158961" style="fill: #808080; stroke: #000000"/>
     <use xlink:href="#m1e54d019c5" x="659.022072" y="202.143377" style="fill: #808080; stroke: #000000"/>
     <use xlink:href="#m1e54d019c5" x="707.278298" y="240.484675" style="fill: #808080; stroke: #000000"/>
     <use xlink:href="#m1e54d019c5" x="622.829901" y="299.830338" style="fill: #808080; stroke: #000000"/>
     <use xlink:href="#m1e54d019c5" x="659.022072" y="261.489039" style="fill: #808080; stroke: #000000"/>
     <use xlink:href="#m1e54d019c5" x="586.637731" y="210.811844" style="fill: #808080; stroke: #000000"/>
     <use xlink:href="#m1e54d019c5" x="586.637731" y="151.466182" style="fill: #808080; stroke: #000000"/>
     <use xlink:href="#m1e54d019c5" x="586.637731" y="251.486961" style="fill: #808080; stroke: #000000"/>
     <use xlink:href="#m1e54d019c5" x="586.637731" y="142.130909" style="fill: #808080; stroke: #000000"/>
     <use xlink:href="#m1e54d019c5" x="707.278298" y="164.802286" style="fill: #808080; stroke: #000000"/>
     <use xlink:href="#m1e54d019c5" x="574.573675" y="144.464727" style="fill: #808080; stroke: #000000"/>
     <use xlink:href="#m1e54d019c5" x="707.278298" y="205.810805" style="fill: #808080; stroke: #000000"/>
     <use xlink:href="#m1e54d019c5" x="719.342355" y="224.814753" style="fill: #808080; stroke: #000000"/>
     <use xlink:href="#m1e54d019c5" x="683.150185" y="60.11387" style="fill: #808080; stroke: #000000"/>
     <use xlink:href="#m1e54d019c5" x="646.958015" y="213.145662" style="fill: #808080; stroke: #000000"/>
     <use xlink:href="#m1e54d019c5" x="562.509618" y="331.836987" style="fill: #808080; stroke: #000000"/>
     <use xlink:href="#m1e54d019c5" x="598.701788" y="112.124675" style="fill: #808080; stroke: #000000"/>
     <use xlink:href="#m1e54d019c5" x="514.253391" y="170.47013" style="fill: #808080; stroke: #000000"/>
     <use xlink:href="#m1e54d019c5" x="598.701788" y="515.541818" style="fill: #808080; stroke: #000000"/>
     <use xlink:href="#m1e54d019c5" x="767.598582" y="388.182026" style="fill: #808080; stroke: #000000"/>
     <use xlink:href="#m1e54d019c5" x="502.189334" y="256.488" style="fill: #808080; stroke: #000000"/>
     <use xlink:href="#m1e54d019c5" x="574.573675" y="56.446442" style="fill: #808080; stroke: #000000"/>
     <use xlink:href="#m1e54d019c5" x="538.381504" y="249.486545" style="fill: #808080; stroke: #000000"/>
     <use xlink:href="#m1e54d019c5" x="659.022072" y="266.156675" style="fill: #808080; stroke: #000000"/>
     <use xlink:href="#m1e54d019c5" x="586.637731" y="307.498597" style="fill: #808080; stroke: #000000"/>
     <use xlink:href="#m1e54d019c5" x="465.997164" y="178.805195" style="fill: #808080; stroke: #000000"/>
     <use xlink:href="#m1e54d019c5" x="574.573675" y="81.118234" style="fill: #808080; stroke: #000000"/>
     <use xlink:href="#m1e54d019c5" x="610.765845" y="301.163948" style="fill: #808080; stroke: #000000"/>
     <use xlink:href="#m1e54d019c5" x="683.150185" y="256.821403" style="fill: #808080; stroke: #000000"/>
     <use xlink:href="#m1e54d019c5" x="671.086128" y="87.786286" style="fill: #808080; stroke: #000000"/>
     <use xlink:href="#m1e54d019c5" x="574.573675" y="149.465766" style="fill: #808080; stroke: #000000"/>
     <use xlink:href="#m1e54d019c5" x="526.317448" y="231.482805" style="fill: #808080; stroke: #000000"/>
     <use xlink:href="#m1e54d019c5" x="562.509618" y="276.492156" style="fill: #808080; stroke: #000000"/>
     <use xlink:href="#m1e54d019c5" x="610.765845" y="167.136104" style="fill: #808080; stroke: #000000"/>
     <use xlink:href="#m1e54d019c5" x="550.445561" y="201.143169" style="fill: #808080; stroke: #000000"/>
     <use xlink:href="#m1e54d019c5" x="671.086128" y="59.113662" style="fill: #808080; stroke: #000000"/>
     <use xlink:href="#m1e54d019c5" x="598.701788" y="103.122805" style="fill: #808080; stroke: #000000"/>
     <use xlink:href="#m1e54d019c5" x="574.573675" y="334.83761" style="fill: #808080; stroke: #000000"/>
     <use xlink:href="#m1e54d019c5" x="634.893958" y="188.807273" style="fill: #808080; stroke: #000000"/>
     <use xlink:href="#m1e54d019c5" x="514.253391" y="123.793766" style="fill: #808080; stroke: #000000"/>
     <use xlink:href="#m1e54d019c5" x="827.918866" y="223.14774" style="fill: #808080; stroke: #000000"/>
     <use xlink:href="#m1e54d019c5" x="526.317448" y="200.809766" style="fill: #808080; stroke: #000000"/>
     <use xlink:href="#m1e54d019c5" x="514.253391" y="228.482182" style="fill: #808080; stroke: #000000"/>
     <use xlink:href="#m1e54d019c5" x="514.253391" y="203.81039" style="fill: #808080; stroke: #000000"/>
     <use xlink:href="#m1e54d019c5" x="598.701788" y="276.825558" style="fill: #808080; stroke: #000000"/>
     <use xlink:href="#m1e54d019c5" x="598.701788" y="250.820156" style="fill: #808080; stroke: #000000"/>
     <use xlink:href="#m1e54d019c5" x="393.612824" y="269.824104" style="fill: #808080; stroke: #000000"/>
     <use xlink:href="#m1e54d019c5" x="574.573675" y="498.204883" style="fill: #808080; stroke: #000000"/>
     <use xlink:href="#m1e54d019c5" x="598.701788" y="500.205299" style="fill: #808080; stroke: #000000"/>
     <use xlink:href="#m1e54d019c5" x="610.765845" y="147.798753" style="fill: #808080; stroke: #000000"/>
     <use xlink:href="#m1e54d019c5" x="683.150185" y="196.475532" style="fill: #808080; stroke: #000000"/>
    </g>
   </g>
   <g id="matplotlib.axis_3">
    <g id="xtick_1">
     <g id="line2d_5">
      <path d="M 393.612824 538.88 
L 393.612824 25.44 
" clip-path="url(#p7c4d358511)" style="fill: none; stroke: #b0b0b0; stroke-width: 0.8; stroke-linecap: square"/>
     </g>
     <g id="line2d_6">
      <defs>
       <path id="mcd27232bab" d="M 0 0 
L 0 3.5 
" style="stroke: #000000; stroke-width: 0.8"/>
      </defs>
      <g>
       <use xlink:href="#mcd27232bab" x="393.612824" y="538.88" style="stroke: #000000; stroke-width: 0.8"/>
      </g>
     </g>
     <g id="text_4">
      <!-- 104 -->
      <g transform="translate(384.069074 553.478438) scale(0.1 -0.1)">
       <defs>
        <path id="DejaVuSans-31" d="M 794 531 
L 1825 531 
L 1825 4091 
L 703 3866 
L 703 4441 
L 1819 4666 
L 2450 4666 
L 2450 531 
L 3481 531 
L 3481 0 
L 794 0 
L 794 531 
z
" transform="scale(0.015625)"/>
        <path id="DejaVuSans-30" d="M 2034 4250 
Q 1547 4250 1301 3770 
Q 1056 3291 1056 2328 
Q 1056 1369 1301 889 
Q 1547 409 2034 409 
Q 2525 409 2770 889 
Q 3016 1369 3016 2328 
Q 3016 3291 2770 3770 
Q 2525 4250 2034 4250 
z
M 2034 4750 
Q 2819 4750 3233 4129 
Q 3647 3509 3647 2328 
Q 3647 1150 3233 529 
Q 2819 -91 2034 -91 
Q 1250 -91 836 529 
Q 422 1150 422 2328 
Q 422 3509 836 4129 
Q 1250 4750 2034 4750 
z
" transform="scale(0.015625)"/>
        <path id="DejaVuSans-34" d="M 2419 4116 
L 825 1625 
L 2419 1625 
L 2419 4116 
z
M 2253 4666 
L 3047 4666 
L 3047 1625 
L 3713 1625 
L 3713 1100 
L 3047 1100 
L 3047 0 
L 2419 0 
L 2419 1100 
L 313 1100 
L 313 1709 
L 2253 4666 
z
" transform="scale(0.015625)"/>
       </defs>
       <use xlink:href="#DejaVuSans-31"/>
       <use xlink:href="#DejaVuSans-30" x="63.623047"/>
       <use xlink:href="#DejaVuSans-34" x="127.246094"/>
      </g>
     </g>
    </g>
    <g id="xtick_2">
     <g id="line2d_7">
      <path d="M 453.933107 538.88 
L 453.933107 25.44 
" clip-path="url(#p7c4d358511)" style="fill: none; stroke: #b0b0b0; stroke-width: 0.8; stroke-linecap: square"/>
     </g>
     <g id="line2d_8">
      <g>
       <use xlink:href="#mcd27232bab" x="453.933107" y="538.88" style="stroke: #000000; stroke-width: 0.8"/>
      </g>
     </g>
     <g id="text_5">
      <!-- 109 -->
      <g transform="translate(444.389357 553.478438) scale(0.1 -0.1)">
       <defs>
        <path id="DejaVuSans-39" d="M 703 97 
L 703 672 
Q 941 559 1184 500 
Q 1428 441 1663 441 
Q 2288 441 2617 861 
Q 2947 1281 2994 2138 
Q 2813 1869 2534 1725 
Q 2256 1581 1919 1581 
Q 1219 1581 811 2004 
Q 403 2428 403 3163 
Q 403 3881 828 4315 
Q 1253 4750 1959 4750 
Q 2769 4750 3195 4129 
Q 3622 3509 3622 2328 
Q 3622 1225 3098 567 
Q 2575 -91 1691 -91 
Q 1453 -91 1209 -44 
Q 966 3 703 97 
z
M 1959 2075 
Q 2384 2075 2632 2365 
Q 2881 2656 2881 3163 
Q 2881 3666 2632 3958 
Q 2384 4250 1959 4250 
Q 1534 4250 1286 3958 
Q 1038 3666 1038 3163 
Q 1038 2656 1286 2365 
Q 1534 2075 1959 2075 
z
" transform="scale(0.015625)"/>
       </defs>
       <use xlink:href="#DejaVuSans-31"/>
       <use xlink:href="#DejaVuSans-30" x="63.623047"/>
       <use xlink:href="#DejaVuSans-39" x="127.246094"/>
      </g>
     </g>
    </g>
    <g id="xtick_3">
     <g id="line2d_9">
      <path d="M 514.253391 538.88 
L 514.253391 25.44 
" clip-path="url(#p7c4d358511)" style="fill: none; stroke: #b0b0b0; stroke-width: 0.8; stroke-linecap: square"/>
     </g>
     <g id="line2d_10">
      <g>
       <use xlink:href="#mcd27232bab" x="514.253391" y="538.88" style="stroke: #000000; stroke-width: 0.8"/>
      </g>
     </g>
     <g id="text_6">
      <!-- 114 -->
      <g transform="translate(504.709641 553.478438) scale(0.1 -0.1)">
       <use xlink:href="#DejaVuSans-31"/>
       <use xlink:href="#DejaVuSans-31" x="63.623047"/>
       <use xlink:href="#DejaVuSans-34" x="127.246094"/>
      </g>
     </g>
    </g>
    <g id="xtick_4">
     <g id="line2d_11">
      <path d="M 574.573675 538.88 
L 574.573675 25.44 
" clip-path="url(#p7c4d358511)" style="fill: none; stroke: #b0b0b0; stroke-width: 0.8; stroke-linecap: square"/>
     </g>
     <g id="line2d_12">
      <g>
       <use xlink:href="#mcd27232bab" x="574.573675" y="538.88" style="stroke: #000000; stroke-width: 0.8"/>
      </g>
     </g>
     <g id="text_7">
      <!-- 119 -->
      <g transform="translate(565.029925 553.478438) scale(0.1 -0.1)">
       <use xlink:href="#DejaVuSans-31"/>
       <use xlink:href="#DejaVuSans-31" x="63.623047"/>
       <use xlink:href="#DejaVuSans-39" x="127.246094"/>
      </g>
     </g>
    </g>
    <g id="xtick_5">
     <g id="line2d_13">
      <path d="M 634.893958 538.88 
L 634.893958 25.44 
" clip-path="url(#p7c4d358511)" style="fill: none; stroke: #b0b0b0; stroke-width: 0.8; stroke-linecap: square"/>
     </g>
     <g id="line2d_14">
      <g>
       <use xlink:href="#mcd27232bab" x="634.893958" y="538.88" style="stroke: #000000; stroke-width: 0.8"/>
      </g>
     </g>
     <g id="text_8">
      <!-- 124 -->
      <g transform="translate(625.350208 553.478438) scale(0.1 -0.1)">
       <defs>
        <path id="DejaVuSans-32" d="M 1228 531 
L 3431 531 
L 3431 0 
L 469 0 
L 469 531 
Q 828 903 1448 1529 
Q 2069 2156 2228 2338 
Q 2531 2678 2651 2914 
Q 2772 3150 2772 3378 
Q 2772 3750 2511 3984 
Q 2250 4219 1831 4219 
Q 1534 4219 1204 4116 
Q 875 4013 500 3803 
L 500 4441 
Q 881 4594 1212 4672 
Q 1544 4750 1819 4750 
Q 2544 4750 2975 4387 
Q 3406 4025 3406 3419 
Q 3406 3131 3298 2873 
Q 3191 2616 2906 2266 
Q 2828 2175 2409 1742 
Q 1991 1309 1228 531 
z
" transform="scale(0.015625)"/>
       </defs>
       <use xlink:href="#DejaVuSans-31"/>
       <use xlink:href="#DejaVuSans-32" x="63.623047"/>
       <use xlink:href="#DejaVuSans-34" x="127.246094"/>
      </g>
     </g>
    </g>
    <g id="xtick_6">
     <g id="line2d_15">
      <path d="M 695.214242 538.88 
L 695.214242 25.44 
" clip-path="url(#p7c4d358511)" style="fill: none; stroke: #b0b0b0; stroke-width: 0.8; stroke-linecap: square"/>
     </g>
     <g id="line2d_16">
      <g>
       <use xlink:href="#mcd27232bab" x="695.214242" y="538.88" style="stroke: #000000; stroke-width: 0.8"/>
      </g>
     </g>
     <g id="text_9">
      <!-- 129 -->
      <g transform="translate(685.670492 553.478438) scale(0.1 -0.1)">
       <use xlink:href="#DejaVuSans-31"/>
       <use xlink:href="#DejaVuSans-32" x="63.623047"/>
       <use xlink:href="#DejaVuSans-39" x="127.246094"/>
      </g>
     </g>
    </g>
    <g id="xtick_7">
     <g id="line2d_17">
      <path d="M 755.534525 538.88 
L 755.534525 25.44 
" clip-path="url(#p7c4d358511)" style="fill: none; stroke: #b0b0b0; stroke-width: 0.8; stroke-linecap: square"/>
     </g>
     <g id="line2d_18">
      <g>
       <use xlink:href="#mcd27232bab" x="755.534525" y="538.88" style="stroke: #000000; stroke-width: 0.8"/>
      </g>
     </g>
     <g id="text_10">
      <!-- 134 -->
      <g transform="translate(745.990775 553.478438) scale(0.1 -0.1)">
       <defs>
        <path id="DejaVuSans-33" d="M 2597 2516 
Q 3050 2419 3304 2112 
Q 3559 1806 3559 1356 
Q 3559 666 3084 287 
Q 2609 -91 1734 -91 
Q 1441 -91 1130 -33 
Q 819 25 488 141 
L 488 750 
Q 750 597 1062 519 
Q 1375 441 1716 441 
Q 2309 441 2620 675 
Q 2931 909 2931 1356 
Q 2931 1769 2642 2001 
Q 2353 2234 1838 2234 
L 1294 2234 
L 1294 2753 
L 1863 2753 
Q 2328 2753 2575 2939 
Q 2822 3125 2822 3475 
Q 2822 3834 2567 4026 
Q 2313 4219 1838 4219 
Q 1578 4219 1281 4162 
Q 984 4106 628 3988 
L 628 4550 
Q 988 4650 1302 4700 
Q 1616 4750 1894 4750 
Q 2613 4750 3031 4423 
Q 3450 4097 3450 3541 
Q 3450 3153 3228 2886 
Q 3006 2619 2597 2516 
z
" transform="scale(0.015625)"/>
       </defs>
       <use xlink:href="#DejaVuSans-31"/>
       <use xlink:href="#DejaVuSans-33" x="63.623047"/>
       <use xlink:href="#DejaVuSans-34" x="127.246094"/>
      </g>
     </g>
    </g>
    <g id="xtick_8">
     <g id="line2d_19">
      <path d="M 815.854809 538.88 
L 815.854809 25.44 
" clip-path="url(#p7c4d358511)" style="fill: none; stroke: #b0b0b0; stroke-width: 0.8; stroke-linecap: square"/>
     </g>
     <g id="line2d_20">
      <g>
       <use xlink:href="#mcd27232bab" x="815.854809" y="538.88" style="stroke: #000000; stroke-width: 0.8"/>
      </g>
     </g>
     <g id="text_11">
      <!-- 139 -->
      <g transform="translate(806.311059 553.478438) scale(0.1 -0.1)">
       <use xlink:href="#DejaVuSans-31"/>
       <use xlink:href="#DejaVuSans-33" x="63.623047"/>
       <use xlink:href="#DejaVuSans-39" x="127.246094"/>
      </g>
     </g>
    </g>
    <g id="text_12">
     <!-- Day of Year -->
     <g transform="translate(618.499421 567.156563) scale(0.1 -0.1)">
      <defs>
       <path id="DejaVuSans-79" d="M 2059 -325 
Q 1816 -950 1584 -1140 
Q 1353 -1331 966 -1331 
L 506 -1331 
L 506 -850 
L 844 -850 
Q 1081 -850 1212 -737 
Q 1344 -625 1503 -206 
L 1606 56 
L 191 3500 
L 800 3500 
L 1894 763 
L 2988 3500 
L 3597 3500 
L 2059 -325 
z
" transform="scale(0.015625)"/>
       <path id="DejaVuSans-66" d="M 2375 4863 
L 2375 4384 
L 1825 4384 
Q 1516 4384 1395 4259 
Q 1275 4134 1275 3809 
L 1275 3500 
L 2222 3500 
L 2222 3053 
L 1275 3053 
L 1275 0 
L 697 0 
L 697 3053 
L 147 3053 
L 147 3500 
L 697 3500 
L 697 3744 
Q 697 4328 969 4595 
Q 1241 4863 1831 4863 
L 2375 4863 
z
" transform="scale(0.015625)"/>
       <path id="DejaVuSans-59" d="M -13 4666 
L 666 4666 
L 1959 2747 
L 3244 4666 
L 3922 4666 
L 2272 2222 
L 2272 0 
L 1638 0 
L 1638 2222 
L -13 4666 
z
" transform="scale(0.015625)"/>
      </defs>
      <use xlink:href="#DejaVuSans-44"/>
      <use xlink:href="#DejaVuSans-61" x="77.001953"/>
      <use xlink:href="#DejaVuSans-79" x="138.28125"/>
      <use xlink:href="#DejaVuSans-20" x="197.460938"/>
      <use xlink:href="#DejaVuSans-6f" x="229.248047"/>
      <use xlink:href="#DejaVuSans-66" x="290.429688"/>
      <use xlink:href="#DejaVuSans-20" x="325.634766"/>
      <use xlink:href="#DejaVuSans-59" x="357.421875"/>
      <use xlink:href="#DejaVuSans-65" x="405.255859"/>
      <use xlink:href="#DejaVuSans-61" x="466.779297"/>
      <use xlink:href="#DejaVuSans-72" x="528.058594"/>
     </g>
    </g>
   </g>
   <g id="matplotlib.axis_4">
    <g id="ytick_1">
     <g id="line2d_21">
      <path d="M 224.71603 516.875429 
L 1069.2 516.875429 
" clip-path="url(#p7c4d358511)" style="fill: none; stroke: #b0b0b0; stroke-width: 0.8; stroke-linecap: square"/>
     </g>
     <g id="line2d_22">
      <defs>
       <path id="mf55c1a0e96" d="M 0 0 
L -3.5 0 
" style="stroke: #000000; stroke-width: 0.8"/>
      </defs>
      <g>
       <use xlink:href="#mf55c1a0e96" x="224.71603" y="516.875429" style="stroke: #000000; stroke-width: 0.8"/>
      </g>
     </g>
     <g id="text_13">
      <!-- 0 -->
      <g transform="translate(211.35353 520.674647) scale(0.1 -0.1)">
       <use xlink:href="#DejaVuSans-30"/>
      </g>
     </g>
    </g>
    <g id="ytick_2">
     <g id="line2d_23">
      <path d="M 224.71603 416.854649 
L 1069.2 416.854649 
" clip-path="url(#p7c4d358511)" style="fill: none; stroke: #b0b0b0; stroke-width: 0.8; stroke-linecap: square"/>
     </g>
     <g id="line2d_24">
      <g>
       <use xlink:href="#mf55c1a0e96" x="224.71603" y="416.854649" style="stroke: #000000; stroke-width: 0.8"/>
      </g>
     </g>
     <g id="text_14">
      <!-- 5 -->
      <g transform="translate(211.35353 420.653868) scale(0.1 -0.1)">
       <defs>
        <path id="DejaVuSans-35" d="M 691 4666 
L 3169 4666 
L 3169 4134 
L 1269 4134 
L 1269 2991 
Q 1406 3038 1543 3061 
Q 1681 3084 1819 3084 
Q 2600 3084 3056 2656 
Q 3513 2228 3513 1497 
Q 3513 744 3044 326 
Q 2575 -91 1722 -91 
Q 1428 -91 1123 -41 
Q 819 9 494 109 
L 494 744 
Q 775 591 1075 516 
Q 1375 441 1709 441 
Q 2250 441 2565 725 
Q 2881 1009 2881 1497 
Q 2881 1984 2565 2268 
Q 2250 2553 1709 2553 
Q 1456 2553 1204 2497 
Q 953 2441 691 2322 
L 691 4666 
z
" transform="scale(0.015625)"/>
       </defs>
       <use xlink:href="#DejaVuSans-35"/>
      </g>
     </g>
    </g>
    <g id="ytick_3">
     <g id="line2d_25">
      <path d="M 224.71603 316.83387 
L 1069.2 316.83387 
" clip-path="url(#p7c4d358511)" style="fill: none; stroke: #b0b0b0; stroke-width: 0.8; stroke-linecap: square"/>
     </g>
     <g id="line2d_26">
      <g>
       <use xlink:href="#mf55c1a0e96" x="224.71603" y="316.83387" style="stroke: #000000; stroke-width: 0.8"/>
      </g>
     </g>
     <g id="text_15">
      <!-- 10 -->
      <g transform="translate(204.99103 320.633089) scale(0.1 -0.1)">
       <use xlink:href="#DejaVuSans-31"/>
       <use xlink:href="#DejaVuSans-30" x="63.623047"/>
      </g>
     </g>
    </g>
    <g id="ytick_4">
     <g id="line2d_27">
      <path d="M 224.71603 216.813091 
L 1069.2 216.813091 
" clip-path="url(#p7c4d358511)" style="fill: none; stroke: #b0b0b0; stroke-width: 0.8; stroke-linecap: square"/>
     </g>
     <g id="line2d_28">
      <g>
       <use xlink:href="#mf55c1a0e96" x="224.71603" y="216.813091" style="stroke: #000000; stroke-width: 0.8"/>
      </g>
     </g>
     <g id="text_16">
      <!-- 15 -->
      <g transform="translate(204.99103 220.61231) scale(0.1 -0.1)">
       <use xlink:href="#DejaVuSans-31"/>
       <use xlink:href="#DejaVuSans-35" x="63.623047"/>
      </g>
     </g>
    </g>
    <g id="ytick_5">
     <g id="line2d_29">
      <path d="M 224.71603 116.792312 
L 1069.2 116.792312 
" clip-path="url(#p7c4d358511)" style="fill: none; stroke: #b0b0b0; stroke-width: 0.8; stroke-linecap: square"/>
     </g>
     <g id="line2d_30">
      <g>
       <use xlink:href="#mf55c1a0e96" x="224.71603" y="116.792312" style="stroke: #000000; stroke-width: 0.8"/>
      </g>
     </g>
     <g id="text_17">
      <!-- 20 -->
      <g transform="translate(204.99103 120.59153) scale(0.1 -0.1)">
       <use xlink:href="#DejaVuSans-32"/>
       <use xlink:href="#DejaVuSans-30" x="63.623047"/>
      </g>
     </g>
    </g>
    <g id="text_18">
     <!-- Time (Decimal) -->
     <g transform="translate(198.911342 320.2725) rotate(-90) scale(0.1 -0.1)">
      <defs>
       <path id="DejaVuSans-54" d="M -19 4666 
L 3928 4666 
L 3928 4134 
L 2272 4134 
L 2272 0 
L 1638 0 
L 1638 4134 
L -19 4134 
L -19 4666 
z
" transform="scale(0.015625)"/>
       <path id="DejaVuSans-28" d="M 1984 4856 
Q 1566 4138 1362 3434 
Q 1159 2731 1159 2009 
Q 1159 1288 1364 580 
Q 1569 -128 1984 -844 
L 1484 -844 
Q 1016 -109 783 600 
Q 550 1309 550 2009 
Q 550 2706 781 3412 
Q 1013 4119 1484 4856 
L 1984 4856 
z
" transform="scale(0.015625)"/>
       <path id="DejaVuSans-63" d="M 3122 3366 
L 3122 2828 
Q 2878 2963 2633 3030 
Q 2388 3097 2138 3097 
Q 1578 3097 1268 2742 
Q 959 2388 959 1747 
Q 959 1106 1268 751 
Q 1578 397 2138 397 
Q 2388 397 2633 464 
Q 2878 531 3122 666 
L 3122 134 
Q 2881 22 2623 -34 
Q 2366 -91 2075 -91 
Q 1284 -91 818 406 
Q 353 903 353 1747 
Q 353 2603 823 3093 
Q 1294 3584 2113 3584 
Q 2378 3584 2631 3529 
Q 2884 3475 3122 3366 
z
" transform="scale(0.015625)"/>
       <path id="DejaVuSans-29" d="M 513 4856 
L 1013 4856 
Q 1481 4119 1714 3412 
Q 1947 2706 1947 2009 
Q 1947 1309 1714 600 
Q 1481 -109 1013 -844 
L 513 -844 
Q 928 -128 1133 580 
Q 1338 1288 1338 2009 
Q 1338 2731 1133 3434 
Q 928 4138 513 4856 
z
" transform="scale(0.015625)"/>
      </defs>
      <use xlink:href="#DejaVuSans-54"/>
      <use xlink:href="#DejaVuSans-69" x="57.958984"/>
      <use xlink:href="#DejaVuSans-6d" x="85.742188"/>
      <use xlink:href="#DejaVuSans-65" x="183.154297"/>
      <use xlink:href="#DejaVuSans-20" x="244.677734"/>
      <use xlink:href="#DejaVuSans-28" x="276.464844"/>
      <use xlink:href="#DejaVuSans-44" x="315.478516"/>
      <use xlink:href="#DejaVuSans-65" x="392.480469"/>
      <use xlink:href="#DejaVuSans-63" x="454.003906"/>
      <use xlink:href="#DejaVuSans-69" x="508.984375"/>
      <use xlink:href="#DejaVuSans-6d" x="536.767578"/>
      <use xlink:href="#DejaVuSans-61" x="634.179688"/>
      <use xlink:href="#DejaVuSans-6c" x="695.458984"/>
      <use xlink:href="#DejaVuSans-29" x="723.242188"/>
     </g>
    </g>
   </g>
   <g id="line2d_31">
    <defs>
     <path id="md3f5894f40" d="M -5 0 
L 5 0 
M 0 5 
L 0 -5 
" style="stroke: #808080"/>
    </defs>
    <g clip-path="url(#p7c4d358511)">
     <use xlink:href="#md3f5894f40" x="634.668462" y="229.24558" style="fill: #808080; stroke: #808080"/>
    </g>
   </g>
   <g id="line2d_32">
    <path d="M 634.668462 538.88 
L 634.668462 25.44 
" clip-path="url(#p7c4d358511)" style="fill: none; stroke-dasharray: 5.55,2.4; stroke-dashoffset: 0; stroke: #808080; stroke-width: 1.5"/>
   </g>
   <g id="line2d_33">
    <path d="M 224.71603 229.24558 
L 1069.2 229.24558 
" clip-path="url(#p7c4d358511)" style="fill: none; stroke-dasharray: 5.55,2.4; stroke-dashoffset: 0; stroke: #808080; stroke-width: 1.5"/>
   </g>
   <g id="patch_20">
    <path d="M 224.71603 538.88 
L 224.71603 25.44 
" style="fill: none; stroke: #000000; stroke-width: 0.8; stroke-linejoin: miter; stroke-linecap: square"/>
   </g>
   <g id="patch_21">
    <path d="M 1069.2 538.88 
L 1069.2 25.44 
" style="fill: none; stroke: #000000; stroke-width: 0.8; stroke-linejoin: miter; stroke-linecap: square"/>
   </g>
   <g id="patch_22">
    <path d="M 224.71603 538.88 
L 1069.2 538.88 
" style="fill: none; stroke: #000000; stroke-width: 0.8; stroke-linejoin: miter; stroke-linecap: square"/>
   </g>
   <g id="patch_23">
    <path d="M 224.71603 25.44 
L 1069.2 25.44 
" style="fill: none; stroke: #000000; stroke-width: 0.8; stroke-linejoin: miter; stroke-linecap: square"/>
   </g>
   <g id="text_19">
    <!-- Historic Breakup (with density estimates) and 2025 Predictions -->
    <g transform="translate(457.70864 19.44) scale(0.12 -0.12)">
     <defs>
      <path id="DejaVuSans-42" d="M 1259 2228 
L 1259 519 
L 2272 519 
Q 2781 519 3026 730 
Q 3272 941 3272 1375 
Q 3272 1813 3026 2020 
Q 2781 2228 2272 2228 
L 1259 2228 
z
M 1259 4147 
L 1259 2741 
L 2194 2741 
Q 2656 2741 2882 2914 
Q 3109 3088 3109 3444 
Q 3109 3797 2882 3972 
Q 2656 4147 2194 4147 
L 1259 4147 
z
M 628 4666 
L 2241 4666 
Q 2963 4666 3353 4366 
Q 3744 4066 3744 3513 
Q 3744 3084 3544 2831 
Q 3344 2578 2956 2516 
Q 3422 2416 3680 2098 
Q 3938 1781 3938 1306 
Q 3938 681 3513 340 
Q 3088 0 2303 0 
L 628 0 
L 628 4666 
z
" transform="scale(0.015625)"/>
      <path id="DejaVuSans-6b" d="M 581 4863 
L 1159 4863 
L 1159 1991 
L 2875 3500 
L 3609 3500 
L 1753 1863 
L 3688 0 
L 2938 0 
L 1159 1709 
L 1159 0 
L 581 0 
L 581 4863 
z
" transform="scale(0.015625)"/>
      <path id="DejaVuSans-75" d="M 544 1381 
L 544 3500 
L 1119 3500 
L 1119 1403 
Q 1119 906 1312 657 
Q 1506 409 1894 409 
Q 2359 409 2629 706 
Q 2900 1003 2900 1516 
L 2900 3500 
L 3475 3500 
L 3475 0 
L 2900 0 
L 2900 538 
Q 2691 219 2414 64 
Q 2138 -91 1772 -91 
Q 1169 -91 856 284 
Q 544 659 544 1381 
z
M 1991 3584 
L 1991 3584 
z
" transform="scale(0.015625)"/>
      <path id="DejaVuSans-70" d="M 1159 525 
L 1159 -1331 
L 581 -1331 
L 581 3500 
L 1159 3500 
L 1159 2969 
Q 1341 3281 1617 3432 
Q 1894 3584 2278 3584 
Q 2916 3584 3314 3078 
Q 3713 2572 3713 1747 
Q 3713 922 3314 415 
Q 2916 -91 2278 -91 
Q 1894 -91 1617 61 
Q 1341 213 1159 525 
z
M 3116 1747 
Q 3116 2381 2855 2742 
Q 2594 3103 2138 3103 
Q 1681 3103 1420 2742 
Q 1159 2381 1159 1747 
Q 1159 1113 1420 752 
Q 1681 391 2138 391 
Q 2594 391 2855 752 
Q 3116 1113 3116 1747 
z
" transform="scale(0.015625)"/>
      <path id="DejaVuSans-77" d="M 269 3500 
L 844 3500 
L 1563 769 
L 2278 3500 
L 2956 3500 
L 3675 769 
L 4391 3500 
L 4966 3500 
L 4050 0 
L 3372 0 
L 2619 2869 
L 1863 0 
L 1184 0 
L 269 3500 
z
" transform="scale(0.015625)"/>
      <path id="DejaVuSans-68" d="M 3513 2113 
L 3513 0 
L 2938 0 
L 2938 2094 
Q 2938 2591 2744 2837 
Q 2550 3084 2163 3084 
Q 1697 3084 1428 2787 
Q 1159 2491 1159 1978 
L 1159 0 
L 581 0 
L 581 4863 
L 1159 4863 
L 1159 2956 
Q 1366 3272 1645 3428 
Q 1925 3584 2291 3584 
Q 2894 3584 3203 3211 
Q 3513 2838 3513 2113 
z
" transform="scale(0.015625)"/>
      <path id="DejaVuSans-64" d="M 2906 2969 
L 2906 4863 
L 3481 4863 
L 3481 0 
L 2906 0 
L 2906 525 
Q 2725 213 2448 61 
Q 2172 -91 1784 -91 
Q 1150 -91 751 415 
Q 353 922 353 1747 
Q 353 2572 751 3078 
Q 1150 3584 1784 3584 
Q 2172 3584 2448 3432 
Q 2725 3281 2906 2969 
z
M 947 1747 
Q 947 1113 1208 752 
Q 1469 391 1925 391 
Q 2381 391 2643 752 
Q 2906 1113 2906 1747 
Q 2906 2381 2643 2742 
Q 2381 3103 1925 3103 
Q 1469 3103 1208 2742 
Q 947 2381 947 1747 
z
" transform="scale(0.015625)"/>
      <path id="DejaVuSans-6e" d="M 3513 2113 
L 3513 0 
L 2938 0 
L 2938 2094 
Q 2938 2591 2744 2837 
Q 2550 3084 2163 3084 
Q 1697 3084 1428 2787 
Q 1159 2491 1159 1978 
L 1159 0 
L 581 0 
L 581 3500 
L 1159 3500 
L 1159 2956 
Q 1366 3272 1645 3428 
Q 1925 3584 2291 3584 
Q 2894 3584 3203 3211 
Q 3513 2838 3513 2113 
z
" transform="scale(0.015625)"/>
      <path id="DejaVuSans-50" d="M 1259 4147 
L 1259 2394 
L 2053 2394 
Q 2494 2394 2734 2622 
Q 2975 2850 2975 3272 
Q 2975 3691 2734 3919 
Q 2494 4147 2053 4147 
L 1259 4147 
z
M 628 4666 
L 2053 4666 
Q 2838 4666 3239 4311 
Q 3641 3956 3641 3272 
Q 3641 2581 3239 2228 
Q 2838 1875 2053 1875 
L 1259 1875 
L 1259 0 
L 628 0 
L 628 4666 
z
" transform="scale(0.015625)"/>
     </defs>
     <use xlink:href="#DejaVuSans-48"/>
     <use xlink:href="#DejaVuSans-69" x="75.195312"/>
     <use xlink:href="#DejaVuSans-73" x="102.978516"/>
     <use xlink:href="#DejaVuSans-74" x="155.078125"/>
     <use xlink:href="#DejaVuSans-6f" x="194.287109"/>
     <use xlink:href="#DejaVuSans-72" x="255.46875"/>
     <use xlink:href="#DejaVuSans-69" x="296.582031"/>
     <use xlink:href="#DejaVuSans-63" x="324.365234"/>
     <use xlink:href="#DejaVuSans-20" x="379.345703"/>
     <use xlink:href="#DejaVuSans-42" x="411.132812"/>
     <use xlink:href="#DejaVuSans-72" x="479.736328"/>
     <use xlink:href="#DejaVuSans-65" x="518.599609"/>
     <use xlink:href="#DejaVuSans-61" x="580.123047"/>
     <use xlink:href="#DejaVuSans-6b" x="641.402344"/>
     <use xlink:href="#DejaVuSans-75" x="696.1875"/>
     <use xlink:href="#DejaVuSans-70" x="759.566406"/>
     <use xlink:href="#DejaVuSans-20" x="823.042969"/>
     <use xlink:href="#DejaVuSans-28" x="854.830078"/>
     <use xlink:href="#DejaVuSans-77" x="893.84375"/>
     <use xlink:href="#DejaVuSans-69" x="975.630859"/>
     <use xlink:href="#DejaVuSans-74" x="1003.414062"/>
     <use xlink:href="#DejaVuSans-68" x="1042.623047"/>
     <use xlink:href="#DejaVuSans-20" x="1106.001953"/>
     <use xlink:href="#DejaVuSans-64" x="1137.789062"/>
     <use xlink:href="#DejaVuSans-65" x="1201.265625"/>
     <use xlink:href="#DejaVuSans-6e" x="1262.789062"/>
     <use xlink:href="#DejaVuSans-73" x="1326.167969"/>
     <use xlink:href="#DejaVuSans-69" x="1378.267578"/>
     <use xlink:href="#DejaVuSans-74" x="1406.050781"/>
     <use xlink:href="#DejaVuSans-79" x="1445.259766"/>
     <use xlink:href="#DejaVuSans-20" x="1504.439453"/>
     <use xlink:href="#DejaVuSans-65" x="1536.226562"/>
     <use xlink:href="#DejaVuSans-73" x="1597.75"/>
     <use xlink:href="#DejaVuSans-74" x="1649.849609"/>
     <use xlink:href="#DejaVuSans-69" x="1689.058594"/>
     <use xlink:href="#DejaVuSans-6d" x="1716.841797"/>
     <use xlink:href="#DejaVuSans-61" x="1814.253906"/>
     <use xlink:href="#DejaVuSans-74" x="1875.533203"/>
     <use xlink:href="#DejaVuSans-65" x="1914.742188"/>
     <use xlink:href="#DejaVuSans-73" x="1976.265625"/>
     <use xlink:href="#DejaVuSans-29" x="2028.365234"/>
     <use xlink:href="#DejaVuSans-20" x="2067.378906"/>
     <use xlink:href="#DejaVuSans-61" x="2099.166016"/>
     <use xlink:href="#DejaVuSans-6e" x="2160.445312"/>
     <use xlink:href="#DejaVuSans-64" x="2223.824219"/>
     <use xlink:href="#DejaVuSans-20" x="2287.300781"/>
     <use xlink:href="#DejaVuSans-32" x="2319.087891"/>
     <use xlink:href="#DejaVuSans-30" x="2382.710938"/>
     <use xlink:href="#DejaVuSans-32" x="2446.333984"/>
     <use xlink:href="#DejaVuSans-35" x="2509.957031"/>
     <use xlink:href="#DejaVuSans-20" x="2573.580078"/>
     <use xlink:href="#DejaVuSans-50" x="2605.367188"/>
     <use xlink:href="#DejaVuSans-72" x="2663.919922"/>
     <use xlink:href="#DejaVuSans-65" x="2702.783203"/>
     <use xlink:href="#DejaVuSans-64" x="2764.306641"/>
     <use xlink:href="#DejaVuSans-69" x="2827.783203"/>
     <use xlink:href="#DejaVuSans-63" x="2855.566406"/>
     <use xlink:href="#DejaVuSans-74" x="2910.546875"/>
     <use xlink:href="#DejaVuSans-69" x="2949.755859"/>
     <use xlink:href="#DejaVuSans-6f" x="2977.539062"/>
     <use xlink:href="#DejaVuSans-6e" x="3038.720703"/>
     <use xlink:href="#DejaVuSans-73" x="3102.099609"/>
    </g>
   </g>
   <g id="legend_2">
    <g id="patch_24">
     <path d="M 946.689062 62.79625 
L 1062.2 62.79625 
Q 1064.2 62.79625 1064.2 60.79625 
L 1064.2 32.44 
Q 1064.2 30.44 1062.2 30.44 
L 946.689062 30.44 
Q 944.689062 30.44 944.689062 32.44 
L 944.689062 60.79625 
Q 944.689062 62.79625 946.689062 62.79625 
z
" style="fill: #ffffff; opacity: 0.8; stroke: #cccccc; stroke-linejoin: miter"/>
    </g>
    <g id="PathCollection_3">
     <g>
      <use xlink:href="#m317890c44d" x="958.689062" y="39.413438" style="fill: #ff0000; stroke: #000000"/>
     </g>
    </g>
    <g id="text_20">
     <!-- 2025 Predictions -->
     <g transform="translate(976.689062 42.038438) scale(0.1 -0.1)">
      <use xlink:href="#DejaVuSans-32"/>
      <use xlink:href="#DejaVuSans-30" x="63.623047"/>
      <use xlink:href="#DejaVuSans-32" x="127.246094"/>
      <use xlink:href="#DejaVuSans-35" x="190.869141"/>
      <use xlink:href="#DejaVuSans-20" x="254.492188"/>
      <use xlink:href="#DejaVuSans-50" x="286.279297"/>
      <use xlink:href="#DejaVuSans-72" x="344.832031"/>
      <use xlink:href="#DejaVuSans-65" x="383.695312"/>
      <use xlink:href="#DejaVuSans-64" x="445.21875"/>
      <use xlink:href="#DejaVuSans-69" x="508.695312"/>
      <use xlink:href="#DejaVuSans-63" x="536.478516"/>
      <use xlink:href="#DejaVuSans-74" x="591.458984"/>
      <use xlink:href="#DejaVuSans-69" x="630.667969"/>
      <use xlink:href="#DejaVuSans-6f" x="658.451172"/>
      <use xlink:href="#DejaVuSans-6e" x="719.632812"/>
      <use xlink:href="#DejaVuSans-73" x="783.011719"/>
     </g>
    </g>
    <g id="PathCollection_4">
     <g>
      <use xlink:href="#m1e54d019c5" x="958.689062" y="54.091563" style="fill: #808080; stroke: #000000"/>
     </g>
    </g>
    <g id="text_21">
     <!-- Historic Breakup -->
     <g transform="translate(976.689062 56.716563) scale(0.1 -0.1)">
      <use xlink:href="#DejaVuSans-48"/>
      <use xlink:href="#DejaVuSans-69" x="75.195312"/>
      <use xlink:href="#DejaVuSans-73" x="102.978516"/>
      <use xlink:href="#DejaVuSans-74" x="155.078125"/>
      <use xlink:href="#DejaVuSans-6f" x="194.287109"/>
      <use xlink:href="#DejaVuSans-72" x="255.46875"/>
      <use xlink:href="#DejaVuSans-69" x="296.582031"/>
      <use xlink:href="#DejaVuSans-63" x="324.365234"/>
      <use xlink:href="#DejaVuSans-20" x="379.345703"/>
      <use xlink:href="#DejaVuSans-42" x="411.132812"/>
      <use xlink:href="#DejaVuSans-72" x="479.736328"/>
      <use xlink:href="#DejaVuSans-65" x="518.599609"/>
      <use xlink:href="#DejaVuSans-61" x="580.123047"/>
      <use xlink:href="#DejaVuSans-6b" x="641.402344"/>
      <use xlink:href="#DejaVuSans-75" x="696.1875"/>
      <use xlink:href="#DejaVuSans-70" x="759.566406"/>
     </g>
    </g>
   </g>
  </g>
  <g id="axes_3"/>
  <g id="axes_4">
   <g id="patch_25">
    <path d="M 224.71603 709.2 
L 1069.2 709.2 
L 1069.2 580.84 
L 224.71603 580.84 
z
" style="fill: #ffffff"/>
   </g>
   <g id="patch_26">
    <path d="M 393.612824 580.84 
L 434.191924 580.84 
L 434.191924 586.335667 
L 393.612824 586.335667 
z
" clip-path="url(#p4ab5ce9056)" style="fill: #808080; opacity: 0.5"/>
   </g>
   <g id="patch_27">
    <path d="M 434.191924 580.84 
L 474.771023 580.84 
L 474.771023 586.335667 
L 434.191924 586.335667 
z
" clip-path="url(#p4ab5ce9056)" style="fill: #808080; opacity: 0.5"/>
   </g>
   <g id="patch_28">
    <path d="M 474.771023 580.84 
L 515.350123 580.84 
L 515.350123 613.814 
L 474.771023 613.814 
z
" clip-path="url(#p4ab5ce9056)" style="fill: #808080; opacity: 0.5"/>
   </g>
   <g id="patch_29">
    <path d="M 515.350123 580.84 
L 555.929223 580.84 
L 555.929223 608.318334 
L 515.350123 608.318334 
z
" clip-path="url(#p4ab5ce9056)" style="fill: #808080; opacity: 0.5"/>
   </g>
   <g id="patch_30">
    <path d="M 555.929223 580.84 
L 596.508323 580.84 
L 596.508323 701.744668 
L 555.929223 701.744668 
z
" clip-path="url(#p4ab5ce9056)" style="fill: #808080; opacity: 0.5"/>
   </g>
   <g id="patch_31">
    <path d="M 596.508323 580.84 
L 637.087423 580.84 
L 637.087423 696.249001 
L 596.508323 696.249001 
z
" clip-path="url(#p4ab5ce9056)" style="fill: #808080; opacity: 0.5"/>
   </g>
   <g id="patch_32">
    <path d="M 637.087423 580.84 
L 677.666523 580.84 
L 677.666523 679.762001 
L 637.087423 679.762001 
z
" clip-path="url(#p4ab5ce9056)" style="fill: #808080; opacity: 0.5"/>
   </g>
   <g id="patch_33">
    <path d="M 677.666523 580.84 
L 718.245623 580.84 
L 718.245623 663.275001 
L 677.666523 663.275001 
z
" clip-path="url(#p4ab5ce9056)" style="fill: #808080; opacity: 0.5"/>
   </g>
   <g id="patch_34">
    <path d="M 718.245623 580.84 
L 758.824723 580.84 
L 758.824723 652.283667 
L 718.245623 652.283667 
z
" clip-path="url(#p4ab5ce9056)" style="fill: #808080; opacity: 0.5"/>
   </g>
   <g id="patch_35">
    <path d="M 758.824723 580.84 
L 799.403822 580.84 
L 799.403822 597.327 
L 758.824723 597.327 
z
" clip-path="url(#p4ab5ce9056)" style="fill: #808080; opacity: 0.5"/>
   </g>
   <g id="patch_36">
    <path d="M 799.403822 580.84 
L 839.982922 580.84 
L 839.982922 591.831333 
L 799.403822 591.831333 
z
" clip-path="url(#p4ab5ce9056)" style="fill: #808080; opacity: 0.5"/>
   </g>
   <g id="matplotlib.axis_5"/>
   <g id="matplotlib.axis_6">
    <g id="text_22">
     <!-- Density -->
     <g transform="translate(218.636342 664.028594) rotate(-90) scale(0.1 -0.1)">
      <use xlink:href="#DejaVuSans-44"/>
      <use xlink:href="#DejaVuSans-65" x="77.001953"/>
      <use xlink:href="#DejaVuSans-6e" x="138.525391"/>
      <use xlink:href="#DejaVuSans-73" x="201.904297"/>
      <use xlink:href="#DejaVuSans-69" x="254.003906"/>
      <use xlink:href="#DejaVuSans-74" x="281.787109"/>
      <use xlink:href="#DejaVuSans-79" x="320.996094"/>
     </g>
    </g>
   </g>
   <g id="line2d_34">
    <path d="M 393.612824 581.854741 
L 405.241704 582.433246 
L 415.081526 583.133523 
L 424.026818 583.990083 
L 432.077582 584.984374 
L 439.233816 586.081569 
L 446.39005 587.413487 
L 452.651755 588.798473 
L 458.913459 590.413163 
L 465.175164 592.281236 
L 470.54234 594.101592 
L 475.909515 596.138724 
L 481.276691 598.40514 
L 486.643866 600.91173 
L 492.011042 603.667315 
L 497.378217 606.678166 
L 502.745393 609.947531 
L 508.112568 613.475169 
L 513.479744 617.256917 
L 518.84692 621.2843 
L 525.108624 626.275593 
L 531.370329 631.553882 
L 538.526563 637.887623 
L 546.577326 645.309282 
L 560.889795 658.880116 
L 571.624146 668.927352 
L 578.78038 675.331442 
L 585.042084 680.622122 
L 590.40926 684.855449 
L 594.881906 688.13004 
L 599.354553 691.143223 
L 603.827199 693.867529 
L 607.405316 695.821897 
L 610.983433 697.563349 
L 614.56155 699.081258 
L 618.139667 700.366273 
L 621.717784 701.410412 
L 625.295901 702.207147 
L 628.874018 702.751472 
L 632.452135 703.039953 
L 636.030252 703.070767 
L 639.608369 702.843718 
L 643.186486 702.360242 
L 646.764603 701.623392 
L 650.34272 700.637801 
L 653.920837 699.409641 
L 657.498954 697.946552 
L 661.077071 696.257568 
L 664.655188 694.353019 
L 669.127835 691.686857 
L 673.600481 688.726804 
L 678.073127 685.499948 
L 683.440303 681.316359 
L 688.807478 676.842842 
L 695.069183 671.329883 
L 703.119946 663.911357 
L 719.221473 648.639645 
L 729.061295 639.477008 
L 737.112058 632.294446 
L 743.373763 626.979776 
L 749.635468 621.947385 
L 755.897172 617.227817 
L 761.264348 613.447936 
L 766.631523 609.922212 
L 771.998699 606.654777 
L 777.365874 603.645845 
L 782.73305 600.892141 
L 788.100226 598.387376 
L 793.467401 596.122712 
L 798.834577 594.087243 
L 804.201752 592.268451 
L 810.463457 590.402071 
L 816.725162 588.788924 
L 822.986866 587.405329 
L 830.143101 586.074816 
L 837.299335 584.978839 
L 839.982922 584.621589 
L 839.982922 584.621589 
" clip-path="url(#p4ab5ce9056)" style="fill: none; stroke: #0000ff; stroke-width: 1.5; stroke-linecap: square"/>
   </g>
   <g id="line2d_35">
    <path d="M 170.427774 580.84 
L 314.302821 580.943557 
L 330.38823 581.188849 
L 343.792738 581.619102 
L 357.197245 582.281403 
L 384.899894 583.743238 
L 396.517134 584.048944 
L 422.432515 584.584959 
L 429.581585 585.05998 
L 435.837022 585.71304 
L 441.198825 586.479607 
L 446.560628 587.454233 
L 451.922431 588.646669 
L 457.284234 590.061652 
L 462.646037 591.700075 
L 468.00784 593.559713 
L 473.369643 595.635451 
L 479.62508 598.319493 
L 485.880517 601.270166 
L 492.135954 604.470529 
L 498.39139 607.911215 
L 504.646827 611.601579 
L 510.00863 614.991982 
L 515.370433 618.63851 
L 519.838602 621.916655 
L 524.306772 625.45505 
L 528.774941 629.292308 
L 533.24311 633.458484 
L 537.711279 637.967368 
L 542.179448 642.809211 
L 547.541251 649.00189 
L 554.690322 657.684284 
L 563.62666 668.530604 
L 568.094829 673.614829 
L 571.669365 677.382211 
L 575.2439 680.807683 
L 577.924801 683.117078 
L 580.605703 685.182103 
L 583.286604 686.988788 
L 585.967506 688.528797 
L 588.648407 689.799639 
L 591.329309 690.804646 
L 594.01021 691.552734 
L 596.691112 692.057965 
L 599.372013 692.338917 
L 602.052915 692.417911 
L 605.62745 692.25287 
L 609.201985 691.838162 
L 613.670155 691.069335 
L 620.819225 689.544331 
L 630.649197 687.470311 
L 636.904634 686.37669 
L 644.947339 685.218301 
L 656.564579 683.5516 
L 661.926382 682.53686 
L 666.394551 681.478713 
L 670.86272 680.187318 
L 675.330889 678.64064 
L 679.799058 676.831667 
L 684.267227 674.766868 
L 688.735396 672.463322 
L 694.097199 669.417994 
L 699.459002 666.110219 
L 705.714439 661.978255 
L 712.86351 656.963057 
L 720.012581 651.684639 
L 728.055285 645.465762 
L 736.991623 638.248054 
L 749.502497 627.790625 
L 761.119737 618.152023 
L 767.375174 613.216729 
L 772.736977 609.235279 
L 778.09878 605.551313 
L 782.566949 602.748245 
L 787.035118 600.21384 
L 791.503287 597.963477 
L 795.971456 596.002624 
L 800.439625 594.326174 
L 804.907794 592.918512 
L 809.375964 591.754425 
L 813.844133 590.800829 
L 819.205936 589.87992 
L 826.355006 588.915033 
L 838.86588 587.529126 
L 854.057655 585.777182 
L 876.398501 583.143259 
L 886.228473 582.262601 
L 895.164811 581.685128 
L 904.994784 581.274405 
L 916.612023 581.014323 
L 933.591066 580.875798 
L 974.698222 580.840226 
L 1063.167972 580.84 
L 1063.167972 580.84 
" clip-path="url(#p4ab5ce9056)" style="fill: none; stroke: #ff0000; stroke-opacity: 0.3; stroke-width: 1.5; stroke-linecap: square"/>
   </g>
   <g id="patch_37">
    <path d="M 224.71603 709.2 
L 224.71603 580.84 
" style="fill: none; stroke: #000000; stroke-width: 0.8; stroke-linejoin: miter; stroke-linecap: square"/>
   </g>
   <g id="patch_38">
    <path d="M 1069.2 709.2 
L 1069.2 580.84 
" style="fill: none; stroke: #000000; stroke-width: 0.8; stroke-linejoin: miter; stroke-linecap: square"/>
   </g>
   <g id="patch_39">
    <path d="M 224.71603 709.2 
L 1069.2 709.2 
" style="fill: none; stroke: #000000; stroke-width: 0.8; stroke-linejoin: miter; stroke-linecap: square"/>
   </g>
   <g id="patch_40">
    <path d="M 224.71603 580.84 
L 1069.2 580.84 
" style="fill: none; stroke: #000000; stroke-width: 0.8; stroke-linejoin: miter; stroke-linecap: square"/>
   </g>
   <g id="legend_3">
    <g id="patch_41">
     <path d="M 933.892187 632.874375 
L 1062.2 632.874375 
Q 1064.2 632.874375 1064.2 630.874375 
L 1064.2 587.84 
Q 1064.2 585.84 1062.2 585.84 
L 933.892187 585.84 
Q 931.892187 585.84 931.892187 587.84 
L 931.892187 630.874375 
Q 931.892187 632.874375 933.892187 632.874375 
z
" style="fill: #ffffff; opacity: 0.8; stroke: #cccccc; stroke-linejoin: miter"/>
    </g>
    <g id="patch_42">
     <path d="M 935.892187 597.438437 
L 955.892187 597.438437 
L 955.892187 590.438437 
L 935.892187 590.438437 
z
" style="fill: #808080; opacity: 0.5"/>
    </g>
    <g id="text_23">
     <!-- Histogram -->
     <g transform="translate(963.892187 597.438437) scale(0.1 -0.1)">
      <use xlink:href="#DejaVuSans-48"/>
      <use xlink:href="#DejaVuSans-69" x="75.195312"/>
      <use xlink:href="#DejaVuSans-73" x="102.978516"/>
      <use xlink:href="#DejaVuSans-74" x="155.078125"/>
      <use xlink:href="#DejaVuSans-6f" x="194.287109"/>
      <use xlink:href="#DejaVuSans-67" x="255.46875"/>
      <use xlink:href="#DejaVuSans-72" x="318.945312"/>
      <use xlink:href="#DejaVuSans-61" x="360.058594"/>
      <use xlink:href="#DejaVuSans-6d" x="421.337891"/>
     </g>
    </g>
    <g id="line2d_36">
     <path d="M 935.892187 608.616562 
L 945.892187 608.616562 
L 955.892187 608.616562 
" style="fill: none; stroke: #0000ff; stroke-width: 1.5; stroke-linecap: square"/>
    </g>
    <g id="text_24">
     <!-- Norm mle estimate -->
     <g transform="translate(963.892187 612.116562) scale(0.1 -0.1)">
      <use xlink:href="#DejaVuSans-4e"/>
      <use xlink:href="#DejaVuSans-6f" x="74.804688"/>
      <use xlink:href="#DejaVuSans-72" x="135.986328"/>
      <use xlink:href="#DejaVuSans-6d" x="175.349609"/>
      <use xlink:href="#DejaVuSans-20" x="272.761719"/>
      <use xlink:href="#DejaVuSans-6d" x="304.548828"/>
      <use xlink:href="#DejaVuSans-6c" x="401.960938"/>
      <use xlink:href="#DejaVuSans-65" x="429.744141"/>
      <use xlink:href="#DejaVuSans-20" x="491.267578"/>
      <use xlink:href="#DejaVuSans-65" x="523.054688"/>
      <use xlink:href="#DejaVuSans-73" x="584.578125"/>
      <use xlink:href="#DejaVuSans-74" x="636.677734"/>
      <use xlink:href="#DejaVuSans-69" x="675.886719"/>
      <use xlink:href="#DejaVuSans-6d" x="703.669922"/>
      <use xlink:href="#DejaVuSans-61" x="801.082031"/>
      <use xlink:href="#DejaVuSans-74" x="862.361328"/>
      <use xlink:href="#DejaVuSans-65" x="901.570312"/>
     </g>
    </g>
    <g id="line2d_37">
     <path d="M 935.892187 623.294688 
L 945.892187 623.294688 
L 955.892187 623.294688 
" style="fill: none; stroke: #ff0000; stroke-opacity: 0.3; stroke-width: 1.5; stroke-linecap: square"/>
    </g>
    <g id="text_25">
     <!-- KDE estimate -->
     <g transform="translate(963.892187 626.794688) scale(0.1 -0.1)">
      <use xlink:href="#DejaVuSans-4b"/>
      <use xlink:href="#DejaVuSans-44" x="65.576172"/>
      <use xlink:href="#DejaVuSans-45" x="142.578125"/>
      <use xlink:href="#DejaVuSans-20" x="205.761719"/>
      <use xlink:href="#DejaVuSans-65" x="237.548828"/>
      <use xlink:href="#DejaVuSans-73" x="299.072266"/>
      <use xlink:href="#DejaVuSans-74" x="351.171875"/>
      <use xlink:href="#DejaVuSans-69" x="390.380859"/>
      <use xlink:href="#DejaVuSans-6d" x="418.164062"/>
      <use xlink:href="#DejaVuSans-61" x="515.576172"/>
      <use xlink:href="#DejaVuSans-74" x="576.855469"/>
      <use xlink:href="#DejaVuSans-65" x="616.064453"/>
     </g>
    </g>
   </g>
  </g>
 </g>
 <defs>
  <clipPath id="p9685223947">
   <rect x="39.308701" y="25.44" width="140.747328" height="513.44"/>
  </clipPath>
  <clipPath id="p7c4d358511">
   <rect x="224.71603" y="25.44" width="844.48397" height="513.44"/>
  </clipPath>
  <clipPath id="p4ab5ce9056">
   <rect x="224.71603" y="580.84" width="844.48397" height="128.36"/>
  </clipPath>
 </defs>
</svg>
