<?xml version="1.0" encoding="utf-8" standalone="no"?>
<!DOCTYPE svg PUBLIC "-//W3C//DTD SVG 1.1//EN"
  "http://www.w3.org/Graphics/SVG/1.1/DTD/svg11.dtd">
<svg xmlns:xlink="http://www.w3.org/1999/xlink" width="460.8pt" height="345.6pt" viewBox="0 0 460.8 345.6" xmlns="http://www.w3.org/2000/svg" version="1.1">
 <metadata>
  <rdf:RDF xmlns:dc="http://purl.org/dc/elements/1.1/" xmlns:cc="http://creativecommons.org/ns#" xmlns:rdf="http://www.w3.org/1999/02/22-rdf-syntax-ns#">
   <cc:Work>
    <dc:type rdf:resource="http://purl.org/dc/dcmitype/StillImage"/>
    <dc:date>2024-10-25T13:48:35.665939</dc:date>
    <dc:format>image/svg+xml</dc:format>
    <dc:creator>
     <cc:Agent>
      <dc:title>Matplotlib v3.9.2, https://matplotlib.org/</dc:title>
     </cc:Agent>
    </dc:creator>
   </cc:Work>
  </rdf:RDF>
 </metadata>
 <defs>
  <style type="text/css">*{stroke-linejoin: round; stroke-linecap: butt}</style>
 </defs>
 <g id="figure_1">
  <g id="patch_1">
   <path d="M 0 345.6 
L 460.8 345.6 
L 460.8 0 
L 0 0 
z
" style="fill: #ffffff"/>
  </g>
  <g id="axes_1">
   <g id="patch_2">
    <path d="M 172.29312 307.584 
L 300.02688 307.584 
L 300.02688 41.472 
L 172.29312 41.472 
z
" style="fill: #ffffff"/>
   </g>
   <g id="PathCollection_1">
    <defs>
     <path id="C0_0_c8ffcca201" d="M 0 1.581139 
C 0.419323 1.581139 0.821528 1.41454 1.118034 1.118034 
C 1.41454 0.821528 1.581139 0.419323 1.581139 -0 
C 1.581139 -0.419323 1.41454 -0.821528 1.118034 -1.118034 
C 0.821528 -1.41454 0.419323 -1.581139 0 -1.581139 
C -0.419323 -1.581139 -0.821528 -1.41454 -1.118034 -1.118034 
C -1.41454 -0.821528 -1.581139 -0.419323 -1.581139 0 
C -1.581139 0.419323 -1.41454 0.821528 -1.118034 1.118034 
C -0.821528 1.41454 -0.419323 1.581139 0 1.581139 
z
"/>
    </defs>
   </g>
   <g id="matplotlib.axis_1">
    <g id="xtick_1">
     <g id="line2d_1">
      <defs>
       <path id="m74ce7722d4" d="M 0 0 
L 0 3.5 
" style="stroke: #000000; stroke-width: 0.8"/>
      </defs>
      <g>
       <use xlink:href="#m74ce7722d4" x="172.29312" y="307.584" style="stroke: #000000; stroke-width: 0.8"/>
      </g>
     </g>
     <g id="text_1">
      <!-- 0 -->
      <g transform="translate(169.11187 322.182437) scale(0.1 -0.1)">
       <defs>
        <path id="DejaVuSans-30" d="M 2034 4250 
Q 1547 4250 1301 3770 
Q 1056 3291 1056 2328 
Q 1056 1369 1301 889 
Q 1547 409 2034 409 
Q 2525 409 2770 889 
Q 3016 1369 3016 2328 
Q 3016 3291 2770 3770 
Q 2525 4250 2034 4250 
z
M 2034 4750 
Q 2819 4750 3233 4129 
Q 3647 3509 3647 2328 
Q 3647 1150 3233 529 
Q 2819 -91 2034 -91 
Q 1250 -91 836 529 
Q 422 1150 422 2328 
Q 422 3509 836 4129 
Q 1250 4750 2034 4750 
z
" transform="scale(0.015625)"/>
       </defs>
       <use xlink:href="#DejaVuSans-30"/>
      </g>
     </g>
    </g>
    <g id="xtick_2">
     <g id="line2d_2">
      <g>
       <use xlink:href="#m74ce7722d4" x="225.51552" y="307.584" style="stroke: #000000; stroke-width: 0.8"/>
      </g>
     </g>
     <g id="text_2">
      <!-- 5 -->
      <g transform="translate(222.33427 322.182437) scale(0.1 -0.1)">
       <defs>
        <path id="DejaVuSans-35" d="M 691 4666 
L 3169 4666 
L 3169 4134 
L 1269 4134 
L 1269 2991 
Q 1406 3038 1543 3061 
Q 1681 3084 1819 3084 
Q 2600 3084 3056 2656 
Q 3513 2228 3513 1497 
Q 3513 744 3044 326 
Q 2575 -91 1722 -91 
Q 1428 -91 1123 -41 
Q 819 9 494 109 
L 494 744 
Q 775 591 1075 516 
Q 1375 441 1709 441 
Q 2250 441 2565 725 
Q 2881 1009 2881 1497 
Q 2881 1984 2565 2268 
Q 2250 2553 1709 2553 
Q 1456 2553 1204 2497 
Q 953 2441 691 2322 
L 691 4666 
z
" transform="scale(0.015625)"/>
       </defs>
       <use xlink:href="#DejaVuSans-35"/>
      </g>
     </g>
    </g>
    <g id="xtick_3">
     <g id="line2d_3">
      <g>
       <use xlink:href="#m74ce7722d4" x="278.73792" y="307.584" style="stroke: #000000; stroke-width: 0.8"/>
      </g>
     </g>
     <g id="text_3">
      <!-- 10 -->
      <g transform="translate(272.37542 322.182437) scale(0.1 -0.1)">
       <defs>
        <path id="DejaVuSans-31" d="M 794 531 
L 1825 531 
L 1825 4091 
L 703 3866 
L 703 4441 
L 1819 4666 
L 2450 4666 
L 2450 531 
L 3481 531 
L 3481 0 
L 794 0 
L 794 531 
z
" transform="scale(0.015625)"/>
       </defs>
       <use xlink:href="#DejaVuSans-31"/>
       <use xlink:href="#DejaVuSans-30" x="63.623047"/>
      </g>
     </g>
    </g>
    <g id="text_4">
     <!-- $X_1$ -->
     <g transform="translate(228.04 338.899937) scale(0.14 -0.14)">
      <defs>
       <path id="DejaVuSans-Oblique-58" d="M 878 4666 
L 1516 4666 
L 2316 2981 
L 3763 4666 
L 4500 4666 
L 2578 2438 
L 3738 0 
L 3103 0 
L 2163 1966 
L 459 0 
L -275 0 
L 1906 2509 
L 878 4666 
z
" transform="scale(0.015625)"/>
      </defs>
      <use xlink:href="#DejaVuSans-Oblique-58" transform="translate(0 0.09375)"/>
      <use xlink:href="#DejaVuSans-31" transform="translate(68.505859 -16.3125) scale(0.7)"/>
     </g>
    </g>
   </g>
   <g id="matplotlib.axis_2">
    <g id="ytick_1">
     <g id="line2d_4">
      <defs>
       <path id="m01dc1e059e" d="M 0 0 
L -3.5 0 
" style="stroke: #000000; stroke-width: 0.8"/>
      </defs>
      <g>
       <use xlink:href="#m01dc1e059e" x="172.29312" y="307.584" style="stroke: #000000; stroke-width: 0.8"/>
      </g>
     </g>
     <g id="text_5">
      <!-- 0 -->
      <g transform="translate(158.93062 311.383219) scale(0.1 -0.1)">
       <use xlink:href="#DejaVuSans-30"/>
      </g>
     </g>
    </g>
    <g id="ytick_2">
     <g id="line2d_5">
      <g>
       <use xlink:href="#m01dc1e059e" x="172.29312" y="254.3616" style="stroke: #000000; stroke-width: 0.8"/>
      </g>
     </g>
     <g id="text_6">
      <!-- 5 -->
      <g transform="translate(158.93062 258.160819) scale(0.1 -0.1)">
       <use xlink:href="#DejaVuSans-35"/>
      </g>
     </g>
    </g>
    <g id="ytick_3">
     <g id="line2d_6">
      <g>
       <use xlink:href="#m01dc1e059e" x="172.29312" y="201.1392" style="stroke: #000000; stroke-width: 0.8"/>
      </g>
     </g>
     <g id="text_7">
      <!-- 10 -->
      <g transform="translate(152.56812 204.938419) scale(0.1 -0.1)">
       <use xlink:href="#DejaVuSans-31"/>
       <use xlink:href="#DejaVuSans-30" x="63.623047"/>
      </g>
     </g>
    </g>
    <g id="ytick_4">
     <g id="line2d_7">
      <g>
       <use xlink:href="#m01dc1e059e" x="172.29312" y="147.9168" style="stroke: #000000; stroke-width: 0.8"/>
      </g>
     </g>
     <g id="text_8">
      <!-- 15 -->
      <g transform="translate(152.56812 151.716019) scale(0.1 -0.1)">
       <use xlink:href="#DejaVuSans-31"/>
       <use xlink:href="#DejaVuSans-35" x="63.623047"/>
      </g>
     </g>
    </g>
    <g id="ytick_5">
     <g id="line2d_8">
      <g>
       <use xlink:href="#m01dc1e059e" x="172.29312" y="94.6944" style="stroke: #000000; stroke-width: 0.8"/>
      </g>
     </g>
     <g id="text_9">
      <!-- 20 -->
      <g transform="translate(152.56812 98.493619) scale(0.1 -0.1)">
       <defs>
        <path id="DejaVuSans-32" d="M 1228 531 
L 3431 531 
L 3431 0 
L 469 0 
L 469 531 
Q 828 903 1448 1529 
Q 2069 2156 2228 2338 
Q 2531 2678 2651 2914 
Q 2772 3150 2772 3378 
Q 2772 3750 2511 3984 
Q 2250 4219 1831 4219 
Q 1534 4219 1204 4116 
Q 875 4013 500 3803 
L 500 4441 
Q 881 4594 1212 4672 
Q 1544 4750 1819 4750 
Q 2544 4750 2975 4387 
Q 3406 4025 3406 3419 
Q 3406 3131 3298 2873 
Q 3191 2616 2906 2266 
Q 2828 2175 2409 1742 
Q 1991 1309 1228 531 
z
" transform="scale(0.015625)"/>
       </defs>
       <use xlink:href="#DejaVuSans-32"/>
       <use xlink:href="#DejaVuSans-30" x="63.623047"/>
      </g>
     </g>
    </g>
    <g id="ytick_6">
     <g id="line2d_9">
      <g>
       <use xlink:href="#m01dc1e059e" x="172.29312" y="41.472" style="stroke: #000000; stroke-width: 0.8"/>
      </g>
     </g>
     <g id="text_10">
      <!-- 25 -->
      <g transform="translate(152.56812 45.271219) scale(0.1 -0.1)">
       <use xlink:href="#DejaVuSans-32"/>
       <use xlink:href="#DejaVuSans-35" x="63.623047"/>
      </g>
     </g>
    </g>
    <g id="text_11">
     <!-- $X_2$ -->
     <g transform="translate(145.656558 182.648) rotate(-90) scale(0.14 -0.14)">
      <use xlink:href="#DejaVuSans-Oblique-58" transform="translate(0 0.09375)"/>
      <use xlink:href="#DejaVuSans-32" transform="translate(68.505859 -16.3125) scale(0.7)"/>
     </g>
    </g>
   </g>
   <g id="QuadContourSet_1">
    <path d="M 176.16384 41.472 
L 176.16384 44.16 
L 176.16384 46.848 
L 176.16384 49.536 
L 176.16384 52.224 
L 176.16384 54.912 
L 176.16384 57.6 
L 176.16384 60.288 
L 176.16384 62.976 
L 176.16384 65.664 
L 176.16384 68.352 
L 176.16384 71.04 
L 176.16384 73.728 
L 176.16384 76.416 
L 176.16384 79.104 
L 176.16384 81.792 
L 176.16384 84.48 
L 176.16384 87.168 
L 176.16384 89.856 
L 176.16384 92.544 
L 176.16384 95.232 
L 176.16384 97.92 
L 176.16384 100.608 
L 176.16384 103.296 
L 176.16384 105.984 
L 176.16384 108.672 
L 176.16384 111.36 
L 176.16384 114.048 
L 176.16384 116.736 
L 176.16384 119.424 
L 176.16384 122.112 
L 176.16384 124.8 
L 176.16384 127.488 
L 176.16384 130.176 
L 176.16384 132.864 
L 176.16384 135.552 
L 176.16384 138.24 
L 176.16384 140.928 
L 176.16384 143.616 
L 176.16384 146.304 
L 176.16384 148.992 
L 176.16384 151.68 
L 176.16384 154.368 
L 176.16384 157.056 
L 176.16384 159.744 
L 176.16384 162.432 
L 176.16384 165.12 
L 176.16384 167.808 
L 176.16384 170.496 
L 176.16384 173.184 
L 176.16384 175.872 
L 176.16384 178.56 
L 176.16384 181.248 
L 176.16384 183.936 
L 176.16384 186.624 
L 176.16384 189.312 
L 176.16384 192 
L 176.16384 194.688 
L 176.16384 197.376 
L 176.16384 200.064 
L 176.16384 202.752 
L 176.16384 205.44 
L 176.16384 208.128 
L 176.16384 210.816 
L 176.16384 213.504 
L 176.16384 216.192 
L 176.16384 218.88 
L 176.16384 221.568 
L 176.16384 224.256 
L 176.16384 226.944 
L 176.16384 229.632 
L 176.16384 232.32 
L 176.16384 235.008 
L 176.16384 237.696 
L 176.16384 240.384 
L 176.16384 243.072 
L 176.16384 245.76 
L 176.16384 248.448 
L 176.16384 251.136 
L 176.16384 253.824 
L 176.16384 256.512 
L 176.16384 259.2 
L 176.16384 261.888 
L 176.16384 264.576 
L 176.16384 267.264 
L 176.16384 269.952 
L 176.16384 272.64 
L 176.16384 275.328 
L 176.16384 278.016 
L 176.16384 280.704 
L 176.16384 283.392 
L 176.16384 286.08 
L 176.16384 288.768 
L 176.16384 291.456 
L 176.16384 294.144 
L 176.16384 296.832 
L 176.16384 299.52 
L 176.16384 302.208 
L 176.16384 304.896 
L 176.16384 307.584 
" clip-path="url(#p31df7f9b71)" style="fill: none; stroke: #f7fbff; stroke-width: 1.5"/>
    <path d="M 177.45408 281.031196 
L 177.552338 280.704 
L 178.219602 278.016 
L 178.557213 275.328 
L 178.74432 273.182282 
L 178.997639 272.64 
L 180.03456 270.039297 
L 180.082526 269.952 
L 181.3248 267.500121 
L 181.462411 267.264 
L 182.61504 265.124755 
L 182.936473 264.576 
L 183.90528 262.74905 
L 184.394383 261.888 
L 185.19552 260.28302 
L 185.776021 259.2 
L 186.48576 257.642566 
L 187.044541 256.512 
L 187.776 254.710911 
L 188.171758 253.824 
L 189.06624 251.298498 
L 189.130354 251.136 
L 189.976637 248.448 
L 190.35648 246.790017 
L 190.629607 245.76 
L 191.136473 243.072 
L 191.459487 240.384 
L 191.624853 237.696 
L 191.643164 235.008 
L 191.513476 232.32 
L 191.225309 229.632 
L 190.759323 226.944 
L 190.35648 225.261476 
L 190.112327 224.256 
L 189.26861 221.568 
L 189.06624 221.029583 
L 188.182811 218.88 
L 187.776 218.031886 
L 186.743285 216.192 
L 186.48576 215.776258 
L 185.19552 214.081554 
L 184.568197 213.504 
L 183.90528 212.907756 
L 182.61504 212.261588 
L 181.3248 212.26873 
L 180.03456 213.214343 
L 179.903303 213.504 
L 178.74432 215.830637 
L 178.702593 216.192 
L 178.395265 218.88 
L 178.128758 221.568 
L 177.890925 224.256 
L 177.670231 226.944 
L 177.45463 229.632 
L 177.45408 229.638008 
L 177.155658 232.32 
L 176.930912 235.008 
L 176.762112 237.696 
L 176.635336 240.384 
L 176.540189 243.072 
L 176.468935 245.76 
L 176.415858 248.448 
L 176.376776 251.136 
L 176.348707 253.824 
L 176.329639 256.512 
L 176.318415 259.2 
L 176.314756 261.888 
L 176.319483 264.576 
L 176.335129 267.264 
L 176.367406 269.952 
L 176.428759 272.64 
L 176.547584 275.328 
L 176.794481 278.016 
L 177.366201 280.704 
L 177.45408 281.031196 
z
" clip-path="url(#p31df7f9b71)" style="fill: none; stroke: #e1edf8; stroke-width: 1.5"/>
    <path d="M 177.45408 278.142879 
L 177.487689 278.016 
L 178.090228 275.328 
L 178.436659 272.64 
L 178.685349 269.952 
L 178.74432 269.284261 
L 179.515269 267.264 
L 180.03456 265.535378 
L 180.460067 264.576 
L 181.3248 262.208933 
L 181.472196 261.888 
L 182.5064 259.2 
L 182.61504 258.847108 
L 183.494633 256.512 
L 183.90528 255.090751 
L 184.343347 253.824 
L 185.044884 251.136 
L 185.19552 250.340321 
L 185.629714 248.448 
L 186.041451 245.76 
L 186.276319 243.072 
L 186.34604 240.384 
L 186.244926 237.696 
L 185.951894 235.008 
L 185.429995 232.32 
L 185.19552 231.455658 
L 184.649368 229.632 
L 183.90528 227.798043 
L 183.465411 226.944 
L 182.61504 225.575758 
L 181.3248 224.374155 
L 180.449381 224.256 
L 180.03456 224.201923 
L 179.993369 224.256 
L 178.74432 225.624947 
L 178.584463 226.944 
L 178.270799 229.632 
L 177.975126 232.32 
L 177.676887 235.008 
L 177.45408 236.808962 
L 177.360385 237.696 
L 177.106833 240.384 
L 176.916537 243.072 
L 176.77403 245.76 
L 176.667875 248.448 
L 176.589712 251.136 
L 176.533574 253.824 
L 176.495437 256.512 
L 176.47299 259.2 
L 176.465672 261.888 
L 176.475125 264.576 
L 176.506418 267.264 
L 176.570973 269.952 
L 176.693679 272.64 
L 176.931327 275.328 
L 177.425121 278.016 
L 177.45408 278.142879 
z
" clip-path="url(#p31df7f9b71)" style="fill: none; stroke: #ccdff1; stroke-width: 1.5"/>
    <path d="M 177.45408 276.067722 
L 177.623243 275.328 
L 178.094334 272.64 
L 178.401527 269.952 
L 178.646611 267.264 
L 178.74432 266.152692 
L 179.270535 264.576 
L 179.969682 261.888 
L 180.03456 261.586364 
L 180.806675 259.2 
L 181.3248 257.096167 
L 181.514141 256.512 
L 182.185325 253.824 
L 182.61504 251.435756 
L 182.68345 251.136 
L 183.091758 248.448 
L 183.312071 245.76 
L 183.349534 243.072 
L 183.185855 240.384 
L 182.778824 237.696 
L 182.61504 237.006021 
L 182.051623 235.008 
L 181.3248 233.300398 
L 180.580442 232.32 
L 180.03456 231.748013 
L 178.74432 232.129237 
L 178.720418 232.32 
L 178.377611 235.008 
L 178.031754 237.696 
L 177.640381 240.384 
L 177.45408 241.407868 
L 177.292886 243.072 
L 177.079125 245.76 
L 176.919893 248.448 
L 176.802648 251.136 
L 176.718442 253.824 
L 176.661236 256.512 
L 176.627564 259.2 
L 176.616587 261.888 
L 176.630768 264.576 
L 176.677706 267.264 
L 176.774539 269.952 
L 176.958598 272.64 
L 177.315071 275.328 
L 177.45408 276.067722 
z
" clip-path="url(#p31df7f9b71)" style="fill: none; stroke: #abd0e6; stroke-width: 1.5"/>
    <path d="M 177.45408 274.191256 
L 177.752009 272.64 
L 178.117706 269.952 
L 178.383507 267.264 
L 178.616156 264.576 
L 178.74432 263.093595 
L 179.084797 261.888 
L 179.679739 259.2 
L 180.03456 257.1497 
L 180.199372 256.512 
L 180.708766 253.824 
L 181.055271 251.136 
L 181.253598 248.448 
L 181.287796 245.76 
L 181.106613 243.072 
L 180.605585 240.384 
L 180.03456 238.708449 
L 179.040575 237.696 
L 178.74432 237.486319 
L 178.716697 237.696 
L 178.347348 240.384 
L 177.907152 243.072 
L 177.45408 244.991278 
L 177.38422 245.76 
L 177.17191 248.448 
L 177.015584 251.136 
L 176.903309 253.824 
L 176.827035 256.512 
L 176.782139 259.2 
L 176.767503 261.888 
L 176.78641 264.576 
L 176.848995 267.264 
L 176.978105 269.952 
L 177.223518 272.64 
L 177.45408 274.191256 
z
" clip-path="url(#p31df7f9b71)" style="fill: none; stroke: #82bbdb; stroke-width: 1.5"/>
    <path d="M 177.45408 272.402512 
L 177.833884 269.952 
L 178.120403 267.264 
L 178.345261 264.576 
L 178.553716 261.888 
L 178.74432 259.598606 
L 178.834825 259.2 
L 179.284314 256.512 
L 179.59633 253.824 
L 179.779929 251.136 
L 179.80538 248.448 
L 179.581742 245.76 
L 178.881298 243.072 
L 178.74432 242.765937 
L 178.699668 243.072 
L 178.24588 245.76 
L 177.45408 248.086922 
L 177.423928 248.448 
L 177.22852 251.136 
L 177.088176 253.824 
L 176.992833 256.512 
L 176.936714 259.2 
L 176.918419 261.888 
L 176.942053 264.576 
L 177.020284 267.264 
L 177.181672 269.952 
L 177.45408 272.402512 
z
" clip-path="url(#p31df7f9b71)" style="fill: none; stroke: #58a1cf; stroke-width: 1.5"/>
    <path d="M 177.45408 270.571285 
L 177.550063 269.952 
L 177.857298 267.264 
L 178.074366 264.576 
L 178.243908 261.888 
L 178.388745 259.2 
L 178.520373 256.512 
L 178.634063 253.824 
L 178.20761 251.136 
L 177.45408 250.966408 
L 177.441456 251.136 
L 177.273043 253.824 
L 177.158632 256.512 
L 177.091289 259.2 
L 177.069335 261.888 
L 177.097695 264.576 
L 177.191573 267.264 
L 177.385238 269.952 
L 177.45408 270.571285 
z
" clip-path="url(#p31df7f9b71)" style="fill: none; stroke: #3787c0; stroke-width: 1.5"/>
    <path d="M 177.45408 268.462524 
L 177.594194 267.264 
L 177.803471 264.576 
L 177.934099 261.888 
L 177.990512 259.2 
L 177.921993 256.512 
L 177.45408 253.893387 
L 177.324431 256.512 
L 177.245863 259.2 
L 177.22025 261.888 
L 177.253338 264.576 
L 177.362862 267.264 
L 177.45408 268.462524 
z
" clip-path="url(#p31df7f9b71)" style="fill: none; stroke: #1b69af; stroke-width: 1.5"/>
    <path d="M 177.45408 265.604612 
L 177.532576 264.576 
L 177.624291 261.888 
L 177.592278 259.2 
L 177.45408 257.549183 
L 177.400438 259.2 
L 177.371166 261.888 
L 177.40898 264.576 
L 177.45408 265.604612 
z
" clip-path="url(#p31df7f9b71)" style="fill: none; stroke: #084d96; stroke-width: 1.5"/>
    <path clip-path="url(#p31df7f9b71)" style="fill: none; stroke: #08306b; stroke-width: 1.5"/>
   </g>
   <g id="patch_3">
    <path d="M 172.29312 307.584 
L 172.29312 41.472 
" style="fill: none; stroke: #000000; stroke-width: 0.8; stroke-linejoin: miter; stroke-linecap: square"/>
   </g>
   <g id="patch_4">
    <path d="M 300.02688 307.584 
L 300.02688 41.472 
" style="fill: none; stroke: #000000; stroke-width: 0.8; stroke-linejoin: miter; stroke-linecap: square"/>
   </g>
   <g id="patch_5">
    <path d="M 172.29312 307.584 
L 300.02688 307.584 
" style="fill: none; stroke: #000000; stroke-width: 0.8; stroke-linejoin: miter; stroke-linecap: square"/>
   </g>
   <g id="patch_6">
    <path d="M 172.29312 41.472 
L 300.02688 41.472 
" style="fill: none; stroke: #000000; stroke-width: 0.8; stroke-linejoin: miter; stroke-linecap: square"/>
   </g>
  </g>
 </g>
 <defs>
  <clipPath id="p31df7f9b71">
   <rect x="172.29312" y="41.472" width="127.73376" height="266.112"/>
  </clipPath>
 </defs>
</svg>
