<?xml version="1.0" encoding="utf-8" standalone="no"?>
<!DOCTYPE svg PUBLIC "-//W3C//DTD SVG 1.1//EN"
  "http://www.w3.org/Graphics/SVG/1.1/DTD/svg11.dtd">
<svg xmlns:xlink="http://www.w3.org/1999/xlink" width="576pt" height="360pt" viewBox="0 0 576 360" xmlns="http://www.w3.org/2000/svg" version="1.1">
 <metadata>
  <rdf:RDF xmlns:dc="http://purl.org/dc/elements/1.1/" xmlns:cc="http://creativecommons.org/ns#" xmlns:rdf="http://www.w3.org/1999/02/22-rdf-syntax-ns#">
   <cc:Work>
    <dc:type rdf:resource="http://purl.org/dc/dcmitype/StillImage"/>
    <dc:date>2024-10-24T22:58:46.959146</dc:date>
    <dc:format>image/svg+xml</dc:format>
    <dc:creator>
     <cc:Agent>
      <dc:title>Matplotlib v3.9.2, https://matplotlib.org/</dc:title>
     </cc:Agent>
    </dc:creator>
   </cc:Work>
  </rdf:RDF>
 </metadata>
 <defs>
  <style type="text/css">*{stroke-linejoin: round; stroke-linecap: butt}</style>
 </defs>
 <g id="figure_1">
  <g id="patch_1">
   <path d="M 0 360 
L 576 360 
L 576 0 
L 0 0 
z
" style="fill: #ffffff"/>
  </g>
  <g id="axes_1">
   <g id="patch_2">
    <path d="M 72 320.4 
L 518.4 320.4 
L 518.4 43.2 
L 72 43.2 
z
" style="fill: #ffffff"/>
   </g>
   <g id="matplotlib.axis_1">
    <g id="xtick_1">
     <g id="line2d_1">
      <path d="M 79.194377 320.4 
L 79.194377 43.2 
" clip-path="url(#p8f2066c907)" style="fill: none; stroke: #b0b0b0; stroke-width: 0.8; stroke-linecap: square"/>
     </g>
     <g id="line2d_2">
      <defs>
       <path id="mdf0ec27f1f" d="M 0 0 
L 0 3.5 
" style="stroke: #000000; stroke-width: 0.8"/>
      </defs>
      <g>
       <use xlink:href="#mdf0ec27f1f" x="79.194377" y="320.4" style="stroke: #000000; stroke-width: 0.8"/>
      </g>
     </g>
     <g id="text_1">
      <!-- −400000 -->
      <g transform="translate(55.917034 334.998438) scale(0.1 -0.1)">
       <defs>
        <path id="DejaVuSans-2212" d="M 678 2272 
L 4684 2272 
L 4684 1741 
L 678 1741 
L 678 2272 
z
" transform="scale(0.015625)"/>
        <path id="DejaVuSans-34" d="M 2419 4116 
L 825 1625 
L 2419 1625 
L 2419 4116 
z
M 2253 4666 
L 3047 4666 
L 3047 1625 
L 3713 1625 
L 3713 1100 
L 3047 1100 
L 3047 0 
L 2419 0 
L 2419 1100 
L 313 1100 
L 313 1709 
L 2253 4666 
z
" transform="scale(0.015625)"/>
        <path id="DejaVuSans-30" d="M 2034 4250 
Q 1547 4250 1301 3770 
Q 1056 3291 1056 2328 
Q 1056 1369 1301 889 
Q 1547 409 2034 409 
Q 2525 409 2770 889 
Q 3016 1369 3016 2328 
Q 3016 3291 2770 3770 
Q 2525 4250 2034 4250 
z
M 2034 4750 
Q 2819 4750 3233 4129 
Q 3647 3509 3647 2328 
Q 3647 1150 3233 529 
Q 2819 -91 2034 -91 
Q 1250 -91 836 529 
Q 422 1150 422 2328 
Q 422 3509 836 4129 
Q 1250 4750 2034 4750 
z
" transform="scale(0.015625)"/>
       </defs>
       <use xlink:href="#DejaVuSans-2212"/>
       <use xlink:href="#DejaVuSans-34" x="83.789062"/>
       <use xlink:href="#DejaVuSans-30" x="147.412109"/>
       <use xlink:href="#DejaVuSans-30" x="211.035156"/>
       <use xlink:href="#DejaVuSans-30" x="274.658203"/>
       <use xlink:href="#DejaVuSans-30" x="338.28125"/>
       <use xlink:href="#DejaVuSans-30" x="401.904297"/>
      </g>
     </g>
    </g>
    <g id="xtick_2">
     <g id="line2d_3">
      <path d="M 166.157069 320.4 
L 166.157069 43.2 
" clip-path="url(#p8f2066c907)" style="fill: none; stroke: #b0b0b0; stroke-width: 0.8; stroke-linecap: square"/>
     </g>
     <g id="line2d_4">
      <g>
       <use xlink:href="#mdf0ec27f1f" x="166.157069" y="320.4" style="stroke: #000000; stroke-width: 0.8"/>
      </g>
     </g>
     <g id="text_2">
      <!-- −200000 -->
      <g transform="translate(142.879725 334.998438) scale(0.1 -0.1)">
       <defs>
        <path id="DejaVuSans-32" d="M 1228 531 
L 3431 531 
L 3431 0 
L 469 0 
L 469 531 
Q 828 903 1448 1529 
Q 2069 2156 2228 2338 
Q 2531 2678 2651 2914 
Q 2772 3150 2772 3378 
Q 2772 3750 2511 3984 
Q 2250 4219 1831 4219 
Q 1534 4219 1204 4116 
Q 875 4013 500 3803 
L 500 4441 
Q 881 4594 1212 4672 
Q 1544 4750 1819 4750 
Q 2544 4750 2975 4387 
Q 3406 4025 3406 3419 
Q 3406 3131 3298 2873 
Q 3191 2616 2906 2266 
Q 2828 2175 2409 1742 
Q 1991 1309 1228 531 
z
" transform="scale(0.015625)"/>
       </defs>
       <use xlink:href="#DejaVuSans-2212"/>
       <use xlink:href="#DejaVuSans-32" x="83.789062"/>
       <use xlink:href="#DejaVuSans-30" x="147.412109"/>
       <use xlink:href="#DejaVuSans-30" x="211.035156"/>
       <use xlink:href="#DejaVuSans-30" x="274.658203"/>
       <use xlink:href="#DejaVuSans-30" x="338.28125"/>
       <use xlink:href="#DejaVuSans-30" x="401.904297"/>
      </g>
     </g>
    </g>
    <g id="xtick_3">
     <g id="line2d_5">
      <path d="M 253.119761 320.4 
L 253.119761 43.2 
" clip-path="url(#p8f2066c907)" style="fill: none; stroke: #b0b0b0; stroke-width: 0.8; stroke-linecap: square"/>
     </g>
     <g id="line2d_6">
      <g>
       <use xlink:href="#mdf0ec27f1f" x="253.119761" y="320.4" style="stroke: #000000; stroke-width: 0.8"/>
      </g>
     </g>
     <g id="text_3">
      <!-- 0 -->
      <g transform="translate(249.938511 334.998438) scale(0.1 -0.1)">
       <use xlink:href="#DejaVuSans-30"/>
      </g>
     </g>
    </g>
    <g id="xtick_4">
     <g id="line2d_7">
      <path d="M 340.082452 320.4 
L 340.082452 43.2 
" clip-path="url(#p8f2066c907)" style="fill: none; stroke: #b0b0b0; stroke-width: 0.8; stroke-linecap: square"/>
     </g>
     <g id="line2d_8">
      <g>
       <use xlink:href="#mdf0ec27f1f" x="340.082452" y="320.4" style="stroke: #000000; stroke-width: 0.8"/>
      </g>
     </g>
     <g id="text_4">
      <!-- 200000 -->
      <g transform="translate(320.994952 334.998438) scale(0.1 -0.1)">
       <use xlink:href="#DejaVuSans-32"/>
       <use xlink:href="#DejaVuSans-30" x="63.623047"/>
       <use xlink:href="#DejaVuSans-30" x="127.246094"/>
       <use xlink:href="#DejaVuSans-30" x="190.869141"/>
       <use xlink:href="#DejaVuSans-30" x="254.492188"/>
       <use xlink:href="#DejaVuSans-30" x="318.115234"/>
      </g>
     </g>
    </g>
    <g id="xtick_5">
     <g id="line2d_9">
      <path d="M 427.045144 320.4 
L 427.045144 43.2 
" clip-path="url(#p8f2066c907)" style="fill: none; stroke: #b0b0b0; stroke-width: 0.8; stroke-linecap: square"/>
     </g>
     <g id="line2d_10">
      <g>
       <use xlink:href="#mdf0ec27f1f" x="427.045144" y="320.4" style="stroke: #000000; stroke-width: 0.8"/>
      </g>
     </g>
     <g id="text_5">
      <!-- 400000 -->
      <g transform="translate(407.957644 334.998438) scale(0.1 -0.1)">
       <use xlink:href="#DejaVuSans-34"/>
       <use xlink:href="#DejaVuSans-30" x="63.623047"/>
       <use xlink:href="#DejaVuSans-30" x="127.246094"/>
       <use xlink:href="#DejaVuSans-30" x="190.869141"/>
       <use xlink:href="#DejaVuSans-30" x="254.492188"/>
       <use xlink:href="#DejaVuSans-30" x="318.115234"/>
      </g>
     </g>
    </g>
    <g id="xtick_6">
     <g id="line2d_11">
      <path d="M 514.007836 320.4 
L 514.007836 43.2 
" clip-path="url(#p8f2066c907)" style="fill: none; stroke: #b0b0b0; stroke-width: 0.8; stroke-linecap: square"/>
     </g>
     <g id="line2d_12">
      <g>
       <use xlink:href="#mdf0ec27f1f" x="514.007836" y="320.4" style="stroke: #000000; stroke-width: 0.8"/>
      </g>
     </g>
     <g id="text_6">
      <!-- 600000 -->
      <g transform="translate(494.920336 334.998438) scale(0.1 -0.1)">
       <defs>
        <path id="DejaVuSans-36" d="M 2113 2584 
Q 1688 2584 1439 2293 
Q 1191 2003 1191 1497 
Q 1191 994 1439 701 
Q 1688 409 2113 409 
Q 2538 409 2786 701 
Q 3034 994 3034 1497 
Q 3034 2003 2786 2293 
Q 2538 2584 2113 2584 
z
M 3366 4563 
L 3366 3988 
Q 3128 4100 2886 4159 
Q 2644 4219 2406 4219 
Q 1781 4219 1451 3797 
Q 1122 3375 1075 2522 
Q 1259 2794 1537 2939 
Q 1816 3084 2150 3084 
Q 2853 3084 3261 2657 
Q 3669 2231 3669 1497 
Q 3669 778 3244 343 
Q 2819 -91 2113 -91 
Q 1303 -91 875 529 
Q 447 1150 447 2328 
Q 447 3434 972 4092 
Q 1497 4750 2381 4750 
Q 2619 4750 2861 4703 
Q 3103 4656 3366 4563 
z
" transform="scale(0.015625)"/>
       </defs>
       <use xlink:href="#DejaVuSans-36"/>
       <use xlink:href="#DejaVuSans-30" x="63.623047"/>
       <use xlink:href="#DejaVuSans-30" x="127.246094"/>
       <use xlink:href="#DejaVuSans-30" x="190.869141"/>
       <use xlink:href="#DejaVuSans-30" x="254.492188"/>
       <use xlink:href="#DejaVuSans-30" x="318.115234"/>
      </g>
     </g>
    </g>
    <g id="text_7">
     <!-- $Z(X_1,X_2)$ -->
     <g transform="translate(273.7 348.676562) scale(0.1 -0.1)">
      <defs>
       <path id="DejaVuSans-Oblique-5a" d="M 838 4666 
L 4500 4666 
L 4409 4184 
L 794 531 
L 3769 531 
L 3669 0 
L -141 0 
L -50 481 
L 3566 4134 
L 738 4134 
L 838 4666 
z
" transform="scale(0.015625)"/>
       <path id="DejaVuSans-28" d="M 1984 4856 
Q 1566 4138 1362 3434 
Q 1159 2731 1159 2009 
Q 1159 1288 1364 580 
Q 1569 -128 1984 -844 
L 1484 -844 
Q 1016 -109 783 600 
Q 550 1309 550 2009 
Q 550 2706 781 3412 
Q 1013 4119 1484 4856 
L 1984 4856 
z
" transform="scale(0.015625)"/>
       <path id="DejaVuSans-Oblique-58" d="M 878 4666 
L 1516 4666 
L 2316 2981 
L 3763 4666 
L 4500 4666 
L 2578 2438 
L 3738 0 
L 3103 0 
L 2163 1966 
L 459 0 
L -275 0 
L 1906 2509 
L 878 4666 
z
" transform="scale(0.015625)"/>
       <path id="DejaVuSans-31" d="M 794 531 
L 1825 531 
L 1825 4091 
L 703 3866 
L 703 4441 
L 1819 4666 
L 2450 4666 
L 2450 531 
L 3481 531 
L 3481 0 
L 794 0 
L 794 531 
z
" transform="scale(0.015625)"/>
       <path id="DejaVuSans-2c" d="M 750 794 
L 1409 794 
L 1409 256 
L 897 -744 
L 494 -744 
L 750 256 
L 750 794 
z
" transform="scale(0.015625)"/>
       <path id="DejaVuSans-29" d="M 513 4856 
L 1013 4856 
Q 1481 4119 1714 3412 
Q 1947 2706 1947 2009 
Q 1947 1309 1714 600 
Q 1481 -109 1013 -844 
L 513 -844 
Q 928 -128 1133 580 
Q 1338 1288 1338 2009 
Q 1338 2731 1133 3434 
Q 928 4138 513 4856 
z
" transform="scale(0.015625)"/>
      </defs>
      <use xlink:href="#DejaVuSans-Oblique-5a" transform="translate(0 0.125)"/>
      <use xlink:href="#DejaVuSans-28" transform="translate(68.505859 0.125)"/>
      <use xlink:href="#DejaVuSans-Oblique-58" transform="translate(107.519531 0.125)"/>
      <use xlink:href="#DejaVuSans-31" transform="translate(176.025391 -16.28125) scale(0.7)"/>
      <use xlink:href="#DejaVuSans-2c" transform="translate(223.295898 0.125)"/>
      <use xlink:href="#DejaVuSans-Oblique-58" transform="translate(274.56543 0.125)"/>
      <use xlink:href="#DejaVuSans-32" transform="translate(343.071289 -16.28125) scale(0.7)"/>
      <use xlink:href="#DejaVuSans-29" transform="translate(390.341797 0.125)"/>
     </g>
    </g>
   </g>
   <g id="matplotlib.axis_2">
    <g id="ytick_1">
     <g id="line2d_13">
      <path d="M 72 315.41028 
L 518.4 315.41028 
" clip-path="url(#p8f2066c907)" style="fill: none; stroke: #b0b0b0; stroke-width: 0.8; stroke-linecap: square"/>
     </g>
     <g id="line2d_14">
      <defs>
       <path id="me887987ac0" d="M 0 0 
L -3.5 0 
" style="stroke: #000000; stroke-width: 0.8"/>
      </defs>
      <g>
       <use xlink:href="#me887987ac0" x="72" y="315.41028" style="stroke: #000000; stroke-width: 0.8"/>
      </g>
     </g>
     <g id="text_8">
      <!-- $\mathdefault{10^{-8}}$ -->
      <g transform="translate(41.5 319.209499) scale(0.1 -0.1)">
       <defs>
        <path id="DejaVuSans-38" d="M 2034 2216 
Q 1584 2216 1326 1975 
Q 1069 1734 1069 1313 
Q 1069 891 1326 650 
Q 1584 409 2034 409 
Q 2484 409 2743 651 
Q 3003 894 3003 1313 
Q 3003 1734 2745 1975 
Q 2488 2216 2034 2216 
z
M 1403 2484 
Q 997 2584 770 2862 
Q 544 3141 544 3541 
Q 544 4100 942 4425 
Q 1341 4750 2034 4750 
Q 2731 4750 3128 4425 
Q 3525 4100 3525 3541 
Q 3525 3141 3298 2862 
Q 3072 2584 2669 2484 
Q 3125 2378 3379 2068 
Q 3634 1759 3634 1313 
Q 3634 634 3220 271 
Q 2806 -91 2034 -91 
Q 1263 -91 848 271 
Q 434 634 434 1313 
Q 434 1759 690 2068 
Q 947 2378 1403 2484 
z
M 1172 3481 
Q 1172 3119 1398 2916 
Q 1625 2713 2034 2713 
Q 2441 2713 2670 2916 
Q 2900 3119 2900 3481 
Q 2900 3844 2670 4047 
Q 2441 4250 2034 4250 
Q 1625 4250 1398 4047 
Q 1172 3844 1172 3481 
z
" transform="scale(0.015625)"/>
       </defs>
       <use xlink:href="#DejaVuSans-31" transform="translate(0 0.765625)"/>
       <use xlink:href="#DejaVuSans-30" transform="translate(63.623047 0.765625)"/>
       <use xlink:href="#DejaVuSans-2212" transform="translate(128.203125 39.046875) scale(0.7)"/>
       <use xlink:href="#DejaVuSans-38" transform="translate(186.855469 39.046875) scale(0.7)"/>
      </g>
     </g>
    </g>
    <g id="ytick_2">
     <g id="line2d_15">
      <path d="M 72 282.958995 
L 518.4 282.958995 
" clip-path="url(#p8f2066c907)" style="fill: none; stroke: #b0b0b0; stroke-width: 0.8; stroke-linecap: square"/>
     </g>
     <g id="line2d_16">
      <g>
       <use xlink:href="#me887987ac0" x="72" y="282.958995" style="stroke: #000000; stroke-width: 0.8"/>
      </g>
     </g>
     <g id="text_9">
      <!-- $\mathdefault{10^{-7}}$ -->
      <g transform="translate(41.5 286.758214) scale(0.1 -0.1)">
       <defs>
        <path id="DejaVuSans-37" d="M 525 4666 
L 3525 4666 
L 3525 4397 
L 1831 0 
L 1172 0 
L 2766 4134 
L 525 4134 
L 525 4666 
z
" transform="scale(0.015625)"/>
       </defs>
       <use xlink:href="#DejaVuSans-31" transform="translate(0 0.684375)"/>
       <use xlink:href="#DejaVuSans-30" transform="translate(63.623047 0.684375)"/>
       <use xlink:href="#DejaVuSans-2212" transform="translate(128.203125 38.965625) scale(0.7)"/>
       <use xlink:href="#DejaVuSans-37" transform="translate(186.855469 38.965625) scale(0.7)"/>
      </g>
     </g>
    </g>
    <g id="ytick_3">
     <g id="line2d_17">
      <path d="M 72 250.50771 
L 518.4 250.50771 
" clip-path="url(#p8f2066c907)" style="fill: none; stroke: #b0b0b0; stroke-width: 0.8; stroke-linecap: square"/>
     </g>
     <g id="line2d_18">
      <g>
       <use xlink:href="#me887987ac0" x="72" y="250.50771" style="stroke: #000000; stroke-width: 0.8"/>
      </g>
     </g>
     <g id="text_10">
      <!-- $\mathdefault{10^{-6}}$ -->
      <g transform="translate(41.5 254.306929) scale(0.1 -0.1)">
       <use xlink:href="#DejaVuSans-31" transform="translate(0 0.765625)"/>
       <use xlink:href="#DejaVuSans-30" transform="translate(63.623047 0.765625)"/>
       <use xlink:href="#DejaVuSans-2212" transform="translate(128.203125 39.046875) scale(0.7)"/>
       <use xlink:href="#DejaVuSans-36" transform="translate(186.855469 39.046875) scale(0.7)"/>
      </g>
     </g>
    </g>
    <g id="ytick_4">
     <g id="line2d_19">
      <path d="M 72 218.056425 
L 518.4 218.056425 
" clip-path="url(#p8f2066c907)" style="fill: none; stroke: #b0b0b0; stroke-width: 0.8; stroke-linecap: square"/>
     </g>
     <g id="line2d_20">
      <g>
       <use xlink:href="#me887987ac0" x="72" y="218.056425" style="stroke: #000000; stroke-width: 0.8"/>
      </g>
     </g>
     <g id="text_11">
      <!-- $\mathdefault{10^{-5}}$ -->
      <g transform="translate(41.5 221.855644) scale(0.1 -0.1)">
       <defs>
        <path id="DejaVuSans-35" d="M 691 4666 
L 3169 4666 
L 3169 4134 
L 1269 4134 
L 1269 2991 
Q 1406 3038 1543 3061 
Q 1681 3084 1819 3084 
Q 2600 3084 3056 2656 
Q 3513 2228 3513 1497 
Q 3513 744 3044 326 
Q 2575 -91 1722 -91 
Q 1428 -91 1123 -41 
Q 819 9 494 109 
L 494 744 
Q 775 591 1075 516 
Q 1375 441 1709 441 
Q 2250 441 2565 725 
Q 2881 1009 2881 1497 
Q 2881 1984 2565 2268 
Q 2250 2553 1709 2553 
Q 1456 2553 1204 2497 
Q 953 2441 691 2322 
L 691 4666 
z
" transform="scale(0.015625)"/>
       </defs>
       <use xlink:href="#DejaVuSans-31" transform="translate(0 0.684375)"/>
       <use xlink:href="#DejaVuSans-30" transform="translate(63.623047 0.684375)"/>
       <use xlink:href="#DejaVuSans-2212" transform="translate(128.203125 38.965625) scale(0.7)"/>
       <use xlink:href="#DejaVuSans-35" transform="translate(186.855469 38.965625) scale(0.7)"/>
      </g>
     </g>
    </g>
    <g id="ytick_5">
     <g id="line2d_21">
      <path d="M 72 185.60514 
L 518.4 185.60514 
" clip-path="url(#p8f2066c907)" style="fill: none; stroke: #b0b0b0; stroke-width: 0.8; stroke-linecap: square"/>
     </g>
     <g id="line2d_22">
      <g>
       <use xlink:href="#me887987ac0" x="72" y="185.60514" style="stroke: #000000; stroke-width: 0.8"/>
      </g>
     </g>
     <g id="text_12">
      <!-- $\mathdefault{10^{-4}}$ -->
      <g transform="translate(41.5 189.404359) scale(0.1 -0.1)">
       <use xlink:href="#DejaVuSans-31" transform="translate(0 0.684375)"/>
       <use xlink:href="#DejaVuSans-30" transform="translate(63.623047 0.684375)"/>
       <use xlink:href="#DejaVuSans-2212" transform="translate(128.203125 38.965625) scale(0.7)"/>
       <use xlink:href="#DejaVuSans-34" transform="translate(186.855469 38.965625) scale(0.7)"/>
      </g>
     </g>
    </g>
    <g id="ytick_6">
     <g id="line2d_23">
      <path d="M 72 153.153855 
L 518.4 153.153855 
" clip-path="url(#p8f2066c907)" style="fill: none; stroke: #b0b0b0; stroke-width: 0.8; stroke-linecap: square"/>
     </g>
     <g id="line2d_24">
      <g>
       <use xlink:href="#me887987ac0" x="72" y="153.153855" style="stroke: #000000; stroke-width: 0.8"/>
      </g>
     </g>
     <g id="text_13">
      <!-- $\mathdefault{10^{-3}}$ -->
      <g transform="translate(41.5 156.953074) scale(0.1 -0.1)">
       <defs>
        <path id="DejaVuSans-33" d="M 2597 2516 
Q 3050 2419 3304 2112 
Q 3559 1806 3559 1356 
Q 3559 666 3084 287 
Q 2609 -91 1734 -91 
Q 1441 -91 1130 -33 
Q 819 25 488 141 
L 488 750 
Q 750 597 1062 519 
Q 1375 441 1716 441 
Q 2309 441 2620 675 
Q 2931 909 2931 1356 
Q 2931 1769 2642 2001 
Q 2353 2234 1838 2234 
L 1294 2234 
L 1294 2753 
L 1863 2753 
Q 2328 2753 2575 2939 
Q 2822 3125 2822 3475 
Q 2822 3834 2567 4026 
Q 2313 4219 1838 4219 
Q 1578 4219 1281 4162 
Q 984 4106 628 3988 
L 628 4550 
Q 988 4650 1302 4700 
Q 1616 4750 1894 4750 
Q 2613 4750 3031 4423 
Q 3450 4097 3450 3541 
Q 3450 3153 3228 2886 
Q 3006 2619 2597 2516 
z
" transform="scale(0.015625)"/>
       </defs>
       <use xlink:href="#DejaVuSans-31" transform="translate(0 0.765625)"/>
       <use xlink:href="#DejaVuSans-30" transform="translate(63.623047 0.765625)"/>
       <use xlink:href="#DejaVuSans-2212" transform="translate(128.203125 39.046875) scale(0.7)"/>
       <use xlink:href="#DejaVuSans-33" transform="translate(186.855469 39.046875) scale(0.7)"/>
      </g>
     </g>
    </g>
    <g id="ytick_7">
     <g id="line2d_25">
      <path d="M 72 120.70257 
L 518.4 120.70257 
" clip-path="url(#p8f2066c907)" style="fill: none; stroke: #b0b0b0; stroke-width: 0.8; stroke-linecap: square"/>
     </g>
     <g id="line2d_26">
      <g>
       <use xlink:href="#me887987ac0" x="72" y="120.70257" style="stroke: #000000; stroke-width: 0.8"/>
      </g>
     </g>
     <g id="text_14">
      <!-- $\mathdefault{10^{-2}}$ -->
      <g transform="translate(41.5 124.501789) scale(0.1 -0.1)">
       <use xlink:href="#DejaVuSans-31" transform="translate(0 0.765625)"/>
       <use xlink:href="#DejaVuSans-30" transform="translate(63.623047 0.765625)"/>
       <use xlink:href="#DejaVuSans-2212" transform="translate(128.203125 39.046875) scale(0.7)"/>
       <use xlink:href="#DejaVuSans-32" transform="translate(186.855469 39.046875) scale(0.7)"/>
      </g>
     </g>
    </g>
    <g id="ytick_8">
     <g id="line2d_27">
      <path d="M 72 88.251285 
L 518.4 88.251285 
" clip-path="url(#p8f2066c907)" style="fill: none; stroke: #b0b0b0; stroke-width: 0.8; stroke-linecap: square"/>
     </g>
     <g id="line2d_28">
      <g>
       <use xlink:href="#me887987ac0" x="72" y="88.251285" style="stroke: #000000; stroke-width: 0.8"/>
      </g>
     </g>
     <g id="text_15">
      <!-- $\mathdefault{10^{-1}}$ -->
      <g transform="translate(41.5 92.050504) scale(0.1 -0.1)">
       <use xlink:href="#DejaVuSans-31" transform="translate(0 0.684375)"/>
       <use xlink:href="#DejaVuSans-30" transform="translate(63.623047 0.684375)"/>
       <use xlink:href="#DejaVuSans-2212" transform="translate(128.203125 38.965625) scale(0.7)"/>
       <use xlink:href="#DejaVuSans-31" transform="translate(186.855469 38.965625) scale(0.7)"/>
      </g>
     </g>
    </g>
    <g id="ytick_9">
     <g id="line2d_29">
      <path d="M 72 55.8 
L 518.4 55.8 
" clip-path="url(#p8f2066c907)" style="fill: none; stroke: #b0b0b0; stroke-width: 0.8; stroke-linecap: square"/>
     </g>
     <g id="line2d_30">
      <g>
       <use xlink:href="#me887987ac0" x="72" y="55.8" style="stroke: #000000; stroke-width: 0.8"/>
      </g>
     </g>
     <g id="text_16">
      <!-- $\mathdefault{10^{0}}$ -->
      <g transform="translate(47.4 59.599219) scale(0.1 -0.1)">
       <use xlink:href="#DejaVuSans-31" transform="translate(0 0.765625)"/>
       <use xlink:href="#DejaVuSans-30" transform="translate(63.623047 0.765625)"/>
       <use xlink:href="#DejaVuSans-30" transform="translate(128.203125 39.046875) scale(0.7)"/>
      </g>
     </g>
    </g>
    <g id="ytick_10">
     <g id="line2d_31">
      <defs>
       <path id="m323c8b8f08" d="M 0 0 
L -2 0 
" style="stroke: #000000; stroke-width: 0.6"/>
      </defs>
      <g>
       <use xlink:href="#m323c8b8f08" x="72" y="318.555135" style="stroke: #000000; stroke-width: 0.6"/>
      </g>
     </g>
    </g>
    <g id="ytick_11">
     <g id="line2d_32">
      <g>
       <use xlink:href="#m323c8b8f08" x="72" y="316.89517" style="stroke: #000000; stroke-width: 0.6"/>
      </g>
     </g>
    </g>
    <g id="ytick_12">
     <g id="line2d_33">
      <g>
       <use xlink:href="#m323c8b8f08" x="72" y="305.64147" style="stroke: #000000; stroke-width: 0.6"/>
      </g>
     </g>
    </g>
    <g id="ytick_13">
     <g id="line2d_34">
      <g>
       <use xlink:href="#m323c8b8f08" x="72" y="299.927082" style="stroke: #000000; stroke-width: 0.6"/>
      </g>
     </g>
    </g>
    <g id="ytick_14">
     <g id="line2d_35">
      <g>
       <use xlink:href="#m323c8b8f08" x="72" y="295.87266" style="stroke: #000000; stroke-width: 0.6"/>
      </g>
     </g>
    </g>
    <g id="ytick_15">
     <g id="line2d_36">
      <g>
       <use xlink:href="#m323c8b8f08" x="72" y="292.727805" style="stroke: #000000; stroke-width: 0.6"/>
      </g>
     </g>
    </g>
    <g id="ytick_16">
     <g id="line2d_37">
      <g>
       <use xlink:href="#m323c8b8f08" x="72" y="290.158272" style="stroke: #000000; stroke-width: 0.6"/>
      </g>
     </g>
    </g>
    <g id="ytick_17">
     <g id="line2d_38">
      <g>
       <use xlink:href="#m323c8b8f08" x="72" y="287.985763" style="stroke: #000000; stroke-width: 0.6"/>
      </g>
     </g>
    </g>
    <g id="ytick_18">
     <g id="line2d_39">
      <g>
       <use xlink:href="#m323c8b8f08" x="72" y="286.10385" style="stroke: #000000; stroke-width: 0.6"/>
      </g>
     </g>
    </g>
    <g id="ytick_19">
     <g id="line2d_40">
      <g>
       <use xlink:href="#m323c8b8f08" x="72" y="284.443884" style="stroke: #000000; stroke-width: 0.6"/>
      </g>
     </g>
    </g>
    <g id="ytick_20">
     <g id="line2d_41">
      <g>
       <use xlink:href="#m323c8b8f08" x="72" y="273.190185" style="stroke: #000000; stroke-width: 0.6"/>
      </g>
     </g>
    </g>
    <g id="ytick_21">
     <g id="line2d_42">
      <g>
       <use xlink:href="#m323c8b8f08" x="72" y="267.475797" style="stroke: #000000; stroke-width: 0.6"/>
      </g>
     </g>
    </g>
    <g id="ytick_22">
     <g id="line2d_43">
      <g>
       <use xlink:href="#m323c8b8f08" x="72" y="263.421375" style="stroke: #000000; stroke-width: 0.6"/>
      </g>
     </g>
    </g>
    <g id="ytick_23">
     <g id="line2d_44">
      <g>
       <use xlink:href="#m323c8b8f08" x="72" y="260.27652" style="stroke: #000000; stroke-width: 0.6"/>
      </g>
     </g>
    </g>
    <g id="ytick_24">
     <g id="line2d_45">
      <g>
       <use xlink:href="#m323c8b8f08" x="72" y="257.706987" style="stroke: #000000; stroke-width: 0.6"/>
      </g>
     </g>
    </g>
    <g id="ytick_25">
     <g id="line2d_46">
      <g>
       <use xlink:href="#m323c8b8f08" x="72" y="255.534478" style="stroke: #000000; stroke-width: 0.6"/>
      </g>
     </g>
    </g>
    <g id="ytick_26">
     <g id="line2d_47">
      <g>
       <use xlink:href="#m323c8b8f08" x="72" y="253.652565" style="stroke: #000000; stroke-width: 0.6"/>
      </g>
     </g>
    </g>
    <g id="ytick_27">
     <g id="line2d_48">
      <g>
       <use xlink:href="#m323c8b8f08" x="72" y="251.992599" style="stroke: #000000; stroke-width: 0.6"/>
      </g>
     </g>
    </g>
    <g id="ytick_28">
     <g id="line2d_49">
      <g>
       <use xlink:href="#m323c8b8f08" x="72" y="240.7389" style="stroke: #000000; stroke-width: 0.6"/>
      </g>
     </g>
    </g>
    <g id="ytick_29">
     <g id="line2d_50">
      <g>
       <use xlink:href="#m323c8b8f08" x="72" y="235.024512" style="stroke: #000000; stroke-width: 0.6"/>
      </g>
     </g>
    </g>
    <g id="ytick_30">
     <g id="line2d_51">
      <g>
       <use xlink:href="#m323c8b8f08" x="72" y="230.97009" style="stroke: #000000; stroke-width: 0.6"/>
      </g>
     </g>
    </g>
    <g id="ytick_31">
     <g id="line2d_52">
      <g>
       <use xlink:href="#m323c8b8f08" x="72" y="227.825235" style="stroke: #000000; stroke-width: 0.6"/>
      </g>
     </g>
    </g>
    <g id="ytick_32">
     <g id="line2d_53">
      <g>
       <use xlink:href="#m323c8b8f08" x="72" y="225.255702" style="stroke: #000000; stroke-width: 0.6"/>
      </g>
     </g>
    </g>
    <g id="ytick_33">
     <g id="line2d_54">
      <g>
       <use xlink:href="#m323c8b8f08" x="72" y="223.083193" style="stroke: #000000; stroke-width: 0.6"/>
      </g>
     </g>
    </g>
    <g id="ytick_34">
     <g id="line2d_55">
      <g>
       <use xlink:href="#m323c8b8f08" x="72" y="221.201279" style="stroke: #000000; stroke-width: 0.6"/>
      </g>
     </g>
    </g>
    <g id="ytick_35">
     <g id="line2d_56">
      <g>
       <use xlink:href="#m323c8b8f08" x="72" y="219.541314" style="stroke: #000000; stroke-width: 0.6"/>
      </g>
     </g>
    </g>
    <g id="ytick_36">
     <g id="line2d_57">
      <g>
       <use xlink:href="#m323c8b8f08" x="72" y="208.287615" style="stroke: #000000; stroke-width: 0.6"/>
      </g>
     </g>
    </g>
    <g id="ytick_37">
     <g id="line2d_58">
      <g>
       <use xlink:href="#m323c8b8f08" x="72" y="202.573227" style="stroke: #000000; stroke-width: 0.6"/>
      </g>
     </g>
    </g>
    <g id="ytick_38">
     <g id="line2d_59">
      <g>
       <use xlink:href="#m323c8b8f08" x="72" y="198.518805" style="stroke: #000000; stroke-width: 0.6"/>
      </g>
     </g>
    </g>
    <g id="ytick_39">
     <g id="line2d_60">
      <g>
       <use xlink:href="#m323c8b8f08" x="72" y="195.37395" style="stroke: #000000; stroke-width: 0.6"/>
      </g>
     </g>
    </g>
    <g id="ytick_40">
     <g id="line2d_61">
      <g>
       <use xlink:href="#m323c8b8f08" x="72" y="192.804417" style="stroke: #000000; stroke-width: 0.6"/>
      </g>
     </g>
    </g>
    <g id="ytick_41">
     <g id="line2d_62">
      <g>
       <use xlink:href="#m323c8b8f08" x="72" y="190.631908" style="stroke: #000000; stroke-width: 0.6"/>
      </g>
     </g>
    </g>
    <g id="ytick_42">
     <g id="line2d_63">
      <g>
       <use xlink:href="#m323c8b8f08" x="72" y="188.749994" style="stroke: #000000; stroke-width: 0.6"/>
      </g>
     </g>
    </g>
    <g id="ytick_43">
     <g id="line2d_64">
      <g>
       <use xlink:href="#m323c8b8f08" x="72" y="187.090029" style="stroke: #000000; stroke-width: 0.6"/>
      </g>
     </g>
    </g>
    <g id="ytick_44">
     <g id="line2d_65">
      <g>
       <use xlink:href="#m323c8b8f08" x="72" y="175.83633" style="stroke: #000000; stroke-width: 0.6"/>
      </g>
     </g>
    </g>
    <g id="ytick_45">
     <g id="line2d_66">
      <g>
       <use xlink:href="#m323c8b8f08" x="72" y="170.121942" style="stroke: #000000; stroke-width: 0.6"/>
      </g>
     </g>
    </g>
    <g id="ytick_46">
     <g id="line2d_67">
      <g>
       <use xlink:href="#m323c8b8f08" x="72" y="166.06752" style="stroke: #000000; stroke-width: 0.6"/>
      </g>
     </g>
    </g>
    <g id="ytick_47">
     <g id="line2d_68">
      <g>
       <use xlink:href="#m323c8b8f08" x="72" y="162.922665" style="stroke: #000000; stroke-width: 0.6"/>
      </g>
     </g>
    </g>
    <g id="ytick_48">
     <g id="line2d_69">
      <g>
       <use xlink:href="#m323c8b8f08" x="72" y="160.353132" style="stroke: #000000; stroke-width: 0.6"/>
      </g>
     </g>
    </g>
    <g id="ytick_49">
     <g id="line2d_70">
      <g>
       <use xlink:href="#m323c8b8f08" x="72" y="158.180623" style="stroke: #000000; stroke-width: 0.6"/>
      </g>
     </g>
    </g>
    <g id="ytick_50">
     <g id="line2d_71">
      <g>
       <use xlink:href="#m323c8b8f08" x="72" y="156.298709" style="stroke: #000000; stroke-width: 0.6"/>
      </g>
     </g>
    </g>
    <g id="ytick_51">
     <g id="line2d_72">
      <g>
       <use xlink:href="#m323c8b8f08" x="72" y="154.638744" style="stroke: #000000; stroke-width: 0.6"/>
      </g>
     </g>
    </g>
    <g id="ytick_52">
     <g id="line2d_73">
      <g>
       <use xlink:href="#m323c8b8f08" x="72" y="143.385045" style="stroke: #000000; stroke-width: 0.6"/>
      </g>
     </g>
    </g>
    <g id="ytick_53">
     <g id="line2d_74">
      <g>
       <use xlink:href="#m323c8b8f08" x="72" y="137.670657" style="stroke: #000000; stroke-width: 0.6"/>
      </g>
     </g>
    </g>
    <g id="ytick_54">
     <g id="line2d_75">
      <g>
       <use xlink:href="#m323c8b8f08" x="72" y="133.616235" style="stroke: #000000; stroke-width: 0.6"/>
      </g>
     </g>
    </g>
    <g id="ytick_55">
     <g id="line2d_76">
      <g>
       <use xlink:href="#m323c8b8f08" x="72" y="130.47138" style="stroke: #000000; stroke-width: 0.6"/>
      </g>
     </g>
    </g>
    <g id="ytick_56">
     <g id="line2d_77">
      <g>
       <use xlink:href="#m323c8b8f08" x="72" y="127.901847" style="stroke: #000000; stroke-width: 0.6"/>
      </g>
     </g>
    </g>
    <g id="ytick_57">
     <g id="line2d_78">
      <g>
       <use xlink:href="#m323c8b8f08" x="72" y="125.729338" style="stroke: #000000; stroke-width: 0.6"/>
      </g>
     </g>
    </g>
    <g id="ytick_58">
     <g id="line2d_79">
      <g>
       <use xlink:href="#m323c8b8f08" x="72" y="123.847424" style="stroke: #000000; stroke-width: 0.6"/>
      </g>
     </g>
    </g>
    <g id="ytick_59">
     <g id="line2d_80">
      <g>
       <use xlink:href="#m323c8b8f08" x="72" y="122.187459" style="stroke: #000000; stroke-width: 0.6"/>
      </g>
     </g>
    </g>
    <g id="ytick_60">
     <g id="line2d_81">
      <g>
       <use xlink:href="#m323c8b8f08" x="72" y="110.93376" style="stroke: #000000; stroke-width: 0.6"/>
      </g>
     </g>
    </g>
    <g id="ytick_61">
     <g id="line2d_82">
      <g>
       <use xlink:href="#m323c8b8f08" x="72" y="105.219372" style="stroke: #000000; stroke-width: 0.6"/>
      </g>
     </g>
    </g>
    <g id="ytick_62">
     <g id="line2d_83">
      <g>
       <use xlink:href="#m323c8b8f08" x="72" y="101.164949" style="stroke: #000000; stroke-width: 0.6"/>
      </g>
     </g>
    </g>
    <g id="ytick_63">
     <g id="line2d_84">
      <g>
       <use xlink:href="#m323c8b8f08" x="72" y="98.020095" style="stroke: #000000; stroke-width: 0.6"/>
      </g>
     </g>
    </g>
    <g id="ytick_64">
     <g id="line2d_85">
      <g>
       <use xlink:href="#m323c8b8f08" x="72" y="95.450562" style="stroke: #000000; stroke-width: 0.6"/>
      </g>
     </g>
    </g>
    <g id="ytick_65">
     <g id="line2d_86">
      <g>
       <use xlink:href="#m323c8b8f08" x="72" y="93.278052" style="stroke: #000000; stroke-width: 0.6"/>
      </g>
     </g>
    </g>
    <g id="ytick_66">
     <g id="line2d_87">
      <g>
       <use xlink:href="#m323c8b8f08" x="72" y="91.396139" style="stroke: #000000; stroke-width: 0.6"/>
      </g>
     </g>
    </g>
    <g id="ytick_67">
     <g id="line2d_88">
      <g>
       <use xlink:href="#m323c8b8f08" x="72" y="89.736174" style="stroke: #000000; stroke-width: 0.6"/>
      </g>
     </g>
    </g>
    <g id="ytick_68">
     <g id="line2d_89">
      <g>
       <use xlink:href="#m323c8b8f08" x="72" y="78.482475" style="stroke: #000000; stroke-width: 0.6"/>
      </g>
     </g>
    </g>
    <g id="ytick_69">
     <g id="line2d_90">
      <g>
       <use xlink:href="#m323c8b8f08" x="72" y="72.768087" style="stroke: #000000; stroke-width: 0.6"/>
      </g>
     </g>
    </g>
    <g id="ytick_70">
     <g id="line2d_91">
      <g>
       <use xlink:href="#m323c8b8f08" x="72" y="68.713664" style="stroke: #000000; stroke-width: 0.6"/>
      </g>
     </g>
    </g>
    <g id="ytick_71">
     <g id="line2d_92">
      <g>
       <use xlink:href="#m323c8b8f08" x="72" y="65.56881" style="stroke: #000000; stroke-width: 0.6"/>
      </g>
     </g>
    </g>
    <g id="ytick_72">
     <g id="line2d_93">
      <g>
       <use xlink:href="#m323c8b8f08" x="72" y="62.999277" style="stroke: #000000; stroke-width: 0.6"/>
      </g>
     </g>
    </g>
    <g id="ytick_73">
     <g id="line2d_94">
      <g>
       <use xlink:href="#m323c8b8f08" x="72" y="60.826767" style="stroke: #000000; stroke-width: 0.6"/>
      </g>
     </g>
    </g>
    <g id="ytick_74">
     <g id="line2d_95">
      <g>
       <use xlink:href="#m323c8b8f08" x="72" y="58.944854" style="stroke: #000000; stroke-width: 0.6"/>
      </g>
     </g>
    </g>
    <g id="ytick_75">
     <g id="line2d_96">
      <g>
       <use xlink:href="#m323c8b8f08" x="72" y="57.284889" style="stroke: #000000; stroke-width: 0.6"/>
      </g>
     </g>
    </g>
    <g id="ytick_76">
     <g id="line2d_97">
      <g>
       <use xlink:href="#m323c8b8f08" x="72" y="46.03119" style="stroke: #000000; stroke-width: 0.6"/>
      </g>
     </g>
    </g>
    <g id="text_17">
     <!-- CDF, $\mathrm{P}[Z &lt; z]$ -->
     <g transform="translate(35.420312 214.3) rotate(-90) scale(0.1 -0.1)">
      <defs>
       <path id="DejaVuSans-43" d="M 4122 4306 
L 4122 3641 
Q 3803 3938 3442 4084 
Q 3081 4231 2675 4231 
Q 1875 4231 1450 3742 
Q 1025 3253 1025 2328 
Q 1025 1406 1450 917 
Q 1875 428 2675 428 
Q 3081 428 3442 575 
Q 3803 722 4122 1019 
L 4122 359 
Q 3791 134 3420 21 
Q 3050 -91 2638 -91 
Q 1578 -91 968 557 
Q 359 1206 359 2328 
Q 359 3453 968 4101 
Q 1578 4750 2638 4750 
Q 3056 4750 3426 4639 
Q 3797 4528 4122 4306 
z
" transform="scale(0.015625)"/>
       <path id="DejaVuSans-44" d="M 1259 4147 
L 1259 519 
L 2022 519 
Q 2988 519 3436 956 
Q 3884 1394 3884 2338 
Q 3884 3275 3436 3711 
Q 2988 4147 2022 4147 
L 1259 4147 
z
M 628 4666 
L 1925 4666 
Q 3281 4666 3915 4102 
Q 4550 3538 4550 2338 
Q 4550 1131 3912 565 
Q 3275 0 1925 0 
L 628 0 
L 628 4666 
z
" transform="scale(0.015625)"/>
       <path id="DejaVuSans-46" d="M 628 4666 
L 3309 4666 
L 3309 4134 
L 1259 4134 
L 1259 2759 
L 3109 2759 
L 3109 2228 
L 1259 2228 
L 1259 0 
L 628 0 
L 628 4666 
z
" transform="scale(0.015625)"/>
       <path id="DejaVuSans-20" transform="scale(0.015625)"/>
       <path id="DejaVuSans-50" d="M 1259 4147 
L 1259 2394 
L 2053 2394 
Q 2494 2394 2734 2622 
Q 2975 2850 2975 3272 
Q 2975 3691 2734 3919 
Q 2494 4147 2053 4147 
L 1259 4147 
z
M 628 4666 
L 2053 4666 
Q 2838 4666 3239 4311 
Q 3641 3956 3641 3272 
Q 3641 2581 3239 2228 
Q 2838 1875 2053 1875 
L 1259 1875 
L 1259 0 
L 628 0 
L 628 4666 
z
" transform="scale(0.015625)"/>
       <path id="DejaVuSans-5b" d="M 550 4863 
L 1875 4863 
L 1875 4416 
L 1125 4416 
L 1125 -397 
L 1875 -397 
L 1875 -844 
L 550 -844 
L 550 4863 
z
" transform="scale(0.015625)"/>
       <path id="DejaVuSans-3c" d="M 4684 3150 
L 1459 2003 
L 4684 863 
L 4684 294 
L 678 1747 
L 678 2266 
L 4684 3719 
L 4684 3150 
z
" transform="scale(0.015625)"/>
       <path id="DejaVuSans-Oblique-7a" d="M 744 3500 
L 3475 3500 
L 3372 2975 
L 738 459 
L 2913 459 
L 2822 0 
L -19 0 
L 84 525 
L 2719 3041 
L 653 3041 
L 744 3500 
z
" transform="scale(0.015625)"/>
       <path id="DejaVuSans-5d" d="M 1947 4863 
L 1947 -844 
L 622 -844 
L 622 -397 
L 1369 -397 
L 1369 4416 
L 622 4416 
L 622 4863 
L 1947 4863 
z
" transform="scale(0.015625)"/>
      </defs>
      <use xlink:href="#DejaVuSans-43" transform="translate(0 0.015625)"/>
      <use xlink:href="#DejaVuSans-44" transform="translate(69.824219 0.015625)"/>
      <use xlink:href="#DejaVuSans-46" transform="translate(146.826172 0.015625)"/>
      <use xlink:href="#DejaVuSans-2c" transform="translate(204.345703 0.015625)"/>
      <use xlink:href="#DejaVuSans-20" transform="translate(236.132812 0.015625)"/>
      <use xlink:href="#DejaVuSans-50" transform="translate(267.919922 0.015625)"/>
      <use xlink:href="#DejaVuSans-5b" transform="translate(328.222656 0.015625)"/>
      <use xlink:href="#DejaVuSans-Oblique-5a" transform="translate(367.236328 0.015625)"/>
      <use xlink:href="#DejaVuSans-3c" transform="translate(455.224609 0.015625)"/>
      <use xlink:href="#DejaVuSans-Oblique-7a" transform="translate(558.496094 0.015625)"/>
      <use xlink:href="#DejaVuSans-5d" transform="translate(610.986328 0.015625)"/>
     </g>
    </g>
   </g>
   <g id="line2d_98">
    <path d="M 218.301664 242.897454 
L 218.301664 233.128644 
L 218.659183 233.128644 
L 218.659183 227.414256 
L 219.225481 227.414256 
L 219.225481 223.359833 
L 219.979403 223.359833 
L 219.979403 220.214979 
L 221.5496 220.214979 
L 221.5496 217.645446 
L 221.729103 217.645446 
L 221.834792 213.591023 
L 221.878882 213.591023 
L 221.96106 206.748561 
L 222.033426 206.748561 
L 222.033426 205.704126 
L 222.151355 205.704126 
L 222.157229 203.822213 
L 222.284563 203.822213 
L 222.368515 202.162248 
L 222.431716 202.162248 
L 222.529578 199.334113 
L 222.600212 199.334113 
L 222.678195 198.107825 
L 222.917331 198.107825 
L 223.023279 196.44786 
L 223.364106 196.44786 
L 223.431279 194.50085 
L 223.510082 194.50085 
L 223.599727 193.198995 
L 223.645277 193.198995 
L 223.717495 191.265363 
L 223.81152 191.265363 
L 223.890128 188.938825 
L 223.936015 188.938825 
L 224.036033 187.484607 
L 224.064298 187.484607 
L 224.173331 186.166506 
L 224.227429 186.166506 
L 224.28691 185.671949 
L 224.353457 185.671949 
L 224.353457 185.43103 
L 224.476998 185.43103 
L 224.523147 184.506541 
L 224.713276 184.506541 
L 224.814223 184.066086 
L 224.842959 184.066086 
L 224.952487 182.238482 
L 225.009187 182.238482 
L 225.009187 182.049306 
L 225.124677 182.049306 
L 225.15342 181.317016 
L 225.252964 181.317016 
L 225.252964 181.139738 
L 225.365554 181.139738 
L 225.406625 180.620904 
L 225.555503 180.620904 
L 225.632259 179.796492 
L 225.671246 179.796492 
L 225.748556 178.866919 
L 225.862388 178.866919 
L 225.966126 178.136527 
L 225.98797 178.136527 
L 226.064716 177.715797 
L 226.203594 177.715797 
L 226.203594 177.578299 
L 226.317179 177.578299 
L 226.426198 176.27242 
L 226.43684 176.27242 
L 226.531452 175.308392 
L 226.556953 175.308392 
L 226.667846 174.406106 
L 226.700669 174.297276 
L 226.763869 173.661375 
L 226.847255 173.558126 
L 226.958316 172.661422 
L 226.999162 172.565221 
L 227.109334 172.093826 
L 227.130343 172.001409 
L 227.238908 171.370928 
L 227.272327 171.283118 
L 227.374887 170.767448 
L 227.465237 170.683308 
L 227.565294 170.107987 
L 227.610274 170.027682 
L 227.693406 169.324818 
L 227.746604 169.248842 
L 227.837424 168.728182 
L 227.874552 168.655348 
L 227.968896 168.085839 
L 228.082588 168.016242 
L 228.18909 167.338544 
L 228.241227 167.272532 
L 228.338043 166.882828 
L 228.401598 166.818912 
L 228.461159 166.379438 
L 228.520684 166.31776 
L 228.625606 165.774478 
L 228.684748 165.715386 
L 228.775374 165.081219 
L 228.809221 165.024958 
L 228.914024 164.36678 
L 228.948135 164.260011 
L 229.05169 163.789315 
L 229.107293 163.686817 
L 229.214759 162.989475 
L 229.224329 162.892612 
L 229.332492 162.140785 
L 229.376538 162.049565 
L 229.481548 161.254115 
L 229.524485 161.16844 
L 229.633325 160.379501 
L 229.685139 160.298967 
L 229.792856 159.480032 
L 229.814141 159.404464 
L 229.921942 158.741988 
L 229.972003 158.634541 
L 230.082562 157.803239 
L 230.115031 157.702691 
L 230.224445 157.146084 
L 230.243423 157.050102 
L 230.341013 156.579755 
L 230.37616 156.48754 
L 230.482682 155.82913 
L 230.506349 155.741683 
L 230.615176 155.088699 
L 230.632144 154.978162 
L 230.732253 154.438118 
L 230.784934 154.332549 
L 230.893447 153.765645 
L 230.932658 153.664977 
L 231.041551 152.672584 
L 231.073964 152.579404 
L 231.18142 151.899526 
L 231.205037 151.789334 
L 231.311911 151.293264 
L 231.328622 151.187695 
L 231.429753 150.570366 
L 231.461877 150.470057 
L 231.570453 149.844449 
L 231.601661 149.749159 
L 231.706786 149.318935 
L 231.742986 149.208829 
L 231.848657 148.583147 
L 231.866011 148.478622 
L 231.970382 148.034429 
L 231.997092 147.933881 
L 232.105713 147.201802 
L 232.120837 147.091265 
L 232.229419 146.415634 
L 232.256193 146.311072 
L 232.36251 145.770917 
L 232.400432 145.671014 
L 232.5099 145.113338 
L 232.520984 145.017974 
L 232.520984 145.004403 
L 232.629495 144.485078 
L 232.661095 144.380875 
L 232.770446 143.908711 
L 232.805365 143.808668 
L 232.915268 143.187068 
L 232.943866 143.080164 
L 233.051513 142.523315 
L 233.084122 142.421312 
L 233.194695 141.84599 
L 233.216941 141.737994 
L 233.327925 141.096557 
L 233.35799 140.994134 
L 233.464922 140.433924 
L 233.485308 140.326452 
L 233.594813 139.848015 
L 233.620039 139.744903 
L 233.727765 139.141591 
L 233.748459 139.03462 
L 233.85866 138.563049 
L 233.880419 138.460364 
L 233.991329 137.999069 
L 234.011115 137.892206 
L 234.121277 137.369722 
L 234.137638 137.259678 
L 234.244883 136.744617 
L 234.271755 136.63933 
L 234.381754 136.240433 
L 234.406426 136.131603 
L 234.514815 135.571901 
L 234.539916 135.461201 
L 234.650919 134.927014 
L 234.684781 134.821247 
L 234.794895 134.323058 
L 234.813066 134.215401 
L 234.922923 133.604293 
L 234.944838 133.50197 
L 234.944838 133.495974 
L 235.054021 132.960754 
L 235.08763 132.851524 
L 235.196202 132.306702 
L 235.223117 132.202408 
L 235.223117 132.19694 
L 235.331645 131.734466 
L 235.361709 131.623805 
L 235.470945 131.17439 
L 235.499513 131.068024 
L 235.609714 130.591749 
L 235.634251 130.484833 
L 235.74486 130.036931 
L 235.763143 129.929472 
L 235.874043 129.422082 
L 235.899455 129.314737 
L 236.008534 128.768497 
L 236.033552 128.657491 
L 236.142146 128.152087 
L 236.171945 128.041742 
L 236.282467 127.57332 
L 236.30998 127.46349 
L 236.417966 127.028747 
L 236.439661 126.919305 
L 236.550252 126.417103 
L 236.573126 126.308691 
L 236.683943 125.810039 
L 236.716692 125.699285 
L 236.827479 125.28819 
L 236.848945 125.178124 
L 236.959681 124.649926 
L 236.987694 124.541539 
L 237.098703 123.93247 
L 237.120366 123.835482 
L 237.120366 123.823406 
L 237.227547 123.290398 
L 237.253107 123.183289 
L 237.253107 123.180406 
L 237.362461 122.65407 
L 237.384341 122.543402 
L 237.495414 121.968302 
L 237.519839 121.85762 
L 237.630068 121.385257 
L 237.653568 121.276525 
L 237.764255 120.76695 
L 237.788098 120.658045 
L 237.8976 120.174632 
L 237.924663 120.065569 
L 238.035522 119.514772 
L 238.064782 119.404061 
L 238.175635 118.903573 
L 238.196703 118.793319 
L 238.307579 118.325953 
L 238.337249 118.216055 
L 238.447622 117.684916 
L 238.471223 117.574073 
L 238.581191 117.026983 
L 238.605884 116.917479 
L 238.716641 116.382371 
L 238.737784 116.274212 
L 238.737784 116.272446 
L 238.848718 115.774479 
L 238.875182 115.664102 
L 238.98561 115.121566 
L 239.006323 115.011321 
L 239.116756 114.474228 
L 239.145386 114.364286 
L 239.256182 113.818179 
L 239.275722 113.707328 
L 239.386756 113.191314 
L 239.407756 113.082452 
L 239.407756 113.081043 
L 239.518755 112.513836 
L 239.538186 112.406036 
L 239.538186 112.403352 
L 239.648832 111.877776 
L 239.667666 111.768299 
L 239.667666 111.767016 
L 239.778447 111.276619 
L 239.801376 111.165549 
L 239.911179 110.66917 
L 239.936586 110.559236 
L 240.046939 110.075443 
L 240.071079 109.964381 
L 240.181971 109.46317 
L 240.204232 109.353569 
L 240.204232 109.352488 
L 240.314074 108.823201 
L 240.345957 108.712249 
L 240.456983 108.235975 
L 240.484526 108.128543 
L 240.484526 108.125571 
L 240.595237 107.631048 
L 240.62059 107.520519 
L 240.731061 107.096997 
L 240.755676 106.985992 
L 240.866682 106.497456 
L 240.892409 106.386677 
L 241.00333 105.889373 
L 241.026857 105.77906 
L 241.137752 105.27161 
L 241.157807 105.162798 
L 241.157807 105.161193 
L 241.268695 104.637184 
L 241.2948 104.527771 
L 241.2948 104.526236 
L 241.405838 104.047885 
L 241.42992 103.937782 
L 241.42992 103.937046 
L 241.540835 103.404774 
L 241.564409 103.293938 
L 241.675325 102.785664 
L 241.699141 102.674862 
L 241.810134 102.175062 
L 241.834208 102.065717 
L 241.834208 102.064428 
L 241.944899 101.546269 
L 241.968077 101.43613 
L 241.968077 101.435514 
L 242.079163 100.946718 
L 242.101906 100.836423 
L 242.101906 100.835832 
L 242.212472 100.363065 
L 242.23867 100.253259 
L 242.23867 100.252126 
L 242.349686 99.769181 
L 242.374982 99.658456 
L 242.485759 99.183547 
L 242.513091 99.07262 
L 242.623903 98.567877 
L 242.652786 98.457183 
L 242.76376 97.983769 
L 242.79026 97.872765 
L 242.90126 97.41225 
L 242.928266 97.301503 
L 243.039361 96.852763 
L 243.066523 96.741892 
L 243.177428 96.263735 
L 243.201955 96.153571 
L 243.201955 96.152724 
L 243.313058 95.690139 
L 243.338295 95.579063 
L 243.449199 95.108259 
L 243.47241 94.998146 
L 243.47241 94.997366 
L 243.58352 94.536983 
L 243.611546 94.425979 
L 243.722353 93.956026 
L 243.747148 93.845532 
L 243.747148 93.845172 
L 243.858203 93.394589 
L 243.885803 93.284245 
L 243.885803 93.283554 
L 243.996819 92.83724 
L 244.026032 92.726175 
L 244.136984 92.264397 
L 244.164376 92.155505 
L 244.164376 92.153591 
L 244.275477 91.694157 
L 244.30297 91.584051 
L 244.30297 91.583132 
L 244.413977 91.160357 
L 244.441758 91.049313 
L 244.552602 90.605111 
L 244.580462 90.494087 
L 244.691383 90.032442 
L 244.718765 89.92201 
L 244.718765 89.921465 
L 244.829802 89.466311 
L 244.85761 89.356287 
L 244.85761 89.355241 
L 244.96871 88.894428 
L 244.994581 88.784241 
L 244.994581 88.783487 
L 245.105475 88.309106 
L 245.131935 88.198325 
L 245.131935 88.198084 
L 245.243012 87.737098 
L 245.269728 87.626309 
L 245.269728 87.626078 
L 245.380629 87.141505 
L 245.40685 87.030404 
L 245.517533 86.562983 
L 245.542592 86.452075 
L 245.653646 85.959508 
L 245.680089 85.848949 
L 245.680089 85.848541 
L 245.791089 85.35224 
L 245.818913 85.241832 
L 245.818913 85.241246 
L 245.929825 84.73968 
L 245.95659 84.629461 
L 245.95659 84.628713 
L 246.067559 84.15065 
L 246.09234 84.039902 
L 246.09234 84.039543 
L 246.203233 83.538612 
L 246.228086 83.428087 
L 246.228086 83.427571 
L 246.339025 82.946737 
L 246.364824 82.835964 
L 246.364824 82.835635 
L 246.475845 82.35817 
L 246.500625 82.247646 
L 246.500625 82.247172 
L 246.611724 81.773943 
L 246.635058 81.662888 
L 246.746038 81.171352 
L 246.77161 81.060572 
L 246.77161 81.060281 
L 246.882645 80.584487 
L 246.90946 80.47375 
L 246.90946 80.473471 
L 247.02052 80.014613 
L 247.044395 79.903967 
L 247.044395 79.903566 
L 247.155487 79.415505 
L 247.180635 79.304447 
L 247.291553 78.80639 
L 247.318815 78.695469 
L 247.318815 78.695346 
L 247.429894 78.21919 
L 247.454885 78.108539 
L 247.454885 78.108186 
L 247.565867 77.626547 
L 247.592167 77.515467 
L 247.703251 77.031726 
L 247.73022 76.921322 
L 247.73022 76.920672 
L 247.841209 76.445081 
L 247.86855 76.3348 
L 247.86855 76.334073 
L 247.979605 75.851952 
L 248.005696 75.74142 
L 248.005696 75.740922 
L 248.116733 75.244866 
L 248.141516 75.133826 
L 248.252621 74.645436 
L 248.278551 74.534433 
L 248.278551 74.534342 
L 248.389459 74.035759 
L 248.414966 73.924887 
L 248.414966 73.924712 
L 248.526076 73.406928 
L 248.550848 73.296021 
L 248.550848 73.295853 
L 248.661883 72.801242 
L 248.685197 72.690332 
L 248.685197 72.690172 
L 248.796278 72.198823 
L 248.820449 72.088541 
L 248.820449 72.087773 
L 248.931487 71.599567 
L 248.957242 71.488706 
L 248.957242 71.488485 
L 249.068164 70.991245 
L 249.093959 70.880889 
L 249.093959 70.880183 
L 249.205018 70.362624 
L 249.230708 70.251533 
L 249.341766 69.74757 
L 249.366229 69.637331 
L 249.366229 69.636492 
L 249.477204 69.136665 
L 249.501973 69.025583 
L 249.612947 68.523082 
L 249.638358 68.412394 
L 249.638358 68.41198 
L 249.749452 67.911723 
L 249.7742 67.800728 
L 249.7742 67.800614 
L 249.885283 67.302846 
L 249.910499 67.191804 
L 249.910499 67.19175 
L 250.021581 66.701827 
L 250.046573 66.590879 
L 250.046573 66.590723 
L 250.157615 66.10463 
L 250.183526 65.99368 
L 250.183526 65.99353 
L 250.294574 65.514067 
L 250.321487 65.403111 
L 250.321487 65.402968 
L 250.432488 64.927326 
L 250.458707 64.816383 
L 250.458707 64.816246 
L 250.569792 64.348328 
L 250.597084 64.237873 
L 250.597084 64.237256 
L 250.708172 63.79312 
L 250.735568 63.682218 
L 250.735568 63.682049 
L 250.846661 63.240658 
L 250.876366 63.129568 
L 250.987403 62.708841 
L 251.018128 62.597853 
L 251.018128 62.597735 
L 251.129175 62.194422 
L 251.159835 62.083356 
L 251.159835 62.083318 
L 251.270924 61.687467 
L 251.302492 61.576593 
L 251.302492 61.576374 
L 251.413567 61.19386 
L 251.448386 61.082812 
L 251.448386 61.082776 
L 251.559428 60.742761 
L 251.599365 60.631789 
L 251.599365 60.631653 
L 251.710446 60.328846 
L 251.753808 60.21783 
L 251.753808 60.217764 
L 251.864907 59.961171 
L 251.918253 59.850199 
L 251.918253 59.85007 
L 252.029349 59.642939 
L 252.095459 59.531851 
L 252.206447 59.365893 
L 252.290509 59.254795 
L 252.401594 59.119232 
L 252.501437 59.008293 
L 252.501437 59.008141 
L 252.612454 58.890328 
L 252.733289 58.779227 
L 252.844063 58.683054 
L 252.989497 58.572038 
L 252.989497 58.571949 
L 253.100395 58.496577 
L 253.250805 58.385474 
L 253.361756 58.31294 
L 253.552758 58.201836 
L 253.663764 58.140913 
L 253.880419 58.029849 
L 253.880419 58.029821 
L 253.991327 57.976887 
L 254.237388 57.865815 
L 254.237388 57.865787 
L 254.348478 57.819185 
L 254.634258 57.708098 
L 254.745363 57.669384 
L 255.085461 57.558371 
L 255.085461 57.558289 
L 255.196473 57.524931 
L 255.589085 57.413879 
L 255.589085 57.413825 
L 255.700151 57.381807 
L 256.143363 57.270719 
L 256.254337 57.24457 
L 256.778565 57.133464 
L 256.889229 57.113009 
L 257.50967 57.001904 
L 257.620543 56.984085 
L 258.347533 56.873023 
L 258.347533 56.872997 
L 258.458157 56.856852 
L 259.382292 56.745774 
L 259.382292 56.745748 
L 259.493018 56.732952 
L 260.553691 56.621844 
L 260.663265 56.611618 
L 261.955731 56.500544 
L 261.955731 56.500518 
L 262.066232 56.492032 
L 263.809428 56.380934 
L 263.919721 56.374862 
L 266.258595 56.263755 
L 266.369556 56.258832 
L 269.459573 56.147741 
L 269.567145 56.1438 
L 274.460125 56.032699 
L 274.570031 56.030511 
L 283.724753 55.919417 
L 283.835014 55.918417 
L 326.428267 55.807329 
L 326.500327 55.807257 
L 398.600545 55.800024 
L 398.600545 55.800024 
" clip-path="url(#p8f2066c907)" style="fill: none; stroke: #000000; stroke-width: 1.5; stroke-linecap: square"/>
   </g>
   <g id="line2d_99">
    <path d="M 92.290909 307.8 
L 92.290909 298.03119 
L 93.17614 298.03119 
L 93.17614 292.316802 
L 99.698818 292.316802 
L 99.698818 288.26238 
L 115.037223 288.26238 
L 115.037223 285.117525 
L 117.635281 285.117525 
L 117.635281 282.547992 
L 118.127713 282.547992 
L 118.127713 280.375483 
L 119.318523 280.375483 
L 119.318523 278.493569 
L 120.292936 278.493569 
L 120.292936 276.833604 
L 122.929327 276.833604 
L 122.929327 275.348715 
L 123.331342 275.348715 
L 123.36201 272.779182 
L 123.608927 272.779182 
L 123.608927 271.651107 
L 128.966017 271.651107 
L 128.966017 270.606672 
L 130.387015 270.606672 
L 130.472182 268.724759 
L 131.135725 268.724759 
L 131.135725 267.870351 
L 131.304738 267.870351 
L 131.304738 267.064794 
L 131.558234 267.064794 
L 131.558234 266.302802 
L 132.014598 266.302802 
L 132.014598 265.579905 
L 132.818746 265.579905 
L 132.818746 264.892285 
L 133.379047 264.892285 
L 133.38817 263.610182 
L 134.545856 263.610182 
L 134.545856 263.010372 
L 134.722987 263.010372 
L 134.744452 261.882297 
L 135.024094 261.882297 
L 135.024094 261.350406 
L 135.152836 261.350406 
L 135.152836 260.837862 
L 135.758341 260.837862 
L 135.831111 259.865517 
L 136.789064 259.865517 
L 136.789064 259.403397 
L 137.171872 259.403397 
L 137.171872 258.955949 
L 137.646541 258.955949 
L 137.646541 258.522271 
L 138.321682 258.522271 
L 138.321682 258.101541 
L 140.127386 258.101541 
L 140.127386 257.693008 
L 140.783288 257.693008 
L 140.783288 257.295984 
L 141.001006 257.295984 
L 141.001006 256.909839 
L 141.299158 256.909839 
L 141.299158 256.533992 
L 141.804037 256.533992 
L 141.804037 256.167909 
L 143.208702 256.167909 
L 143.208702 255.811095 
L 144.065882 255.811095 
L 144.065882 255.463091 
L 144.221403 255.463091 
L 144.282323 254.79185 
L 144.811617 254.79185 
L 144.811617 254.467849 
L 145.575949 254.467849 
L 145.67977 253.841372 
L 145.7054 253.841372 
L 145.7054 253.538276 
L 146.086666 253.538276 
L 146.184353 252.950965 
L 146.203718 252.950965 
L 146.203718 252.66624 
L 146.417778 252.66624 
L 146.417778 252.387153 
L 146.662765 252.387153 
L 146.662765 252.113486 
L 146.847963 252.113486 
L 146.847963 251.845032 
L 147.088823 251.845032 
L 147.088823 251.581596 
L 147.495709 251.581596 
L 147.546222 251.069052 
L 148.039528 251.069052 
L 148.097372 250.574496 
L 148.254987 250.574496 
L 148.254987 250.333577 
L 148.748366 250.333577 
L 148.748366 250.096707 
L 148.989172 250.096707 
L 148.989172 249.863753 
L 149.237845 249.863753 
L 149.274245 249.409087 
L 149.382725 249.409087 
L 149.393789 248.968632 
L 149.725467 248.968632 
L 149.725467 248.753461 
L 149.924537 248.753461 
L 150.035115 248.126984 
L 150.106681 248.126984 
L 150.106681 247.924198 
L 150.220542 247.924198 
L 150.288809 247.332779 
L 150.38747 247.332779 
L 150.469548 246.765182 
L 150.678696 246.765182 
L 150.678696 246.580952 
L 150.948471 246.580952 
L 151.026331 246.042284 
L 151.117134 246.042284 
L 151.150132 245.694281 
L 151.412423 245.694281 
L 151.426924 245.354664 
L 151.54095 245.354664 
L 151.633093 245.023039 
L 152.093127 245.023039 
L 152.124553 244.699039 
L 152.290433 244.699039 
L 152.290433 244.539789 
L 152.496033 244.539789 
L 152.501198 244.226589 
L 152.761336 244.226589 
L 152.761336 244.072561 
L 152.971395 244.072561 
L 153.062337 243.769466 
L 153.14315 243.769466 
L 153.187623 243.472751 
L 153.541508 243.472751 
L 153.541508 243.326704 
L 153.667623 243.326704 
L 153.667623 243.182155 
L 153.791192 243.182155 
L 153.791192 243.039073 
L 154.213685 243.039073 
L 154.213685 242.89743 
L 154.327277 242.89743 
L 154.428119 242.480845 
L 154.455942 242.480845 
L 154.566751 242.20981 
L 154.570943 242.20981 
L 154.570943 242.076222 
L 154.686493 242.076222 
L 154.686493 241.943889 
L 154.804016 241.943889 
L 154.905911 241.682892 
L 155.000021 241.682892 
L 155.079819 241.300242 
L 155.261993 241.300242 
L 155.365351 240.564766 
L 155.373434 240.564766 
L 155.454015 240.327897 
L 155.50844 240.327897 
L 155.50844 240.210938 
L 155.731754 240.210938 
L 155.731754 240.094942 
L 155.969895 240.094942 
L 155.969895 239.979894 
L 156.202879 239.979894 
L 156.257004 239.752575 
L 156.58465 239.752575 
L 156.667635 239.528866 
L 156.897937 239.418329 
L 156.982975 238.984651 
L 157.317793 238.878285 
L 157.317793 238.772716 
L 157.547217 238.667932 
L 157.636756 238.256416 
L 157.869632 238.155387 
L 157.970397 237.758364 
L 158.332098 237.660831 
L 158.372798 237.372218 
L 158.670585 237.277313 
L 158.715931 237.089398 
L 159.057546 236.996372 
L 159.073023 236.812142 
L 159.268759 236.720922 
L 159.268759 236.630289 
L 159.439744 236.540234 
L 159.485078 236.185664 
L 159.592671 236.098398 
L 159.592671 236.011669 
L 159.79672 235.925471 
L 159.883366 235.669994 
L 160.041907 235.585854 
L 160.041907 235.502213 
L 160.240803 235.419066 
L 160.240803 235.336407 
L 160.384496 235.254229 
L 160.399027 235.091298 
L 160.595778 235.010533 
L 160.595778 234.930228 
L 160.842062 234.850379 
L 160.952856 234.535429 
L 161.068889 234.457779 
L 161.147557 234.151389 
L 161.220638 234.07582 
L 161.220638 234.000655 
L 161.436846 233.925889 
L 161.497523 233.703941 
L 161.673522 233.630728 
L 161.720751 233.413345 
L 161.815091 233.341622 
L 161.862907 233.12862 
L 162.062965 233.058328 
L 162.116396 232.918788 
L 162.223677 232.849533 
L 162.31944 232.508272 
L 162.52871 232.441 
L 162.554363 232.307412 
L 162.655161 232.24109 
L 162.737109 231.849581 
L 162.840507 231.785374 
L 162.907246 231.59449 
L 163.111187 231.531432 
L 163.215463 231.220306 
L 163.299419 231.158897 
L 163.377781 230.855801 
L 163.417936 230.795956 
L 163.51482 230.617932 
L 163.563312 230.559087 
L 163.673694 230.326132 
L 163.771211 230.26849 
L 163.879584 230.153909 
L 163.986694 230.096966 
L 164.084036 229.704679 
L 164.318821 229.594573 
L 164.377845 229.431012 
L 164.547117 229.323015 
L 164.654647 229.162557 
L 164.80513 229.056591 
L 164.889366 228.84702 
L 164.946777 228.743392 
L 165.038807 228.589364 
L 165.167591 228.487606 
L 165.222825 228.186667 
L 165.467771 228.087766 
L 165.573423 227.698957 
L 165.641824 227.603408 
L 165.737828 227.461289 
L 165.807066 227.367332 
L 165.807066 227.320588 
L 165.947462 227.227562 
L 165.974791 227.135145 
L 166.160502 227.043331 
L 166.218109 226.952112 
L 166.31622 226.861478 
L 166.426206 226.593024 
L 166.562063 226.504664 
L 166.655168 226.329588 
L 166.724449 226.242859 
L 166.807443 226.070986 
L 166.865034 225.985829 
L 166.971597 225.650256 
L 167.065825 225.567597 
L 167.160753 225.322487 
L 167.270625 225.241723 
L 167.359021 225.002169 
L 167.495767 224.923214 
L 167.606744 224.688969 
L 167.679007 224.611745 
L 167.755208 224.420515 
L 167.952195 224.344744 
L 168.060612 224.157079 
L 168.272671 224.082707 
L 168.379503 223.898477 
L 168.565565 223.789084 
L 168.672352 223.465908 
L 168.718743 223.35981 
L 168.817555 223.219575 
L 168.891183 223.115308 
L 168.936939 222.909059 
L 169.091245 222.807056 
L 169.19101 222.67219 
L 169.306301 222.57188 
L 169.415334 222.24258 
L 169.505227 222.145272 
L 169.600403 221.98457 
L 169.789408 221.889021 
L 169.897962 221.699844 
L 170.002088 221.6062 
L 170.092714 221.451496 
L 170.187294 221.359482 
L 170.278518 221.237724 
L 170.332235 221.147091 
L 170.437017 220.937853 
L 170.484174 220.849122 
L 170.565823 220.760946 
L 170.75509 220.673318 
L 170.85569 220.528472 
L 170.981849 220.442273 
L 171.079301 220.158694 
L 171.128915 220.074721 
L 171.216938 219.935868 
L 171.373071 219.825763 
L 171.4755 219.6081 
L 171.615598 219.500516 
L 171.624706 219.44703 
L 171.820506 219.340665 
L 171.918911 219.000417 
L 172.051578 218.897357 
L 172.161473 218.718795 
L 172.327235 218.617767 
L 172.397797 218.417857 
L 172.53078 218.318955 
L 172.639366 218.050501 
L 172.724431 217.954136 
L 172.812036 217.810812 
L 172.885254 217.716066 
L 172.989062 217.48195 
L 173.073896 217.389383 
L 173.164275 217.137912 
L 173.310471 217.047569 
L 173.399026 216.913132 
L 173.542837 216.802072 
L 173.653607 216.648044 
L 173.774959 216.539046 
L 173.871425 216.387851 
L 173.963228 216.280839 
L 174.053185 216.153488 
L 174.107885 216.048234 
L 174.202134 215.881446 
L 174.349549 215.778197 
L 174.444152 215.573941 
L 174.58566 215.472913 
L 174.69087 215.233359 
L 174.752906 215.134734 
L 174.857565 214.95893 
L 174.938636 214.862201 
L 175.029918 214.557054 
L 175.092684 214.463035 
L 175.190572 214.166321 
L 175.254752 214.056644 
L 175.36127 213.875724 
L 175.486081 213.768277 
L 175.597176 213.573394 
L 175.68498 213.468218 
L 175.792686 213.294652 
L 175.854762 213.191529 
L 175.963749 213.072165 
L 176.038299 212.970651 
L 176.142643 212.836427 
L 176.224417 212.736591 
L 176.327002 212.604568 
L 176.450003 212.506355 
L 176.554185 212.295881 
L 176.656686 212.199789 
L 176.76058 211.978091 
L 176.923992 211.868536 
L 177.022682 211.621276 
L 177.125875 211.51445 
L 177.233617 211.37828 
L 177.338558 211.273273 
L 177.437325 211.109826 
L 177.530065 211.006793 
L 177.639425 210.889956 
L 177.783551 210.788512 
L 177.892109 210.602031 
L 177.934866 210.502632 
L 178.039999 210.278031 
L 178.107977 210.167058 
L 178.214555 209.988571 
L 178.321253 209.879846 
L 178.430947 209.731706 
L 178.534057 209.624937 
L 178.640583 209.400704 
L 178.68891 209.296404 
L 178.783428 209.128547 
L 178.855966 209.026235 
L 178.953194 208.89938 
L 179.09773 208.798713 
L 179.199466 208.661458 
L 179.316122 208.56247 
L 179.419874 208.366555 
L 179.479546 208.257538 
L 179.579922 208.101543 
L 179.686405 207.994549 
L 179.795753 207.841422 
L 179.879017 207.736378 
L 179.98665 207.551543 
L 180.055617 207.448629 
L 180.163573 207.323858 
L 180.236258 207.222587 
L 180.34661 207.077581 
L 180.462401 206.967044 
L 180.567436 206.835533 
L 180.685399 206.726871 
L 180.790886 206.533366 
L 180.862996 206.427 
L 180.97261 206.237541 
L 181.098166 206.133377 
L 181.197705 205.947799 
L 181.263793 205.845746 
L 181.372382 205.623798 
L 181.479738 205.514121 
L 181.584612 205.316869 
L 181.647537 205.209546 
L 181.757832 204.98775 
L 181.854048 204.882894 
L 181.963555 204.619458 
L 182.021537 204.517298 
L 182.129216 204.296941 
L 182.205581 204.188041 
L 182.316565 204.088949 
L 182.378526 203.981639 
L 182.489304 203.743136 
L 182.598497 203.638416 
L 182.704785 203.482782 
L 182.77082 203.379973 
L 182.871487 203.244049 
L 182.972429 203.134569 
L 183.075832 202.959493 
L 183.152399 202.852193 
L 183.260414 202.680569 
L 183.316036 202.575364 
L 183.42152 202.375227 
L 183.531581 202.264379 
L 183.64067 202.13094 
L 183.705264 202.02199 
L 183.813925 201.867793 
L 183.889179 201.760851 
L 183.997856 201.594421 
L 184.08166 201.489526 
L 184.186611 201.296767 
L 184.261345 201.186747 
L 184.368149 201.005269 
L 184.445732 200.897493 
L 184.549862 200.712612 
L 184.608475 200.607043 
L 184.708847 200.481395 
L 184.848308 200.370641 
L 184.958287 200.25391 
L 185.029473 200.144923 
L 185.136005 200.016585 
L 185.207025 199.90941 
L 185.31242 199.717209 
L 185.397292 199.612279 
L 185.506832 199.417615 
L 185.596805 199.308488 
L 185.704921 199.124257 
L 185.775075 199.01737 
L 185.885661 198.886441 
L 185.982177 198.781335 
L 186.088072 198.628178 
L 186.179444 198.518926 
L 186.276957 198.350644 
L 186.383297 198.243515 
L 186.493153 198.090196 
L 186.551189 197.9792 
L 186.656756 197.75407 
L 186.762685 197.645681 
L 186.873004 197.481835 
L 186.930493 197.375511 
L 187.040327 197.187227 
L 187.099662 197.077636 
L 187.210227 196.936429 
L 187.327975 196.828763 
L 187.436689 196.679399 
L 187.513318 196.568406 
L 187.622426 196.380142 
L 187.689637 196.271472 
L 187.797491 196.092197 
L 187.868585 195.985716 
L 187.977693 195.819998 
L 188.083782 195.710592 
L 188.19403 195.528485 
L 188.299675 195.42131 
L 188.4087 195.252467 
L 188.501966 195.142604 
L 188.611972 194.925415 
L 188.693865 194.818062 
L 188.801563 194.637879 
L 188.863744 194.52813 
L 188.972057 194.342599 
L 189.047941 194.235118 
L 189.155139 194.06219 
L 189.22599 193.952445 
L 189.335994 193.778611 
L 189.404111 193.671043 
L 189.504977 193.471013 
L 189.556879 193.361565 
L 189.662585 193.1824 
L 189.718957 193.075163 
L 189.827674 192.883357 
L 189.916071 192.77434 
L 190.025476 192.614368 
L 190.094846 192.503458 
L 190.203923 192.366037 
L 190.28155 192.257056 
L 190.391239 192.098983 
L 190.472445 191.988236 
L 190.582607 191.788059 
L 190.663369 191.679719 
L 190.77187 191.50956 
L 190.836296 191.399684 
L 190.946951 191.214838 
L 191.003437 191.107226 
L 191.111954 190.93321 
L 191.184582 190.824217 
L 191.29551 190.636348 
L 191.356067 190.526189 
L 191.466527 190.345611 
L 191.53221 190.237692 
L 191.642744 190.087317 
L 191.720035 189.978052 
L 191.829975 189.77503 
L 191.92895 189.664925 
L 192.037698 189.453615 
L 192.102565 189.34283 
L 192.213565 189.170479 
L 192.290158 189.061889 
L 192.392588 188.914313 
L 192.47635 188.804636 
L 192.582532 188.668729 
L 192.658974 188.557957 
L 192.769123 188.377213 
L 192.824433 188.2687 
L 192.935477 188.097376 
L 193.007957 187.988124 
L 193.114497 187.811669 
L 193.179703 187.701795 
L 193.286201 187.537186 
L 193.388974 187.426671 
L 193.499693 187.240761 
L 193.576969 187.129842 
L 193.684664 186.92386 
L 193.75752 186.812763 
L 193.868002 186.629525 
L 193.948204 186.520715 
L 194.058934 186.351408 
L 194.136826 186.242185 
L 194.247535 186.051187 
L 194.304754 185.941781 
L 194.415847 185.76212 
L 194.482797 185.6525 
L 194.59304 185.433395 
L 194.662789 185.323922 
L 194.773637 185.16129 
L 194.840356 185.051577 
L 194.947164 184.862184 
L 195.031844 184.752489 
L 195.142266 184.549085 
L 195.21279 184.439565 
L 195.323819 184.262565 
L 195.390337 184.153058 
L 195.500604 183.970982 
L 195.574372 183.861572 
L 195.681248 183.693753 
L 195.742828 183.584371 
L 195.853226 183.399107 
L 195.929603 183.289927 
L 196.035274 183.110494 
L 196.102926 182.999498 
L 196.213798 182.805847 
L 196.272179 182.695247 
L 196.380758 182.509587 
L 196.458457 182.399353 
L 196.569507 182.213722 
L 196.641848 182.103883 
L 196.752489 181.914631 
L 196.824061 181.805243 
L 196.932355 181.619933 
L 197.002986 181.509182 
L 197.113681 181.33663 
L 197.172271 181.226302 
L 197.282488 181.029163 
L 197.341046 180.919473 
L 197.451529 180.736819 
L 197.518051 180.625975 
L 197.627332 180.450417 
L 197.688646 180.340128 
L 197.799092 180.131945 
L 197.88194 180.020857 
L 197.992538 179.841383 
L 198.062019 179.730958 
L 198.172564 179.514242 
L 198.231195 179.403226 
L 198.341234 179.237556 
L 198.400846 179.127163 
L 198.511409 178.916459 
L 198.580324 178.805558 
L 198.690791 178.63345 
L 198.755433 178.523281 
L 198.866184 178.354565 
L 198.932599 178.243678 
L 199.04292 178.06692 
L 199.112859 177.956859 
L 199.223216 177.7767 
L 199.288359 177.666119 
L 199.399379 177.490976 
L 199.464683 177.379907 
L 199.574786 177.186954 
L 199.631401 177.076926 
L 199.741878 176.880234 
L 199.805141 176.769982 
L 199.913963 176.609397 
L 199.979539 176.4987 
L 200.089153 176.301111 
L 200.159909 176.19032 
L 200.270402 176.004319 
L 200.337737 175.893399 
L 200.448593 175.680123 
L 200.52521 175.569343 
L 200.634449 175.387794 
L 200.70998 175.276955 
L 200.821038 175.102554 
L 200.885261 174.991649 
L 200.996209 174.789253 
L 201.064573 174.678549 
L 201.175368 174.48716 
L 201.248553 174.376615 
L 201.359566 174.191407 
L 201.435065 174.081013 
L 201.546141 173.884878 
L 201.628666 173.77476 
L 201.739686 173.602406 
L 201.799638 173.491393 
L 201.910301 173.321438 
L 201.979643 173.2106 
L 202.090414 173.030098 
L 202.150347 172.919554 
L 202.261279 172.727192 
L 202.326708 172.616102 
L 202.437246 172.421167 
L 202.509395 172.31057 
L 202.620385 172.114215 
L 202.685745 172.003228 
L 202.795666 171.821989 
L 202.858615 171.711466 
L 202.969652 171.519667 
L 203.039639 171.408831 
L 203.150643 171.219337 
L 203.221657 171.108235 
L 203.33221 170.950899 
L 203.392902 170.840188 
L 203.502751 170.652279 
L 203.555203 170.541389 
L 203.665523 170.314018 
L 203.735871 170.203315 
L 203.84663 170.006854 
L 203.916177 169.896148 
L 204.026458 169.681999 
L 204.087434 169.57148 
L 204.198275 169.388931 
L 204.263645 169.2784 
L 204.374648 169.07262 
L 204.432184 168.961563 
L 204.543183 168.77497 
L 204.595406 168.664044 
L 204.705912 168.459098 
L 204.767482 168.348488 
L 204.87794 168.145245 
L 204.933198 168.03428 
L 205.043768 167.847144 
L 205.112107 167.736451 
L 205.222973 167.546485 
L 205.288604 167.435455 
L 205.399704 167.233049 
L 205.462929 167.122497 
L 205.573 166.918724 
L 205.646133 166.808051 
L 205.755913 166.603089 
L 205.814783 166.492366 
L 205.925589 166.302359 
L 205.98383 166.191524 
L 206.094924 165.966431 
L 206.16335 165.855814 
L 206.274227 165.634219 
L 206.337473 165.523261 
L 206.448499 165.317683 
L 206.511132 165.206904 
L 206.621703 165.010343 
L 206.684366 164.899718 
L 206.795303 164.702975 
L 206.856342 164.592005 
L 206.96686 164.393575 
L 207.025351 164.282874 
L 207.136424 164.064572 
L 207.210072 163.953814 
L 207.321049 163.749229 
L 207.386256 163.638367 
L 207.496873 163.448818 
L 207.563852 163.337794 
L 207.674829 163.122261 
L 207.728491 163.011337 
L 207.839441 162.807897 
L 207.90131 162.69703 
L 208.0122 162.490069 
L 208.072665 162.379337 
L 208.183651 162.185216 
L 208.249038 162.074113 
L 208.359781 161.877385 
L 208.418397 161.766444 
L 208.52933 161.551536 
L 208.598411 161.440509 
L 208.709437 161.228762 
L 208.773205 161.117686 
L 208.884297 160.903572 
L 208.949401 160.792525 
L 209.060113 160.586127 
L 209.115697 160.475103 
L 209.226576 160.260049 
L 209.28926 160.149171 
L 209.399949 159.946044 
L 209.458723 159.835268 
L 209.569803 159.639649 
L 209.6324 159.528585 
L 209.743188 159.34315 
L 209.799428 159.232156 
L 209.910462 159.026323 
L 209.969146 158.915238 
L 210.079815 158.707492 
L 210.14026 158.596392 
L 210.25137 158.386597 
L 210.312229 158.275554 
L 210.423317 158.076619 
L 210.484098 157.965599 
L 210.594929 157.75855 
L 210.654503 157.64767 
L 210.765457 157.439961 
L 210.826464 157.328948 
L 210.937515 157.113994 
L 210.995618 157.002966 
L 211.106439 156.779121 
L 211.162478 156.668208 
L 211.273497 156.459358 
L 211.337321 156.348496 
L 211.448056 156.13503 
L 211.508838 156.024012 
L 211.619939 155.805733 
L 211.676902 155.694663 
L 211.787958 155.47825 
L 211.843704 155.367174 
L 211.954709 155.162665 
L 212.008904 155.051825 
L 212.119958 154.840902 
L 212.181087 154.72985 
L 212.292014 154.509537 
L 212.349318 154.398678 
L 212.460306 154.1746 
L 212.518266 154.063496 
L 212.629304 153.845914 
L 212.691831 153.734841 
L 212.802904 153.525712 
L 212.858746 153.414661 
L 212.969649 153.191754 
L 213.029954 153.080647 
L 213.140978 152.851791 
L 213.199044 152.740738 
L 213.310149 152.545986 
L 213.36774 152.435009 
L 213.478821 152.223791 
L 213.53614 152.112842 
L 213.64712 151.890213 
L 213.70655 151.779216 
L 213.817483 151.555924 
L 213.875459 151.444949 
L 213.986187 151.225796 
L 214.045919 151.114868 
L 214.157004 150.888389 
L 214.218424 150.777419 
L 214.329361 150.559475 
L 214.38627 150.44846 
L 214.49733 150.235702 
L 214.552207 150.124663 
L 214.663276 149.906327 
L 214.718262 149.795365 
L 214.829352 149.577154 
L 214.886514 149.466138 
L 214.997612 149.254761 
L 215.050351 149.143699 
L 215.161455 148.919507 
L 215.216713 148.808558 
L 215.327772 148.573684 
L 215.382835 148.462639 
L 215.493923 148.247578 
L 215.550934 148.136522 
L 215.662015 147.917002 
L 215.717813 147.806028 
L 215.828826 147.574292 
L 215.882583 147.463228 
L 215.993641 147.229707 
L 216.048868 147.118637 
L 216.159973 146.899863 
L 216.214692 146.788888 
L 216.325604 146.546808 
L 216.380863 146.435715 
L 216.491969 146.212723 
L 216.549217 146.10173 
L 216.660284 145.867903 
L 216.710168 145.756864 
L 216.821204 145.525969 
L 216.877013 145.414927 
L 216.988052 145.192135 
L 217.040621 145.081091 
L 217.151719 144.851929 
L 217.206746 144.74086 
L 217.317551 144.493293 
L 217.371595 144.382278 
L 217.482614 144.157473 
L 217.5372 144.046401 
L 217.648307 143.825227 
L 217.699867 143.714134 
L 217.810967 143.488813 
L 217.862848 143.377792 
L 217.973887 143.141808 
L 218.027788 143.030764 
L 218.138786 142.802562 
L 218.192206 142.691501 
L 218.303308 142.454188 
L 218.360399 142.343133 
L 218.471318 142.117755 
L 218.525092 142.006677 
L 218.636185 141.775459 
L 218.689283 141.664361 
L 218.800393 141.42833 
L 218.851576 141.317313 
L 218.962641 141.080301 
L 219.017665 140.969231 
L 219.128585 140.73615 
L 219.183864 140.625065 
L 219.294969 140.381918 
L 219.347694 140.270865 
L 219.458734 140.039901 
L 219.510065 139.92885 
L 219.62117 139.689883 
L 219.67093 139.578777 
L 219.782027 139.338817 
L 219.836439 139.227733 
L 219.947545 138.988935 
L 219.999059 138.877841 
L 220.110168 138.636647 
L 220.161124 138.525544 
L 220.272206 138.277877 
L 220.322954 138.1668 
L 220.434014 137.931299 
L 220.488527 137.820221 
L 220.599607 137.58206 
L 220.652149 137.470988 
L 220.763245 137.222746 
L 220.812911 137.11167 
L 220.924 136.869396 
L 220.976319 136.758339 
L 221.087388 136.516887 
L 221.13819 136.405836 
L 221.249278 136.161532 
L 221.301545 136.050433 
L 221.412655 135.811596 
L 221.461495 135.700547 
L 221.572472 135.453392 
L 221.623707 135.342317 
L 221.734781 135.098961 
L 221.785892 134.987901 
L 221.896955 134.738225 
L 221.947054 134.627167 
L 222.058161 134.380108 
L 222.110648 134.269039 
L 222.221739 134.022213 
L 222.271364 133.911141 
L 222.382454 133.667477 
L 222.43395 133.556385 
L 222.545017 133.31062 
L 222.593823 133.199536 
L 222.704925 132.958479 
L 222.755383 132.847378 
L 222.866492 132.593427 
L 222.918138 132.482366 
L 223.029244 132.23392 
L 223.078522 132.122817 
L 223.189607 131.878544 
L 223.239228 131.76744 
L 223.350334 131.524715 
L 223.397626 131.413614 
L 223.508734 131.159832 
L 223.558257 131.048737 
L 223.669363 130.793416 
L 223.718513 130.682313 
L 223.8296 130.427651 
L 223.877188 130.316561 
L 223.988228 130.061317 
L 224.035012 129.950222 
L 224.146093 129.700279 
L 224.19427 129.589212 
L 224.305357 129.334778 
L 224.354847 129.22371 
L 224.465958 128.971297 
L 224.513414 128.860198 
L 224.624497 128.604027 
L 224.672997 128.492917 
L 224.784085 128.242411 
L 224.832297 128.131318 
L 224.943397 127.876597 
L 224.991804 127.765506 
L 225.102908 127.510353 
L 225.149049 127.399261 
L 225.260123 127.1399 
L 225.307919 127.028799 
L 225.41903 126.762085 
L 225.465591 126.650997 
L 225.576681 126.384287 
L 225.624838 126.273181 
L 225.735932 126.01265 
L 225.783134 125.901557 
L 225.894245 125.638612 
L 225.940689 125.527522 
L 226.051796 125.265516 
L 226.09928 125.154432 
L 226.210382 124.891068 
L 226.256628 124.779978 
L 226.367723 124.514453 
L 226.416181 124.403356 
L 226.527272 124.142145 
L 226.574594 124.031055 
L 226.685705 123.763063 
L 226.732122 123.651958 
L 226.8432 123.381973 
L 226.888652 123.270889 
L 226.99976 123.005904 
L 227.046629 122.894795 
L 227.157734 122.630567 
L 227.204175 122.519478 
L 227.315274 122.253624 
L 227.360253 122.142535 
L 227.471364 121.8743 
L 227.516074 121.763204 
L 227.627182 121.493174 
L 227.673556 121.382086 
L 227.784658 121.113864 
L 227.829918 121.002774 
L 227.941028 120.732227 
L 227.98625 120.621136 
L 228.097336 120.349634 
L 228.143241 120.238534 
L 228.254339 119.966843 
L 228.300388 119.855748 
L 228.411497 119.581214 
L 228.456199 119.470115 
L 228.567291 119.193814 
L 228.61201 119.082719 
L 228.723113 118.807579 
L 228.768351 118.696476 
L 228.879458 118.416731 
L 228.923194 118.305635 
L 229.034296 118.029487 
L 229.076854 117.918393 
L 229.187959 117.640684 
L 229.231946 117.529589 
L 229.343048 117.253512 
L 229.387576 117.14241 
L 229.498686 116.864991 
L 229.54319 116.753883 
L 229.654273 116.472754 
L 229.697724 116.361644 
L 229.808833 116.076012 
L 229.851755 115.964916 
L 229.962862 115.684966 
L 230.006379 115.573856 
L 230.11749 115.289399 
L 230.161642 115.178297 
L 230.27275 114.894203 
L 230.31556 114.783093 
L 230.426668 114.498165 
L 230.469947 114.387063 
L 230.581055 114.099746 
L 230.623516 113.988635 
L 230.734619 113.70177 
L 230.77753 113.59066 
L 230.888638 113.304262 
L 230.930999 113.193164 
L 231.042106 112.906472 
L 231.083997 112.795363 
L 231.195107 112.506361 
L 231.237652 112.39525 
L 231.348758 112.104084 
L 231.390315 111.992986 
L 231.501422 111.705205 
L 231.544123 111.594102 
L 231.655231 111.300056 
L 231.697998 111.18895 
L 231.809095 110.899641 
L 231.851023 110.788535 
L 231.962125 110.494363 
L 232.004439 110.383255 
L 232.115542 110.08909 
L 232.157127 109.977989 
L 232.268232 109.685669 
L 232.309806 109.574562 
L 232.420904 109.279985 
L 232.462872 109.168881 
L 232.573971 108.874342 
L 232.615799 108.763237 
L 232.72691 108.466696 
L 232.767917 108.355594 
L 232.879027 108.054698 
L 232.920695 107.943596 
L 233.031801 107.642125 
L 233.073113 107.531015 
L 233.184224 107.230962 
L 233.225392 107.119852 
L 233.336501 106.819774 
L 233.377213 106.708665 
L 233.488319 106.405696 
L 233.528728 106.294589 
L 233.639831 105.987799 
L 233.6804 105.876691 
L 233.791509 105.570486 
L 233.83235 105.459376 
L 233.943456 105.15299 
L 233.984303 105.041887 
L 234.095407 104.73458 
L 234.135202 104.623476 
L 234.246309 104.317167 
L 234.286797 104.206059 
L 234.397902 103.899873 
L 234.437971 103.788767 
L 234.54908 103.480677 
L 234.589111 103.36957 
L 234.700209 103.061032 
L 234.739545 102.949925 
L 234.850653 102.638793 
L 234.890329 102.527683 
L 235.001437 102.217601 
L 235.041443 102.106492 
L 235.152554 101.794817 
L 235.192044 101.683711 
L 235.303154 101.370378 
L 235.342355 101.259268 
L 235.453462 100.945849 
L 235.492889 100.834739 
L 235.603999 100.522176 
L 235.642692 100.411066 
L 235.753803 100.096441 
L 235.792425 99.985332 
L 235.903534 99.666986 
L 235.942404 99.555876 
L 236.053512 99.2393 
L 236.092364 99.128191 
L 236.203475 98.808561 
L 236.241969 98.697454 
L 236.353079 98.37541 
L 236.391422 98.264301 
L 236.502533 97.943856 
L 236.540891 97.832749 
L 236.651998 97.510656 
L 236.690112 97.399547 
L 236.801215 97.076404 
L 236.839233 96.965297 
L 236.950343 96.643052 
L 236.988578 96.531945 
L 237.099688 96.20642 
L 237.137928 96.09531 
L 237.249037 95.772709 
L 237.286549 95.661601 
L 237.397658 95.336001 
L 237.43517 95.224891 
L 237.546276 94.897673 
L 237.584154 94.786564 
L 237.695263 94.458609 
L 237.732464 94.347499 
L 237.843575 94.016916 
L 237.88122 93.905808 
L 237.992331 93.575603 
L 238.029522 93.464493 
L 238.140632 93.130643 
L 238.177939 93.019533 
L 238.28905 92.687166 
L 238.326259 92.576055 
L 238.437369 92.245221 
L 238.474433 92.134113 
L 238.585544 91.800715 
L 238.622606 91.689604 
L 238.733717 91.353905 
L 238.770692 91.242794 
L 238.8818 90.907061 
L 238.919037 90.795951 
L 239.030148 90.460812 
L 239.066998 90.349702 
L 239.178108 90.014419 
L 239.214922 89.903309 
L 239.326031 89.566596 
L 239.362772 89.455486 
L 239.473882 89.118621 
L 239.510439 89.007511 
L 239.621549 88.667365 
L 239.658032 88.556255 
L 239.769143 88.21508 
L 239.805415 88.103969 
L 239.916524 87.762667 
L 239.952817 87.651558 
L 240.063928 87.309184 
L 240.100194 87.198073 
L 240.211304 86.855578 
L 240.24707 86.744468 
L 240.35818 86.401421 
L 240.394212 86.29031 
L 240.505322 85.945756 
L 240.541089 85.834646 
L 240.6522 85.489643 
L 240.68763 85.378532 
L 240.79874 85.033682 
L 240.834241 84.922571 
L 240.945352 84.577336 
L 240.980925 84.466226 
L 241.092034 84.120826 
L 241.127581 84.009715 
L 241.238692 83.66322 
L 241.274355 83.55211 
L 241.385466 83.206522 
L 241.420934 83.095412 
L 241.532045 82.747475 
L 241.567696 82.636364 
L 241.678807 82.287832 
L 241.714329 82.176722 
L 241.82544 81.828832 
L 241.86105 81.717721 
L 241.97216 81.368695 
L 242.007356 81.257585 
L 242.118467 80.907528 
L 242.153571 80.796418 
L 242.264682 80.44514 
L 242.299949 80.33403 
L 242.41106 79.983767 
L 242.446292 79.872656 
L 242.557403 79.521558 
L 242.592596 79.410447 
L 242.703707 79.060253 
L 242.738965 78.949142 
L 242.850076 78.597812 
L 242.885107 78.486702 
L 242.996218 78.13411 
L 243.031167 78.023 
L 243.142278 77.671655 
L 243.17725 77.560545 
L 243.288361 77.209348 
L 243.323653 77.098237 
L 243.434764 76.747234 
L 243.469817 76.636123 
L 243.580929 76.284945 
L 243.615989 76.173835 
L 243.7271 75.821785 
L 243.762338 75.710674 
L 243.873448 75.358909 
L 243.908606 75.247798 
L 244.019717 74.896698 
L 244.054966 74.785588 
L 244.166077 74.43447 
L 244.201206 74.323359 
L 244.312317 73.973243 
L 244.347513 73.862132 
L 244.458624 73.512371 
L 244.494073 73.40126 
L 244.605184 73.05209 
L 244.640627 72.94098 
L 244.751737 72.592754 
L 244.787175 72.481643 
L 244.898286 72.134141 
L 244.93402 72.02303 
L 245.045131 71.676439 
L 245.08084 71.565329 
L 245.19195 71.219938 
L 245.227706 71.108827 
L 245.338817 70.764738 
L 245.374777 70.653627 
L 245.485888 70.310597 
L 245.521969 70.199486 
L 245.63308 69.858067 
L 245.669442 69.746956 
L 245.780553 69.407952 
L 245.816953 69.296841 
L 245.928062 68.959068 
L 245.96477 68.847957 
L 246.075881 68.51204 
L 246.112865 68.400929 
L 246.223976 68.066678 
L 246.261162 67.955567 
L 246.372273 67.623701 
L 246.409788 67.51259 
L 246.5209 67.184094 
L 246.558588 67.072983 
L 246.669699 66.747154 
L 246.707868 66.636043 
L 246.818979 66.313303 
L 246.857486 66.202192 
L 246.968597 65.882885 
L 247.00751 65.771774 
L 247.118621 65.456244 
L 247.157777 65.345133 
L 247.268888 65.033362 
L 247.308607 64.922251 
L 247.419718 64.614387 
L 247.460074 64.503276 
L 247.571185 64.199287 
L 247.612218 64.088176 
L 247.723329 63.789836 
L 247.765007 63.678726 
L 247.876118 63.384885 
L 247.918464 63.273774 
L 248.029575 62.986019 
L 248.072858 62.874908 
L 248.183969 62.592959 
L 248.227943 62.481848 
L 248.339054 62.205795 
L 248.384315 62.094684 
L 248.495426 61.826102 
L 248.541948 61.714991 
L 248.653059 61.452739 
L 248.700698 61.341629 
L 248.811809 61.086845 
L 248.861054 60.975734 
L 248.972165 60.729683 
L 249.023096 60.618573 
L 249.134207 60.380628 
L 249.18704 60.269517 
L 249.298151 60.040783 
L 249.353438 59.929672 
L 249.464549 59.711104 
L 249.522385 59.599993 
L 249.633496 59.391353 
L 249.69441 59.280242 
L 249.805522 59.083314 
L 249.870001 58.972203 
L 249.981112 58.786625 
L 250.049728 58.675514 
L 250.160839 58.502012 
L 250.234845 58.390901 
L 250.345956 58.230388 
L 250.426386 58.119277 
L 250.537497 57.972831 
L 250.626188 57.86172 
L 250.737299 57.728705 
L 250.835824 57.617594 
L 250.946935 57.500027 
L 251.059061 57.388916 
L 251.170172 57.286347 
L 251.30073 57.175237 
L 251.411841 57.088131 
L 251.568024 56.97702 
L 251.679134 56.905449 
L 251.872786 56.794337 
L 251.983896 56.73775 
L 252.23347 56.626639 
L 252.34458 56.583368 
L 252.676983 56.472257 
L 252.788094 56.440346 
L 253.249468 56.329235 
L 253.360579 56.306623 
L 254.031461 56.195512 
L 254.142572 56.18027 
L 255.208878 56.069159 
L 255.31998 56.060205 
L 257.358867 55.949094 
L 257.469969 55.945077 
L 264.775256 55.833966 
L 264.886344 55.833333 
L 498.109091 55.8 
L 498.109091 55.8 
" clip-path="url(#p8f2066c907)" style="fill: none; stroke: #ff0000; stroke-width: 1.5; stroke-linecap: square"/>
   </g>
   <g id="patch_3">
    <path d="M 72 320.4 
L 72 43.2 
" style="fill: none; stroke: #000000; stroke-width: 0.8; stroke-linejoin: miter; stroke-linecap: square"/>
   </g>
   <g id="patch_4">
    <path d="M 518.4 320.4 
L 518.4 43.2 
" style="fill: none; stroke: #000000; stroke-width: 0.8; stroke-linejoin: miter; stroke-linecap: square"/>
   </g>
   <g id="patch_5">
    <path d="M 72 320.4 
L 518.4 320.4 
" style="fill: none; stroke: #000000; stroke-width: 0.8; stroke-linejoin: miter; stroke-linecap: square"/>
   </g>
   <g id="patch_6">
    <path d="M 72 43.2 
L 518.4 43.2 
" style="fill: none; stroke: #000000; stroke-width: 0.8; stroke-linejoin: miter; stroke-linecap: square"/>
   </g>
   <g id="text_18">
    <!-- Comparison: CDF (log scale expands lower tail) -->
    <g transform="translate(153.135937 37.2) scale(0.12 -0.12)">
     <defs>
      <path id="DejaVuSans-6f" d="M 1959 3097 
Q 1497 3097 1228 2736 
Q 959 2375 959 1747 
Q 959 1119 1226 758 
Q 1494 397 1959 397 
Q 2419 397 2687 759 
Q 2956 1122 2956 1747 
Q 2956 2369 2687 2733 
Q 2419 3097 1959 3097 
z
M 1959 3584 
Q 2709 3584 3137 3096 
Q 3566 2609 3566 1747 
Q 3566 888 3137 398 
Q 2709 -91 1959 -91 
Q 1206 -91 779 398 
Q 353 888 353 1747 
Q 353 2609 779 3096 
Q 1206 3584 1959 3584 
z
" transform="scale(0.015625)"/>
      <path id="DejaVuSans-6d" d="M 3328 2828 
Q 3544 3216 3844 3400 
Q 4144 3584 4550 3584 
Q 5097 3584 5394 3201 
Q 5691 2819 5691 2113 
L 5691 0 
L 5113 0 
L 5113 2094 
Q 5113 2597 4934 2840 
Q 4756 3084 4391 3084 
Q 3944 3084 3684 2787 
Q 3425 2491 3425 1978 
L 3425 0 
L 2847 0 
L 2847 2094 
Q 2847 2600 2669 2842 
Q 2491 3084 2119 3084 
Q 1678 3084 1418 2786 
Q 1159 2488 1159 1978 
L 1159 0 
L 581 0 
L 581 3500 
L 1159 3500 
L 1159 2956 
Q 1356 3278 1631 3431 
Q 1906 3584 2284 3584 
Q 2666 3584 2933 3390 
Q 3200 3197 3328 2828 
z
" transform="scale(0.015625)"/>
      <path id="DejaVuSans-70" d="M 1159 525 
L 1159 -1331 
L 581 -1331 
L 581 3500 
L 1159 3500 
L 1159 2969 
Q 1341 3281 1617 3432 
Q 1894 3584 2278 3584 
Q 2916 3584 3314 3078 
Q 3713 2572 3713 1747 
Q 3713 922 3314 415 
Q 2916 -91 2278 -91 
Q 1894 -91 1617 61 
Q 1341 213 1159 525 
z
M 3116 1747 
Q 3116 2381 2855 2742 
Q 2594 3103 2138 3103 
Q 1681 3103 1420 2742 
Q 1159 2381 1159 1747 
Q 1159 1113 1420 752 
Q 1681 391 2138 391 
Q 2594 391 2855 752 
Q 3116 1113 3116 1747 
z
" transform="scale(0.015625)"/>
      <path id="DejaVuSans-61" d="M 2194 1759 
Q 1497 1759 1228 1600 
Q 959 1441 959 1056 
Q 959 750 1161 570 
Q 1363 391 1709 391 
Q 2188 391 2477 730 
Q 2766 1069 2766 1631 
L 2766 1759 
L 2194 1759 
z
M 3341 1997 
L 3341 0 
L 2766 0 
L 2766 531 
Q 2569 213 2275 61 
Q 1981 -91 1556 -91 
Q 1019 -91 701 211 
Q 384 513 384 1019 
Q 384 1609 779 1909 
Q 1175 2209 1959 2209 
L 2766 2209 
L 2766 2266 
Q 2766 2663 2505 2880 
Q 2244 3097 1772 3097 
Q 1472 3097 1187 3025 
Q 903 2953 641 2809 
L 641 3341 
Q 956 3463 1253 3523 
Q 1550 3584 1831 3584 
Q 2591 3584 2966 3190 
Q 3341 2797 3341 1997 
z
" transform="scale(0.015625)"/>
      <path id="DejaVuSans-72" d="M 2631 2963 
Q 2534 3019 2420 3045 
Q 2306 3072 2169 3072 
Q 1681 3072 1420 2755 
Q 1159 2438 1159 1844 
L 1159 0 
L 581 0 
L 581 3500 
L 1159 3500 
L 1159 2956 
Q 1341 3275 1631 3429 
Q 1922 3584 2338 3584 
Q 2397 3584 2469 3576 
Q 2541 3569 2628 3553 
L 2631 2963 
z
" transform="scale(0.015625)"/>
      <path id="DejaVuSans-69" d="M 603 3500 
L 1178 3500 
L 1178 0 
L 603 0 
L 603 3500 
z
M 603 4863 
L 1178 4863 
L 1178 4134 
L 603 4134 
L 603 4863 
z
" transform="scale(0.015625)"/>
      <path id="DejaVuSans-73" d="M 2834 3397 
L 2834 2853 
Q 2591 2978 2328 3040 
Q 2066 3103 1784 3103 
Q 1356 3103 1142 2972 
Q 928 2841 928 2578 
Q 928 2378 1081 2264 
Q 1234 2150 1697 2047 
L 1894 2003 
Q 2506 1872 2764 1633 
Q 3022 1394 3022 966 
Q 3022 478 2636 193 
Q 2250 -91 1575 -91 
Q 1294 -91 989 -36 
Q 684 19 347 128 
L 347 722 
Q 666 556 975 473 
Q 1284 391 1588 391 
Q 1994 391 2212 530 
Q 2431 669 2431 922 
Q 2431 1156 2273 1281 
Q 2116 1406 1581 1522 
L 1381 1569 
Q 847 1681 609 1914 
Q 372 2147 372 2553 
Q 372 3047 722 3315 
Q 1072 3584 1716 3584 
Q 2034 3584 2315 3537 
Q 2597 3491 2834 3397 
z
" transform="scale(0.015625)"/>
      <path id="DejaVuSans-6e" d="M 3513 2113 
L 3513 0 
L 2938 0 
L 2938 2094 
Q 2938 2591 2744 2837 
Q 2550 3084 2163 3084 
Q 1697 3084 1428 2787 
Q 1159 2491 1159 1978 
L 1159 0 
L 581 0 
L 581 3500 
L 1159 3500 
L 1159 2956 
Q 1366 3272 1645 3428 
Q 1925 3584 2291 3584 
Q 2894 3584 3203 3211 
Q 3513 2838 3513 2113 
z
" transform="scale(0.015625)"/>
      <path id="DejaVuSans-3a" d="M 750 794 
L 1409 794 
L 1409 0 
L 750 0 
L 750 794 
z
M 750 3309 
L 1409 3309 
L 1409 2516 
L 750 2516 
L 750 3309 
z
" transform="scale(0.015625)"/>
      <path id="DejaVuSans-6c" d="M 603 4863 
L 1178 4863 
L 1178 0 
L 603 0 
L 603 4863 
z
" transform="scale(0.015625)"/>
      <path id="DejaVuSans-67" d="M 2906 1791 
Q 2906 2416 2648 2759 
Q 2391 3103 1925 3103 
Q 1463 3103 1205 2759 
Q 947 2416 947 1791 
Q 947 1169 1205 825 
Q 1463 481 1925 481 
Q 2391 481 2648 825 
Q 2906 1169 2906 1791 
z
M 3481 434 
Q 3481 -459 3084 -895 
Q 2688 -1331 1869 -1331 
Q 1566 -1331 1297 -1286 
Q 1028 -1241 775 -1147 
L 775 -588 
Q 1028 -725 1275 -790 
Q 1522 -856 1778 -856 
Q 2344 -856 2625 -561 
Q 2906 -266 2906 331 
L 2906 616 
Q 2728 306 2450 153 
Q 2172 0 1784 0 
Q 1141 0 747 490 
Q 353 981 353 1791 
Q 353 2603 747 3093 
Q 1141 3584 1784 3584 
Q 2172 3584 2450 3431 
Q 2728 3278 2906 2969 
L 2906 3500 
L 3481 3500 
L 3481 434 
z
" transform="scale(0.015625)"/>
      <path id="DejaVuSans-63" d="M 3122 3366 
L 3122 2828 
Q 2878 2963 2633 3030 
Q 2388 3097 2138 3097 
Q 1578 3097 1268 2742 
Q 959 2388 959 1747 
Q 959 1106 1268 751 
Q 1578 397 2138 397 
Q 2388 397 2633 464 
Q 2878 531 3122 666 
L 3122 134 
Q 2881 22 2623 -34 
Q 2366 -91 2075 -91 
Q 1284 -91 818 406 
Q 353 903 353 1747 
Q 353 2603 823 3093 
Q 1294 3584 2113 3584 
Q 2378 3584 2631 3529 
Q 2884 3475 3122 3366 
z
" transform="scale(0.015625)"/>
      <path id="DejaVuSans-65" d="M 3597 1894 
L 3597 1613 
L 953 1613 
Q 991 1019 1311 708 
Q 1631 397 2203 397 
Q 2534 397 2845 478 
Q 3156 559 3463 722 
L 3463 178 
Q 3153 47 2828 -22 
Q 2503 -91 2169 -91 
Q 1331 -91 842 396 
Q 353 884 353 1716 
Q 353 2575 817 3079 
Q 1281 3584 2069 3584 
Q 2775 3584 3186 3129 
Q 3597 2675 3597 1894 
z
M 3022 2063 
Q 3016 2534 2758 2815 
Q 2500 3097 2075 3097 
Q 1594 3097 1305 2825 
Q 1016 2553 972 2059 
L 3022 2063 
z
" transform="scale(0.015625)"/>
      <path id="DejaVuSans-78" d="M 3513 3500 
L 2247 1797 
L 3578 0 
L 2900 0 
L 1881 1375 
L 863 0 
L 184 0 
L 1544 1831 
L 300 3500 
L 978 3500 
L 1906 2253 
L 2834 3500 
L 3513 3500 
z
" transform="scale(0.015625)"/>
      <path id="DejaVuSans-64" d="M 2906 2969 
L 2906 4863 
L 3481 4863 
L 3481 0 
L 2906 0 
L 2906 525 
Q 2725 213 2448 61 
Q 2172 -91 1784 -91 
Q 1150 -91 751 415 
Q 353 922 353 1747 
Q 353 2572 751 3078 
Q 1150 3584 1784 3584 
Q 2172 3584 2448 3432 
Q 2725 3281 2906 2969 
z
M 947 1747 
Q 947 1113 1208 752 
Q 1469 391 1925 391 
Q 2381 391 2643 752 
Q 2906 1113 2906 1747 
Q 2906 2381 2643 2742 
Q 2381 3103 1925 3103 
Q 1469 3103 1208 2742 
Q 947 2381 947 1747 
z
" transform="scale(0.015625)"/>
      <path id="DejaVuSans-77" d="M 269 3500 
L 844 3500 
L 1563 769 
L 2278 3500 
L 2956 3500 
L 3675 769 
L 4391 3500 
L 4966 3500 
L 4050 0 
L 3372 0 
L 2619 2869 
L 1863 0 
L 1184 0 
L 269 3500 
z
" transform="scale(0.015625)"/>
      <path id="DejaVuSans-74" d="M 1172 4494 
L 1172 3500 
L 2356 3500 
L 2356 3053 
L 1172 3053 
L 1172 1153 
Q 1172 725 1289 603 
Q 1406 481 1766 481 
L 2356 481 
L 2356 0 
L 1766 0 
Q 1100 0 847 248 
Q 594 497 594 1153 
L 594 3053 
L 172 3053 
L 172 3500 
L 594 3500 
L 594 4494 
L 1172 4494 
z
" transform="scale(0.015625)"/>
     </defs>
     <use xlink:href="#DejaVuSans-43"/>
     <use xlink:href="#DejaVuSans-6f" x="69.824219"/>
     <use xlink:href="#DejaVuSans-6d" x="131.005859"/>
     <use xlink:href="#DejaVuSans-70" x="228.417969"/>
     <use xlink:href="#DejaVuSans-61" x="291.894531"/>
     <use xlink:href="#DejaVuSans-72" x="353.173828"/>
     <use xlink:href="#DejaVuSans-69" x="394.287109"/>
     <use xlink:href="#DejaVuSans-73" x="422.070312"/>
     <use xlink:href="#DejaVuSans-6f" x="474.169922"/>
     <use xlink:href="#DejaVuSans-6e" x="535.351562"/>
     <use xlink:href="#DejaVuSans-3a" x="598.730469"/>
     <use xlink:href="#DejaVuSans-20" x="632.421875"/>
     <use xlink:href="#DejaVuSans-43" x="664.208984"/>
     <use xlink:href="#DejaVuSans-44" x="734.033203"/>
     <use xlink:href="#DejaVuSans-46" x="811.035156"/>
     <use xlink:href="#DejaVuSans-20" x="868.554688"/>
     <use xlink:href="#DejaVuSans-28" x="900.341797"/>
     <use xlink:href="#DejaVuSans-6c" x="939.355469"/>
     <use xlink:href="#DejaVuSans-6f" x="967.138672"/>
     <use xlink:href="#DejaVuSans-67" x="1028.320312"/>
     <use xlink:href="#DejaVuSans-20" x="1091.796875"/>
     <use xlink:href="#DejaVuSans-73" x="1123.583984"/>
     <use xlink:href="#DejaVuSans-63" x="1175.683594"/>
     <use xlink:href="#DejaVuSans-61" x="1230.664062"/>
     <use xlink:href="#DejaVuSans-6c" x="1291.943359"/>
     <use xlink:href="#DejaVuSans-65" x="1319.726562"/>
     <use xlink:href="#DejaVuSans-20" x="1381.25"/>
     <use xlink:href="#DejaVuSans-65" x="1413.037109"/>
     <use xlink:href="#DejaVuSans-78" x="1472.810547"/>
     <use xlink:href="#DejaVuSans-70" x="1531.990234"/>
     <use xlink:href="#DejaVuSans-61" x="1595.466797"/>
     <use xlink:href="#DejaVuSans-6e" x="1656.746094"/>
     <use xlink:href="#DejaVuSans-64" x="1720.125"/>
     <use xlink:href="#DejaVuSans-73" x="1783.601562"/>
     <use xlink:href="#DejaVuSans-20" x="1835.701172"/>
     <use xlink:href="#DejaVuSans-6c" x="1867.488281"/>
     <use xlink:href="#DejaVuSans-6f" x="1895.271484"/>
     <use xlink:href="#DejaVuSans-77" x="1956.453125"/>
     <use xlink:href="#DejaVuSans-65" x="2038.240234"/>
     <use xlink:href="#DejaVuSans-72" x="2099.763672"/>
     <use xlink:href="#DejaVuSans-20" x="2140.876953"/>
     <use xlink:href="#DejaVuSans-74" x="2172.664062"/>
     <use xlink:href="#DejaVuSans-61" x="2211.873047"/>
     <use xlink:href="#DejaVuSans-69" x="2273.152344"/>
     <use xlink:href="#DejaVuSans-6c" x="2300.935547"/>
     <use xlink:href="#DejaVuSans-29" x="2328.71875"/>
    </g>
   </g>
   <g id="legend_1">
    <g id="patch_7">
     <path d="M 79 80.55625 
L 173.634375 80.55625 
Q 175.634375 80.55625 175.634375 78.55625 
L 175.634375 50.2 
Q 175.634375 48.2 173.634375 48.2 
L 79 48.2 
Q 77 48.2 77 50.2 
L 77 78.55625 
Q 77 80.55625 79 80.55625 
z
" style="fill: #ffffff; opacity: 0.8; stroke: #cccccc; stroke-linejoin: miter"/>
    </g>
    <g id="line2d_100">
     <path d="M 81 56.298437 
L 81 56.298437 
L 91 56.298437 
L 91 56.298437 
L 101 56.298437 
" style="fill: none; stroke: #000000; stroke-width: 1.5; stroke-linecap: square"/>
    </g>
    <g id="text_19">
     <!-- Data -->
     <g transform="translate(109 59.798437) scale(0.1 -0.1)">
      <use xlink:href="#DejaVuSans-44"/>
      <use xlink:href="#DejaVuSans-61" x="77.001953"/>
      <use xlink:href="#DejaVuSans-74" x="138.28125"/>
      <use xlink:href="#DejaVuSans-61" x="177.490234"/>
     </g>
    </g>
    <g id="line2d_101">
     <path d="M 81 70.976562 
L 81 70.976562 
L 91 70.976562 
L 91 70.976562 
L 101 70.976562 
" style="fill: none; stroke: #ff0000; stroke-width: 1.5; stroke-linecap: square"/>
    </g>
    <g id="text_20">
     <!-- MCS Sample -->
     <g transform="translate(109 74.476562) scale(0.1 -0.1)">
      <defs>
       <path id="DejaVuSans-4d" d="M 628 4666 
L 1569 4666 
L 2759 1491 
L 3956 4666 
L 4897 4666 
L 4897 0 
L 4281 0 
L 4281 4097 
L 3078 897 
L 2444 897 
L 1241 4097 
L 1241 0 
L 628 0 
L 628 4666 
z
" transform="scale(0.015625)"/>
       <path id="DejaVuSans-53" d="M 3425 4513 
L 3425 3897 
Q 3066 4069 2747 4153 
Q 2428 4238 2131 4238 
Q 1616 4238 1336 4038 
Q 1056 3838 1056 3469 
Q 1056 3159 1242 3001 
Q 1428 2844 1947 2747 
L 2328 2669 
Q 3034 2534 3370 2195 
Q 3706 1856 3706 1288 
Q 3706 609 3251 259 
Q 2797 -91 1919 -91 
Q 1588 -91 1214 -16 
Q 841 59 441 206 
L 441 856 
Q 825 641 1194 531 
Q 1563 422 1919 422 
Q 2459 422 2753 634 
Q 3047 847 3047 1241 
Q 3047 1584 2836 1778 
Q 2625 1972 2144 2069 
L 1759 2144 
Q 1053 2284 737 2584 
Q 422 2884 422 3419 
Q 422 4038 858 4394 
Q 1294 4750 2059 4750 
Q 2388 4750 2728 4690 
Q 3069 4631 3425 4513 
z
" transform="scale(0.015625)"/>
      </defs>
      <use xlink:href="#DejaVuSans-4d"/>
      <use xlink:href="#DejaVuSans-43" x="86.279297"/>
      <use xlink:href="#DejaVuSans-53" x="156.103516"/>
      <use xlink:href="#DejaVuSans-20" x="219.580078"/>
      <use xlink:href="#DejaVuSans-53" x="251.367188"/>
      <use xlink:href="#DejaVuSans-61" x="314.84375"/>
      <use xlink:href="#DejaVuSans-6d" x="376.123047"/>
      <use xlink:href="#DejaVuSans-70" x="473.535156"/>
      <use xlink:href="#DejaVuSans-6c" x="537.011719"/>
      <use xlink:href="#DejaVuSans-65" x="564.794922"/>
     </g>
    </g>
   </g>
  </g>
 </g>
 <defs>
  <clipPath id="p8f2066c907">
   <rect x="72" y="43.2" width="446.4" height="277.2"/>
  </clipPath>
 </defs>
</svg>
