<?xml version="1.0" encoding="utf-8" standalone="no"?>
<!DOCTYPE svg PUBLIC "-//W3C//DTD SVG 1.1//EN"
  "http://www.w3.org/Graphics/SVG/1.1/DTD/svg11.dtd">
<svg xmlns:xlink="http://www.w3.org/1999/xlink" width="460.8pt" height="345.6pt" viewBox="0 0 460.8 345.6" xmlns="http://www.w3.org/2000/svg" version="1.1">
 <metadata>
  <rdf:RDF xmlns:dc="http://purl.org/dc/elements/1.1/" xmlns:cc="http://creativecommons.org/ns#" xmlns:rdf="http://www.w3.org/1999/02/22-rdf-syntax-ns#">
   <cc:Work>
    <dc:type rdf:resource="http://purl.org/dc/dcmitype/StillImage"/>
    <dc:date>2024-10-24T22:58:09.991563</dc:date>
    <dc:format>image/svg+xml</dc:format>
    <dc:creator>
     <cc:Agent>
      <dc:title>Matplotlib v3.9.2, https://matplotlib.org/</dc:title>
     </cc:Agent>
    </dc:creator>
   </cc:Work>
  </rdf:RDF>
 </metadata>
 <defs>
  <style type="text/css">*{stroke-linejoin: round; stroke-linecap: butt}</style>
 </defs>
 <g id="figure_1">
  <g id="patch_1">
   <path d="M 0 345.6 
L 460.8 345.6 
L 460.8 0 
L 0 0 
z
" style="fill: #ffffff"/>
  </g>
  <g id="axes_1">
   <g id="patch_2">
    <path d="M 172.29312 307.584 
L 300.02688 307.584 
L 300.02688 41.472 
L 172.29312 41.472 
z
" style="fill: #ffffff"/>
   </g>
   <g id="PathCollection_1">
    <defs>
     <path id="C0_0_ad0df25b3c" d="M 0 1.581139 
C 0.419323 1.581139 0.821528 1.41454 1.118034 1.118034 
C 1.41454 0.821528 1.581139 0.419323 1.581139 -0 
C 1.581139 -0.419323 1.41454 -0.821528 1.118034 -1.118034 
C 0.821528 -1.41454 0.419323 -1.581139 0 -1.581139 
C -0.419323 -1.581139 -0.821528 -1.41454 -1.118034 -1.118034 
C -1.41454 -0.821528 -1.581139 -0.419323 -1.581139 0 
C -1.581139 0.419323 -1.41454 0.821528 -1.118034 1.118034 
C -0.821528 1.41454 -0.419323 1.581139 0 1.581139 
z
"/>
    </defs>
   </g>
   <g id="matplotlib.axis_1">
    <g id="xtick_1">
     <g id="line2d_1">
      <defs>
       <path id="m7ba8e50c13" d="M 0 0 
L 0 3.5 
" style="stroke: #000000; stroke-width: 0.8"/>
      </defs>
      <g>
       <use xlink:href="#m7ba8e50c13" x="172.29312" y="307.584" style="stroke: #000000; stroke-width: 0.8"/>
      </g>
     </g>
     <g id="text_1">
      <!-- 0 -->
      <g transform="translate(169.11187 322.182437) scale(0.1 -0.1)">
       <defs>
        <path id="DejaVuSans-30" d="M 2034 4250 
Q 1547 4250 1301 3770 
Q 1056 3291 1056 2328 
Q 1056 1369 1301 889 
Q 1547 409 2034 409 
Q 2525 409 2770 889 
Q 3016 1369 3016 2328 
Q 3016 3291 2770 3770 
Q 2525 4250 2034 4250 
z
M 2034 4750 
Q 2819 4750 3233 4129 
Q 3647 3509 3647 2328 
Q 3647 1150 3233 529 
Q 2819 -91 2034 -91 
Q 1250 -91 836 529 
Q 422 1150 422 2328 
Q 422 3509 836 4129 
Q 1250 4750 2034 4750 
z
" transform="scale(0.015625)"/>
       </defs>
       <use xlink:href="#DejaVuSans-30"/>
      </g>
     </g>
    </g>
    <g id="xtick_2">
     <g id="line2d_2">
      <g>
       <use xlink:href="#m7ba8e50c13" x="225.51552" y="307.584" style="stroke: #000000; stroke-width: 0.8"/>
      </g>
     </g>
     <g id="text_2">
      <!-- 5 -->
      <g transform="translate(222.33427 322.182437) scale(0.1 -0.1)">
       <defs>
        <path id="DejaVuSans-35" d="M 691 4666 
L 3169 4666 
L 3169 4134 
L 1269 4134 
L 1269 2991 
Q 1406 3038 1543 3061 
Q 1681 3084 1819 3084 
Q 2600 3084 3056 2656 
Q 3513 2228 3513 1497 
Q 3513 744 3044 326 
Q 2575 -91 1722 -91 
Q 1428 -91 1123 -41 
Q 819 9 494 109 
L 494 744 
Q 775 591 1075 516 
Q 1375 441 1709 441 
Q 2250 441 2565 725 
Q 2881 1009 2881 1497 
Q 2881 1984 2565 2268 
Q 2250 2553 1709 2553 
Q 1456 2553 1204 2497 
Q 953 2441 691 2322 
L 691 4666 
z
" transform="scale(0.015625)"/>
       </defs>
       <use xlink:href="#DejaVuSans-35"/>
      </g>
     </g>
    </g>
    <g id="xtick_3">
     <g id="line2d_3">
      <g>
       <use xlink:href="#m7ba8e50c13" x="278.73792" y="307.584" style="stroke: #000000; stroke-width: 0.8"/>
      </g>
     </g>
     <g id="text_3">
      <!-- 10 -->
      <g transform="translate(272.37542 322.182437) scale(0.1 -0.1)">
       <defs>
        <path id="DejaVuSans-31" d="M 794 531 
L 1825 531 
L 1825 4091 
L 703 3866 
L 703 4441 
L 1819 4666 
L 2450 4666 
L 2450 531 
L 3481 531 
L 3481 0 
L 794 0 
L 794 531 
z
" transform="scale(0.015625)"/>
       </defs>
       <use xlink:href="#DejaVuSans-31"/>
       <use xlink:href="#DejaVuSans-30" x="63.623047"/>
      </g>
     </g>
    </g>
    <g id="text_4">
     <!-- $X_1$ -->
     <g transform="translate(228.04 338.899937) scale(0.14 -0.14)">
      <defs>
       <path id="DejaVuSans-Oblique-58" d="M 878 4666 
L 1516 4666 
L 2316 2981 
L 3763 4666 
L 4500 4666 
L 2578 2438 
L 3738 0 
L 3103 0 
L 2163 1966 
L 459 0 
L -275 0 
L 1906 2509 
L 878 4666 
z
" transform="scale(0.015625)"/>
      </defs>
      <use xlink:href="#DejaVuSans-Oblique-58" transform="translate(0 0.09375)"/>
      <use xlink:href="#DejaVuSans-31" transform="translate(68.505859 -16.3125) scale(0.7)"/>
     </g>
    </g>
   </g>
   <g id="matplotlib.axis_2">
    <g id="ytick_1">
     <g id="line2d_4">
      <defs>
       <path id="m3535110092" d="M 0 0 
L -3.5 0 
" style="stroke: #000000; stroke-width: 0.8"/>
      </defs>
      <g>
       <use xlink:href="#m3535110092" x="172.29312" y="307.584" style="stroke: #000000; stroke-width: 0.8"/>
      </g>
     </g>
     <g id="text_5">
      <!-- 0 -->
      <g transform="translate(158.93062 311.383219) scale(0.1 -0.1)">
       <use xlink:href="#DejaVuSans-30"/>
      </g>
     </g>
    </g>
    <g id="ytick_2">
     <g id="line2d_5">
      <g>
       <use xlink:href="#m3535110092" x="172.29312" y="254.3616" style="stroke: #000000; stroke-width: 0.8"/>
      </g>
     </g>
     <g id="text_6">
      <!-- 5 -->
      <g transform="translate(158.93062 258.160819) scale(0.1 -0.1)">
       <use xlink:href="#DejaVuSans-35"/>
      </g>
     </g>
    </g>
    <g id="ytick_3">
     <g id="line2d_6">
      <g>
       <use xlink:href="#m3535110092" x="172.29312" y="201.1392" style="stroke: #000000; stroke-width: 0.8"/>
      </g>
     </g>
     <g id="text_7">
      <!-- 10 -->
      <g transform="translate(152.56812 204.938419) scale(0.1 -0.1)">
       <use xlink:href="#DejaVuSans-31"/>
       <use xlink:href="#DejaVuSans-30" x="63.623047"/>
      </g>
     </g>
    </g>
    <g id="ytick_4">
     <g id="line2d_7">
      <g>
       <use xlink:href="#m3535110092" x="172.29312" y="147.9168" style="stroke: #000000; stroke-width: 0.8"/>
      </g>
     </g>
     <g id="text_8">
      <!-- 15 -->
      <g transform="translate(152.56812 151.716019) scale(0.1 -0.1)">
       <use xlink:href="#DejaVuSans-31"/>
       <use xlink:href="#DejaVuSans-35" x="63.623047"/>
      </g>
     </g>
    </g>
    <g id="ytick_5">
     <g id="line2d_8">
      <g>
       <use xlink:href="#m3535110092" x="172.29312" y="94.6944" style="stroke: #000000; stroke-width: 0.8"/>
      </g>
     </g>
     <g id="text_9">
      <!-- 20 -->
      <g transform="translate(152.56812 98.493619) scale(0.1 -0.1)">
       <defs>
        <path id="DejaVuSans-32" d="M 1228 531 
L 3431 531 
L 3431 0 
L 469 0 
L 469 531 
Q 828 903 1448 1529 
Q 2069 2156 2228 2338 
Q 2531 2678 2651 2914 
Q 2772 3150 2772 3378 
Q 2772 3750 2511 3984 
Q 2250 4219 1831 4219 
Q 1534 4219 1204 4116 
Q 875 4013 500 3803 
L 500 4441 
Q 881 4594 1212 4672 
Q 1544 4750 1819 4750 
Q 2544 4750 2975 4387 
Q 3406 4025 3406 3419 
Q 3406 3131 3298 2873 
Q 3191 2616 2906 2266 
Q 2828 2175 2409 1742 
Q 1991 1309 1228 531 
z
" transform="scale(0.015625)"/>
       </defs>
       <use xlink:href="#DejaVuSans-32"/>
       <use xlink:href="#DejaVuSans-30" x="63.623047"/>
      </g>
     </g>
    </g>
    <g id="ytick_6">
     <g id="line2d_9">
      <g>
       <use xlink:href="#m3535110092" x="172.29312" y="41.472" style="stroke: #000000; stroke-width: 0.8"/>
      </g>
     </g>
     <g id="text_10">
      <!-- 25 -->
      <g transform="translate(152.56812 45.271219) scale(0.1 -0.1)">
       <use xlink:href="#DejaVuSans-32"/>
       <use xlink:href="#DejaVuSans-35" x="63.623047"/>
      </g>
     </g>
    </g>
    <g id="text_11">
     <!-- $X_2$ -->
     <g transform="translate(145.656558 182.648) rotate(-90) scale(0.14 -0.14)">
      <use xlink:href="#DejaVuSans-Oblique-58" transform="translate(0 0.09375)"/>
      <use xlink:href="#DejaVuSans-32" transform="translate(68.505859 -16.3125) scale(0.7)"/>
     </g>
    </g>
   </g>
   <g id="QuadContourSet_1">
    <path clip-path="url(#p4a822e5aff)" style="fill: none; stroke: #f7fbff; stroke-width: 1.5"/>
    <path d="M 172.29312 271.912145 
L 173.58336 271.496456 
L 174.8736 270.936778 
L 176.16384 270.194053 
L 176.515379 269.952 
L 177.45408 269.446138 
L 178.74432 268.581996 
L 180.03456 267.451582 
L 180.225304 267.264 
L 181.3248 266.327064 
L 182.61504 264.917494 
L 182.89435 264.576 
L 183.90528 263.405438 
L 184.9748 261.888 
L 185.19552 261.568539 
L 186.48576 259.498661 
L 186.65848 259.2 
L 187.776 257.078143 
L 188.057558 256.512 
L 189.06624 254.147654 
L 189.204221 253.824 
L 190.176728 251.136 
L 190.35648 250.516031 
L 191.006207 248.448 
L 191.638374 245.76 
L 191.64672 245.716537 
L 192.233016 243.072 
L 192.670779 240.384 
L 192.93696 238.195845 
L 193.010808 237.696 
L 193.310583 235.008 
L 193.516824 232.32 
L 193.646117 229.632 
L 193.708429 226.944 
L 193.709123 224.256 
L 193.65016 221.568 
L 193.530817 218.88 
L 193.348088 216.192 
L 193.096874 213.504 
L 192.93696 212.132728 
L 192.790041 210.816 
L 192.422089 208.128 
L 191.959466 205.44 
L 191.64672 203.896995 
L 191.399067 202.752 
L 190.719854 200.064 
L 190.35648 198.815385 
L 189.861478 197.376 
L 189.06624 195.344225 
L 188.728756 194.688 
L 187.776 192.961795 
L 186.962205 192 
L 186.48576 191.445888 
L 185.19552 190.608106 
L 183.90528 190.383695 
L 182.61504 190.680121 
L 181.3248 191.460341 
L 180.768197 192 
L 180.03456 192.635448 
L 178.74432 194.200209 
L 178.426768 194.688 
L 177.45408 196.076852 
L 176.714239 197.376 
L 176.16384 198.290421 
L 175.258213 200.064 
L 174.8736 200.789248 
L 173.958406 202.752 
L 173.58336 203.540038 
L 172.762975 205.44 
L 172.29312 206.52466 
" clip-path="url(#p4a822e5aff)" style="fill: none; stroke: #deebf7; stroke-width: 1.5"/>
    <path d="M 172.29312 268.158492 
L 173.58336 267.723822 
L 174.543983 267.264 
L 174.8736 267.130117 
L 176.16384 266.464037 
L 177.45408 265.607474 
L 178.666206 264.576 
L 178.74432 264.514374 
L 180.03456 263.355227 
L 181.31633 261.888 
L 181.3248 261.878288 
L 182.61504 260.257355 
L 183.32875 259.2 
L 183.90528 258.281406 
L 184.90416 256.512 
L 185.19552 255.923349 
L 186.182312 253.824 
L 186.48576 253.047522 
L 187.231157 251.136 
L 187.776 249.372174 
L 188.074071 248.448 
L 188.763196 245.76 
L 189.06624 244.206316 
L 189.311556 243.072 
L 189.751905 240.384 
L 190.064661 237.696 
L 190.275096 235.008 
L 190.35648 233.209611 
L 190.404043 232.32 
L 190.450608 229.632 
L 190.406158 226.944 
L 190.35648 225.92105 
L 190.279536 224.256 
L 190.068742 221.568 
L 189.757418 218.88 
L 189.330759 216.192 
L 189.06624 214.850064 
L 188.769253 213.504 
L 188.032512 210.816 
L 187.776 210.016659 
L 187.001939 208.128 
L 186.48576 207.028784 
L 185.375932 205.44 
L 185.19552 205.198132 
L 183.90528 204.174243 
L 182.61504 203.844001 
L 181.3248 204.079156 
L 180.03456 204.818701 
L 179.379784 205.44 
L 178.74432 205.982244 
L 177.45408 207.529457 
L 177.062702 208.128 
L 176.16384 209.413204 
L 175.364578 210.816 
L 174.8736 211.636598 
L 173.923589 213.504 
L 173.58336 214.152735 
L 172.640478 216.192 
L 172.29312 216.934459 
" clip-path="url(#p4a822e5aff)" style="fill: none; stroke: #c6dbef; stroke-width: 1.5"/>
    <path d="M 172.29312 265.251907 
L 173.58336 264.874298 
L 174.237485 264.576 
L 174.8736 264.310046 
L 176.16384 263.586706 
L 177.45408 262.648159 
L 178.293233 261.888 
L 178.74432 261.482566 
L 180.03456 260.113178 
L 180.758743 259.2 
L 181.3248 258.440867 
L 182.568861 256.512 
L 182.61504 256.431249 
L 183.90528 253.978458 
L 183.981355 253.824 
L 185.101289 251.136 
L 185.19552 250.855562 
L 186.005846 248.448 
L 186.48576 246.582109 
L 186.70651 245.76 
L 187.260145 243.072 
L 187.656576 240.384 
L 187.776 239.190034 
L 187.941738 237.696 
L 188.111891 235.008 
L 188.165412 232.32 
L 188.105775 229.632 
L 187.929285 226.944 
L 187.776 225.529264 
L 187.627326 224.256 
L 187.174747 221.568 
L 186.536114 218.88 
L 186.48576 218.702467 
L 185.568719 216.192 
L 185.19552 215.351096 
L 183.940924 213.504 
L 183.90528 213.4567 
L 182.61504 212.486899 
L 181.3248 212.253364 
L 180.03456 212.614367 
L 178.744769 213.504 
L 178.74432 213.504278 
L 177.45408 214.770546 
L 176.397113 216.192 
L 176.16384 216.484891 
L 174.8736 218.532149 
L 174.688997 218.88 
L 173.58336 220.901815 
L 173.266801 221.568 
L 172.29312 223.597314 
" clip-path="url(#p4a822e5aff)" style="fill: none; stroke: #9dcae1; stroke-width: 1.5"/>
    <path d="M 172.29312 262.604066 
L 173.58336 262.31618 
L 174.599089 261.888 
L 174.8736 261.774181 
L 176.16384 261.006061 
L 177.45408 259.999139 
L 178.272371 259.2 
L 178.74432 258.713742 
L 180.03456 257.136528 
L 180.476174 256.512 
L 181.3248 255.164131 
L 182.07647 253.824 
L 182.61504 252.685572 
L 183.300754 251.136 
L 183.90528 249.43273 
L 184.247206 248.448 
L 184.970704 245.76 
L 185.19552 244.632181 
L 185.516837 243.072 
L 185.898627 240.384 
L 186.129474 237.696 
L 186.22044 235.008 
L 186.170076 232.32 
L 185.966156 229.632 
L 185.585859 226.944 
L 185.19552 225.097137 
L 184.96795 224.256 
L 183.96986 221.568 
L 183.90528 221.426281 
L 182.61504 219.598086 
L 181.437771 218.88 
L 181.3248 218.816337 
L 180.03456 218.785264 
L 179.835107 218.88 
L 178.74432 219.347691 
L 177.45408 220.415169 
L 176.501819 221.568 
L 176.16384 221.952399 
L 174.8736 223.880058 
L 174.666547 224.256 
L 173.58336 226.178402 
L 173.213999 226.944 
L 172.29312 228.85381 
" clip-path="url(#p4a822e5aff)" style="fill: none; stroke: #6aaed6; stroke-width: 1.5"/>
    <path d="M 172.29312 259.908096 
L 173.58336 259.757557 
L 174.8736 259.283059 
L 175.011806 259.2 
L 176.16384 258.472114 
L 177.45408 257.37872 
L 178.263889 256.512 
L 178.74432 255.937022 
L 180.03456 254.099073 
L 180.203959 253.824 
L 181.3248 251.670212 
L 181.577794 251.136 
L 182.599483 248.448 
L 182.61504 248.394387 
L 183.351878 245.76 
L 183.890923 243.072 
L 183.90528 242.958873 
L 184.235095 240.384 
L 184.397623 237.696 
L 184.379384 235.008 
L 184.164551 232.32 
L 183.90528 230.675609 
L 183.68963 229.632 
L 182.805462 226.944 
L 182.61504 226.515699 
L 181.3248 224.819226 
L 180.03456 224.257719 
L 178.74432 224.485942 
L 177.45408 225.323462 
L 176.16384 226.694829 
L 175.992721 226.944 
L 174.8736 228.52463 
L 174.248989 229.632 
L 173.58336 230.807899 
L 172.861918 232.32 
L 172.29312 233.543224 
" clip-path="url(#p4a822e5aff)" style="fill: none; stroke: #4191c6; stroke-width: 1.5"/>
    <path d="M 172.29312 256.837444 
L 173.58336 256.947003 
L 174.8736 256.592672 
L 175.010694 256.512 
L 176.16384 255.75053 
L 177.45408 254.546648 
L 178.055861 253.824 
L 178.74432 252.842424 
L 179.75008 251.136 
L 180.03456 250.528376 
L 180.897134 248.448 
L 181.3248 247.068997 
L 181.70181 245.76 
L 182.226007 243.072 
L 182.521441 240.384 
L 182.571651 237.696 
L 182.324831 235.008 
L 181.682884 232.32 
L 181.3248 231.406968 
L 180.03456 229.757362 
L 179.558698 229.632 
L 178.74432 229.457325 
L 178.341715 229.632 
L 177.45408 230.001743 
L 176.16384 231.198268 
L 175.345331 232.32 
L 174.8736 232.96879 
L 173.735185 235.008 
L 173.58336 235.291335 
L 172.518041 237.696 
L 172.29312 238.24862 
" clip-path="url(#p4a822e5aff)" style="fill: none; stroke: #2070b4; stroke-width: 1.5"/>
    <path d="M 172.29312 251.9199 
L 173.58336 253.22024 
L 174.8736 253.179418 
L 176.16384 252.393811 
L 177.413062 251.136 
L 177.45408 251.08215 
L 178.74432 248.784734 
L 178.901766 248.448 
L 179.797094 245.76 
L 180.03456 244.590184 
L 180.303206 243.072 
L 180.435117 240.384 
L 180.156953 237.696 
L 180.03456 237.245244 
L 178.74432 235.132928 
L 177.45408 235.048487 
L 176.16384 236.038658 
L 174.905394 237.696 
L 174.8736 237.741832 
L 173.58336 240.343408 
L 173.566961 240.384 
L 172.658796 243.072 
L 172.29312 244.502017 
" clip-path="url(#p4a822e5aff)" style="fill: none; stroke: #08509b; stroke-width: 1.5"/>
    <path clip-path="url(#p4a822e5aff)" style="fill: none; stroke: #08306b; stroke-width: 1.5"/>
   </g>
   <g id="patch_3">
    <path d="M 172.29312 307.584 
L 172.29312 41.472 
" style="fill: none; stroke: #000000; stroke-width: 0.8; stroke-linejoin: miter; stroke-linecap: square"/>
   </g>
   <g id="patch_4">
    <path d="M 300.02688 307.584 
L 300.02688 41.472 
" style="fill: none; stroke: #000000; stroke-width: 0.8; stroke-linejoin: miter; stroke-linecap: square"/>
   </g>
   <g id="patch_5">
    <path d="M 172.29312 307.584 
L 300.02688 307.584 
" style="fill: none; stroke: #000000; stroke-width: 0.8; stroke-linejoin: miter; stroke-linecap: square"/>
   </g>
   <g id="patch_6">
    <path d="M 172.29312 41.472 
L 300.02688 41.472 
" style="fill: none; stroke: #000000; stroke-width: 0.8; stroke-linejoin: miter; stroke-linecap: square"/>
   </g>
  </g>
 </g>
 <defs>
  <clipPath id="p4a822e5aff">
   <rect x="172.29312" y="41.472" width="127.73376" height="266.112"/>
  </clipPath>
 </defs>
</svg>
