<?xml version="1.0" encoding="utf-8" standalone="no"?>
<!DOCTYPE svg PUBLIC "-//W3C//DTD SVG 1.1//EN"
  "http://www.w3.org/Graphics/SVG/1.1/DTD/svg11.dtd">
<svg xmlns:xlink="http://www.w3.org/1999/xlink" width="576pt" height="360pt" viewBox="0 0 576 360" xmlns="http://www.w3.org/2000/svg" version="1.1">
 <metadata>
  <rdf:RDF xmlns:dc="http://purl.org/dc/elements/1.1/" xmlns:cc="http://creativecommons.org/ns#" xmlns:rdf="http://www.w3.org/1999/02/22-rdf-syntax-ns#">
   <cc:Work>
    <dc:type rdf:resource="http://purl.org/dc/dcmitype/StillImage"/>
    <dc:date>2024-10-25T13:49:08.196097</dc:date>
    <dc:format>image/svg+xml</dc:format>
    <dc:creator>
     <cc:Agent>
      <dc:title>Matplotlib v3.9.2, https://matplotlib.org/</dc:title>
     </cc:Agent>
    </dc:creator>
   </cc:Work>
  </rdf:RDF>
 </metadata>
 <defs>
  <style type="text/css">*{stroke-linejoin: round; stroke-linecap: butt}</style>
 </defs>
 <g id="figure_1">
  <g id="patch_1">
   <path d="M 0 360 
L 576 360 
L 576 0 
L 0 0 
z
" style="fill: #ffffff"/>
  </g>
  <g id="axes_1">
   <g id="patch_2">
    <path d="M 72 320.4 
L 518.4 320.4 
L 518.4 43.2 
L 72 43.2 
z
" style="fill: #ffffff"/>
   </g>
   <g id="matplotlib.axis_1">
    <g id="xtick_1">
     <g id="line2d_1">
      <path d="M 127.802808 320.4 
L 127.802808 43.2 
" clip-path="url(#pf9e9ec487d)" style="fill: none; stroke: #b0b0b0; stroke-width: 0.8; stroke-linecap: square"/>
     </g>
     <g id="line2d_2">
      <defs>
       <path id="m25ebbe3783" d="M 0 0 
L 0 3.5 
" style="stroke: #000000; stroke-width: 0.8"/>
      </defs>
      <g>
       <use xlink:href="#m25ebbe3783" x="127.802808" y="320.4" style="stroke: #000000; stroke-width: 0.8"/>
      </g>
     </g>
     <g id="text_1">
      <!-- 0.0 -->
      <g transform="translate(119.851245 334.998438) scale(0.1 -0.1)">
       <defs>
        <path id="DejaVuSans-30" d="M 2034 4250 
Q 1547 4250 1301 3770 
Q 1056 3291 1056 2328 
Q 1056 1369 1301 889 
Q 1547 409 2034 409 
Q 2525 409 2770 889 
Q 3016 1369 3016 2328 
Q 3016 3291 2770 3770 
Q 2525 4250 2034 4250 
z
M 2034 4750 
Q 2819 4750 3233 4129 
Q 3647 3509 3647 2328 
Q 3647 1150 3233 529 
Q 2819 -91 2034 -91 
Q 1250 -91 836 529 
Q 422 1150 422 2328 
Q 422 3509 836 4129 
Q 1250 4750 2034 4750 
z
" transform="scale(0.015625)"/>
        <path id="DejaVuSans-2e" d="M 684 794 
L 1344 794 
L 1344 0 
L 684 0 
L 684 794 
z
" transform="scale(0.015625)"/>
       </defs>
       <use xlink:href="#DejaVuSans-30"/>
       <use xlink:href="#DejaVuSans-2e" x="63.623047"/>
       <use xlink:href="#DejaVuSans-30" x="95.410156"/>
      </g>
     </g>
    </g>
    <g id="xtick_2">
     <g id="line2d_3">
      <path d="M 204.328532 320.4 
L 204.328532 43.2 
" clip-path="url(#pf9e9ec487d)" style="fill: none; stroke: #b0b0b0; stroke-width: 0.8; stroke-linecap: square"/>
     </g>
     <g id="line2d_4">
      <g>
       <use xlink:href="#m25ebbe3783" x="204.328532" y="320.4" style="stroke: #000000; stroke-width: 0.8"/>
      </g>
     </g>
     <g id="text_2">
      <!-- 0.5 -->
      <g transform="translate(196.37697 334.998438) scale(0.1 -0.1)">
       <defs>
        <path id="DejaVuSans-35" d="M 691 4666 
L 3169 4666 
L 3169 4134 
L 1269 4134 
L 1269 2991 
Q 1406 3038 1543 3061 
Q 1681 3084 1819 3084 
Q 2600 3084 3056 2656 
Q 3513 2228 3513 1497 
Q 3513 744 3044 326 
Q 2575 -91 1722 -91 
Q 1428 -91 1123 -41 
Q 819 9 494 109 
L 494 744 
Q 775 591 1075 516 
Q 1375 441 1709 441 
Q 2250 441 2565 725 
Q 2881 1009 2881 1497 
Q 2881 1984 2565 2268 
Q 2250 2553 1709 2553 
Q 1456 2553 1204 2497 
Q 953 2441 691 2322 
L 691 4666 
z
" transform="scale(0.015625)"/>
       </defs>
       <use xlink:href="#DejaVuSans-30"/>
       <use xlink:href="#DejaVuSans-2e" x="63.623047"/>
       <use xlink:href="#DejaVuSans-35" x="95.410156"/>
      </g>
     </g>
    </g>
    <g id="xtick_3">
     <g id="line2d_5">
      <path d="M 280.854256 320.4 
L 280.854256 43.2 
" clip-path="url(#pf9e9ec487d)" style="fill: none; stroke: #b0b0b0; stroke-width: 0.8; stroke-linecap: square"/>
     </g>
     <g id="line2d_6">
      <g>
       <use xlink:href="#m25ebbe3783" x="280.854256" y="320.4" style="stroke: #000000; stroke-width: 0.8"/>
      </g>
     </g>
     <g id="text_3">
      <!-- 1.0 -->
      <g transform="translate(272.902694 334.998438) scale(0.1 -0.1)">
       <defs>
        <path id="DejaVuSans-31" d="M 794 531 
L 1825 531 
L 1825 4091 
L 703 3866 
L 703 4441 
L 1819 4666 
L 2450 4666 
L 2450 531 
L 3481 531 
L 3481 0 
L 794 0 
L 794 531 
z
" transform="scale(0.015625)"/>
       </defs>
       <use xlink:href="#DejaVuSans-31"/>
       <use xlink:href="#DejaVuSans-2e" x="63.623047"/>
       <use xlink:href="#DejaVuSans-30" x="95.410156"/>
      </g>
     </g>
    </g>
    <g id="xtick_4">
     <g id="line2d_7">
      <path d="M 357.37998 320.4 
L 357.37998 43.2 
" clip-path="url(#pf9e9ec487d)" style="fill: none; stroke: #b0b0b0; stroke-width: 0.8; stroke-linecap: square"/>
     </g>
     <g id="line2d_8">
      <g>
       <use xlink:href="#m25ebbe3783" x="357.37998" y="320.4" style="stroke: #000000; stroke-width: 0.8"/>
      </g>
     </g>
     <g id="text_4">
      <!-- 1.5 -->
      <g transform="translate(349.428418 334.998438) scale(0.1 -0.1)">
       <use xlink:href="#DejaVuSans-31"/>
       <use xlink:href="#DejaVuSans-2e" x="63.623047"/>
       <use xlink:href="#DejaVuSans-35" x="95.410156"/>
      </g>
     </g>
    </g>
    <g id="xtick_5">
     <g id="line2d_9">
      <path d="M 433.905704 320.4 
L 433.905704 43.2 
" clip-path="url(#pf9e9ec487d)" style="fill: none; stroke: #b0b0b0; stroke-width: 0.8; stroke-linecap: square"/>
     </g>
     <g id="line2d_10">
      <g>
       <use xlink:href="#m25ebbe3783" x="433.905704" y="320.4" style="stroke: #000000; stroke-width: 0.8"/>
      </g>
     </g>
     <g id="text_5">
      <!-- 2.0 -->
      <g transform="translate(425.954142 334.998438) scale(0.1 -0.1)">
       <defs>
        <path id="DejaVuSans-32" d="M 1228 531 
L 3431 531 
L 3431 0 
L 469 0 
L 469 531 
Q 828 903 1448 1529 
Q 2069 2156 2228 2338 
Q 2531 2678 2651 2914 
Q 2772 3150 2772 3378 
Q 2772 3750 2511 3984 
Q 2250 4219 1831 4219 
Q 1534 4219 1204 4116 
Q 875 4013 500 3803 
L 500 4441 
Q 881 4594 1212 4672 
Q 1544 4750 1819 4750 
Q 2544 4750 2975 4387 
Q 3406 4025 3406 3419 
Q 3406 3131 3298 2873 
Q 3191 2616 2906 2266 
Q 2828 2175 2409 1742 
Q 1991 1309 1228 531 
z
" transform="scale(0.015625)"/>
       </defs>
       <use xlink:href="#DejaVuSans-32"/>
       <use xlink:href="#DejaVuSans-2e" x="63.623047"/>
       <use xlink:href="#DejaVuSans-30" x="95.410156"/>
      </g>
     </g>
    </g>
    <g id="xtick_6">
     <g id="line2d_11">
      <path d="M 510.431429 320.4 
L 510.431429 43.2 
" clip-path="url(#pf9e9ec487d)" style="fill: none; stroke: #b0b0b0; stroke-width: 0.8; stroke-linecap: square"/>
     </g>
     <g id="line2d_12">
      <g>
       <use xlink:href="#m25ebbe3783" x="510.431429" y="320.4" style="stroke: #000000; stroke-width: 0.8"/>
      </g>
     </g>
     <g id="text_6">
      <!-- 2.5 -->
      <g transform="translate(502.479866 334.998438) scale(0.1 -0.1)">
       <use xlink:href="#DejaVuSans-32"/>
       <use xlink:href="#DejaVuSans-2e" x="63.623047"/>
       <use xlink:href="#DejaVuSans-35" x="95.410156"/>
      </g>
     </g>
    </g>
    <g id="text_7">
     <!-- $Z(X_1,X_2)$ -->
     <g transform="translate(273.7 348.676562) scale(0.1 -0.1)">
      <defs>
       <path id="DejaVuSans-Oblique-5a" d="M 838 4666 
L 4500 4666 
L 4409 4184 
L 794 531 
L 3769 531 
L 3669 0 
L -141 0 
L -50 481 
L 3566 4134 
L 738 4134 
L 838 4666 
z
" transform="scale(0.015625)"/>
       <path id="DejaVuSans-28" d="M 1984 4856 
Q 1566 4138 1362 3434 
Q 1159 2731 1159 2009 
Q 1159 1288 1364 580 
Q 1569 -128 1984 -844 
L 1484 -844 
Q 1016 -109 783 600 
Q 550 1309 550 2009 
Q 550 2706 781 3412 
Q 1013 4119 1484 4856 
L 1984 4856 
z
" transform="scale(0.015625)"/>
       <path id="DejaVuSans-Oblique-58" d="M 878 4666 
L 1516 4666 
L 2316 2981 
L 3763 4666 
L 4500 4666 
L 2578 2438 
L 3738 0 
L 3103 0 
L 2163 1966 
L 459 0 
L -275 0 
L 1906 2509 
L 878 4666 
z
" transform="scale(0.015625)"/>
       <path id="DejaVuSans-2c" d="M 750 794 
L 1409 794 
L 1409 256 
L 897 -744 
L 494 -744 
L 750 256 
L 750 794 
z
" transform="scale(0.015625)"/>
       <path id="DejaVuSans-29" d="M 513 4856 
L 1013 4856 
Q 1481 4119 1714 3412 
Q 1947 2706 1947 2009 
Q 1947 1309 1714 600 
Q 1481 -109 1013 -844 
L 513 -844 
Q 928 -128 1133 580 
Q 1338 1288 1338 2009 
Q 1338 2731 1133 3434 
Q 928 4138 513 4856 
z
" transform="scale(0.015625)"/>
      </defs>
      <use xlink:href="#DejaVuSans-Oblique-5a" transform="translate(0 0.125)"/>
      <use xlink:href="#DejaVuSans-28" transform="translate(68.505859 0.125)"/>
      <use xlink:href="#DejaVuSans-Oblique-58" transform="translate(107.519531 0.125)"/>
      <use xlink:href="#DejaVuSans-31" transform="translate(176.025391 -16.28125) scale(0.7)"/>
      <use xlink:href="#DejaVuSans-2c" transform="translate(223.295898 0.125)"/>
      <use xlink:href="#DejaVuSans-Oblique-58" transform="translate(274.56543 0.125)"/>
      <use xlink:href="#DejaVuSans-32" transform="translate(343.071289 -16.28125) scale(0.7)"/>
      <use xlink:href="#DejaVuSans-29" transform="translate(390.341797 0.125)"/>
     </g>
    </g>
    <g id="text_8">
     <!-- 1e6 -->
     <g transform="translate(499.521875 347.676562) scale(0.1 -0.1)">
      <defs>
       <path id="DejaVuSans-65" d="M 3597 1894 
L 3597 1613 
L 953 1613 
Q 991 1019 1311 708 
Q 1631 397 2203 397 
Q 2534 397 2845 478 
Q 3156 559 3463 722 
L 3463 178 
Q 3153 47 2828 -22 
Q 2503 -91 2169 -91 
Q 1331 -91 842 396 
Q 353 884 353 1716 
Q 353 2575 817 3079 
Q 1281 3584 2069 3584 
Q 2775 3584 3186 3129 
Q 3597 2675 3597 1894 
z
M 3022 2063 
Q 3016 2534 2758 2815 
Q 2500 3097 2075 3097 
Q 1594 3097 1305 2825 
Q 1016 2553 972 2059 
L 3022 2063 
z
" transform="scale(0.015625)"/>
       <path id="DejaVuSans-36" d="M 2113 2584 
Q 1688 2584 1439 2293 
Q 1191 2003 1191 1497 
Q 1191 994 1439 701 
Q 1688 409 2113 409 
Q 2538 409 2786 701 
Q 3034 994 3034 1497 
Q 3034 2003 2786 2293 
Q 2538 2584 2113 2584 
z
M 3366 4563 
L 3366 3988 
Q 3128 4100 2886 4159 
Q 2644 4219 2406 4219 
Q 1781 4219 1451 3797 
Q 1122 3375 1075 2522 
Q 1259 2794 1537 2939 
Q 1816 3084 2150 3084 
Q 2853 3084 3261 2657 
Q 3669 2231 3669 1497 
Q 3669 778 3244 343 
Q 2819 -91 2113 -91 
Q 1303 -91 875 529 
Q 447 1150 447 2328 
Q 447 3434 972 4092 
Q 1497 4750 2381 4750 
Q 2619 4750 2861 4703 
Q 3103 4656 3366 4563 
z
" transform="scale(0.015625)"/>
      </defs>
      <use xlink:href="#DejaVuSans-31"/>
      <use xlink:href="#DejaVuSans-65" x="63.623047"/>
      <use xlink:href="#DejaVuSans-36" x="125.146484"/>
     </g>
    </g>
   </g>
   <g id="matplotlib.axis_2">
    <g id="ytick_1">
     <g id="line2d_13">
      <path d="M 72 315.41028 
L 518.4 315.41028 
" clip-path="url(#pf9e9ec487d)" style="fill: none; stroke: #b0b0b0; stroke-width: 0.8; stroke-linecap: square"/>
     </g>
     <g id="line2d_14">
      <defs>
       <path id="mdf323885f0" d="M 0 0 
L -3.5 0 
" style="stroke: #000000; stroke-width: 0.8"/>
      </defs>
      <g>
       <use xlink:href="#mdf323885f0" x="72" y="315.41028" style="stroke: #000000; stroke-width: 0.8"/>
      </g>
     </g>
     <g id="text_9">
      <!-- $\mathdefault{10^{-8}}$ -->
      <g transform="translate(41.5 319.209499) scale(0.1 -0.1)">
       <defs>
        <path id="DejaVuSans-2212" d="M 678 2272 
L 4684 2272 
L 4684 1741 
L 678 1741 
L 678 2272 
z
" transform="scale(0.015625)"/>
        <path id="DejaVuSans-38" d="M 2034 2216 
Q 1584 2216 1326 1975 
Q 1069 1734 1069 1313 
Q 1069 891 1326 650 
Q 1584 409 2034 409 
Q 2484 409 2743 651 
Q 3003 894 3003 1313 
Q 3003 1734 2745 1975 
Q 2488 2216 2034 2216 
z
M 1403 2484 
Q 997 2584 770 2862 
Q 544 3141 544 3541 
Q 544 4100 942 4425 
Q 1341 4750 2034 4750 
Q 2731 4750 3128 4425 
Q 3525 4100 3525 3541 
Q 3525 3141 3298 2862 
Q 3072 2584 2669 2484 
Q 3125 2378 3379 2068 
Q 3634 1759 3634 1313 
Q 3634 634 3220 271 
Q 2806 -91 2034 -91 
Q 1263 -91 848 271 
Q 434 634 434 1313 
Q 434 1759 690 2068 
Q 947 2378 1403 2484 
z
M 1172 3481 
Q 1172 3119 1398 2916 
Q 1625 2713 2034 2713 
Q 2441 2713 2670 2916 
Q 2900 3119 2900 3481 
Q 2900 3844 2670 4047 
Q 2441 4250 2034 4250 
Q 1625 4250 1398 4047 
Q 1172 3844 1172 3481 
z
" transform="scale(0.015625)"/>
       </defs>
       <use xlink:href="#DejaVuSans-31" transform="translate(0 0.765625)"/>
       <use xlink:href="#DejaVuSans-30" transform="translate(63.623047 0.765625)"/>
       <use xlink:href="#DejaVuSans-2212" transform="translate(128.203125 39.046875) scale(0.7)"/>
       <use xlink:href="#DejaVuSans-38" transform="translate(186.855469 39.046875) scale(0.7)"/>
      </g>
     </g>
    </g>
    <g id="ytick_2">
     <g id="line2d_15">
      <path d="M 72 282.958995 
L 518.4 282.958995 
" clip-path="url(#pf9e9ec487d)" style="fill: none; stroke: #b0b0b0; stroke-width: 0.8; stroke-linecap: square"/>
     </g>
     <g id="line2d_16">
      <g>
       <use xlink:href="#mdf323885f0" x="72" y="282.958995" style="stroke: #000000; stroke-width: 0.8"/>
      </g>
     </g>
     <g id="text_10">
      <!-- $\mathdefault{10^{-7}}$ -->
      <g transform="translate(41.5 286.758214) scale(0.1 -0.1)">
       <defs>
        <path id="DejaVuSans-37" d="M 525 4666 
L 3525 4666 
L 3525 4397 
L 1831 0 
L 1172 0 
L 2766 4134 
L 525 4134 
L 525 4666 
z
" transform="scale(0.015625)"/>
       </defs>
       <use xlink:href="#DejaVuSans-31" transform="translate(0 0.684375)"/>
       <use xlink:href="#DejaVuSans-30" transform="translate(63.623047 0.684375)"/>
       <use xlink:href="#DejaVuSans-2212" transform="translate(128.203125 38.965625) scale(0.7)"/>
       <use xlink:href="#DejaVuSans-37" transform="translate(186.855469 38.965625) scale(0.7)"/>
      </g>
     </g>
    </g>
    <g id="ytick_3">
     <g id="line2d_17">
      <path d="M 72 250.50771 
L 518.4 250.50771 
" clip-path="url(#pf9e9ec487d)" style="fill: none; stroke: #b0b0b0; stroke-width: 0.8; stroke-linecap: square"/>
     </g>
     <g id="line2d_18">
      <g>
       <use xlink:href="#mdf323885f0" x="72" y="250.50771" style="stroke: #000000; stroke-width: 0.8"/>
      </g>
     </g>
     <g id="text_11">
      <!-- $\mathdefault{10^{-6}}$ -->
      <g transform="translate(41.5 254.306929) scale(0.1 -0.1)">
       <use xlink:href="#DejaVuSans-31" transform="translate(0 0.765625)"/>
       <use xlink:href="#DejaVuSans-30" transform="translate(63.623047 0.765625)"/>
       <use xlink:href="#DejaVuSans-2212" transform="translate(128.203125 39.046875) scale(0.7)"/>
       <use xlink:href="#DejaVuSans-36" transform="translate(186.855469 39.046875) scale(0.7)"/>
      </g>
     </g>
    </g>
    <g id="ytick_4">
     <g id="line2d_19">
      <path d="M 72 218.056425 
L 518.4 218.056425 
" clip-path="url(#pf9e9ec487d)" style="fill: none; stroke: #b0b0b0; stroke-width: 0.8; stroke-linecap: square"/>
     </g>
     <g id="line2d_20">
      <g>
       <use xlink:href="#mdf323885f0" x="72" y="218.056425" style="stroke: #000000; stroke-width: 0.8"/>
      </g>
     </g>
     <g id="text_12">
      <!-- $\mathdefault{10^{-5}}$ -->
      <g transform="translate(41.5 221.855644) scale(0.1 -0.1)">
       <use xlink:href="#DejaVuSans-31" transform="translate(0 0.684375)"/>
       <use xlink:href="#DejaVuSans-30" transform="translate(63.623047 0.684375)"/>
       <use xlink:href="#DejaVuSans-2212" transform="translate(128.203125 38.965625) scale(0.7)"/>
       <use xlink:href="#DejaVuSans-35" transform="translate(186.855469 38.965625) scale(0.7)"/>
      </g>
     </g>
    </g>
    <g id="ytick_5">
     <g id="line2d_21">
      <path d="M 72 185.60514 
L 518.4 185.60514 
" clip-path="url(#pf9e9ec487d)" style="fill: none; stroke: #b0b0b0; stroke-width: 0.8; stroke-linecap: square"/>
     </g>
     <g id="line2d_22">
      <g>
       <use xlink:href="#mdf323885f0" x="72" y="185.60514" style="stroke: #000000; stroke-width: 0.8"/>
      </g>
     </g>
     <g id="text_13">
      <!-- $\mathdefault{10^{-4}}$ -->
      <g transform="translate(41.5 189.404359) scale(0.1 -0.1)">
       <defs>
        <path id="DejaVuSans-34" d="M 2419 4116 
L 825 1625 
L 2419 1625 
L 2419 4116 
z
M 2253 4666 
L 3047 4666 
L 3047 1625 
L 3713 1625 
L 3713 1100 
L 3047 1100 
L 3047 0 
L 2419 0 
L 2419 1100 
L 313 1100 
L 313 1709 
L 2253 4666 
z
" transform="scale(0.015625)"/>
       </defs>
       <use xlink:href="#DejaVuSans-31" transform="translate(0 0.684375)"/>
       <use xlink:href="#DejaVuSans-30" transform="translate(63.623047 0.684375)"/>
       <use xlink:href="#DejaVuSans-2212" transform="translate(128.203125 38.965625) scale(0.7)"/>
       <use xlink:href="#DejaVuSans-34" transform="translate(186.855469 38.965625) scale(0.7)"/>
      </g>
     </g>
    </g>
    <g id="ytick_6">
     <g id="line2d_23">
      <path d="M 72 153.153855 
L 518.4 153.153855 
" clip-path="url(#pf9e9ec487d)" style="fill: none; stroke: #b0b0b0; stroke-width: 0.8; stroke-linecap: square"/>
     </g>
     <g id="line2d_24">
      <g>
       <use xlink:href="#mdf323885f0" x="72" y="153.153855" style="stroke: #000000; stroke-width: 0.8"/>
      </g>
     </g>
     <g id="text_14">
      <!-- $\mathdefault{10^{-3}}$ -->
      <g transform="translate(41.5 156.953074) scale(0.1 -0.1)">
       <defs>
        <path id="DejaVuSans-33" d="M 2597 2516 
Q 3050 2419 3304 2112 
Q 3559 1806 3559 1356 
Q 3559 666 3084 287 
Q 2609 -91 1734 -91 
Q 1441 -91 1130 -33 
Q 819 25 488 141 
L 488 750 
Q 750 597 1062 519 
Q 1375 441 1716 441 
Q 2309 441 2620 675 
Q 2931 909 2931 1356 
Q 2931 1769 2642 2001 
Q 2353 2234 1838 2234 
L 1294 2234 
L 1294 2753 
L 1863 2753 
Q 2328 2753 2575 2939 
Q 2822 3125 2822 3475 
Q 2822 3834 2567 4026 
Q 2313 4219 1838 4219 
Q 1578 4219 1281 4162 
Q 984 4106 628 3988 
L 628 4550 
Q 988 4650 1302 4700 
Q 1616 4750 1894 4750 
Q 2613 4750 3031 4423 
Q 3450 4097 3450 3541 
Q 3450 3153 3228 2886 
Q 3006 2619 2597 2516 
z
" transform="scale(0.015625)"/>
       </defs>
       <use xlink:href="#DejaVuSans-31" transform="translate(0 0.765625)"/>
       <use xlink:href="#DejaVuSans-30" transform="translate(63.623047 0.765625)"/>
       <use xlink:href="#DejaVuSans-2212" transform="translate(128.203125 39.046875) scale(0.7)"/>
       <use xlink:href="#DejaVuSans-33" transform="translate(186.855469 39.046875) scale(0.7)"/>
      </g>
     </g>
    </g>
    <g id="ytick_7">
     <g id="line2d_25">
      <path d="M 72 120.70257 
L 518.4 120.70257 
" clip-path="url(#pf9e9ec487d)" style="fill: none; stroke: #b0b0b0; stroke-width: 0.8; stroke-linecap: square"/>
     </g>
     <g id="line2d_26">
      <g>
       <use xlink:href="#mdf323885f0" x="72" y="120.70257" style="stroke: #000000; stroke-width: 0.8"/>
      </g>
     </g>
     <g id="text_15">
      <!-- $\mathdefault{10^{-2}}$ -->
      <g transform="translate(41.5 124.501789) scale(0.1 -0.1)">
       <use xlink:href="#DejaVuSans-31" transform="translate(0 0.765625)"/>
       <use xlink:href="#DejaVuSans-30" transform="translate(63.623047 0.765625)"/>
       <use xlink:href="#DejaVuSans-2212" transform="translate(128.203125 39.046875) scale(0.7)"/>
       <use xlink:href="#DejaVuSans-32" transform="translate(186.855469 39.046875) scale(0.7)"/>
      </g>
     </g>
    </g>
    <g id="ytick_8">
     <g id="line2d_27">
      <path d="M 72 88.251285 
L 518.4 88.251285 
" clip-path="url(#pf9e9ec487d)" style="fill: none; stroke: #b0b0b0; stroke-width: 0.8; stroke-linecap: square"/>
     </g>
     <g id="line2d_28">
      <g>
       <use xlink:href="#mdf323885f0" x="72" y="88.251285" style="stroke: #000000; stroke-width: 0.8"/>
      </g>
     </g>
     <g id="text_16">
      <!-- $\mathdefault{10^{-1}}$ -->
      <g transform="translate(41.5 92.050504) scale(0.1 -0.1)">
       <use xlink:href="#DejaVuSans-31" transform="translate(0 0.684375)"/>
       <use xlink:href="#DejaVuSans-30" transform="translate(63.623047 0.684375)"/>
       <use xlink:href="#DejaVuSans-2212" transform="translate(128.203125 38.965625) scale(0.7)"/>
       <use xlink:href="#DejaVuSans-31" transform="translate(186.855469 38.965625) scale(0.7)"/>
      </g>
     </g>
    </g>
    <g id="ytick_9">
     <g id="line2d_29">
      <path d="M 72 55.8 
L 518.4 55.8 
" clip-path="url(#pf9e9ec487d)" style="fill: none; stroke: #b0b0b0; stroke-width: 0.8; stroke-linecap: square"/>
     </g>
     <g id="line2d_30">
      <g>
       <use xlink:href="#mdf323885f0" x="72" y="55.8" style="stroke: #000000; stroke-width: 0.8"/>
      </g>
     </g>
     <g id="text_17">
      <!-- $\mathdefault{10^{0}}$ -->
      <g transform="translate(47.4 59.599219) scale(0.1 -0.1)">
       <use xlink:href="#DejaVuSans-31" transform="translate(0 0.765625)"/>
       <use xlink:href="#DejaVuSans-30" transform="translate(63.623047 0.765625)"/>
       <use xlink:href="#DejaVuSans-30" transform="translate(128.203125 39.046875) scale(0.7)"/>
      </g>
     </g>
    </g>
    <g id="ytick_10">
     <g id="line2d_31">
      <defs>
       <path id="ma08d07545b" d="M 0 0 
L -2 0 
" style="stroke: #000000; stroke-width: 0.6"/>
      </defs>
      <g>
       <use xlink:href="#ma08d07545b" x="72" y="318.555135" style="stroke: #000000; stroke-width: 0.6"/>
      </g>
     </g>
    </g>
    <g id="ytick_11">
     <g id="line2d_32">
      <g>
       <use xlink:href="#ma08d07545b" x="72" y="316.89517" style="stroke: #000000; stroke-width: 0.6"/>
      </g>
     </g>
    </g>
    <g id="ytick_12">
     <g id="line2d_33">
      <g>
       <use xlink:href="#ma08d07545b" x="72" y="305.64147" style="stroke: #000000; stroke-width: 0.6"/>
      </g>
     </g>
    </g>
    <g id="ytick_13">
     <g id="line2d_34">
      <g>
       <use xlink:href="#ma08d07545b" x="72" y="299.927082" style="stroke: #000000; stroke-width: 0.6"/>
      </g>
     </g>
    </g>
    <g id="ytick_14">
     <g id="line2d_35">
      <g>
       <use xlink:href="#ma08d07545b" x="72" y="295.87266" style="stroke: #000000; stroke-width: 0.6"/>
      </g>
     </g>
    </g>
    <g id="ytick_15">
     <g id="line2d_36">
      <g>
       <use xlink:href="#ma08d07545b" x="72" y="292.727805" style="stroke: #000000; stroke-width: 0.6"/>
      </g>
     </g>
    </g>
    <g id="ytick_16">
     <g id="line2d_37">
      <g>
       <use xlink:href="#ma08d07545b" x="72" y="290.158272" style="stroke: #000000; stroke-width: 0.6"/>
      </g>
     </g>
    </g>
    <g id="ytick_17">
     <g id="line2d_38">
      <g>
       <use xlink:href="#ma08d07545b" x="72" y="287.985763" style="stroke: #000000; stroke-width: 0.6"/>
      </g>
     </g>
    </g>
    <g id="ytick_18">
     <g id="line2d_39">
      <g>
       <use xlink:href="#ma08d07545b" x="72" y="286.10385" style="stroke: #000000; stroke-width: 0.6"/>
      </g>
     </g>
    </g>
    <g id="ytick_19">
     <g id="line2d_40">
      <g>
       <use xlink:href="#ma08d07545b" x="72" y="284.443884" style="stroke: #000000; stroke-width: 0.6"/>
      </g>
     </g>
    </g>
    <g id="ytick_20">
     <g id="line2d_41">
      <g>
       <use xlink:href="#ma08d07545b" x="72" y="273.190185" style="stroke: #000000; stroke-width: 0.6"/>
      </g>
     </g>
    </g>
    <g id="ytick_21">
     <g id="line2d_42">
      <g>
       <use xlink:href="#ma08d07545b" x="72" y="267.475797" style="stroke: #000000; stroke-width: 0.6"/>
      </g>
     </g>
    </g>
    <g id="ytick_22">
     <g id="line2d_43">
      <g>
       <use xlink:href="#ma08d07545b" x="72" y="263.421375" style="stroke: #000000; stroke-width: 0.6"/>
      </g>
     </g>
    </g>
    <g id="ytick_23">
     <g id="line2d_44">
      <g>
       <use xlink:href="#ma08d07545b" x="72" y="260.27652" style="stroke: #000000; stroke-width: 0.6"/>
      </g>
     </g>
    </g>
    <g id="ytick_24">
     <g id="line2d_45">
      <g>
       <use xlink:href="#ma08d07545b" x="72" y="257.706987" style="stroke: #000000; stroke-width: 0.6"/>
      </g>
     </g>
    </g>
    <g id="ytick_25">
     <g id="line2d_46">
      <g>
       <use xlink:href="#ma08d07545b" x="72" y="255.534478" style="stroke: #000000; stroke-width: 0.6"/>
      </g>
     </g>
    </g>
    <g id="ytick_26">
     <g id="line2d_47">
      <g>
       <use xlink:href="#ma08d07545b" x="72" y="253.652565" style="stroke: #000000; stroke-width: 0.6"/>
      </g>
     </g>
    </g>
    <g id="ytick_27">
     <g id="line2d_48">
      <g>
       <use xlink:href="#ma08d07545b" x="72" y="251.992599" style="stroke: #000000; stroke-width: 0.6"/>
      </g>
     </g>
    </g>
    <g id="ytick_28">
     <g id="line2d_49">
      <g>
       <use xlink:href="#ma08d07545b" x="72" y="240.7389" style="stroke: #000000; stroke-width: 0.6"/>
      </g>
     </g>
    </g>
    <g id="ytick_29">
     <g id="line2d_50">
      <g>
       <use xlink:href="#ma08d07545b" x="72" y="235.024512" style="stroke: #000000; stroke-width: 0.6"/>
      </g>
     </g>
    </g>
    <g id="ytick_30">
     <g id="line2d_51">
      <g>
       <use xlink:href="#ma08d07545b" x="72" y="230.97009" style="stroke: #000000; stroke-width: 0.6"/>
      </g>
     </g>
    </g>
    <g id="ytick_31">
     <g id="line2d_52">
      <g>
       <use xlink:href="#ma08d07545b" x="72" y="227.825235" style="stroke: #000000; stroke-width: 0.6"/>
      </g>
     </g>
    </g>
    <g id="ytick_32">
     <g id="line2d_53">
      <g>
       <use xlink:href="#ma08d07545b" x="72" y="225.255702" style="stroke: #000000; stroke-width: 0.6"/>
      </g>
     </g>
    </g>
    <g id="ytick_33">
     <g id="line2d_54">
      <g>
       <use xlink:href="#ma08d07545b" x="72" y="223.083193" style="stroke: #000000; stroke-width: 0.6"/>
      </g>
     </g>
    </g>
    <g id="ytick_34">
     <g id="line2d_55">
      <g>
       <use xlink:href="#ma08d07545b" x="72" y="221.201279" style="stroke: #000000; stroke-width: 0.6"/>
      </g>
     </g>
    </g>
    <g id="ytick_35">
     <g id="line2d_56">
      <g>
       <use xlink:href="#ma08d07545b" x="72" y="219.541314" style="stroke: #000000; stroke-width: 0.6"/>
      </g>
     </g>
    </g>
    <g id="ytick_36">
     <g id="line2d_57">
      <g>
       <use xlink:href="#ma08d07545b" x="72" y="208.287615" style="stroke: #000000; stroke-width: 0.6"/>
      </g>
     </g>
    </g>
    <g id="ytick_37">
     <g id="line2d_58">
      <g>
       <use xlink:href="#ma08d07545b" x="72" y="202.573227" style="stroke: #000000; stroke-width: 0.6"/>
      </g>
     </g>
    </g>
    <g id="ytick_38">
     <g id="line2d_59">
      <g>
       <use xlink:href="#ma08d07545b" x="72" y="198.518805" style="stroke: #000000; stroke-width: 0.6"/>
      </g>
     </g>
    </g>
    <g id="ytick_39">
     <g id="line2d_60">
      <g>
       <use xlink:href="#ma08d07545b" x="72" y="195.37395" style="stroke: #000000; stroke-width: 0.6"/>
      </g>
     </g>
    </g>
    <g id="ytick_40">
     <g id="line2d_61">
      <g>
       <use xlink:href="#ma08d07545b" x="72" y="192.804417" style="stroke: #000000; stroke-width: 0.6"/>
      </g>
     </g>
    </g>
    <g id="ytick_41">
     <g id="line2d_62">
      <g>
       <use xlink:href="#ma08d07545b" x="72" y="190.631908" style="stroke: #000000; stroke-width: 0.6"/>
      </g>
     </g>
    </g>
    <g id="ytick_42">
     <g id="line2d_63">
      <g>
       <use xlink:href="#ma08d07545b" x="72" y="188.749994" style="stroke: #000000; stroke-width: 0.6"/>
      </g>
     </g>
    </g>
    <g id="ytick_43">
     <g id="line2d_64">
      <g>
       <use xlink:href="#ma08d07545b" x="72" y="187.090029" style="stroke: #000000; stroke-width: 0.6"/>
      </g>
     </g>
    </g>
    <g id="ytick_44">
     <g id="line2d_65">
      <g>
       <use xlink:href="#ma08d07545b" x="72" y="175.83633" style="stroke: #000000; stroke-width: 0.6"/>
      </g>
     </g>
    </g>
    <g id="ytick_45">
     <g id="line2d_66">
      <g>
       <use xlink:href="#ma08d07545b" x="72" y="170.121942" style="stroke: #000000; stroke-width: 0.6"/>
      </g>
     </g>
    </g>
    <g id="ytick_46">
     <g id="line2d_67">
      <g>
       <use xlink:href="#ma08d07545b" x="72" y="166.06752" style="stroke: #000000; stroke-width: 0.6"/>
      </g>
     </g>
    </g>
    <g id="ytick_47">
     <g id="line2d_68">
      <g>
       <use xlink:href="#ma08d07545b" x="72" y="162.922665" style="stroke: #000000; stroke-width: 0.6"/>
      </g>
     </g>
    </g>
    <g id="ytick_48">
     <g id="line2d_69">
      <g>
       <use xlink:href="#ma08d07545b" x="72" y="160.353132" style="stroke: #000000; stroke-width: 0.6"/>
      </g>
     </g>
    </g>
    <g id="ytick_49">
     <g id="line2d_70">
      <g>
       <use xlink:href="#ma08d07545b" x="72" y="158.180623" style="stroke: #000000; stroke-width: 0.6"/>
      </g>
     </g>
    </g>
    <g id="ytick_50">
     <g id="line2d_71">
      <g>
       <use xlink:href="#ma08d07545b" x="72" y="156.298709" style="stroke: #000000; stroke-width: 0.6"/>
      </g>
     </g>
    </g>
    <g id="ytick_51">
     <g id="line2d_72">
      <g>
       <use xlink:href="#ma08d07545b" x="72" y="154.638744" style="stroke: #000000; stroke-width: 0.6"/>
      </g>
     </g>
    </g>
    <g id="ytick_52">
     <g id="line2d_73">
      <g>
       <use xlink:href="#ma08d07545b" x="72" y="143.385045" style="stroke: #000000; stroke-width: 0.6"/>
      </g>
     </g>
    </g>
    <g id="ytick_53">
     <g id="line2d_74">
      <g>
       <use xlink:href="#ma08d07545b" x="72" y="137.670657" style="stroke: #000000; stroke-width: 0.6"/>
      </g>
     </g>
    </g>
    <g id="ytick_54">
     <g id="line2d_75">
      <g>
       <use xlink:href="#ma08d07545b" x="72" y="133.616235" style="stroke: #000000; stroke-width: 0.6"/>
      </g>
     </g>
    </g>
    <g id="ytick_55">
     <g id="line2d_76">
      <g>
       <use xlink:href="#ma08d07545b" x="72" y="130.47138" style="stroke: #000000; stroke-width: 0.6"/>
      </g>
     </g>
    </g>
    <g id="ytick_56">
     <g id="line2d_77">
      <g>
       <use xlink:href="#ma08d07545b" x="72" y="127.901847" style="stroke: #000000; stroke-width: 0.6"/>
      </g>
     </g>
    </g>
    <g id="ytick_57">
     <g id="line2d_78">
      <g>
       <use xlink:href="#ma08d07545b" x="72" y="125.729338" style="stroke: #000000; stroke-width: 0.6"/>
      </g>
     </g>
    </g>
    <g id="ytick_58">
     <g id="line2d_79">
      <g>
       <use xlink:href="#ma08d07545b" x="72" y="123.847424" style="stroke: #000000; stroke-width: 0.6"/>
      </g>
     </g>
    </g>
    <g id="ytick_59">
     <g id="line2d_80">
      <g>
       <use xlink:href="#ma08d07545b" x="72" y="122.187459" style="stroke: #000000; stroke-width: 0.6"/>
      </g>
     </g>
    </g>
    <g id="ytick_60">
     <g id="line2d_81">
      <g>
       <use xlink:href="#ma08d07545b" x="72" y="110.93376" style="stroke: #000000; stroke-width: 0.6"/>
      </g>
     </g>
    </g>
    <g id="ytick_61">
     <g id="line2d_82">
      <g>
       <use xlink:href="#ma08d07545b" x="72" y="105.219372" style="stroke: #000000; stroke-width: 0.6"/>
      </g>
     </g>
    </g>
    <g id="ytick_62">
     <g id="line2d_83">
      <g>
       <use xlink:href="#ma08d07545b" x="72" y="101.164949" style="stroke: #000000; stroke-width: 0.6"/>
      </g>
     </g>
    </g>
    <g id="ytick_63">
     <g id="line2d_84">
      <g>
       <use xlink:href="#ma08d07545b" x="72" y="98.020095" style="stroke: #000000; stroke-width: 0.6"/>
      </g>
     </g>
    </g>
    <g id="ytick_64">
     <g id="line2d_85">
      <g>
       <use xlink:href="#ma08d07545b" x="72" y="95.450562" style="stroke: #000000; stroke-width: 0.6"/>
      </g>
     </g>
    </g>
    <g id="ytick_65">
     <g id="line2d_86">
      <g>
       <use xlink:href="#ma08d07545b" x="72" y="93.278052" style="stroke: #000000; stroke-width: 0.6"/>
      </g>
     </g>
    </g>
    <g id="ytick_66">
     <g id="line2d_87">
      <g>
       <use xlink:href="#ma08d07545b" x="72" y="91.396139" style="stroke: #000000; stroke-width: 0.6"/>
      </g>
     </g>
    </g>
    <g id="ytick_67">
     <g id="line2d_88">
      <g>
       <use xlink:href="#ma08d07545b" x="72" y="89.736174" style="stroke: #000000; stroke-width: 0.6"/>
      </g>
     </g>
    </g>
    <g id="ytick_68">
     <g id="line2d_89">
      <g>
       <use xlink:href="#ma08d07545b" x="72" y="78.482475" style="stroke: #000000; stroke-width: 0.6"/>
      </g>
     </g>
    </g>
    <g id="ytick_69">
     <g id="line2d_90">
      <g>
       <use xlink:href="#ma08d07545b" x="72" y="72.768087" style="stroke: #000000; stroke-width: 0.6"/>
      </g>
     </g>
    </g>
    <g id="ytick_70">
     <g id="line2d_91">
      <g>
       <use xlink:href="#ma08d07545b" x="72" y="68.713664" style="stroke: #000000; stroke-width: 0.6"/>
      </g>
     </g>
    </g>
    <g id="ytick_71">
     <g id="line2d_92">
      <g>
       <use xlink:href="#ma08d07545b" x="72" y="65.56881" style="stroke: #000000; stroke-width: 0.6"/>
      </g>
     </g>
    </g>
    <g id="ytick_72">
     <g id="line2d_93">
      <g>
       <use xlink:href="#ma08d07545b" x="72" y="62.999277" style="stroke: #000000; stroke-width: 0.6"/>
      </g>
     </g>
    </g>
    <g id="ytick_73">
     <g id="line2d_94">
      <g>
       <use xlink:href="#ma08d07545b" x="72" y="60.826767" style="stroke: #000000; stroke-width: 0.6"/>
      </g>
     </g>
    </g>
    <g id="ytick_74">
     <g id="line2d_95">
      <g>
       <use xlink:href="#ma08d07545b" x="72" y="58.944854" style="stroke: #000000; stroke-width: 0.6"/>
      </g>
     </g>
    </g>
    <g id="ytick_75">
     <g id="line2d_96">
      <g>
       <use xlink:href="#ma08d07545b" x="72" y="57.284889" style="stroke: #000000; stroke-width: 0.6"/>
      </g>
     </g>
    </g>
    <g id="ytick_76">
     <g id="line2d_97">
      <g>
       <use xlink:href="#ma08d07545b" x="72" y="46.03119" style="stroke: #000000; stroke-width: 0.6"/>
      </g>
     </g>
    </g>
    <g id="text_18">
     <!-- CDF, $\mathrm{P}[Z &lt; z]$ -->
     <g transform="translate(35.420312 214.3) rotate(-90) scale(0.1 -0.1)">
      <defs>
       <path id="DejaVuSans-43" d="M 4122 4306 
L 4122 3641 
Q 3803 3938 3442 4084 
Q 3081 4231 2675 4231 
Q 1875 4231 1450 3742 
Q 1025 3253 1025 2328 
Q 1025 1406 1450 917 
Q 1875 428 2675 428 
Q 3081 428 3442 575 
Q 3803 722 4122 1019 
L 4122 359 
Q 3791 134 3420 21 
Q 3050 -91 2638 -91 
Q 1578 -91 968 557 
Q 359 1206 359 2328 
Q 359 3453 968 4101 
Q 1578 4750 2638 4750 
Q 3056 4750 3426 4639 
Q 3797 4528 4122 4306 
z
" transform="scale(0.015625)"/>
       <path id="DejaVuSans-44" d="M 1259 4147 
L 1259 519 
L 2022 519 
Q 2988 519 3436 956 
Q 3884 1394 3884 2338 
Q 3884 3275 3436 3711 
Q 2988 4147 2022 4147 
L 1259 4147 
z
M 628 4666 
L 1925 4666 
Q 3281 4666 3915 4102 
Q 4550 3538 4550 2338 
Q 4550 1131 3912 565 
Q 3275 0 1925 0 
L 628 0 
L 628 4666 
z
" transform="scale(0.015625)"/>
       <path id="DejaVuSans-46" d="M 628 4666 
L 3309 4666 
L 3309 4134 
L 1259 4134 
L 1259 2759 
L 3109 2759 
L 3109 2228 
L 1259 2228 
L 1259 0 
L 628 0 
L 628 4666 
z
" transform="scale(0.015625)"/>
       <path id="DejaVuSans-20" transform="scale(0.015625)"/>
       <path id="DejaVuSans-50" d="M 1259 4147 
L 1259 2394 
L 2053 2394 
Q 2494 2394 2734 2622 
Q 2975 2850 2975 3272 
Q 2975 3691 2734 3919 
Q 2494 4147 2053 4147 
L 1259 4147 
z
M 628 4666 
L 2053 4666 
Q 2838 4666 3239 4311 
Q 3641 3956 3641 3272 
Q 3641 2581 3239 2228 
Q 2838 1875 2053 1875 
L 1259 1875 
L 1259 0 
L 628 0 
L 628 4666 
z
" transform="scale(0.015625)"/>
       <path id="DejaVuSans-5b" d="M 550 4863 
L 1875 4863 
L 1875 4416 
L 1125 4416 
L 1125 -397 
L 1875 -397 
L 1875 -844 
L 550 -844 
L 550 4863 
z
" transform="scale(0.015625)"/>
       <path id="DejaVuSans-3c" d="M 4684 3150 
L 1459 2003 
L 4684 863 
L 4684 294 
L 678 1747 
L 678 2266 
L 4684 3719 
L 4684 3150 
z
" transform="scale(0.015625)"/>
       <path id="DejaVuSans-Oblique-7a" d="M 744 3500 
L 3475 3500 
L 3372 2975 
L 738 459 
L 2913 459 
L 2822 0 
L -19 0 
L 84 525 
L 2719 3041 
L 653 3041 
L 744 3500 
z
" transform="scale(0.015625)"/>
       <path id="DejaVuSans-5d" d="M 1947 4863 
L 1947 -844 
L 622 -844 
L 622 -397 
L 1369 -397 
L 1369 4416 
L 622 4416 
L 622 4863 
L 1947 4863 
z
" transform="scale(0.015625)"/>
      </defs>
      <use xlink:href="#DejaVuSans-43" transform="translate(0 0.015625)"/>
      <use xlink:href="#DejaVuSans-44" transform="translate(69.824219 0.015625)"/>
      <use xlink:href="#DejaVuSans-46" transform="translate(146.826172 0.015625)"/>
      <use xlink:href="#DejaVuSans-2c" transform="translate(204.345703 0.015625)"/>
      <use xlink:href="#DejaVuSans-20" transform="translate(236.132812 0.015625)"/>
      <use xlink:href="#DejaVuSans-50" transform="translate(267.919922 0.015625)"/>
      <use xlink:href="#DejaVuSans-5b" transform="translate(328.222656 0.015625)"/>
      <use xlink:href="#DejaVuSans-Oblique-5a" transform="translate(367.236328 0.015625)"/>
      <use xlink:href="#DejaVuSans-3c" transform="translate(455.224609 0.015625)"/>
      <use xlink:href="#DejaVuSans-Oblique-7a" transform="translate(558.496094 0.015625)"/>
      <use xlink:href="#DejaVuSans-5d" transform="translate(610.986328 0.015625)"/>
     </g>
    </g>
   </g>
   <g id="line2d_98">
    <path d="M 115.547069 242.897454 
L 115.547069 233.128644 
L 115.672914 233.128644 
L 115.672914 227.414256 
L 115.872247 227.414256 
L 115.872247 223.359833 
L 116.137622 223.359833 
L 116.137622 220.214979 
L 116.690321 220.214979 
L 116.790707 213.591023 
L 116.806226 213.591023 
L 116.904202 203.822213 
L 116.949023 203.822213 
L 117.06013 198.707636 
L 117.087579 198.707636 
L 117.171753 197.532504 
L 117.198894 197.532504 
L 117.209046 196.44786 
L 117.329015 196.44786 
L 117.432338 192.393438 
L 117.443088 192.393438 
L 117.545503 188.048419 
L 117.558963 188.048419 
L 117.653836 185.671949 
L 117.67726 185.671949 
L 117.73699 184.506541 
L 117.803914 184.506541 
L 117.908073 182.049306 
L 117.948724 182.049306 
L 118.047968 180.620904 
L 118.100373 180.620904 
L 118.208394 178.717781 
L 118.225801 178.717781 
L 118.328496 177.578299 
L 118.368477 177.578299 
L 118.476212 174.62632 
L 118.49191 174.515782 
L 118.594153 172.661422 
L 118.608531 172.565221 
L 118.711996 171.022925 
L 118.732022 170.93725 
L 118.829881 169.555233 
L 118.85242 169.478009 
L 118.949871 168.085839 
L 118.989889 168.016242 
L 119.089023 166.818912 
L 119.107293 166.755285 
L 119.217486 165.481465 
L 119.22889 165.423586 
L 119.337162 163.737973 
L 119.354477 163.635847 
L 119.465484 161.602118 
L 119.468768 161.514308 
L 119.579242 159.709198 
L 119.582747 159.632395 
L 119.692346 157.836915 
L 119.69907 157.736128 
L 119.80997 156.184445 
L 119.816125 156.094773 
L 119.922554 154.438118 
L 119.941097 154.332549 
L 120.051456 152.371975 
L 120.060948 152.280755 
L 120.171917 150.550247 
L 120.179505 150.45008 
L 120.289276 148.955213 
L 120.300479 148.847903 
L 120.411327 147.075545 
L 120.417939 146.965989 
L 120.528759 145.347659 
L 120.541648 145.236905 
L 120.652276 143.796213 
L 120.659971 143.696963 
L 120.770811 142.152858 
L 120.779625 142.042494 
L 120.890716 140.326452 
L 120.900331 140.219794 
L 121.008439 138.727179 
L 121.01877 138.623296 
L 121.129774 137.189386 
L 121.135277 137.088469 
L 121.135277 137.080736 
L 121.246138 135.683478 
L 121.253991 135.5858 
L 121.253991 135.578849 
L 121.36438 134.152456 
L 121.370855 134.04609 
L 121.481704 132.472965 
L 121.48867 132.361905 
L 121.599606 131.068024 
L 121.611271 130.957447 
L 121.722207 129.530251 
L 121.732873 129.422082 
L 121.843572 127.932255 
L 121.853946 127.823611 
L 121.964968 126.482552 
L 121.973931 126.373638 
L 122.083848 125.065615 
L 122.093219 124.963809 
L 122.093219 124.957266 
L 122.203575 123.339884 
L 122.214309 123.2324 
L 122.214309 123.229507 
L 122.323785 121.67506 
L 122.335571 121.564078 
L 122.446285 120.165317 
L 122.454793 120.056326 
L 122.565817 118.646249 
L 122.573427 118.540056 
L 122.573427 118.535907 
L 122.684461 117.047493 
L 122.692999 116.937831 
L 122.803903 115.445907 
L 122.812775 115.339717 
L 122.812775 115.336411 
L 122.923729 113.803348 
L 122.931911 113.692614 
L 123.042953 112.116399 
L 123.051695 112.006365 
L 123.162418 110.558058 
L 123.17116 110.447815 
L 123.282135 108.996025 
L 123.290519 108.886847 
L 123.290519 108.885801 
L 123.401478 107.546168 
L 123.408545 107.435356 
L 123.519592 106.144437 
L 123.527864 106.035534 
L 123.527864 106.033826 
L 123.638863 104.555429 
L 123.648739 104.445884 
L 123.648739 104.444357 
L 123.759849 102.958324 
L 123.76918 102.848205 
L 123.76918 102.847524 
L 123.880275 101.401042 
L 123.889044 101.290807 
L 123.889044 101.290197 
L 124.000005 99.906196 
L 124.009412 99.795491 
L 124.120446 98.438237 
L 124.129561 98.327564 
L 124.24045 97.021623 
L 124.249749 96.911656 
L 124.249749 96.910762 
L 124.360739 95.566053 
L 124.370141 95.455141 
L 124.481172 94.105446 
L 124.491426 93.994505 
L 124.602471 92.7192 
L 124.612332 92.608728 
L 124.612332 92.608398 
L 124.723322 91.330536 
L 124.732743 91.21994 
L 124.732743 91.219641 
L 124.843845 89.946536 
L 124.853521 89.835961 
L 124.853521 89.83569 
L 124.964509 88.538746 
L 124.97286 88.428356 
L 124.97286 88.427866 
L 125.083956 87.076163 
L 125.093322 86.965574 
L 125.093322 86.965132 
L 125.204371 85.604719 
L 125.212465 85.493715 
L 125.323557 84.112195 
L 125.331983 84.00139 
L 125.331983 84.001211 
L 125.443034 82.623646 
L 125.452108 82.512637 
L 125.563147 81.119498 
L 125.572681 81.008399 
L 125.683746 79.666297 
L 125.692396 79.55521 
L 125.803409 78.177476 
L 125.812136 78.066564 
L 125.812136 78.066446 
L 125.923243 76.703927 
L 125.932701 76.593937 
L 125.932701 76.592879 
L 126.043787 75.223451 
L 126.052162 75.112389 
L 126.163229 73.70788 
L 126.171327 73.596812 
L 126.28239 72.177316 
L 126.291334 72.066282 
L 126.291334 72.066205 
L 126.402433 70.65732 
L 126.410836 70.546232 
L 126.521933 69.119418 
L 126.53086 69.008409 
L 126.53086 69.008348 
L 126.641953 67.5854 
L 126.650551 67.474388 
L 126.650551 67.474333 
L 126.761637 66.088511 
L 126.770646 65.977688 
L 126.770646 65.977439 
L 126.881727 64.626504 
L 126.890875 64.515606 
L 126.890875 64.515427 
L 127.001955 63.249845 
L 127.012043 63.138806 
L 127.012043 63.138765 
L 127.123146 61.974882 
L 127.133995 61.864 
L 127.133995 61.863777 
L 127.245098 60.814791 
L 127.258394 60.703801 
L 127.258394 60.703698 
L 127.369488 59.910123 
L 127.389344 59.799069 
L 127.389344 59.799037 
L 127.500446 59.293538 
L 127.53118 59.182607 
L 127.53118 59.182453 
L 127.642278 58.842469 
L 127.685274 58.731505 
L 127.685274 58.731386 
L 127.795991 58.496577 
L 127.848935 58.385474 
L 127.960013 58.193751 
L 128.032168 58.082698 
L 128.032168 58.082641 
L 128.143226 57.930564 
L 128.235096 57.819464 
L 128.346107 57.697939 
L 128.461455 57.586839 
L 128.572396 57.492415 
L 128.711778 57.381347 
L 128.711778 57.38132 
L 128.822834 57.301435 
L 128.992254 57.190336 
L 129.103271 57.126421 
L 129.320446 57.015316 
L 129.431534 56.961614 
L 129.699988 56.850519 
L 129.810459 56.810346 
L 130.150417 56.699324 
L 130.150417 56.699247 
L 130.261474 56.666213 
L 130.68228 56.555142 
L 130.68228 56.555117 
L 130.793088 56.527282 
L 131.360468 56.416185 
L 131.471438 56.396568 
L 132.246421 56.285491 
L 132.246421 56.285466 
L 132.355621 56.272381 
L 133.399483 56.161282 
L 133.510534 56.151485 
L 135.161742 56.040397 
L 135.272631 56.034814 
L 138.391944 55.923711 
L 138.50203 55.921003 
L 152.167164 55.809895 
L 152.278202 55.809677 
L 179.011078 55.800024 
L 179.011078 55.800024 
" clip-path="url(#pf9e9ec487d)" style="fill: none; stroke: #000000; stroke-width: 1.5; stroke-linecap: square"/>
   </g>
   <g id="line2d_99">
    <path d="M 92.290909 307.8 
L 92.290909 298.03119 
L 97.478962 298.03119 
L 97.478962 292.316802 
L 99.332722 292.316802 
L 99.332722 288.26238 
L 100.468257 288.26238 
L 100.468257 285.117525 
L 100.822199 285.117525 
L 100.822199 282.547992 
L 101.151906 282.547992 
L 101.249261 278.493569 
L 101.39739 278.493569 
L 101.39739 276.833604 
L 101.515872 276.833604 
L 101.515872 275.348715 
L 101.721551 275.348715 
L 101.818677 272.779182 
L 102.21493 272.779182 
L 102.233725 270.606672 
L 102.367392 270.606672 
L 102.400863 267.870351 
L 102.599407 267.870351 
L 102.685919 264.892285 
L 102.884761 264.892285 
L 102.884761 264.236659 
L 103.037179 264.236659 
L 103.037179 263.610182 
L 103.303638 263.610182 
L 103.384597 261.350406 
L 103.435644 261.350406 
L 103.488171 260.343306 
L 103.59858 260.343306 
L 103.59858 259.865517 
L 103.749396 259.865517 
L 103.857631 258.955949 
L 103.914122 258.955949 
L 103.914122 258.522271 
L 104.063213 258.522271 
L 104.097085 257.693008 
L 104.271726 257.693008 
L 104.271726 257.295984 
L 104.463695 257.295984 
L 104.463695 256.909839 
L 104.790061 256.909839 
L 104.790061 256.533992 
L 104.938943 256.533992 
L 104.938943 256.167909 
L 105.081273 256.167909 
L 105.165075 255.123475 
L 105.210111 255.123475 
L 105.22522 254.151129 
L 105.348375 254.151129 
L 105.434838 252.66624 
L 105.506766 252.66624 
L 105.555485 252.113486 
L 105.622561 252.113486 
L 105.655221 251.581596 
L 105.804925 251.581596 
L 105.871032 250.574496 
L 105.97591 250.574496 
L 106.077469 249.863753 
L 106.10356 249.863753 
L 106.205743 248.541526 
L 106.287514 248.541526 
L 106.392056 247.724288 
L 106.405042 247.724288 
L 106.461513 247.332779 
L 106.569405 247.332779 
L 106.637895 245.867209 
L 106.752924 245.867209 
L 106.847919 244.860108 
L 106.886254 244.860108 
L 106.886254 244.699039 
L 107.002961 244.699039 
L 107.101615 243.920199 
L 107.121686 243.920199 
L 107.229022 242.757196 
L 107.251434 242.757196 
L 107.353805 241.426641 
L 107.37703 241.426641 
L 107.426907 241.050794 
L 107.510302 241.050794 
L 107.5687 240.684711 
L 107.632925 240.684711 
L 107.740298 239.418329 
L 107.82822 239.308652 
L 107.925003 238.256416 
L 107.961731 238.155387 
L 108.072454 237.277313 
L 108.111591 237.183042 
L 108.220249 236.812142 
L 108.253966 236.720922 
L 108.351449 236.011669 
L 108.392316 235.925471 
L 108.501816 235.010533 
L 108.516238 234.930228 
L 108.585384 234.380555 
L 108.64043 234.303751 
L 108.747973 233.630728 
L 108.779397 233.557894 
L 108.886582 232.849533 
L 108.93477 232.780616 
L 109.015586 232.175078 
L 109.053429 232.109375 
L 109.158326 231.531432 
L 109.178316 231.468655 
L 109.277878 230.442128 
L 109.299881 230.384011 
L 109.399974 229.815651 
L 109.443789 229.704679 
L 109.513502 229.003906 
L 109.582827 228.899121 
L 109.67733 227.746976 
L 109.700796 227.651102 
L 109.805527 226.861478 
L 109.863081 226.771424 
L 109.953476 226.286157 
L 110.002049 226.199694 
L 110.109186 225.363044 
L 110.115449 225.282047 
L 110.222593 224.382578 
L 110.234632 224.30701 
L 110.345314 223.465908 
L 110.4081 223.35981 
L 110.512824 222.638674 
L 110.531184 222.538602 
L 110.6371 221.794115 
L 110.662939 221.699844 
L 110.773763 220.644229 
L 110.789435 220.557322 
L 110.900483 219.880708 
L 110.92657 219.771031 
L 111.031988 218.897357 
L 111.057959 218.795045 
L 111.168958 218.026348 
L 111.195997 217.930147 
L 111.296236 217.047569 
L 111.3217 216.957802 
L 111.429143 216.23826 
L 111.463883 216.132374 
L 111.572306 215.352627 
L 111.611089 215.253167 
L 111.720949 214.406923 
L 111.729824 214.313897 
L 111.839359 213.450765 
L 111.864884 213.346498 
L 111.975371 212.637458 
L 111.983342 212.539017 
L 112.094143 211.728919 
L 112.104775 211.621276 
L 112.214423 210.587788 
L 112.231818 210.488489 
L 112.340318 209.866314 
L 112.366688 209.758525 
L 112.475866 208.988058 
L 112.488905 208.886758 
L 112.599712 208.065788 
L 112.628492 207.959064 
L 112.733372 207.21138 
L 112.758659 207.110912 
L 112.866056 206.331952 
L 112.89334 206.22709 
L 113.000824 205.484356 
L 113.027851 205.375755 
L 113.138673 204.647449 
L 113.161422 204.545087 
L 113.272421 203.875139 
L 113.284076 203.769438 
L 113.394548 202.942932 
L 113.410313 202.835758 
L 113.518588 202.177892 
L 113.534089 202.06858 
L 113.642653 201.267344 
L 113.66879 201.157553 
L 113.778909 200.405158 
L 113.792399 200.294999 
L 113.903493 199.482205 
L 113.916845 199.372578 
L 114.027178 198.701485 
L 114.039816 198.591666 
L 114.150037 197.880624 
L 114.159802 197.771261 
L 114.270314 196.893264 
L 114.288266 196.785925 
L 114.397894 196.107474 
L 114.417885 196.000878 
L 114.528521 195.214156 
L 114.54042 195.104591 
L 114.650356 194.437322 
L 114.666243 194.329119 
L 114.775937 193.496391 
L 114.795327 193.386747 
L 114.906133 192.66616 
L 114.918661 192.558804 
L 115.029555 191.765575 
L 115.044062 191.657408 
L 115.154896 190.827719 
L 115.174538 190.719536 
L 115.285261 189.941818 
L 115.300901 189.833671 
L 115.41179 189.000211 
L 115.426987 188.889866 
L 115.537448 187.993853 
L 115.55063 187.885398 
L 115.661167 186.958426 
L 115.676141 186.849698 
L 115.787228 186.081173 
L 115.800188 185.971535 
L 115.910864 185.098159 
L 115.926402 184.988935 
L 116.037402 184.170522 
L 116.053356 184.059559 
L 116.164011 183.216246 
L 116.179708 183.106443 
L 116.290491 182.223231 
L 116.30044 182.113318 
L 116.411519 181.199739 
L 116.424804 181.088718 
L 116.535858 180.186173 
L 116.549495 180.076292 
L 116.660034 179.180719 
L 116.67393 179.070768 
L 116.785037 178.167857 
L 116.799349 178.057008 
L 116.910324 177.147086 
L 116.924425 177.036051 
L 117.035308 176.119819 
L 117.048973 176.009214 
L 117.160079 175.112888 
L 117.17225 175.001902 
L 117.283286 174.077811 
L 117.296301 173.96724 
L 117.407412 173.036045 
L 117.418253 172.925454 
L 117.529254 171.97194 
L 117.541261 171.861151 
L 117.652362 170.939789 
L 117.664801 170.829165 
L 117.775612 169.900909 
L 117.789231 169.790241 
L 117.900338 168.848427 
L 117.913574 168.737654 
L 118.024598 167.784857 
L 118.035585 167.673973 
L 118.146623 166.719755 
L 118.158485 166.608742 
L 118.269585 165.64419 
L 118.28134 165.533153 
L 118.392394 164.563719 
L 118.405961 164.452757 
L 118.516999 163.480987 
L 118.530381 163.37021 
L 118.641385 162.405889 
L 118.653821 162.29489 
L 118.764843 161.323439 
L 118.777613 161.212473 
L 118.888719 160.21248 
L 118.899556 160.101578 
L 119.010569 159.077776 
L 119.023519 158.967017 
L 119.134574 157.944859 
L 119.146557 157.833857 
L 119.257665 156.833337 
L 119.269983 156.722309 
L 119.381018 155.706542 
L 119.392192 155.595672 
L 119.503283 154.551402 
L 119.515525 154.440479 
L 119.626581 153.402102 
L 119.638428 153.29104 
L 119.749533 152.240781 
L 119.761117 152.129698 
L 119.872226 151.054103 
L 119.883745 150.943066 
L 119.994853 149.874288 
L 120.006862 149.763197 
L 120.117973 148.666074 
L 120.129637 148.554999 
L 120.24074 147.459514 
L 120.251991 147.348547 
L 120.363062 146.234613 
L 120.374639 146.123595 
L 120.485728 145.022703 
L 120.496717 144.911633 
L 120.607827 143.808146 
L 120.618896 143.697063 
L 120.729993 142.58028 
L 120.740839 142.469251 
L 120.85194 141.345849 
L 120.862419 141.234751 
L 120.973529 140.074563 
L 120.984433 139.963525 
L 121.095543 138.796139 
L 121.105875 138.685076 
L 121.216979 137.520032 
L 121.227526 137.408971 
L 121.338624 136.229634 
L 121.349254 136.118576 
L 121.460356 134.936283 
L 121.470453 134.825175 
L 121.581558 133.621556 
L 121.591496 133.510464 
L 121.702603 132.30778 
L 121.71268 132.196697 
L 121.823787 130.960077 
L 121.833287 130.848999 
L 121.944397 129.626426 
L 121.954345 129.51535 
L 122.065454 128.267498 
L 122.07494 128.156413 
L 122.18605 126.898883 
L 122.195753 126.787797 
L 122.306862 125.511558 
L 122.31652 125.400449 
L 122.42763 124.12379 
L 122.437254 124.012691 
L 122.548361 122.713695 
L 122.557521 122.602588 
L 122.668631 121.287841 
L 122.677894 121.176752 
L 122.789004 119.851285 
L 122.798272 119.740191 
L 122.909383 118.404769 
L 122.918431 118.293665 
L 123.029541 116.938899 
L 123.038691 116.827797 
L 123.149799 115.460531 
L 123.158806 115.349432 
L 123.269917 113.967129 
L 123.278835 113.856028 
L 123.389945 112.455727 
L 123.398772 112.344626 
L 123.50988 110.931366 
L 123.518621 110.820263 
L 123.629732 109.385925 
L 123.638282 109.274824 
L 123.749392 107.830316 
L 123.757874 107.71921 
L 123.868986 106.251033 
L 123.877399 106.139929 
L 123.98851 104.659021 
L 123.996776 104.547917 
L 124.107887 103.04999 
L 124.116055 102.938881 
L 124.227166 101.421925 
L 124.235231 101.310819 
L 124.346342 99.776809 
L 124.354363 99.665703 
L 124.465474 98.117448 
L 124.473339 98.006341 
L 124.584449 96.439081 
L 124.59226 96.327972 
L 124.703371 94.744143 
L 124.711096 94.633035 
L 124.822207 93.032028 
L 124.829834 92.920919 
L 124.940945 91.303331 
L 124.948607 91.19222 
L 125.059718 89.560939 
L 125.0672 89.449829 
L 125.178311 87.802616 
L 125.185724 87.691506 
L 125.296835 86.031062 
L 125.304295 85.919952 
L 125.415407 84.248505 
L 125.422742 84.137395 
L 125.533853 82.453242 
L 125.541124 82.342131 
L 125.652235 80.658373 
L 125.659546 80.547262 
L 125.770657 78.855327 
L 125.777957 78.744217 
L 125.889068 77.058559 
L 125.896425 76.947448 
L 126.007536 75.266255 
L 126.014889 75.155145 
L 126.126 73.488863 
L 126.133504 73.377752 
L 126.244615 71.736874 
L 126.252216 71.625763 
L 126.363327 70.020425 
L 126.371129 69.909314 
L 126.48224 68.355245 
L 126.49034 68.244134 
L 126.601452 66.756104 
L 126.60994 66.644994 
L 126.721051 65.243793 
L 126.730182 65.132682 
L 126.841293 63.841768 
L 126.851354 63.730657 
L 126.962465 62.574616 
L 126.973957 62.463505 
L 127.085068 61.470252 
L 127.098734 61.359141 
L 127.209845 60.550399 
L 127.22716 60.439288 
L 127.338271 59.822046 
L 127.361986 59.710935 
L 127.473097 59.270303 
L 127.506855 59.159192 
L 127.617966 58.847144 
L 127.664025 58.736033 
L 127.775136 58.49863 
L 127.833858 58.387519 
L 127.944969 58.198687 
L 128.017709 58.087576 
L 128.12882 57.934023 
L 128.218019 57.822912 
L 128.32913 57.697139 
L 128.437771 57.586028 
L 128.548882 57.483181 
L 128.681935 57.37207 
L 128.793045 57.287776 
L 128.954934 57.176665 
L 129.066045 57.10779 
L 129.265748 56.996679 
L 129.376859 56.940986 
L 129.624665 56.829875 
L 129.735775 56.785299 
L 130.047566 56.674188 
L 130.158677 56.639028 
L 130.557844 56.527917 
L 130.668954 56.500801 
L 131.195606 56.38969 
L 131.306716 56.369587 
L 132.036521 56.258476 
L 132.147632 56.24428 
L 133.227593 56.133169 
L 133.338699 56.123909 
L 135.149239 56.012798 
L 135.260349 56.007744 
L 139.29643 55.896633 
L 139.407538 55.894856 
L 498.109091 55.8 
L 498.109091 55.8 
" clip-path="url(#pf9e9ec487d)" style="fill: none; stroke: #ff0000; stroke-width: 1.5; stroke-linecap: square"/>
   </g>
   <g id="patch_3">
    <path d="M 72 320.4 
L 72 43.2 
" style="fill: none; stroke: #000000; stroke-width: 0.8; stroke-linejoin: miter; stroke-linecap: square"/>
   </g>
   <g id="patch_4">
    <path d="M 518.4 320.4 
L 518.4 43.2 
" style="fill: none; stroke: #000000; stroke-width: 0.8; stroke-linejoin: miter; stroke-linecap: square"/>
   </g>
   <g id="patch_5">
    <path d="M 72 320.4 
L 518.4 320.4 
" style="fill: none; stroke: #000000; stroke-width: 0.8; stroke-linejoin: miter; stroke-linecap: square"/>
   </g>
   <g id="patch_6">
    <path d="M 72 43.2 
L 518.4 43.2 
" style="fill: none; stroke: #000000; stroke-width: 0.8; stroke-linejoin: miter; stroke-linecap: square"/>
   </g>
   <g id="text_19">
    <!-- Comparison: CDF (log scale expands lower tail) -->
    <g transform="translate(153.135937 37.2) scale(0.12 -0.12)">
     <defs>
      <path id="DejaVuSans-6f" d="M 1959 3097 
Q 1497 3097 1228 2736 
Q 959 2375 959 1747 
Q 959 1119 1226 758 
Q 1494 397 1959 397 
Q 2419 397 2687 759 
Q 2956 1122 2956 1747 
Q 2956 2369 2687 2733 
Q 2419 3097 1959 3097 
z
M 1959 3584 
Q 2709 3584 3137 3096 
Q 3566 2609 3566 1747 
Q 3566 888 3137 398 
Q 2709 -91 1959 -91 
Q 1206 -91 779 398 
Q 353 888 353 1747 
Q 353 2609 779 3096 
Q 1206 3584 1959 3584 
z
" transform="scale(0.015625)"/>
      <path id="DejaVuSans-6d" d="M 3328 2828 
Q 3544 3216 3844 3400 
Q 4144 3584 4550 3584 
Q 5097 3584 5394 3201 
Q 5691 2819 5691 2113 
L 5691 0 
L 5113 0 
L 5113 2094 
Q 5113 2597 4934 2840 
Q 4756 3084 4391 3084 
Q 3944 3084 3684 2787 
Q 3425 2491 3425 1978 
L 3425 0 
L 2847 0 
L 2847 2094 
Q 2847 2600 2669 2842 
Q 2491 3084 2119 3084 
Q 1678 3084 1418 2786 
Q 1159 2488 1159 1978 
L 1159 0 
L 581 0 
L 581 3500 
L 1159 3500 
L 1159 2956 
Q 1356 3278 1631 3431 
Q 1906 3584 2284 3584 
Q 2666 3584 2933 3390 
Q 3200 3197 3328 2828 
z
" transform="scale(0.015625)"/>
      <path id="DejaVuSans-70" d="M 1159 525 
L 1159 -1331 
L 581 -1331 
L 581 3500 
L 1159 3500 
L 1159 2969 
Q 1341 3281 1617 3432 
Q 1894 3584 2278 3584 
Q 2916 3584 3314 3078 
Q 3713 2572 3713 1747 
Q 3713 922 3314 415 
Q 2916 -91 2278 -91 
Q 1894 -91 1617 61 
Q 1341 213 1159 525 
z
M 3116 1747 
Q 3116 2381 2855 2742 
Q 2594 3103 2138 3103 
Q 1681 3103 1420 2742 
Q 1159 2381 1159 1747 
Q 1159 1113 1420 752 
Q 1681 391 2138 391 
Q 2594 391 2855 752 
Q 3116 1113 3116 1747 
z
" transform="scale(0.015625)"/>
      <path id="DejaVuSans-61" d="M 2194 1759 
Q 1497 1759 1228 1600 
Q 959 1441 959 1056 
Q 959 750 1161 570 
Q 1363 391 1709 391 
Q 2188 391 2477 730 
Q 2766 1069 2766 1631 
L 2766 1759 
L 2194 1759 
z
M 3341 1997 
L 3341 0 
L 2766 0 
L 2766 531 
Q 2569 213 2275 61 
Q 1981 -91 1556 -91 
Q 1019 -91 701 211 
Q 384 513 384 1019 
Q 384 1609 779 1909 
Q 1175 2209 1959 2209 
L 2766 2209 
L 2766 2266 
Q 2766 2663 2505 2880 
Q 2244 3097 1772 3097 
Q 1472 3097 1187 3025 
Q 903 2953 641 2809 
L 641 3341 
Q 956 3463 1253 3523 
Q 1550 3584 1831 3584 
Q 2591 3584 2966 3190 
Q 3341 2797 3341 1997 
z
" transform="scale(0.015625)"/>
      <path id="DejaVuSans-72" d="M 2631 2963 
Q 2534 3019 2420 3045 
Q 2306 3072 2169 3072 
Q 1681 3072 1420 2755 
Q 1159 2438 1159 1844 
L 1159 0 
L 581 0 
L 581 3500 
L 1159 3500 
L 1159 2956 
Q 1341 3275 1631 3429 
Q 1922 3584 2338 3584 
Q 2397 3584 2469 3576 
Q 2541 3569 2628 3553 
L 2631 2963 
z
" transform="scale(0.015625)"/>
      <path id="DejaVuSans-69" d="M 603 3500 
L 1178 3500 
L 1178 0 
L 603 0 
L 603 3500 
z
M 603 4863 
L 1178 4863 
L 1178 4134 
L 603 4134 
L 603 4863 
z
" transform="scale(0.015625)"/>
      <path id="DejaVuSans-73" d="M 2834 3397 
L 2834 2853 
Q 2591 2978 2328 3040 
Q 2066 3103 1784 3103 
Q 1356 3103 1142 2972 
Q 928 2841 928 2578 
Q 928 2378 1081 2264 
Q 1234 2150 1697 2047 
L 1894 2003 
Q 2506 1872 2764 1633 
Q 3022 1394 3022 966 
Q 3022 478 2636 193 
Q 2250 -91 1575 -91 
Q 1294 -91 989 -36 
Q 684 19 347 128 
L 347 722 
Q 666 556 975 473 
Q 1284 391 1588 391 
Q 1994 391 2212 530 
Q 2431 669 2431 922 
Q 2431 1156 2273 1281 
Q 2116 1406 1581 1522 
L 1381 1569 
Q 847 1681 609 1914 
Q 372 2147 372 2553 
Q 372 3047 722 3315 
Q 1072 3584 1716 3584 
Q 2034 3584 2315 3537 
Q 2597 3491 2834 3397 
z
" transform="scale(0.015625)"/>
      <path id="DejaVuSans-6e" d="M 3513 2113 
L 3513 0 
L 2938 0 
L 2938 2094 
Q 2938 2591 2744 2837 
Q 2550 3084 2163 3084 
Q 1697 3084 1428 2787 
Q 1159 2491 1159 1978 
L 1159 0 
L 581 0 
L 581 3500 
L 1159 3500 
L 1159 2956 
Q 1366 3272 1645 3428 
Q 1925 3584 2291 3584 
Q 2894 3584 3203 3211 
Q 3513 2838 3513 2113 
z
" transform="scale(0.015625)"/>
      <path id="DejaVuSans-3a" d="M 750 794 
L 1409 794 
L 1409 0 
L 750 0 
L 750 794 
z
M 750 3309 
L 1409 3309 
L 1409 2516 
L 750 2516 
L 750 3309 
z
" transform="scale(0.015625)"/>
      <path id="DejaVuSans-6c" d="M 603 4863 
L 1178 4863 
L 1178 0 
L 603 0 
L 603 4863 
z
" transform="scale(0.015625)"/>
      <path id="DejaVuSans-67" d="M 2906 1791 
Q 2906 2416 2648 2759 
Q 2391 3103 1925 3103 
Q 1463 3103 1205 2759 
Q 947 2416 947 1791 
Q 947 1169 1205 825 
Q 1463 481 1925 481 
Q 2391 481 2648 825 
Q 2906 1169 2906 1791 
z
M 3481 434 
Q 3481 -459 3084 -895 
Q 2688 -1331 1869 -1331 
Q 1566 -1331 1297 -1286 
Q 1028 -1241 775 -1147 
L 775 -588 
Q 1028 -725 1275 -790 
Q 1522 -856 1778 -856 
Q 2344 -856 2625 -561 
Q 2906 -266 2906 331 
L 2906 616 
Q 2728 306 2450 153 
Q 2172 0 1784 0 
Q 1141 0 747 490 
Q 353 981 353 1791 
Q 353 2603 747 3093 
Q 1141 3584 1784 3584 
Q 2172 3584 2450 3431 
Q 2728 3278 2906 2969 
L 2906 3500 
L 3481 3500 
L 3481 434 
z
" transform="scale(0.015625)"/>
      <path id="DejaVuSans-63" d="M 3122 3366 
L 3122 2828 
Q 2878 2963 2633 3030 
Q 2388 3097 2138 3097 
Q 1578 3097 1268 2742 
Q 959 2388 959 1747 
Q 959 1106 1268 751 
Q 1578 397 2138 397 
Q 2388 397 2633 464 
Q 2878 531 3122 666 
L 3122 134 
Q 2881 22 2623 -34 
Q 2366 -91 2075 -91 
Q 1284 -91 818 406 
Q 353 903 353 1747 
Q 353 2603 823 3093 
Q 1294 3584 2113 3584 
Q 2378 3584 2631 3529 
Q 2884 3475 3122 3366 
z
" transform="scale(0.015625)"/>
      <path id="DejaVuSans-78" d="M 3513 3500 
L 2247 1797 
L 3578 0 
L 2900 0 
L 1881 1375 
L 863 0 
L 184 0 
L 1544 1831 
L 300 3500 
L 978 3500 
L 1906 2253 
L 2834 3500 
L 3513 3500 
z
" transform="scale(0.015625)"/>
      <path id="DejaVuSans-64" d="M 2906 2969 
L 2906 4863 
L 3481 4863 
L 3481 0 
L 2906 0 
L 2906 525 
Q 2725 213 2448 61 
Q 2172 -91 1784 -91 
Q 1150 -91 751 415 
Q 353 922 353 1747 
Q 353 2572 751 3078 
Q 1150 3584 1784 3584 
Q 2172 3584 2448 3432 
Q 2725 3281 2906 2969 
z
M 947 1747 
Q 947 1113 1208 752 
Q 1469 391 1925 391 
Q 2381 391 2643 752 
Q 2906 1113 2906 1747 
Q 2906 2381 2643 2742 
Q 2381 3103 1925 3103 
Q 1469 3103 1208 2742 
Q 947 2381 947 1747 
z
" transform="scale(0.015625)"/>
      <path id="DejaVuSans-77" d="M 269 3500 
L 844 3500 
L 1563 769 
L 2278 3500 
L 2956 3500 
L 3675 769 
L 4391 3500 
L 4966 3500 
L 4050 0 
L 3372 0 
L 2619 2869 
L 1863 0 
L 1184 0 
L 269 3500 
z
" transform="scale(0.015625)"/>
      <path id="DejaVuSans-74" d="M 1172 4494 
L 1172 3500 
L 2356 3500 
L 2356 3053 
L 1172 3053 
L 1172 1153 
Q 1172 725 1289 603 
Q 1406 481 1766 481 
L 2356 481 
L 2356 0 
L 1766 0 
Q 1100 0 847 248 
Q 594 497 594 1153 
L 594 3053 
L 172 3053 
L 172 3500 
L 594 3500 
L 594 4494 
L 1172 4494 
z
" transform="scale(0.015625)"/>
     </defs>
     <use xlink:href="#DejaVuSans-43"/>
     <use xlink:href="#DejaVuSans-6f" x="69.824219"/>
     <use xlink:href="#DejaVuSans-6d" x="131.005859"/>
     <use xlink:href="#DejaVuSans-70" x="228.417969"/>
     <use xlink:href="#DejaVuSans-61" x="291.894531"/>
     <use xlink:href="#DejaVuSans-72" x="353.173828"/>
     <use xlink:href="#DejaVuSans-69" x="394.287109"/>
     <use xlink:href="#DejaVuSans-73" x="422.070312"/>
     <use xlink:href="#DejaVuSans-6f" x="474.169922"/>
     <use xlink:href="#DejaVuSans-6e" x="535.351562"/>
     <use xlink:href="#DejaVuSans-3a" x="598.730469"/>
     <use xlink:href="#DejaVuSans-20" x="632.421875"/>
     <use xlink:href="#DejaVuSans-43" x="664.208984"/>
     <use xlink:href="#DejaVuSans-44" x="734.033203"/>
     <use xlink:href="#DejaVuSans-46" x="811.035156"/>
     <use xlink:href="#DejaVuSans-20" x="868.554688"/>
     <use xlink:href="#DejaVuSans-28" x="900.341797"/>
     <use xlink:href="#DejaVuSans-6c" x="939.355469"/>
     <use xlink:href="#DejaVuSans-6f" x="967.138672"/>
     <use xlink:href="#DejaVuSans-67" x="1028.320312"/>
     <use xlink:href="#DejaVuSans-20" x="1091.796875"/>
     <use xlink:href="#DejaVuSans-73" x="1123.583984"/>
     <use xlink:href="#DejaVuSans-63" x="1175.683594"/>
     <use xlink:href="#DejaVuSans-61" x="1230.664062"/>
     <use xlink:href="#DejaVuSans-6c" x="1291.943359"/>
     <use xlink:href="#DejaVuSans-65" x="1319.726562"/>
     <use xlink:href="#DejaVuSans-20" x="1381.25"/>
     <use xlink:href="#DejaVuSans-65" x="1413.037109"/>
     <use xlink:href="#DejaVuSans-78" x="1472.810547"/>
     <use xlink:href="#DejaVuSans-70" x="1531.990234"/>
     <use xlink:href="#DejaVuSans-61" x="1595.466797"/>
     <use xlink:href="#DejaVuSans-6e" x="1656.746094"/>
     <use xlink:href="#DejaVuSans-64" x="1720.125"/>
     <use xlink:href="#DejaVuSans-73" x="1783.601562"/>
     <use xlink:href="#DejaVuSans-20" x="1835.701172"/>
     <use xlink:href="#DejaVuSans-6c" x="1867.488281"/>
     <use xlink:href="#DejaVuSans-6f" x="1895.271484"/>
     <use xlink:href="#DejaVuSans-77" x="1956.453125"/>
     <use xlink:href="#DejaVuSans-65" x="2038.240234"/>
     <use xlink:href="#DejaVuSans-72" x="2099.763672"/>
     <use xlink:href="#DejaVuSans-20" x="2140.876953"/>
     <use xlink:href="#DejaVuSans-74" x="2172.664062"/>
     <use xlink:href="#DejaVuSans-61" x="2211.873047"/>
     <use xlink:href="#DejaVuSans-69" x="2273.152344"/>
     <use xlink:href="#DejaVuSans-6c" x="2300.935547"/>
     <use xlink:href="#DejaVuSans-29" x="2328.71875"/>
    </g>
   </g>
   <g id="legend_1">
    <g id="patch_7">
     <path d="M 416.765625 315.4 
L 511.4 315.4 
Q 513.4 315.4 513.4 313.4 
L 513.4 285.04375 
Q 513.4 283.04375 511.4 283.04375 
L 416.765625 283.04375 
Q 414.765625 283.04375 414.765625 285.04375 
L 414.765625 313.4 
Q 414.765625 315.4 416.765625 315.4 
z
" style="fill: #ffffff; opacity: 0.8; stroke: #cccccc; stroke-linejoin: miter"/>
    </g>
    <g id="line2d_100">
     <path d="M 418.765625 291.142187 
L 418.765625 291.142187 
L 428.765625 291.142187 
L 428.765625 291.142187 
L 438.765625 291.142187 
" style="fill: none; stroke: #000000; stroke-width: 1.5; stroke-linecap: square"/>
    </g>
    <g id="text_20">
     <!-- Data -->
     <g transform="translate(446.765625 294.642187) scale(0.1 -0.1)">
      <use xlink:href="#DejaVuSans-44"/>
      <use xlink:href="#DejaVuSans-61" x="77.001953"/>
      <use xlink:href="#DejaVuSans-74" x="138.28125"/>
      <use xlink:href="#DejaVuSans-61" x="177.490234"/>
     </g>
    </g>
    <g id="line2d_101">
     <path d="M 418.765625 305.820312 
L 418.765625 305.820312 
L 428.765625 305.820312 
L 428.765625 305.820312 
L 438.765625 305.820312 
" style="fill: none; stroke: #ff0000; stroke-width: 1.5; stroke-linecap: square"/>
    </g>
    <g id="text_21">
     <!-- MCS Sample -->
     <g transform="translate(446.765625 309.320312) scale(0.1 -0.1)">
      <defs>
       <path id="DejaVuSans-4d" d="M 628 4666 
L 1569 4666 
L 2759 1491 
L 3956 4666 
L 4897 4666 
L 4897 0 
L 4281 0 
L 4281 4097 
L 3078 897 
L 2444 897 
L 1241 4097 
L 1241 0 
L 628 0 
L 628 4666 
z
" transform="scale(0.015625)"/>
       <path id="DejaVuSans-53" d="M 3425 4513 
L 3425 3897 
Q 3066 4069 2747 4153 
Q 2428 4238 2131 4238 
Q 1616 4238 1336 4038 
Q 1056 3838 1056 3469 
Q 1056 3159 1242 3001 
Q 1428 2844 1947 2747 
L 2328 2669 
Q 3034 2534 3370 2195 
Q 3706 1856 3706 1288 
Q 3706 609 3251 259 
Q 2797 -91 1919 -91 
Q 1588 -91 1214 -16 
Q 841 59 441 206 
L 441 856 
Q 825 641 1194 531 
Q 1563 422 1919 422 
Q 2459 422 2753 634 
Q 3047 847 3047 1241 
Q 3047 1584 2836 1778 
Q 2625 1972 2144 2069 
L 1759 2144 
Q 1053 2284 737 2584 
Q 422 2884 422 3419 
Q 422 4038 858 4394 
Q 1294 4750 2059 4750 
Q 2388 4750 2728 4690 
Q 3069 4631 3425 4513 
z
" transform="scale(0.015625)"/>
      </defs>
      <use xlink:href="#DejaVuSans-4d"/>
      <use xlink:href="#DejaVuSans-43" x="86.279297"/>
      <use xlink:href="#DejaVuSans-53" x="156.103516"/>
      <use xlink:href="#DejaVuSans-20" x="219.580078"/>
      <use xlink:href="#DejaVuSans-53" x="251.367188"/>
      <use xlink:href="#DejaVuSans-61" x="314.84375"/>
      <use xlink:href="#DejaVuSans-6d" x="376.123047"/>
      <use xlink:href="#DejaVuSans-70" x="473.535156"/>
      <use xlink:href="#DejaVuSans-6c" x="537.011719"/>
      <use xlink:href="#DejaVuSans-65" x="564.794922"/>
     </g>
    </g>
   </g>
  </g>
 </g>
 <defs>
  <clipPath id="pf9e9ec487d">
   <rect x="72" y="43.2" width="446.4" height="277.2"/>
  </clipPath>
 </defs>
</svg>
