<?xml version="1.0" encoding="utf-8" standalone="no"?>
<!DOCTYPE svg PUBLIC "-//W3C//DTD SVG 1.1//EN"
  "http://www.w3.org/Graphics/SVG/1.1/DTD/svg11.dtd">
<svg xmlns:xlink="http://www.w3.org/1999/xlink" width="460.8pt" height="345.6pt" viewBox="0 0 460.8 345.6" xmlns="http://www.w3.org/2000/svg" version="1.1">
 <metadata>
  <rdf:RDF xmlns:dc="http://purl.org/dc/elements/1.1/" xmlns:cc="http://creativecommons.org/ns#" xmlns:rdf="http://www.w3.org/1999/02/22-rdf-syntax-ns#">
   <cc:Work>
    <dc:type rdf:resource="http://purl.org/dc/dcmitype/StillImage"/>
    <dc:date>2024-10-24T22:33:54.006141</dc:date>
    <dc:format>image/svg+xml</dc:format>
    <dc:creator>
     <cc:Agent>
      <dc:title>Matplotlib v3.9.2, https://matplotlib.org/</dc:title>
     </cc:Agent>
    </dc:creator>
   </cc:Work>
  </rdf:RDF>
 </metadata>
 <defs>
  <style type="text/css">*{stroke-linejoin: round; stroke-linecap: butt}</style>
 </defs>
 <g id="figure_1">
  <g id="patch_1">
   <path d="M 0 345.6 
L 460.8 345.6 
L 460.8 0 
L 0 0 
z
" style="fill: #ffffff"/>
  </g>
  <g id="axes_1">
   <g id="patch_2">
    <path d="M 103.104 307.584 
L 369.216 307.584 
L 369.216 41.472 
L 103.104 41.472 
z
" style="fill: #ffffff"/>
   </g>
   <g id="PathCollection_1">
    <defs>
     <path id="C0_0_48b9a4bad1" d="M 0 1.581139 
C 0.419323 1.581139 0.821528 1.41454 1.118034 1.118034 
C 1.41454 0.821528 1.581139 0.419323 1.581139 -0 
C 1.581139 -0.419323 1.41454 -0.821528 1.118034 -1.118034 
C 0.821528 -1.41454 0.419323 -1.581139 0 -1.581139 
C -0.419323 -1.581139 -0.821528 -1.41454 -1.118034 -1.118034 
C -1.41454 -0.821528 -1.581139 -0.419323 -1.581139 0 
C -1.581139 0.419323 -1.41454 0.821528 -1.118034 1.118034 
C -0.821528 1.41454 -0.419323 1.581139 0 1.581139 
z
"/>
    </defs>
    <g clip-path="url(#p9b09f43eab)">
     <use xlink:href="#C0_0_48b9a4bad1" x="209.281394" y="189.118277" style="fill: none; stroke: #a9a9a9"/>
    </g>
    <g clip-path="url(#p9b09f43eab)">
     <use xlink:href="#C0_0_48b9a4bad1" x="214.144197" y="151.61884" style="fill: none; stroke: #a9a9a9"/>
    </g>
    <g clip-path="url(#p9b09f43eab)">
     <use xlink:href="#C0_0_48b9a4bad1" x="182.144125" y="164.118652" style="fill: none; stroke: #a9a9a9"/>
    </g>
    <g clip-path="url(#p9b09f43eab)">
     <use xlink:href="#C0_0_48b9a4bad1" x="212.443048" y="201.61809" style="fill: none; stroke: #a9a9a9"/>
    </g>
    <g clip-path="url(#p9b09f43eab)">
     <use xlink:href="#C0_0_48b9a4bad1" x="175.952965" y="176.618465" style="fill: none; stroke: #a9a9a9"/>
    </g>
    <g clip-path="url(#p9b09f43eab)">
     <use xlink:href="#C0_0_48b9a4bad1" x="208.013177" y="151.61884" style="fill: none; stroke: #a9a9a9"/>
    </g>
    <g clip-path="url(#p9b09f43eab)">
     <use xlink:href="#C0_0_48b9a4bad1" x="253.3298" y="176.618465" style="fill: none; stroke: #a9a9a9"/>
    </g>
    <g clip-path="url(#p9b09f43eab)">
     <use xlink:href="#C0_0_48b9a4bad1" x="224.441608" y="164.118652" style="fill: none; stroke: #a9a9a9"/>
    </g>
    <g clip-path="url(#p9b09f43eab)">
     <use xlink:href="#C0_0_48b9a4bad1" x="210.658456" y="164.118652" style="fill: none; stroke: #a9a9a9"/>
    </g>
    <g clip-path="url(#p9b09f43eab)">
     <use xlink:href="#C0_0_48b9a4bad1" x="205.001637" y="151.61884" style="fill: none; stroke: #a9a9a9"/>
    </g>
    <g clip-path="url(#p9b09f43eab)">
     <use xlink:href="#C0_0_48b9a4bad1" x="224.168491" y="164.118652" style="fill: none; stroke: #a9a9a9"/>
    </g>
    <g clip-path="url(#p9b09f43eab)">
     <use xlink:href="#C0_0_48b9a4bad1" x="188.827715" y="176.618465" style="fill: none; stroke: #a9a9a9"/>
    </g>
    <g clip-path="url(#p9b09f43eab)">
     <use xlink:href="#C0_0_48b9a4bad1" x="204.065068" y="201.61809" style="fill: none; stroke: #a9a9a9"/>
    </g>
    <g clip-path="url(#p9b09f43eab)">
     <use xlink:href="#C0_0_48b9a4bad1" x="213.679214" y="201.61809" style="fill: none; stroke: #a9a9a9"/>
    </g>
    <g clip-path="url(#p9b09f43eab)">
     <use xlink:href="#C0_0_48b9a4bad1" x="189.426184" y="201.61809" style="fill: none; stroke: #a9a9a9"/>
    </g>
    <g clip-path="url(#p9b09f43eab)">
     <use xlink:href="#C0_0_48b9a4bad1" x="208.197517" y="201.61809" style="fill: none; stroke: #a9a9a9"/>
    </g>
    <g clip-path="url(#p9b09f43eab)">
     <use xlink:href="#C0_0_48b9a4bad1" x="277.535847" y="89.119778" style="fill: none; stroke: #a9a9a9"/>
    </g>
    <g clip-path="url(#p9b09f43eab)">
     <use xlink:href="#C0_0_48b9a4bad1" x="237.074163" y="189.118277" style="fill: none; stroke: #a9a9a9"/>
    </g>
    <g clip-path="url(#p9b09f43eab)">
     <use xlink:href="#C0_0_48b9a4bad1" x="252.391873" y="139.119027" style="fill: none; stroke: #a9a9a9"/>
    </g>
    <g clip-path="url(#p9b09f43eab)">
     <use xlink:href="#C0_0_48b9a4bad1" x="201.538805" y="201.61809" style="fill: none; stroke: #a9a9a9"/>
    </g>
    <g clip-path="url(#p9b09f43eab)">
     <use xlink:href="#C0_0_48b9a4bad1" x="241.625951" y="164.118652" style="fill: none; stroke: #a9a9a9"/>
    </g>
    <g clip-path="url(#p9b09f43eab)">
     <use xlink:href="#C0_0_48b9a4bad1" x="271.662391" y="164.118652" style="fill: none; stroke: #a9a9a9"/>
    </g>
    <g clip-path="url(#p9b09f43eab)">
     <use xlink:href="#C0_0_48b9a4bad1" x="233.788454" y="139.119027" style="fill: none; stroke: #a9a9a9"/>
    </g>
    <g clip-path="url(#p9b09f43eab)">
     <use xlink:href="#C0_0_48b9a4bad1" x="212.301186" y="189.118277" style="fill: none; stroke: #a9a9a9"/>
    </g>
    <g clip-path="url(#p9b09f43eab)">
     <use xlink:href="#C0_0_48b9a4bad1" x="244.92453" y="151.61884" style="fill: none; stroke: #a9a9a9"/>
    </g>
    <g clip-path="url(#p9b09f43eab)">
     <use xlink:href="#C0_0_48b9a4bad1" x="203.893759" y="176.618465" style="fill: none; stroke: #a9a9a9"/>
    </g>
    <g clip-path="url(#p9b09f43eab)">
     <use xlink:href="#C0_0_48b9a4bad1" x="185.239807" y="176.618465" style="fill: none; stroke: #a9a9a9"/>
    </g>
    <g clip-path="url(#p9b09f43eab)">
     <use xlink:href="#C0_0_48b9a4bad1" x="258.968849" y="176.618465" style="fill: none; stroke: #a9a9a9"/>
    </g>
    <g clip-path="url(#p9b09f43eab)">
     <use xlink:href="#C0_0_48b9a4bad1" x="253.249805" y="126.619215" style="fill: none; stroke: #a9a9a9"/>
    </g>
    <g clip-path="url(#p9b09f43eab)">
     <use xlink:href="#C0_0_48b9a4bad1" x="180.880168" y="176.618465" style="fill: none; stroke: #a9a9a9"/>
    </g>
    <g clip-path="url(#p9b09f43eab)">
     <use xlink:href="#C0_0_48b9a4bad1" x="182.40941" y="201.61809" style="fill: none; stroke: #a9a9a9"/>
    </g>
    <g clip-path="url(#p9b09f43eab)">
     <use xlink:href="#C0_0_48b9a4bad1" x="215.729523" y="201.61809" style="fill: none; stroke: #a9a9a9"/>
    </g>
    <g clip-path="url(#p9b09f43eab)">
     <use xlink:href="#C0_0_48b9a4bad1" x="190.54653" y="189.118277" style="fill: none; stroke: #a9a9a9"/>
    </g>
    <g clip-path="url(#p9b09f43eab)">
     <use xlink:href="#C0_0_48b9a4bad1" x="258.465064" y="126.619215" style="fill: none; stroke: #a9a9a9"/>
    </g>
    <g clip-path="url(#p9b09f43eab)">
     <use xlink:href="#C0_0_48b9a4bad1" x="199.40116" y="201.61809" style="fill: none; stroke: #a9a9a9"/>
    </g>
    <g clip-path="url(#p9b09f43eab)">
     <use xlink:href="#C0_0_48b9a4bad1" x="217.016261" y="189.118277" style="fill: none; stroke: #a9a9a9"/>
    </g>
    <g clip-path="url(#p9b09f43eab)">
     <use xlink:href="#C0_0_48b9a4bad1" x="196.803436" y="214.117902" style="fill: none; stroke: #a9a9a9"/>
    </g>
    <g clip-path="url(#p9b09f43eab)">
     <use xlink:href="#C0_0_48b9a4bad1" x="153.025315" y="201.61809" style="fill: none; stroke: #a9a9a9"/>
    </g>
    <g clip-path="url(#p9b09f43eab)">
     <use xlink:href="#C0_0_48b9a4bad1" x="200.446232" y="189.118277" style="fill: none; stroke: #a9a9a9"/>
    </g>
    <g clip-path="url(#p9b09f43eab)">
     <use xlink:href="#C0_0_48b9a4bad1" x="205.607264" y="176.618465" style="fill: none; stroke: #a9a9a9"/>
    </g>
    <g clip-path="url(#p9b09f43eab)">
     <use xlink:href="#C0_0_48b9a4bad1" x="147.641674" y="189.118277" style="fill: none; stroke: #a9a9a9"/>
    </g>
    <g clip-path="url(#p9b09f43eab)">
     <use xlink:href="#C0_0_48b9a4bad1" x="244.451074" y="114.119403" style="fill: none; stroke: #a9a9a9"/>
    </g>
    <g clip-path="url(#p9b09f43eab)">
     <use xlink:href="#C0_0_48b9a4bad1" x="196.507456" y="164.118652" style="fill: none; stroke: #a9a9a9"/>
    </g>
    <g clip-path="url(#p9b09f43eab)">
     <use xlink:href="#C0_0_48b9a4bad1" x="182.973618" y="189.118277" style="fill: none; stroke: #a9a9a9"/>
    </g>
    <g clip-path="url(#p9b09f43eab)">
     <use xlink:href="#C0_0_48b9a4bad1" x="211.214363" y="114.119403" style="fill: none; stroke: #a9a9a9"/>
    </g>
    <g clip-path="url(#p9b09f43eab)">
     <use xlink:href="#C0_0_48b9a4bad1" x="230.634338" y="201.61809" style="fill: none; stroke: #a9a9a9"/>
    </g>
    <g clip-path="url(#p9b09f43eab)">
     <use xlink:href="#C0_0_48b9a4bad1" x="238.670893" y="164.118652" style="fill: none; stroke: #a9a9a9"/>
    </g>
    <g clip-path="url(#p9b09f43eab)">
     <use xlink:href="#C0_0_48b9a4bad1" x="184.295748" y="214.117902" style="fill: none; stroke: #a9a9a9"/>
    </g>
    <g clip-path="url(#p9b09f43eab)">
     <use xlink:href="#C0_0_48b9a4bad1" x="187.068133" y="201.61809" style="fill: none; stroke: #a9a9a9"/>
    </g>
    <g clip-path="url(#p9b09f43eab)">
     <use xlink:href="#C0_0_48b9a4bad1" x="221.466792" y="164.118652" style="fill: none; stroke: #a9a9a9"/>
    </g>
    <g clip-path="url(#p9b09f43eab)">
     <use xlink:href="#C0_0_48b9a4bad1" x="144.016654" y="214.117902" style="fill: none; stroke: #a9a9a9"/>
    </g>
    <g clip-path="url(#p9b09f43eab)">
     <use xlink:href="#C0_0_48b9a4bad1" x="242.460479" y="189.118277" style="fill: none; stroke: #a9a9a9"/>
    </g>
    <g clip-path="url(#p9b09f43eab)">
     <use xlink:href="#C0_0_48b9a4bad1" x="150.426514" y="214.117902" style="fill: none; stroke: #a9a9a9"/>
    </g>
    <g clip-path="url(#p9b09f43eab)">
     <use xlink:href="#C0_0_48b9a4bad1" x="160.141104" y="176.618465" style="fill: none; stroke: #a9a9a9"/>
    </g>
    <g clip-path="url(#p9b09f43eab)">
     <use xlink:href="#C0_0_48b9a4bad1" x="185.926866" y="176.618465" style="fill: none; stroke: #a9a9a9"/>
    </g>
    <g clip-path="url(#p9b09f43eab)">
     <use xlink:href="#C0_0_48b9a4bad1" x="196.874328" y="176.618465" style="fill: none; stroke: #a9a9a9"/>
    </g>
    <g clip-path="url(#p9b09f43eab)">
     <use xlink:href="#C0_0_48b9a4bad1" x="212.809241" y="176.618465" style="fill: none; stroke: #a9a9a9"/>
    </g>
    <g clip-path="url(#p9b09f43eab)">
     <use xlink:href="#C0_0_48b9a4bad1" x="194.179376" y="201.61809" style="fill: none; stroke: #a9a9a9"/>
    </g>
    <g clip-path="url(#p9b09f43eab)">
     <use xlink:href="#C0_0_48b9a4bad1" x="253.644998" y="214.117902" style="fill: none; stroke: #a9a9a9"/>
    </g>
    <g clip-path="url(#p9b09f43eab)">
     <use xlink:href="#C0_0_48b9a4bad1" x="214.97794" y="214.117902" style="fill: none; stroke: #a9a9a9"/>
    </g>
    <g clip-path="url(#p9b09f43eab)">
     <use xlink:href="#C0_0_48b9a4bad1" x="213.035502" y="164.118652" style="fill: none; stroke: #a9a9a9"/>
    </g>
    <g clip-path="url(#p9b09f43eab)">
     <use xlink:href="#C0_0_48b9a4bad1" x="196.668655" y="189.118277" style="fill: none; stroke: #a9a9a9"/>
    </g>
    <g clip-path="url(#p9b09f43eab)">
     <use xlink:href="#C0_0_48b9a4bad1" x="226.742321" y="214.117902" style="fill: none; stroke: #a9a9a9"/>
    </g>
    <g clip-path="url(#p9b09f43eab)">
     <use xlink:href="#C0_0_48b9a4bad1" x="293.405177" y="176.618465" style="fill: none; stroke: #a9a9a9"/>
    </g>
    <g clip-path="url(#p9b09f43eab)">
     <use xlink:href="#C0_0_48b9a4bad1" x="163.071759" y="151.61884" style="fill: none; stroke: #a9a9a9"/>
    </g>
    <g clip-path="url(#p9b09f43eab)">
     <use xlink:href="#C0_0_48b9a4bad1" x="224.222753" y="176.618465" style="fill: none; stroke: #a9a9a9"/>
    </g>
    <g clip-path="url(#p9b09f43eab)">
     <use xlink:href="#C0_0_48b9a4bad1" x="242.526341" y="201.61809" style="fill: none; stroke: #a9a9a9"/>
    </g>
    <g clip-path="url(#p9b09f43eab)">
     <use xlink:href="#C0_0_48b9a4bad1" x="158.218269" y="151.61884" style="fill: none; stroke: #a9a9a9"/>
    </g>
   </g>
   <g id="PolyCollection_1">
    <defs>
     <path id="maa0c8c504f" d="M 103.104 -304.128 
L 103.104 -202.778064 
L 251.189121 -202.778064 
L 251.189121 -38.016 
L 369.216 -38.016 
L 369.216 -304.128 
L 369.216 -304.128 
L 251.189121 -304.128 
L 251.189121 -304.128 
L 103.104 -304.128 
z
" style="stroke: #808080"/>
    </defs>
    <g clip-path="url(#p9b09f43eab)">
     <use xlink:href="#maa0c8c504f" x="0" y="345.6" style="fill: #808080; stroke: #808080"/>
    </g>
   </g>
   <g id="matplotlib.axis_1">
    <g id="xtick_1">
     <g id="line2d_1">
      <defs>
       <path id="mb3e941786a" d="M 0 0 
L 0 3.5 
" style="stroke: #000000; stroke-width: 0.8"/>
      </defs>
      <g>
       <use xlink:href="#mb3e941786a" x="103.104" y="307.584" style="stroke: #000000; stroke-width: 0.8"/>
      </g>
     </g>
     <g id="text_1">
      <!-- 0.0 -->
      <g transform="translate(95.152438 322.182437) scale(0.1 -0.1)">
       <defs>
        <path id="DejaVuSans-30" d="M 2034 4250 
Q 1547 4250 1301 3770 
Q 1056 3291 1056 2328 
Q 1056 1369 1301 889 
Q 1547 409 2034 409 
Q 2525 409 2770 889 
Q 3016 1369 3016 2328 
Q 3016 3291 2770 3770 
Q 2525 4250 2034 4250 
z
M 2034 4750 
Q 2819 4750 3233 4129 
Q 3647 3509 3647 2328 
Q 3647 1150 3233 529 
Q 2819 -91 2034 -91 
Q 1250 -91 836 529 
Q 422 1150 422 2328 
Q 422 3509 836 4129 
Q 1250 4750 2034 4750 
z
" transform="scale(0.015625)"/>
        <path id="DejaVuSans-2e" d="M 684 794 
L 1344 794 
L 1344 0 
L 684 0 
L 684 794 
z
" transform="scale(0.015625)"/>
       </defs>
       <use xlink:href="#DejaVuSans-30"/>
       <use xlink:href="#DejaVuSans-2e" x="63.623047"/>
       <use xlink:href="#DejaVuSans-30" x="95.410156"/>
      </g>
     </g>
    </g>
    <g id="xtick_2">
     <g id="line2d_2">
      <g>
       <use xlink:href="#mb3e941786a" x="147.456" y="307.584" style="stroke: #000000; stroke-width: 0.8"/>
      </g>
     </g>
     <g id="text_2">
      <!-- 0.5 -->
      <g transform="translate(139.504438 322.182437) scale(0.1 -0.1)">
       <defs>
        <path id="DejaVuSans-35" d="M 691 4666 
L 3169 4666 
L 3169 4134 
L 1269 4134 
L 1269 2991 
Q 1406 3038 1543 3061 
Q 1681 3084 1819 3084 
Q 2600 3084 3056 2656 
Q 3513 2228 3513 1497 
Q 3513 744 3044 326 
Q 2575 -91 1722 -91 
Q 1428 -91 1123 -41 
Q 819 9 494 109 
L 494 744 
Q 775 591 1075 516 
Q 1375 441 1709 441 
Q 2250 441 2565 725 
Q 2881 1009 2881 1497 
Q 2881 1984 2565 2268 
Q 2250 2553 1709 2553 
Q 1456 2553 1204 2497 
Q 953 2441 691 2322 
L 691 4666 
z
" transform="scale(0.015625)"/>
       </defs>
       <use xlink:href="#DejaVuSans-30"/>
       <use xlink:href="#DejaVuSans-2e" x="63.623047"/>
       <use xlink:href="#DejaVuSans-35" x="95.410156"/>
      </g>
     </g>
    </g>
    <g id="xtick_3">
     <g id="line2d_3">
      <g>
       <use xlink:href="#mb3e941786a" x="191.808" y="307.584" style="stroke: #000000; stroke-width: 0.8"/>
      </g>
     </g>
     <g id="text_3">
      <!-- 1.0 -->
      <g transform="translate(183.856437 322.182437) scale(0.1 -0.1)">
       <defs>
        <path id="DejaVuSans-31" d="M 794 531 
L 1825 531 
L 1825 4091 
L 703 3866 
L 703 4441 
L 1819 4666 
L 2450 4666 
L 2450 531 
L 3481 531 
L 3481 0 
L 794 0 
L 794 531 
z
" transform="scale(0.015625)"/>
       </defs>
       <use xlink:href="#DejaVuSans-31"/>
       <use xlink:href="#DejaVuSans-2e" x="63.623047"/>
       <use xlink:href="#DejaVuSans-30" x="95.410156"/>
      </g>
     </g>
    </g>
    <g id="xtick_4">
     <g id="line2d_4">
      <g>
       <use xlink:href="#mb3e941786a" x="236.16" y="307.584" style="stroke: #000000; stroke-width: 0.8"/>
      </g>
     </g>
     <g id="text_4">
      <!-- 1.5 -->
      <g transform="translate(228.208438 322.182437) scale(0.1 -0.1)">
       <use xlink:href="#DejaVuSans-31"/>
       <use xlink:href="#DejaVuSans-2e" x="63.623047"/>
       <use xlink:href="#DejaVuSans-35" x="95.410156"/>
      </g>
     </g>
    </g>
    <g id="xtick_5">
     <g id="line2d_5">
      <g>
       <use xlink:href="#mb3e941786a" x="280.512" y="307.584" style="stroke: #000000; stroke-width: 0.8"/>
      </g>
     </g>
     <g id="text_5">
      <!-- 2.0 -->
      <g transform="translate(272.560437 322.182437) scale(0.1 -0.1)">
       <defs>
        <path id="DejaVuSans-32" d="M 1228 531 
L 3431 531 
L 3431 0 
L 469 0 
L 469 531 
Q 828 903 1448 1529 
Q 2069 2156 2228 2338 
Q 2531 2678 2651 2914 
Q 2772 3150 2772 3378 
Q 2772 3750 2511 3984 
Q 2250 4219 1831 4219 
Q 1534 4219 1204 4116 
Q 875 4013 500 3803 
L 500 4441 
Q 881 4594 1212 4672 
Q 1544 4750 1819 4750 
Q 2544 4750 2975 4387 
Q 3406 4025 3406 3419 
Q 3406 3131 3298 2873 
Q 3191 2616 2906 2266 
Q 2828 2175 2409 1742 
Q 1991 1309 1228 531 
z
" transform="scale(0.015625)"/>
       </defs>
       <use xlink:href="#DejaVuSans-32"/>
       <use xlink:href="#DejaVuSans-2e" x="63.623047"/>
       <use xlink:href="#DejaVuSans-30" x="95.410156"/>
      </g>
     </g>
    </g>
    <g id="xtick_6">
     <g id="line2d_6">
      <g>
       <use xlink:href="#mb3e941786a" x="324.864" y="307.584" style="stroke: #000000; stroke-width: 0.8"/>
      </g>
     </g>
     <g id="text_6">
      <!-- 2.5 -->
      <g transform="translate(316.912437 322.182437) scale(0.1 -0.1)">
       <use xlink:href="#DejaVuSans-32"/>
       <use xlink:href="#DejaVuSans-2e" x="63.623047"/>
       <use xlink:href="#DejaVuSans-35" x="95.410156"/>
      </g>
     </g>
    </g>
    <g id="xtick_7">
     <g id="line2d_7">
      <g>
       <use xlink:href="#mb3e941786a" x="369.216" y="307.584" style="stroke: #000000; stroke-width: 0.8"/>
      </g>
     </g>
     <g id="text_7">
      <!-- 3.0 -->
      <g transform="translate(361.264437 322.182437) scale(0.1 -0.1)">
       <defs>
        <path id="DejaVuSans-33" d="M 2597 2516 
Q 3050 2419 3304 2112 
Q 3559 1806 3559 1356 
Q 3559 666 3084 287 
Q 2609 -91 1734 -91 
Q 1441 -91 1130 -33 
Q 819 25 488 141 
L 488 750 
Q 750 597 1062 519 
Q 1375 441 1716 441 
Q 2309 441 2620 675 
Q 2931 909 2931 1356 
Q 2931 1769 2642 2001 
Q 2353 2234 1838 2234 
L 1294 2234 
L 1294 2753 
L 1863 2753 
Q 2328 2753 2575 2939 
Q 2822 3125 2822 3475 
Q 2822 3834 2567 4026 
Q 2313 4219 1838 4219 
Q 1578 4219 1281 4162 
Q 984 4106 628 3988 
L 628 4550 
Q 988 4650 1302 4700 
Q 1616 4750 1894 4750 
Q 2613 4750 3031 4423 
Q 3450 4097 3450 3541 
Q 3450 3153 3228 2886 
Q 3006 2619 2597 2516 
z
" transform="scale(0.015625)"/>
       </defs>
       <use xlink:href="#DejaVuSans-33"/>
       <use xlink:href="#DejaVuSans-2e" x="63.623047"/>
       <use xlink:href="#DejaVuSans-30" x="95.410156"/>
      </g>
     </g>
    </g>
    <g id="text_8">
     <!-- $X_1$ -->
     <g transform="translate(228.04 338.899937) scale(0.14 -0.14)">
      <defs>
       <path id="DejaVuSans-Oblique-58" d="M 878 4666 
L 1516 4666 
L 2316 2981 
L 3763 4666 
L 4500 4666 
L 2578 2438 
L 3738 0 
L 3103 0 
L 2163 1966 
L 459 0 
L -275 0 
L 1906 2509 
L 878 4666 
z
" transform="scale(0.015625)"/>
      </defs>
      <use xlink:href="#DejaVuSans-Oblique-58" transform="translate(0 0.09375)"/>
      <use xlink:href="#DejaVuSans-31" transform="translate(68.505859 -16.3125) scale(0.7)"/>
     </g>
    </g>
   </g>
   <g id="matplotlib.axis_2">
    <g id="ytick_1">
     <g id="line2d_8">
      <defs>
       <path id="m20b3988b55" d="M 0 0 
L -3.5 0 
" style="stroke: #000000; stroke-width: 0.8"/>
      </defs>
      <g>
       <use xlink:href="#m20b3988b55" x="103.104" y="307.584" style="stroke: #000000; stroke-width: 0.8"/>
      </g>
     </g>
     <g id="text_9">
      <!-- 0.0 -->
      <g transform="translate(80.200875 311.383219) scale(0.1 -0.1)">
       <use xlink:href="#DejaVuSans-30"/>
       <use xlink:href="#DejaVuSans-2e" x="63.623047"/>
       <use xlink:href="#DejaVuSans-30" x="95.410156"/>
      </g>
     </g>
    </g>
    <g id="ytick_2">
     <g id="line2d_9">
      <g>
       <use xlink:href="#m20b3988b55" x="103.104" y="263.232" style="stroke: #000000; stroke-width: 0.8"/>
      </g>
     </g>
     <g id="text_10">
      <!-- 0.5 -->
      <g transform="translate(80.200875 267.031219) scale(0.1 -0.1)">
       <use xlink:href="#DejaVuSans-30"/>
       <use xlink:href="#DejaVuSans-2e" x="63.623047"/>
       <use xlink:href="#DejaVuSans-35" x="95.410156"/>
      </g>
     </g>
    </g>
    <g id="ytick_3">
     <g id="line2d_10">
      <g>
       <use xlink:href="#m20b3988b55" x="103.104" y="218.88" style="stroke: #000000; stroke-width: 0.8"/>
      </g>
     </g>
     <g id="text_11">
      <!-- 1.0 -->
      <g transform="translate(80.200875 222.679219) scale(0.1 -0.1)">
       <use xlink:href="#DejaVuSans-31"/>
       <use xlink:href="#DejaVuSans-2e" x="63.623047"/>
       <use xlink:href="#DejaVuSans-30" x="95.410156"/>
      </g>
     </g>
    </g>
    <g id="ytick_4">
     <g id="line2d_11">
      <g>
       <use xlink:href="#m20b3988b55" x="103.104" y="174.528" style="stroke: #000000; stroke-width: 0.8"/>
      </g>
     </g>
     <g id="text_12">
      <!-- 1.5 -->
      <g transform="translate(80.200875 178.327219) scale(0.1 -0.1)">
       <use xlink:href="#DejaVuSans-31"/>
       <use xlink:href="#DejaVuSans-2e" x="63.623047"/>
       <use xlink:href="#DejaVuSans-35" x="95.410156"/>
      </g>
     </g>
    </g>
    <g id="ytick_5">
     <g id="line2d_12">
      <g>
       <use xlink:href="#m20b3988b55" x="103.104" y="130.176" style="stroke: #000000; stroke-width: 0.8"/>
      </g>
     </g>
     <g id="text_13">
      <!-- 2.0 -->
      <g transform="translate(80.200875 133.975219) scale(0.1 -0.1)">
       <use xlink:href="#DejaVuSans-32"/>
       <use xlink:href="#DejaVuSans-2e" x="63.623047"/>
       <use xlink:href="#DejaVuSans-30" x="95.410156"/>
      </g>
     </g>
    </g>
    <g id="ytick_6">
     <g id="line2d_13">
      <g>
       <use xlink:href="#m20b3988b55" x="103.104" y="85.824" style="stroke: #000000; stroke-width: 0.8"/>
      </g>
     </g>
     <g id="text_14">
      <!-- 2.5 -->
      <g transform="translate(80.200875 89.623219) scale(0.1 -0.1)">
       <use xlink:href="#DejaVuSans-32"/>
       <use xlink:href="#DejaVuSans-2e" x="63.623047"/>
       <use xlink:href="#DejaVuSans-35" x="95.410156"/>
      </g>
     </g>
    </g>
    <g id="ytick_7">
     <g id="line2d_14">
      <g>
       <use xlink:href="#m20b3988b55" x="103.104" y="41.472" style="stroke: #000000; stroke-width: 0.8"/>
      </g>
     </g>
     <g id="text_15">
      <!-- 3.0 -->
      <g transform="translate(80.200875 45.271219) scale(0.1 -0.1)">
       <use xlink:href="#DejaVuSans-33"/>
       <use xlink:href="#DejaVuSans-2e" x="63.623047"/>
       <use xlink:href="#DejaVuSans-30" x="95.410156"/>
      </g>
     </g>
    </g>
    <g id="text_16">
     <!-- $X_2$ -->
     <g transform="translate(73.289313 182.648) rotate(-90) scale(0.14 -0.14)">
      <use xlink:href="#DejaVuSans-Oblique-58" transform="translate(0 0.09375)"/>
      <use xlink:href="#DejaVuSans-32" transform="translate(68.505859 -16.3125) scale(0.7)"/>
     </g>
    </g>
   </g>
   <g id="QuadContourSet_1">
    <path clip-path="url(#p9b09f43eab)" style="fill: none; stroke: #f7fbff; stroke-width: 1.5"/>
    <path d="M 159.552 218.974125 
L 162.24 219.605471 
L 164.928 220.105511 
L 167.616 220.496784 
L 170.304 220.797017 
L 172.992 221.020128 
L 175.68 221.176983 
L 178.368 221.275975 
L 181.056 221.323456 
L 183.744 221.324059 
L 186.432 221.280929 
L 189.12 221.195884 
L 191.808 221.069507 
L 194.496 220.90119 
L 197.184 220.689112 
L 199.872 220.430176 
L 202.56 220.119875 
L 205.248 219.752101 
L 207.936 219.31887 
L 210.274098 218.88 
L 210.624 218.828118 
L 213.312 218.390454 
L 216 217.885227 
L 218.688 217.299688 
L 221.376 216.617819 
L 222.875063 216.192 
L 224.064 215.907192 
L 226.752 215.197974 
L 229.44 214.371757 
L 231.872179 213.504 
L 232.128 213.42214 
L 234.816 212.513323 
L 237.504 211.447464 
L 238.937539 210.816 
L 240.192 210.29186 
L 242.88 209.054485 
L 244.662369 208.128 
L 245.568 207.657975 
L 248.256 206.148797 
L 249.412533 205.44 
L 250.944 204.458117 
L 253.363052 202.752 
L 253.632 202.544901 
L 256.32 200.393982 
L 256.715982 200.064 
L 259.008 197.895706 
L 259.544573 197.376 
L 261.696 194.923003 
L 261.903303 194.688 
L 263.905043 192 
L 264.384 191.198059 
L 265.570375 189.312 
L 266.882139 186.624 
L 267.072 186.12671 
L 267.985575 183.936 
L 268.815848 181.248 
L 269.400827 178.56 
L 269.76 175.99826 
L 269.780097 175.872 
L 269.997883 173.184 
L 270.022112 170.496 
L 269.863336 167.808 
L 269.76 166.964083 
L 269.549682 165.12 
L 269.081558 162.432 
L 268.439929 159.744 
L 267.612934 157.056 
L 267.072 155.593818 
L 266.622389 154.368 
L 265.462933 151.68 
L 264.384 149.563928 
L 264.084361 148.992 
L 262.508407 146.304 
L 261.696 145.073793 
L 260.671526 143.616 
L 259.008 141.487543 
L 258.529659 140.928 
L 256.32 138.537536 
L 256.01021 138.24 
L 253.632 136.073244 
L 252.966467 135.552 
L 250.944 134.014033 
L 249.11883 132.864 
L 248.256 132.324606 
L 245.568 130.931687 
L 243.702442 130.176 
L 242.88 129.834559 
L 240.192 128.96262 
L 237.504 128.346313 
L 234.816 127.954599 
L 232.128 127.764148 
L 229.44 127.758171 
L 226.752 127.925585 
L 224.064 128.260455 
L 221.376 128.761687 
L 218.688 129.43293 
L 216.330697 130.176 
L 216 130.270271 
L 213.312 131.187929 
L 210.624 132.286176 
L 209.398428 132.864 
L 207.936 133.498174 
L 205.248 134.835494 
L 203.973525 135.552 
L 202.56 136.291038 
L 199.872 137.878516 
L 199.313077 138.24 
L 197.184 139.5347 
L 195.139324 140.928 
L 194.496 141.34243 
L 191.808 143.233618 
L 191.303537 143.616 
L 189.12 145.197925 
L 187.719701 146.304 
L 186.432 147.281652 
L 184.349573 148.992 
L 183.744 149.472869 
L 181.155004 151.68 
L 181.056 151.762101 
L 178.368 154.10895 
L 178.086108 154.368 
L 175.68 156.543313 
L 175.139729 157.056 
L 172.992 159.074433 
L 172.308378 159.744 
L 170.304 161.702107 
L 169.581926 162.432 
L 167.616 164.429322 
L 166.954158 165.12 
L 164.928 167.262958 
L 164.422504 167.808 
L 162.24 170.214898 
L 161.988013 170.496 
L 159.643422 173.184 
L 159.552 173.291784 
L 157.364574 175.872 
L 156.864 176.495285 
L 155.190889 178.56 
L 154.176 179.902429 
L 153.139149 181.248 
L 151.488 183.586076 
L 151.233348 183.936 
L 149.414206 186.624 
L 148.8 187.648481 
L 147.750975 189.312 
L 146.302842 192 
L 146.112 192.418156 
L 144.992291 194.688 
L 143.968606 197.376 
L 143.424 199.434382 
L 143.237289 200.064 
L 142.82527 202.752 
L 142.880766 205.44 
L 143.424 207.682798 
L 143.528473 208.128 
L 144.904044 210.816 
L 146.112 212.180084 
L 147.409014 213.504 
L 148.8 214.502899 
L 151.488 216.107938 
L 151.648527 216.192 
L 154.176 217.301131 
L 156.864 218.235091 
L 159.202011 218.88 
L 159.552 218.974125 
z
" clip-path="url(#p9b09f43eab)" style="fill: none; stroke: #deebf7; stroke-width: 1.5"/>
    <path d="M 178.368 216.203015 
L 181.056 216.418258 
L 183.744 216.547482 
L 186.432 216.598859 
L 189.12 216.578051 
L 191.808 216.488498 
L 194.496 216.331605 
L 196.171931 216.192 
L 197.184 216.119969 
L 199.872 215.87373 
L 202.56 215.570543 
L 205.248 215.206598 
L 207.936 214.776194 
L 210.624 214.271503 
L 213.312 213.682223 
L 214.041679 213.504 
L 216 213.072708 
L 218.688 212.404195 
L 221.376 211.635879 
L 223.8744 210.816 
L 224.064 210.756746 
L 226.752 209.859439 
L 229.44 208.83009 
L 231.087383 208.128 
L 232.128 207.684048 
L 234.816 206.438737 
L 236.740867 205.44 
L 237.504 205.024824 
L 240.192 203.459816 
L 241.315872 202.752 
L 242.88 201.674213 
L 245.051581 200.064 
L 245.568 199.627793 
L 248.123257 197.376 
L 248.256 197.237544 
L 250.665093 194.688 
L 250.944 194.325429 
L 252.751918 192 
L 253.632 190.557002 
L 254.41711 189.312 
L 255.721842 186.624 
L 256.32 184.94423 
L 256.704178 183.936 
L 257.413872 181.248 
L 257.838185 178.56 
L 258.005338 175.872 
L 257.929758 173.184 
L 257.615216 170.496 
L 257.056756 167.808 
L 256.32 165.363681 
L 256.24552 165.12 
L 255.200293 162.432 
L 253.852359 159.744 
L 253.632 159.364814 
L 252.190354 157.056 
L 250.944 155.362803 
L 250.130292 154.368 
L 248.256 152.334058 
L 247.561325 151.68 
L 245.568 149.950295 
L 244.241395 148.992 
L 242.88 148.055847 
L 240.192 146.5687 
L 239.589951 146.304 
L 237.504 145.393169 
L 234.816 144.521773 
L 232.128 143.924674 
L 229.828631 143.616 
L 229.44 143.56145 
L 226.752 143.400016 
L 224.064 143.448135 
L 222.233385 143.616 
L 221.376 143.686529 
L 218.688 144.081211 
L 216 144.645099 
L 213.312 145.381124 
L 210.624 146.297357 
L 210.607424 146.304 
L 207.936 147.291097 
L 205.248 148.466779 
L 204.196652 148.992 
L 202.56 149.754851 
L 199.872 151.185443 
L 199.03698 151.68 
L 197.184 152.716265 
L 194.571053 154.368 
L 194.496 154.413128 
L 191.808 156.161591 
L 190.562291 157.056 
L 189.12 158.053285 
L 186.887172 159.744 
L 186.432 160.078661 
L 183.744 162.203575 
L 183.471393 162.432 
L 181.056 164.423071 
L 180.262486 165.12 
L 178.368 166.772493 
L 177.243582 167.808 
L 175.68 169.253148 
L 174.394426 170.496 
L 172.992 171.872735 
L 171.702655 173.184 
L 170.304 174.647584 
L 169.163138 175.872 
L 167.616 177.606493 
L 166.777911 178.56 
L 164.928 180.797415 
L 164.556733 181.248 
L 162.493957 183.936 
L 162.24 184.299135 
L 160.587233 186.624 
L 159.552 188.298407 
L 158.905563 189.312 
L 157.447144 192 
L 156.864 193.352035 
L 156.251906 194.688 
L 155.367326 197.376 
L 154.886738 200.064 
L 154.891186 202.752 
L 155.534969 205.44 
L 156.864 207.766596 
L 157.086559 208.128 
L 159.552 210.47923 
L 159.965899 210.816 
L 162.24 212.146357 
L 164.928 213.378713 
L 165.252239 213.504 
L 167.616 214.281573 
L 170.304 214.978264 
L 172.992 215.512642 
L 175.68 215.913191 
L 178.268324 216.192 
L 178.368 216.203015 
z
" clip-path="url(#p9b09f43eab)" style="fill: none; stroke: #c6dbef; stroke-width: 1.5"/>
    <path d="M 175.68 211.332063 
L 178.368 211.927233 
L 181.056 212.361076 
L 183.744 212.659542 
L 186.432 212.8425 
L 189.12 212.924947 
L 191.808 212.917906 
L 194.496 212.829076 
L 197.184 212.663289 
L 199.872 212.422815 
L 202.56 212.107527 
L 205.248 211.714956 
L 207.936 211.240224 
L 209.973433 210.816 
L 210.624 210.686163 
L 213.312 210.07847 
L 216 209.380199 
L 218.688 208.578152 
L 220.039395 208.128 
L 221.376 207.680371 
L 224.064 206.686733 
L 226.752 205.556146 
L 227.010482 205.44 
L 229.44 204.291693 
L 232.128 202.86363 
L 232.327183 202.752 
L 234.816 201.220487 
L 236.541832 200.064 
L 237.504 199.325829 
L 239.908747 197.376 
L 240.192 197.102168 
L 242.619348 194.688 
L 242.88 194.366098 
L 244.788146 192 
L 245.568 190.747123 
L 246.47754 189.312 
L 247.742696 186.624 
L 248.256 185.049183 
L 248.63765 183.936 
L 249.195848 181.248 
L 249.421142 178.56 
L 249.329026 175.872 
L 248.919802 173.184 
L 248.256 170.754068 
L 248.182346 170.496 
L 247.101642 167.808 
L 245.619589 165.12 
L 245.568 165.041544 
L 243.64307 162.432 
L 242.88 161.563378 
L 241.007675 159.744 
L 240.192 159.040658 
L 237.504 157.14991 
L 237.337986 157.056 
L 234.816 155.711178 
L 232.128 154.662399 
L 231.07102 154.368 
L 229.44 153.917572 
L 226.752 153.44407 
L 224.064 153.220695 
L 221.376 153.221629 
L 218.688 153.429075 
L 216 153.832222 
L 213.576946 154.368 
L 213.312 154.421963 
L 210.624 155.143389 
L 207.936 156.040926 
L 205.414696 157.056 
L 205.248 157.118927 
L 202.56 158.291826 
L 199.872 159.657885 
L 199.719487 159.744 
L 197.184 161.110504 
L 195.02104 162.432 
L 194.496 162.741229 
L 191.808 164.479534 
L 190.903737 165.12 
L 189.12 166.355706 
L 187.202568 167.808 
L 186.432 168.38561 
L 183.827233 170.496 
L 183.744 170.563626 
L 181.056 172.87547 
L 180.716659 173.184 
L 178.368 175.363314 
L 177.844682 175.872 
L 175.68 178.055729 
L 175.19718 178.56 
L 172.992 180.997663 
L 172.770536 181.248 
L 170.559051 183.936 
L 170.304 184.280148 
L 168.568635 186.624 
L 167.616 188.118199 
L 166.843521 189.312 
L 165.40913 192 
L 164.928 193.197108 
L 164.300642 194.688 
L 163.594689 197.376 
L 163.39979 200.064 
L 163.86814 202.752 
L 164.928 204.830873 
L 165.270348 205.44 
L 167.616 207.718173 
L 168.122961 208.128 
L 170.304 209.348957 
L 172.992 210.512373 
L 173.872428 210.816 
L 175.68 211.332063 
z
" clip-path="url(#p9b09f43eab)" style="fill: none; stroke: #9dcae1; stroke-width: 1.5"/>
    <path d="M 181.056 208.245585 
L 183.744 208.826527 
L 186.432 209.224814 
L 189.12 209.469045 
L 191.808 209.580685 
L 194.496 209.575472 
L 197.184 209.464436 
L 199.872 209.254624 
L 202.56 208.949579 
L 205.248 208.54963 
L 207.530313 208.128 
L 207.936 208.051924 
L 210.624 207.457905 
L 213.312 206.766834 
L 216 205.969126 
L 217.575997 205.44 
L 218.688 205.044458 
L 221.376 203.987037 
L 224.064 202.79378 
L 224.151667 202.752 
L 226.752 201.383343 
L 229.021063 200.064 
L 229.44 199.782815 
L 232.128 197.871149 
L 232.78537 197.376 
L 234.816 195.538939 
L 235.720717 194.688 
L 237.504 192.582474 
L 237.989938 192 
L 239.701465 189.312 
L 240.192 188.224541 
L 240.928389 186.624 
L 241.710153 183.936 
L 242.074989 181.248 
L 242.036387 178.56 
L 241.585973 175.872 
L 240.696179 173.184 
L 240.192 172.14575 
L 239.28976 170.496 
L 237.504 168.093682 
L 237.252045 167.808 
L 234.816 165.548775 
L 234.231987 165.12 
L 232.128 163.76309 
L 229.44 162.495343 
L 229.254749 162.432 
L 226.752 161.624589 
L 224.064 161.083874 
L 221.376 160.826407 
L 218.688 160.817514 
L 216 161.032712 
L 213.312 161.4561 
L 210.624 162.079274 
L 209.467529 162.432 
L 207.936 162.873975 
L 205.248 163.832127 
L 202.56 164.979796 
L 202.274686 165.12 
L 199.872 166.258674 
L 197.184 167.725165 
L 197.046994 167.808 
L 194.496 169.31988 
L 192.719933 170.496 
L 191.808 171.096659 
L 189.12 173.040332 
L 188.934983 173.184 
L 186.432 175.153807 
L 185.5828 175.872 
L 183.744 177.478001 
L 182.575468 178.56 
L 181.056 180.045761 
L 179.879874 181.248 
L 178.368 182.924915 
L 177.483081 183.936 
L 175.68 186.248941 
L 175.391701 186.624 
L 173.617302 189.312 
L 172.992 190.508618 
L 172.201116 192 
L 171.207691 194.688 
L 170.730843 197.376 
L 170.921714 200.064 
L 172.05554 202.752 
L 172.992 203.822727 
L 174.702212 205.44 
L 175.68 206.030351 
L 178.368 207.326065 
L 180.633168 208.128 
L 181.056 208.245585 
z
" clip-path="url(#p9b09f43eab)" style="fill: none; stroke: #6aaed6; stroke-width: 1.5"/>
    <path d="M 189.12 205.767297 
L 191.808 206.080053 
L 194.496 206.21909 
L 197.184 206.207123 
L 199.872 206.060055 
L 202.56 205.788163 
L 204.949833 205.44 
L 205.248 205.393241 
L 207.936 204.848654 
L 210.624 204.190151 
L 213.312 203.414161 
L 215.296121 202.752 
L 216 202.489228 
L 218.688 201.366713 
L 221.376 200.107207 
L 221.460779 200.064 
L 224.064 198.520422 
L 225.83902 197.376 
L 226.752 196.657457 
L 229.112632 194.688 
L 229.44 194.336594 
L 231.541447 192 
L 232.128 191.106604 
L 233.289703 189.312 
L 234.449283 186.624 
L 234.816 185.019628 
L 235.067304 183.936 
L 235.156282 181.248 
L 234.816 179.168841 
L 234.70437 178.56 
L 233.614934 175.872 
L 232.128 173.628414 
L 231.766724 173.184 
L 229.44 171.049774 
L 228.634103 170.496 
L 226.752 169.417578 
L 224.064 168.356721 
L 221.780555 167.808 
L 221.376 167.718845 
L 218.688 167.427432 
L 216 167.422857 
L 213.312 167.673541 
L 212.577322 167.808 
L 210.624 168.153035 
L 207.936 168.841862 
L 205.248 169.733761 
L 203.375867 170.496 
L 202.56 170.823548 
L 199.872 172.095654 
L 197.877526 173.184 
L 197.184 173.565007 
L 194.496 175.225422 
L 193.552143 175.872 
L 191.808 177.102523 
L 189.920214 178.56 
L 189.12 179.212945 
L 186.801806 181.248 
L 186.432 181.60234 
L 184.128711 183.936 
L 183.744 184.379662 
L 181.870273 186.624 
L 181.056 187.800433 
L 180.029541 189.312 
L 178.649167 192 
L 178.368 192.915472 
L 177.815135 194.688 
L 177.672117 197.376 
L 178.368 199.728878 
L 178.483307 200.064 
L 180.885906 202.752 
L 181.056 202.862025 
L 183.744 204.250659 
L 186.432 205.207908 
L 187.378675 205.44 
L 189.12 205.767297 
z
" clip-path="url(#p9b09f43eab)" style="fill: none; stroke: #4191c6; stroke-width: 1.5"/>
    <path d="M 189.12 200.753499 
L 191.808 201.705628 
L 194.496 202.252617 
L 197.184 202.485273 
L 199.872 202.466713 
L 202.56 202.240441 
L 205.248 201.835617 
L 207.936 201.270528 
L 210.624 200.554844 
L 212.147114 200.064 
L 213.312 199.616487 
L 216 198.42727 
L 218.11138 197.376 
L 218.688 197.016441 
L 221.376 195.180108 
L 222.041944 194.688 
L 224.064 192.717151 
L 224.761635 192 
L 226.585557 189.312 
L 226.752 188.884422 
L 227.610947 186.624 
L 227.917242 183.936 
L 227.461844 181.248 
L 226.752 179.74544 
L 226.036473 178.56 
L 224.064 176.608638 
L 222.988882 175.872 
L 221.376 175.040619 
L 218.688 174.187352 
L 216 173.796917 
L 213.312 173.780508 
L 210.624 174.076399 
L 207.936 174.642976 
L 205.248 175.454104 
L 204.179711 175.872 
L 202.56 176.525541 
L 199.872 177.832091 
L 198.586426 178.56 
L 197.184 179.403772 
L 194.496 181.226714 
L 194.467716 181.248 
L 191.808 183.449472 
L 191.265375 183.936 
L 189.12 186.159137 
L 188.697224 186.624 
L 186.738528 189.312 
L 186.432 189.931596 
L 185.43555 192 
L 184.893545 194.688 
L 185.41143 197.376 
L 186.432 198.730871 
L 187.796232 200.064 
L 189.12 200.753499 
z
" clip-path="url(#p9b09f43eab)" style="fill: none; stroke: #2070b4; stroke-width: 1.5"/>
    <path d="M 199.872 197.396519 
L 202.56 197.459935 
L 203.437316 197.376 
L 205.248 197.139908 
L 207.936 196.445077 
L 210.624 195.492044 
L 212.438138 194.688 
L 213.312 194.129627 
L 216 192.159447 
L 216.192461 192 
L 218.165051 189.312 
L 218.688 187.384061 
L 218.878438 186.624 
L 218.688 185.787022 
L 218.056831 183.936 
L 216 182.158416 
L 213.758045 181.248 
L 213.312 181.133809 
L 210.624 180.97258 
L 208.095242 181.248 
L 207.936 181.268234 
L 205.248 182.066328 
L 202.56 183.190519 
L 201.163115 183.936 
L 199.872 184.780184 
L 197.446553 186.624 
L 197.184 186.903459 
L 195.1625 189.312 
L 194.496 190.831306 
L 194.021872 192 
L 194.418594 194.688 
L 194.496 194.77387 
L 197.184 196.633983 
L 199.739797 197.376 
L 199.872 197.396519 
z
" clip-path="url(#p9b09f43eab)" style="fill: none; stroke: #08509b; stroke-width: 1.5"/>
    <path clip-path="url(#p9b09f43eab)" style="fill: none; stroke: #08306b; stroke-width: 1.5"/>
   </g>
   <g id="line2d_15">
    <path d="M 103.104 142.821936 
L 251.189121 142.821936 
L 251.189121 307.584 
L 369.216 307.584 
" clip-path="url(#p9b09f43eab)" style="fill: none; stroke: #000000; stroke-width: 1.5; stroke-linecap: square"/>
   </g>
   <g id="line2d_16">
    <defs>
     <path id="mc10dc61684" d="M 0 3 
C 0.795609 3 1.55874 2.683901 2.12132 2.12132 
C 2.683901 1.55874 3 0.795609 3 0 
C 3 -0.795609 2.683901 -1.55874 2.12132 -2.12132 
C 1.55874 -2.683901 0.795609 -3 0 -3 
C -0.795609 -3 -1.55874 -2.683901 -2.12132 -2.12132 
C -2.683901 -1.55874 -3 -0.795609 -3 0 
C -3 0.795609 -2.683901 1.55874 -2.12132 2.12132 
C -1.55874 2.683901 -0.795609 3 0 3 
z
" style="stroke: #ff0000"/>
    </defs>
    <g clip-path="url(#p9b09f43eab)">
     <use xlink:href="#mc10dc61684" x="251.189121" y="142.821936" style="fill: #ff0000; stroke: #ff0000"/>
    </g>
   </g>
   <g id="patch_3">
    <path d="M 103.104 307.584 
L 103.104 41.472 
" style="fill: none; stroke: #000000; stroke-width: 0.8; stroke-linejoin: miter; stroke-linecap: square"/>
   </g>
   <g id="patch_4">
    <path d="M 369.216 307.584 
L 369.216 41.472 
" style="fill: none; stroke: #000000; stroke-width: 0.8; stroke-linejoin: miter; stroke-linecap: square"/>
   </g>
   <g id="patch_5">
    <path d="M 103.104 307.584 
L 369.216 307.584 
" style="fill: none; stroke: #000000; stroke-width: 0.8; stroke-linejoin: miter; stroke-linecap: square"/>
   </g>
   <g id="patch_6">
    <path d="M 103.104 41.472 
L 369.216 41.472 
" style="fill: none; stroke: #000000; stroke-width: 0.8; stroke-linejoin: miter; stroke-linecap: square"/>
   </g>
   <g id="legend_1">
    <g id="patch_7">
     <path d="M 282.055063 108.1845 
L 362.216 108.1845 
Q 364.216 108.1845 364.216 106.1845 
L 364.216 48.472 
Q 364.216 46.472 362.216 46.472 
L 282.055063 46.472 
Q 280.055063 46.472 280.055063 48.472 
L 280.055063 106.1845 
Q 280.055063 108.1845 282.055063 108.1845 
z
" style="fill: #ffffff; opacity: 0.8; stroke: #cccccc; stroke-linejoin: miter"/>
    </g>
    <g id="PathCollection_2">
     <path d="M 294.055063 57.026576 
C 294.474385 57.026576 294.87659 56.859978 295.173096 56.563471 
C 295.469603 56.266965 295.636201 55.86476 295.636201 55.445438 
C 295.636201 55.026115 295.469603 54.62391 295.173096 54.327404 
C 294.87659 54.030897 294.474385 53.864299 294.055063 53.864299 
C 293.63574 53.864299 293.233535 54.030897 292.937029 54.327404 
C 292.640522 54.62391 292.473924 55.026115 292.473924 55.445438 
C 292.473924 55.86476 292.640522 56.266965 292.937029 56.563471 
C 293.233535 56.859978 293.63574 57.026576 294.055063 57.026576 
L 294.055063 57.026576 
z
" style="fill: none; stroke: #a9a9a9"/>
    </g>
    <g id="text_17">
     <!-- Data -->
     <g transform="translate(312.055063 58.070438) scale(0.1 -0.1)">
      <defs>
       <path id="DejaVuSans-44" d="M 1259 4147 
L 1259 519 
L 2022 519 
Q 2988 519 3436 956 
Q 3884 1394 3884 2338 
Q 3884 3275 3436 3711 
Q 2988 4147 2022 4147 
L 1259 4147 
z
M 628 4666 
L 1925 4666 
Q 3281 4666 3915 4102 
Q 4550 3538 4550 2338 
Q 4550 1131 3912 565 
Q 3275 0 1925 0 
L 628 0 
L 628 4666 
z
" transform="scale(0.015625)"/>
       <path id="DejaVuSans-61" d="M 2194 1759 
Q 1497 1759 1228 1600 
Q 959 1441 959 1056 
Q 959 750 1161 570 
Q 1363 391 1709 391 
Q 2188 391 2477 730 
Q 2766 1069 2766 1631 
L 2766 1759 
L 2194 1759 
z
M 3341 1997 
L 3341 0 
L 2766 0 
L 2766 531 
Q 2569 213 2275 61 
Q 1981 -91 1556 -91 
Q 1019 -91 701 211 
Q 384 513 384 1019 
Q 384 1609 779 1909 
Q 1175 2209 1959 2209 
L 2766 2209 
L 2766 2266 
Q 2766 2663 2505 2880 
Q 2244 3097 1772 3097 
Q 1472 3097 1187 3025 
Q 903 2953 641 2809 
L 641 3341 
Q 956 3463 1253 3523 
Q 1550 3584 1831 3584 
Q 2591 3584 2966 3190 
Q 3341 2797 3341 1997 
z
" transform="scale(0.015625)"/>
       <path id="DejaVuSans-74" d="M 1172 4494 
L 1172 3500 
L 2356 3500 
L 2356 3053 
L 1172 3053 
L 1172 1153 
Q 1172 725 1289 603 
Q 1406 481 1766 481 
L 2356 481 
L 2356 0 
L 1766 0 
Q 1100 0 847 248 
Q 594 497 594 1153 
L 594 3053 
L 172 3053 
L 172 3500 
L 594 3500 
L 594 4494 
L 1172 4494 
z
" transform="scale(0.015625)"/>
      </defs>
      <use xlink:href="#DejaVuSans-44"/>
      <use xlink:href="#DejaVuSans-61" x="77.001953"/>
      <use xlink:href="#DejaVuSans-74" x="138.28125"/>
      <use xlink:href="#DejaVuSans-61" x="177.490234"/>
     </g>
    </g>
    <g id="line2d_17">
     <path d="M 284.055063 69.248563 
L 294.055063 69.248563 
L 304.055063 69.248563 
" style="fill: none; stroke: #000000; stroke-width: 1.5; stroke-linecap: square"/>
    </g>
    <g id="text_18">
     <!-- Boundary -->
     <g transform="translate(312.055063 72.748563) scale(0.1 -0.1)">
      <defs>
       <path id="DejaVuSans-42" d="M 1259 2228 
L 1259 519 
L 2272 519 
Q 2781 519 3026 730 
Q 3272 941 3272 1375 
Q 3272 1813 3026 2020 
Q 2781 2228 2272 2228 
L 1259 2228 
z
M 1259 4147 
L 1259 2741 
L 2194 2741 
Q 2656 2741 2882 2914 
Q 3109 3088 3109 3444 
Q 3109 3797 2882 3972 
Q 2656 4147 2194 4147 
L 1259 4147 
z
M 628 4666 
L 2241 4666 
Q 2963 4666 3353 4366 
Q 3744 4066 3744 3513 
Q 3744 3084 3544 2831 
Q 3344 2578 2956 2516 
Q 3422 2416 3680 2098 
Q 3938 1781 3938 1306 
Q 3938 681 3513 340 
Q 3088 0 2303 0 
L 628 0 
L 628 4666 
z
" transform="scale(0.015625)"/>
       <path id="DejaVuSans-6f" d="M 1959 3097 
Q 1497 3097 1228 2736 
Q 959 2375 959 1747 
Q 959 1119 1226 758 
Q 1494 397 1959 397 
Q 2419 397 2687 759 
Q 2956 1122 2956 1747 
Q 2956 2369 2687 2733 
Q 2419 3097 1959 3097 
z
M 1959 3584 
Q 2709 3584 3137 3096 
Q 3566 2609 3566 1747 
Q 3566 888 3137 398 
Q 2709 -91 1959 -91 
Q 1206 -91 779 398 
Q 353 888 353 1747 
Q 353 2609 779 3096 
Q 1206 3584 1959 3584 
z
" transform="scale(0.015625)"/>
       <path id="DejaVuSans-75" d="M 544 1381 
L 544 3500 
L 1119 3500 
L 1119 1403 
Q 1119 906 1312 657 
Q 1506 409 1894 409 
Q 2359 409 2629 706 
Q 2900 1003 2900 1516 
L 2900 3500 
L 3475 3500 
L 3475 0 
L 2900 0 
L 2900 538 
Q 2691 219 2414 64 
Q 2138 -91 1772 -91 
Q 1169 -91 856 284 
Q 544 659 544 1381 
z
M 1991 3584 
L 1991 3584 
z
" transform="scale(0.015625)"/>
       <path id="DejaVuSans-6e" d="M 3513 2113 
L 3513 0 
L 2938 0 
L 2938 2094 
Q 2938 2591 2744 2837 
Q 2550 3084 2163 3084 
Q 1697 3084 1428 2787 
Q 1159 2491 1159 1978 
L 1159 0 
L 581 0 
L 581 3500 
L 1159 3500 
L 1159 2956 
Q 1366 3272 1645 3428 
Q 1925 3584 2291 3584 
Q 2894 3584 3203 3211 
Q 3513 2838 3513 2113 
z
" transform="scale(0.015625)"/>
       <path id="DejaVuSans-64" d="M 2906 2969 
L 2906 4863 
L 3481 4863 
L 3481 0 
L 2906 0 
L 2906 525 
Q 2725 213 2448 61 
Q 2172 -91 1784 -91 
Q 1150 -91 751 415 
Q 353 922 353 1747 
Q 353 2572 751 3078 
Q 1150 3584 1784 3584 
Q 2172 3584 2448 3432 
Q 2725 3281 2906 2969 
z
M 947 1747 
Q 947 1113 1208 752 
Q 1469 391 1925 391 
Q 2381 391 2643 752 
Q 2906 1113 2906 1747 
Q 2906 2381 2643 2742 
Q 2381 3103 1925 3103 
Q 1469 3103 1208 2742 
Q 947 2381 947 1747 
z
" transform="scale(0.015625)"/>
       <path id="DejaVuSans-72" d="M 2631 2963 
Q 2534 3019 2420 3045 
Q 2306 3072 2169 3072 
Q 1681 3072 1420 2755 
Q 1159 2438 1159 1844 
L 1159 0 
L 581 0 
L 581 3500 
L 1159 3500 
L 1159 2956 
Q 1341 3275 1631 3429 
Q 1922 3584 2338 3584 
Q 2397 3584 2469 3576 
Q 2541 3569 2628 3553 
L 2631 2963 
z
" transform="scale(0.015625)"/>
       <path id="DejaVuSans-79" d="M 2059 -325 
Q 1816 -950 1584 -1140 
Q 1353 -1331 966 -1331 
L 506 -1331 
L 506 -850 
L 844 -850 
Q 1081 -850 1212 -737 
Q 1344 -625 1503 -206 
L 1606 56 
L 191 3500 
L 800 3500 
L 1894 763 
L 2988 3500 
L 3597 3500 
L 2059 -325 
z
" transform="scale(0.015625)"/>
      </defs>
      <use xlink:href="#DejaVuSans-42"/>
      <use xlink:href="#DejaVuSans-6f" x="68.603516"/>
      <use xlink:href="#DejaVuSans-75" x="129.785156"/>
      <use xlink:href="#DejaVuSans-6e" x="193.164062"/>
      <use xlink:href="#DejaVuSans-64" x="256.542969"/>
      <use xlink:href="#DejaVuSans-61" x="320.019531"/>
      <use xlink:href="#DejaVuSans-72" x="381.298828"/>
      <use xlink:href="#DejaVuSans-79" x="422.412109"/>
     </g>
    </g>
    <g id="patch_8">
     <path d="M 284.055063 87.426688 
L 304.055063 87.426688 
L 304.055063 80.426688 
L 284.055063 80.426688 
z
" style="fill: #808080; stroke: #808080; stroke-linejoin: miter"/>
    </g>
    <g id="text_19">
     <!-- Region -->
     <g transform="translate(312.055063 87.426688) scale(0.1 -0.1)">
      <defs>
       <path id="DejaVuSans-52" d="M 2841 2188 
Q 3044 2119 3236 1894 
Q 3428 1669 3622 1275 
L 4263 0 
L 3584 0 
L 2988 1197 
Q 2756 1666 2539 1819 
Q 2322 1972 1947 1972 
L 1259 1972 
L 1259 0 
L 628 0 
L 628 4666 
L 2053 4666 
Q 2853 4666 3247 4331 
Q 3641 3997 3641 3322 
Q 3641 2881 3436 2590 
Q 3231 2300 2841 2188 
z
M 1259 4147 
L 1259 2491 
L 2053 2491 
Q 2509 2491 2742 2702 
Q 2975 2913 2975 3322 
Q 2975 3731 2742 3939 
Q 2509 4147 2053 4147 
L 1259 4147 
z
" transform="scale(0.015625)"/>
       <path id="DejaVuSans-65" d="M 3597 1894 
L 3597 1613 
L 953 1613 
Q 991 1019 1311 708 
Q 1631 397 2203 397 
Q 2534 397 2845 478 
Q 3156 559 3463 722 
L 3463 178 
Q 3153 47 2828 -22 
Q 2503 -91 2169 -91 
Q 1331 -91 842 396 
Q 353 884 353 1716 
Q 353 2575 817 3079 
Q 1281 3584 2069 3584 
Q 2775 3584 3186 3129 
Q 3597 2675 3597 1894 
z
M 3022 2063 
Q 3016 2534 2758 2815 
Q 2500 3097 2075 3097 
Q 1594 3097 1305 2825 
Q 1016 2553 972 2059 
L 3022 2063 
z
" transform="scale(0.015625)"/>
       <path id="DejaVuSans-67" d="M 2906 1791 
Q 2906 2416 2648 2759 
Q 2391 3103 1925 3103 
Q 1463 3103 1205 2759 
Q 947 2416 947 1791 
Q 947 1169 1205 825 
Q 1463 481 1925 481 
Q 2391 481 2648 825 
Q 2906 1169 2906 1791 
z
M 3481 434 
Q 3481 -459 3084 -895 
Q 2688 -1331 1869 -1331 
Q 1566 -1331 1297 -1286 
Q 1028 -1241 775 -1147 
L 775 -588 
Q 1028 -725 1275 -790 
Q 1522 -856 1778 -856 
Q 2344 -856 2625 -561 
Q 2906 -266 2906 331 
L 2906 616 
Q 2728 306 2450 153 
Q 2172 0 1784 0 
Q 1141 0 747 490 
Q 353 981 353 1791 
Q 353 2603 747 3093 
Q 1141 3584 1784 3584 
Q 2172 3584 2450 3431 
Q 2728 3278 2906 2969 
L 2906 3500 
L 3481 3500 
L 3481 434 
z
" transform="scale(0.015625)"/>
       <path id="DejaVuSans-69" d="M 603 3500 
L 1178 3500 
L 1178 0 
L 603 0 
L 603 3500 
z
M 603 4863 
L 1178 4863 
L 1178 4134 
L 603 4134 
L 603 4863 
z
" transform="scale(0.015625)"/>
      </defs>
      <use xlink:href="#DejaVuSans-52"/>
      <use xlink:href="#DejaVuSans-65" x="64.982422"/>
      <use xlink:href="#DejaVuSans-67" x="126.505859"/>
      <use xlink:href="#DejaVuSans-69" x="189.982422"/>
      <use xlink:href="#DejaVuSans-6f" x="217.765625"/>
      <use xlink:href="#DejaVuSans-6e" x="278.947266"/>
     </g>
    </g>
    <g id="line2d_18">
     <g>
      <use xlink:href="#mc10dc61684" x="294.055063" y="98.604813" style="fill: #ff0000; stroke: #ff0000"/>
     </g>
    </g>
    <g id="text_20">
     <!--  Case -->
     <g transform="translate(312.055063 102.104813) scale(0.1 -0.1)">
      <defs>
       <path id="DejaVuSans-20" transform="scale(0.015625)"/>
       <path id="DejaVuSans-43" d="M 4122 4306 
L 4122 3641 
Q 3803 3938 3442 4084 
Q 3081 4231 2675 4231 
Q 1875 4231 1450 3742 
Q 1025 3253 1025 2328 
Q 1025 1406 1450 917 
Q 1875 428 2675 428 
Q 3081 428 3442 575 
Q 3803 722 4122 1019 
L 4122 359 
Q 3791 134 3420 21 
Q 3050 -91 2638 -91 
Q 1578 -91 968 557 
Q 359 1206 359 2328 
Q 359 3453 968 4101 
Q 1578 4750 2638 4750 
Q 3056 4750 3426 4639 
Q 3797 4528 4122 4306 
z
" transform="scale(0.015625)"/>
       <path id="DejaVuSans-73" d="M 2834 3397 
L 2834 2853 
Q 2591 2978 2328 3040 
Q 2066 3103 1784 3103 
Q 1356 3103 1142 2972 
Q 928 2841 928 2578 
Q 928 2378 1081 2264 
Q 1234 2150 1697 2047 
L 1894 2003 
Q 2506 1872 2764 1633 
Q 3022 1394 3022 966 
Q 3022 478 2636 193 
Q 2250 -91 1575 -91 
Q 1294 -91 989 -36 
Q 684 19 347 128 
L 347 722 
Q 666 556 975 473 
Q 1284 391 1588 391 
Q 1994 391 2212 530 
Q 2431 669 2431 922 
Q 2431 1156 2273 1281 
Q 2116 1406 1581 1522 
L 1381 1569 
Q 847 1681 609 1914 
Q 372 2147 372 2553 
Q 372 3047 722 3315 
Q 1072 3584 1716 3584 
Q 2034 3584 2315 3537 
Q 2597 3491 2834 3397 
z
" transform="scale(0.015625)"/>
      </defs>
      <use xlink:href="#DejaVuSans-20"/>
      <use xlink:href="#DejaVuSans-43" x="31.787109"/>
      <use xlink:href="#DejaVuSans-61" x="101.611328"/>
      <use xlink:href="#DejaVuSans-73" x="162.890625"/>
      <use xlink:href="#DejaVuSans-65" x="214.990234"/>
     </g>
    </g>
   </g>
  </g>
 </g>
 <defs>
  <clipPath id="p9b09f43eab">
   <rect x="103.104" y="41.472" width="266.112" height="266.112"/>
  </clipPath>
 </defs>
</svg>
