<?xml version="1.0" encoding="utf-8" standalone="no"?>
<!DOCTYPE svg PUBLIC "-//W3C//DTD SVG 1.1//EN"
  "http://www.w3.org/Graphics/SVG/1.1/DTD/svg11.dtd">
<svg xmlns:xlink="http://www.w3.org/1999/xlink" width="576pt" height="360pt" viewBox="0 0 576 360" xmlns="http://www.w3.org/2000/svg" version="1.1">
 <metadata>
  <rdf:RDF xmlns:dc="http://purl.org/dc/elements/1.1/" xmlns:cc="http://creativecommons.org/ns#" xmlns:rdf="http://www.w3.org/1999/02/22-rdf-syntax-ns#">
   <cc:Work>
    <dc:type rdf:resource="http://purl.org/dc/dcmitype/StillImage"/>
    <dc:date>2024-10-24T22:33:59.805922</dc:date>
    <dc:format>image/svg+xml</dc:format>
    <dc:creator>
     <cc:Agent>
      <dc:title>Matplotlib v3.9.2, https://matplotlib.org/</dc:title>
     </cc:Agent>
    </dc:creator>
   </cc:Work>
  </rdf:RDF>
 </metadata>
 <defs>
  <style type="text/css">*{stroke-linejoin: round; stroke-linecap: butt}</style>
 </defs>
 <g id="figure_1">
  <g id="patch_1">
   <path d="M 0 360 
L 576 360 
L 576 0 
L 0 0 
z
" style="fill: #ffffff"/>
  </g>
  <g id="axes_1">
   <g id="patch_2">
    <path d="M 72 320.4 
L 518.4 320.4 
L 518.4 43.2 
L 72 43.2 
z
" style="fill: #ffffff"/>
   </g>
   <g id="matplotlib.axis_1">
    <g id="xtick_1">
     <g id="line2d_1">
      <path d="M 102.508205 320.4 
L 102.508205 43.2 
" clip-path="url(#p6297019cee)" style="fill: none; stroke: #b0b0b0; stroke-width: 0.8; stroke-linecap: square"/>
     </g>
     <g id="line2d_2">
      <defs>
       <path id="m8aa4fa762a" d="M 0 0 
L 0 3.5 
" style="stroke: #000000; stroke-width: 0.8"/>
      </defs>
      <g>
       <use xlink:href="#m8aa4fa762a" x="102.508205" y="320.4" style="stroke: #000000; stroke-width: 0.8"/>
      </g>
     </g>
     <g id="text_1">
      <!-- 0 -->
      <g transform="translate(99.326955 334.998438) scale(0.1 -0.1)">
       <defs>
        <path id="DejaVuSans-30" d="M 2034 4250 
Q 1547 4250 1301 3770 
Q 1056 3291 1056 2328 
Q 1056 1369 1301 889 
Q 1547 409 2034 409 
Q 2525 409 2770 889 
Q 3016 1369 3016 2328 
Q 3016 3291 2770 3770 
Q 2525 4250 2034 4250 
z
M 2034 4750 
Q 2819 4750 3233 4129 
Q 3647 3509 3647 2328 
Q 3647 1150 3233 529 
Q 2819 -91 2034 -91 
Q 1250 -91 836 529 
Q 422 1150 422 2328 
Q 422 3509 836 4129 
Q 1250 4750 2034 4750 
z
" transform="scale(0.015625)"/>
       </defs>
       <use xlink:href="#DejaVuSans-30"/>
      </g>
     </g>
    </g>
    <g id="xtick_2">
     <g id="line2d_3">
      <path d="M 200.607696 320.4 
L 200.607696 43.2 
" clip-path="url(#p6297019cee)" style="fill: none; stroke: #b0b0b0; stroke-width: 0.8; stroke-linecap: square"/>
     </g>
     <g id="line2d_4">
      <g>
       <use xlink:href="#m8aa4fa762a" x="200.607696" y="320.4" style="stroke: #000000; stroke-width: 0.8"/>
      </g>
     </g>
     <g id="text_2">
      <!-- 2 -->
      <g transform="translate(197.426446 334.998438) scale(0.1 -0.1)">
       <defs>
        <path id="DejaVuSans-32" d="M 1228 531 
L 3431 531 
L 3431 0 
L 469 0 
L 469 531 
Q 828 903 1448 1529 
Q 2069 2156 2228 2338 
Q 2531 2678 2651 2914 
Q 2772 3150 2772 3378 
Q 2772 3750 2511 3984 
Q 2250 4219 1831 4219 
Q 1534 4219 1204 4116 
Q 875 4013 500 3803 
L 500 4441 
Q 881 4594 1212 4672 
Q 1544 4750 1819 4750 
Q 2544 4750 2975 4387 
Q 3406 4025 3406 3419 
Q 3406 3131 3298 2873 
Q 3191 2616 2906 2266 
Q 2828 2175 2409 1742 
Q 1991 1309 1228 531 
z
" transform="scale(0.015625)"/>
       </defs>
       <use xlink:href="#DejaVuSans-32"/>
      </g>
     </g>
    </g>
    <g id="xtick_3">
     <g id="line2d_5">
      <path d="M 298.707188 320.4 
L 298.707188 43.2 
" clip-path="url(#p6297019cee)" style="fill: none; stroke: #b0b0b0; stroke-width: 0.8; stroke-linecap: square"/>
     </g>
     <g id="line2d_6">
      <g>
       <use xlink:href="#m8aa4fa762a" x="298.707188" y="320.4" style="stroke: #000000; stroke-width: 0.8"/>
      </g>
     </g>
     <g id="text_3">
      <!-- 4 -->
      <g transform="translate(295.525938 334.998438) scale(0.1 -0.1)">
       <defs>
        <path id="DejaVuSans-34" d="M 2419 4116 
L 825 1625 
L 2419 1625 
L 2419 4116 
z
M 2253 4666 
L 3047 4666 
L 3047 1625 
L 3713 1625 
L 3713 1100 
L 3047 1100 
L 3047 0 
L 2419 0 
L 2419 1100 
L 313 1100 
L 313 1709 
L 2253 4666 
z
" transform="scale(0.015625)"/>
       </defs>
       <use xlink:href="#DejaVuSans-34"/>
      </g>
     </g>
    </g>
    <g id="xtick_4">
     <g id="line2d_7">
      <path d="M 396.80668 320.4 
L 396.80668 43.2 
" clip-path="url(#p6297019cee)" style="fill: none; stroke: #b0b0b0; stroke-width: 0.8; stroke-linecap: square"/>
     </g>
     <g id="line2d_8">
      <g>
       <use xlink:href="#m8aa4fa762a" x="396.80668" y="320.4" style="stroke: #000000; stroke-width: 0.8"/>
      </g>
     </g>
     <g id="text_4">
      <!-- 6 -->
      <g transform="translate(393.62543 334.998438) scale(0.1 -0.1)">
       <defs>
        <path id="DejaVuSans-36" d="M 2113 2584 
Q 1688 2584 1439 2293 
Q 1191 2003 1191 1497 
Q 1191 994 1439 701 
Q 1688 409 2113 409 
Q 2538 409 2786 701 
Q 3034 994 3034 1497 
Q 3034 2003 2786 2293 
Q 2538 2584 2113 2584 
z
M 3366 4563 
L 3366 3988 
Q 3128 4100 2886 4159 
Q 2644 4219 2406 4219 
Q 1781 4219 1451 3797 
Q 1122 3375 1075 2522 
Q 1259 2794 1537 2939 
Q 1816 3084 2150 3084 
Q 2853 3084 3261 2657 
Q 3669 2231 3669 1497 
Q 3669 778 3244 343 
Q 2819 -91 2113 -91 
Q 1303 -91 875 529 
Q 447 1150 447 2328 
Q 447 3434 972 4092 
Q 1497 4750 2381 4750 
Q 2619 4750 2861 4703 
Q 3103 4656 3366 4563 
z
" transform="scale(0.015625)"/>
       </defs>
       <use xlink:href="#DejaVuSans-36"/>
      </g>
     </g>
    </g>
    <g id="xtick_5">
     <g id="line2d_9">
      <path d="M 494.906172 320.4 
L 494.906172 43.2 
" clip-path="url(#p6297019cee)" style="fill: none; stroke: #b0b0b0; stroke-width: 0.8; stroke-linecap: square"/>
     </g>
     <g id="line2d_10">
      <g>
       <use xlink:href="#m8aa4fa762a" x="494.906172" y="320.4" style="stroke: #000000; stroke-width: 0.8"/>
      </g>
     </g>
     <g id="text_5">
      <!-- 8 -->
      <g transform="translate(491.724922 334.998438) scale(0.1 -0.1)">
       <defs>
        <path id="DejaVuSans-38" d="M 2034 2216 
Q 1584 2216 1326 1975 
Q 1069 1734 1069 1313 
Q 1069 891 1326 650 
Q 1584 409 2034 409 
Q 2484 409 2743 651 
Q 3003 894 3003 1313 
Q 3003 1734 2745 1975 
Q 2488 2216 2034 2216 
z
M 1403 2484 
Q 997 2584 770 2862 
Q 544 3141 544 3541 
Q 544 4100 942 4425 
Q 1341 4750 2034 4750 
Q 2731 4750 3128 4425 
Q 3525 4100 3525 3541 
Q 3525 3141 3298 2862 
Q 3072 2584 2669 2484 
Q 3125 2378 3379 2068 
Q 3634 1759 3634 1313 
Q 3634 634 3220 271 
Q 2806 -91 2034 -91 
Q 1263 -91 848 271 
Q 434 634 434 1313 
Q 434 1759 690 2068 
Q 947 2378 1403 2484 
z
M 1172 3481 
Q 1172 3119 1398 2916 
Q 1625 2713 2034 2713 
Q 2441 2713 2670 2916 
Q 2900 3119 2900 3481 
Q 2900 3844 2670 4047 
Q 2441 4250 2034 4250 
Q 1625 4250 1398 4047 
Q 1172 3844 1172 3481 
z
" transform="scale(0.015625)"/>
       </defs>
       <use xlink:href="#DejaVuSans-38"/>
      </g>
     </g>
    </g>
    <g id="text_6">
     <!-- $Z(X_1,X_2)$ -->
     <g transform="translate(273.7 348.676562) scale(0.1 -0.1)">
      <defs>
       <path id="DejaVuSans-Oblique-5a" d="M 838 4666 
L 4500 4666 
L 4409 4184 
L 794 531 
L 3769 531 
L 3669 0 
L -141 0 
L -50 481 
L 3566 4134 
L 738 4134 
L 838 4666 
z
" transform="scale(0.015625)"/>
       <path id="DejaVuSans-28" d="M 1984 4856 
Q 1566 4138 1362 3434 
Q 1159 2731 1159 2009 
Q 1159 1288 1364 580 
Q 1569 -128 1984 -844 
L 1484 -844 
Q 1016 -109 783 600 
Q 550 1309 550 2009 
Q 550 2706 781 3412 
Q 1013 4119 1484 4856 
L 1984 4856 
z
" transform="scale(0.015625)"/>
       <path id="DejaVuSans-Oblique-58" d="M 878 4666 
L 1516 4666 
L 2316 2981 
L 3763 4666 
L 4500 4666 
L 2578 2438 
L 3738 0 
L 3103 0 
L 2163 1966 
L 459 0 
L -275 0 
L 1906 2509 
L 878 4666 
z
" transform="scale(0.015625)"/>
       <path id="DejaVuSans-31" d="M 794 531 
L 1825 531 
L 1825 4091 
L 703 3866 
L 703 4441 
L 1819 4666 
L 2450 4666 
L 2450 531 
L 3481 531 
L 3481 0 
L 794 0 
L 794 531 
z
" transform="scale(0.015625)"/>
       <path id="DejaVuSans-2c" d="M 750 794 
L 1409 794 
L 1409 256 
L 897 -744 
L 494 -744 
L 750 256 
L 750 794 
z
" transform="scale(0.015625)"/>
       <path id="DejaVuSans-29" d="M 513 4856 
L 1013 4856 
Q 1481 4119 1714 3412 
Q 1947 2706 1947 2009 
Q 1947 1309 1714 600 
Q 1481 -109 1013 -844 
L 513 -844 
Q 928 -128 1133 580 
Q 1338 1288 1338 2009 
Q 1338 2731 1133 3434 
Q 928 4138 513 4856 
z
" transform="scale(0.015625)"/>
      </defs>
      <use xlink:href="#DejaVuSans-Oblique-5a" transform="translate(0 0.125)"/>
      <use xlink:href="#DejaVuSans-28" transform="translate(68.505859 0.125)"/>
      <use xlink:href="#DejaVuSans-Oblique-58" transform="translate(107.519531 0.125)"/>
      <use xlink:href="#DejaVuSans-31" transform="translate(176.025391 -16.28125) scale(0.7)"/>
      <use xlink:href="#DejaVuSans-2c" transform="translate(223.295898 0.125)"/>
      <use xlink:href="#DejaVuSans-Oblique-58" transform="translate(274.56543 0.125)"/>
      <use xlink:href="#DejaVuSans-32" transform="translate(343.071289 -16.28125) scale(0.7)"/>
      <use xlink:href="#DejaVuSans-29" transform="translate(390.341797 0.125)"/>
     </g>
    </g>
   </g>
   <g id="matplotlib.axis_2">
    <g id="ytick_1">
     <g id="line2d_11">
      <path d="M 72 318.808888 
L 518.4 318.808888 
" clip-path="url(#p6297019cee)" style="fill: none; stroke: #b0b0b0; stroke-width: 0.8; stroke-linecap: square"/>
     </g>
     <g id="line2d_12">
      <defs>
       <path id="me16ca3c848" d="M 0 0 
L -3.5 0 
" style="stroke: #000000; stroke-width: 0.8"/>
      </defs>
      <g>
       <use xlink:href="#me16ca3c848" x="72" y="318.808888" style="stroke: #000000; stroke-width: 0.8"/>
      </g>
     </g>
     <g id="text_7">
      <!-- $\mathdefault{10^{-4}}$ -->
      <g transform="translate(41.5 322.608107) scale(0.1 -0.1)">
       <defs>
        <path id="DejaVuSans-2212" d="M 678 2272 
L 4684 2272 
L 4684 1741 
L 678 1741 
L 678 2272 
z
" transform="scale(0.015625)"/>
       </defs>
       <use xlink:href="#DejaVuSans-31" transform="translate(0 0.684375)"/>
       <use xlink:href="#DejaVuSans-30" transform="translate(63.623047 0.684375)"/>
       <use xlink:href="#DejaVuSans-2212" transform="translate(128.203125 38.965625) scale(0.7)"/>
       <use xlink:href="#DejaVuSans-34" transform="translate(186.855469 38.965625) scale(0.7)"/>
      </g>
     </g>
    </g>
    <g id="ytick_2">
     <g id="line2d_13">
      <path d="M 72 253.055616 
L 518.4 253.055616 
" clip-path="url(#p6297019cee)" style="fill: none; stroke: #b0b0b0; stroke-width: 0.8; stroke-linecap: square"/>
     </g>
     <g id="line2d_14">
      <g>
       <use xlink:href="#me16ca3c848" x="72" y="253.055616" style="stroke: #000000; stroke-width: 0.8"/>
      </g>
     </g>
     <g id="text_8">
      <!-- $\mathdefault{10^{-3}}$ -->
      <g transform="translate(41.5 256.854835) scale(0.1 -0.1)">
       <defs>
        <path id="DejaVuSans-33" d="M 2597 2516 
Q 3050 2419 3304 2112 
Q 3559 1806 3559 1356 
Q 3559 666 3084 287 
Q 2609 -91 1734 -91 
Q 1441 -91 1130 -33 
Q 819 25 488 141 
L 488 750 
Q 750 597 1062 519 
Q 1375 441 1716 441 
Q 2309 441 2620 675 
Q 2931 909 2931 1356 
Q 2931 1769 2642 2001 
Q 2353 2234 1838 2234 
L 1294 2234 
L 1294 2753 
L 1863 2753 
Q 2328 2753 2575 2939 
Q 2822 3125 2822 3475 
Q 2822 3834 2567 4026 
Q 2313 4219 1838 4219 
Q 1578 4219 1281 4162 
Q 984 4106 628 3988 
L 628 4550 
Q 988 4650 1302 4700 
Q 1616 4750 1894 4750 
Q 2613 4750 3031 4423 
Q 3450 4097 3450 3541 
Q 3450 3153 3228 2886 
Q 3006 2619 2597 2516 
z
" transform="scale(0.015625)"/>
       </defs>
       <use xlink:href="#DejaVuSans-31" transform="translate(0 0.765625)"/>
       <use xlink:href="#DejaVuSans-30" transform="translate(63.623047 0.765625)"/>
       <use xlink:href="#DejaVuSans-2212" transform="translate(128.203125 39.046875) scale(0.7)"/>
       <use xlink:href="#DejaVuSans-33" transform="translate(186.855469 39.046875) scale(0.7)"/>
      </g>
     </g>
    </g>
    <g id="ytick_3">
     <g id="line2d_15">
      <path d="M 72 187.302344 
L 518.4 187.302344 
" clip-path="url(#p6297019cee)" style="fill: none; stroke: #b0b0b0; stroke-width: 0.8; stroke-linecap: square"/>
     </g>
     <g id="line2d_16">
      <g>
       <use xlink:href="#me16ca3c848" x="72" y="187.302344" style="stroke: #000000; stroke-width: 0.8"/>
      </g>
     </g>
     <g id="text_9">
      <!-- $\mathdefault{10^{-2}}$ -->
      <g transform="translate(41.5 191.101563) scale(0.1 -0.1)">
       <use xlink:href="#DejaVuSans-31" transform="translate(0 0.765625)"/>
       <use xlink:href="#DejaVuSans-30" transform="translate(63.623047 0.765625)"/>
       <use xlink:href="#DejaVuSans-2212" transform="translate(128.203125 39.046875) scale(0.7)"/>
       <use xlink:href="#DejaVuSans-32" transform="translate(186.855469 39.046875) scale(0.7)"/>
      </g>
     </g>
    </g>
    <g id="ytick_4">
     <g id="line2d_17">
      <path d="M 72 121.549073 
L 518.4 121.549073 
" clip-path="url(#p6297019cee)" style="fill: none; stroke: #b0b0b0; stroke-width: 0.8; stroke-linecap: square"/>
     </g>
     <g id="line2d_18">
      <g>
       <use xlink:href="#me16ca3c848" x="72" y="121.549073" style="stroke: #000000; stroke-width: 0.8"/>
      </g>
     </g>
     <g id="text_10">
      <!-- $\mathdefault{10^{-1}}$ -->
      <g transform="translate(41.5 125.348291) scale(0.1 -0.1)">
       <use xlink:href="#DejaVuSans-31" transform="translate(0 0.684375)"/>
       <use xlink:href="#DejaVuSans-30" transform="translate(63.623047 0.684375)"/>
       <use xlink:href="#DejaVuSans-2212" transform="translate(128.203125 38.965625) scale(0.7)"/>
       <use xlink:href="#DejaVuSans-31" transform="translate(186.855469 38.965625) scale(0.7)"/>
      </g>
     </g>
    </g>
    <g id="ytick_5">
     <g id="line2d_19">
      <path d="M 72 55.795801 
L 518.4 55.795801 
" clip-path="url(#p6297019cee)" style="fill: none; stroke: #b0b0b0; stroke-width: 0.8; stroke-linecap: square"/>
     </g>
     <g id="line2d_20">
      <g>
       <use xlink:href="#me16ca3c848" x="72" y="55.795801" style="stroke: #000000; stroke-width: 0.8"/>
      </g>
     </g>
     <g id="text_11">
      <!-- $\mathdefault{10^{0}}$ -->
      <g transform="translate(47.4 59.59502) scale(0.1 -0.1)">
       <use xlink:href="#DejaVuSans-31" transform="translate(0 0.765625)"/>
       <use xlink:href="#DejaVuSans-30" transform="translate(63.623047 0.765625)"/>
       <use xlink:href="#DejaVuSans-30" transform="translate(128.203125 39.046875) scale(0.7)"/>
      </g>
     </g>
    </g>
    <g id="ytick_6">
     <g id="line2d_21">
      <defs>
       <path id="mb9fca2c9c1" d="M 0 0 
L -2 0 
" style="stroke: #000000; stroke-width: 0.6"/>
      </defs>
      <g>
       <use xlink:href="#mb9fca2c9c1" x="72" y="299.015181" style="stroke: #000000; stroke-width: 0.6"/>
      </g>
     </g>
    </g>
    <g id="ytick_7">
     <g id="line2d_22">
      <g>
       <use xlink:href="#mb9fca2c9c1" x="72" y="287.436604" style="stroke: #000000; stroke-width: 0.6"/>
      </g>
     </g>
    </g>
    <g id="ytick_8">
     <g id="line2d_23">
      <g>
       <use xlink:href="#mb9fca2c9c1" x="72" y="279.221474" style="stroke: #000000; stroke-width: 0.6"/>
      </g>
     </g>
    </g>
    <g id="ytick_9">
     <g id="line2d_24">
      <g>
       <use xlink:href="#mb9fca2c9c1" x="72" y="272.849323" style="stroke: #000000; stroke-width: 0.6"/>
      </g>
     </g>
    </g>
    <g id="ytick_10">
     <g id="line2d_25">
      <g>
       <use xlink:href="#mb9fca2c9c1" x="72" y="267.642897" style="stroke: #000000; stroke-width: 0.6"/>
      </g>
     </g>
    </g>
    <g id="ytick_11">
     <g id="line2d_26">
      <g>
       <use xlink:href="#mb9fca2c9c1" x="72" y="263.240927" style="stroke: #000000; stroke-width: 0.6"/>
      </g>
     </g>
    </g>
    <g id="ytick_12">
     <g id="line2d_27">
      <g>
       <use xlink:href="#mb9fca2c9c1" x="72" y="259.427767" style="stroke: #000000; stroke-width: 0.6"/>
      </g>
     </g>
    </g>
    <g id="ytick_13">
     <g id="line2d_28">
      <g>
       <use xlink:href="#mb9fca2c9c1" x="72" y="256.064321" style="stroke: #000000; stroke-width: 0.6"/>
      </g>
     </g>
    </g>
    <g id="ytick_14">
     <g id="line2d_29">
      <g>
       <use xlink:href="#mb9fca2c9c1" x="72" y="233.261909" style="stroke: #000000; stroke-width: 0.6"/>
      </g>
     </g>
    </g>
    <g id="ytick_15">
     <g id="line2d_30">
      <g>
       <use xlink:href="#mb9fca2c9c1" x="72" y="221.683333" style="stroke: #000000; stroke-width: 0.6"/>
      </g>
     </g>
    </g>
    <g id="ytick_16">
     <g id="line2d_31">
      <g>
       <use xlink:href="#mb9fca2c9c1" x="72" y="213.468202" style="stroke: #000000; stroke-width: 0.6"/>
      </g>
     </g>
    </g>
    <g id="ytick_17">
     <g id="line2d_32">
      <g>
       <use xlink:href="#mb9fca2c9c1" x="72" y="207.096051" style="stroke: #000000; stroke-width: 0.6"/>
      </g>
     </g>
    </g>
    <g id="ytick_18">
     <g id="line2d_33">
      <g>
       <use xlink:href="#mb9fca2c9c1" x="72" y="201.889625" style="stroke: #000000; stroke-width: 0.6"/>
      </g>
     </g>
    </g>
    <g id="ytick_19">
     <g id="line2d_34">
      <g>
       <use xlink:href="#mb9fca2c9c1" x="72" y="197.487655" style="stroke: #000000; stroke-width: 0.6"/>
      </g>
     </g>
    </g>
    <g id="ytick_20">
     <g id="line2d_35">
      <g>
       <use xlink:href="#mb9fca2c9c1" x="72" y="193.674495" style="stroke: #000000; stroke-width: 0.6"/>
      </g>
     </g>
    </g>
    <g id="ytick_21">
     <g id="line2d_36">
      <g>
       <use xlink:href="#mb9fca2c9c1" x="72" y="190.311049" style="stroke: #000000; stroke-width: 0.6"/>
      </g>
     </g>
    </g>
    <g id="ytick_22">
     <g id="line2d_37">
      <g>
       <use xlink:href="#mb9fca2c9c1" x="72" y="167.508637" style="stroke: #000000; stroke-width: 0.6"/>
      </g>
     </g>
    </g>
    <g id="ytick_23">
     <g id="line2d_38">
      <g>
       <use xlink:href="#mb9fca2c9c1" x="72" y="155.930061" style="stroke: #000000; stroke-width: 0.6"/>
      </g>
     </g>
    </g>
    <g id="ytick_24">
     <g id="line2d_39">
      <g>
       <use xlink:href="#mb9fca2c9c1" x="72" y="147.71493" style="stroke: #000000; stroke-width: 0.6"/>
      </g>
     </g>
    </g>
    <g id="ytick_25">
     <g id="line2d_40">
      <g>
       <use xlink:href="#mb9fca2c9c1" x="72" y="141.34278" style="stroke: #000000; stroke-width: 0.6"/>
      </g>
     </g>
    </g>
    <g id="ytick_26">
     <g id="line2d_41">
      <g>
       <use xlink:href="#mb9fca2c9c1" x="72" y="136.136354" style="stroke: #000000; stroke-width: 0.6"/>
      </g>
     </g>
    </g>
    <g id="ytick_27">
     <g id="line2d_42">
      <g>
       <use xlink:href="#mb9fca2c9c1" x="72" y="131.734383" style="stroke: #000000; stroke-width: 0.6"/>
      </g>
     </g>
    </g>
    <g id="ytick_28">
     <g id="line2d_43">
      <g>
       <use xlink:href="#mb9fca2c9c1" x="72" y="127.921223" style="stroke: #000000; stroke-width: 0.6"/>
      </g>
     </g>
    </g>
    <g id="ytick_29">
     <g id="line2d_44">
      <g>
       <use xlink:href="#mb9fca2c9c1" x="72" y="124.557777" style="stroke: #000000; stroke-width: 0.6"/>
      </g>
     </g>
    </g>
    <g id="ytick_30">
     <g id="line2d_45">
      <g>
       <use xlink:href="#mb9fca2c9c1" x="72" y="101.755365" style="stroke: #000000; stroke-width: 0.6"/>
      </g>
     </g>
    </g>
    <g id="ytick_31">
     <g id="line2d_46">
      <g>
       <use xlink:href="#mb9fca2c9c1" x="72" y="90.176789" style="stroke: #000000; stroke-width: 0.6"/>
      </g>
     </g>
    </g>
    <g id="ytick_32">
     <g id="line2d_47">
      <g>
       <use xlink:href="#mb9fca2c9c1" x="72" y="81.961658" style="stroke: #000000; stroke-width: 0.6"/>
      </g>
     </g>
    </g>
    <g id="ytick_33">
     <g id="line2d_48">
      <g>
       <use xlink:href="#mb9fca2c9c1" x="72" y="75.589508" style="stroke: #000000; stroke-width: 0.6"/>
      </g>
     </g>
    </g>
    <g id="ytick_34">
     <g id="line2d_49">
      <g>
       <use xlink:href="#mb9fca2c9c1" x="72" y="70.383082" style="stroke: #000000; stroke-width: 0.6"/>
      </g>
     </g>
    </g>
    <g id="ytick_35">
     <g id="line2d_50">
      <g>
       <use xlink:href="#mb9fca2c9c1" x="72" y="65.981112" style="stroke: #000000; stroke-width: 0.6"/>
      </g>
     </g>
    </g>
    <g id="ytick_36">
     <g id="line2d_51">
      <g>
       <use xlink:href="#mb9fca2c9c1" x="72" y="62.167951" style="stroke: #000000; stroke-width: 0.6"/>
      </g>
     </g>
    </g>
    <g id="ytick_37">
     <g id="line2d_52">
      <g>
       <use xlink:href="#mb9fca2c9c1" x="72" y="58.804506" style="stroke: #000000; stroke-width: 0.6"/>
      </g>
     </g>
    </g>
    <g id="text_12">
     <!-- Exceedance Probability, $\mathrm{P}[Z &gt; z]$ -->
     <g transform="translate(35.4 262.6) rotate(-90) scale(0.1 -0.1)">
      <defs>
       <path id="DejaVuSans-45" d="M 628 4666 
L 3578 4666 
L 3578 4134 
L 1259 4134 
L 1259 2753 
L 3481 2753 
L 3481 2222 
L 1259 2222 
L 1259 531 
L 3634 531 
L 3634 0 
L 628 0 
L 628 4666 
z
" transform="scale(0.015625)"/>
       <path id="DejaVuSans-78" d="M 3513 3500 
L 2247 1797 
L 3578 0 
L 2900 0 
L 1881 1375 
L 863 0 
L 184 0 
L 1544 1831 
L 300 3500 
L 978 3500 
L 1906 2253 
L 2834 3500 
L 3513 3500 
z
" transform="scale(0.015625)"/>
       <path id="DejaVuSans-63" d="M 3122 3366 
L 3122 2828 
Q 2878 2963 2633 3030 
Q 2388 3097 2138 3097 
Q 1578 3097 1268 2742 
Q 959 2388 959 1747 
Q 959 1106 1268 751 
Q 1578 397 2138 397 
Q 2388 397 2633 464 
Q 2878 531 3122 666 
L 3122 134 
Q 2881 22 2623 -34 
Q 2366 -91 2075 -91 
Q 1284 -91 818 406 
Q 353 903 353 1747 
Q 353 2603 823 3093 
Q 1294 3584 2113 3584 
Q 2378 3584 2631 3529 
Q 2884 3475 3122 3366 
z
" transform="scale(0.015625)"/>
       <path id="DejaVuSans-65" d="M 3597 1894 
L 3597 1613 
L 953 1613 
Q 991 1019 1311 708 
Q 1631 397 2203 397 
Q 2534 397 2845 478 
Q 3156 559 3463 722 
L 3463 178 
Q 3153 47 2828 -22 
Q 2503 -91 2169 -91 
Q 1331 -91 842 396 
Q 353 884 353 1716 
Q 353 2575 817 3079 
Q 1281 3584 2069 3584 
Q 2775 3584 3186 3129 
Q 3597 2675 3597 1894 
z
M 3022 2063 
Q 3016 2534 2758 2815 
Q 2500 3097 2075 3097 
Q 1594 3097 1305 2825 
Q 1016 2553 972 2059 
L 3022 2063 
z
" transform="scale(0.015625)"/>
       <path id="DejaVuSans-64" d="M 2906 2969 
L 2906 4863 
L 3481 4863 
L 3481 0 
L 2906 0 
L 2906 525 
Q 2725 213 2448 61 
Q 2172 -91 1784 -91 
Q 1150 -91 751 415 
Q 353 922 353 1747 
Q 353 2572 751 3078 
Q 1150 3584 1784 3584 
Q 2172 3584 2448 3432 
Q 2725 3281 2906 2969 
z
M 947 1747 
Q 947 1113 1208 752 
Q 1469 391 1925 391 
Q 2381 391 2643 752 
Q 2906 1113 2906 1747 
Q 2906 2381 2643 2742 
Q 2381 3103 1925 3103 
Q 1469 3103 1208 2742 
Q 947 2381 947 1747 
z
" transform="scale(0.015625)"/>
       <path id="DejaVuSans-61" d="M 2194 1759 
Q 1497 1759 1228 1600 
Q 959 1441 959 1056 
Q 959 750 1161 570 
Q 1363 391 1709 391 
Q 2188 391 2477 730 
Q 2766 1069 2766 1631 
L 2766 1759 
L 2194 1759 
z
M 3341 1997 
L 3341 0 
L 2766 0 
L 2766 531 
Q 2569 213 2275 61 
Q 1981 -91 1556 -91 
Q 1019 -91 701 211 
Q 384 513 384 1019 
Q 384 1609 779 1909 
Q 1175 2209 1959 2209 
L 2766 2209 
L 2766 2266 
Q 2766 2663 2505 2880 
Q 2244 3097 1772 3097 
Q 1472 3097 1187 3025 
Q 903 2953 641 2809 
L 641 3341 
Q 956 3463 1253 3523 
Q 1550 3584 1831 3584 
Q 2591 3584 2966 3190 
Q 3341 2797 3341 1997 
z
" transform="scale(0.015625)"/>
       <path id="DejaVuSans-6e" d="M 3513 2113 
L 3513 0 
L 2938 0 
L 2938 2094 
Q 2938 2591 2744 2837 
Q 2550 3084 2163 3084 
Q 1697 3084 1428 2787 
Q 1159 2491 1159 1978 
L 1159 0 
L 581 0 
L 581 3500 
L 1159 3500 
L 1159 2956 
Q 1366 3272 1645 3428 
Q 1925 3584 2291 3584 
Q 2894 3584 3203 3211 
Q 3513 2838 3513 2113 
z
" transform="scale(0.015625)"/>
       <path id="DejaVuSans-20" transform="scale(0.015625)"/>
       <path id="DejaVuSans-50" d="M 1259 4147 
L 1259 2394 
L 2053 2394 
Q 2494 2394 2734 2622 
Q 2975 2850 2975 3272 
Q 2975 3691 2734 3919 
Q 2494 4147 2053 4147 
L 1259 4147 
z
M 628 4666 
L 2053 4666 
Q 2838 4666 3239 4311 
Q 3641 3956 3641 3272 
Q 3641 2581 3239 2228 
Q 2838 1875 2053 1875 
L 1259 1875 
L 1259 0 
L 628 0 
L 628 4666 
z
" transform="scale(0.015625)"/>
       <path id="DejaVuSans-72" d="M 2631 2963 
Q 2534 3019 2420 3045 
Q 2306 3072 2169 3072 
Q 1681 3072 1420 2755 
Q 1159 2438 1159 1844 
L 1159 0 
L 581 0 
L 581 3500 
L 1159 3500 
L 1159 2956 
Q 1341 3275 1631 3429 
Q 1922 3584 2338 3584 
Q 2397 3584 2469 3576 
Q 2541 3569 2628 3553 
L 2631 2963 
z
" transform="scale(0.015625)"/>
       <path id="DejaVuSans-6f" d="M 1959 3097 
Q 1497 3097 1228 2736 
Q 959 2375 959 1747 
Q 959 1119 1226 758 
Q 1494 397 1959 397 
Q 2419 397 2687 759 
Q 2956 1122 2956 1747 
Q 2956 2369 2687 2733 
Q 2419 3097 1959 3097 
z
M 1959 3584 
Q 2709 3584 3137 3096 
Q 3566 2609 3566 1747 
Q 3566 888 3137 398 
Q 2709 -91 1959 -91 
Q 1206 -91 779 398 
Q 353 888 353 1747 
Q 353 2609 779 3096 
Q 1206 3584 1959 3584 
z
" transform="scale(0.015625)"/>
       <path id="DejaVuSans-62" d="M 3116 1747 
Q 3116 2381 2855 2742 
Q 2594 3103 2138 3103 
Q 1681 3103 1420 2742 
Q 1159 2381 1159 1747 
Q 1159 1113 1420 752 
Q 1681 391 2138 391 
Q 2594 391 2855 752 
Q 3116 1113 3116 1747 
z
M 1159 2969 
Q 1341 3281 1617 3432 
Q 1894 3584 2278 3584 
Q 2916 3584 3314 3078 
Q 3713 2572 3713 1747 
Q 3713 922 3314 415 
Q 2916 -91 2278 -91 
Q 1894 -91 1617 61 
Q 1341 213 1159 525 
L 1159 0 
L 581 0 
L 581 4863 
L 1159 4863 
L 1159 2969 
z
" transform="scale(0.015625)"/>
       <path id="DejaVuSans-69" d="M 603 3500 
L 1178 3500 
L 1178 0 
L 603 0 
L 603 3500 
z
M 603 4863 
L 1178 4863 
L 1178 4134 
L 603 4134 
L 603 4863 
z
" transform="scale(0.015625)"/>
       <path id="DejaVuSans-6c" d="M 603 4863 
L 1178 4863 
L 1178 0 
L 603 0 
L 603 4863 
z
" transform="scale(0.015625)"/>
       <path id="DejaVuSans-74" d="M 1172 4494 
L 1172 3500 
L 2356 3500 
L 2356 3053 
L 1172 3053 
L 1172 1153 
Q 1172 725 1289 603 
Q 1406 481 1766 481 
L 2356 481 
L 2356 0 
L 1766 0 
Q 1100 0 847 248 
Q 594 497 594 1153 
L 594 3053 
L 172 3053 
L 172 3500 
L 594 3500 
L 594 4494 
L 1172 4494 
z
" transform="scale(0.015625)"/>
       <path id="DejaVuSans-79" d="M 2059 -325 
Q 1816 -950 1584 -1140 
Q 1353 -1331 966 -1331 
L 506 -1331 
L 506 -850 
L 844 -850 
Q 1081 -850 1212 -737 
Q 1344 -625 1503 -206 
L 1606 56 
L 191 3500 
L 800 3500 
L 1894 763 
L 2988 3500 
L 3597 3500 
L 2059 -325 
z
" transform="scale(0.015625)"/>
       <path id="DejaVuSans-5b" d="M 550 4863 
L 1875 4863 
L 1875 4416 
L 1125 4416 
L 1125 -397 
L 1875 -397 
L 1875 -844 
L 550 -844 
L 550 4863 
z
" transform="scale(0.015625)"/>
       <path id="DejaVuSans-3e" d="M 678 3150 
L 678 3719 
L 4684 2266 
L 4684 1747 
L 678 294 
L 678 863 
L 3897 2003 
L 678 3150 
z
" transform="scale(0.015625)"/>
       <path id="DejaVuSans-Oblique-7a" d="M 744 3500 
L 3475 3500 
L 3372 2975 
L 738 459 
L 2913 459 
L 2822 0 
L -19 0 
L 84 525 
L 2719 3041 
L 653 3041 
L 744 3500 
z
" transform="scale(0.015625)"/>
       <path id="DejaVuSans-5d" d="M 1947 4863 
L 1947 -844 
L 622 -844 
L 622 -397 
L 1369 -397 
L 1369 4416 
L 622 4416 
L 622 4863 
L 1947 4863 
z
" transform="scale(0.015625)"/>
      </defs>
      <use xlink:href="#DejaVuSans-45" transform="translate(0 0.015625)"/>
      <use xlink:href="#DejaVuSans-78" transform="translate(63.183594 0.015625)"/>
      <use xlink:href="#DejaVuSans-63" transform="translate(122.363281 0.015625)"/>
      <use xlink:href="#DejaVuSans-65" transform="translate(177.34375 0.015625)"/>
      <use xlink:href="#DejaVuSans-65" transform="translate(238.867188 0.015625)"/>
      <use xlink:href="#DejaVuSans-64" transform="translate(300.390625 0.015625)"/>
      <use xlink:href="#DejaVuSans-61" transform="translate(363.867188 0.015625)"/>
      <use xlink:href="#DejaVuSans-6e" transform="translate(425.146484 0.015625)"/>
      <use xlink:href="#DejaVuSans-63" transform="translate(488.525391 0.015625)"/>
      <use xlink:href="#DejaVuSans-65" transform="translate(543.505859 0.015625)"/>
      <use xlink:href="#DejaVuSans-20" transform="translate(605.029297 0.015625)"/>
      <use xlink:href="#DejaVuSans-50" transform="translate(636.816406 0.015625)"/>
      <use xlink:href="#DejaVuSans-72" transform="translate(697.119141 0.015625)"/>
      <use xlink:href="#DejaVuSans-6f" transform="translate(738.232422 0.015625)"/>
      <use xlink:href="#DejaVuSans-62" transform="translate(799.414062 0.015625)"/>
      <use xlink:href="#DejaVuSans-61" transform="translate(862.890625 0.015625)"/>
      <use xlink:href="#DejaVuSans-62" transform="translate(924.169922 0.015625)"/>
      <use xlink:href="#DejaVuSans-69" transform="translate(987.646484 0.015625)"/>
      <use xlink:href="#DejaVuSans-6c" transform="translate(1015.429688 0.015625)"/>
      <use xlink:href="#DejaVuSans-69" transform="translate(1043.212891 0.015625)"/>
      <use xlink:href="#DejaVuSans-74" transform="translate(1070.996094 0.015625)"/>
      <use xlink:href="#DejaVuSans-79" transform="translate(1110.205078 0.015625)"/>
      <use xlink:href="#DejaVuSans-2c" transform="translate(1169.384766 0.015625)"/>
      <use xlink:href="#DejaVuSans-20" transform="translate(1201.171875 0.015625)"/>
      <use xlink:href="#DejaVuSans-50" transform="translate(1232.958984 0.015625)"/>
      <use xlink:href="#DejaVuSans-5b" transform="translate(1293.261719 0.015625)"/>
      <use xlink:href="#DejaVuSans-Oblique-5a" transform="translate(1332.275391 0.015625)"/>
      <use xlink:href="#DejaVuSans-3e" transform="translate(1420.263672 0.015625)"/>
      <use xlink:href="#DejaVuSans-Oblique-7a" transform="translate(1523.535156 0.015625)"/>
      <use xlink:href="#DejaVuSans-5d" transform="translate(1576.025391 0.015625)"/>
     </g>
    </g>
   </g>
   <g id="line2d_53">
    <path d="M 126.345782 56.212688 
L 126.345782 56.635752 
L 130.080459 56.635752 
L 130.080459 57.065178 
L 135.398713 57.065178 
L 135.484551 57.943902 
L 149.073765 57.943902 
L 149.073765 58.393617 
L 149.814218 58.393617 
L 149.814218 58.850527 
L 154.894699 58.850527 
L 154.894699 59.314867 
L 156.093053 59.314867 
L 156.093053 59.786882 
L 157.101768 59.786882 
L 157.101768 60.266831 
L 157.972096 60.266831 
L 157.972096 60.754985 
L 159.529745 60.754985 
L 159.529745 61.251628 
L 160.811858 61.251628 
L 160.811858 61.757062 
L 161.490907 61.757062 
L 161.490907 62.271604 
L 161.982699 62.271604 
L 161.982699 62.795587 
L 162.669545 62.795587 
L 162.669545 63.329365 
L 166.005308 63.329365 
L 166.005308 63.873311 
L 166.11888 63.873311 
L 166.11888 64.427819 
L 167.083407 64.427819 
L 167.083407 64.993308 
L 167.530936 64.993308 
L 167.530936 65.570223 
L 167.691063 65.570223 
L 167.691063 66.159033 
L 169.199701 66.159033 
L 169.199701 66.76024 
L 169.564553 66.76024 
L 169.564553 67.374377 
L 170.125475 67.374377 
L 170.125475 68.002013 
L 171.604519 68.002013 
L 171.604519 68.643754 
L 171.929458 68.643754 
L 171.929458 69.30025 
L 172.493751 69.30025 
L 172.493751 69.972193 
L 173.19609 69.972193 
L 173.19609 70.66033 
L 174.394212 70.66033 
L 174.394212 71.365459 
L 174.545527 71.365459 
L 174.545527 72.088441 
L 174.733914 72.088441 
L 174.733914 72.830205 
L 175.550484 72.830205 
L 175.550484 73.591751 
L 176.904849 73.591751 
L 176.904849 74.374164 
L 179.063073 74.374164 
L 179.063073 75.178619 
L 180.918867 75.178619 
L 180.918867 76.006395 
L 183.148945 76.006395 
L 183.148945 76.858885 
L 184.793794 76.858885 
L 184.793794 77.737609 
L 186.041634 77.737609 
L 186.041634 78.644234 
L 186.192713 78.644234 
L 186.192713 79.58059 
L 186.630969 79.58059 
L 186.630969 80.548692 
L 186.75047 80.548692 
L 186.75047 81.55077 
L 190.220253 81.55077 
L 190.220253 82.589294 
L 192.072466 82.589294 
L 192.072466 83.667018 
L 194.605928 83.667018 
L 194.605928 84.787016 
L 198.697286 84.787016 
L 198.697286 85.95274 
L 200.823147 85.95274 
L 200.823147 87.168084 
L 201.390552 87.168084 
L 201.443476 89.7659 
L 201.578181 89.7659 
L 201.578181 91.159166 
L 204.506151 91.159166 
L 204.506151 92.623912 
L 205.421202 92.623912 
L 205.421202 94.167871 
L 208.363495 94.167871 
L 208.363495 95.800103 
L 210.467035 95.800103 
L 210.467035 97.531316 
L 210.779703 97.531316 
L 210.779703 99.374297 
L 211.02396 99.374297 
L 211.02396 101.344477 
L 223.749623 101.344477 
L 223.749623 103.460725 
L 225.153785 103.460725 
L 225.153785 105.746447 
L 226.392418 105.746447 
L 226.392418 108.231169 
L 229.75755 108.231169 
L 229.75755 110.952873 
L 232.890668 110.952873 
L 232.890668 113.961578 
L 239.749212 113.961578 
L 239.749212 117.325023 
L 240.393214 117.325023 
L 240.393214 121.138184 
L 253.25488 121.138184 
L 253.25488 125.540154 
L 257.871652 125.540154 
L 257.871652 130.74658 
L 259.28598 130.74658 
L 259.28598 137.118731 
L 271.886449 137.118731 
L 271.886449 145.333861 
L 272.974562 145.333861 
L 272.974562 156.912438 
L 277.76974 156.912438 
L 277.76974 176.706145 
L 340.058982 176.706145 
L 340.058982 176.706145 
" clip-path="url(#p6297019cee)" style="fill: none; stroke: #000000; stroke-width: 1.5; stroke-linecap: square"/>
   </g>
   <g id="line2d_54">
    <path d="M 92.290909 55.8 
L 92.290909 55.8042 
L 116.55581 55.913611 
L 116.55581 55.917827 
L 121.442411 56.027676 
L 121.442411 56.031909 
L 123.538642 56.142198 
L 123.56429 56.154951 
L 126.644201 56.265717 
L 126.703922 56.274255 
L 129.182398 56.3812 
L 129.246465 56.39406 
L 131.056942 56.501455 
L 131.063294 56.510064 
L 132.594683 56.617897 
L 132.704543 56.630864 
L 134.221091 56.739155 
L 134.326961 56.75652 
L 135.732525 56.865289 
L 135.73545 56.874009 
L 137.210475 56.983228 
L 137.314712 57.005121 
L 138.174956 57.114844 
L 138.220348 57.12364 
L 139.258859 57.233819 
L 139.350678 57.260326 
L 139.962418 57.371035 
L 140.06138 57.384349 
L 140.898664 57.491085 
L 140.956383 57.499997 
L 141.906623 57.607167 
L 142.000941 57.616116 
L 142.7832 57.723724 
L 142.876769 57.746193 
L 144.039551 57.854293 
L 144.111172 57.890417 
L 144.700771 57.999065 
L 144.788495 58.008138 
L 145.34774 58.117236 
L 145.437533 58.140017 
L 146.073308 58.24962 
L 146.174616 58.281668 
L 146.6518 58.391817 
L 146.740106 58.410217 
L 147.303061 58.520865 
L 147.387141 58.548594 
L 147.90298 58.655138 
L 148.006232 58.687644 
L 148.600158 58.79471 
L 148.701132 58.85073 
L 149.148832 58.95841 
L 149.254631 58.991263 
L 149.608738 59.099476 
L 149.712947 59.123055 
L 150.212073 59.231768 
L 150.317726 59.264938 
L 150.883176 59.374194 
L 150.940747 59.393238 
L 151.328369 59.502987 
L 151.405865 59.517334 
L 152.021948 59.627562 
L 152.131561 59.67562 
L 152.514227 59.786463 
L 152.618295 59.834789 
L 153.083609 59.941397 
L 153.187163 59.989987 
L 153.525257 60.097177 
L 153.633993 60.141143 
L 154.030752 60.248903 
L 154.120591 60.293104 
L 154.72947 60.40144 
L 154.828818 60.450819 
L 155.201307 60.559756 
L 155.310581 60.614381 
L 155.710339 60.723945 
L 155.775073 60.748904 
L 156.242145 60.858987 
L 156.349079 60.909164 
L 156.681011 61.019867 
L 156.78897 61.040041 
L 157.248197 61.146189 
L 157.340069 61.18166 
L 157.784536 61.288336 
L 157.878422 61.318889 
L 158.230351 61.42608 
L 158.325749 61.467021 
L 158.662902 61.574771 
L 158.769405 61.636526 
L 159.167369 61.744918 
L 159.277985 61.80186 
L 159.62001 61.910883 
L 159.717634 61.94211 
L 159.977337 62.051671 
L 160.087772 62.088285 
L 160.344465 62.198409 
L 160.45357 62.245736 
L 160.734806 62.35647 
L 160.838574 62.382899 
L 161.130922 62.488859 
L 161.240504 62.579236 
L 161.526037 62.685928 
L 161.632291 62.728717 
L 161.91453 62.835971 
L 162.019626 62.88975 
L 162.289714 62.997611 
L 162.371991 63.057109 
L 162.737927 63.165606 
L 162.810118 63.20912 
L 163.217193 63.318197 
L 163.300605 63.340062 
L 163.614509 63.449641 
L 163.719464 63.504589 
L 163.920963 63.614802 
L 164.028656 63.653478 
L 164.361292 63.764269 
L 164.466014 63.825387 
L 164.695833 63.931265 
L 164.779144 63.970372 
L 165.09076 64.076789 
L 165.200962 64.099244 
L 165.524673 64.206143 
L 165.626179 64.251274 
L 165.969164 64.358745 
L 166.078898 64.421151 
L 166.3499 64.529265 
L 166.454678 64.597759 
L 166.720104 64.706545 
L 166.825875 64.752474 
L 167.024677 64.861852 
L 167.131112 64.908032 
L 167.417236 65.018008 
L 167.491598 65.076061 
L 167.738907 65.186688 
L 167.831179 65.239241 
L 168.080308 65.344636 
L 168.178121 65.415116 
L 168.479214 65.521164 
L 168.563636 65.603919 
L 168.745304 65.710671 
L 168.851957 65.782062 
L 169.025294 65.889484 
L 169.135663 65.961324 
L 169.284241 66.069423 
L 169.384964 66.129656 
L 169.621898 66.238396 
L 169.713013 66.268675 
L 169.867105 66.377947 
L 169.968843 66.43274 
L 170.214719 66.542642 
L 170.317792 66.597753 
L 170.604203 66.708293 
L 170.693467 66.782225 
L 170.883101 66.887291 
L 170.928081 66.905873 
L 171.245553 67.011395 
L 171.33289 67.07365 
L 171.557437 67.179796 
L 171.637491 67.236151 
L 171.830495 67.342903 
L 171.934952 67.424808 
L 172.123568 67.532269 
L 172.233954 67.595671 
L 172.461716 67.703779 
L 172.546444 67.742033 
L 172.802009 67.850697 
L 172.910813 67.908393 
L 173.180484 68.017693 
L 173.282672 68.095099 
L 173.610111 68.205118 
L 173.649915 68.237557 
L 174.046342 68.348127 
L 174.14703 68.413369 
L 174.423187 68.518066 
L 174.530386 68.577128 
L 174.705834 68.682429 
L 174.800748 68.715415 
L 175.032034 68.821228 
L 175.117859 68.887561 
L 175.35144 68.994015 
L 175.449093 69.040714 
L 175.744614 69.147742 
L 175.849649 69.228277 
L 176.017489 69.336011 
L 176.127174 69.450926 
L 176.419151 69.559505 
L 176.52614 69.654851 
L 176.717652 69.76421 
L 176.828301 69.860244 
L 177.039195 69.970394 
L 177.146978 70.046369 
L 177.331438 70.15724 
L 177.424467 70.219795 
L 177.641776 70.324359 
L 177.73955 70.373286 
L 177.991844 70.478415 
L 178.099618 70.555755 
L 178.278928 70.661559 
L 178.389633 70.746484 
L 178.532898 70.852998 
L 178.618688 70.917097 
L 178.848711 71.024251 
L 178.959269 71.110264 
L 179.18509 71.218145 
L 179.295786 71.275849 
L 179.442643 71.38436 
L 179.551486 71.48601 
L 179.772548 71.595323 
L 179.875418 71.683076 
L 180.063911 71.793148 
L 180.156652 71.84466 
L 180.404486 71.955358 
L 180.506772 72.007164 
L 180.733619 72.111059 
L 180.843553 72.192957 
L 180.946739 72.297532 
L 181.047425 72.394981 
L 181.220791 72.500299 
L 181.330591 72.598444 
L 181.514567 72.704517 
L 181.622749 72.780525 
L 181.78478 72.887277 
L 181.885389 72.979098 
L 182.151534 73.086597 
L 182.25806 73.194502 
L 182.530251 73.302817 
L 182.621201 73.403764 
L 182.82341 73.512876 
L 182.931887 73.575414 
L 183.075577 73.685186 
L 183.183836 73.771732 
L 183.309257 73.882262 
L 183.415654 73.953544 
L 183.568096 74.056822 
L 183.676121 74.152488 
L 183.93469 74.256489 
L 184.03418 74.336748 
L 184.20429 74.441424 
L 184.288925 74.497947 
L 184.549276 74.603216 
L 184.648784 74.643808 
L 184.835862 74.749618 
L 184.942708 74.839456 
L 185.187209 74.945994 
L 185.283208 75.011754 
L 185.406921 75.118938 
L 185.480826 75.17682 
L 185.731791 75.284626 
L 185.841313 75.426221 
L 185.991018 75.534975 
L 186.095967 75.585309 
L 186.39484 75.694672 
L 186.500929 75.762181 
L 186.665261 75.872225 
L 186.763812 75.931655 
L 186.961166 76.042355 
L 187.06332 76.153486 
L 187.269604 76.256453 
L 187.356155 76.308077 
L 187.5521 76.411604 
L 187.652175 76.446197 
L 187.802444 76.550227 
L 187.911544 76.654638 
L 188.155199 76.759432 
L 188.258527 76.811973 
L 188.428499 76.917347 
L 188.52981 77.040777 
L 188.682342 77.147 
L 188.788807 77.262522 
L 188.998942 77.369575 
L 189.083496 77.414299 
L 189.191237 77.521923 
L 189.298878 77.611921 
L 189.420446 77.720294 
L 189.510884 77.801845 
L 189.656293 77.910943 
L 189.70411 77.956523 
L 189.943012 78.066215 
L 190.026225 78.130396 
L 190.218866 78.240759 
L 190.315884 78.314572 
L 190.482806 78.42565 
L 190.588474 78.499943 
L 190.752735 78.602412 
L 190.83366 78.686525 
L 191.068937 78.789667 
L 191.149737 78.912044 
L 191.319726 79.016006 
L 191.426593 79.139359 
L 191.611773 79.244153 
L 191.719671 79.349333 
L 191.839966 79.454901 
L 191.912963 79.522285 
L 192.097683 79.628496 
L 192.188924 79.725396 
L 192.375594 79.832367 
L 192.48097 79.949521 
L 192.776271 80.057336 
L 192.87836 80.145852 
L 193.066067 80.254413 
L 193.135212 80.333626 
L 193.318687 80.442904 
L 193.426236 80.572592 
L 193.616724 80.68279 
L 193.709599 80.743078 
L 193.914168 80.853937 
L 194.014709 80.944961 
L 194.236572 81.04644 
L 194.341088 81.148282 
L 194.58447 81.250488 
L 194.680682 81.383904 
L 194.869901 81.486959 
L 194.980878 81.569671 
L 195.087152 81.673399 
L 195.197822 81.777505 
L 195.380805 81.881992 
L 195.470118 81.976358 
L 195.617715 82.081577 
L 195.723116 82.187184 
L 195.821675 82.293184 
L 195.909615 82.399579 
L 196.063485 82.506371 
L 196.159233 82.581364 
L 196.331172 82.68884 
L 196.433738 82.775113 
L 196.580376 82.883322 
L 196.681446 82.970185 
L 196.779877 83.079137 
L 196.878109 83.166599 
L 197.09316 83.276304 
L 197.193195 83.35335 
L 197.395316 83.463776 
L 197.478054 83.51915 
L 197.697697 83.630221 
L 197.78157 83.674771 
L 197.925616 83.775262 
L 198.013038 83.887335 
L 198.224335 83.988579 
L 198.323607 84.090183 
L 198.430618 84.192149 
L 198.503643 84.305874 
L 198.707404 84.408615 
L 198.800346 84.477315 
L 198.920963 84.580676 
L 199.023133 84.719075 
L 199.189916 84.823317 
L 199.251707 84.881393 
L 199.475052 84.98623 
L 199.577883 85.079742 
L 199.773497 85.185311 
L 199.862153 85.279478 
L 200.038645 85.385789 
L 200.139166 85.480621 
L 200.289384 85.587685 
L 200.374643 85.683191 
L 200.597119 85.791019 
L 200.695054 85.863131 
L 200.800907 85.971641 
L 200.892961 86.092694 
L 201.056783 86.202082 
L 201.123969 86.27524 
L 201.296505 86.385331 
L 201.402509 86.532782 
L 201.586917 86.643872 
L 201.664825 86.730575 
L 201.884243 86.829988 
L 201.977113 86.904775 
L 202.105916 87.004798 
L 202.214816 87.117743 
L 202.449411 87.218515 
L 202.549606 87.319644 
L 202.637095 87.421132 
L 202.74287 87.472012 
L 202.840312 87.574045 
L 202.949795 87.663623 
L 203.052491 87.766344 
L 203.142178 87.830732 
L 203.250381 87.934057 
L 203.351746 88.037756 
L 203.453715 88.141834 
L 203.562025 88.272467 
L 203.73999 88.377405 
L 203.789261 88.443188 
L 203.986798 88.548756 
L 204.062709 88.614936 
L 204.339802 88.721142 
L 204.44275 88.827745 
L 204.563461 88.934748 
L 204.667826 89.055607 
L 204.749589 89.163468 
L 204.849217 89.285302 
L 205.054586 89.394036 
L 205.161863 89.557917 
L 205.371303 89.667697 
L 205.478213 89.777899 
L 205.667621 89.888529 
L 205.764941 90.027422 
L 205.959679 90.12505 
L 206.059087 90.279144 
L 206.460839 90.377638 
L 206.547019 90.504775 
L 206.743624 90.604052 
L 206.834913 90.746478 
L 206.987499 90.8466 
L 207.062452 90.918331 
L 207.247988 91.019059 
L 207.352813 91.163575 
L 207.5723 91.265173 
L 207.678051 91.38173 
L 207.860598 91.484108 
L 207.934824 91.557461 
L 208.112881 91.660473 
L 208.219342 91.778657 
L 208.359152 91.882471 
L 208.430769 92.00158 
L 208.67828 92.106209 
L 208.787879 92.286471 
L 208.947455 92.392151 
L 209.050004 92.498224 
L 209.203217 92.604692 
L 209.313041 92.834184 
L 209.389116 92.941915 
L 209.49174 93.081025 
L 209.615447 93.189693 
L 209.724262 93.236392 
L 209.829329 93.345653 
L 209.924374 93.455335 
L 210.061791 93.565439 
L 210.170361 93.723471 
L 210.33204 93.818711 
L 210.42869 93.946195 
L 210.523463 94.042183 
L 210.629192 94.154577 
L 210.706554 94.251269 
L 210.805046 94.445641 
L 210.932555 94.543325 
L 211.031337 94.674092 
L 211.187445 94.772562 
L 211.292681 94.904386 
L 211.365465 95.003655 
L 211.445078 95.119906 
L 211.534686 95.219928 
L 211.634319 95.353838 
L 211.856308 95.454685 
L 211.918445 95.555888 
L 212.07098 95.657452 
L 212.175223 95.776401 
L 212.264061 95.878754 
L 212.320216 95.981474 
L 212.543828 96.084566 
L 212.636252 96.222602 
L 212.720886 96.326569 
L 212.811542 96.448345 
L 213.014046 96.553139 
L 213.03162 96.60568 
L 213.257317 96.711054 
L 213.360391 96.887546 
L 213.467102 96.993967 
L 213.541228 97.047326 
L 213.698822 97.154346 
L 213.755038 97.225915 
L 214.024774 97.333607 
L 214.115799 97.477831 
L 214.223231 97.586479 
L 214.334257 97.640959 
L 214.479052 97.75023 
L 214.559776 97.859922 
L 214.790252 97.970036 
L 214.874549 98.117519 
L 215.025395 98.210084 
L 215.025395 98.228633 
L 215.294529 98.321559 
L 215.391016 98.414789 
L 215.529617 98.508325 
L 215.546733 98.564593 
L 215.699598 98.658621 
L 215.796896 98.809713 
L 215.955223 98.904553 
L 216.02517 98.980652 
L 216.131276 99.076063 
L 216.18399 99.133462 
L 216.39277 99.229385 
L 216.39277 99.248609 
L 216.657216 99.34492 
L 216.737996 99.422204 
L 216.909782 99.519103 
L 217.00082 99.635818 
L 217.189634 99.733447 
L 217.298514 99.811791 
L 217.454848 99.910023 
L 217.528092 99.969126 
L 217.707128 100.067902 
L 217.786468 100.14717 
L 217.933277 100.246566 
L 217.998696 100.30637 
L 218.22976 100.406322 
L 218.314251 100.546845 
L 218.470337 100.647644 
L 218.485308 100.708294 
L 218.913779 100.809666 
L 218.974162 100.870662 
L 219.119706 100.972612 
L 219.216199 101.095435 
L 219.334407 101.198193 
L 219.436214 101.321992 
L 219.541132 101.425569 
L 219.647411 101.467106 
L 219.780308 101.571212 
L 219.876303 101.738575 
L 220.060292 101.843677 
L 220.139691 101.970313 
L 220.316258 102.076273 
L 220.384543 102.246632 
L 220.63362 102.353625 
L 220.717226 102.396534 
L 220.855415 102.504091 
L 220.957185 102.655354 
L 221.052769 102.763892 
L 221.135851 102.872844 
L 221.221779 102.982213 
L 221.31081 103.136038 
L 221.454029 103.246421 
L 221.559571 103.335037 
L 221.624133 103.423928 
L 221.720353 103.557786 
L 221.929834 103.647374 
L 222.038808 103.737245 
L 222.127121 103.827399 
L 222.237753 103.963166 
L 222.287742 104.054037 
L 222.37291 104.190889 
L 222.57442 104.282489 
L 222.600206 104.351382 
L 222.723047 104.443499 
L 222.789315 104.582234 
L 222.965316 104.6751 
L 223.076101 104.908595 
L 223.155782 105.002531 
L 223.189736 105.073185 
L 223.483787 105.167664 
L 223.567859 105.309972 
L 223.729846 105.405239 
L 223.834699 105.548738 
L 223.946303 105.644806 
L 224.009505 105.741199 
L 224.228842 105.837918 
L 224.278965 105.983614 
L 224.668251 106.081159 
L 224.716756 106.203561 
L 224.945569 106.301861 
L 224.975444 106.351139 
L 225.299942 106.449949 
L 225.299942 106.474706 
L 225.499349 106.573946 
L 225.587993 106.623695 
L 225.769906 106.723455 
L 225.82428 106.798505 
L 226.044569 106.898878 
L 226.111115 107.024844 
L 226.438919 107.126017 
L 226.524 107.202134 
L 226.708138 107.303939 
L 226.818059 107.431708 
L 226.893967 107.534336 
L 226.973122 107.585789 
L 227.064178 107.688973 
L 227.16298 107.870448 
L 227.313661 107.974668 
L 227.408277 108.184257 
L 227.485742 108.28963 
L 227.575522 108.368917 
L 227.830773 108.474975 
L 227.921673 108.58143 
L 228.159584 108.688282 
L 228.207323 108.768685 
L 228.291435 108.876241 
L 228.400927 109.119736 
L 228.539488 109.228625 
L 228.622108 109.310566 
L 228.82167 109.420187 
L 228.926318 109.50268 
L 228.966923 109.613042 
L 228.967564 109.668384 
L 229.217051 109.77939 
L 229.305308 109.89083 
L 229.659478 109.974695 
L 229.683197 110.030743 
L 229.945394 110.115021 
L 229.986695 110.227781 
L 230.143093 110.312643 
L 230.232345 110.426187 
L 230.375078 110.511643 
L 230.469123 110.654639 
L 230.609224 110.740782 
L 230.703629 110.913851 
L 230.789906 111.00078 
L 230.876778 111.087975 
L 231.000823 111.175437 
L 231.089748 111.263167 
L 231.215518 111.351168 
L 231.273562 111.587172 
L 231.373652 111.676179 
L 231.460999 111.825142 
L 231.605895 111.914895 
L 231.70483 112.065112 
L 231.769557 112.155624 
L 231.836308 112.216124 
L 231.947476 112.307116 
L 232.05045 112.428892 
L 232.230502 112.520565 
L 232.28537 112.612534 
L 232.622738 112.7048 
L 232.708123 112.797365 
L 232.790888 112.890231 
L 232.881166 113.076874 
L 233.070451 113.170655 
L 233.160351 113.296177 
L 233.301222 113.390683 
L 233.389564 113.517178 
L 233.569621 113.612418 
L 233.623089 113.803858 
L 233.856403 113.900061 
L 233.856403 113.932201 
L 234.100679 114.028838 
L 234.19813 114.190631 
L 234.266825 114.288148 
L 234.366943 114.385999 
L 234.519396 114.484187 
L 234.587574 114.615632 
L 234.689956 114.714614 
L 234.791484 114.980256 
L 234.886985 115.080512 
L 234.958592 115.181121 
L 235.09186 115.282086 
L 235.19582 115.519069 
L 235.425391 115.621239 
L 235.450055 115.723775 
L 235.745833 115.82668 
L 235.755401 115.929958 
L 235.971142 116.033611 
L 236.07786 116.207206 
L 236.279434 116.311872 
L 236.379843 116.416923 
L 236.564922 116.522361 
L 236.654854 116.628191 
L 236.941169 116.734414 
L 237.049147 116.841034 
L 237.317081 116.948053 
L 237.400252 117.055475 
L 237.444093 117.163302 
L 237.546065 117.307709 
L 237.696875 117.416495 
L 237.751498 117.598731 
L 237.965771 117.708633 
L 237.992415 117.782137 
L 238.111164 117.892749 
L 238.199134 118.189826 
L 238.380494 118.264581 
L 238.453944 118.41468 
L 238.530022 118.490026 
L 238.587379 118.641318 
L 238.755942 118.717266 
L 238.832381 118.831567 
L 239.049117 118.908023 
L 239.150053 119.023092 
L 239.370494 119.100064 
L 239.480861 119.254631 
L 239.520405 119.33223 
L 239.566376 119.488062 
L 239.798641 119.566299 
L 239.883772 119.684057 
L 240.250057 119.762833 
L 240.355823 119.960729 
L 240.501787 120.040273 
L 240.531169 120.120039 
L 240.62621 120.200029 
L 240.642917 120.360683 
L 240.81403 120.441351 
L 240.843833 120.562781 
L 241.251619 120.644022 
L 241.288365 120.725495 
L 241.437626 120.807202 
L 241.437626 120.848143 
L 241.646332 120.930201 
L 241.684388 121.053732 
L 241.914544 121.136384 
L 241.914544 121.1778 
L 242.072327 121.260813 
L 242.181485 121.427565 
L 242.355618 121.511308 
L 242.437359 121.637385 
L 242.654844 121.721746 
L 242.715505 121.806357 
L 242.84591 121.89122 
L 242.929703 122.104487 
L 243.11801 122.190241 
L 243.196841 122.362527 
L 243.328329 122.449061 
L 243.416402 122.579356 
L 243.538418 122.666551 
L 243.646507 122.841744 
L 243.716822 122.929745 
L 243.794824 123.106564 
L 243.927684 123.195386 
L 244.033442 123.284486 
L 244.217547 123.373864 
L 244.325141 123.643689 
L 244.493315 123.7342 
L 244.589223 123.961741 
L 244.752628 124.053268 
L 244.855529 124.283376 
L 244.902763 124.375941 
L 244.977921 124.608675 
L 245.064915 124.702302 
L 245.163294 124.937722 
L 245.341582 125.032437 
L 245.349758 125.127466 
L 245.504073 125.222812 
L 245.604298 125.462581 
L 245.7419 125.559055 
L 245.835147 125.752987 
L 245.935268 125.850448 
L 245.996852 125.948244 
L 246.317288 126.046376 
L 246.39234 126.29319 
L 246.630218 126.392517 
L 246.740969 126.542157 
L 246.896954 126.642354 
L 246.99252 126.894397 
L 247.211843 126.995841 
L 247.284111 127.148685 
L 247.330785 127.251037 
L 247.415723 127.405257 
L 247.585437 127.508535 
L 247.693833 127.716218 
L 247.870774 127.820628 
L 247.976863 128.136171 
L 248.071522 128.242131 
L 248.071522 128.295259 
L 248.407621 128.401812 
L 248.513268 128.616119 
L 248.619426 128.723879 
L 248.670763 128.886285 
L 248.916336 128.995071 
L 248.981484 129.159031 
L 249.455262 129.268863 
L 249.554094 129.379119 
L 249.685546 129.489802 
L 249.796425 129.880608 
L 249.943779 129.936877 
L 249.943779 129.993256 
L 250.233199 130.049747 
L 250.308005 130.163066 
L 250.604236 130.219895 
L 250.689248 130.391062 
L 250.860538 130.448346 
L 250.860538 130.505746 
L 251.040472 130.563261 
L 251.096102 130.852587 
L 251.226112 130.910806 
L 251.226112 130.969144 
L 251.412576 131.027601 
L 251.502674 131.203694 
L 251.574701 131.262633 
L 251.664382 131.440186 
L 251.946991 131.499616 
L 252.051976 131.678653 
L 252.142164 131.738582 
L 252.142164 131.798638 
L 252.407312 131.85882 
L 252.498443 131.979565 
L 252.675891 132.04013 
L 252.781734 132.283682 
L 252.872884 132.344896 
L 252.924277 132.529329 
L 253.009492 132.591072 
L 253.118073 132.777107 
L 253.318104 132.839389 
L 253.420648 133.215961 
L 253.437304 133.279209 
L 253.521682 133.469796 
L 253.686314 133.533609 
L 253.724157 133.661665 
L 253.980993 133.725908 
L 254.082395 133.919511 
L 254.131474 133.984338 
L 254.217973 134.179707 
L 254.337089 134.245128 
L 254.42144 134.508321 
L 254.596277 134.5745 
L 254.628069 134.70732 
L 254.797646 134.773963 
L 254.797646 134.840761 
L 255.195562 134.907716 
L 255.258177 135.177117 
L 255.501339 135.244866 
L 255.510927 135.380849 
L 255.678967 135.449084 
L 255.759225 135.654772 
L 255.836743 135.723665 
L 255.941077 135.931348 
L 256.016664 136.000913 
L 256.122731 136.21063 
L 256.277251 136.280879 
L 256.347992 136.492669 
L 256.518619 136.563617 
L 256.60114 136.921022 
L 256.822146 136.993043 
L 256.891512 137.429025 
L 257.176277 137.50234 
L 257.203662 137.649538 
L 257.416907 137.723422 
L 257.467287 137.946229 
L 257.779616 138.020886 
L 257.779616 138.095739 
L 258.003768 138.170788 
L 258.018867 138.321481 
L 258.240271 138.397127 
L 258.285111 138.549023 
L 258.432805 138.625274 
L 258.541502 138.932334 
L 258.633214 139.009618 
L 258.696549 139.164815 
L 258.791643 139.242732 
L 258.791643 139.320861 
L 258.942757 139.399205 
L 259.024222 139.55654 
L 259.269378 139.635534 
L 259.286947 139.79418 
L 259.448138 139.873835 
L 259.51292 140.033815 
L 259.716775 140.114142 
L 259.792758 140.275477 
L 260.268452 140.356488 
L 260.364605 140.519203 
L 260.831807 140.600909 
L 260.83612 140.765026 
L 260.982319 140.847439 
L 260.999712 141.012983 
L 261.166957 141.096117 
L 261.166957 141.179493 
L 261.35401 141.263113 
L 261.44122 141.431092 
L 261.744905 141.515453 
L 261.744905 141.600064 
L 261.871211 141.684927 
L 261.871211 141.770043 
L 262.09786 141.855413 
L 262.165998 142.199469 
L 262.323012 142.286134 
L 262.399955 142.460258 
L 262.552194 142.54772 
L 262.639041 142.989093 
L 262.811583 143.078193 
L 262.811583 143.167571 
L 263.140166 143.25723 
L 263.155929 143.437396 
L 263.500409 143.527907 
L 263.584266 143.801175 
L 263.754229 143.892849 
L 263.863645 144.262515 
L 263.98643 144.355684 
L 263.98643 144.449158 
L 264.389923 144.542939 
L 264.447896 144.826144 
L 264.622976 144.921173 
L 264.71063 145.112186 
L 265.04477 145.208173 
L 265.097649 145.401122 
L 265.480518 145.498087 
L 265.480518 145.595383 
L 265.628408 145.693011 
L 265.628408 145.790975 
L 265.857559 145.889275 
L 265.946529 146.086897 
L 266.108277 146.186224 
L 266.154769 146.385919 
L 266.473046 146.486293 
L 266.473046 146.58702 
L 266.656336 146.688105 
L 266.700451 146.993522 
L 266.89479 147.096058 
L 266.920253 147.302242 
L 267.195306 147.405895 
L 267.26653 147.719129 
L 268.122772 147.824309 
L 268.147209 148.035838 
L 268.327162 148.142193 
L 268.327162 148.248946 
L 268.885498 148.356099 
L 268.900195 148.571619 
L 269.315644 148.679992 
L 269.315644 148.788778 
L 269.593744 148.89798 
L 269.69491 149.117645 
L 270.171469 149.228114 
L 270.171469 149.339012 
L 270.29761 149.339012 
L 270.29761 149.450343 
L 270.581108 149.450343 
L 270.639132 149.674315 
L 270.723464 149.674315 
L 270.723464 149.786963 
L 270.869155 149.786963 
L 270.943519 150.127599 
L 271.014792 150.127599 
L 271.074548 150.472347 
L 271.156117 150.472347 
L 271.223895 150.704513 
L 271.36168 150.704513 
L 271.441082 151.05634 
L 271.536713 151.05634 
L 271.551233 151.293323 
L 271.747021 151.293323 
L 271.747021 151.412557 
L 271.861927 151.412557 
L 271.971301 151.773272 
L 272.069654 151.773272 
L 272.069654 151.894531 
L 272.194318 151.894531 
L 272.194318 152.016306 
L 272.337435 152.016306 
L 272.445026 152.384779 
L 272.513542 152.384779 
L 272.513542 152.508668 
L 273.107182 152.508668 
L 273.137434 153.009668 
L 273.258708 153.009668 
L 273.258708 153.136304 
L 273.49719 153.136304 
L 273.554237 153.391272 
L 273.763937 153.391272 
L 273.834048 153.778045 
L 273.940291 153.778045 
L 274.0473 154.038835 
L 274.065858 154.038835 
L 274.065858 154.170128 
L 274.228577 154.170128 
L 274.228577 154.302028 
L 274.486497 154.302028 
L 274.575507 154.56767 
L 274.656736 154.56767 
L 274.764034 154.835806 
L 274.922339 154.835806 
L 274.922339 154.970824 
L 275.210332 154.970824 
L 275.263094 155.242791 
L 275.40662 155.242791 
L 275.40662 155.379752 
L 275.525026 155.379752 
L 275.525026 155.517373 
L 275.704826 155.517373 
L 275.704826 155.65566 
L 275.97605 155.65566 
L 275.97605 155.79462 
L 276.233994 155.79462 
L 276.233994 155.93426 
L 276.361392 155.93426 
L 276.361392 156.074586 
L 276.814954 156.074586 
L 276.814954 156.215605 
L 276.999708 156.215605 
L 276.999708 156.357324 
L 277.1252 156.357324 
L 277.22443 156.642889 
L 277.355429 156.642889 
L 277.42391 156.931339 
L 277.658605 156.931339 
L 277.658605 157.076664 
L 277.777504 157.076664 
L 277.777504 157.222732 
L 277.931976 157.222732 
L 277.976619 157.665474 
L 278.562437 157.665474 
L 278.562437 157.814593 
L 278.741958 157.814593 
L 278.832229 158.266681 
L 278.979018 158.266681 
L 279.075239 158.572099 
L 279.254026 158.572099 
L 279.296583 158.880818 
L 279.419309 158.880818 
L 279.419309 159.036439 
L 279.560574 159.036439 
L 279.560574 159.192912 
L 279.692254 159.192912 
L 279.745064 159.667542 
L 279.940754 159.667542 
L 279.940754 159.827522 
L 280.183957 159.827522 
L 280.183957 159.988403 
L 280.315522 159.988403 
L 280.315522 160.150195 
L 280.449353 160.150195 
L 280.449353 160.31291 
L 280.909618 160.31291 
L 280.992997 160.806691 
L 281.027006 160.806691 
L 281.027006 160.9732 
L 281.147205 160.9732 
L 281.147205 161.140686 
L 281.306628 161.140686 
L 281.306628 161.30916 
L 281.437346 161.30916 
L 281.437346 161.478634 
L 281.720971 161.478634 
L 281.82246 161.82063 
L 282.769221 161.82063 
L 282.844692 162.166771 
L 283.386581 162.166771 
L 283.443874 162.693978 
L 284.578705 162.693978 
L 284.578705 162.8719 
L 284.853764 162.8719 
L 284.855342 163.231103 
L 285.143583 163.231103 
L 285.163934 163.594882 
L 285.847039 163.594882 
L 285.847039 163.778525 
L 286.173273 163.778525 
L 286.173273 163.963356 
L 286.336225 163.963356 
L 286.336225 164.149391 
L 286.515157 164.149391 
L 286.515157 164.336646 
L 286.752901 164.336646 
L 286.808409 164.905893 
L 287.170614 164.905893 
L 287.170614 165.098192 
L 287.419439 165.098192 
L 287.419439 165.291794 
L 287.531387 165.291794 
L 287.635839 165.880605 
L 287.813307 165.880605 
L 287.813307 166.079604 
L 288.713717 166.079604 
L 288.713717 166.28 
L 289.143814 166.28 
L 289.24112 166.68506 
L 289.635489 166.68506 
L 289.635489 166.889765 
L 290.179628 166.889765 
L 290.179628 167.095949 
L 290.778931 167.095949 
L 290.778931 167.303632 
L 290.933872 167.303632 
L 291.031191 167.723585 
L 291.325877 167.723585 
L 291.325877 167.9359 
L 291.537016 167.9359 
L 291.537016 168.149806 
L 291.709339 168.149806 
L 291.709339 168.365326 
L 292.016182 168.365326 
L 292.016182 168.582485 
L 292.128033 168.582485 
L 292.23454 169.021821 
L 292.417619 169.021821 
L 292.418496 169.468022 
L 292.713886 169.468022 
L 292.806841 170.150675 
L 293.137595 170.150675 
L 293.137595 170.381901 
L 293.965804 170.381901 
L 293.998744 170.850048 
L 294.619463 170.850048 
L 294.672057 171.566979 
L 294.949953 171.566979 
L 294.949953 171.810013 
L 295.552187 171.810013 
L 295.552187 172.055133 
L 295.845804 172.055133 
L 295.845804 172.302375 
L 296.001833 172.302375 
L 296.025904 172.803375 
L 296.206076 172.803375 
L 296.206076 173.05721 
L 296.426159 173.05721 
L 296.426159 173.313322 
L 297.147482 173.313322 
L 297.147482 173.571752 
L 297.469459 173.571752 
L 297.469459 173.832542 
L 297.695761 173.832542 
L 297.695761 174.095735 
L 297.815654 174.095735 
L 297.815654 174.361377 
L 297.995518 174.361377 
L 297.995518 174.629513 
L 298.12131 174.629513 
L 298.12131 174.900191 
L 298.435618 174.900191 
L 298.435618 175.173459 
L 299.352136 175.173459 
L 299.391949 175.727967 
L 299.777136 175.727967 
L 299.777136 176.009312 
L 300.1491 176.009312 
L 300.1491 176.293457 
L 300.969359 176.293457 
L 300.969359 176.580457 
L 301.151949 176.580457 
L 301.151949 176.870371 
L 302.191456 176.870371 
L 302.191456 177.163258 
L 302.46314 177.163258 
L 302.46314 177.459181 
L 303.429683 177.459181 
L 303.429683 177.758202 
L 304.15653 177.758202 
L 304.183159 178.365806 
L 304.47907 178.365806 
L 304.47907 178.674525 
L 304.768767 178.674525 
L 304.855479 179.621229 
L 304.996089 179.621229 
L 304.996089 179.943902 
L 305.612625 179.943902 
L 305.612625 180.270264 
L 306.000559 180.270264 
L 306.000559 180.600398 
L 306.754593 180.600398 
L 306.863208 181.272341 
L 306.893245 181.272341 
L 306.893245 181.614337 
L 307.081646 181.614337 
L 307.081646 181.960478 
L 307.928806 181.960478 
L 307.928806 182.310866 
L 308.054516 182.310866 
L 308.147163 183.388589 
L 308.433851 183.388589 
L 308.538614 184.130353 
L 308.592383 184.130353 
L 308.592383 184.508587 
L 309.163412 184.508587 
L 309.163412 184.891899 
L 310.204063 184.891899 
L 310.204063 185.280426 
L 310.581621 185.280426 
L 310.581621 185.674312 
L 311.293315 185.674312 
L 311.293315 186.073707 
L 311.681821 186.073707 
L 311.681821 186.478767 
L 312.389205 186.478767 
L 312.389205 186.889656 
L 313.221033 186.889656 
L 313.221033 187.306543 
L 313.571616 187.306543 
L 313.571616 187.729607 
L 314.137612 187.729607 
L 314.137612 188.159033 
L 314.416822 188.159033 
L 314.485859 189.037757 
L 314.564433 189.037757 
L 314.564433 189.487472 
L 314.760172 189.487472 
L 314.760172 189.944382 
L 316.144016 189.944382 
L 316.144016 190.408722 
L 316.643963 190.408722 
L 316.643963 190.880738 
L 317.062785 190.880738 
L 317.062785 191.360686 
L 319.125982 191.360686 
L 319.125982 191.84884 
L 319.59402 191.84884 
L 319.595456 192.850918 
L 320.031332 192.850918 
L 320.081151 194.42322 
L 320.303334 194.42322 
L 320.303334 194.967166 
L 320.528498 194.967166 
L 320.528498 195.521674 
L 320.689527 195.521674 
L 320.780645 196.664078 
L 321.81766 196.664078 
L 321.81766 197.252888 
L 321.939259 197.252888 
L 321.981811 198.468232 
L 322.087886 198.468232 
L 322.087886 199.095868 
L 322.219797 199.095868 
L 322.219797 199.73761 
L 322.792799 199.73761 
L 322.801308 201.066048 
L 323.275387 201.066048 
L 323.275387 201.754185 
L 325.464468 201.754185 
L 325.464468 202.459314 
L 325.671193 202.459314 
L 325.671193 203.182297 
L 326.060007 203.182297 
L 326.060007 203.92406 
L 327.184654 203.92406 
L 327.184654 204.685606 
L 328.370621 204.685606 
L 328.370621 205.468019 
L 328.622641 205.468019 
L 328.622641 206.272474 
L 328.776823 206.272474 
L 328.776823 207.100251 
L 329.354408 207.100251 
L 329.354408 207.95274 
L 329.901491 207.95274 
L 329.901491 208.831464 
L 330.629228 208.831464 
L 330.629228 209.738089 
L 333.51569 209.738089 
L 333.51569 210.674445 
L 336.240263 210.674445 
L 336.240263 211.642547 
L 337.75984 211.642547 
L 337.75984 212.644625 
L 338.280891 212.644625 
L 338.280891 213.683149 
L 339.379776 213.683149 
L 339.379776 214.760873 
L 340.537708 214.760873 
L 340.537708 215.880871 
L 340.925356 215.880871 
L 340.925356 217.046595 
L 341.22165 217.046595 
L 341.22165 218.26194 
L 341.581162 218.26194 
L 341.623292 220.859755 
L 341.875904 220.859755 
L 341.875904 222.253021 
L 344.377112 222.253021 
L 344.377112 223.717767 
L 347.653558 223.717767 
L 347.653558 225.261726 
L 349.833186 225.261726 
L 349.833186 226.893958 
L 354.258239 226.893958 
L 354.258239 228.625172 
L 363.957315 228.625172 
L 363.957315 230.468152 
L 364.117383 230.468152 
L 364.117383 232.438332 
L 367.655976 232.438332 
L 367.655976 234.55458 
L 373.281342 234.55458 
L 373.281342 236.840302 
L 373.977955 236.840302 
L 373.977955 239.325024 
L 376.822165 239.325024 
L 376.822165 242.046728 
L 378.835068 242.046728 
L 378.835068 245.055433 
L 388.04509 245.055433 
L 388.04509 248.418879 
L 390.71098 248.418879 
L 390.71098 252.232039 
L 391.555425 252.232039 
L 391.555425 256.634009 
L 405.48829 256.634009 
L 405.48829 261.840435 
L 428.489484 261.840435 
L 428.489484 268.212586 
L 434.33889 268.212586 
L 434.33889 276.427716 
L 451.527842 276.427716 
L 451.527842 288.006293 
L 468.733128 288.006293 
L 468.733128 307.8 
L 498.109091 307.8 
L 498.109091 307.8 
" clip-path="url(#p6297019cee)" style="fill: none; stroke: #ff0000; stroke-width: 1.5; stroke-linecap: square"/>
   </g>
   <g id="patch_3">
    <path d="M 72 320.4 
L 72 43.2 
" style="fill: none; stroke: #000000; stroke-width: 0.8; stroke-linejoin: miter; stroke-linecap: square"/>
   </g>
   <g id="patch_4">
    <path d="M 518.4 320.4 
L 518.4 43.2 
" style="fill: none; stroke: #000000; stroke-width: 0.8; stroke-linejoin: miter; stroke-linecap: square"/>
   </g>
   <g id="patch_5">
    <path d="M 72 320.4 
L 518.4 320.4 
" style="fill: none; stroke: #000000; stroke-width: 0.8; stroke-linejoin: miter; stroke-linecap: square"/>
   </g>
   <g id="patch_6">
    <path d="M 72 43.2 
L 518.4 43.2 
" style="fill: none; stroke: #000000; stroke-width: 0.8; stroke-linejoin: miter; stroke-linecap: square"/>
   </g>
   <g id="text_13">
    <!-- Comparison: CDF (log scale expands upper tail) -->
    <g transform="translate(151.960312 37.2) scale(0.12 -0.12)">
     <defs>
      <path id="DejaVuSans-43" d="M 4122 4306 
L 4122 3641 
Q 3803 3938 3442 4084 
Q 3081 4231 2675 4231 
Q 1875 4231 1450 3742 
Q 1025 3253 1025 2328 
Q 1025 1406 1450 917 
Q 1875 428 2675 428 
Q 3081 428 3442 575 
Q 3803 722 4122 1019 
L 4122 359 
Q 3791 134 3420 21 
Q 3050 -91 2638 -91 
Q 1578 -91 968 557 
Q 359 1206 359 2328 
Q 359 3453 968 4101 
Q 1578 4750 2638 4750 
Q 3056 4750 3426 4639 
Q 3797 4528 4122 4306 
z
" transform="scale(0.015625)"/>
      <path id="DejaVuSans-6d" d="M 3328 2828 
Q 3544 3216 3844 3400 
Q 4144 3584 4550 3584 
Q 5097 3584 5394 3201 
Q 5691 2819 5691 2113 
L 5691 0 
L 5113 0 
L 5113 2094 
Q 5113 2597 4934 2840 
Q 4756 3084 4391 3084 
Q 3944 3084 3684 2787 
Q 3425 2491 3425 1978 
L 3425 0 
L 2847 0 
L 2847 2094 
Q 2847 2600 2669 2842 
Q 2491 3084 2119 3084 
Q 1678 3084 1418 2786 
Q 1159 2488 1159 1978 
L 1159 0 
L 581 0 
L 581 3500 
L 1159 3500 
L 1159 2956 
Q 1356 3278 1631 3431 
Q 1906 3584 2284 3584 
Q 2666 3584 2933 3390 
Q 3200 3197 3328 2828 
z
" transform="scale(0.015625)"/>
      <path id="DejaVuSans-70" d="M 1159 525 
L 1159 -1331 
L 581 -1331 
L 581 3500 
L 1159 3500 
L 1159 2969 
Q 1341 3281 1617 3432 
Q 1894 3584 2278 3584 
Q 2916 3584 3314 3078 
Q 3713 2572 3713 1747 
Q 3713 922 3314 415 
Q 2916 -91 2278 -91 
Q 1894 -91 1617 61 
Q 1341 213 1159 525 
z
M 3116 1747 
Q 3116 2381 2855 2742 
Q 2594 3103 2138 3103 
Q 1681 3103 1420 2742 
Q 1159 2381 1159 1747 
Q 1159 1113 1420 752 
Q 1681 391 2138 391 
Q 2594 391 2855 752 
Q 3116 1113 3116 1747 
z
" transform="scale(0.015625)"/>
      <path id="DejaVuSans-73" d="M 2834 3397 
L 2834 2853 
Q 2591 2978 2328 3040 
Q 2066 3103 1784 3103 
Q 1356 3103 1142 2972 
Q 928 2841 928 2578 
Q 928 2378 1081 2264 
Q 1234 2150 1697 2047 
L 1894 2003 
Q 2506 1872 2764 1633 
Q 3022 1394 3022 966 
Q 3022 478 2636 193 
Q 2250 -91 1575 -91 
Q 1294 -91 989 -36 
Q 684 19 347 128 
L 347 722 
Q 666 556 975 473 
Q 1284 391 1588 391 
Q 1994 391 2212 530 
Q 2431 669 2431 922 
Q 2431 1156 2273 1281 
Q 2116 1406 1581 1522 
L 1381 1569 
Q 847 1681 609 1914 
Q 372 2147 372 2553 
Q 372 3047 722 3315 
Q 1072 3584 1716 3584 
Q 2034 3584 2315 3537 
Q 2597 3491 2834 3397 
z
" transform="scale(0.015625)"/>
      <path id="DejaVuSans-3a" d="M 750 794 
L 1409 794 
L 1409 0 
L 750 0 
L 750 794 
z
M 750 3309 
L 1409 3309 
L 1409 2516 
L 750 2516 
L 750 3309 
z
" transform="scale(0.015625)"/>
      <path id="DejaVuSans-44" d="M 1259 4147 
L 1259 519 
L 2022 519 
Q 2988 519 3436 956 
Q 3884 1394 3884 2338 
Q 3884 3275 3436 3711 
Q 2988 4147 2022 4147 
L 1259 4147 
z
M 628 4666 
L 1925 4666 
Q 3281 4666 3915 4102 
Q 4550 3538 4550 2338 
Q 4550 1131 3912 565 
Q 3275 0 1925 0 
L 628 0 
L 628 4666 
z
" transform="scale(0.015625)"/>
      <path id="DejaVuSans-46" d="M 628 4666 
L 3309 4666 
L 3309 4134 
L 1259 4134 
L 1259 2759 
L 3109 2759 
L 3109 2228 
L 1259 2228 
L 1259 0 
L 628 0 
L 628 4666 
z
" transform="scale(0.015625)"/>
      <path id="DejaVuSans-67" d="M 2906 1791 
Q 2906 2416 2648 2759 
Q 2391 3103 1925 3103 
Q 1463 3103 1205 2759 
Q 947 2416 947 1791 
Q 947 1169 1205 825 
Q 1463 481 1925 481 
Q 2391 481 2648 825 
Q 2906 1169 2906 1791 
z
M 3481 434 
Q 3481 -459 3084 -895 
Q 2688 -1331 1869 -1331 
Q 1566 -1331 1297 -1286 
Q 1028 -1241 775 -1147 
L 775 -588 
Q 1028 -725 1275 -790 
Q 1522 -856 1778 -856 
Q 2344 -856 2625 -561 
Q 2906 -266 2906 331 
L 2906 616 
Q 2728 306 2450 153 
Q 2172 0 1784 0 
Q 1141 0 747 490 
Q 353 981 353 1791 
Q 353 2603 747 3093 
Q 1141 3584 1784 3584 
Q 2172 3584 2450 3431 
Q 2728 3278 2906 2969 
L 2906 3500 
L 3481 3500 
L 3481 434 
z
" transform="scale(0.015625)"/>
      <path id="DejaVuSans-75" d="M 544 1381 
L 544 3500 
L 1119 3500 
L 1119 1403 
Q 1119 906 1312 657 
Q 1506 409 1894 409 
Q 2359 409 2629 706 
Q 2900 1003 2900 1516 
L 2900 3500 
L 3475 3500 
L 3475 0 
L 2900 0 
L 2900 538 
Q 2691 219 2414 64 
Q 2138 -91 1772 -91 
Q 1169 -91 856 284 
Q 544 659 544 1381 
z
M 1991 3584 
L 1991 3584 
z
" transform="scale(0.015625)"/>
     </defs>
     <use xlink:href="#DejaVuSans-43"/>
     <use xlink:href="#DejaVuSans-6f" x="69.824219"/>
     <use xlink:href="#DejaVuSans-6d" x="131.005859"/>
     <use xlink:href="#DejaVuSans-70" x="228.417969"/>
     <use xlink:href="#DejaVuSans-61" x="291.894531"/>
     <use xlink:href="#DejaVuSans-72" x="353.173828"/>
     <use xlink:href="#DejaVuSans-69" x="394.287109"/>
     <use xlink:href="#DejaVuSans-73" x="422.070312"/>
     <use xlink:href="#DejaVuSans-6f" x="474.169922"/>
     <use xlink:href="#DejaVuSans-6e" x="535.351562"/>
     <use xlink:href="#DejaVuSans-3a" x="598.730469"/>
     <use xlink:href="#DejaVuSans-20" x="632.421875"/>
     <use xlink:href="#DejaVuSans-43" x="664.208984"/>
     <use xlink:href="#DejaVuSans-44" x="734.033203"/>
     <use xlink:href="#DejaVuSans-46" x="811.035156"/>
     <use xlink:href="#DejaVuSans-20" x="868.554688"/>
     <use xlink:href="#DejaVuSans-28" x="900.341797"/>
     <use xlink:href="#DejaVuSans-6c" x="939.355469"/>
     <use xlink:href="#DejaVuSans-6f" x="967.138672"/>
     <use xlink:href="#DejaVuSans-67" x="1028.320312"/>
     <use xlink:href="#DejaVuSans-20" x="1091.796875"/>
     <use xlink:href="#DejaVuSans-73" x="1123.583984"/>
     <use xlink:href="#DejaVuSans-63" x="1175.683594"/>
     <use xlink:href="#DejaVuSans-61" x="1230.664062"/>
     <use xlink:href="#DejaVuSans-6c" x="1291.943359"/>
     <use xlink:href="#DejaVuSans-65" x="1319.726562"/>
     <use xlink:href="#DejaVuSans-20" x="1381.25"/>
     <use xlink:href="#DejaVuSans-65" x="1413.037109"/>
     <use xlink:href="#DejaVuSans-78" x="1472.810547"/>
     <use xlink:href="#DejaVuSans-70" x="1531.990234"/>
     <use xlink:href="#DejaVuSans-61" x="1595.466797"/>
     <use xlink:href="#DejaVuSans-6e" x="1656.746094"/>
     <use xlink:href="#DejaVuSans-64" x="1720.125"/>
     <use xlink:href="#DejaVuSans-73" x="1783.601562"/>
     <use xlink:href="#DejaVuSans-20" x="1835.701172"/>
     <use xlink:href="#DejaVuSans-75" x="1867.488281"/>
     <use xlink:href="#DejaVuSans-70" x="1930.867188"/>
     <use xlink:href="#DejaVuSans-70" x="1994.34375"/>
     <use xlink:href="#DejaVuSans-65" x="2057.820312"/>
     <use xlink:href="#DejaVuSans-72" x="2119.34375"/>
     <use xlink:href="#DejaVuSans-20" x="2160.457031"/>
     <use xlink:href="#DejaVuSans-74" x="2192.244141"/>
     <use xlink:href="#DejaVuSans-61" x="2231.453125"/>
     <use xlink:href="#DejaVuSans-69" x="2292.732422"/>
     <use xlink:href="#DejaVuSans-6c" x="2320.515625"/>
     <use xlink:href="#DejaVuSans-29" x="2348.298828"/>
    </g>
   </g>
   <g id="legend_1">
    <g id="patch_7">
     <path d="M 416.765625 80.55625 
L 511.4 80.55625 
Q 513.4 80.55625 513.4 78.55625 
L 513.4 50.2 
Q 513.4 48.2 511.4 48.2 
L 416.765625 48.2 
Q 414.765625 48.2 414.765625 50.2 
L 414.765625 78.55625 
Q 414.765625 80.55625 416.765625 80.55625 
z
" style="fill: #ffffff; opacity: 0.8; stroke: #cccccc; stroke-linejoin: miter"/>
    </g>
    <g id="line2d_55">
     <path d="M 418.765625 56.298437 
L 418.765625 56.298437 
L 428.765625 56.298437 
L 428.765625 56.298437 
L 438.765625 56.298437 
" style="fill: none; stroke: #000000; stroke-width: 1.5; stroke-linecap: square"/>
    </g>
    <g id="text_14">
     <!-- Data -->
     <g transform="translate(446.765625 59.798437) scale(0.1 -0.1)">
      <use xlink:href="#DejaVuSans-44"/>
      <use xlink:href="#DejaVuSans-61" x="77.001953"/>
      <use xlink:href="#DejaVuSans-74" x="138.28125"/>
      <use xlink:href="#DejaVuSans-61" x="177.490234"/>
     </g>
    </g>
    <g id="line2d_56">
     <path d="M 418.765625 70.976562 
L 418.765625 70.976562 
L 428.765625 70.976562 
L 428.765625 70.976562 
L 438.765625 70.976562 
" style="fill: none; stroke: #ff0000; stroke-width: 1.5; stroke-linecap: square"/>
    </g>
    <g id="text_15">
     <!-- MCS Sample -->
     <g transform="translate(446.765625 74.476562) scale(0.1 -0.1)">
      <defs>
       <path id="DejaVuSans-4d" d="M 628 4666 
L 1569 4666 
L 2759 1491 
L 3956 4666 
L 4897 4666 
L 4897 0 
L 4281 0 
L 4281 4097 
L 3078 897 
L 2444 897 
L 1241 4097 
L 1241 0 
L 628 0 
L 628 4666 
z
" transform="scale(0.015625)"/>
       <path id="DejaVuSans-53" d="M 3425 4513 
L 3425 3897 
Q 3066 4069 2747 4153 
Q 2428 4238 2131 4238 
Q 1616 4238 1336 4038 
Q 1056 3838 1056 3469 
Q 1056 3159 1242 3001 
Q 1428 2844 1947 2747 
L 2328 2669 
Q 3034 2534 3370 2195 
Q 3706 1856 3706 1288 
Q 3706 609 3251 259 
Q 2797 -91 1919 -91 
Q 1588 -91 1214 -16 
Q 841 59 441 206 
L 441 856 
Q 825 641 1194 531 
Q 1563 422 1919 422 
Q 2459 422 2753 634 
Q 3047 847 3047 1241 
Q 3047 1584 2836 1778 
Q 2625 1972 2144 2069 
L 1759 2144 
Q 1053 2284 737 2584 
Q 422 2884 422 3419 
Q 422 4038 858 4394 
Q 1294 4750 2059 4750 
Q 2388 4750 2728 4690 
Q 3069 4631 3425 4513 
z
" transform="scale(0.015625)"/>
      </defs>
      <use xlink:href="#DejaVuSans-4d"/>
      <use xlink:href="#DejaVuSans-43" x="86.279297"/>
      <use xlink:href="#DejaVuSans-53" x="156.103516"/>
      <use xlink:href="#DejaVuSans-20" x="219.580078"/>
      <use xlink:href="#DejaVuSans-53" x="251.367188"/>
      <use xlink:href="#DejaVuSans-61" x="314.84375"/>
      <use xlink:href="#DejaVuSans-6d" x="376.123047"/>
      <use xlink:href="#DejaVuSans-70" x="473.535156"/>
      <use xlink:href="#DejaVuSans-6c" x="537.011719"/>
      <use xlink:href="#DejaVuSans-65" x="564.794922"/>
     </g>
    </g>
   </g>
  </g>
 </g>
 <defs>
  <clipPath id="p6297019cee">
   <rect x="72" y="43.2" width="446.4" height="277.2"/>
  </clipPath>
 </defs>
</svg>
