<?xml version="1.0" encoding="utf-8" standalone="no"?>
<!DOCTYPE svg PUBLIC "-//W3C//DTD SVG 1.1//EN"
  "http://www.w3.org/Graphics/SVG/1.1/DTD/svg11.dtd">
<svg xmlns:xlink="http://www.w3.org/1999/xlink" width="460.8pt" height="345.6pt" viewBox="0 0 460.8 345.6" xmlns="http://www.w3.org/2000/svg" version="1.1">
 <metadata>
  <rdf:RDF xmlns:dc="http://purl.org/dc/elements/1.1/" xmlns:cc="http://creativecommons.org/ns#" xmlns:rdf="http://www.w3.org/1999/02/22-rdf-syntax-ns#">
   <cc:Work>
    <dc:type rdf:resource="http://purl.org/dc/dcmitype/StillImage"/>
    <dc:date>2024-10-24T22:33:51.338430</dc:date>
    <dc:format>image/svg+xml</dc:format>
    <dc:creator>
     <cc:Agent>
      <dc:title>Matplotlib v3.9.2, https://matplotlib.org/</dc:title>
     </cc:Agent>
    </dc:creator>
   </cc:Work>
  </rdf:RDF>
 </metadata>
 <defs>
  <style type="text/css">*{stroke-linejoin: round; stroke-linecap: butt}</style>
 </defs>
 <g id="figure_1">
  <g id="patch_1">
   <path d="M 0 345.6 
L 460.8 345.6 
L 460.8 0 
L 0 0 
z
" style="fill: #ffffff"/>
  </g>
  <g id="axes_1">
   <g id="patch_2">
    <path d="M 103.104 307.584 
L 369.216 307.584 
L 369.216 41.472 
L 103.104 41.472 
z
" style="fill: #ffffff"/>
   </g>
   <g id="PathCollection_1">
    <defs>
     <path id="C0_0_84b92e760b" d="M 0 1.581139 
C 0.419323 1.581139 0.821528 1.41454 1.118034 1.118034 
C 1.41454 0.821528 1.581139 0.419323 1.581139 -0 
C 1.581139 -0.419323 1.41454 -0.821528 1.118034 -1.118034 
C 0.821528 -1.41454 0.419323 -1.581139 0 -1.581139 
C -0.419323 -1.581139 -0.821528 -1.41454 -1.118034 -1.118034 
C -1.41454 -0.821528 -1.581139 -0.419323 -1.581139 0 
C -1.581139 0.419323 -1.41454 0.821528 -1.118034 1.118034 
C -0.821528 1.41454 -0.419323 1.581139 0 1.581139 
z
"/>
    </defs>
    <g clip-path="url(#p57bfc6c8b8)">
     <use xlink:href="#C0_0_84b92e760b" x="209.281394" y="189.118277" style="fill: none; stroke: #a9a9a9"/>
    </g>
    <g clip-path="url(#p57bfc6c8b8)">
     <use xlink:href="#C0_0_84b92e760b" x="214.144197" y="151.61884" style="fill: none; stroke: #a9a9a9"/>
    </g>
    <g clip-path="url(#p57bfc6c8b8)">
     <use xlink:href="#C0_0_84b92e760b" x="182.144125" y="164.118652" style="fill: none; stroke: #a9a9a9"/>
    </g>
    <g clip-path="url(#p57bfc6c8b8)">
     <use xlink:href="#C0_0_84b92e760b" x="212.443048" y="201.61809" style="fill: none; stroke: #a9a9a9"/>
    </g>
    <g clip-path="url(#p57bfc6c8b8)">
     <use xlink:href="#C0_0_84b92e760b" x="175.952965" y="176.618465" style="fill: none; stroke: #a9a9a9"/>
    </g>
    <g clip-path="url(#p57bfc6c8b8)">
     <use xlink:href="#C0_0_84b92e760b" x="208.013177" y="151.61884" style="fill: none; stroke: #a9a9a9"/>
    </g>
    <g clip-path="url(#p57bfc6c8b8)">
     <use xlink:href="#C0_0_84b92e760b" x="253.3298" y="176.618465" style="fill: none; stroke: #a9a9a9"/>
    </g>
    <g clip-path="url(#p57bfc6c8b8)">
     <use xlink:href="#C0_0_84b92e760b" x="224.441608" y="164.118652" style="fill: none; stroke: #a9a9a9"/>
    </g>
    <g clip-path="url(#p57bfc6c8b8)">
     <use xlink:href="#C0_0_84b92e760b" x="210.658456" y="164.118652" style="fill: none; stroke: #a9a9a9"/>
    </g>
    <g clip-path="url(#p57bfc6c8b8)">
     <use xlink:href="#C0_0_84b92e760b" x="205.001637" y="151.61884" style="fill: none; stroke: #a9a9a9"/>
    </g>
    <g clip-path="url(#p57bfc6c8b8)">
     <use xlink:href="#C0_0_84b92e760b" x="224.168491" y="164.118652" style="fill: none; stroke: #a9a9a9"/>
    </g>
    <g clip-path="url(#p57bfc6c8b8)">
     <use xlink:href="#C0_0_84b92e760b" x="188.827715" y="176.618465" style="fill: none; stroke: #a9a9a9"/>
    </g>
    <g clip-path="url(#p57bfc6c8b8)">
     <use xlink:href="#C0_0_84b92e760b" x="204.065068" y="201.61809" style="fill: none; stroke: #a9a9a9"/>
    </g>
    <g clip-path="url(#p57bfc6c8b8)">
     <use xlink:href="#C0_0_84b92e760b" x="213.679214" y="201.61809" style="fill: none; stroke: #a9a9a9"/>
    </g>
    <g clip-path="url(#p57bfc6c8b8)">
     <use xlink:href="#C0_0_84b92e760b" x="189.426184" y="201.61809" style="fill: none; stroke: #a9a9a9"/>
    </g>
    <g clip-path="url(#p57bfc6c8b8)">
     <use xlink:href="#C0_0_84b92e760b" x="208.197517" y="201.61809" style="fill: none; stroke: #a9a9a9"/>
    </g>
    <g clip-path="url(#p57bfc6c8b8)">
     <use xlink:href="#C0_0_84b92e760b" x="277.535847" y="89.119778" style="fill: none; stroke: #a9a9a9"/>
    </g>
    <g clip-path="url(#p57bfc6c8b8)">
     <use xlink:href="#C0_0_84b92e760b" x="237.074163" y="189.118277" style="fill: none; stroke: #a9a9a9"/>
    </g>
    <g clip-path="url(#p57bfc6c8b8)">
     <use xlink:href="#C0_0_84b92e760b" x="252.391873" y="139.119027" style="fill: none; stroke: #a9a9a9"/>
    </g>
    <g clip-path="url(#p57bfc6c8b8)">
     <use xlink:href="#C0_0_84b92e760b" x="201.538805" y="201.61809" style="fill: none; stroke: #a9a9a9"/>
    </g>
    <g clip-path="url(#p57bfc6c8b8)">
     <use xlink:href="#C0_0_84b92e760b" x="241.625951" y="164.118652" style="fill: none; stroke: #a9a9a9"/>
    </g>
    <g clip-path="url(#p57bfc6c8b8)">
     <use xlink:href="#C0_0_84b92e760b" x="271.662391" y="164.118652" style="fill: none; stroke: #a9a9a9"/>
    </g>
    <g clip-path="url(#p57bfc6c8b8)">
     <use xlink:href="#C0_0_84b92e760b" x="233.788454" y="139.119027" style="fill: none; stroke: #a9a9a9"/>
    </g>
    <g clip-path="url(#p57bfc6c8b8)">
     <use xlink:href="#C0_0_84b92e760b" x="212.301186" y="189.118277" style="fill: none; stroke: #a9a9a9"/>
    </g>
    <g clip-path="url(#p57bfc6c8b8)">
     <use xlink:href="#C0_0_84b92e760b" x="244.92453" y="151.61884" style="fill: none; stroke: #a9a9a9"/>
    </g>
    <g clip-path="url(#p57bfc6c8b8)">
     <use xlink:href="#C0_0_84b92e760b" x="203.893759" y="176.618465" style="fill: none; stroke: #a9a9a9"/>
    </g>
    <g clip-path="url(#p57bfc6c8b8)">
     <use xlink:href="#C0_0_84b92e760b" x="185.239807" y="176.618465" style="fill: none; stroke: #a9a9a9"/>
    </g>
    <g clip-path="url(#p57bfc6c8b8)">
     <use xlink:href="#C0_0_84b92e760b" x="258.968849" y="176.618465" style="fill: none; stroke: #a9a9a9"/>
    </g>
    <g clip-path="url(#p57bfc6c8b8)">
     <use xlink:href="#C0_0_84b92e760b" x="253.249805" y="126.619215" style="fill: none; stroke: #a9a9a9"/>
    </g>
    <g clip-path="url(#p57bfc6c8b8)">
     <use xlink:href="#C0_0_84b92e760b" x="180.880168" y="176.618465" style="fill: none; stroke: #a9a9a9"/>
    </g>
    <g clip-path="url(#p57bfc6c8b8)">
     <use xlink:href="#C0_0_84b92e760b" x="182.40941" y="201.61809" style="fill: none; stroke: #a9a9a9"/>
    </g>
    <g clip-path="url(#p57bfc6c8b8)">
     <use xlink:href="#C0_0_84b92e760b" x="215.729523" y="201.61809" style="fill: none; stroke: #a9a9a9"/>
    </g>
    <g clip-path="url(#p57bfc6c8b8)">
     <use xlink:href="#C0_0_84b92e760b" x="190.54653" y="189.118277" style="fill: none; stroke: #a9a9a9"/>
    </g>
    <g clip-path="url(#p57bfc6c8b8)">
     <use xlink:href="#C0_0_84b92e760b" x="258.465064" y="126.619215" style="fill: none; stroke: #a9a9a9"/>
    </g>
    <g clip-path="url(#p57bfc6c8b8)">
     <use xlink:href="#C0_0_84b92e760b" x="199.40116" y="201.61809" style="fill: none; stroke: #a9a9a9"/>
    </g>
    <g clip-path="url(#p57bfc6c8b8)">
     <use xlink:href="#C0_0_84b92e760b" x="217.016261" y="189.118277" style="fill: none; stroke: #a9a9a9"/>
    </g>
    <g clip-path="url(#p57bfc6c8b8)">
     <use xlink:href="#C0_0_84b92e760b" x="196.803436" y="214.117902" style="fill: none; stroke: #a9a9a9"/>
    </g>
    <g clip-path="url(#p57bfc6c8b8)">
     <use xlink:href="#C0_0_84b92e760b" x="153.025315" y="201.61809" style="fill: none; stroke: #a9a9a9"/>
    </g>
    <g clip-path="url(#p57bfc6c8b8)">
     <use xlink:href="#C0_0_84b92e760b" x="200.446232" y="189.118277" style="fill: none; stroke: #a9a9a9"/>
    </g>
    <g clip-path="url(#p57bfc6c8b8)">
     <use xlink:href="#C0_0_84b92e760b" x="205.607264" y="176.618465" style="fill: none; stroke: #a9a9a9"/>
    </g>
    <g clip-path="url(#p57bfc6c8b8)">
     <use xlink:href="#C0_0_84b92e760b" x="147.641674" y="189.118277" style="fill: none; stroke: #a9a9a9"/>
    </g>
    <g clip-path="url(#p57bfc6c8b8)">
     <use xlink:href="#C0_0_84b92e760b" x="244.451074" y="114.119403" style="fill: none; stroke: #a9a9a9"/>
    </g>
    <g clip-path="url(#p57bfc6c8b8)">
     <use xlink:href="#C0_0_84b92e760b" x="196.507456" y="164.118652" style="fill: none; stroke: #a9a9a9"/>
    </g>
    <g clip-path="url(#p57bfc6c8b8)">
     <use xlink:href="#C0_0_84b92e760b" x="182.973618" y="189.118277" style="fill: none; stroke: #a9a9a9"/>
    </g>
    <g clip-path="url(#p57bfc6c8b8)">
     <use xlink:href="#C0_0_84b92e760b" x="211.214363" y="114.119403" style="fill: none; stroke: #a9a9a9"/>
    </g>
    <g clip-path="url(#p57bfc6c8b8)">
     <use xlink:href="#C0_0_84b92e760b" x="230.634338" y="201.61809" style="fill: none; stroke: #a9a9a9"/>
    </g>
    <g clip-path="url(#p57bfc6c8b8)">
     <use xlink:href="#C0_0_84b92e760b" x="238.670893" y="164.118652" style="fill: none; stroke: #a9a9a9"/>
    </g>
    <g clip-path="url(#p57bfc6c8b8)">
     <use xlink:href="#C0_0_84b92e760b" x="184.295748" y="214.117902" style="fill: none; stroke: #a9a9a9"/>
    </g>
    <g clip-path="url(#p57bfc6c8b8)">
     <use xlink:href="#C0_0_84b92e760b" x="187.068133" y="201.61809" style="fill: none; stroke: #a9a9a9"/>
    </g>
    <g clip-path="url(#p57bfc6c8b8)">
     <use xlink:href="#C0_0_84b92e760b" x="221.466792" y="164.118652" style="fill: none; stroke: #a9a9a9"/>
    </g>
    <g clip-path="url(#p57bfc6c8b8)">
     <use xlink:href="#C0_0_84b92e760b" x="144.016654" y="214.117902" style="fill: none; stroke: #a9a9a9"/>
    </g>
    <g clip-path="url(#p57bfc6c8b8)">
     <use xlink:href="#C0_0_84b92e760b" x="242.460479" y="189.118277" style="fill: none; stroke: #a9a9a9"/>
    </g>
    <g clip-path="url(#p57bfc6c8b8)">
     <use xlink:href="#C0_0_84b92e760b" x="150.426514" y="214.117902" style="fill: none; stroke: #a9a9a9"/>
    </g>
    <g clip-path="url(#p57bfc6c8b8)">
     <use xlink:href="#C0_0_84b92e760b" x="160.141104" y="176.618465" style="fill: none; stroke: #a9a9a9"/>
    </g>
    <g clip-path="url(#p57bfc6c8b8)">
     <use xlink:href="#C0_0_84b92e760b" x="185.926866" y="176.618465" style="fill: none; stroke: #a9a9a9"/>
    </g>
    <g clip-path="url(#p57bfc6c8b8)">
     <use xlink:href="#C0_0_84b92e760b" x="196.874328" y="176.618465" style="fill: none; stroke: #a9a9a9"/>
    </g>
    <g clip-path="url(#p57bfc6c8b8)">
     <use xlink:href="#C0_0_84b92e760b" x="212.809241" y="176.618465" style="fill: none; stroke: #a9a9a9"/>
    </g>
    <g clip-path="url(#p57bfc6c8b8)">
     <use xlink:href="#C0_0_84b92e760b" x="194.179376" y="201.61809" style="fill: none; stroke: #a9a9a9"/>
    </g>
    <g clip-path="url(#p57bfc6c8b8)">
     <use xlink:href="#C0_0_84b92e760b" x="253.644998" y="214.117902" style="fill: none; stroke: #a9a9a9"/>
    </g>
    <g clip-path="url(#p57bfc6c8b8)">
     <use xlink:href="#C0_0_84b92e760b" x="214.97794" y="214.117902" style="fill: none; stroke: #a9a9a9"/>
    </g>
    <g clip-path="url(#p57bfc6c8b8)">
     <use xlink:href="#C0_0_84b92e760b" x="213.035502" y="164.118652" style="fill: none; stroke: #a9a9a9"/>
    </g>
    <g clip-path="url(#p57bfc6c8b8)">
     <use xlink:href="#C0_0_84b92e760b" x="196.668655" y="189.118277" style="fill: none; stroke: #a9a9a9"/>
    </g>
    <g clip-path="url(#p57bfc6c8b8)">
     <use xlink:href="#C0_0_84b92e760b" x="226.742321" y="214.117902" style="fill: none; stroke: #a9a9a9"/>
    </g>
    <g clip-path="url(#p57bfc6c8b8)">
     <use xlink:href="#C0_0_84b92e760b" x="293.405177" y="176.618465" style="fill: none; stroke: #a9a9a9"/>
    </g>
    <g clip-path="url(#p57bfc6c8b8)">
     <use xlink:href="#C0_0_84b92e760b" x="163.071759" y="151.61884" style="fill: none; stroke: #a9a9a9"/>
    </g>
    <g clip-path="url(#p57bfc6c8b8)">
     <use xlink:href="#C0_0_84b92e760b" x="224.222753" y="176.618465" style="fill: none; stroke: #a9a9a9"/>
    </g>
    <g clip-path="url(#p57bfc6c8b8)">
     <use xlink:href="#C0_0_84b92e760b" x="242.526341" y="201.61809" style="fill: none; stroke: #a9a9a9"/>
    </g>
    <g clip-path="url(#p57bfc6c8b8)">
     <use xlink:href="#C0_0_84b92e760b" x="158.218269" y="151.61884" style="fill: none; stroke: #a9a9a9"/>
    </g>
   </g>
   <g id="matplotlib.axis_1">
    <g id="xtick_1">
     <g id="line2d_1">
      <defs>
       <path id="m53da1dc09a" d="M 0 0 
L 0 3.5 
" style="stroke: #000000; stroke-width: 0.8"/>
      </defs>
      <g>
       <use xlink:href="#m53da1dc09a" x="103.104" y="307.584" style="stroke: #000000; stroke-width: 0.8"/>
      </g>
     </g>
     <g id="text_1">
      <!-- 0.0 -->
      <g transform="translate(95.152438 322.182437) scale(0.1 -0.1)">
       <defs>
        <path id="DejaVuSans-30" d="M 2034 4250 
Q 1547 4250 1301 3770 
Q 1056 3291 1056 2328 
Q 1056 1369 1301 889 
Q 1547 409 2034 409 
Q 2525 409 2770 889 
Q 3016 1369 3016 2328 
Q 3016 3291 2770 3770 
Q 2525 4250 2034 4250 
z
M 2034 4750 
Q 2819 4750 3233 4129 
Q 3647 3509 3647 2328 
Q 3647 1150 3233 529 
Q 2819 -91 2034 -91 
Q 1250 -91 836 529 
Q 422 1150 422 2328 
Q 422 3509 836 4129 
Q 1250 4750 2034 4750 
z
" transform="scale(0.015625)"/>
        <path id="DejaVuSans-2e" d="M 684 794 
L 1344 794 
L 1344 0 
L 684 0 
L 684 794 
z
" transform="scale(0.015625)"/>
       </defs>
       <use xlink:href="#DejaVuSans-30"/>
       <use xlink:href="#DejaVuSans-2e" x="63.623047"/>
       <use xlink:href="#DejaVuSans-30" x="95.410156"/>
      </g>
     </g>
    </g>
    <g id="xtick_2">
     <g id="line2d_2">
      <g>
       <use xlink:href="#m53da1dc09a" x="147.456" y="307.584" style="stroke: #000000; stroke-width: 0.8"/>
      </g>
     </g>
     <g id="text_2">
      <!-- 0.5 -->
      <g transform="translate(139.504438 322.182437) scale(0.1 -0.1)">
       <defs>
        <path id="DejaVuSans-35" d="M 691 4666 
L 3169 4666 
L 3169 4134 
L 1269 4134 
L 1269 2991 
Q 1406 3038 1543 3061 
Q 1681 3084 1819 3084 
Q 2600 3084 3056 2656 
Q 3513 2228 3513 1497 
Q 3513 744 3044 326 
Q 2575 -91 1722 -91 
Q 1428 -91 1123 -41 
Q 819 9 494 109 
L 494 744 
Q 775 591 1075 516 
Q 1375 441 1709 441 
Q 2250 441 2565 725 
Q 2881 1009 2881 1497 
Q 2881 1984 2565 2268 
Q 2250 2553 1709 2553 
Q 1456 2553 1204 2497 
Q 953 2441 691 2322 
L 691 4666 
z
" transform="scale(0.015625)"/>
       </defs>
       <use xlink:href="#DejaVuSans-30"/>
       <use xlink:href="#DejaVuSans-2e" x="63.623047"/>
       <use xlink:href="#DejaVuSans-35" x="95.410156"/>
      </g>
     </g>
    </g>
    <g id="xtick_3">
     <g id="line2d_3">
      <g>
       <use xlink:href="#m53da1dc09a" x="191.808" y="307.584" style="stroke: #000000; stroke-width: 0.8"/>
      </g>
     </g>
     <g id="text_3">
      <!-- 1.0 -->
      <g transform="translate(183.856437 322.182437) scale(0.1 -0.1)">
       <defs>
        <path id="DejaVuSans-31" d="M 794 531 
L 1825 531 
L 1825 4091 
L 703 3866 
L 703 4441 
L 1819 4666 
L 2450 4666 
L 2450 531 
L 3481 531 
L 3481 0 
L 794 0 
L 794 531 
z
" transform="scale(0.015625)"/>
       </defs>
       <use xlink:href="#DejaVuSans-31"/>
       <use xlink:href="#DejaVuSans-2e" x="63.623047"/>
       <use xlink:href="#DejaVuSans-30" x="95.410156"/>
      </g>
     </g>
    </g>
    <g id="xtick_4">
     <g id="line2d_4">
      <g>
       <use xlink:href="#m53da1dc09a" x="236.16" y="307.584" style="stroke: #000000; stroke-width: 0.8"/>
      </g>
     </g>
     <g id="text_4">
      <!-- 1.5 -->
      <g transform="translate(228.208438 322.182437) scale(0.1 -0.1)">
       <use xlink:href="#DejaVuSans-31"/>
       <use xlink:href="#DejaVuSans-2e" x="63.623047"/>
       <use xlink:href="#DejaVuSans-35" x="95.410156"/>
      </g>
     </g>
    </g>
    <g id="xtick_5">
     <g id="line2d_5">
      <g>
       <use xlink:href="#m53da1dc09a" x="280.512" y="307.584" style="stroke: #000000; stroke-width: 0.8"/>
      </g>
     </g>
     <g id="text_5">
      <!-- 2.0 -->
      <g transform="translate(272.560437 322.182437) scale(0.1 -0.1)">
       <defs>
        <path id="DejaVuSans-32" d="M 1228 531 
L 3431 531 
L 3431 0 
L 469 0 
L 469 531 
Q 828 903 1448 1529 
Q 2069 2156 2228 2338 
Q 2531 2678 2651 2914 
Q 2772 3150 2772 3378 
Q 2772 3750 2511 3984 
Q 2250 4219 1831 4219 
Q 1534 4219 1204 4116 
Q 875 4013 500 3803 
L 500 4441 
Q 881 4594 1212 4672 
Q 1544 4750 1819 4750 
Q 2544 4750 2975 4387 
Q 3406 4025 3406 3419 
Q 3406 3131 3298 2873 
Q 3191 2616 2906 2266 
Q 2828 2175 2409 1742 
Q 1991 1309 1228 531 
z
" transform="scale(0.015625)"/>
       </defs>
       <use xlink:href="#DejaVuSans-32"/>
       <use xlink:href="#DejaVuSans-2e" x="63.623047"/>
       <use xlink:href="#DejaVuSans-30" x="95.410156"/>
      </g>
     </g>
    </g>
    <g id="xtick_6">
     <g id="line2d_6">
      <g>
       <use xlink:href="#m53da1dc09a" x="324.864" y="307.584" style="stroke: #000000; stroke-width: 0.8"/>
      </g>
     </g>
     <g id="text_6">
      <!-- 2.5 -->
      <g transform="translate(316.912437 322.182437) scale(0.1 -0.1)">
       <use xlink:href="#DejaVuSans-32"/>
       <use xlink:href="#DejaVuSans-2e" x="63.623047"/>
       <use xlink:href="#DejaVuSans-35" x="95.410156"/>
      </g>
     </g>
    </g>
    <g id="xtick_7">
     <g id="line2d_7">
      <g>
       <use xlink:href="#m53da1dc09a" x="369.216" y="307.584" style="stroke: #000000; stroke-width: 0.8"/>
      </g>
     </g>
     <g id="text_7">
      <!-- 3.0 -->
      <g transform="translate(361.264437 322.182437) scale(0.1 -0.1)">
       <defs>
        <path id="DejaVuSans-33" d="M 2597 2516 
Q 3050 2419 3304 2112 
Q 3559 1806 3559 1356 
Q 3559 666 3084 287 
Q 2609 -91 1734 -91 
Q 1441 -91 1130 -33 
Q 819 25 488 141 
L 488 750 
Q 750 597 1062 519 
Q 1375 441 1716 441 
Q 2309 441 2620 675 
Q 2931 909 2931 1356 
Q 2931 1769 2642 2001 
Q 2353 2234 1838 2234 
L 1294 2234 
L 1294 2753 
L 1863 2753 
Q 2328 2753 2575 2939 
Q 2822 3125 2822 3475 
Q 2822 3834 2567 4026 
Q 2313 4219 1838 4219 
Q 1578 4219 1281 4162 
Q 984 4106 628 3988 
L 628 4550 
Q 988 4650 1302 4700 
Q 1616 4750 1894 4750 
Q 2613 4750 3031 4423 
Q 3450 4097 3450 3541 
Q 3450 3153 3228 2886 
Q 3006 2619 2597 2516 
z
" transform="scale(0.015625)"/>
       </defs>
       <use xlink:href="#DejaVuSans-33"/>
       <use xlink:href="#DejaVuSans-2e" x="63.623047"/>
       <use xlink:href="#DejaVuSans-30" x="95.410156"/>
      </g>
     </g>
    </g>
    <g id="text_8">
     <!-- $X_1$ -->
     <g transform="translate(228.04 338.899937) scale(0.14 -0.14)">
      <defs>
       <path id="DejaVuSans-Oblique-58" d="M 878 4666 
L 1516 4666 
L 2316 2981 
L 3763 4666 
L 4500 4666 
L 2578 2438 
L 3738 0 
L 3103 0 
L 2163 1966 
L 459 0 
L -275 0 
L 1906 2509 
L 878 4666 
z
" transform="scale(0.015625)"/>
      </defs>
      <use xlink:href="#DejaVuSans-Oblique-58" transform="translate(0 0.09375)"/>
      <use xlink:href="#DejaVuSans-31" transform="translate(68.505859 -16.3125) scale(0.7)"/>
     </g>
    </g>
   </g>
   <g id="matplotlib.axis_2">
    <g id="ytick_1">
     <g id="line2d_8">
      <defs>
       <path id="ma83c869513" d="M 0 0 
L -3.5 0 
" style="stroke: #000000; stroke-width: 0.8"/>
      </defs>
      <g>
       <use xlink:href="#ma83c869513" x="103.104" y="307.584" style="stroke: #000000; stroke-width: 0.8"/>
      </g>
     </g>
     <g id="text_9">
      <!-- 0.0 -->
      <g transform="translate(80.200875 311.383219) scale(0.1 -0.1)">
       <use xlink:href="#DejaVuSans-30"/>
       <use xlink:href="#DejaVuSans-2e" x="63.623047"/>
       <use xlink:href="#DejaVuSans-30" x="95.410156"/>
      </g>
     </g>
    </g>
    <g id="ytick_2">
     <g id="line2d_9">
      <g>
       <use xlink:href="#ma83c869513" x="103.104" y="263.232" style="stroke: #000000; stroke-width: 0.8"/>
      </g>
     </g>
     <g id="text_10">
      <!-- 0.5 -->
      <g transform="translate(80.200875 267.031219) scale(0.1 -0.1)">
       <use xlink:href="#DejaVuSans-30"/>
       <use xlink:href="#DejaVuSans-2e" x="63.623047"/>
       <use xlink:href="#DejaVuSans-35" x="95.410156"/>
      </g>
     </g>
    </g>
    <g id="ytick_3">
     <g id="line2d_10">
      <g>
       <use xlink:href="#ma83c869513" x="103.104" y="218.88" style="stroke: #000000; stroke-width: 0.8"/>
      </g>
     </g>
     <g id="text_11">
      <!-- 1.0 -->
      <g transform="translate(80.200875 222.679219) scale(0.1 -0.1)">
       <use xlink:href="#DejaVuSans-31"/>
       <use xlink:href="#DejaVuSans-2e" x="63.623047"/>
       <use xlink:href="#DejaVuSans-30" x="95.410156"/>
      </g>
     </g>
    </g>
    <g id="ytick_4">
     <g id="line2d_11">
      <g>
       <use xlink:href="#ma83c869513" x="103.104" y="174.528" style="stroke: #000000; stroke-width: 0.8"/>
      </g>
     </g>
     <g id="text_12">
      <!-- 1.5 -->
      <g transform="translate(80.200875 178.327219) scale(0.1 -0.1)">
       <use xlink:href="#DejaVuSans-31"/>
       <use xlink:href="#DejaVuSans-2e" x="63.623047"/>
       <use xlink:href="#DejaVuSans-35" x="95.410156"/>
      </g>
     </g>
    </g>
    <g id="ytick_5">
     <g id="line2d_12">
      <g>
       <use xlink:href="#ma83c869513" x="103.104" y="130.176" style="stroke: #000000; stroke-width: 0.8"/>
      </g>
     </g>
     <g id="text_13">
      <!-- 2.0 -->
      <g transform="translate(80.200875 133.975219) scale(0.1 -0.1)">
       <use xlink:href="#DejaVuSans-32"/>
       <use xlink:href="#DejaVuSans-2e" x="63.623047"/>
       <use xlink:href="#DejaVuSans-30" x="95.410156"/>
      </g>
     </g>
    </g>
    <g id="ytick_6">
     <g id="line2d_13">
      <g>
       <use xlink:href="#ma83c869513" x="103.104" y="85.824" style="stroke: #000000; stroke-width: 0.8"/>
      </g>
     </g>
     <g id="text_14">
      <!-- 2.5 -->
      <g transform="translate(80.200875 89.623219) scale(0.1 -0.1)">
       <use xlink:href="#DejaVuSans-32"/>
       <use xlink:href="#DejaVuSans-2e" x="63.623047"/>
       <use xlink:href="#DejaVuSans-35" x="95.410156"/>
      </g>
     </g>
    </g>
    <g id="ytick_7">
     <g id="line2d_14">
      <g>
       <use xlink:href="#ma83c869513" x="103.104" y="41.472" style="stroke: #000000; stroke-width: 0.8"/>
      </g>
     </g>
     <g id="text_15">
      <!-- 3.0 -->
      <g transform="translate(80.200875 45.271219) scale(0.1 -0.1)">
       <use xlink:href="#DejaVuSans-33"/>
       <use xlink:href="#DejaVuSans-2e" x="63.623047"/>
       <use xlink:href="#DejaVuSans-30" x="95.410156"/>
      </g>
     </g>
    </g>
    <g id="text_16">
     <!-- $X_2$ -->
     <g transform="translate(73.289313 182.648) rotate(-90) scale(0.14 -0.14)">
      <use xlink:href="#DejaVuSans-Oblique-58" transform="translate(0 0.09375)"/>
      <use xlink:href="#DejaVuSans-32" transform="translate(68.505859 -16.3125) scale(0.7)"/>
     </g>
    </g>
   </g>
   <g id="QuadContourSet_1">
    <path clip-path="url(#p57bfc6c8b8)" style="fill: none; stroke: #f7fbff; stroke-width: 1.5"/>
    <path d="M 159.552 218.974125 
L 162.24 219.605471 
L 164.928 220.105511 
L 167.616 220.496784 
L 170.304 220.797017 
L 172.992 221.020128 
L 175.68 221.176983 
L 178.368 221.275975 
L 181.056 221.323456 
L 183.744 221.324059 
L 186.432 221.280929 
L 189.12 221.195884 
L 191.808 221.069507 
L 194.496 220.90119 
L 197.184 220.689112 
L 199.872 220.430176 
L 202.56 220.119875 
L 205.248 219.752101 
L 207.936 219.31887 
L 210.274098 218.88 
L 210.624 218.828118 
L 213.312 218.390454 
L 216 217.885227 
L 218.688 217.299688 
L 221.376 216.617819 
L 222.875063 216.192 
L 224.064 215.907192 
L 226.752 215.197974 
L 229.44 214.371757 
L 231.872179 213.504 
L 232.128 213.42214 
L 234.816 212.513323 
L 237.504 211.447464 
L 238.937539 210.816 
L 240.192 210.29186 
L 242.88 209.054485 
L 244.662369 208.128 
L 245.568 207.657975 
L 248.256 206.148797 
L 249.412533 205.44 
L 250.944 204.458117 
L 253.363052 202.752 
L 253.632 202.544901 
L 256.32 200.393982 
L 256.715982 200.064 
L 259.008 197.895706 
L 259.544573 197.376 
L 261.696 194.923003 
L 261.903303 194.688 
L 263.905043 192 
L 264.384 191.198059 
L 265.570375 189.312 
L 266.882139 186.624 
L 267.072 186.12671 
L 267.985575 183.936 
L 268.815848 181.248 
L 269.400827 178.56 
L 269.76 175.99826 
L 269.780097 175.872 
L 269.997883 173.184 
L 270.022112 170.496 
L 269.863336 167.808 
L 269.76 166.964083 
L 269.549682 165.12 
L 269.081558 162.432 
L 268.439929 159.744 
L 267.612934 157.056 
L 267.072 155.593818 
L 266.622389 154.368 
L 265.462933 151.68 
L 264.384 149.563928 
L 264.084361 148.992 
L 262.508407 146.304 
L 261.696 145.073793 
L 260.671526 143.616 
L 259.008 141.487543 
L 258.529659 140.928 
L 256.32 138.537536 
L 256.01021 138.24 
L 253.632 136.073244 
L 252.966467 135.552 
L 250.944 134.014033 
L 249.11883 132.864 
L 248.256 132.324606 
L 245.568 130.931687 
L 243.702442 130.176 
L 242.88 129.834559 
L 240.192 128.96262 
L 237.504 128.346313 
L 234.816 127.954599 
L 232.128 127.764148 
L 229.44 127.758171 
L 226.752 127.925585 
L 224.064 128.260455 
L 221.376 128.761687 
L 218.688 129.43293 
L 216.330697 130.176 
L 216 130.270271 
L 213.312 131.187929 
L 210.624 132.286176 
L 209.398428 132.864 
L 207.936 133.498174 
L 205.248 134.835494 
L 203.973525 135.552 
L 202.56 136.291038 
L 199.872 137.878516 
L 199.313077 138.24 
L 197.184 139.5347 
L 195.139324 140.928 
L 194.496 141.34243 
L 191.808 143.233618 
L 191.303537 143.616 
L 189.12 145.197925 
L 187.719701 146.304 
L 186.432 147.281652 
L 184.349573 148.992 
L 183.744 149.472869 
L 181.155004 151.68 
L 181.056 151.762101 
L 178.368 154.10895 
L 178.086108 154.368 
L 175.68 156.543313 
L 175.139729 157.056 
L 172.992 159.074433 
L 172.308378 159.744 
L 170.304 161.702107 
L 169.581926 162.432 
L 167.616 164.429322 
L 166.954158 165.12 
L 164.928 167.262958 
L 164.422504 167.808 
L 162.24 170.214898 
L 161.988013 170.496 
L 159.643422 173.184 
L 159.552 173.291784 
L 157.364574 175.872 
L 156.864 176.495285 
L 155.190889 178.56 
L 154.176 179.902429 
L 153.139149 181.248 
L 151.488 183.586076 
L 151.233348 183.936 
L 149.414206 186.624 
L 148.8 187.648481 
L 147.750975 189.312 
L 146.302842 192 
L 146.112 192.418156 
L 144.992291 194.688 
L 143.968606 197.376 
L 143.424 199.434382 
L 143.237289 200.064 
L 142.82527 202.752 
L 142.880766 205.44 
L 143.424 207.682798 
L 143.528473 208.128 
L 144.904044 210.816 
L 146.112 212.180084 
L 147.409014 213.504 
L 148.8 214.502899 
L 151.488 216.107938 
L 151.648527 216.192 
L 154.176 217.301131 
L 156.864 218.235091 
L 159.202011 218.88 
L 159.552 218.974125 
z
" clip-path="url(#p57bfc6c8b8)" style="fill: none; stroke: #deebf7; stroke-width: 1.5"/>
    <path d="M 178.368 216.203015 
L 181.056 216.418258 
L 183.744 216.547482 
L 186.432 216.598859 
L 189.12 216.578051 
L 191.808 216.488498 
L 194.496 216.331605 
L 196.171931 216.192 
L 197.184 216.119969 
L 199.872 215.87373 
L 202.56 215.570543 
L 205.248 215.206598 
L 207.936 214.776194 
L 210.624 214.271503 
L 213.312 213.682223 
L 214.041679 213.504 
L 216 213.072708 
L 218.688 212.404195 
L 221.376 211.635879 
L 223.8744 210.816 
L 224.064 210.756746 
L 226.752 209.859439 
L 229.44 208.83009 
L 231.087383 208.128 
L 232.128 207.684048 
L 234.816 206.438737 
L 236.740867 205.44 
L 237.504 205.024824 
L 240.192 203.459816 
L 241.315872 202.752 
L 242.88 201.674213 
L 245.051581 200.064 
L 245.568 199.627793 
L 248.123257 197.376 
L 248.256 197.237544 
L 250.665093 194.688 
L 250.944 194.325429 
L 252.751918 192 
L 253.632 190.557002 
L 254.41711 189.312 
L 255.721842 186.624 
L 256.32 184.94423 
L 256.704178 183.936 
L 257.413872 181.248 
L 257.838185 178.56 
L 258.005338 175.872 
L 257.929758 173.184 
L 257.615216 170.496 
L 257.056756 167.808 
L 256.32 165.363681 
L 256.24552 165.12 
L 255.200293 162.432 
L 253.852359 159.744 
L 253.632 159.364814 
L 252.190354 157.056 
L 250.944 155.362803 
L 250.130292 154.368 
L 248.256 152.334058 
L 247.561325 151.68 
L 245.568 149.950295 
L 244.241395 148.992 
L 242.88 148.055847 
L 240.192 146.5687 
L 239.589951 146.304 
L 237.504 145.393169 
L 234.816 144.521773 
L 232.128 143.924674 
L 229.828631 143.616 
L 229.44 143.56145 
L 226.752 143.400016 
L 224.064 143.448135 
L 222.233385 143.616 
L 221.376 143.686529 
L 218.688 144.081211 
L 216 144.645099 
L 213.312 145.381124 
L 210.624 146.297357 
L 210.607424 146.304 
L 207.936 147.291097 
L 205.248 148.466779 
L 204.196652 148.992 
L 202.56 149.754851 
L 199.872 151.185443 
L 199.03698 151.68 
L 197.184 152.716265 
L 194.571053 154.368 
L 194.496 154.413128 
L 191.808 156.161591 
L 190.562291 157.056 
L 189.12 158.053285 
L 186.887172 159.744 
L 186.432 160.078661 
L 183.744 162.203575 
L 183.471393 162.432 
L 181.056 164.423071 
L 180.262486 165.12 
L 178.368 166.772493 
L 177.243582 167.808 
L 175.68 169.253148 
L 174.394426 170.496 
L 172.992 171.872735 
L 171.702655 173.184 
L 170.304 174.647584 
L 169.163138 175.872 
L 167.616 177.606493 
L 166.777911 178.56 
L 164.928 180.797415 
L 164.556733 181.248 
L 162.493957 183.936 
L 162.24 184.299135 
L 160.587233 186.624 
L 159.552 188.298407 
L 158.905563 189.312 
L 157.447144 192 
L 156.864 193.352035 
L 156.251906 194.688 
L 155.367326 197.376 
L 154.886738 200.064 
L 154.891186 202.752 
L 155.534969 205.44 
L 156.864 207.766596 
L 157.086559 208.128 
L 159.552 210.47923 
L 159.965899 210.816 
L 162.24 212.146357 
L 164.928 213.378713 
L 165.252239 213.504 
L 167.616 214.281573 
L 170.304 214.978264 
L 172.992 215.512642 
L 175.68 215.913191 
L 178.268324 216.192 
L 178.368 216.203015 
z
" clip-path="url(#p57bfc6c8b8)" style="fill: none; stroke: #c6dbef; stroke-width: 1.5"/>
    <path d="M 175.68 211.332063 
L 178.368 211.927233 
L 181.056 212.361076 
L 183.744 212.659542 
L 186.432 212.8425 
L 189.12 212.924947 
L 191.808 212.917906 
L 194.496 212.829076 
L 197.184 212.663289 
L 199.872 212.422815 
L 202.56 212.107527 
L 205.248 211.714956 
L 207.936 211.240224 
L 209.973433 210.816 
L 210.624 210.686163 
L 213.312 210.07847 
L 216 209.380199 
L 218.688 208.578152 
L 220.039395 208.128 
L 221.376 207.680371 
L 224.064 206.686733 
L 226.752 205.556146 
L 227.010482 205.44 
L 229.44 204.291693 
L 232.128 202.86363 
L 232.327183 202.752 
L 234.816 201.220487 
L 236.541832 200.064 
L 237.504 199.325829 
L 239.908747 197.376 
L 240.192 197.102168 
L 242.619348 194.688 
L 242.88 194.366098 
L 244.788146 192 
L 245.568 190.747123 
L 246.47754 189.312 
L 247.742696 186.624 
L 248.256 185.049183 
L 248.63765 183.936 
L 249.195848 181.248 
L 249.421142 178.56 
L 249.329026 175.872 
L 248.919802 173.184 
L 248.256 170.754068 
L 248.182346 170.496 
L 247.101642 167.808 
L 245.619589 165.12 
L 245.568 165.041544 
L 243.64307 162.432 
L 242.88 161.563378 
L 241.007675 159.744 
L 240.192 159.040658 
L 237.504 157.14991 
L 237.337986 157.056 
L 234.816 155.711178 
L 232.128 154.662399 
L 231.07102 154.368 
L 229.44 153.917572 
L 226.752 153.44407 
L 224.064 153.220695 
L 221.376 153.221629 
L 218.688 153.429075 
L 216 153.832222 
L 213.576946 154.368 
L 213.312 154.421963 
L 210.624 155.143389 
L 207.936 156.040926 
L 205.414696 157.056 
L 205.248 157.118927 
L 202.56 158.291826 
L 199.872 159.657885 
L 199.719487 159.744 
L 197.184 161.110504 
L 195.02104 162.432 
L 194.496 162.741229 
L 191.808 164.479534 
L 190.903737 165.12 
L 189.12 166.355706 
L 187.202568 167.808 
L 186.432 168.38561 
L 183.827233 170.496 
L 183.744 170.563626 
L 181.056 172.87547 
L 180.716659 173.184 
L 178.368 175.363314 
L 177.844682 175.872 
L 175.68 178.055729 
L 175.19718 178.56 
L 172.992 180.997663 
L 172.770536 181.248 
L 170.559051 183.936 
L 170.304 184.280148 
L 168.568635 186.624 
L 167.616 188.118199 
L 166.843521 189.312 
L 165.40913 192 
L 164.928 193.197108 
L 164.300642 194.688 
L 163.594689 197.376 
L 163.39979 200.064 
L 163.86814 202.752 
L 164.928 204.830873 
L 165.270348 205.44 
L 167.616 207.718173 
L 168.122961 208.128 
L 170.304 209.348957 
L 172.992 210.512373 
L 173.872428 210.816 
L 175.68 211.332063 
z
" clip-path="url(#p57bfc6c8b8)" style="fill: none; stroke: #9dcae1; stroke-width: 1.5"/>
    <path d="M 181.056 208.245585 
L 183.744 208.826527 
L 186.432 209.224814 
L 189.12 209.469045 
L 191.808 209.580685 
L 194.496 209.575472 
L 197.184 209.464436 
L 199.872 209.254624 
L 202.56 208.949579 
L 205.248 208.54963 
L 207.530313 208.128 
L 207.936 208.051924 
L 210.624 207.457905 
L 213.312 206.766834 
L 216 205.969126 
L 217.575997 205.44 
L 218.688 205.044458 
L 221.376 203.987037 
L 224.064 202.79378 
L 224.151667 202.752 
L 226.752 201.383343 
L 229.021063 200.064 
L 229.44 199.782815 
L 232.128 197.871149 
L 232.78537 197.376 
L 234.816 195.538939 
L 235.720717 194.688 
L 237.504 192.582474 
L 237.989938 192 
L 239.701465 189.312 
L 240.192 188.224541 
L 240.928389 186.624 
L 241.710153 183.936 
L 242.074989 181.248 
L 242.036387 178.56 
L 241.585973 175.872 
L 240.696179 173.184 
L 240.192 172.14575 
L 239.28976 170.496 
L 237.504 168.093682 
L 237.252045 167.808 
L 234.816 165.548775 
L 234.231987 165.12 
L 232.128 163.76309 
L 229.44 162.495343 
L 229.254749 162.432 
L 226.752 161.624589 
L 224.064 161.083874 
L 221.376 160.826407 
L 218.688 160.817514 
L 216 161.032712 
L 213.312 161.4561 
L 210.624 162.079274 
L 209.467529 162.432 
L 207.936 162.873975 
L 205.248 163.832127 
L 202.56 164.979796 
L 202.274686 165.12 
L 199.872 166.258674 
L 197.184 167.725165 
L 197.046994 167.808 
L 194.496 169.31988 
L 192.719933 170.496 
L 191.808 171.096659 
L 189.12 173.040332 
L 188.934983 173.184 
L 186.432 175.153807 
L 185.5828 175.872 
L 183.744 177.478001 
L 182.575468 178.56 
L 181.056 180.045761 
L 179.879874 181.248 
L 178.368 182.924915 
L 177.483081 183.936 
L 175.68 186.248941 
L 175.391701 186.624 
L 173.617302 189.312 
L 172.992 190.508618 
L 172.201116 192 
L 171.207691 194.688 
L 170.730843 197.376 
L 170.921714 200.064 
L 172.05554 202.752 
L 172.992 203.822727 
L 174.702212 205.44 
L 175.68 206.030351 
L 178.368 207.326065 
L 180.633168 208.128 
L 181.056 208.245585 
z
" clip-path="url(#p57bfc6c8b8)" style="fill: none; stroke: #6aaed6; stroke-width: 1.5"/>
    <path d="M 189.12 205.767297 
L 191.808 206.080053 
L 194.496 206.21909 
L 197.184 206.207123 
L 199.872 206.060055 
L 202.56 205.788163 
L 204.949833 205.44 
L 205.248 205.393241 
L 207.936 204.848654 
L 210.624 204.190151 
L 213.312 203.414161 
L 215.296121 202.752 
L 216 202.489228 
L 218.688 201.366713 
L 221.376 200.107207 
L 221.460779 200.064 
L 224.064 198.520422 
L 225.83902 197.376 
L 226.752 196.657457 
L 229.112632 194.688 
L 229.44 194.336594 
L 231.541447 192 
L 232.128 191.106604 
L 233.289703 189.312 
L 234.449283 186.624 
L 234.816 185.019628 
L 235.067304 183.936 
L 235.156282 181.248 
L 234.816 179.168841 
L 234.70437 178.56 
L 233.614934 175.872 
L 232.128 173.628414 
L 231.766724 173.184 
L 229.44 171.049774 
L 228.634103 170.496 
L 226.752 169.417578 
L 224.064 168.356721 
L 221.780555 167.808 
L 221.376 167.718845 
L 218.688 167.427432 
L 216 167.422857 
L 213.312 167.673541 
L 212.577322 167.808 
L 210.624 168.153035 
L 207.936 168.841862 
L 205.248 169.733761 
L 203.375867 170.496 
L 202.56 170.823548 
L 199.872 172.095654 
L 197.877526 173.184 
L 197.184 173.565007 
L 194.496 175.225422 
L 193.552143 175.872 
L 191.808 177.102523 
L 189.920214 178.56 
L 189.12 179.212945 
L 186.801806 181.248 
L 186.432 181.60234 
L 184.128711 183.936 
L 183.744 184.379662 
L 181.870273 186.624 
L 181.056 187.800433 
L 180.029541 189.312 
L 178.649167 192 
L 178.368 192.915472 
L 177.815135 194.688 
L 177.672117 197.376 
L 178.368 199.728878 
L 178.483307 200.064 
L 180.885906 202.752 
L 181.056 202.862025 
L 183.744 204.250659 
L 186.432 205.207908 
L 187.378675 205.44 
L 189.12 205.767297 
z
" clip-path="url(#p57bfc6c8b8)" style="fill: none; stroke: #4191c6; stroke-width: 1.5"/>
    <path d="M 189.12 200.753499 
L 191.808 201.705628 
L 194.496 202.252617 
L 197.184 202.485273 
L 199.872 202.466713 
L 202.56 202.240441 
L 205.248 201.835617 
L 207.936 201.270528 
L 210.624 200.554844 
L 212.147114 200.064 
L 213.312 199.616487 
L 216 198.42727 
L 218.11138 197.376 
L 218.688 197.016441 
L 221.376 195.180108 
L 222.041944 194.688 
L 224.064 192.717151 
L 224.761635 192 
L 226.585557 189.312 
L 226.752 188.884422 
L 227.610947 186.624 
L 227.917242 183.936 
L 227.461844 181.248 
L 226.752 179.74544 
L 226.036473 178.56 
L 224.064 176.608638 
L 222.988882 175.872 
L 221.376 175.040619 
L 218.688 174.187352 
L 216 173.796917 
L 213.312 173.780508 
L 210.624 174.076399 
L 207.936 174.642976 
L 205.248 175.454104 
L 204.179711 175.872 
L 202.56 176.525541 
L 199.872 177.832091 
L 198.586426 178.56 
L 197.184 179.403772 
L 194.496 181.226714 
L 194.467716 181.248 
L 191.808 183.449472 
L 191.265375 183.936 
L 189.12 186.159137 
L 188.697224 186.624 
L 186.738528 189.312 
L 186.432 189.931596 
L 185.43555 192 
L 184.893545 194.688 
L 185.41143 197.376 
L 186.432 198.730871 
L 187.796232 200.064 
L 189.12 200.753499 
z
" clip-path="url(#p57bfc6c8b8)" style="fill: none; stroke: #2070b4; stroke-width: 1.5"/>
    <path d="M 199.872 197.396519 
L 202.56 197.459935 
L 203.437316 197.376 
L 205.248 197.139908 
L 207.936 196.445077 
L 210.624 195.492044 
L 212.438138 194.688 
L 213.312 194.129627 
L 216 192.159447 
L 216.192461 192 
L 218.165051 189.312 
L 218.688 187.384061 
L 218.878438 186.624 
L 218.688 185.787022 
L 218.056831 183.936 
L 216 182.158416 
L 213.758045 181.248 
L 213.312 181.133809 
L 210.624 180.97258 
L 208.095242 181.248 
L 207.936 181.268234 
L 205.248 182.066328 
L 202.56 183.190519 
L 201.163115 183.936 
L 199.872 184.780184 
L 197.446553 186.624 
L 197.184 186.903459 
L 195.1625 189.312 
L 194.496 190.831306 
L 194.021872 192 
L 194.418594 194.688 
L 194.496 194.77387 
L 197.184 196.633983 
L 199.739797 197.376 
L 199.872 197.396519 
z
" clip-path="url(#p57bfc6c8b8)" style="fill: none; stroke: #08509b; stroke-width: 1.5"/>
    <path clip-path="url(#p57bfc6c8b8)" style="fill: none; stroke: #08306b; stroke-width: 1.5"/>
   </g>
   <g id="patch_3">
    <path d="M 103.104 307.584 
L 103.104 41.472 
" style="fill: none; stroke: #000000; stroke-width: 0.8; stroke-linejoin: miter; stroke-linecap: square"/>
   </g>
   <g id="patch_4">
    <path d="M 369.216 307.584 
L 369.216 41.472 
" style="fill: none; stroke: #000000; stroke-width: 0.8; stroke-linejoin: miter; stroke-linecap: square"/>
   </g>
   <g id="patch_5">
    <path d="M 103.104 307.584 
L 369.216 307.584 
" style="fill: none; stroke: #000000; stroke-width: 0.8; stroke-linejoin: miter; stroke-linecap: square"/>
   </g>
   <g id="patch_6">
    <path d="M 103.104 41.472 
L 369.216 41.472 
" style="fill: none; stroke: #000000; stroke-width: 0.8; stroke-linejoin: miter; stroke-linecap: square"/>
   </g>
  </g>
 </g>
 <defs>
  <clipPath id="p57bfc6c8b8">
   <rect x="103.104" y="41.472" width="266.112" height="266.112"/>
  </clipPath>
 </defs>
</svg>
