<?xml version="1.0" encoding="utf-8" standalone="no"?>
<!DOCTYPE svg PUBLIC "-//W3C//DTD SVG 1.1//EN"
  "http://www.w3.org/Graphics/SVG/1.1/DTD/svg11.dtd">
<svg xmlns:xlink="http://www.w3.org/1999/xlink" width="576pt" height="360pt" viewBox="0 0 576 360" xmlns="http://www.w3.org/2000/svg" version="1.1">
 <metadata>
  <rdf:RDF xmlns:dc="http://purl.org/dc/elements/1.1/" xmlns:cc="http://creativecommons.org/ns#" xmlns:rdf="http://www.w3.org/1999/02/22-rdf-syntax-ns#">
   <cc:Work>
    <dc:type rdf:resource="http://purl.org/dc/dcmitype/StillImage"/>
    <dc:date>2024-10-24T22:33:59.648041</dc:date>
    <dc:format>image/svg+xml</dc:format>
    <dc:creator>
     <cc:Agent>
      <dc:title>Matplotlib v3.9.2, https://matplotlib.org/</dc:title>
     </cc:Agent>
    </dc:creator>
   </cc:Work>
  </rdf:RDF>
 </metadata>
 <defs>
  <style type="text/css">*{stroke-linejoin: round; stroke-linecap: butt}</style>
 </defs>
 <g id="figure_1">
  <g id="patch_1">
   <path d="M 0 360 
L 576 360 
L 576 0 
L 0 0 
z
" style="fill: #ffffff"/>
  </g>
  <g id="axes_1">
   <g id="patch_2">
    <path d="M 72 320.4 
L 518.4 320.4 
L 518.4 43.2 
L 72 43.2 
z
" style="fill: #ffffff"/>
   </g>
   <g id="matplotlib.axis_1">
    <g id="xtick_1">
     <g id="line2d_1">
      <path d="M 102.508205 320.4 
L 102.508205 43.2 
" clip-path="url(#p7c95664f08)" style="fill: none; stroke: #b0b0b0; stroke-width: 0.8; stroke-linecap: square"/>
     </g>
     <g id="line2d_2">
      <defs>
       <path id="md40bc26f37" d="M 0 0 
L 0 3.5 
" style="stroke: #000000; stroke-width: 0.8"/>
      </defs>
      <g>
       <use xlink:href="#md40bc26f37" x="102.508205" y="320.4" style="stroke: #000000; stroke-width: 0.8"/>
      </g>
     </g>
     <g id="text_1">
      <!-- 0 -->
      <g transform="translate(99.326955 334.998438) scale(0.1 -0.1)">
       <defs>
        <path id="DejaVuSans-30" d="M 2034 4250 
Q 1547 4250 1301 3770 
Q 1056 3291 1056 2328 
Q 1056 1369 1301 889 
Q 1547 409 2034 409 
Q 2525 409 2770 889 
Q 3016 1369 3016 2328 
Q 3016 3291 2770 3770 
Q 2525 4250 2034 4250 
z
M 2034 4750 
Q 2819 4750 3233 4129 
Q 3647 3509 3647 2328 
Q 3647 1150 3233 529 
Q 2819 -91 2034 -91 
Q 1250 -91 836 529 
Q 422 1150 422 2328 
Q 422 3509 836 4129 
Q 1250 4750 2034 4750 
z
" transform="scale(0.015625)"/>
       </defs>
       <use xlink:href="#DejaVuSans-30"/>
      </g>
     </g>
    </g>
    <g id="xtick_2">
     <g id="line2d_3">
      <path d="M 200.607696 320.4 
L 200.607696 43.2 
" clip-path="url(#p7c95664f08)" style="fill: none; stroke: #b0b0b0; stroke-width: 0.8; stroke-linecap: square"/>
     </g>
     <g id="line2d_4">
      <g>
       <use xlink:href="#md40bc26f37" x="200.607696" y="320.4" style="stroke: #000000; stroke-width: 0.8"/>
      </g>
     </g>
     <g id="text_2">
      <!-- 2 -->
      <g transform="translate(197.426446 334.998438) scale(0.1 -0.1)">
       <defs>
        <path id="DejaVuSans-32" d="M 1228 531 
L 3431 531 
L 3431 0 
L 469 0 
L 469 531 
Q 828 903 1448 1529 
Q 2069 2156 2228 2338 
Q 2531 2678 2651 2914 
Q 2772 3150 2772 3378 
Q 2772 3750 2511 3984 
Q 2250 4219 1831 4219 
Q 1534 4219 1204 4116 
Q 875 4013 500 3803 
L 500 4441 
Q 881 4594 1212 4672 
Q 1544 4750 1819 4750 
Q 2544 4750 2975 4387 
Q 3406 4025 3406 3419 
Q 3406 3131 3298 2873 
Q 3191 2616 2906 2266 
Q 2828 2175 2409 1742 
Q 1991 1309 1228 531 
z
" transform="scale(0.015625)"/>
       </defs>
       <use xlink:href="#DejaVuSans-32"/>
      </g>
     </g>
    </g>
    <g id="xtick_3">
     <g id="line2d_5">
      <path d="M 298.707188 320.4 
L 298.707188 43.2 
" clip-path="url(#p7c95664f08)" style="fill: none; stroke: #b0b0b0; stroke-width: 0.8; stroke-linecap: square"/>
     </g>
     <g id="line2d_6">
      <g>
       <use xlink:href="#md40bc26f37" x="298.707188" y="320.4" style="stroke: #000000; stroke-width: 0.8"/>
      </g>
     </g>
     <g id="text_3">
      <!-- 4 -->
      <g transform="translate(295.525938 334.998438) scale(0.1 -0.1)">
       <defs>
        <path id="DejaVuSans-34" d="M 2419 4116 
L 825 1625 
L 2419 1625 
L 2419 4116 
z
M 2253 4666 
L 3047 4666 
L 3047 1625 
L 3713 1625 
L 3713 1100 
L 3047 1100 
L 3047 0 
L 2419 0 
L 2419 1100 
L 313 1100 
L 313 1709 
L 2253 4666 
z
" transform="scale(0.015625)"/>
       </defs>
       <use xlink:href="#DejaVuSans-34"/>
      </g>
     </g>
    </g>
    <g id="xtick_4">
     <g id="line2d_7">
      <path d="M 396.80668 320.4 
L 396.80668 43.2 
" clip-path="url(#p7c95664f08)" style="fill: none; stroke: #b0b0b0; stroke-width: 0.8; stroke-linecap: square"/>
     </g>
     <g id="line2d_8">
      <g>
       <use xlink:href="#md40bc26f37" x="396.80668" y="320.4" style="stroke: #000000; stroke-width: 0.8"/>
      </g>
     </g>
     <g id="text_4">
      <!-- 6 -->
      <g transform="translate(393.62543 334.998438) scale(0.1 -0.1)">
       <defs>
        <path id="DejaVuSans-36" d="M 2113 2584 
Q 1688 2584 1439 2293 
Q 1191 2003 1191 1497 
Q 1191 994 1439 701 
Q 1688 409 2113 409 
Q 2538 409 2786 701 
Q 3034 994 3034 1497 
Q 3034 2003 2786 2293 
Q 2538 2584 2113 2584 
z
M 3366 4563 
L 3366 3988 
Q 3128 4100 2886 4159 
Q 2644 4219 2406 4219 
Q 1781 4219 1451 3797 
Q 1122 3375 1075 2522 
Q 1259 2794 1537 2939 
Q 1816 3084 2150 3084 
Q 2853 3084 3261 2657 
Q 3669 2231 3669 1497 
Q 3669 778 3244 343 
Q 2819 -91 2113 -91 
Q 1303 -91 875 529 
Q 447 1150 447 2328 
Q 447 3434 972 4092 
Q 1497 4750 2381 4750 
Q 2619 4750 2861 4703 
Q 3103 4656 3366 4563 
z
" transform="scale(0.015625)"/>
       </defs>
       <use xlink:href="#DejaVuSans-36"/>
      </g>
     </g>
    </g>
    <g id="xtick_5">
     <g id="line2d_9">
      <path d="M 494.906172 320.4 
L 494.906172 43.2 
" clip-path="url(#p7c95664f08)" style="fill: none; stroke: #b0b0b0; stroke-width: 0.8; stroke-linecap: square"/>
     </g>
     <g id="line2d_10">
      <g>
       <use xlink:href="#md40bc26f37" x="494.906172" y="320.4" style="stroke: #000000; stroke-width: 0.8"/>
      </g>
     </g>
     <g id="text_5">
      <!-- 8 -->
      <g transform="translate(491.724922 334.998438) scale(0.1 -0.1)">
       <defs>
        <path id="DejaVuSans-38" d="M 2034 2216 
Q 1584 2216 1326 1975 
Q 1069 1734 1069 1313 
Q 1069 891 1326 650 
Q 1584 409 2034 409 
Q 2484 409 2743 651 
Q 3003 894 3003 1313 
Q 3003 1734 2745 1975 
Q 2488 2216 2034 2216 
z
M 1403 2484 
Q 997 2584 770 2862 
Q 544 3141 544 3541 
Q 544 4100 942 4425 
Q 1341 4750 2034 4750 
Q 2731 4750 3128 4425 
Q 3525 4100 3525 3541 
Q 3525 3141 3298 2862 
Q 3072 2584 2669 2484 
Q 3125 2378 3379 2068 
Q 3634 1759 3634 1313 
Q 3634 634 3220 271 
Q 2806 -91 2034 -91 
Q 1263 -91 848 271 
Q 434 634 434 1313 
Q 434 1759 690 2068 
Q 947 2378 1403 2484 
z
M 1172 3481 
Q 1172 3119 1398 2916 
Q 1625 2713 2034 2713 
Q 2441 2713 2670 2916 
Q 2900 3119 2900 3481 
Q 2900 3844 2670 4047 
Q 2441 4250 2034 4250 
Q 1625 4250 1398 4047 
Q 1172 3844 1172 3481 
z
" transform="scale(0.015625)"/>
       </defs>
       <use xlink:href="#DejaVuSans-38"/>
      </g>
     </g>
    </g>
    <g id="text_6">
     <!-- $Z(X_1,X_2)$ -->
     <g transform="translate(273.7 348.676562) scale(0.1 -0.1)">
      <defs>
       <path id="DejaVuSans-Oblique-5a" d="M 838 4666 
L 4500 4666 
L 4409 4184 
L 794 531 
L 3769 531 
L 3669 0 
L -141 0 
L -50 481 
L 3566 4134 
L 738 4134 
L 838 4666 
z
" transform="scale(0.015625)"/>
       <path id="DejaVuSans-28" d="M 1984 4856 
Q 1566 4138 1362 3434 
Q 1159 2731 1159 2009 
Q 1159 1288 1364 580 
Q 1569 -128 1984 -844 
L 1484 -844 
Q 1016 -109 783 600 
Q 550 1309 550 2009 
Q 550 2706 781 3412 
Q 1013 4119 1484 4856 
L 1984 4856 
z
" transform="scale(0.015625)"/>
       <path id="DejaVuSans-Oblique-58" d="M 878 4666 
L 1516 4666 
L 2316 2981 
L 3763 4666 
L 4500 4666 
L 2578 2438 
L 3738 0 
L 3103 0 
L 2163 1966 
L 459 0 
L -275 0 
L 1906 2509 
L 878 4666 
z
" transform="scale(0.015625)"/>
       <path id="DejaVuSans-31" d="M 794 531 
L 1825 531 
L 1825 4091 
L 703 3866 
L 703 4441 
L 1819 4666 
L 2450 4666 
L 2450 531 
L 3481 531 
L 3481 0 
L 794 0 
L 794 531 
z
" transform="scale(0.015625)"/>
       <path id="DejaVuSans-2c" d="M 750 794 
L 1409 794 
L 1409 256 
L 897 -744 
L 494 -744 
L 750 256 
L 750 794 
z
" transform="scale(0.015625)"/>
       <path id="DejaVuSans-29" d="M 513 4856 
L 1013 4856 
Q 1481 4119 1714 3412 
Q 1947 2706 1947 2009 
Q 1947 1309 1714 600 
Q 1481 -109 1013 -844 
L 513 -844 
Q 928 -128 1133 580 
Q 1338 1288 1338 2009 
Q 1338 2731 1133 3434 
Q 928 4138 513 4856 
z
" transform="scale(0.015625)"/>
      </defs>
      <use xlink:href="#DejaVuSans-Oblique-5a" transform="translate(0 0.125)"/>
      <use xlink:href="#DejaVuSans-28" transform="translate(68.505859 0.125)"/>
      <use xlink:href="#DejaVuSans-Oblique-58" transform="translate(107.519531 0.125)"/>
      <use xlink:href="#DejaVuSans-31" transform="translate(176.025391 -16.28125) scale(0.7)"/>
      <use xlink:href="#DejaVuSans-2c" transform="translate(223.295898 0.125)"/>
      <use xlink:href="#DejaVuSans-Oblique-58" transform="translate(274.56543 0.125)"/>
      <use xlink:href="#DejaVuSans-32" transform="translate(343.071289 -16.28125) scale(0.7)"/>
      <use xlink:href="#DejaVuSans-29" transform="translate(390.341797 0.125)"/>
     </g>
    </g>
   </g>
   <g id="matplotlib.axis_2">
    <g id="ytick_1">
     <g id="line2d_11">
      <path d="M 72 318.808888 
L 518.4 318.808888 
" clip-path="url(#p7c95664f08)" style="fill: none; stroke: #b0b0b0; stroke-width: 0.8; stroke-linecap: square"/>
     </g>
     <g id="line2d_12">
      <defs>
       <path id="md3e016b1ca" d="M 0 0 
L -3.5 0 
" style="stroke: #000000; stroke-width: 0.8"/>
      </defs>
      <g>
       <use xlink:href="#md3e016b1ca" x="72" y="318.808888" style="stroke: #000000; stroke-width: 0.8"/>
      </g>
     </g>
     <g id="text_7">
      <!-- $\mathdefault{10^{-4}}$ -->
      <g transform="translate(41.5 322.608107) scale(0.1 -0.1)">
       <defs>
        <path id="DejaVuSans-2212" d="M 678 2272 
L 4684 2272 
L 4684 1741 
L 678 1741 
L 678 2272 
z
" transform="scale(0.015625)"/>
       </defs>
       <use xlink:href="#DejaVuSans-31" transform="translate(0 0.684375)"/>
       <use xlink:href="#DejaVuSans-30" transform="translate(63.623047 0.684375)"/>
       <use xlink:href="#DejaVuSans-2212" transform="translate(128.203125 38.965625) scale(0.7)"/>
       <use xlink:href="#DejaVuSans-34" transform="translate(186.855469 38.965625) scale(0.7)"/>
      </g>
     </g>
    </g>
    <g id="ytick_2">
     <g id="line2d_13">
      <path d="M 72 253.055616 
L 518.4 253.055616 
" clip-path="url(#p7c95664f08)" style="fill: none; stroke: #b0b0b0; stroke-width: 0.8; stroke-linecap: square"/>
     </g>
     <g id="line2d_14">
      <g>
       <use xlink:href="#md3e016b1ca" x="72" y="253.055616" style="stroke: #000000; stroke-width: 0.8"/>
      </g>
     </g>
     <g id="text_8">
      <!-- $\mathdefault{10^{-3}}$ -->
      <g transform="translate(41.5 256.854835) scale(0.1 -0.1)">
       <defs>
        <path id="DejaVuSans-33" d="M 2597 2516 
Q 3050 2419 3304 2112 
Q 3559 1806 3559 1356 
Q 3559 666 3084 287 
Q 2609 -91 1734 -91 
Q 1441 -91 1130 -33 
Q 819 25 488 141 
L 488 750 
Q 750 597 1062 519 
Q 1375 441 1716 441 
Q 2309 441 2620 675 
Q 2931 909 2931 1356 
Q 2931 1769 2642 2001 
Q 2353 2234 1838 2234 
L 1294 2234 
L 1294 2753 
L 1863 2753 
Q 2328 2753 2575 2939 
Q 2822 3125 2822 3475 
Q 2822 3834 2567 4026 
Q 2313 4219 1838 4219 
Q 1578 4219 1281 4162 
Q 984 4106 628 3988 
L 628 4550 
Q 988 4650 1302 4700 
Q 1616 4750 1894 4750 
Q 2613 4750 3031 4423 
Q 3450 4097 3450 3541 
Q 3450 3153 3228 2886 
Q 3006 2619 2597 2516 
z
" transform="scale(0.015625)"/>
       </defs>
       <use xlink:href="#DejaVuSans-31" transform="translate(0 0.765625)"/>
       <use xlink:href="#DejaVuSans-30" transform="translate(63.623047 0.765625)"/>
       <use xlink:href="#DejaVuSans-2212" transform="translate(128.203125 39.046875) scale(0.7)"/>
       <use xlink:href="#DejaVuSans-33" transform="translate(186.855469 39.046875) scale(0.7)"/>
      </g>
     </g>
    </g>
    <g id="ytick_3">
     <g id="line2d_15">
      <path d="M 72 187.302344 
L 518.4 187.302344 
" clip-path="url(#p7c95664f08)" style="fill: none; stroke: #b0b0b0; stroke-width: 0.8; stroke-linecap: square"/>
     </g>
     <g id="line2d_16">
      <g>
       <use xlink:href="#md3e016b1ca" x="72" y="187.302344" style="stroke: #000000; stroke-width: 0.8"/>
      </g>
     </g>
     <g id="text_9">
      <!-- $\mathdefault{10^{-2}}$ -->
      <g transform="translate(41.5 191.101563) scale(0.1 -0.1)">
       <use xlink:href="#DejaVuSans-31" transform="translate(0 0.765625)"/>
       <use xlink:href="#DejaVuSans-30" transform="translate(63.623047 0.765625)"/>
       <use xlink:href="#DejaVuSans-2212" transform="translate(128.203125 39.046875) scale(0.7)"/>
       <use xlink:href="#DejaVuSans-32" transform="translate(186.855469 39.046875) scale(0.7)"/>
      </g>
     </g>
    </g>
    <g id="ytick_4">
     <g id="line2d_17">
      <path d="M 72 121.549073 
L 518.4 121.549073 
" clip-path="url(#p7c95664f08)" style="fill: none; stroke: #b0b0b0; stroke-width: 0.8; stroke-linecap: square"/>
     </g>
     <g id="line2d_18">
      <g>
       <use xlink:href="#md3e016b1ca" x="72" y="121.549073" style="stroke: #000000; stroke-width: 0.8"/>
      </g>
     </g>
     <g id="text_10">
      <!-- $\mathdefault{10^{-1}}$ -->
      <g transform="translate(41.5 125.348291) scale(0.1 -0.1)">
       <use xlink:href="#DejaVuSans-31" transform="translate(0 0.684375)"/>
       <use xlink:href="#DejaVuSans-30" transform="translate(63.623047 0.684375)"/>
       <use xlink:href="#DejaVuSans-2212" transform="translate(128.203125 38.965625) scale(0.7)"/>
       <use xlink:href="#DejaVuSans-31" transform="translate(186.855469 38.965625) scale(0.7)"/>
      </g>
     </g>
    </g>
    <g id="ytick_5">
     <g id="line2d_19">
      <path d="M 72 55.795801 
L 518.4 55.795801 
" clip-path="url(#p7c95664f08)" style="fill: none; stroke: #b0b0b0; stroke-width: 0.8; stroke-linecap: square"/>
     </g>
     <g id="line2d_20">
      <g>
       <use xlink:href="#md3e016b1ca" x="72" y="55.795801" style="stroke: #000000; stroke-width: 0.8"/>
      </g>
     </g>
     <g id="text_11">
      <!-- $\mathdefault{10^{0}}$ -->
      <g transform="translate(47.4 59.59502) scale(0.1 -0.1)">
       <use xlink:href="#DejaVuSans-31" transform="translate(0 0.765625)"/>
       <use xlink:href="#DejaVuSans-30" transform="translate(63.623047 0.765625)"/>
       <use xlink:href="#DejaVuSans-30" transform="translate(128.203125 39.046875) scale(0.7)"/>
      </g>
     </g>
    </g>
    <g id="ytick_6">
     <g id="line2d_21">
      <defs>
       <path id="mc9e1adf128" d="M 0 0 
L -2 0 
" style="stroke: #000000; stroke-width: 0.6"/>
      </defs>
      <g>
       <use xlink:href="#mc9e1adf128" x="72" y="299.015181" style="stroke: #000000; stroke-width: 0.6"/>
      </g>
     </g>
    </g>
    <g id="ytick_7">
     <g id="line2d_22">
      <g>
       <use xlink:href="#mc9e1adf128" x="72" y="287.436604" style="stroke: #000000; stroke-width: 0.6"/>
      </g>
     </g>
    </g>
    <g id="ytick_8">
     <g id="line2d_23">
      <g>
       <use xlink:href="#mc9e1adf128" x="72" y="279.221474" style="stroke: #000000; stroke-width: 0.6"/>
      </g>
     </g>
    </g>
    <g id="ytick_9">
     <g id="line2d_24">
      <g>
       <use xlink:href="#mc9e1adf128" x="72" y="272.849323" style="stroke: #000000; stroke-width: 0.6"/>
      </g>
     </g>
    </g>
    <g id="ytick_10">
     <g id="line2d_25">
      <g>
       <use xlink:href="#mc9e1adf128" x="72" y="267.642897" style="stroke: #000000; stroke-width: 0.6"/>
      </g>
     </g>
    </g>
    <g id="ytick_11">
     <g id="line2d_26">
      <g>
       <use xlink:href="#mc9e1adf128" x="72" y="263.240927" style="stroke: #000000; stroke-width: 0.6"/>
      </g>
     </g>
    </g>
    <g id="ytick_12">
     <g id="line2d_27">
      <g>
       <use xlink:href="#mc9e1adf128" x="72" y="259.427767" style="stroke: #000000; stroke-width: 0.6"/>
      </g>
     </g>
    </g>
    <g id="ytick_13">
     <g id="line2d_28">
      <g>
       <use xlink:href="#mc9e1adf128" x="72" y="256.064321" style="stroke: #000000; stroke-width: 0.6"/>
      </g>
     </g>
    </g>
    <g id="ytick_14">
     <g id="line2d_29">
      <g>
       <use xlink:href="#mc9e1adf128" x="72" y="233.261909" style="stroke: #000000; stroke-width: 0.6"/>
      </g>
     </g>
    </g>
    <g id="ytick_15">
     <g id="line2d_30">
      <g>
       <use xlink:href="#mc9e1adf128" x="72" y="221.683333" style="stroke: #000000; stroke-width: 0.6"/>
      </g>
     </g>
    </g>
    <g id="ytick_16">
     <g id="line2d_31">
      <g>
       <use xlink:href="#mc9e1adf128" x="72" y="213.468202" style="stroke: #000000; stroke-width: 0.6"/>
      </g>
     </g>
    </g>
    <g id="ytick_17">
     <g id="line2d_32">
      <g>
       <use xlink:href="#mc9e1adf128" x="72" y="207.096051" style="stroke: #000000; stroke-width: 0.6"/>
      </g>
     </g>
    </g>
    <g id="ytick_18">
     <g id="line2d_33">
      <g>
       <use xlink:href="#mc9e1adf128" x="72" y="201.889625" style="stroke: #000000; stroke-width: 0.6"/>
      </g>
     </g>
    </g>
    <g id="ytick_19">
     <g id="line2d_34">
      <g>
       <use xlink:href="#mc9e1adf128" x="72" y="197.487655" style="stroke: #000000; stroke-width: 0.6"/>
      </g>
     </g>
    </g>
    <g id="ytick_20">
     <g id="line2d_35">
      <g>
       <use xlink:href="#mc9e1adf128" x="72" y="193.674495" style="stroke: #000000; stroke-width: 0.6"/>
      </g>
     </g>
    </g>
    <g id="ytick_21">
     <g id="line2d_36">
      <g>
       <use xlink:href="#mc9e1adf128" x="72" y="190.311049" style="stroke: #000000; stroke-width: 0.6"/>
      </g>
     </g>
    </g>
    <g id="ytick_22">
     <g id="line2d_37">
      <g>
       <use xlink:href="#mc9e1adf128" x="72" y="167.508637" style="stroke: #000000; stroke-width: 0.6"/>
      </g>
     </g>
    </g>
    <g id="ytick_23">
     <g id="line2d_38">
      <g>
       <use xlink:href="#mc9e1adf128" x="72" y="155.930061" style="stroke: #000000; stroke-width: 0.6"/>
      </g>
     </g>
    </g>
    <g id="ytick_24">
     <g id="line2d_39">
      <g>
       <use xlink:href="#mc9e1adf128" x="72" y="147.71493" style="stroke: #000000; stroke-width: 0.6"/>
      </g>
     </g>
    </g>
    <g id="ytick_25">
     <g id="line2d_40">
      <g>
       <use xlink:href="#mc9e1adf128" x="72" y="141.34278" style="stroke: #000000; stroke-width: 0.6"/>
      </g>
     </g>
    </g>
    <g id="ytick_26">
     <g id="line2d_41">
      <g>
       <use xlink:href="#mc9e1adf128" x="72" y="136.136354" style="stroke: #000000; stroke-width: 0.6"/>
      </g>
     </g>
    </g>
    <g id="ytick_27">
     <g id="line2d_42">
      <g>
       <use xlink:href="#mc9e1adf128" x="72" y="131.734383" style="stroke: #000000; stroke-width: 0.6"/>
      </g>
     </g>
    </g>
    <g id="ytick_28">
     <g id="line2d_43">
      <g>
       <use xlink:href="#mc9e1adf128" x="72" y="127.921223" style="stroke: #000000; stroke-width: 0.6"/>
      </g>
     </g>
    </g>
    <g id="ytick_29">
     <g id="line2d_44">
      <g>
       <use xlink:href="#mc9e1adf128" x="72" y="124.557777" style="stroke: #000000; stroke-width: 0.6"/>
      </g>
     </g>
    </g>
    <g id="ytick_30">
     <g id="line2d_45">
      <g>
       <use xlink:href="#mc9e1adf128" x="72" y="101.755365" style="stroke: #000000; stroke-width: 0.6"/>
      </g>
     </g>
    </g>
    <g id="ytick_31">
     <g id="line2d_46">
      <g>
       <use xlink:href="#mc9e1adf128" x="72" y="90.176789" style="stroke: #000000; stroke-width: 0.6"/>
      </g>
     </g>
    </g>
    <g id="ytick_32">
     <g id="line2d_47">
      <g>
       <use xlink:href="#mc9e1adf128" x="72" y="81.961658" style="stroke: #000000; stroke-width: 0.6"/>
      </g>
     </g>
    </g>
    <g id="ytick_33">
     <g id="line2d_48">
      <g>
       <use xlink:href="#mc9e1adf128" x="72" y="75.589508" style="stroke: #000000; stroke-width: 0.6"/>
      </g>
     </g>
    </g>
    <g id="ytick_34">
     <g id="line2d_49">
      <g>
       <use xlink:href="#mc9e1adf128" x="72" y="70.383082" style="stroke: #000000; stroke-width: 0.6"/>
      </g>
     </g>
    </g>
    <g id="ytick_35">
     <g id="line2d_50">
      <g>
       <use xlink:href="#mc9e1adf128" x="72" y="65.981112" style="stroke: #000000; stroke-width: 0.6"/>
      </g>
     </g>
    </g>
    <g id="ytick_36">
     <g id="line2d_51">
      <g>
       <use xlink:href="#mc9e1adf128" x="72" y="62.167951" style="stroke: #000000; stroke-width: 0.6"/>
      </g>
     </g>
    </g>
    <g id="ytick_37">
     <g id="line2d_52">
      <g>
       <use xlink:href="#mc9e1adf128" x="72" y="58.804506" style="stroke: #000000; stroke-width: 0.6"/>
      </g>
     </g>
    </g>
    <g id="text_12">
     <!-- CDF, $\mathrm{P}[Z &lt; z]$ -->
     <g transform="translate(35.420312 214.3) rotate(-90) scale(0.1 -0.1)">
      <defs>
       <path id="DejaVuSans-43" d="M 4122 4306 
L 4122 3641 
Q 3803 3938 3442 4084 
Q 3081 4231 2675 4231 
Q 1875 4231 1450 3742 
Q 1025 3253 1025 2328 
Q 1025 1406 1450 917 
Q 1875 428 2675 428 
Q 3081 428 3442 575 
Q 3803 722 4122 1019 
L 4122 359 
Q 3791 134 3420 21 
Q 3050 -91 2638 -91 
Q 1578 -91 968 557 
Q 359 1206 359 2328 
Q 359 3453 968 4101 
Q 1578 4750 2638 4750 
Q 3056 4750 3426 4639 
Q 3797 4528 4122 4306 
z
" transform="scale(0.015625)"/>
       <path id="DejaVuSans-44" d="M 1259 4147 
L 1259 519 
L 2022 519 
Q 2988 519 3436 956 
Q 3884 1394 3884 2338 
Q 3884 3275 3436 3711 
Q 2988 4147 2022 4147 
L 1259 4147 
z
M 628 4666 
L 1925 4666 
Q 3281 4666 3915 4102 
Q 4550 3538 4550 2338 
Q 4550 1131 3912 565 
Q 3275 0 1925 0 
L 628 0 
L 628 4666 
z
" transform="scale(0.015625)"/>
       <path id="DejaVuSans-46" d="M 628 4666 
L 3309 4666 
L 3309 4134 
L 1259 4134 
L 1259 2759 
L 3109 2759 
L 3109 2228 
L 1259 2228 
L 1259 0 
L 628 0 
L 628 4666 
z
" transform="scale(0.015625)"/>
       <path id="DejaVuSans-20" transform="scale(0.015625)"/>
       <path id="DejaVuSans-50" d="M 1259 4147 
L 1259 2394 
L 2053 2394 
Q 2494 2394 2734 2622 
Q 2975 2850 2975 3272 
Q 2975 3691 2734 3919 
Q 2494 4147 2053 4147 
L 1259 4147 
z
M 628 4666 
L 2053 4666 
Q 2838 4666 3239 4311 
Q 3641 3956 3641 3272 
Q 3641 2581 3239 2228 
Q 2838 1875 2053 1875 
L 1259 1875 
L 1259 0 
L 628 0 
L 628 4666 
z
" transform="scale(0.015625)"/>
       <path id="DejaVuSans-5b" d="M 550 4863 
L 1875 4863 
L 1875 4416 
L 1125 4416 
L 1125 -397 
L 1875 -397 
L 1875 -844 
L 550 -844 
L 550 4863 
z
" transform="scale(0.015625)"/>
       <path id="DejaVuSans-3c" d="M 4684 3150 
L 1459 2003 
L 4684 863 
L 4684 294 
L 678 1747 
L 678 2266 
L 4684 3719 
L 4684 3150 
z
" transform="scale(0.015625)"/>
       <path id="DejaVuSans-Oblique-7a" d="M 744 3500 
L 3475 3500 
L 3372 2975 
L 738 459 
L 2913 459 
L 2822 0 
L -19 0 
L 84 525 
L 2719 3041 
L 653 3041 
L 744 3500 
z
" transform="scale(0.015625)"/>
       <path id="DejaVuSans-5d" d="M 1947 4863 
L 1947 -844 
L 622 -844 
L 622 -397 
L 1369 -397 
L 1369 4416 
L 622 4416 
L 622 4863 
L 1947 4863 
z
" transform="scale(0.015625)"/>
      </defs>
      <use xlink:href="#DejaVuSans-43" transform="translate(0 0.015625)"/>
      <use xlink:href="#DejaVuSans-44" transform="translate(69.824219 0.015625)"/>
      <use xlink:href="#DejaVuSans-46" transform="translate(146.826172 0.015625)"/>
      <use xlink:href="#DejaVuSans-2c" transform="translate(204.345703 0.015625)"/>
      <use xlink:href="#DejaVuSans-20" transform="translate(236.132812 0.015625)"/>
      <use xlink:href="#DejaVuSans-50" transform="translate(267.919922 0.015625)"/>
      <use xlink:href="#DejaVuSans-5b" transform="translate(328.222656 0.015625)"/>
      <use xlink:href="#DejaVuSans-Oblique-5a" transform="translate(367.236328 0.015625)"/>
      <use xlink:href="#DejaVuSans-3c" transform="translate(455.224609 0.015625)"/>
      <use xlink:href="#DejaVuSans-Oblique-7a" transform="translate(558.496094 0.015625)"/>
      <use xlink:href="#DejaVuSans-5d" transform="translate(610.986328 0.015625)"/>
     </g>
    </g>
   </g>
   <g id="line2d_53">
    <path d="M 126.345782 176.706145 
L 126.345782 156.912438 
L 130.080459 156.912438 
L 130.080459 145.333861 
L 135.398713 145.333861 
L 135.484551 130.74658 
L 149.073765 130.74658 
L 149.073765 125.540154 
L 149.814218 125.540154 
L 149.814218 121.138184 
L 154.894699 121.138184 
L 154.894699 117.325023 
L 156.093053 117.325023 
L 156.093053 113.961578 
L 157.101768 113.961578 
L 157.101768 110.952873 
L 157.972096 110.952873 
L 157.972096 108.231169 
L 159.529745 108.231169 
L 159.529745 105.746447 
L 160.811858 105.746447 
L 160.811858 103.460725 
L 161.490907 103.460725 
L 161.490907 101.344477 
L 161.982699 101.344477 
L 161.982699 99.374297 
L 162.669545 99.374297 
L 162.669545 97.531316 
L 166.005308 97.531316 
L 166.005308 95.800103 
L 166.11888 95.800103 
L 166.11888 94.167871 
L 167.083407 94.167871 
L 167.083407 92.623912 
L 167.530936 92.623912 
L 167.530936 91.159166 
L 167.691063 91.159166 
L 167.691063 89.7659 
L 169.199701 89.7659 
L 169.199701 88.437461 
L 169.564553 88.437461 
L 169.564553 87.168084 
L 170.125475 87.168084 
L 170.125475 85.95274 
L 171.604519 85.95274 
L 171.604519 84.787016 
L 171.929458 84.787016 
L 171.929458 83.667018 
L 172.493751 83.667018 
L 172.493751 82.589294 
L 173.19609 82.589294 
L 173.19609 81.55077 
L 174.394212 81.55077 
L 174.394212 80.548692 
L 174.545527 80.548692 
L 174.545527 79.58059 
L 174.733914 79.58059 
L 174.733914 78.644234 
L 175.550484 78.644234 
L 175.550484 77.737609 
L 176.904849 77.737609 
L 176.904849 76.858885 
L 179.063073 76.858885 
L 179.063073 76.006395 
L 180.918867 76.006395 
L 180.918867 75.178619 
L 183.148945 75.178619 
L 183.148945 74.374164 
L 184.793794 74.374164 
L 184.793794 73.591751 
L 186.041634 73.591751 
L 186.041634 72.830205 
L 186.192713 72.830205 
L 186.192713 72.088441 
L 186.630969 72.088441 
L 186.630969 71.365459 
L 186.75047 71.365459 
L 186.75047 70.66033 
L 190.220253 70.66033 
L 190.220253 69.972193 
L 192.072466 69.972193 
L 192.072466 69.30025 
L 194.605928 69.30025 
L 194.605928 68.643754 
L 198.697286 68.643754 
L 198.697286 68.002013 
L 200.823147 68.002013 
L 200.823147 67.374377 
L 201.390552 67.374377 
L 201.443476 66.159033 
L 201.578181 66.159033 
L 201.578181 65.570223 
L 204.506151 65.570223 
L 204.506151 64.993308 
L 205.421202 64.993308 
L 205.421202 64.427819 
L 208.363495 64.427819 
L 208.363495 63.873311 
L 210.467035 63.873311 
L 210.467035 63.329365 
L 210.779703 63.329365 
L 210.779703 62.795587 
L 211.02396 62.795587 
L 211.02396 62.271604 
L 223.749623 62.271604 
L 223.749623 61.757062 
L 225.153785 61.757062 
L 225.153785 61.251628 
L 226.392418 61.251628 
L 226.392418 60.754985 
L 229.75755 60.754985 
L 229.75755 60.266831 
L 232.890668 60.266831 
L 232.890668 59.786882 
L 239.749212 59.786882 
L 239.749212 59.314867 
L 240.393214 59.314867 
L 240.393214 58.850527 
L 253.25488 58.850527 
L 253.25488 58.393617 
L 257.871652 58.393617 
L 257.871652 57.943902 
L 259.28598 57.943902 
L 259.28598 57.50116 
L 271.886449 57.50116 
L 271.886449 57.065178 
L 272.974562 57.065178 
L 272.974562 56.635752 
L 277.76974 56.635752 
L 277.76974 56.212688 
L 340.058982 56.212688 
L 340.058982 56.212688 
" clip-path="url(#p7c95664f08)" style="fill: none; stroke: #000000; stroke-width: 1.5; stroke-linecap: square"/>
   </g>
   <g id="line2d_54">
    <path d="M 92.290909 307.8 
L 92.290909 288.006293 
L 97.142931 288.006293 
L 97.142931 276.427716 
L 97.734787 276.427716 
L 97.734787 268.212586 
L 102.385942 268.212586 
L 102.385942 261.840435 
L 108.110434 261.840435 
L 108.110434 256.634009 
L 108.277735 256.634009 
L 108.277735 252.232039 
L 108.494491 252.232039 
L 108.494491 248.418879 
L 109.007917 248.418879 
L 109.040519 242.046728 
L 109.236731 242.046728 
L 109.236731 239.325024 
L 109.775311 239.325024 
L 109.775311 236.840302 
L 110.11985 236.840302 
L 110.176508 232.438332 
L 111.158494 232.438332 
L 111.158494 230.468152 
L 111.732657 230.468152 
L 111.828746 226.893958 
L 112.988141 226.893958 
L 112.988141 225.261726 
L 113.124938 225.261726 
L 113.124938 223.717767 
L 113.485809 223.717767 
L 113.485809 222.253021 
L 113.631232 222.253021 
L 113.631232 220.859755 
L 114.22227 220.859755 
L 114.243516 218.26194 
L 114.536073 218.26194 
L 114.536073 217.046595 
L 114.719463 217.046595 
L 114.719463 215.880871 
L 114.989116 215.880871 
L 114.989116 214.760873 
L 116.304052 214.760873 
L 116.367696 212.644625 
L 116.55581 212.644625 
L 116.55581 211.642547 
L 116.733913 211.642547 
L 116.733913 210.674445 
L 117.130808 210.674445 
L 117.22938 207.95274 
L 117.423925 207.95274 
L 117.423925 207.100251 
L 117.829565 207.100251 
L 117.829565 206.272474 
L 118.115895 206.272474 
L 118.209916 204.685606 
L 118.250339 204.685606 
L 118.259817 203.182297 
L 118.467055 203.182297 
L 118.467055 202.459314 
L 118.924114 202.459314 
L 118.924114 201.754185 
L 119.155944 201.754185 
L 119.155944 201.066048 
L 119.40034 201.066048 
L 119.463123 199.73761 
L 119.541055 199.73761 
L 119.541055 199.095868 
L 119.757584 199.095868 
L 119.837833 197.854095 
L 120.002236 197.854095 
L 120.002236 197.252888 
L 120.11346 197.252888 
L 120.11346 196.664078 
L 120.418078 196.664078 
L 120.418078 196.087164 
L 120.583085 196.087164 
L 120.583085 195.521674 
L 120.869292 195.521674 
L 120.972688 194.42322 
L 121.195805 194.42322 
L 121.195805 193.889442 
L 121.327925 193.889442 
L 121.327925 193.365459 
L 121.442411 193.365459 
L 121.442411 192.850918 
L 121.570799 192.850918 
L 121.621667 191.84884 
L 121.70476 191.84884 
L 121.791576 189.487472 
L 121.86654 189.487472 
L 121.937366 188.159033 
L 122.141125 188.159033 
L 122.141125 187.729607 
L 122.411863 187.729607 
L 122.4373 186.889656 
L 122.538086 186.889656 
L 122.614861 185.674312 
L 122.784839 185.674312 
L 122.857945 184.130353 
L 123.064366 184.130353 
L 123.099135 183.388589 
L 123.308619 183.388589 
L 123.308619 183.02481 
L 123.432237 183.02481 
L 123.538642 181.614337 
L 123.554969 181.614337 
L 123.56429 180.934393 
L 123.768437 180.934393 
L 123.768437 180.600398 
L 123.884541 180.600398 
L 123.963634 179.943902 
L 124.064818 179.943902 
L 124.144926 178.674525 
L 124.284441 178.674525 
L 124.284441 178.365806 
L 124.535813 178.365806 
L 124.535813 178.060388 
L 124.884335 178.060388 
L 124.884335 177.758202 
L 125.035898 177.758202 
L 125.035898 177.459181 
L 125.283997 177.459181 
L 125.340844 176.870371 
L 125.403783 176.870371 
L 125.475152 176.293457 
L 125.581347 176.293457 
L 125.619667 175.727967 
L 125.712148 175.727967 
L 125.712148 175.449367 
L 126.058257 175.449367 
L 126.157108 174.629513 
L 126.203425 174.629513 
L 126.224725 174.095735 
L 126.352729 174.095735 
L 126.438239 173.571752 
L 126.511249 173.571752 
L 126.511249 173.313322 
L 126.644201 173.313322 
L 126.703922 172.803375 
L 126.8043 172.803375 
L 126.8043 172.551776 
L 127.00708 172.551776 
L 127.102268 172.055133 
L 127.167806 172.055133 
L 127.185309 171.566979 
L 127.29765 171.566979 
L 127.363276 171.087031 
L 127.504409 171.087031 
L 127.568605 170.381901 
L 127.654233 170.381901 
L 127.654233 170.150675 
L 127.793371 170.150675 
L 127.793371 169.921306 
L 127.995032 169.921306 
L 127.995032 169.693765 
L 128.142781 169.693765 
L 128.186726 169.021821 
L 128.355108 169.021821 
L 128.412625 168.582485 
L 128.539579 168.582485 
L 128.539579 168.365326 
L 128.745178 168.365326 
L 128.835054 167.9359 
L 128.886451 167.9359 
L 128.886451 167.723585 
L 129.028503 167.723585 
L 129.086645 167.095949 
L 129.182398 167.095949 
L 129.246465 166.481812 
L 129.364229 166.481812 
L 129.458998 166.079604 
L 129.482801 166.079604 
L 129.495679 165.682982 
L 129.779066 165.682982 
L 129.779066 165.486719 
L 129.929071 165.486719 
L 129.998445 164.525137 
L 130.077037 164.525137 
L 130.183958 163.594882 
L 130.372521 163.594882 
L 130.372521 163.412413 
L 130.491916 163.412413 
L 130.584136 162.8719 
L 130.884093 162.8719 
L 130.991667 161.993176 
L 131.049479 161.993176 
L 131.063294 161.478634 
L 131.202093 161.478634 
L 131.24303 160.9732 
L 131.434275 160.9732 
L 131.52708 160.476556 
L 131.550757 160.476556 
L 131.661707 159.988403 
L 131.673846 159.988403 
L 131.778774 159.508454 
L 131.916846 159.508454 
L 131.916846 159.350247 
L 132.102046 159.350247 
L 132.133112 158.880818 
L 132.214687 158.880818 
L 132.313772 158.418981 
L 132.331419 158.418981 
L 132.438328 158.115188 
L 132.446883 158.115188 
L 132.536986 157.665474 
L 132.573866 157.665474 
L 132.602573 157.222732 
L 132.704543 157.222732 
L 132.742164 156.78675 
L 132.959335 156.78675 
L 133.014271 156.357324 
L 133.137476 156.357324 
L 133.21766 156.074586 
L 133.372618 156.074586 
L 133.441065 155.517373 
L 133.520071 155.517373 
L 133.547727 155.106484 
L 133.642491 155.106484 
L 133.734802 154.701423 
L 133.811339 154.701423 
L 133.845948 154.302028 
L 133.985887 154.302028 
L 134.056698 153.908142 
L 134.122767 153.908142 
L 134.221091 153.519615 
L 134.283876 153.519615 
L 134.326961 153.136304 
L 134.501022 153.136304 
L 134.598508 152.508668 
L 134.694003 152.508668 
L 134.720897 152.138603 
L 134.831335 152.138603 
L 134.924844 151.894531 
L 135.033196 151.894531 
L 135.124917 151.293323 
L 135.148303 151.293323 
L 135.228609 151.05634 
L 135.283083 151.05634 
L 135.284225 150.821308 
L 135.412838 150.821308 
L 135.481983 150.472347 
L 135.565575 150.472347 
L 135.662495 150.127599 
L 135.732525 150.127599 
L 135.73545 149.900058 
L 135.86485 149.900058 
L 135.945081 149.674315 
L 135.984174 149.674315 
L 136.07327 149.228114 
L 136.298808 149.117645 
L 136.298808 149.007601 
L 136.607055 148.89798 
L 136.714821 148.571619 
L 136.754106 148.463656 
L 136.817568 148.035838 
L 136.881046 147.929878 
L 136.959922 147.614335 
L 137.042681 147.509925 
L 137.112313 147.198964 
L 137.2541 147.096058 
L 137.314712 146.688105 
L 137.433034 146.58702 
L 137.526362 146.086897 
L 137.627192 145.987915 
L 137.662612 145.595383 
L 137.779467 145.498087 
L 137.871764 145.208173 
L 137.976031 145.112186 
L 138.064488 144.73143 
L 138.107197 144.637029 
L 138.174956 144.169648 
L 138.339915 144.077083 
L 138.443401 143.709795 
L 138.547989 143.618706 
L 138.635722 143.347171 
L 138.685083 143.25723 
L 138.779238 142.900271 
L 138.888304 142.811725 
L 138.987823 142.460258 
L 139.069654 142.373063 
L 139.178215 141.855413 
L 139.274055 141.770043 
L 139.378034 141.263113 
L 139.419985 141.179493 
L 139.525111 140.600909 
L 139.640764 140.519203 
L 139.717328 140.114142 
L 139.764372 140.033815 
L 139.848556 139.55654 
L 139.896929 139.477764 
L 139.984145 139.164815 
L 140.10155 139.087111 
L 140.198654 138.625274 
L 140.232044 138.549023 
L 140.303794 138.397127 
L 140.381992 138.321481 
L 140.448885 137.946229 
L 140.533071 137.871767 
L 140.633675 137.649538 
L 140.661693 137.575844 
L 140.720437 137.429025 
L 140.884013 137.355897 
L 140.956383 137.137632 
L 141.04768 137.065246 
L 141.105773 136.777522 
L 141.208455 136.706042 
L 141.295687 136.351301 
L 141.375802 136.280879 
L 141.428854 136.070648 
L 141.580544 136.000913 
L 141.636665 135.723665 
L 141.729506 135.654772 
L 141.838665 135.517482 
L 141.906623 135.449084 
L 142.000941 135.312777 
L 142.040767 135.244866 
L 142.105528 134.907716 
L 142.22887 134.840761 
L 142.331921 134.442295 
L 142.526191 134.376421 
L 142.636503 134.049312 
L 142.653147 133.984338 
L 142.734609 133.725908 
L 142.814679 133.661665 
L 142.876769 133.406126 
L 142.98581 133.342597 
L 143.083064 132.901807 
L 143.140979 132.839389 
L 143.188442 132.652949 
L 143.319331 132.591072 
L 143.414987 132.344896 
L 143.552439 132.283682 
L 143.581532 132.100823 
L 143.956542 132.04013 
L 144.039551 131.85882 
L 144.087561 131.798638 
L 144.189772 131.262633 
L 144.231933 131.203694 
L 144.338877 130.736505 
L 144.392353 130.67864 
L 144.464608 130.448346 
L 144.599333 130.391062 
L 144.700771 129.993256 
L 144.814426 129.936877 
L 144.903529 129.600916 
L 144.95558 129.545305 
L 145.058745 129.159031 
L 145.1357 129.04962 
L 145.224771 128.777912 
L 145.346427 128.669948 
L 145.437533 128.348486 
L 145.504697 128.242131 
L 145.588909 127.820628 
L 145.706675 127.716218 
L 145.76608 127.456849 
L 145.958016 127.353758 
L 146.050174 127.199815 
L 146.073308 127.097646 
L 146.174616 126.742905 
L 146.267093 126.642354 
L 146.368832 126.392517 
L 146.425715 126.29319 
L 146.476308 125.997268 
L 146.577442 125.899304 
L 146.664688 125.462581 
L 146.7685 125.366432 
L 146.859907 125.127466 
L 146.927908 125.032437 
L 147.020203 124.749231 
L 147.093317 124.65545 
L 147.202028 124.375941 
L 147.292463 124.283376 
L 147.387141 123.961741 
L 147.445486 123.870507 
L 147.550526 123.508458 
L 147.600132 123.418658 
L 147.701161 123.195386 
L 147.749814 123.106564 
L 147.827516 123.018018 
L 147.90298 122.929745 
L 148.006232 122.622921 
L 148.064583 122.535859 
L 148.156956 122.405761 
L 148.225104 122.319358 
L 148.326688 122.018989 
L 148.390002 121.933746 
L 148.439425 121.806357 
L 148.571178 121.721746 
L 148.676901 121.1778 
L 148.729239 121.095028 
L 148.836089 120.807202 
L 148.907792 120.725495 
L 149.014045 120.400989 
L 149.060711 120.320435 
L 149.159889 120.120039 
L 149.184754 120.040273 
L 149.295604 119.841827 
L 149.325561 119.762833 
L 149.412519 119.371108 
L 149.497127 119.293404 
L 149.599299 119.023092 
L 149.69737 118.946328 
L 149.788868 118.679267 
L 149.887954 118.60342 
L 149.998557 118.339532 
L 150.12237 118.264581 
L 150.22025 117.892749 
L 150.315752 117.782137 
L 150.412206 117.598731 
L 150.543925 117.489249 
L 150.631066 117.127314 
L 150.779028 117.019623 
L 150.883176 116.841034 
L 151.006033 116.734414 
L 151.076367 116.487172 
L 151.162924 116.381863 
L 151.271899 116.033611 
L 151.328369 115.929958 
L 151.405865 115.82668 
L 151.566223 115.723775 
L 151.615705 115.553085 
L 151.785658 115.451159 
L 151.894449 115.248392 
L 151.980599 115.147545 
L 152.072856 114.81394 
L 152.133905 114.714614 
L 152.240565 114.418691 
L 152.345236 114.320728 
L 152.439615 114.028838 
L 152.531162 113.932201 
L 152.618295 113.644236 
L 152.711929 113.548889 
L 152.822345 113.359146 
L 152.902623 113.264745 
L 152.918214 113.13936 
L 153.059354 113.045682 
L 153.161157 112.7048 
L 153.207185 112.612534 
L 153.311616 112.398399 
L 153.37468 112.307116 
L 153.485291 112.004931 
L 153.552596 111.914895 
L 153.657972 111.646479 
L 153.72148 111.557565 
L 153.830985 111.292471 
L 153.967026 111.20465 
L 154.07449 110.884933 
L 154.167082 110.798355 
L 154.273888 110.625982 
L 154.316746 110.540185 
L 154.414613 110.397759 
L 154.531485 110.312643 
L 154.576747 110.199549 
L 154.75799 110.115021 
L 154.867977 109.835056 
L 154.94178 109.751598 
L 155.032013 109.530231 
L 155.102736 109.420187 
L 155.201307 109.255913 
L 155.277645 109.146919 
L 155.372352 108.903194 
L 155.514408 108.795536 
L 155.582824 108.634806 
L 155.660429 108.528153 
L 155.771225 108.28963 
L 155.922451 108.184257 
L 156.027968 107.948577 
L 156.195299 107.844452 
L 156.305605 107.560051 
L 156.349079 107.45733 
L 156.453386 107.278453 
L 156.49773 107.176739 
L 156.593471 106.949198 
L 156.698938 106.848647 
L 156.78897 106.773466 
L 156.866426 106.673532 
L 156.950686 106.449949 
L 157.191011 106.351139 
L 157.264988 106.203561 
L 157.340069 106.105597 
L 157.434582 106.032345 
L 157.517747 105.934966 
L 157.618158 105.813708 
L 157.701262 105.71707 
L 157.811419 105.524771 
L 157.909714 105.429105 
L 157.986733 105.262457 
L 158.082599 105.167664 
L 158.174198 105.002531 
L 158.242505 104.908595 
L 158.344065 104.698364 
L 158.413176 104.605422 
L 158.519221 104.443499 
L 158.599813 104.351382 
L 158.6875 104.145198 
L 158.746673 104.054037 
L 158.818061 103.895202 
L 158.981696 103.804833 
L 159.071191 103.557786 
L 159.230683 103.468478 
L 159.336033 103.22431 
L 159.433782 103.114012 
L 159.530162 102.938415 
L 159.58256 102.829213 
L 159.685833 102.69872 
L 159.777451 102.590429 
L 159.886172 102.439508 
L 159.951598 102.332194 
L 160.032852 102.161326 
L 160.094097 102.05505 
L 160.203952 101.822626 
L 160.289548 101.717601 
L 160.391378 101.55036 
L 160.461712 101.44633 
L 160.55269 101.260025 
L 160.687006 101.157045 
L 160.797242 100.952193 
L 160.867907 100.850315 
L 160.974058 100.7488 
L 161.047801 100.647644 
L 161.156081 100.446401 
L 161.183265 100.346308 
L 161.276758 100.127333 
L 161.38663 100.028351 
L 161.468203 99.851043 
L 161.537908 99.753013 
L 161.632291 99.616333 
L 161.747715 99.519103 
L 161.839063 99.267845 
L 161.936643 99.171793 
L 162.041588 99.018778 
L 162.13895 98.923559 
L 162.248678 98.677464 
L 162.307395 98.583374 
L 162.404961 98.433472 
L 162.488956 98.340181 
L 162.590037 98.154509 
L 162.761318 98.043682 
L 162.867769 97.841611 
L 163.07093 97.731989 
L 163.153254 97.586479 
L 163.342134 97.477831 
L 163.447523 97.333607 
L 163.574073 97.225915 
L 163.676245 96.993967 
L 163.752279 96.887546 
L 163.861351 96.658318 
L 163.982925 96.553139 
L 164.091229 96.430917 
L 164.250684 96.326569 
L 164.361554 96.101784 
L 164.448668 95.99863 
L 164.544113 95.844595 
L 164.657484 95.742365 
L 164.763076 95.522114 
L 164.904285 95.42103 
L 165.004663 95.253347 
L 165.180354 95.153208 
L 165.228581 95.10327 
L 165.347401 95.003655 
L 165.385339 94.904386 
L 165.524673 94.805461 
L 165.626179 94.674092 
L 165.803367 94.57596 
L 165.904279 94.461898 
L 165.969164 94.364492 
L 166.078898 94.186772 
L 166.194088 94.090298 
L 166.296321 93.946195 
L 166.379938 93.850529 
L 166.482894 93.675969 
L 166.576751 93.565439 
L 166.683325 93.408277 
L 166.780097 93.298776 
L 166.889745 93.158603 
L 166.969993 93.050053 
L 167.058824 92.895694 
L 167.163085 92.788138 
L 167.273087 92.66571 
L 167.417236 92.559014 
L 167.491598 92.40728 
L 167.612085 92.301544 
L 167.714746 92.136174 
L 167.765931 92.031435 
L 167.872136 91.941964 
L 167.962582 91.837933 
L 168.050746 91.719504 
L 168.131689 91.616279 
L 168.222768 91.498764 
L 168.389682 91.396333 
L 168.497764 91.178067 
L 168.593092 91.076778 
L 168.697524 90.903971 
L 168.745932 90.803647 
L 168.851957 90.646705 
L 168.939265 90.54728 
L 169.047741 90.335385 
L 169.135663 90.237036 
L 169.242037 90.027422 
L 169.307213 89.930126 
L 169.407302 89.791705 
L 169.500527 89.681449 
L 169.580238 89.585323 
L 169.752188 89.475859 
L 169.85689 89.271739 
L 169.968843 89.163468 
L 170.064212 89.082534 
L 170.176297 88.974977 
L 170.273528 88.814398 
L 170.421874 88.707845 
L 170.529501 88.588445 
L 170.643245 88.48273 
L 170.74037 88.364267 
L 170.836382 88.259377 
L 170.928081 88.128803 
L 171.074513 88.024773 
L 171.148952 87.959946 
L 171.279435 87.856528 
L 171.388093 87.766344 
L 171.45301 87.663623 
L 171.557437 87.548502 
L 171.676084 87.446561 
L 171.757212 87.306983 
L 171.836726 87.205899 
L 171.947741 87.05494 
L 172.040486 86.954743 
L 172.146739 86.817543 
L 172.287155 86.718173 
L 172.392628 86.582102 
L 172.518705 86.471252 
L 172.611004 86.385331 
L 172.762685 86.27524 
L 172.867315 86.153413 
L 173.095588 86.044211 
L 173.189697 85.899255 
L 173.282672 85.791019 
L 173.387072 85.671235 
L 173.629184 85.563858 
L 173.725291 85.504379 
L 173.884676 85.397626 
L 173.980949 85.338491 
L 174.122755 85.232356 
L 174.229032 85.173562 
L 174.37059 85.068036 
L 174.464366 84.974562 
L 174.594975 84.869768 
L 174.705834 84.707516 
L 174.897777 84.603696 
L 175.003914 84.500252 
L 175.085298 84.397181 
L 175.178293 84.34008 
L 175.31891 84.237585 
L 175.423908 84.112811 
L 175.650608 84.011126 
L 175.752942 83.887335 
L 175.866877 83.78645 
L 175.97156 83.674771 
L 176.027008 83.574631 
L 176.131861 83.40851 
L 176.312292 83.298296 
L 176.419151 83.232372 
L 176.499612 83.122834 
L 176.609886 83.057313 
L 176.691773 82.948444 
L 176.801926 82.818347 
L 176.949358 82.710384 
L 177.039195 82.581364 
L 177.170036 82.474291 
L 177.274566 82.378268 
L 177.347796 82.271953 
L 177.457327 82.197767 
L 177.63445 82.09212 
L 177.73955 81.976358 
L 177.932944 81.871526 
L 178.04197 81.746233 
L 178.181508 81.642241 
L 178.280055 81.528285 
L 178.391514 81.425081 
L 178.492629 81.311987 
L 178.601574 81.209561 
L 178.698206 81.117691 
L 178.856444 81.015959 
L 178.963431 80.884246 
L 179.176956 80.773269 
L 179.281833 80.68279 
L 179.388243 80.572592 
L 179.484935 80.442904 
L 179.668124 80.333626 
L 179.777321 80.214888 
L 179.901985 80.106478 
L 180.008863 79.988679 
L 180.201195 79.881123 
L 180.302712 79.822626 
L 180.449393 79.715691 
L 180.558171 79.618825 
L 180.805807 79.512649 
L 180.912601 79.349333 
L 180.994847 79.244153 
L 181.08048 79.158384 
L 181.220791 79.053904 
L 181.330591 78.930918 
L 181.495101 78.827266 
L 181.600382 78.714617 
L 181.756291 78.611745 
L 181.85224 78.490645 
L 182.061949 78.388576 
L 182.172994 78.296101 
L 182.284638 78.185524 
L 182.384472 78.121219 
L 182.57831 78.011316 
L 182.666784 77.920053 
L 182.870849 77.810921 
L 182.976692 77.711248 
L 183.09905 77.602909 
L 183.189864 77.521923 
L 183.30601 77.414299 
L 183.415654 77.324921 
L 183.545777 77.218035 
L 183.653609 77.120407 
L 183.905325 77.014282 
L 184.00583 76.926146 
L 184.18536 76.820739 
L 184.288925 76.724458 
L 184.546999 76.619792 
L 184.648784 76.567602 
L 184.826577 76.463509 
L 184.915042 76.368422 
L 185.093682 76.265051 
L 185.187209 76.239266 
L 185.347719 76.136361 
L 185.433699 76.042355 
L 185.663919 75.931655 
L 185.770623 75.821383 
L 185.895559 75.711535 
L 185.991018 75.635733 
L 186.325846 75.526595 
L 186.434405 75.442926 
L 186.606025 75.334521 
L 186.687641 75.276319 
L 186.923213 75.168544 
L 187.022311 75.085915 
L 187.152423 74.978855 
L 187.249437 74.937785 
L 187.4809 74.831277 
L 187.584036 74.765931 
L 187.802444 74.660061 
L 187.911544 74.562682 
L 188.174078 74.457562 
L 188.282438 74.376963 
L 188.47226 74.272523 
L 188.573735 74.176455 
L 188.727909 74.072744 
L 188.836003 73.985282 
L 189.118492 73.874353 
L 189.226306 73.73236 
L 189.414065 73.622407 
L 189.510884 73.536312 
L 189.672781 73.42711 
L 189.777664 73.395986 
L 189.987599 73.287318 
L 190.092115 73.209951 
L 190.33595 73.101987 
L 190.44571 73.02512 
L 190.630089 72.917852 
L 190.724885 72.872003 
L 191.02585 72.765307 
L 191.135176 72.636282 
L 191.319726 72.530462 
L 191.426593 72.43255 
L 191.648367 72.327481 
L 191.757851 72.222797 
L 191.965512 72.118495 
L 192.074421 72.059065 
L 192.297252 71.947965 
L 192.407357 71.874138 
L 192.658174 71.763754 
L 192.767364 71.73439 
L 193.010789 71.624544 
L 193.120769 71.529685 
L 193.330481 71.420622 
L 193.434583 71.33367 
L 193.753497 71.225352 
L 193.846375 71.153367 
L 194.152824 71.04573 
L 194.259274 70.988488 
L 194.503539 70.881469 
L 194.613554 70.817449 
L 194.866562 70.711068 
L 194.933365 70.654493 
L 195.157854 70.548716 
L 195.25752 70.478415 
L 195.497793 70.373286 
L 195.608034 70.303415 
L 195.786136 70.198928 
L 195.878678 70.122547 
L 196.119944 70.01181 
L 196.22024 69.956602 
L 196.485656 69.846505 
L 196.580376 69.77791 
L 196.77853 69.668498 
L 196.878109 69.607138 
L 197.193195 69.498378 
L 197.277168 69.450926 
L 197.640798 69.342758 
L 197.717677 69.309039 
L 197.994565 69.201406 
L 198.053595 69.154444 
L 198.339475 69.047392 
L 198.447986 68.960706 
L 198.710811 68.854376 
L 198.800346 68.821228 
L 198.992684 68.715415 
L 199.097202 68.649481 
L 199.433111 68.544301 
L 199.542503 68.485307 
L 199.862153 68.374206 
L 199.969633 68.335096 
L 200.219675 68.224577 
L 200.321478 68.172715 
L 200.693451 68.062821 
L 200.800907 67.985502 
L 201.033391 67.876325 
L 201.123969 67.831491 
L 201.378845 67.722899 
L 201.484296 67.684671 
L 201.778729 67.576636 
L 201.884243 67.538603 
L 202.150743 67.431118 
L 202.257928 67.393278 
L 202.595683 67.286338 
L 202.686376 67.229884 
L 202.954832 67.123552 
L 203.059901 67.067419 
L 203.344633 66.961689 
L 203.453715 66.893484 
L 203.73999 66.788395 
L 203.789261 66.75756 
L 204.309413 66.646829 
L 204.418091 66.597753 
L 204.645389 66.487638 
L 204.749589 66.420555 
L 205.06397 66.31112 
L 205.167705 66.244449 
L 205.590577 66.135686 
L 205.697322 66.08146 
L 205.987068 65.973315 
L 206.059087 65.937357 
L 206.665564 65.829755 
L 206.770983 65.776106 
L 207.121162 65.669109 
L 207.226677 65.633532 
L 207.5723 65.527067 
L 207.678051 65.479877 
L 208.111986 65.373982 
L 208.219342 65.321181 
L 208.575112 65.215872 
L 208.683911 65.180855 
L 208.978162 65.070251 
L 209.060679 65.035412 
L 209.308815 64.925368 
L 209.404133 64.844554 
L 209.808826 64.735242 
L 209.90406 64.689341 
L 210.213495 64.58062 
L 210.320469 64.552078 
L 210.594309 64.443878 
L 210.703761 64.398442 
L 210.934516 64.290822 
L 211.031337 64.251274 
L 211.364685 64.144205 
L 211.445078 64.099244 
L 211.764443 63.992742 
L 211.870097 63.970372 
L 212.258699 63.864349 
L 212.320216 63.814265 
L 212.720886 63.703281 
L 212.811542 63.664538 
L 213.328283 63.554132 
L 213.436845 63.515591 
L 213.921596 63.405759 
L 214.031196 63.378367 
L 214.456453 63.269061 
L 214.559776 63.230902 
L 215.150603 63.122157 
L 215.256879 63.111306 
L 215.686238 63.003015 
L 215.796896 62.954417 
L 216.371692 62.846719 
L 216.39277 62.830599 
L 217.021705 62.723365 
L 217.069496 62.707315 
L 217.731855 62.600542 
L 217.835933 62.573911 
L 218.396215 62.467636 
L 218.485308 62.43583 
L 219.304 62.324788 
L 219.40314 62.282599 
L 219.895431 62.17215 
L 219.961121 62.151161 
L 220.442573 62.041218 
L 220.533487 62.020325 
L 221.114532 61.910883 
L 221.222793 61.858916 
L 221.656454 61.75009 
L 221.720353 61.734578 
L 222.272066 61.626224 
L 222.37291 61.590197 
L 222.965316 61.482389 
L 223.076101 61.431195 
L 223.729846 61.323984 
L 223.834699 61.293426 
L 224.592856 61.186731 
L 224.693359 61.166453 
L 225.742725 61.06023 
L 225.82428 61.034997 
L 226.816276 60.924235 
L 226.893967 60.884064 
L 227.407247 60.773886 
L 227.502241 60.733926 
L 228.310634 60.624324 
L 228.412218 60.584573 
L 229.186544 60.475541 
L 229.292468 60.455762 
L 230.296604 60.34722 
L 230.375078 60.337373 
L 231.000823 60.22928 
L 231.089748 60.214572 
L 231.605895 60.106941 
L 231.70483 60.082536 
L 232.706245 59.975401 
L 232.795543 59.931689 
L 233.614195 59.825117 
L 233.623089 59.810616 
L 234.536185 59.69968 
L 234.6356 59.685242 
L 235.159993 59.574791 
L 235.208456 59.555626 
L 236.316022 59.445674 
L 236.410191 59.431364 
L 237.546065 59.321889 
L 237.610965 59.30764 
L 238.323339 59.198638 
L 238.433767 59.179723 
L 239.494712 59.071207 
L 239.566376 59.042966 
L 240.753156 58.934967 
L 240.843833 58.916226 
L 242.355618 58.808705 
L 242.437359 58.79471 
L 243.477347 58.687644 
L 243.56745 58.673709 
L 244.503384 58.567095 
L 244.589223 58.548594 
L 245.349758 58.437839 
L 245.458967 58.424024 
L 246.630218 58.313751 
L 246.740969 58.299996 
L 247.812495 58.1902 
L 247.909846 58.162816 
L 249.61188 58.053545 
L 249.696667 58.030832 
L 251.412576 57.922063 
L 251.502674 57.908496 
L 253.052279 57.800192 
L 253.118073 57.791185 
L 254.343466 57.683324 
L 254.42144 57.669869 
L 256.122731 57.562464 
L 256.156706 57.553532 
L 257.779616 57.446563 
L 257.779616 57.442115 
L 259.658805 57.33113 
L 259.716775 57.32227 
L 262.323012 57.211749 
L 262.399955 57.202926 
L 264.447896 57.092866 
L 264.532116 57.084079 
L 267.195306 56.974475 
L 267.26653 56.96135 
L 271.156117 56.852215 
L 271.223895 56.843502 
L 273.940291 56.734816 
L 274.0473 56.726139 
L 277.976619 56.617897 
L 277.976619 56.613576 
L 281.82246 56.505759 
L 281.82246 56.501455 
L 289.24112 56.39406 
L 289.24112 56.389773 
L 296.001833 56.282796 
L 296.025904 56.274255 
L 306.000559 56.163456 
L 306.000559 56.159203 
L 317.062785 56.048849 
L 317.062785 56.044613 
L 329.901491 55.9347 
L 329.901491 55.930481 
L 405.48829 55.821005 
L 405.48829 55.816803 
L 498.109091 55.8 
L 498.109091 55.8 
" clip-path="url(#p7c95664f08)" style="fill: none; stroke: #ff0000; stroke-width: 1.5; stroke-linecap: square"/>
   </g>
   <g id="patch_3">
    <path d="M 72 320.4 
L 72 43.2 
" style="fill: none; stroke: #000000; stroke-width: 0.8; stroke-linejoin: miter; stroke-linecap: square"/>
   </g>
   <g id="patch_4">
    <path d="M 518.4 320.4 
L 518.4 43.2 
" style="fill: none; stroke: #000000; stroke-width: 0.8; stroke-linejoin: miter; stroke-linecap: square"/>
   </g>
   <g id="patch_5">
    <path d="M 72 320.4 
L 518.4 320.4 
" style="fill: none; stroke: #000000; stroke-width: 0.8; stroke-linejoin: miter; stroke-linecap: square"/>
   </g>
   <g id="patch_6">
    <path d="M 72 43.2 
L 518.4 43.2 
" style="fill: none; stroke: #000000; stroke-width: 0.8; stroke-linejoin: miter; stroke-linecap: square"/>
   </g>
   <g id="text_13">
    <!-- Comparison: CDF (log scale expands lower tail) -->
    <g transform="translate(153.135937 37.2) scale(0.12 -0.12)">
     <defs>
      <path id="DejaVuSans-6f" d="M 1959 3097 
Q 1497 3097 1228 2736 
Q 959 2375 959 1747 
Q 959 1119 1226 758 
Q 1494 397 1959 397 
Q 2419 397 2687 759 
Q 2956 1122 2956 1747 
Q 2956 2369 2687 2733 
Q 2419 3097 1959 3097 
z
M 1959 3584 
Q 2709 3584 3137 3096 
Q 3566 2609 3566 1747 
Q 3566 888 3137 398 
Q 2709 -91 1959 -91 
Q 1206 -91 779 398 
Q 353 888 353 1747 
Q 353 2609 779 3096 
Q 1206 3584 1959 3584 
z
" transform="scale(0.015625)"/>
      <path id="DejaVuSans-6d" d="M 3328 2828 
Q 3544 3216 3844 3400 
Q 4144 3584 4550 3584 
Q 5097 3584 5394 3201 
Q 5691 2819 5691 2113 
L 5691 0 
L 5113 0 
L 5113 2094 
Q 5113 2597 4934 2840 
Q 4756 3084 4391 3084 
Q 3944 3084 3684 2787 
Q 3425 2491 3425 1978 
L 3425 0 
L 2847 0 
L 2847 2094 
Q 2847 2600 2669 2842 
Q 2491 3084 2119 3084 
Q 1678 3084 1418 2786 
Q 1159 2488 1159 1978 
L 1159 0 
L 581 0 
L 581 3500 
L 1159 3500 
L 1159 2956 
Q 1356 3278 1631 3431 
Q 1906 3584 2284 3584 
Q 2666 3584 2933 3390 
Q 3200 3197 3328 2828 
z
" transform="scale(0.015625)"/>
      <path id="DejaVuSans-70" d="M 1159 525 
L 1159 -1331 
L 581 -1331 
L 581 3500 
L 1159 3500 
L 1159 2969 
Q 1341 3281 1617 3432 
Q 1894 3584 2278 3584 
Q 2916 3584 3314 3078 
Q 3713 2572 3713 1747 
Q 3713 922 3314 415 
Q 2916 -91 2278 -91 
Q 1894 -91 1617 61 
Q 1341 213 1159 525 
z
M 3116 1747 
Q 3116 2381 2855 2742 
Q 2594 3103 2138 3103 
Q 1681 3103 1420 2742 
Q 1159 2381 1159 1747 
Q 1159 1113 1420 752 
Q 1681 391 2138 391 
Q 2594 391 2855 752 
Q 3116 1113 3116 1747 
z
" transform="scale(0.015625)"/>
      <path id="DejaVuSans-61" d="M 2194 1759 
Q 1497 1759 1228 1600 
Q 959 1441 959 1056 
Q 959 750 1161 570 
Q 1363 391 1709 391 
Q 2188 391 2477 730 
Q 2766 1069 2766 1631 
L 2766 1759 
L 2194 1759 
z
M 3341 1997 
L 3341 0 
L 2766 0 
L 2766 531 
Q 2569 213 2275 61 
Q 1981 -91 1556 -91 
Q 1019 -91 701 211 
Q 384 513 384 1019 
Q 384 1609 779 1909 
Q 1175 2209 1959 2209 
L 2766 2209 
L 2766 2266 
Q 2766 2663 2505 2880 
Q 2244 3097 1772 3097 
Q 1472 3097 1187 3025 
Q 903 2953 641 2809 
L 641 3341 
Q 956 3463 1253 3523 
Q 1550 3584 1831 3584 
Q 2591 3584 2966 3190 
Q 3341 2797 3341 1997 
z
" transform="scale(0.015625)"/>
      <path id="DejaVuSans-72" d="M 2631 2963 
Q 2534 3019 2420 3045 
Q 2306 3072 2169 3072 
Q 1681 3072 1420 2755 
Q 1159 2438 1159 1844 
L 1159 0 
L 581 0 
L 581 3500 
L 1159 3500 
L 1159 2956 
Q 1341 3275 1631 3429 
Q 1922 3584 2338 3584 
Q 2397 3584 2469 3576 
Q 2541 3569 2628 3553 
L 2631 2963 
z
" transform="scale(0.015625)"/>
      <path id="DejaVuSans-69" d="M 603 3500 
L 1178 3500 
L 1178 0 
L 603 0 
L 603 3500 
z
M 603 4863 
L 1178 4863 
L 1178 4134 
L 603 4134 
L 603 4863 
z
" transform="scale(0.015625)"/>
      <path id="DejaVuSans-73" d="M 2834 3397 
L 2834 2853 
Q 2591 2978 2328 3040 
Q 2066 3103 1784 3103 
Q 1356 3103 1142 2972 
Q 928 2841 928 2578 
Q 928 2378 1081 2264 
Q 1234 2150 1697 2047 
L 1894 2003 
Q 2506 1872 2764 1633 
Q 3022 1394 3022 966 
Q 3022 478 2636 193 
Q 2250 -91 1575 -91 
Q 1294 -91 989 -36 
Q 684 19 347 128 
L 347 722 
Q 666 556 975 473 
Q 1284 391 1588 391 
Q 1994 391 2212 530 
Q 2431 669 2431 922 
Q 2431 1156 2273 1281 
Q 2116 1406 1581 1522 
L 1381 1569 
Q 847 1681 609 1914 
Q 372 2147 372 2553 
Q 372 3047 722 3315 
Q 1072 3584 1716 3584 
Q 2034 3584 2315 3537 
Q 2597 3491 2834 3397 
z
" transform="scale(0.015625)"/>
      <path id="DejaVuSans-6e" d="M 3513 2113 
L 3513 0 
L 2938 0 
L 2938 2094 
Q 2938 2591 2744 2837 
Q 2550 3084 2163 3084 
Q 1697 3084 1428 2787 
Q 1159 2491 1159 1978 
L 1159 0 
L 581 0 
L 581 3500 
L 1159 3500 
L 1159 2956 
Q 1366 3272 1645 3428 
Q 1925 3584 2291 3584 
Q 2894 3584 3203 3211 
Q 3513 2838 3513 2113 
z
" transform="scale(0.015625)"/>
      <path id="DejaVuSans-3a" d="M 750 794 
L 1409 794 
L 1409 0 
L 750 0 
L 750 794 
z
M 750 3309 
L 1409 3309 
L 1409 2516 
L 750 2516 
L 750 3309 
z
" transform="scale(0.015625)"/>
      <path id="DejaVuSans-6c" d="M 603 4863 
L 1178 4863 
L 1178 0 
L 603 0 
L 603 4863 
z
" transform="scale(0.015625)"/>
      <path id="DejaVuSans-67" d="M 2906 1791 
Q 2906 2416 2648 2759 
Q 2391 3103 1925 3103 
Q 1463 3103 1205 2759 
Q 947 2416 947 1791 
Q 947 1169 1205 825 
Q 1463 481 1925 481 
Q 2391 481 2648 825 
Q 2906 1169 2906 1791 
z
M 3481 434 
Q 3481 -459 3084 -895 
Q 2688 -1331 1869 -1331 
Q 1566 -1331 1297 -1286 
Q 1028 -1241 775 -1147 
L 775 -588 
Q 1028 -725 1275 -790 
Q 1522 -856 1778 -856 
Q 2344 -856 2625 -561 
Q 2906 -266 2906 331 
L 2906 616 
Q 2728 306 2450 153 
Q 2172 0 1784 0 
Q 1141 0 747 490 
Q 353 981 353 1791 
Q 353 2603 747 3093 
Q 1141 3584 1784 3584 
Q 2172 3584 2450 3431 
Q 2728 3278 2906 2969 
L 2906 3500 
L 3481 3500 
L 3481 434 
z
" transform="scale(0.015625)"/>
      <path id="DejaVuSans-63" d="M 3122 3366 
L 3122 2828 
Q 2878 2963 2633 3030 
Q 2388 3097 2138 3097 
Q 1578 3097 1268 2742 
Q 959 2388 959 1747 
Q 959 1106 1268 751 
Q 1578 397 2138 397 
Q 2388 397 2633 464 
Q 2878 531 3122 666 
L 3122 134 
Q 2881 22 2623 -34 
Q 2366 -91 2075 -91 
Q 1284 -91 818 406 
Q 353 903 353 1747 
Q 353 2603 823 3093 
Q 1294 3584 2113 3584 
Q 2378 3584 2631 3529 
Q 2884 3475 3122 3366 
z
" transform="scale(0.015625)"/>
      <path id="DejaVuSans-65" d="M 3597 1894 
L 3597 1613 
L 953 1613 
Q 991 1019 1311 708 
Q 1631 397 2203 397 
Q 2534 397 2845 478 
Q 3156 559 3463 722 
L 3463 178 
Q 3153 47 2828 -22 
Q 2503 -91 2169 -91 
Q 1331 -91 842 396 
Q 353 884 353 1716 
Q 353 2575 817 3079 
Q 1281 3584 2069 3584 
Q 2775 3584 3186 3129 
Q 3597 2675 3597 1894 
z
M 3022 2063 
Q 3016 2534 2758 2815 
Q 2500 3097 2075 3097 
Q 1594 3097 1305 2825 
Q 1016 2553 972 2059 
L 3022 2063 
z
" transform="scale(0.015625)"/>
      <path id="DejaVuSans-78" d="M 3513 3500 
L 2247 1797 
L 3578 0 
L 2900 0 
L 1881 1375 
L 863 0 
L 184 0 
L 1544 1831 
L 300 3500 
L 978 3500 
L 1906 2253 
L 2834 3500 
L 3513 3500 
z
" transform="scale(0.015625)"/>
      <path id="DejaVuSans-64" d="M 2906 2969 
L 2906 4863 
L 3481 4863 
L 3481 0 
L 2906 0 
L 2906 525 
Q 2725 213 2448 61 
Q 2172 -91 1784 -91 
Q 1150 -91 751 415 
Q 353 922 353 1747 
Q 353 2572 751 3078 
Q 1150 3584 1784 3584 
Q 2172 3584 2448 3432 
Q 2725 3281 2906 2969 
z
M 947 1747 
Q 947 1113 1208 752 
Q 1469 391 1925 391 
Q 2381 391 2643 752 
Q 2906 1113 2906 1747 
Q 2906 2381 2643 2742 
Q 2381 3103 1925 3103 
Q 1469 3103 1208 2742 
Q 947 2381 947 1747 
z
" transform="scale(0.015625)"/>
      <path id="DejaVuSans-77" d="M 269 3500 
L 844 3500 
L 1563 769 
L 2278 3500 
L 2956 3500 
L 3675 769 
L 4391 3500 
L 4966 3500 
L 4050 0 
L 3372 0 
L 2619 2869 
L 1863 0 
L 1184 0 
L 269 3500 
z
" transform="scale(0.015625)"/>
      <path id="DejaVuSans-74" d="M 1172 4494 
L 1172 3500 
L 2356 3500 
L 2356 3053 
L 1172 3053 
L 1172 1153 
Q 1172 725 1289 603 
Q 1406 481 1766 481 
L 2356 481 
L 2356 0 
L 1766 0 
Q 1100 0 847 248 
Q 594 497 594 1153 
L 594 3053 
L 172 3053 
L 172 3500 
L 594 3500 
L 594 4494 
L 1172 4494 
z
" transform="scale(0.015625)"/>
     </defs>
     <use xlink:href="#DejaVuSans-43"/>
     <use xlink:href="#DejaVuSans-6f" x="69.824219"/>
     <use xlink:href="#DejaVuSans-6d" x="131.005859"/>
     <use xlink:href="#DejaVuSans-70" x="228.417969"/>
     <use xlink:href="#DejaVuSans-61" x="291.894531"/>
     <use xlink:href="#DejaVuSans-72" x="353.173828"/>
     <use xlink:href="#DejaVuSans-69" x="394.287109"/>
     <use xlink:href="#DejaVuSans-73" x="422.070312"/>
     <use xlink:href="#DejaVuSans-6f" x="474.169922"/>
     <use xlink:href="#DejaVuSans-6e" x="535.351562"/>
     <use xlink:href="#DejaVuSans-3a" x="598.730469"/>
     <use xlink:href="#DejaVuSans-20" x="632.421875"/>
     <use xlink:href="#DejaVuSans-43" x="664.208984"/>
     <use xlink:href="#DejaVuSans-44" x="734.033203"/>
     <use xlink:href="#DejaVuSans-46" x="811.035156"/>
     <use xlink:href="#DejaVuSans-20" x="868.554688"/>
     <use xlink:href="#DejaVuSans-28" x="900.341797"/>
     <use xlink:href="#DejaVuSans-6c" x="939.355469"/>
     <use xlink:href="#DejaVuSans-6f" x="967.138672"/>
     <use xlink:href="#DejaVuSans-67" x="1028.320312"/>
     <use xlink:href="#DejaVuSans-20" x="1091.796875"/>
     <use xlink:href="#DejaVuSans-73" x="1123.583984"/>
     <use xlink:href="#DejaVuSans-63" x="1175.683594"/>
     <use xlink:href="#DejaVuSans-61" x="1230.664062"/>
     <use xlink:href="#DejaVuSans-6c" x="1291.943359"/>
     <use xlink:href="#DejaVuSans-65" x="1319.726562"/>
     <use xlink:href="#DejaVuSans-20" x="1381.25"/>
     <use xlink:href="#DejaVuSans-65" x="1413.037109"/>
     <use xlink:href="#DejaVuSans-78" x="1472.810547"/>
     <use xlink:href="#DejaVuSans-70" x="1531.990234"/>
     <use xlink:href="#DejaVuSans-61" x="1595.466797"/>
     <use xlink:href="#DejaVuSans-6e" x="1656.746094"/>
     <use xlink:href="#DejaVuSans-64" x="1720.125"/>
     <use xlink:href="#DejaVuSans-73" x="1783.601562"/>
     <use xlink:href="#DejaVuSans-20" x="1835.701172"/>
     <use xlink:href="#DejaVuSans-6c" x="1867.488281"/>
     <use xlink:href="#DejaVuSans-6f" x="1895.271484"/>
     <use xlink:href="#DejaVuSans-77" x="1956.453125"/>
     <use xlink:href="#DejaVuSans-65" x="2038.240234"/>
     <use xlink:href="#DejaVuSans-72" x="2099.763672"/>
     <use xlink:href="#DejaVuSans-20" x="2140.876953"/>
     <use xlink:href="#DejaVuSans-74" x="2172.664062"/>
     <use xlink:href="#DejaVuSans-61" x="2211.873047"/>
     <use xlink:href="#DejaVuSans-69" x="2273.152344"/>
     <use xlink:href="#DejaVuSans-6c" x="2300.935547"/>
     <use xlink:href="#DejaVuSans-29" x="2328.71875"/>
    </g>
   </g>
   <g id="legend_1">
    <g id="patch_7">
     <path d="M 416.765625 315.4 
L 511.4 315.4 
Q 513.4 315.4 513.4 313.4 
L 513.4 285.04375 
Q 513.4 283.04375 511.4 283.04375 
L 416.765625 283.04375 
Q 414.765625 283.04375 414.765625 285.04375 
L 414.765625 313.4 
Q 414.765625 315.4 416.765625 315.4 
z
" style="fill: #ffffff; opacity: 0.8; stroke: #cccccc; stroke-linejoin: miter"/>
    </g>
    <g id="line2d_55">
     <path d="M 418.765625 291.142187 
L 418.765625 291.142187 
L 428.765625 291.142187 
L 428.765625 291.142187 
L 438.765625 291.142187 
" style="fill: none; stroke: #000000; stroke-width: 1.5; stroke-linecap: square"/>
    </g>
    <g id="text_14">
     <!-- Data -->
     <g transform="translate(446.765625 294.642187) scale(0.1 -0.1)">
      <use xlink:href="#DejaVuSans-44"/>
      <use xlink:href="#DejaVuSans-61" x="77.001953"/>
      <use xlink:href="#DejaVuSans-74" x="138.28125"/>
      <use xlink:href="#DejaVuSans-61" x="177.490234"/>
     </g>
    </g>
    <g id="line2d_56">
     <path d="M 418.765625 305.820312 
L 418.765625 305.820312 
L 428.765625 305.820312 
L 428.765625 305.820312 
L 438.765625 305.820312 
" style="fill: none; stroke: #ff0000; stroke-width: 1.5; stroke-linecap: square"/>
    </g>
    <g id="text_15">
     <!-- MCS Sample -->
     <g transform="translate(446.765625 309.320312) scale(0.1 -0.1)">
      <defs>
       <path id="DejaVuSans-4d" d="M 628 4666 
L 1569 4666 
L 2759 1491 
L 3956 4666 
L 4897 4666 
L 4897 0 
L 4281 0 
L 4281 4097 
L 3078 897 
L 2444 897 
L 1241 4097 
L 1241 0 
L 628 0 
L 628 4666 
z
" transform="scale(0.015625)"/>
       <path id="DejaVuSans-53" d="M 3425 4513 
L 3425 3897 
Q 3066 4069 2747 4153 
Q 2428 4238 2131 4238 
Q 1616 4238 1336 4038 
Q 1056 3838 1056 3469 
Q 1056 3159 1242 3001 
Q 1428 2844 1947 2747 
L 2328 2669 
Q 3034 2534 3370 2195 
Q 3706 1856 3706 1288 
Q 3706 609 3251 259 
Q 2797 -91 1919 -91 
Q 1588 -91 1214 -16 
Q 841 59 441 206 
L 441 856 
Q 825 641 1194 531 
Q 1563 422 1919 422 
Q 2459 422 2753 634 
Q 3047 847 3047 1241 
Q 3047 1584 2836 1778 
Q 2625 1972 2144 2069 
L 1759 2144 
Q 1053 2284 737 2584 
Q 422 2884 422 3419 
Q 422 4038 858 4394 
Q 1294 4750 2059 4750 
Q 2388 4750 2728 4690 
Q 3069 4631 3425 4513 
z
" transform="scale(0.015625)"/>
      </defs>
      <use xlink:href="#DejaVuSans-4d"/>
      <use xlink:href="#DejaVuSans-43" x="86.279297"/>
      <use xlink:href="#DejaVuSans-53" x="156.103516"/>
      <use xlink:href="#DejaVuSans-20" x="219.580078"/>
      <use xlink:href="#DejaVuSans-53" x="251.367188"/>
      <use xlink:href="#DejaVuSans-61" x="314.84375"/>
      <use xlink:href="#DejaVuSans-6d" x="376.123047"/>
      <use xlink:href="#DejaVuSans-70" x="473.535156"/>
      <use xlink:href="#DejaVuSans-6c" x="537.011719"/>
      <use xlink:href="#DejaVuSans-65" x="564.794922"/>
     </g>
    </g>
   </g>
  </g>
 </g>
 <defs>
  <clipPath id="p7c95664f08">
   <rect x="72" y="43.2" width="446.4" height="277.2"/>
  </clipPath>
 </defs>
</svg>
