<?xml version="1.0" encoding="utf-8" standalone="no"?>
<!DOCTYPE svg PUBLIC "-//W3C//DTD SVG 1.1//EN"
  "http://www.w3.org/Graphics/SVG/1.1/DTD/svg11.dtd">
<svg xmlns:xlink="http://www.w3.org/1999/xlink" width="720pt" height="360pt" viewBox="0 0 720 360" xmlns="http://www.w3.org/2000/svg" version="1.1">
 <metadata>
  <rdf:RDF xmlns:dc="http://purl.org/dc/elements/1.1/" xmlns:cc="http://creativecommons.org/ns#" xmlns:rdf="http://www.w3.org/1999/02/22-rdf-syntax-ns#">
   <cc:Work>
    <dc:type rdf:resource="http://purl.org/dc/dcmitype/StillImage"/>
    <dc:date>2024-10-18T05:42:51.379456</dc:date>
    <dc:format>image/svg+xml</dc:format>
    <dc:creator>
     <cc:Agent>
      <dc:title>Matplotlib v3.9.2, https://matplotlib.org/</dc:title>
     </cc:Agent>
    </dc:creator>
   </cc:Work>
  </rdf:RDF>
 </metadata>
 <defs>
  <style type="text/css">*{stroke-linejoin: round; stroke-linecap: butt}</style>
 </defs>
 <g id="figure_1">
  <g id="patch_1">
   <path d="M 0 360 
L 720 360 
L 720 0 
L 0 0 
z
" style="fill: #ffffff"/>
  </g>
  <g id="axes_1">
   <g id="patch_2">
    <path d="M 90 320.4 
L 648 320.4 
L 648 43.2 
L 90 43.2 
z
" style="fill: #ffffff"/>
   </g>
   <g id="matplotlib.axis_1">
    <g id="xtick_1">
     <g id="line2d_1">
      <path d="M 100.627115 320.4 
L 100.627115 43.2 
" clip-path="url(#p9bb95abf6a)" style="fill: none; stroke: #b0b0b0; stroke-width: 0.8; stroke-linecap: square"/>
     </g>
     <g id="line2d_2">
      <defs>
       <path id="m83839d16bb" d="M 0 0 
L 0 3.5 
" style="stroke: #000000; stroke-width: 0.8"/>
      </defs>
      <g>
       <use xlink:href="#m83839d16bb" x="100.627115" y="320.4" style="stroke: #000000; stroke-width: 0.8"/>
      </g>
     </g>
     <g id="text_1">
      <!-- 0 -->
      <g transform="translate(96.173365 338.037813) scale(0.14 -0.14)">
       <defs>
        <path id="DejaVuSans-30" d="M 2034 4250 
Q 1547 4250 1301 3770 
Q 1056 3291 1056 2328 
Q 1056 1369 1301 889 
Q 1547 409 2034 409 
Q 2525 409 2770 889 
Q 3016 1369 3016 2328 
Q 3016 3291 2770 3770 
Q 2525 4250 2034 4250 
z
M 2034 4750 
Q 2819 4750 3233 4129 
Q 3647 3509 3647 2328 
Q 3647 1150 3233 529 
Q 2819 -91 2034 -91 
Q 1250 -91 836 529 
Q 422 1150 422 2328 
Q 422 3509 836 4129 
Q 1250 4750 2034 4750 
z
" transform="scale(0.015625)"/>
       </defs>
       <use xlink:href="#DejaVuSans-30"/>
      </g>
     </g>
    </g>
    <g id="xtick_2">
     <g id="line2d_3">
      <path d="M 163.824954 320.4 
L 163.824954 43.2 
" clip-path="url(#p9bb95abf6a)" style="fill: none; stroke: #b0b0b0; stroke-width: 0.8; stroke-linecap: square"/>
     </g>
     <g id="line2d_4">
      <g>
       <use xlink:href="#m83839d16bb" x="163.824954" y="320.4" style="stroke: #000000; stroke-width: 0.8"/>
      </g>
     </g>
     <g id="text_2">
      <!-- 10 -->
      <g transform="translate(154.917454 338.037813) scale(0.14 -0.14)">
       <defs>
        <path id="DejaVuSans-31" d="M 794 531 
L 1825 531 
L 1825 4091 
L 703 3866 
L 703 4441 
L 1819 4666 
L 2450 4666 
L 2450 531 
L 3481 531 
L 3481 0 
L 794 0 
L 794 531 
z
" transform="scale(0.015625)"/>
       </defs>
       <use xlink:href="#DejaVuSans-31"/>
       <use xlink:href="#DejaVuSans-30" x="63.623047"/>
      </g>
     </g>
    </g>
    <g id="xtick_3">
     <g id="line2d_5">
      <path d="M 227.022792 320.4 
L 227.022792 43.2 
" clip-path="url(#p9bb95abf6a)" style="fill: none; stroke: #b0b0b0; stroke-width: 0.8; stroke-linecap: square"/>
     </g>
     <g id="line2d_6">
      <g>
       <use xlink:href="#m83839d16bb" x="227.022792" y="320.4" style="stroke: #000000; stroke-width: 0.8"/>
      </g>
     </g>
     <g id="text_3">
      <!-- 20 -->
      <g transform="translate(218.115292 338.037813) scale(0.14 -0.14)">
       <defs>
        <path id="DejaVuSans-32" d="M 1228 531 
L 3431 531 
L 3431 0 
L 469 0 
L 469 531 
Q 828 903 1448 1529 
Q 2069 2156 2228 2338 
Q 2531 2678 2651 2914 
Q 2772 3150 2772 3378 
Q 2772 3750 2511 3984 
Q 2250 4219 1831 4219 
Q 1534 4219 1204 4116 
Q 875 4013 500 3803 
L 500 4441 
Q 881 4594 1212 4672 
Q 1544 4750 1819 4750 
Q 2544 4750 2975 4387 
Q 3406 4025 3406 3419 
Q 3406 3131 3298 2873 
Q 3191 2616 2906 2266 
Q 2828 2175 2409 1742 
Q 1991 1309 1228 531 
z
" transform="scale(0.015625)"/>
       </defs>
       <use xlink:href="#DejaVuSans-32"/>
       <use xlink:href="#DejaVuSans-30" x="63.623047"/>
      </g>
     </g>
    </g>
    <g id="xtick_4">
     <g id="line2d_7">
      <path d="M 290.220631 320.4 
L 290.220631 43.2 
" clip-path="url(#p9bb95abf6a)" style="fill: none; stroke: #b0b0b0; stroke-width: 0.8; stroke-linecap: square"/>
     </g>
     <g id="line2d_8">
      <g>
       <use xlink:href="#m83839d16bb" x="290.220631" y="320.4" style="stroke: #000000; stroke-width: 0.8"/>
      </g>
     </g>
     <g id="text_4">
      <!-- 30 -->
      <g transform="translate(281.313131 338.037813) scale(0.14 -0.14)">
       <defs>
        <path id="DejaVuSans-33" d="M 2597 2516 
Q 3050 2419 3304 2112 
Q 3559 1806 3559 1356 
Q 3559 666 3084 287 
Q 2609 -91 1734 -91 
Q 1441 -91 1130 -33 
Q 819 25 488 141 
L 488 750 
Q 750 597 1062 519 
Q 1375 441 1716 441 
Q 2309 441 2620 675 
Q 2931 909 2931 1356 
Q 2931 1769 2642 2001 
Q 2353 2234 1838 2234 
L 1294 2234 
L 1294 2753 
L 1863 2753 
Q 2328 2753 2575 2939 
Q 2822 3125 2822 3475 
Q 2822 3834 2567 4026 
Q 2313 4219 1838 4219 
Q 1578 4219 1281 4162 
Q 984 4106 628 3988 
L 628 4550 
Q 988 4650 1302 4700 
Q 1616 4750 1894 4750 
Q 2613 4750 3031 4423 
Q 3450 4097 3450 3541 
Q 3450 3153 3228 2886 
Q 3006 2619 2597 2516 
z
" transform="scale(0.015625)"/>
       </defs>
       <use xlink:href="#DejaVuSans-33"/>
       <use xlink:href="#DejaVuSans-30" x="63.623047"/>
      </g>
     </g>
    </g>
    <g id="xtick_5">
     <g id="line2d_9">
      <path d="M 353.41847 320.4 
L 353.41847 43.2 
" clip-path="url(#p9bb95abf6a)" style="fill: none; stroke: #b0b0b0; stroke-width: 0.8; stroke-linecap: square"/>
     </g>
     <g id="line2d_10">
      <g>
       <use xlink:href="#m83839d16bb" x="353.41847" y="320.4" style="stroke: #000000; stroke-width: 0.8"/>
      </g>
     </g>
     <g id="text_5">
      <!-- 40 -->
      <g transform="translate(344.51097 338.037813) scale(0.14 -0.14)">
       <defs>
        <path id="DejaVuSans-34" d="M 2419 4116 
L 825 1625 
L 2419 1625 
L 2419 4116 
z
M 2253 4666 
L 3047 4666 
L 3047 1625 
L 3713 1625 
L 3713 1100 
L 3047 1100 
L 3047 0 
L 2419 0 
L 2419 1100 
L 313 1100 
L 313 1709 
L 2253 4666 
z
" transform="scale(0.015625)"/>
       </defs>
       <use xlink:href="#DejaVuSans-34"/>
       <use xlink:href="#DejaVuSans-30" x="63.623047"/>
      </g>
     </g>
    </g>
    <g id="xtick_6">
     <g id="line2d_11">
      <path d="M 416.616308 320.4 
L 416.616308 43.2 
" clip-path="url(#p9bb95abf6a)" style="fill: none; stroke: #b0b0b0; stroke-width: 0.8; stroke-linecap: square"/>
     </g>
     <g id="line2d_12">
      <g>
       <use xlink:href="#m83839d16bb" x="416.616308" y="320.4" style="stroke: #000000; stroke-width: 0.8"/>
      </g>
     </g>
     <g id="text_6">
      <!-- 50 -->
      <g transform="translate(407.708808 338.037813) scale(0.14 -0.14)">
       <defs>
        <path id="DejaVuSans-35" d="M 691 4666 
L 3169 4666 
L 3169 4134 
L 1269 4134 
L 1269 2991 
Q 1406 3038 1543 3061 
Q 1681 3084 1819 3084 
Q 2600 3084 3056 2656 
Q 3513 2228 3513 1497 
Q 3513 744 3044 326 
Q 2575 -91 1722 -91 
Q 1428 -91 1123 -41 
Q 819 9 494 109 
L 494 744 
Q 775 591 1075 516 
Q 1375 441 1709 441 
Q 2250 441 2565 725 
Q 2881 1009 2881 1497 
Q 2881 1984 2565 2268 
Q 2250 2553 1709 2553 
Q 1456 2553 1204 2497 
Q 953 2441 691 2322 
L 691 4666 
z
" transform="scale(0.015625)"/>
       </defs>
       <use xlink:href="#DejaVuSans-35"/>
       <use xlink:href="#DejaVuSans-30" x="63.623047"/>
      </g>
     </g>
    </g>
    <g id="xtick_7">
     <g id="line2d_13">
      <path d="M 479.814147 320.4 
L 479.814147 43.2 
" clip-path="url(#p9bb95abf6a)" style="fill: none; stroke: #b0b0b0; stroke-width: 0.8; stroke-linecap: square"/>
     </g>
     <g id="line2d_14">
      <g>
       <use xlink:href="#m83839d16bb" x="479.814147" y="320.4" style="stroke: #000000; stroke-width: 0.8"/>
      </g>
     </g>
     <g id="text_7">
      <!-- 60 -->
      <g transform="translate(470.906647 338.037813) scale(0.14 -0.14)">
       <defs>
        <path id="DejaVuSans-36" d="M 2113 2584 
Q 1688 2584 1439 2293 
Q 1191 2003 1191 1497 
Q 1191 994 1439 701 
Q 1688 409 2113 409 
Q 2538 409 2786 701 
Q 3034 994 3034 1497 
Q 3034 2003 2786 2293 
Q 2538 2584 2113 2584 
z
M 3366 4563 
L 3366 3988 
Q 3128 4100 2886 4159 
Q 2644 4219 2406 4219 
Q 1781 4219 1451 3797 
Q 1122 3375 1075 2522 
Q 1259 2794 1537 2939 
Q 1816 3084 2150 3084 
Q 2853 3084 3261 2657 
Q 3669 2231 3669 1497 
Q 3669 778 3244 343 
Q 2819 -91 2113 -91 
Q 1303 -91 875 529 
Q 447 1150 447 2328 
Q 447 3434 972 4092 
Q 1497 4750 2381 4750 
Q 2619 4750 2861 4703 
Q 3103 4656 3366 4563 
z
" transform="scale(0.015625)"/>
       </defs>
       <use xlink:href="#DejaVuSans-36"/>
       <use xlink:href="#DejaVuSans-30" x="63.623047"/>
      </g>
     </g>
    </g>
    <g id="xtick_8">
     <g id="line2d_15">
      <path d="M 543.011986 320.4 
L 543.011986 43.2 
" clip-path="url(#p9bb95abf6a)" style="fill: none; stroke: #b0b0b0; stroke-width: 0.8; stroke-linecap: square"/>
     </g>
     <g id="line2d_16">
      <g>
       <use xlink:href="#m83839d16bb" x="543.011986" y="320.4" style="stroke: #000000; stroke-width: 0.8"/>
      </g>
     </g>
     <g id="text_8">
      <!-- 70 -->
      <g transform="translate(534.104486 338.037813) scale(0.14 -0.14)">
       <defs>
        <path id="DejaVuSans-37" d="M 525 4666 
L 3525 4666 
L 3525 4397 
L 1831 0 
L 1172 0 
L 2766 4134 
L 525 4134 
L 525 4666 
z
" transform="scale(0.015625)"/>
       </defs>
       <use xlink:href="#DejaVuSans-37"/>
       <use xlink:href="#DejaVuSans-30" x="63.623047"/>
      </g>
     </g>
    </g>
    <g id="xtick_9">
     <g id="line2d_17">
      <path d="M 606.209825 320.4 
L 606.209825 43.2 
" clip-path="url(#p9bb95abf6a)" style="fill: none; stroke: #b0b0b0; stroke-width: 0.8; stroke-linecap: square"/>
     </g>
     <g id="line2d_18">
      <g>
       <use xlink:href="#m83839d16bb" x="606.209825" y="320.4" style="stroke: #000000; stroke-width: 0.8"/>
      </g>
     </g>
     <g id="text_9">
      <!-- 80 -->
      <g transform="translate(597.302325 338.037813) scale(0.14 -0.14)">
       <defs>
        <path id="DejaVuSans-38" d="M 2034 2216 
Q 1584 2216 1326 1975 
Q 1069 1734 1069 1313 
Q 1069 891 1326 650 
Q 1584 409 2034 409 
Q 2484 409 2743 651 
Q 3003 894 3003 1313 
Q 3003 1734 2745 1975 
Q 2488 2216 2034 2216 
z
M 1403 2484 
Q 997 2584 770 2862 
Q 544 3141 544 3541 
Q 544 4100 942 4425 
Q 1341 4750 2034 4750 
Q 2731 4750 3128 4425 
Q 3525 4100 3525 3541 
Q 3525 3141 3298 2862 
Q 3072 2584 2669 2484 
Q 3125 2378 3379 2068 
Q 3634 1759 3634 1313 
Q 3634 634 3220 271 
Q 2806 -91 2034 -91 
Q 1263 -91 848 271 
Q 434 634 434 1313 
Q 434 1759 690 2068 
Q 947 2378 1403 2484 
z
M 1172 3481 
Q 1172 3119 1398 2916 
Q 1625 2713 2034 2713 
Q 2441 2713 2670 2916 
Q 2900 3119 2900 3481 
Q 2900 3844 2670 4047 
Q 2441 4250 2034 4250 
Q 1625 4250 1398 4047 
Q 1172 3844 1172 3481 
z
" transform="scale(0.015625)"/>
       </defs>
       <use xlink:href="#DejaVuSans-38"/>
       <use xlink:href="#DejaVuSans-30" x="63.623047"/>
      </g>
     </g>
    </g>
    <g id="text_10">
     <!-- Compressive strength [MPa] -->
     <g transform="translate(270.225625 355.587188) scale(0.14 -0.14)">
      <defs>
       <path id="DejaVuSans-43" d="M 4122 4306 
L 4122 3641 
Q 3803 3938 3442 4084 
Q 3081 4231 2675 4231 
Q 1875 4231 1450 3742 
Q 1025 3253 1025 2328 
Q 1025 1406 1450 917 
Q 1875 428 2675 428 
Q 3081 428 3442 575 
Q 3803 722 4122 1019 
L 4122 359 
Q 3791 134 3420 21 
Q 3050 -91 2638 -91 
Q 1578 -91 968 557 
Q 359 1206 359 2328 
Q 359 3453 968 4101 
Q 1578 4750 2638 4750 
Q 3056 4750 3426 4639 
Q 3797 4528 4122 4306 
z
" transform="scale(0.015625)"/>
       <path id="DejaVuSans-6f" d="M 1959 3097 
Q 1497 3097 1228 2736 
Q 959 2375 959 1747 
Q 959 1119 1226 758 
Q 1494 397 1959 397 
Q 2419 397 2687 759 
Q 2956 1122 2956 1747 
Q 2956 2369 2687 2733 
Q 2419 3097 1959 3097 
z
M 1959 3584 
Q 2709 3584 3137 3096 
Q 3566 2609 3566 1747 
Q 3566 888 3137 398 
Q 2709 -91 1959 -91 
Q 1206 -91 779 398 
Q 353 888 353 1747 
Q 353 2609 779 3096 
Q 1206 3584 1959 3584 
z
" transform="scale(0.015625)"/>
       <path id="DejaVuSans-6d" d="M 3328 2828 
Q 3544 3216 3844 3400 
Q 4144 3584 4550 3584 
Q 5097 3584 5394 3201 
Q 5691 2819 5691 2113 
L 5691 0 
L 5113 0 
L 5113 2094 
Q 5113 2597 4934 2840 
Q 4756 3084 4391 3084 
Q 3944 3084 3684 2787 
Q 3425 2491 3425 1978 
L 3425 0 
L 2847 0 
L 2847 2094 
Q 2847 2600 2669 2842 
Q 2491 3084 2119 3084 
Q 1678 3084 1418 2786 
Q 1159 2488 1159 1978 
L 1159 0 
L 581 0 
L 581 3500 
L 1159 3500 
L 1159 2956 
Q 1356 3278 1631 3431 
Q 1906 3584 2284 3584 
Q 2666 3584 2933 3390 
Q 3200 3197 3328 2828 
z
" transform="scale(0.015625)"/>
       <path id="DejaVuSans-70" d="M 1159 525 
L 1159 -1331 
L 581 -1331 
L 581 3500 
L 1159 3500 
L 1159 2969 
Q 1341 3281 1617 3432 
Q 1894 3584 2278 3584 
Q 2916 3584 3314 3078 
Q 3713 2572 3713 1747 
Q 3713 922 3314 415 
Q 2916 -91 2278 -91 
Q 1894 -91 1617 61 
Q 1341 213 1159 525 
z
M 3116 1747 
Q 3116 2381 2855 2742 
Q 2594 3103 2138 3103 
Q 1681 3103 1420 2742 
Q 1159 2381 1159 1747 
Q 1159 1113 1420 752 
Q 1681 391 2138 391 
Q 2594 391 2855 752 
Q 3116 1113 3116 1747 
z
" transform="scale(0.015625)"/>
       <path id="DejaVuSans-72" d="M 2631 2963 
Q 2534 3019 2420 3045 
Q 2306 3072 2169 3072 
Q 1681 3072 1420 2755 
Q 1159 2438 1159 1844 
L 1159 0 
L 581 0 
L 581 3500 
L 1159 3500 
L 1159 2956 
Q 1341 3275 1631 3429 
Q 1922 3584 2338 3584 
Q 2397 3584 2469 3576 
Q 2541 3569 2628 3553 
L 2631 2963 
z
" transform="scale(0.015625)"/>
       <path id="DejaVuSans-65" d="M 3597 1894 
L 3597 1613 
L 953 1613 
Q 991 1019 1311 708 
Q 1631 397 2203 397 
Q 2534 397 2845 478 
Q 3156 559 3463 722 
L 3463 178 
Q 3153 47 2828 -22 
Q 2503 -91 2169 -91 
Q 1331 -91 842 396 
Q 353 884 353 1716 
Q 353 2575 817 3079 
Q 1281 3584 2069 3584 
Q 2775 3584 3186 3129 
Q 3597 2675 3597 1894 
z
M 3022 2063 
Q 3016 2534 2758 2815 
Q 2500 3097 2075 3097 
Q 1594 3097 1305 2825 
Q 1016 2553 972 2059 
L 3022 2063 
z
" transform="scale(0.015625)"/>
       <path id="DejaVuSans-73" d="M 2834 3397 
L 2834 2853 
Q 2591 2978 2328 3040 
Q 2066 3103 1784 3103 
Q 1356 3103 1142 2972 
Q 928 2841 928 2578 
Q 928 2378 1081 2264 
Q 1234 2150 1697 2047 
L 1894 2003 
Q 2506 1872 2764 1633 
Q 3022 1394 3022 966 
Q 3022 478 2636 193 
Q 2250 -91 1575 -91 
Q 1294 -91 989 -36 
Q 684 19 347 128 
L 347 722 
Q 666 556 975 473 
Q 1284 391 1588 391 
Q 1994 391 2212 530 
Q 2431 669 2431 922 
Q 2431 1156 2273 1281 
Q 2116 1406 1581 1522 
L 1381 1569 
Q 847 1681 609 1914 
Q 372 2147 372 2553 
Q 372 3047 722 3315 
Q 1072 3584 1716 3584 
Q 2034 3584 2315 3537 
Q 2597 3491 2834 3397 
z
" transform="scale(0.015625)"/>
       <path id="DejaVuSans-69" d="M 603 3500 
L 1178 3500 
L 1178 0 
L 603 0 
L 603 3500 
z
M 603 4863 
L 1178 4863 
L 1178 4134 
L 603 4134 
L 603 4863 
z
" transform="scale(0.015625)"/>
       <path id="DejaVuSans-76" d="M 191 3500 
L 800 3500 
L 1894 563 
L 2988 3500 
L 3597 3500 
L 2284 0 
L 1503 0 
L 191 3500 
z
" transform="scale(0.015625)"/>
       <path id="DejaVuSans-20" transform="scale(0.015625)"/>
       <path id="DejaVuSans-74" d="M 1172 4494 
L 1172 3500 
L 2356 3500 
L 2356 3053 
L 1172 3053 
L 1172 1153 
Q 1172 725 1289 603 
Q 1406 481 1766 481 
L 2356 481 
L 2356 0 
L 1766 0 
Q 1100 0 847 248 
Q 594 497 594 1153 
L 594 3053 
L 172 3053 
L 172 3500 
L 594 3500 
L 594 4494 
L 1172 4494 
z
" transform="scale(0.015625)"/>
       <path id="DejaVuSans-6e" d="M 3513 2113 
L 3513 0 
L 2938 0 
L 2938 2094 
Q 2938 2591 2744 2837 
Q 2550 3084 2163 3084 
Q 1697 3084 1428 2787 
Q 1159 2491 1159 1978 
L 1159 0 
L 581 0 
L 581 3500 
L 1159 3500 
L 1159 2956 
Q 1366 3272 1645 3428 
Q 1925 3584 2291 3584 
Q 2894 3584 3203 3211 
Q 3513 2838 3513 2113 
z
" transform="scale(0.015625)"/>
       <path id="DejaVuSans-67" d="M 2906 1791 
Q 2906 2416 2648 2759 
Q 2391 3103 1925 3103 
Q 1463 3103 1205 2759 
Q 947 2416 947 1791 
Q 947 1169 1205 825 
Q 1463 481 1925 481 
Q 2391 481 2648 825 
Q 2906 1169 2906 1791 
z
M 3481 434 
Q 3481 -459 3084 -895 
Q 2688 -1331 1869 -1331 
Q 1566 -1331 1297 -1286 
Q 1028 -1241 775 -1147 
L 775 -588 
Q 1028 -725 1275 -790 
Q 1522 -856 1778 -856 
Q 2344 -856 2625 -561 
Q 2906 -266 2906 331 
L 2906 616 
Q 2728 306 2450 153 
Q 2172 0 1784 0 
Q 1141 0 747 490 
Q 353 981 353 1791 
Q 353 2603 747 3093 
Q 1141 3584 1784 3584 
Q 2172 3584 2450 3431 
Q 2728 3278 2906 2969 
L 2906 3500 
L 3481 3500 
L 3481 434 
z
" transform="scale(0.015625)"/>
       <path id="DejaVuSans-68" d="M 3513 2113 
L 3513 0 
L 2938 0 
L 2938 2094 
Q 2938 2591 2744 2837 
Q 2550 3084 2163 3084 
Q 1697 3084 1428 2787 
Q 1159 2491 1159 1978 
L 1159 0 
L 581 0 
L 581 4863 
L 1159 4863 
L 1159 2956 
Q 1366 3272 1645 3428 
Q 1925 3584 2291 3584 
Q 2894 3584 3203 3211 
Q 3513 2838 3513 2113 
z
" transform="scale(0.015625)"/>
       <path id="DejaVuSans-5b" d="M 550 4863 
L 1875 4863 
L 1875 4416 
L 1125 4416 
L 1125 -397 
L 1875 -397 
L 1875 -844 
L 550 -844 
L 550 4863 
z
" transform="scale(0.015625)"/>
       <path id="DejaVuSans-4d" d="M 628 4666 
L 1569 4666 
L 2759 1491 
L 3956 4666 
L 4897 4666 
L 4897 0 
L 4281 0 
L 4281 4097 
L 3078 897 
L 2444 897 
L 1241 4097 
L 1241 0 
L 628 0 
L 628 4666 
z
" transform="scale(0.015625)"/>
       <path id="DejaVuSans-50" d="M 1259 4147 
L 1259 2394 
L 2053 2394 
Q 2494 2394 2734 2622 
Q 2975 2850 2975 3272 
Q 2975 3691 2734 3919 
Q 2494 4147 2053 4147 
L 1259 4147 
z
M 628 4666 
L 2053 4666 
Q 2838 4666 3239 4311 
Q 3641 3956 3641 3272 
Q 3641 2581 3239 2228 
Q 2838 1875 2053 1875 
L 1259 1875 
L 1259 0 
L 628 0 
L 628 4666 
z
" transform="scale(0.015625)"/>
       <path id="DejaVuSans-61" d="M 2194 1759 
Q 1497 1759 1228 1600 
Q 959 1441 959 1056 
Q 959 750 1161 570 
Q 1363 391 1709 391 
Q 2188 391 2477 730 
Q 2766 1069 2766 1631 
L 2766 1759 
L 2194 1759 
z
M 3341 1997 
L 3341 0 
L 2766 0 
L 2766 531 
Q 2569 213 2275 61 
Q 1981 -91 1556 -91 
Q 1019 -91 701 211 
Q 384 513 384 1019 
Q 384 1609 779 1909 
Q 1175 2209 1959 2209 
L 2766 2209 
L 2766 2266 
Q 2766 2663 2505 2880 
Q 2244 3097 1772 3097 
Q 1472 3097 1187 3025 
Q 903 2953 641 2809 
L 641 3341 
Q 956 3463 1253 3523 
Q 1550 3584 1831 3584 
Q 2591 3584 2966 3190 
Q 3341 2797 3341 1997 
z
" transform="scale(0.015625)"/>
       <path id="DejaVuSans-5d" d="M 1947 4863 
L 1947 -844 
L 622 -844 
L 622 -397 
L 1369 -397 
L 1369 4416 
L 622 4416 
L 622 4863 
L 1947 4863 
z
" transform="scale(0.015625)"/>
      </defs>
      <use xlink:href="#DejaVuSans-43"/>
      <use xlink:href="#DejaVuSans-6f" x="69.824219"/>
      <use xlink:href="#DejaVuSans-6d" x="131.005859"/>
      <use xlink:href="#DejaVuSans-70" x="228.417969"/>
      <use xlink:href="#DejaVuSans-72" x="291.894531"/>
      <use xlink:href="#DejaVuSans-65" x="330.757812"/>
      <use xlink:href="#DejaVuSans-73" x="392.28125"/>
      <use xlink:href="#DejaVuSans-73" x="444.380859"/>
      <use xlink:href="#DejaVuSans-69" x="496.480469"/>
      <use xlink:href="#DejaVuSans-76" x="524.263672"/>
      <use xlink:href="#DejaVuSans-65" x="583.443359"/>
      <use xlink:href="#DejaVuSans-20" x="644.966797"/>
      <use xlink:href="#DejaVuSans-73" x="676.753906"/>
      <use xlink:href="#DejaVuSans-74" x="728.853516"/>
      <use xlink:href="#DejaVuSans-72" x="768.0625"/>
      <use xlink:href="#DejaVuSans-65" x="806.925781"/>
      <use xlink:href="#DejaVuSans-6e" x="868.449219"/>
      <use xlink:href="#DejaVuSans-67" x="931.828125"/>
      <use xlink:href="#DejaVuSans-74" x="995.304688"/>
      <use xlink:href="#DejaVuSans-68" x="1034.513672"/>
      <use xlink:href="#DejaVuSans-20" x="1097.892578"/>
      <use xlink:href="#DejaVuSans-5b" x="1129.679688"/>
      <use xlink:href="#DejaVuSans-4d" x="1168.693359"/>
      <use xlink:href="#DejaVuSans-50" x="1254.972656"/>
      <use xlink:href="#DejaVuSans-61" x="1310.775391"/>
      <use xlink:href="#DejaVuSans-5d" x="1372.054688"/>
     </g>
    </g>
   </g>
   <g id="matplotlib.axis_2">
    <g id="ytick_1">
     <g id="line2d_19">
      <path d="M 90 317.557692 
L 648 317.557692 
" clip-path="url(#p9bb95abf6a)" style="fill: none; stroke: #b0b0b0; stroke-width: 0.8; stroke-linecap: square"/>
     </g>
     <g id="line2d_20">
      <defs>
       <path id="m5dee8c1d72" d="M 0 0 
L -3.5 0 
" style="stroke: #000000; stroke-width: 0.8"/>
      </defs>
      <g>
       <use xlink:href="#m5dee8c1d72" x="90" y="317.557692" style="stroke: #000000; stroke-width: 0.8"/>
      </g>
     </g>
     <g id="text_11">
      <!-- $\mathdefault{10^{-3}}$ -->
      <g transform="translate(50.1 322.876598) scale(0.14 -0.14)">
       <defs>
        <path id="DejaVuSans-2212" d="M 678 2272 
L 4684 2272 
L 4684 1741 
L 678 1741 
L 678 2272 
z
" transform="scale(0.015625)"/>
       </defs>
       <use xlink:href="#DejaVuSans-31" transform="translate(0 0.765625)"/>
       <use xlink:href="#DejaVuSans-30" transform="translate(63.623047 0.765625)"/>
       <use xlink:href="#DejaVuSans-2212" transform="translate(128.203125 39.046875) scale(0.7)"/>
       <use xlink:href="#DejaVuSans-33" transform="translate(186.855469 39.046875) scale(0.7)"/>
      </g>
     </g>
    </g>
    <g id="ytick_2">
     <g id="line2d_21">
      <path d="M 90 230.295592 
L 648 230.295592 
" clip-path="url(#p9bb95abf6a)" style="fill: none; stroke: #b0b0b0; stroke-width: 0.8; stroke-linecap: square"/>
     </g>
     <g id="line2d_22">
      <g>
       <use xlink:href="#m5dee8c1d72" x="90" y="230.295592" style="stroke: #000000; stroke-width: 0.8"/>
      </g>
     </g>
     <g id="text_12">
      <!-- $\mathdefault{10^{-2}}$ -->
      <g transform="translate(50.1 235.614499) scale(0.14 -0.14)">
       <use xlink:href="#DejaVuSans-31" transform="translate(0 0.765625)"/>
       <use xlink:href="#DejaVuSans-30" transform="translate(63.623047 0.765625)"/>
       <use xlink:href="#DejaVuSans-2212" transform="translate(128.203125 39.046875) scale(0.7)"/>
       <use xlink:href="#DejaVuSans-32" transform="translate(186.855469 39.046875) scale(0.7)"/>
      </g>
     </g>
    </g>
    <g id="ytick_3">
     <g id="line2d_23">
      <path d="M 90 143.033493 
L 648 143.033493 
" clip-path="url(#p9bb95abf6a)" style="fill: none; stroke: #b0b0b0; stroke-width: 0.8; stroke-linecap: square"/>
     </g>
     <g id="line2d_24">
      <g>
       <use xlink:href="#m5dee8c1d72" x="90" y="143.033493" style="stroke: #000000; stroke-width: 0.8"/>
      </g>
     </g>
     <g id="text_13">
      <!-- $\mathdefault{10^{-1}}$ -->
      <g transform="translate(50.1 148.352399) scale(0.14 -0.14)">
       <use xlink:href="#DejaVuSans-31" transform="translate(0 0.684375)"/>
       <use xlink:href="#DejaVuSans-30" transform="translate(63.623047 0.684375)"/>
       <use xlink:href="#DejaVuSans-2212" transform="translate(128.203125 38.965625) scale(0.7)"/>
       <use xlink:href="#DejaVuSans-31" transform="translate(186.855469 38.965625) scale(0.7)"/>
      </g>
     </g>
    </g>
    <g id="ytick_4">
     <g id="line2d_25">
      <path d="M 90 55.771393 
L 648 55.771393 
" clip-path="url(#p9bb95abf6a)" style="fill: none; stroke: #b0b0b0; stroke-width: 0.8; stroke-linecap: square"/>
     </g>
     <g id="line2d_26">
      <g>
       <use xlink:href="#m5dee8c1d72" x="90" y="55.771393" style="stroke: #000000; stroke-width: 0.8"/>
      </g>
     </g>
     <g id="text_14">
      <!-- $\mathdefault{10^{0}}$ -->
      <g transform="translate(58.36 61.090299) scale(0.14 -0.14)">
       <use xlink:href="#DejaVuSans-31" transform="translate(0 0.765625)"/>
       <use xlink:href="#DejaVuSans-30" transform="translate(63.623047 0.765625)"/>
       <use xlink:href="#DejaVuSans-30" transform="translate(128.203125 39.046875) scale(0.7)"/>
      </g>
     </g>
    </g>
    <g id="ytick_5">
     <g id="line2d_27">
      <defs>
       <path id="m4bcc15e65d" d="M 0 0 
L -2 0 
" style="stroke: #000000; stroke-width: 0.6"/>
      </defs>
      <g>
       <use xlink:href="#m4bcc15e65d" x="90" y="291.289183" style="stroke: #000000; stroke-width: 0.6"/>
      </g>
     </g>
    </g>
    <g id="ytick_6">
     <g id="line2d_28">
      <g>
       <use xlink:href="#m4bcc15e65d" x="90" y="275.92309" style="stroke: #000000; stroke-width: 0.6"/>
      </g>
     </g>
    </g>
    <g id="ytick_7">
     <g id="line2d_29">
      <g>
       <use xlink:href="#m4bcc15e65d" x="90" y="265.020673" style="stroke: #000000; stroke-width: 0.6"/>
      </g>
     </g>
    </g>
    <g id="ytick_8">
     <g id="line2d_30">
      <g>
       <use xlink:href="#m4bcc15e65d" x="90" y="256.564102" style="stroke: #000000; stroke-width: 0.6"/>
      </g>
     </g>
    </g>
    <g id="ytick_9">
     <g id="line2d_31">
      <g>
       <use xlink:href="#m4bcc15e65d" x="90" y="249.65458" style="stroke: #000000; stroke-width: 0.6"/>
      </g>
     </g>
    </g>
    <g id="ytick_10">
     <g id="line2d_32">
      <g>
       <use xlink:href="#m4bcc15e65d" x="90" y="243.812663" style="stroke: #000000; stroke-width: 0.6"/>
      </g>
     </g>
    </g>
    <g id="ytick_11">
     <g id="line2d_33">
      <g>
       <use xlink:href="#m4bcc15e65d" x="90" y="238.752164" style="stroke: #000000; stroke-width: 0.6"/>
      </g>
     </g>
    </g>
    <g id="ytick_12">
     <g id="line2d_34">
      <g>
       <use xlink:href="#m4bcc15e65d" x="90" y="234.288487" style="stroke: #000000; stroke-width: 0.6"/>
      </g>
     </g>
    </g>
    <g id="ytick_13">
     <g id="line2d_35">
      <g>
       <use xlink:href="#m4bcc15e65d" x="90" y="204.027083" style="stroke: #000000; stroke-width: 0.6"/>
      </g>
     </g>
    </g>
    <g id="ytick_14">
     <g id="line2d_36">
      <g>
       <use xlink:href="#m4bcc15e65d" x="90" y="188.66099" style="stroke: #000000; stroke-width: 0.6"/>
      </g>
     </g>
    </g>
    <g id="ytick_15">
     <g id="line2d_37">
      <g>
       <use xlink:href="#m4bcc15e65d" x="90" y="177.758574" style="stroke: #000000; stroke-width: 0.6"/>
      </g>
     </g>
    </g>
    <g id="ytick_16">
     <g id="line2d_38">
      <g>
       <use xlink:href="#m4bcc15e65d" x="90" y="169.302002" style="stroke: #000000; stroke-width: 0.6"/>
      </g>
     </g>
    </g>
    <g id="ytick_17">
     <g id="line2d_39">
      <g>
       <use xlink:href="#m4bcc15e65d" x="90" y="162.392481" style="stroke: #000000; stroke-width: 0.6"/>
      </g>
     </g>
    </g>
    <g id="ytick_18">
     <g id="line2d_40">
      <g>
       <use xlink:href="#m4bcc15e65d" x="90" y="156.550563" style="stroke: #000000; stroke-width: 0.6"/>
      </g>
     </g>
    </g>
    <g id="ytick_19">
     <g id="line2d_41">
      <g>
       <use xlink:href="#m4bcc15e65d" x="90" y="151.490064" style="stroke: #000000; stroke-width: 0.6"/>
      </g>
     </g>
    </g>
    <g id="ytick_20">
     <g id="line2d_42">
      <g>
       <use xlink:href="#m4bcc15e65d" x="90" y="147.026388" style="stroke: #000000; stroke-width: 0.6"/>
      </g>
     </g>
    </g>
    <g id="ytick_21">
     <g id="line2d_43">
      <g>
       <use xlink:href="#m4bcc15e65d" x="90" y="116.764983" style="stroke: #000000; stroke-width: 0.6"/>
      </g>
     </g>
    </g>
    <g id="ytick_22">
     <g id="line2d_44">
      <g>
       <use xlink:href="#m4bcc15e65d" x="90" y="101.39889" style="stroke: #000000; stroke-width: 0.6"/>
      </g>
     </g>
    </g>
    <g id="ytick_23">
     <g id="line2d_45">
      <g>
       <use xlink:href="#m4bcc15e65d" x="90" y="90.496474" style="stroke: #000000; stroke-width: 0.6"/>
      </g>
     </g>
    </g>
    <g id="ytick_24">
     <g id="line2d_46">
      <g>
       <use xlink:href="#m4bcc15e65d" x="90" y="82.039903" style="stroke: #000000; stroke-width: 0.6"/>
      </g>
     </g>
    </g>
    <g id="ytick_25">
     <g id="line2d_47">
      <g>
       <use xlink:href="#m4bcc15e65d" x="90" y="75.130381" style="stroke: #000000; stroke-width: 0.6"/>
      </g>
     </g>
    </g>
    <g id="ytick_26">
     <g id="line2d_48">
      <g>
       <use xlink:href="#m4bcc15e65d" x="90" y="69.288463" style="stroke: #000000; stroke-width: 0.6"/>
      </g>
     </g>
    </g>
    <g id="ytick_27">
     <g id="line2d_49">
      <g>
       <use xlink:href="#m4bcc15e65d" x="90" y="64.227964" style="stroke: #000000; stroke-width: 0.6"/>
      </g>
     </g>
    </g>
    <g id="ytick_28">
     <g id="line2d_50">
      <g>
       <use xlink:href="#m4bcc15e65d" x="90" y="59.764288" style="stroke: #000000; stroke-width: 0.6"/>
      </g>
     </g>
    </g>
    <g id="text_15">
     <!-- ${P[X &gt; x]}$ -->
     <g transform="translate(43.188437 209.03) rotate(-90) scale(0.14 -0.14)">
      <defs>
       <path id="DejaVuSans-Oblique-50" d="M 1081 4666 
L 2541 4666 
Q 3178 4666 3512 4369 
Q 3847 4072 3847 3500 
Q 3847 2731 3353 2303 
Q 2859 1875 1966 1875 
L 1172 1875 
L 806 0 
L 172 0 
L 1081 4666 
z
M 1613 4147 
L 1275 2394 
L 2069 2394 
Q 2606 2394 2893 2669 
Q 3181 2944 3181 3456 
Q 3181 3784 2986 3965 
Q 2791 4147 2438 4147 
L 1613 4147 
z
" transform="scale(0.015625)"/>
       <path id="DejaVuSans-Oblique-58" d="M 878 4666 
L 1516 4666 
L 2316 2981 
L 3763 4666 
L 4500 4666 
L 2578 2438 
L 3738 0 
L 3103 0 
L 2163 1966 
L 459 0 
L -275 0 
L 1906 2509 
L 878 4666 
z
" transform="scale(0.015625)"/>
       <path id="DejaVuSans-3e" d="M 678 3150 
L 678 3719 
L 4684 2266 
L 4684 1747 
L 678 294 
L 678 863 
L 3897 2003 
L 678 3150 
z
" transform="scale(0.015625)"/>
       <path id="DejaVuSans-Oblique-78" d="M 3841 3500 
L 2234 1784 
L 3219 0 
L 2559 0 
L 1819 1388 
L 531 0 
L -166 0 
L 1556 1844 
L 641 3500 
L 1300 3500 
L 1972 2234 
L 3144 3500 
L 3841 3500 
z
" transform="scale(0.015625)"/>
      </defs>
      <use xlink:href="#DejaVuSans-Oblique-50" transform="translate(0 0.015625)"/>
      <use xlink:href="#DejaVuSans-5b" transform="translate(60.302734 0.015625)"/>
      <use xlink:href="#DejaVuSans-Oblique-58" transform="translate(99.316406 0.015625)"/>
      <use xlink:href="#DejaVuSans-3e" transform="translate(187.304688 0.015625)"/>
      <use xlink:href="#DejaVuSans-Oblique-78" transform="translate(290.576172 0.015625)"/>
      <use xlink:href="#DejaVuSans-5d" transform="translate(349.755859 0.015625)"/>
     </g>
    </g>
   </g>
   <g id="line2d_51">
    <path d="M 115.363636 55.820451 
L 115.363636 55.869573 
L 130.84962 55.968008 
L 130.84962 56.017322 
L 141.498958 56.116142 
L 141.498958 56.165648 
L 144.49245 56.264857 
L 144.49245 56.314558 
L 148.069825 56.414157 
L 148.069825 56.464055 
L 150.170063 56.564048 
L 150.170063 56.614144 
L 152.475095 56.714535 
L 152.475095 56.76483 
L 154.570975 56.865621 
L 154.570975 56.916118 
L 159.451195 57.017312 
L 159.451195 57.068011 
L 161.407641 57.169613 
L 161.407641 57.220516 
L 162.152746 57.322528 
L 162.152746 57.373638 
L 164.026402 57.476063 
L 164.026402 57.52738 
L 166.248645 57.630222 
L 166.314005 57.733345 
L 168.645181 57.836749 
L 168.645181 57.888556 
L 172.623432 57.992385 
L 172.623432 58.044406 
L 173.202958 58.148664 
L 173.202958 58.2009 
L 176.357672 58.305589 
L 176.357672 58.358042 
L 177.608228 58.463167 
L 177.608228 58.515839 
L 179.368593 58.621403 
L 179.451383 58.727262 
L 181.107172 58.833417 
L 181.107172 58.886607 
L 184.026589 58.99321 
L 184.061448 59.100114 
L 185.028777 59.20732 
L 185.028777 59.261037 
L 186.074539 59.368701 
L 186.074539 59.422647 
L 187.294594 59.530771 
L 187.294594 59.584949 
L 190.388305 59.639205 
L 190.388305 59.693538 
L 190.388305 59.747949 
L 192.828415 59.857007 
L 192.876345 59.966379 
L 194.135616 60.076068 
L 194.135616 60.131031 
L 195.355671 60.241199 
L 195.355671 60.351687 
L 195.73476 60.462498 
L 195.73476 60.518026 
L 197.577914 60.573634 
L 197.577914 60.685098 
L 198.057222 60.740952 
L 198.057222 60.79689 
L 198.710823 60.852909 
L 198.750039 61.021468 
L 199.024551 61.077821 
L 199.05941 61.190779 
L 199.791443 61.247385 
L 199.791443 61.304075 
L 200.584479 61.36085 
L 200.584479 61.41771 
L 202.436348 61.474656 
L 202.436348 61.531688 
L 203.503896 61.588805 
L 203.503896 61.646009 
L 204.928746 61.703299 
L 204.928746 61.760676 
L 207.364498 61.81814 
L 207.364498 61.875691 
L 209.329658 61.93333 
L 209.329658 61.991056 
L 209.55624 62.048871 
L 209.604171 62.164765 
L 210.214198 62.222846 
L 210.214198 62.281015 
L 210.824226 62.339274 
L 210.824226 62.397623 
L 211.477827 62.397623 
L 211.477827 62.456062 
L 211.477827 62.57321 
L 211.835129 62.63192 
L 211.835129 62.690722 
L 214.127089 62.749614 
L 214.15759 62.867675 
L 214.571538 62.926843 
L 214.597682 63.045458 
L 215.181565 63.045458 
L 215.181565 63.104905 
L 215.181565 63.164446 
L 216.183753 63.22408 
L 216.201183 63.34363 
L 220.148932 63.403547 
L 220.148932 63.463559 
L 221.368987 63.523666 
L 221.368987 63.583868 
L 222.915842 63.644167 
L 222.915842 63.704561 
L 224.109753 63.765052 
L 224.109753 63.825639 
L 226.597794 63.886324 
L 226.597794 63.947106 
L 227.556409 64.007985 
L 227.556409 64.068962 
L 231.608734 64.130038 
L 231.608734 64.191212 
L 232.828789 64.252486 
L 232.828789 64.313858 
L 233.48239 64.37533 
L 233.48239 64.436902 
L 233.76126 64.498574 
L 233.76126 64.560346 
L 235.007459 64.62222 
L 235.007459 64.684194 
L 236.380021 64.74627 
L 236.380021 64.808448 
L 237.142555 64.870728 
L 237.142555 64.933111 
L 238.10117 64.995597 
L 238.10117 65.058185 
L 238.523832 65.120878 
L 238.523832 65.183674 
L 239.103358 65.246574 
L 239.138217 65.435904 
L 240.54128 65.499225 
L 240.54128 65.562651 
L 242.754808 65.626184 
L 242.754808 65.689824 
L 243.643706 65.753571 
L 243.643706 65.817425 
L 244.942193 65.881387 
L 244.942193 65.945457 
L 245.55222 66.009636 
L 245.639367 66.13832 
L 247.382303 66.202826 
L 247.382303 66.267442 
L 248.166624 66.332169 
L 248.166624 66.397006 
L 249.255959 66.461955 
L 249.299532 66.657471 
L 250.345293 66.722868 
L 250.345293 66.788378 
L 250.685166 66.854001 
L 250.685166 66.919738 
L 250.955321 66.919738 
L 250.955321 66.98559 
L 250.955321 67.051556 
L 251.264692 67.117637 
L 251.347481 67.250145 
L 252.59368 67.316574 
L 252.59368 67.383119 
L 253.133991 67.449781 
L 253.133991 67.516561 
L 254.092605 67.583458 
L 254.140536 67.717609 
L 254.789779 67.784862 
L 254.859497 67.987343 
L 255.068649 68.055077 
L 255.138367 68.19091 
L 255.966261 68.25901 
L 255.966261 68.327232 
L 257.927064 68.395578 
L 257.927064 68.464046 
L 258.537091 68.532639 
L 258.537091 68.601356 
L 259.234266 68.670198 
L 259.277839 68.808258 
L 259.757146 68.877477 
L 259.757146 69.085896 
L 261.29093 69.155625 
L 261.29093 69.225482 
L 262.153683 69.295468 
L 262.245187 69.506205 
L 262.545843 69.576712 
L 262.545843 69.64735 
L 263.212516 69.71812 
L 263.212516 69.789023 
L 264.27135 69.860059 
L 264.27135 69.931228 
L 265.334541 70.00253 
L 265.334541 70.14554 
L 265.874851 70.217247 
L 265.874851 70.289091 
L 266.415161 70.361071 
L 266.415161 70.433188 
L 266.903183 70.505442 
L 266.981615 70.650366 
L 269.648306 70.723036 
L 269.648306 70.795846 
L 270.345481 70.868795 
L 270.375982 71.015118 
L 270.911935 71.088491 
L 270.911935 71.162007 
L 271.521962 71.235666 
L 271.521962 71.309468 
L 272.742017 71.383415 
L 272.742017 71.457506 
L 274.615673 71.531741 
L 274.615673 71.606123 
L 275.443568 71.680651 
L 275.530715 71.830148 
L 276.140742 71.905118 
L 276.140742 71.980237 
L 276.789986 72.055505 
L 276.789986 72.130923 
L 277.173431 72.206491 
L 277.173431 72.282211 
L 278.188692 72.358081 
L 278.188692 72.434104 
L 279.45232 72.51028 
L 279.45232 72.586609 
L 281.543843 72.663093 
L 281.543843 72.739731 
L 283.509003 72.816524 
L 283.509003 72.893473 
L 283.896806 72.970579 
L 283.896806 73.047842 
L 284.898994 73.125262 
L 284.898994 73.202842 
L 286.380489 73.28058 
L 286.380489 73.358478 
L 286.729077 73.436537 
L 286.729077 73.514757 
L 287.382677 73.593138 
L 287.382677 73.671682 
L 287.644118 73.750389 
L 287.644118 73.82926 
L 288.472012 73.908295 
L 288.489442 74.066862 
L 289.387054 74.146395 
L 289.404483 74.305964 
L 290.724757 74.386001 
L 290.724757 74.466207 
L 291.129989 74.546583 
L 291.129989 74.62713 
L 291.696443 74.707849 
L 291.696443 74.78874 
L 292.999288 74.869804 
L 293.047219 75.032455 
L 294.310847 75.114042 
L 294.310847 75.195806 
L 295.792342 75.277746 
L 295.792342 75.359864 
L 296.689954 75.442161 
L 296.707384 75.607292 
L 297.670356 75.690127 
L 297.670356 75.773145 
L 298.232452 75.856345 
L 298.232452 75.939727 
L 298.755333 75.939727 
L 298.755333 76.023294 
L 298.755333 76.190982 
L 299.191067 76.275105 
L 299.195424 76.443914 
L 299.931815 76.528601 
L 299.931815 76.613478 
L 301.064723 76.698545 
L 301.064723 76.783803 
L 301.67475 76.869254 
L 301.67475 76.954898 
L 302.071268 77.040736 
L 302.071268 77.126769 
L 302.650794 77.212998 
L 302.676938 77.386046 
L 303.112672 77.472867 
L 303.186747 77.647108 
L 303.554631 77.73453 
L 303.554631 77.822155 
L 304.942755 77.909982 
L 304.942755 77.998013 
L 305.395918 78.086249 
L 305.395918 78.174692 
L 306.820768 78.263341 
L 306.820768 78.352198 
L 307.687879 78.441263 
L 307.687879 78.530539 
L 308.254333 78.620025 
L 308.254333 78.709723 
L 308.559346 78.799634 
L 308.559346 78.889759 
L 309.204233 78.980099 
L 309.300094 79.252417 
L 309.517961 79.343626 
L 309.561535 79.526706 
L 309.735828 79.618579 
L 309.735828 79.710674 
L 310.393786 79.802995 
L 310.393786 79.89554 
L 310.91231 79.988313 
L 310.91231 80.081313 
L 311.43519 80.174541 
L 311.43519 80.268 
L 311.696631 80.268 
L 311.696631 80.36169 
L 311.705345 80.644156 
L 311.831708 80.738782 
L 311.831708 80.833644 
L 312.611672 80.928744 
L 312.611672 81.024084 
L 313.526713 81.119664 
L 313.61386 81.407859 
L 313.722794 81.504413 
L 313.788154 81.698262 
L 314.223888 81.79556 
L 314.228245 82.088961 
L 315.16943 82.187268 
L 315.269649 82.384651 
L 317.012585 82.48373 
L 317.012585 82.583068 
L 318.014773 82.682667 
L 318.014773 82.782528 
L 319.016961 82.882654 
L 319.09975 83.083702 
L 319.801282 83.184627 
L 319.801282 83.285822 
L 320.367736 83.387288 
L 320.367736 83.489026 
L 322.302395 83.591038 
L 322.302395 83.693325 
L 323.24358 83.795889 
L 323.287153 84.001854 
L 323.722887 84.001854 
L 323.722887 84.105258 
L 323.805677 84.312916 
L 323.984328 84.312916 
L 323.984328 84.417173 
L 323.984328 84.521718 
L 326.642305 84.626552 
L 326.642305 84.731676 
L 327.252332 84.837094 
L 327.291548 85.048812 
L 330.346043 85.155116 
L 330.3504 85.368623 
L 330.942998 85.47583 
L 330.969143 85.799281 
L 331.85804 85.907714 
L 331.85804 86.016459 
L 333.221887 86.125516 
L 333.221887 86.234888 
L 334.049781 86.234888 
L 334.049781 86.344577 
L 334.049781 86.454584 
L 334.267648 86.564912 
L 334.267648 86.675561 
L 335.923437 86.786535 
L 335.923437 86.897834 
L 336.097731 86.897834 
L 336.141304 87.233708 
L 336.533465 87.233708 
L 336.620612 87.459288 
L 336.751332 87.459288 
L 336.755689 87.68622 
L 337.012772 87.68622 
L 337.012772 87.800197 
L 337.143492 87.800197 
L 337.226282 88.491355 
L 339.021506 88.491355 
L 339.021506 88.607784 
L 339.496456 88.607784 
L 339.601032 88.841719 
L 340.237203 88.841719 
L 340.280777 89.195353 
L 340.498644 89.195353 
L 340.498644 89.313968 
L 340.760084 89.313968 
L 340.760084 89.432955 
L 341.248106 89.432955 
L 341.248106 89.552317 
L 341.500832 89.552317 
L 341.500832 89.672057 
L 342.067286 89.672057 
L 342.141361 90.033561 
L 342.851607 90.033561 
L 342.851607 90.154833 
L 343.679501 90.154833 
L 343.692573 90.398548 
L 344.594543 90.398548 
L 344.638116 90.643839 
L 344.764479 90.643839 
L 344.764479 90.767083 
L 345.20457 90.767083 
L 345.20457 90.890729 
L 345.640304 90.890729 
L 345.640304 91.01478 
L 345.862528 91.01478 
L 345.862528 91.139238 
L 346.424625 91.139238 
L 346.424625 91.264106 
L 347.069511 91.264106 
L 347.069511 91.389387 
L 347.426813 91.389387 
L 347.452957 91.641198 
L 348.559721 91.641198 
L 348.559721 91.767734 
L 348.777588 91.767734 
L 348.777588 91.894694 
L 348.930095 91.894694 
L 348.995455 92.278145 
L 349.130533 92.278145 
L 349.130533 92.406829 
L 349.474763 92.406829 
L 349.518336 92.665516 
L 349.605483 92.665516 
L 349.605483 92.795524 
L 349.762347 92.795524 
L 349.849494 93.056887 
L 349.95407 93.056887 
L 349.980214 93.320065 
L 350.781964 93.320065 
L 350.781964 93.452342 
L 350.921399 93.452342 
L 350.956258 93.718291 
L 351.174125 93.718291 
L 351.283058 93.986118 
L 351.518355 93.986118 
L 351.522712 94.255852 
L 352.023806 94.255852 
L 352.023806 94.391442 
L 353.788528 94.391442 
L 353.788528 94.527519 
L 354.354983 94.527519 
L 354.354983 94.801148 
L 354.659996 94.801148 
L 354.659996 94.938707 
L 355.121874 94.938707 
L 355.220226 95.215332 
L 355.880051 95.215332 
L 355.880051 95.354406 
L 356.978101 95.354406 
L 357.01296 95.634093 
L 357.187253 95.634093 
L 357.187253 95.774714 
L 357.710134 95.774714 
L 357.710134 95.91586 
L 358.215585 95.91586 
L 358.215585 96.057533 
L 358.843042 96.057533 
L 358.886615 96.342477 
L 359.265704 96.342477 
L 359.322349 96.62958 
L 360.063097 96.62958 
L 360.071812 97.064355 
L 360.368111 97.064355 
L 360.368111 97.210396 
L 360.760271 97.210396 
L 360.760271 97.357001 
L 361.631739 97.357001 
L 361.631739 97.504176 
L 362.067473 97.504176 
L 362.067473 97.800251 
L 362.328914 97.800251 
L 362.328914 97.949161 
L 363.156808 97.949161 
L 363.16988 98.399433 
L 364.036991 98.399433 
L 364.036991 98.55072 
L 364.285359 98.55072 
L 364.285359 98.702614 
L 365.335478 98.702614 
L 365.335478 98.855119 
L 365.644849 98.855119 
L 365.644849 99.00824 
L 366.250519 99.00824 
L 366.250519 99.161982 
L 366.943336 99.161982 
L 366.943336 99.316351 
L 367.427001 99.316351 
L 367.505433 99.626988 
L 367.906308 99.626988 
L 367.906308 99.783266 
L 368.124175 99.783266 
L 368.124175 99.940191 
L 369.980401 99.940191 
L 370.084977 100.256005 
L 370.128551 100.256005 
L 370.128551 100.414905 
L 372.459727 100.414905 
L 372.459727 100.574473 
L 372.742954 100.574473 
L 372.742954 100.734716 
L 373.963009 100.734716 
L 373.963009 100.89564 
L 374.760403 100.89564 
L 374.834477 101.382552 
L 375.531652 101.382552 
L 375.531652 101.546256 
L 375.949956 101.546256 
L 376.054532 102.208237 
L 376.790923 102.208237 
L 376.79528 102.712423 
L 377.013147 102.712423 
L 377.013147 102.881987 
L 377.422737 102.881987 
L 377.422737 103.052313 
L 378.015335 103.052313 
L 378.015335 103.223408 
L 378.333421 103.223408 
L 378.333421 103.395279 
L 379.278963 103.395279 
L 379.278963 103.567932 
L 379.540404 103.567932 
L 379.540404 103.741376 
L 380.010996 103.741376 
L 380.010996 103.915618 
L 380.455445 103.915618 
L 380.494661 104.443201 
L 380.586165 104.443201 
L 380.586165 104.620707 
L 380.760459 104.620707 
L 380.760459 104.799048 
L 381.152619 104.799048 
L 381.152619 104.978233 
L 381.370486 104.978233 
L 381.370486 105.158268 
L 381.980514 105.158268 
L 382.006658 105.520926 
L 382.546968 105.520926 
L 382.564397 105.887088 
L 382.721261 105.887088 
L 382.721261 106.071504 
L 383.109065 106.071504 
L 383.109065 106.256822 
L 384.185328 106.256822 
L 384.185328 106.443051 
L 385.553532 106.443051 
L 385.553532 106.818276 
L 386.943523 106.818276 
L 386.943523 107.007291 
L 387.340041 107.007291 
L 387.340041 107.388173 
L 390.303032 107.388173 
L 390.303032 107.58006 
L 390.416323 107.58006 
L 390.416323 107.772922 
L 390.695192 107.772922 
L 390.695192 107.966772 
L 392.612422 107.966772 
L 392.612422 108.161617 
L 392.786715 108.161617 
L 392.873862 108.554341 
L 392.900006 108.554341 
L 392.900006 108.752239 
L 393.788903 108.752239 
L 393.788903 108.951176 
L 395.662559 108.951176 
L 395.662559 109.151163 
L 397.226844 109.151163 
L 397.226844 109.352211 
L 397.845586 109.352211 
L 397.845586 109.554331 
L 399.061284 109.554331 
L 399.061284 109.757535 
L 399.409871 109.757535 
L 399.409871 109.961835 
L 400.194192 109.961835 
L 400.194192 110.167241 
L 402.154995 110.167241 
L 402.154995 110.373768 
L 402.329288 110.373768 
L 402.329288 110.581425 
L 402.599443 110.581425 
L 402.599443 110.790227 
L 402.799881 110.790227 
L 402.799881 111.000186 
L 403.76721 111.000186 
L 403.76721 111.211314 
L 404.943692 111.211314 
L 404.943692 111.423626 
L 405.771586 111.423626 
L 405.771586 111.637133 
L 406.512334 111.637133 
L 406.512334 111.85185 
L 407.688816 111.85185 
L 407.688816 112.06779 
L 408.372918 112.06779 
L 408.372918 112.284968 
L 408.51671 112.284968 
L 408.51671 112.503398 
L 408.996017 112.503398 
L 408.996017 112.723094 
L 409.327175 112.723094 
L 409.327175 112.944071 
L 410.128926 112.944071 
L 410.216072 113.389928 
L 411.466629 113.389928 
L 411.566848 114.297695 
L 411.871861 114.297695 
L 411.871861 114.528075 
L 415.183439 114.528075 
L 415.183439 114.993081 
L 415.96776 114.993081 
L 415.96776 115.22774 
L 416.447068 115.22774 
L 416.447068 115.463862 
L 416.577788 115.463862 
L 416.577788 115.701465 
L 417.100669 115.701465 
L 417.100669 115.940566 
L 419.845792 115.940566 
L 419.946011 116.423343 
L 420.412246 116.423343 
L 420.412246 116.667057 
L 420.756476 116.667057 
L 420.756476 116.912349 
L 421.022274 116.912349 
L 421.022274 117.159239 
L 422.547343 117.159239 
L 422.612703 117.657896 
L 423.070223 117.657896 
L 423.15737 118.163203 
L 423.200944 118.163203 
L 423.28809 118.675339 
L 425.031026 118.675339 
L 425.031026 118.934025 
L 425.684627 118.934025 
L 425.684627 119.19449 
L 427.51471 119.19449 
L 427.566998 119.720852 
L 428.394892 119.720852 
L 428.394892 119.9868 
L 428.996205 119.9868 
L 428.996205 120.254628 
L 429.301219 120.254628 
L 429.301219 120.524361 
L 429.519086 120.524361 
L 429.519086 120.796029 
L 430.041966 120.796029 
L 430.041966 121.069658 
L 430.521274 121.069658 
L 430.521274 121.622915 
L 431.174875 121.622915 
L 431.174875 121.902602 
L 431.915622 121.902602 
L 431.950481 122.468246 
L 432.046342 122.468246 
L 432.076844 123.042461 
L 433.135677 123.042461 
L 433.135677 123.332865 
L 434.442879 123.332865 
L 434.482095 123.920434 
L 434.996261 123.920434 
L 434.996261 124.21767 
L 437.475587 124.21767 
L 437.475587 124.517256 
L 438.015897 124.517256 
L 438.015897 124.819229 
L 438.495205 124.819229 
L 438.495205 125.123628 
L 438.887365 125.123628 
L 438.887365 125.430492 
L 439.71526 125.430492 
L 439.71526 125.739861 
L 439.950556 125.739861 
L 439.950556 126.051775 
L 440.150994 126.051775 
L 440.150994 126.366279 
L 440.456007 126.366279 
L 440.456007 126.683414 
L 441.283902 126.683414 
L 441.283902 127.003226 
L 441.632489 127.003226 
L 441.632489 127.325759 
L 442.503957 127.325759 
L 442.503957 127.651061 
L 443.636865 127.651061 
L 443.636865 127.97918 
L 443.889591 127.97918 
L 443.889591 128.310164 
L 444.286108 128.310164 
L 444.286108 128.644064 
L 445.680457 128.644064 
L 445.680457 128.980933 
L 446.730576 128.980933 
L 446.730576 129.320822 
L 447.55847 129.320822 
L 447.55847 129.663788 
L 448.342791 129.663788 
L 448.342791 130.009886 
L 448.621661 130.009886 
L 448.621661 130.359174 
L 449.214259 130.359174 
L 449.214259 130.711711 
L 449.4757 130.711711 
L 449.4757 131.067558 
L 449.859146 131.067558 
L 449.859146 131.426778 
L 451.087915 131.426778 
L 451.087915 131.789436 
L 451.349356 131.789436 
L 451.436502 132.525332 
L 451.697943 132.525332 
L 451.697943 132.898709 
L 452.002956 132.898709 
L 452.002956 133.275801 
L 453.440878 133.275801 
L 453.440878 133.656683 
L 453.876612 133.656683 
L 453.876612 134.430127 
L 454.922374 134.430127 
L 454.922374 134.82285 
L 455.140241 134.82285 
L 455.140241 135.219686 
L 455.445254 135.219686 
L 455.445254 135.620721 
L 456.665309 135.620721 
L 456.665309 136.026045 
L 457.667498 136.026045 
L 457.667498 136.435751 
L 458.408245 136.435751 
L 458.447461 137.268695 
L 458.538965 137.268695 
L 458.538965 137.692135 
L 459.23614 137.692135 
L 459.23614 138.120359 
L 459.671874 138.120359 
L 459.671874 138.553478 
L 459.802594 138.553478 
L 459.889741 139.434853 
L 461.022649 139.434853 
L 461.022649 139.883349 
L 462.19913 139.883349 
L 462.286277 141.26159 
L 466.643616 141.26159 
L 466.643616 141.732372 
L 470.478075 141.732372 
L 470.478075 142.209076 
L 472.133864 142.209076 
L 472.221011 143.180858 
L 473.484639 143.180858 
L 473.484639 143.676257 
L 474.094667 143.676257 
L 474.094667 144.178217 
L 474.748268 144.178217 
L 474.748268 144.686915 
L 475.401869 144.686915 
L 475.401869 145.202535 
L 476.621924 145.202535 
L 476.621924 145.725267 
L 477.225726 145.725267 
L 477.225726 146.255309 
L 478.321286 146.255309 
L 478.321286 146.792871 
L 478.539153 146.792871 
L 478.539153 147.338167 
L 479.14918 147.338167 
L 479.14918 147.891425 
L 481.06641 147.891425 
L 481.06641 148.452879 
L 481.58929 148.452879 
L 481.676437 149.601374 
L 481.850731 149.601374 
L 481.850731 150.188943 
L 485.815909 150.188943 
L 485.815909 150.785766 
L 486.730951 150.785766 
L 486.730951 151.392138 
L 487.624205 151.392138 
L 487.624205 152.00837 
L 489.040341 152.00837 
L 489.040341 152.634788 
L 491.542698 152.634788 
L 491.542698 153.271735 
L 491.959758 153.271735 
L 491.959758 153.919571 
L 492.395492 153.919571 
L 492.395492 154.578673 
L 495.619923 154.578673 
L 495.619923 155.249442 
L 499.672248 155.249442 
L 499.672248 155.932298 
L 506.992578 155.932298 
L 506.992578 158.057945 
L 510.783464 158.057945 
L 510.783464 160.309941 
L 512.65712 160.309941 
L 512.65712 161.88923 
L 515.819303 161.88923 
L 515.819303 162.70426 
L 517.145179 162.70426 
L 517.158251 164.388869 
L 517.711633 164.388869 
L 517.711633 165.260113 
L 520.413184 165.260113 
L 520.413184 166.151859 
L 521.502518 166.151859 
L 521.502518 167.065094 
L 522.156119 167.065094 
L 522.156119 168.000881 
L 522.66655 168.000881 
L 522.66655 168.960362 
L 522.94044 168.960362 
L 522.94044 169.944766 
L 523.419748 169.944766 
L 523.419748 170.955425 
L 523.724761 170.955425 
L 523.724761 171.993776 
L 524.770523 171.993776 
L 524.770523 173.06138 
L 527.646367 173.06138 
L 527.646367 174.159934 
L 528.474261 174.159934 
L 528.474261 175.291285 
L 529.084289 175.291285 
L 529.084289 176.457453 
L 529.520023 176.457453 
L 529.520023 177.660647 
L 533.528775 177.660647 
L 533.528775 178.903298 
L 535.116091 178.903298 
L 535.116091 180.18808 
L 538.583288 180.18808 
L 538.583288 181.517952 
L 547.428687 181.517952 
L 547.428687 182.896193 
L 551.219572 182.896193 
L 551.219572 187.359869 
L 553.267522 187.359869 
L 553.267522 188.97277 
L 553.746829 188.97277 
L 553.746829 190.657378 
L 556.274086 190.657378 
L 556.274086 192.420368 
L 557.537714 192.420368 
L 557.537714 194.269391 
L 561.938627 194.269391 
L 561.938627 196.213276 
L 563.855856 196.213276 
L 563.855856 198.262286 
L 566.383113 198.262286 
L 566.383113 200.428444 
L 569.346104 200.428444 
L 569.346104 202.725962 
L 569.520398 202.725962 
L 569.520398 205.171807 
L 572.701255 205.171807 
L 572.701255 207.786461 
L 577.755769 207.786461 
L 577.755769 210.594964 
L 582.418122 210.594964 
L 582.418122 213.628379 
L 585.99114 213.628379 
L 585.99114 216.925888 
L 589.128424 216.925888 
L 589.128424 234.054971 
L 598.627424 234.054971 
L 598.627424 239.896888 
L 601.764708 239.896888 
L 601.764708 255.262981 
L 606.122048 255.262981 
L 606.122048 266.165398 
L 607.472823 266.165398 
L 607.472823 281.531491 
L 617.276836 281.531491 
L 617.276836 307.8 
L 622.636364 307.8 
L 622.636364 307.8 
" clip-path="url(#p9bb95abf6a)" style="fill: none; stroke: #000000; stroke-width: 1.5; stroke-linecap: square"/>
   </g>
   <g id="line2d_52">
    <path d="M 115.363636 55.8 
L 141.498958 55.972239 
L 158.335717 56.30085 
L 168.802046 56.655554 
L 181.760773 57.311413 
L 193.525589 58.158207 
L 203.503896 59.090439 
L 214.15759 60.320771 
L 224.109753 61.699203 
L 234.353858 63.353504 
L 244.201445 65.168162 
L 254.441192 67.283471 
L 264.27135 69.525562 
L 275.443568 72.31283 
L 286.51121 75.309422 
L 298.145306 78.693158 
L 309.918836 82.340798 
L 322.459259 86.449579 
L 336.141304 91.167229 
L 350.956258 96.518233 
L 366.250519 102.27136 
L 383.109065 108.84223 
L 402.599443 116.688419 
L 423.28809 125.254788 
L 448.342791 135.886112 
L 475.401869 147.608013 
L 506.992578 161.521555 
L 506.992578 161.521555 
L 547.428687 179.57572 
L 601.764708 204.1014 
L 601.764708 204.1014 
L 622.636364 213.572867 
L 622.636364 213.572867 
" clip-path="url(#p9bb95abf6a)" style="fill: none; stroke: #6495ed; stroke-width: 1.5; stroke-linecap: square"/>
   </g>
   <g id="patch_3">
    <path d="M 90 320.4 
L 90 43.2 
" style="fill: none; stroke: #000000; stroke-width: 0.8; stroke-linejoin: miter; stroke-linecap: square"/>
   </g>
   <g id="patch_4">
    <path d="M 648 320.4 
L 648 43.2 
" style="fill: none; stroke: #000000; stroke-width: 0.8; stroke-linejoin: miter; stroke-linecap: square"/>
   </g>
   <g id="patch_5">
    <path d="M 90 320.4 
L 648 320.4 
" style="fill: none; stroke: #000000; stroke-width: 0.8; stroke-linejoin: miter; stroke-linecap: square"/>
   </g>
   <g id="patch_6">
    <path d="M 90 43.2 
L 648 43.2 
" style="fill: none; stroke: #000000; stroke-width: 0.8; stroke-linejoin: miter; stroke-linecap: square"/>
   </g>
   <g id="text_16">
    <!-- Exceedance plot in log-scale -->
    <g transform="translate(240.508125 37.2) scale(0.18 -0.18)">
     <defs>
      <path id="DejaVuSans-45" d="M 628 4666 
L 3578 4666 
L 3578 4134 
L 1259 4134 
L 1259 2753 
L 3481 2753 
L 3481 2222 
L 1259 2222 
L 1259 531 
L 3634 531 
L 3634 0 
L 628 0 
L 628 4666 
z
" transform="scale(0.015625)"/>
      <path id="DejaVuSans-78" d="M 3513 3500 
L 2247 1797 
L 3578 0 
L 2900 0 
L 1881 1375 
L 863 0 
L 184 0 
L 1544 1831 
L 300 3500 
L 978 3500 
L 1906 2253 
L 2834 3500 
L 3513 3500 
z
" transform="scale(0.015625)"/>
      <path id="DejaVuSans-63" d="M 3122 3366 
L 3122 2828 
Q 2878 2963 2633 3030 
Q 2388 3097 2138 3097 
Q 1578 3097 1268 2742 
Q 959 2388 959 1747 
Q 959 1106 1268 751 
Q 1578 397 2138 397 
Q 2388 397 2633 464 
Q 2878 531 3122 666 
L 3122 134 
Q 2881 22 2623 -34 
Q 2366 -91 2075 -91 
Q 1284 -91 818 406 
Q 353 903 353 1747 
Q 353 2603 823 3093 
Q 1294 3584 2113 3584 
Q 2378 3584 2631 3529 
Q 2884 3475 3122 3366 
z
" transform="scale(0.015625)"/>
      <path id="DejaVuSans-64" d="M 2906 2969 
L 2906 4863 
L 3481 4863 
L 3481 0 
L 2906 0 
L 2906 525 
Q 2725 213 2448 61 
Q 2172 -91 1784 -91 
Q 1150 -91 751 415 
Q 353 922 353 1747 
Q 353 2572 751 3078 
Q 1150 3584 1784 3584 
Q 2172 3584 2448 3432 
Q 2725 3281 2906 2969 
z
M 947 1747 
Q 947 1113 1208 752 
Q 1469 391 1925 391 
Q 2381 391 2643 752 
Q 2906 1113 2906 1747 
Q 2906 2381 2643 2742 
Q 2381 3103 1925 3103 
Q 1469 3103 1208 2742 
Q 947 2381 947 1747 
z
" transform="scale(0.015625)"/>
      <path id="DejaVuSans-6c" d="M 603 4863 
L 1178 4863 
L 1178 0 
L 603 0 
L 603 4863 
z
" transform="scale(0.015625)"/>
      <path id="DejaVuSans-2d" d="M 313 2009 
L 1997 2009 
L 1997 1497 
L 313 1497 
L 313 2009 
z
" transform="scale(0.015625)"/>
     </defs>
     <use xlink:href="#DejaVuSans-45"/>
     <use xlink:href="#DejaVuSans-78" x="63.183594"/>
     <use xlink:href="#DejaVuSans-63" x="120.613281"/>
     <use xlink:href="#DejaVuSans-65" x="175.59375"/>
     <use xlink:href="#DejaVuSans-65" x="237.117188"/>
     <use xlink:href="#DejaVuSans-64" x="298.640625"/>
     <use xlink:href="#DejaVuSans-61" x="362.117188"/>
     <use xlink:href="#DejaVuSans-6e" x="423.396484"/>
     <use xlink:href="#DejaVuSans-63" x="486.775391"/>
     <use xlink:href="#DejaVuSans-65" x="541.755859"/>
     <use xlink:href="#DejaVuSans-20" x="603.279297"/>
     <use xlink:href="#DejaVuSans-70" x="635.066406"/>
     <use xlink:href="#DejaVuSans-6c" x="698.542969"/>
     <use xlink:href="#DejaVuSans-6f" x="726.326172"/>
     <use xlink:href="#DejaVuSans-74" x="787.507812"/>
     <use xlink:href="#DejaVuSans-20" x="826.716797"/>
     <use xlink:href="#DejaVuSans-69" x="858.503906"/>
     <use xlink:href="#DejaVuSans-6e" x="886.287109"/>
     <use xlink:href="#DejaVuSans-20" x="949.666016"/>
     <use xlink:href="#DejaVuSans-6c" x="981.453125"/>
     <use xlink:href="#DejaVuSans-6f" x="1009.236328"/>
     <use xlink:href="#DejaVuSans-67" x="1070.417969"/>
     <use xlink:href="#DejaVuSans-2d" x="1133.894531"/>
     <use xlink:href="#DejaVuSans-73" x="1169.978516"/>
     <use xlink:href="#DejaVuSans-63" x="1222.078125"/>
     <use xlink:href="#DejaVuSans-61" x="1277.058594"/>
     <use xlink:href="#DejaVuSans-6c" x="1338.337891"/>
     <use xlink:href="#DejaVuSans-65" x="1366.121094"/>
    </g>
   </g>
   <g id="legend_1">
    <g id="patch_7">
     <path d="M 495.270938 95.49875 
L 638.2 95.49875 
Q 641 95.49875 641 92.69875 
L 641 53 
Q 641 50.2 638.2 50.2 
L 495.270938 50.2 
Q 492.470937 50.2 492.470937 53 
L 492.470937 92.69875 
Q 492.470937 95.49875 495.270938 95.49875 
z
" style="fill: #ffffff; opacity: 0.8; stroke: #cccccc; stroke-linejoin: miter"/>
    </g>
    <g id="line2d_53">
     <path d="M 498.070938 61.537812 
L 498.070938 61.537812 
L 512.070938 61.537812 
L 512.070938 61.537812 
L 526.070938 61.537812 
" style="fill: none; stroke: #000000; stroke-width: 1.5; stroke-linecap: square"/>
    </g>
    <g id="text_17">
     <!-- Empirical CDF -->
     <g transform="translate(537.270938 66.437812) scale(0.14 -0.14)">
      <defs>
       <path id="DejaVuSans-44" d="M 1259 4147 
L 1259 519 
L 2022 519 
Q 2988 519 3436 956 
Q 3884 1394 3884 2338 
Q 3884 3275 3436 3711 
Q 2988 4147 2022 4147 
L 1259 4147 
z
M 628 4666 
L 1925 4666 
Q 3281 4666 3915 4102 
Q 4550 3538 4550 2338 
Q 4550 1131 3912 565 
Q 3275 0 1925 0 
L 628 0 
L 628 4666 
z
" transform="scale(0.015625)"/>
       <path id="DejaVuSans-46" d="M 628 4666 
L 3309 4666 
L 3309 4134 
L 1259 4134 
L 1259 2759 
L 3109 2759 
L 3109 2228 
L 1259 2228 
L 1259 0 
L 628 0 
L 628 4666 
z
" transform="scale(0.015625)"/>
      </defs>
      <use xlink:href="#DejaVuSans-45"/>
      <use xlink:href="#DejaVuSans-6d" x="63.183594"/>
      <use xlink:href="#DejaVuSans-70" x="160.595703"/>
      <use xlink:href="#DejaVuSans-69" x="224.072266"/>
      <use xlink:href="#DejaVuSans-72" x="251.855469"/>
      <use xlink:href="#DejaVuSans-69" x="292.96875"/>
      <use xlink:href="#DejaVuSans-63" x="320.751953"/>
      <use xlink:href="#DejaVuSans-61" x="375.732422"/>
      <use xlink:href="#DejaVuSans-6c" x="437.011719"/>
      <use xlink:href="#DejaVuSans-20" x="464.794922"/>
      <use xlink:href="#DejaVuSans-43" x="496.582031"/>
      <use xlink:href="#DejaVuSans-44" x="566.40625"/>
      <use xlink:href="#DejaVuSans-46" x="643.408203"/>
     </g>
    </g>
    <g id="line2d_54">
     <path d="M 498.070938 82.087187 
L 512.070938 82.087187 
L 526.070938 82.087187 
" style="fill: none; stroke: #6495ed; stroke-width: 1.5; stroke-linecap: square"/>
    </g>
    <g id="text_18">
     <!-- Gumbel CDF -->
     <g transform="translate(537.270938 86.987187) scale(0.14 -0.14)">
      <defs>
       <path id="DejaVuSans-47" d="M 3809 666 
L 3809 1919 
L 2778 1919 
L 2778 2438 
L 4434 2438 
L 4434 434 
Q 4069 175 3628 42 
Q 3188 -91 2688 -91 
Q 1594 -91 976 548 
Q 359 1188 359 2328 
Q 359 3472 976 4111 
Q 1594 4750 2688 4750 
Q 3144 4750 3555 4637 
Q 3966 4525 4313 4306 
L 4313 3634 
Q 3963 3931 3569 4081 
Q 3175 4231 2741 4231 
Q 1884 4231 1454 3753 
Q 1025 3275 1025 2328 
Q 1025 1384 1454 906 
Q 1884 428 2741 428 
Q 3075 428 3337 486 
Q 3600 544 3809 666 
z
" transform="scale(0.015625)"/>
       <path id="DejaVuSans-75" d="M 544 1381 
L 544 3500 
L 1119 3500 
L 1119 1403 
Q 1119 906 1312 657 
Q 1506 409 1894 409 
Q 2359 409 2629 706 
Q 2900 1003 2900 1516 
L 2900 3500 
L 3475 3500 
L 3475 0 
L 2900 0 
L 2900 538 
Q 2691 219 2414 64 
Q 2138 -91 1772 -91 
Q 1169 -91 856 284 
Q 544 659 544 1381 
z
M 1991 3584 
L 1991 3584 
z
" transform="scale(0.015625)"/>
       <path id="DejaVuSans-62" d="M 3116 1747 
Q 3116 2381 2855 2742 
Q 2594 3103 2138 3103 
Q 1681 3103 1420 2742 
Q 1159 2381 1159 1747 
Q 1159 1113 1420 752 
Q 1681 391 2138 391 
Q 2594 391 2855 752 
Q 3116 1113 3116 1747 
z
M 1159 2969 
Q 1341 3281 1617 3432 
Q 1894 3584 2278 3584 
Q 2916 3584 3314 3078 
Q 3713 2572 3713 1747 
Q 3713 922 3314 415 
Q 2916 -91 2278 -91 
Q 1894 -91 1617 61 
Q 1341 213 1159 525 
L 1159 0 
L 581 0 
L 581 4863 
L 1159 4863 
L 1159 2969 
z
" transform="scale(0.015625)"/>
      </defs>
      <use xlink:href="#DejaVuSans-47"/>
      <use xlink:href="#DejaVuSans-75" x="77.490234"/>
      <use xlink:href="#DejaVuSans-6d" x="140.869141"/>
      <use xlink:href="#DejaVuSans-62" x="238.28125"/>
      <use xlink:href="#DejaVuSans-65" x="301.757812"/>
      <use xlink:href="#DejaVuSans-6c" x="363.28125"/>
      <use xlink:href="#DejaVuSans-20" x="391.064453"/>
      <use xlink:href="#DejaVuSans-43" x="422.851562"/>
      <use xlink:href="#DejaVuSans-44" x="492.675781"/>
      <use xlink:href="#DejaVuSans-46" x="569.677734"/>
     </g>
    </g>
   </g>
  </g>
 </g>
 <defs>
  <clipPath id="p9bb95abf6a">
   <rect x="90" y="43.2" width="558" height="277.2"/>
  </clipPath>
 </defs>
</svg>
