<?xml version="1.0" encoding="utf-8" standalone="no"?>
<!DOCTYPE svg PUBLIC "-//W3C//DTD SVG 1.1//EN"
  "http://www.w3.org/Graphics/SVG/1.1/DTD/svg11.dtd">
<svg xmlns:xlink="http://www.w3.org/1999/xlink" width="576pt" height="360pt" viewBox="0 0 576 360" xmlns="http://www.w3.org/2000/svg" version="1.1">
 <metadata>
  <rdf:RDF xmlns:dc="http://purl.org/dc/elements/1.1/" xmlns:cc="http://creativecommons.org/ns#" xmlns:rdf="http://www.w3.org/1999/02/22-rdf-syntax-ns#">
   <cc:Work>
    <dc:type rdf:resource="http://purl.org/dc/dcmitype/StillImage"/>
    <dc:date>2024-10-24T22:35:25.652556</dc:date>
    <dc:format>image/svg+xml</dc:format>
    <dc:creator>
     <cc:Agent>
      <dc:title>Matplotlib v3.9.2, https://matplotlib.org/</dc:title>
     </cc:Agent>
    </dc:creator>
   </cc:Work>
  </rdf:RDF>
 </metadata>
 <defs>
  <style type="text/css">*{stroke-linejoin: round; stroke-linecap: butt}</style>
 </defs>
 <g id="figure_1">
  <g id="patch_1">
   <path d="M 0 360 
L 576 360 
L 576 0 
L 0 0 
z
" style="fill: #ffffff"/>
  </g>
  <g id="axes_1">
   <g id="patch_2">
    <path d="M 72 320.4 
L 518.4 320.4 
L 518.4 43.2 
L 72 43.2 
z
" style="fill: #ffffff"/>
   </g>
   <g id="matplotlib.axis_1">
    <g id="xtick_1">
     <g id="line2d_1">
      <path d="M 93.643839 320.4 
L 93.643839 43.2 
" clip-path="url(#p973aae501f)" style="fill: none; stroke: #b0b0b0; stroke-width: 0.8; stroke-linecap: square"/>
     </g>
     <g id="line2d_2">
      <defs>
       <path id="m01851d718b" d="M 0 0 
L 0 3.5 
" style="stroke: #000000; stroke-width: 0.8"/>
      </defs>
      <g>
       <use xlink:href="#m01851d718b" x="93.643839" y="320.4" style="stroke: #000000; stroke-width: 0.8"/>
      </g>
     </g>
     <g id="text_1">
      <!-- −100000 -->
      <g transform="translate(70.366495 334.998438) scale(0.1 -0.1)">
       <defs>
        <path id="DejaVuSans-2212" d="M 678 2272 
L 4684 2272 
L 4684 1741 
L 678 1741 
L 678 2272 
z
" transform="scale(0.015625)"/>
        <path id="DejaVuSans-31" d="M 794 531 
L 1825 531 
L 1825 4091 
L 703 3866 
L 703 4441 
L 1819 4666 
L 2450 4666 
L 2450 531 
L 3481 531 
L 3481 0 
L 794 0 
L 794 531 
z
" transform="scale(0.015625)"/>
        <path id="DejaVuSans-30" d="M 2034 4250 
Q 1547 4250 1301 3770 
Q 1056 3291 1056 2328 
Q 1056 1369 1301 889 
Q 1547 409 2034 409 
Q 2525 409 2770 889 
Q 3016 1369 3016 2328 
Q 3016 3291 2770 3770 
Q 2525 4250 2034 4250 
z
M 2034 4750 
Q 2819 4750 3233 4129 
Q 3647 3509 3647 2328 
Q 3647 1150 3233 529 
Q 2819 -91 2034 -91 
Q 1250 -91 836 529 
Q 422 1150 422 2328 
Q 422 3509 836 4129 
Q 1250 4750 2034 4750 
z
" transform="scale(0.015625)"/>
       </defs>
       <use xlink:href="#DejaVuSans-2212"/>
       <use xlink:href="#DejaVuSans-31" x="83.789062"/>
       <use xlink:href="#DejaVuSans-30" x="147.412109"/>
       <use xlink:href="#DejaVuSans-30" x="211.035156"/>
       <use xlink:href="#DejaVuSans-30" x="274.658203"/>
       <use xlink:href="#DejaVuSans-30" x="338.28125"/>
       <use xlink:href="#DejaVuSans-30" x="401.904297"/>
      </g>
     </g>
    </g>
    <g id="xtick_2">
     <g id="line2d_3">
      <path d="M 168.770108 320.4 
L 168.770108 43.2 
" clip-path="url(#p973aae501f)" style="fill: none; stroke: #b0b0b0; stroke-width: 0.8; stroke-linecap: square"/>
     </g>
     <g id="line2d_4">
      <g>
       <use xlink:href="#m01851d718b" x="168.770108" y="320.4" style="stroke: #000000; stroke-width: 0.8"/>
      </g>
     </g>
     <g id="text_2">
      <!-- −50000 -->
      <g transform="translate(148.674014 334.998438) scale(0.1 -0.1)">
       <defs>
        <path id="DejaVuSans-35" d="M 691 4666 
L 3169 4666 
L 3169 4134 
L 1269 4134 
L 1269 2991 
Q 1406 3038 1543 3061 
Q 1681 3084 1819 3084 
Q 2600 3084 3056 2656 
Q 3513 2228 3513 1497 
Q 3513 744 3044 326 
Q 2575 -91 1722 -91 
Q 1428 -91 1123 -41 
Q 819 9 494 109 
L 494 744 
Q 775 591 1075 516 
Q 1375 441 1709 441 
Q 2250 441 2565 725 
Q 2881 1009 2881 1497 
Q 2881 1984 2565 2268 
Q 2250 2553 1709 2553 
Q 1456 2553 1204 2497 
Q 953 2441 691 2322 
L 691 4666 
z
" transform="scale(0.015625)"/>
       </defs>
       <use xlink:href="#DejaVuSans-2212"/>
       <use xlink:href="#DejaVuSans-35" x="83.789062"/>
       <use xlink:href="#DejaVuSans-30" x="147.412109"/>
       <use xlink:href="#DejaVuSans-30" x="211.035156"/>
       <use xlink:href="#DejaVuSans-30" x="274.658203"/>
       <use xlink:href="#DejaVuSans-30" x="338.28125"/>
      </g>
     </g>
    </g>
    <g id="xtick_3">
     <g id="line2d_5">
      <path d="M 243.896377 320.4 
L 243.896377 43.2 
" clip-path="url(#p973aae501f)" style="fill: none; stroke: #b0b0b0; stroke-width: 0.8; stroke-linecap: square"/>
     </g>
     <g id="line2d_6">
      <g>
       <use xlink:href="#m01851d718b" x="243.896377" y="320.4" style="stroke: #000000; stroke-width: 0.8"/>
      </g>
     </g>
     <g id="text_3">
      <!-- 0 -->
      <g transform="translate(240.715127 334.998438) scale(0.1 -0.1)">
       <use xlink:href="#DejaVuSans-30"/>
      </g>
     </g>
    </g>
    <g id="xtick_4">
     <g id="line2d_7">
      <path d="M 319.022646 320.4 
L 319.022646 43.2 
" clip-path="url(#p973aae501f)" style="fill: none; stroke: #b0b0b0; stroke-width: 0.8; stroke-linecap: square"/>
     </g>
     <g id="line2d_8">
      <g>
       <use xlink:href="#m01851d718b" x="319.022646" y="320.4" style="stroke: #000000; stroke-width: 0.8"/>
      </g>
     </g>
     <g id="text_4">
      <!-- 50000 -->
      <g transform="translate(303.116396 334.998438) scale(0.1 -0.1)">
       <use xlink:href="#DejaVuSans-35"/>
       <use xlink:href="#DejaVuSans-30" x="63.623047"/>
       <use xlink:href="#DejaVuSans-30" x="127.246094"/>
       <use xlink:href="#DejaVuSans-30" x="190.869141"/>
       <use xlink:href="#DejaVuSans-30" x="254.492188"/>
      </g>
     </g>
    </g>
    <g id="xtick_5">
     <g id="line2d_9">
      <path d="M 394.148915 320.4 
L 394.148915 43.2 
" clip-path="url(#p973aae501f)" style="fill: none; stroke: #b0b0b0; stroke-width: 0.8; stroke-linecap: square"/>
     </g>
     <g id="line2d_10">
      <g>
       <use xlink:href="#m01851d718b" x="394.148915" y="320.4" style="stroke: #000000; stroke-width: 0.8"/>
      </g>
     </g>
     <g id="text_5">
      <!-- 100000 -->
      <g transform="translate(375.061415 334.998438) scale(0.1 -0.1)">
       <use xlink:href="#DejaVuSans-31"/>
       <use xlink:href="#DejaVuSans-30" x="63.623047"/>
       <use xlink:href="#DejaVuSans-30" x="127.246094"/>
       <use xlink:href="#DejaVuSans-30" x="190.869141"/>
       <use xlink:href="#DejaVuSans-30" x="254.492188"/>
       <use xlink:href="#DejaVuSans-30" x="318.115234"/>
      </g>
     </g>
    </g>
    <g id="xtick_6">
     <g id="line2d_11">
      <path d="M 469.275184 320.4 
L 469.275184 43.2 
" clip-path="url(#p973aae501f)" style="fill: none; stroke: #b0b0b0; stroke-width: 0.8; stroke-linecap: square"/>
     </g>
     <g id="line2d_12">
      <g>
       <use xlink:href="#m01851d718b" x="469.275184" y="320.4" style="stroke: #000000; stroke-width: 0.8"/>
      </g>
     </g>
     <g id="text_6">
      <!-- 150000 -->
      <g transform="translate(450.187684 334.998438) scale(0.1 -0.1)">
       <use xlink:href="#DejaVuSans-31"/>
       <use xlink:href="#DejaVuSans-35" x="63.623047"/>
       <use xlink:href="#DejaVuSans-30" x="127.246094"/>
       <use xlink:href="#DejaVuSans-30" x="190.869141"/>
       <use xlink:href="#DejaVuSans-30" x="254.492188"/>
       <use xlink:href="#DejaVuSans-30" x="318.115234"/>
      </g>
     </g>
    </g>
    <g id="text_7">
     <!-- $Z(X_1,X_2)$ -->
     <g transform="translate(273.7 348.676562) scale(0.1 -0.1)">
      <defs>
       <path id="DejaVuSans-Oblique-5a" d="M 838 4666 
L 4500 4666 
L 4409 4184 
L 794 531 
L 3769 531 
L 3669 0 
L -141 0 
L -50 481 
L 3566 4134 
L 738 4134 
L 838 4666 
z
" transform="scale(0.015625)"/>
       <path id="DejaVuSans-28" d="M 1984 4856 
Q 1566 4138 1362 3434 
Q 1159 2731 1159 2009 
Q 1159 1288 1364 580 
Q 1569 -128 1984 -844 
L 1484 -844 
Q 1016 -109 783 600 
Q 550 1309 550 2009 
Q 550 2706 781 3412 
Q 1013 4119 1484 4856 
L 1984 4856 
z
" transform="scale(0.015625)"/>
       <path id="DejaVuSans-Oblique-58" d="M 878 4666 
L 1516 4666 
L 2316 2981 
L 3763 4666 
L 4500 4666 
L 2578 2438 
L 3738 0 
L 3103 0 
L 2163 1966 
L 459 0 
L -275 0 
L 1906 2509 
L 878 4666 
z
" transform="scale(0.015625)"/>
       <path id="DejaVuSans-2c" d="M 750 794 
L 1409 794 
L 1409 256 
L 897 -744 
L 494 -744 
L 750 256 
L 750 794 
z
" transform="scale(0.015625)"/>
       <path id="DejaVuSans-32" d="M 1228 531 
L 3431 531 
L 3431 0 
L 469 0 
L 469 531 
Q 828 903 1448 1529 
Q 2069 2156 2228 2338 
Q 2531 2678 2651 2914 
Q 2772 3150 2772 3378 
Q 2772 3750 2511 3984 
Q 2250 4219 1831 4219 
Q 1534 4219 1204 4116 
Q 875 4013 500 3803 
L 500 4441 
Q 881 4594 1212 4672 
Q 1544 4750 1819 4750 
Q 2544 4750 2975 4387 
Q 3406 4025 3406 3419 
Q 3406 3131 3298 2873 
Q 3191 2616 2906 2266 
Q 2828 2175 2409 1742 
Q 1991 1309 1228 531 
z
" transform="scale(0.015625)"/>
       <path id="DejaVuSans-29" d="M 513 4856 
L 1013 4856 
Q 1481 4119 1714 3412 
Q 1947 2706 1947 2009 
Q 1947 1309 1714 600 
Q 1481 -109 1013 -844 
L 513 -844 
Q 928 -128 1133 580 
Q 1338 1288 1338 2009 
Q 1338 2731 1133 3434 
Q 928 4138 513 4856 
z
" transform="scale(0.015625)"/>
      </defs>
      <use xlink:href="#DejaVuSans-Oblique-5a" transform="translate(0 0.125)"/>
      <use xlink:href="#DejaVuSans-28" transform="translate(68.505859 0.125)"/>
      <use xlink:href="#DejaVuSans-Oblique-58" transform="translate(107.519531 0.125)"/>
      <use xlink:href="#DejaVuSans-31" transform="translate(176.025391 -16.28125) scale(0.7)"/>
      <use xlink:href="#DejaVuSans-2c" transform="translate(223.295898 0.125)"/>
      <use xlink:href="#DejaVuSans-Oblique-58" transform="translate(274.56543 0.125)"/>
      <use xlink:href="#DejaVuSans-32" transform="translate(343.071289 -16.28125) scale(0.7)"/>
      <use xlink:href="#DejaVuSans-29" transform="translate(390.341797 0.125)"/>
     </g>
    </g>
   </g>
   <g id="matplotlib.axis_2">
    <g id="ytick_1">
     <g id="line2d_13">
      <path d="M 72 285.994397 
L 518.4 285.994397 
" clip-path="url(#p973aae501f)" style="fill: none; stroke: #b0b0b0; stroke-width: 0.8; stroke-linecap: square"/>
     </g>
     <g id="line2d_14">
      <defs>
       <path id="m8e040fbc5c" d="M 0 0 
L -3.5 0 
" style="stroke: #000000; stroke-width: 0.8"/>
      </defs>
      <g>
       <use xlink:href="#m8e040fbc5c" x="72" y="285.994397" style="stroke: #000000; stroke-width: 0.8"/>
      </g>
     </g>
     <g id="text_8">
      <!-- $\mathdefault{10^{-5}}$ -->
      <g transform="translate(41.5 289.793616) scale(0.1 -0.1)">
       <use xlink:href="#DejaVuSans-31" transform="translate(0 0.684375)"/>
       <use xlink:href="#DejaVuSans-30" transform="translate(63.623047 0.684375)"/>
       <use xlink:href="#DejaVuSans-2212" transform="translate(128.203125 38.965625) scale(0.7)"/>
       <use xlink:href="#DejaVuSans-35" transform="translate(186.855469 38.965625) scale(0.7)"/>
      </g>
     </g>
    </g>
    <g id="ytick_2">
     <g id="line2d_15">
      <path d="M 72 239.955504 
L 518.4 239.955504 
" clip-path="url(#p973aae501f)" style="fill: none; stroke: #b0b0b0; stroke-width: 0.8; stroke-linecap: square"/>
     </g>
     <g id="line2d_16">
      <g>
       <use xlink:href="#m8e040fbc5c" x="72" y="239.955504" style="stroke: #000000; stroke-width: 0.8"/>
      </g>
     </g>
     <g id="text_9">
      <!-- $\mathdefault{10^{-4}}$ -->
      <g transform="translate(41.5 243.754723) scale(0.1 -0.1)">
       <defs>
        <path id="DejaVuSans-34" d="M 2419 4116 
L 825 1625 
L 2419 1625 
L 2419 4116 
z
M 2253 4666 
L 3047 4666 
L 3047 1625 
L 3713 1625 
L 3713 1100 
L 3047 1100 
L 3047 0 
L 2419 0 
L 2419 1100 
L 313 1100 
L 313 1709 
L 2253 4666 
z
" transform="scale(0.015625)"/>
       </defs>
       <use xlink:href="#DejaVuSans-31" transform="translate(0 0.684375)"/>
       <use xlink:href="#DejaVuSans-30" transform="translate(63.623047 0.684375)"/>
       <use xlink:href="#DejaVuSans-2212" transform="translate(128.203125 38.965625) scale(0.7)"/>
       <use xlink:href="#DejaVuSans-34" transform="translate(186.855469 38.965625) scale(0.7)"/>
      </g>
     </g>
    </g>
    <g id="ytick_3">
     <g id="line2d_17">
      <path d="M 72 193.916611 
L 518.4 193.916611 
" clip-path="url(#p973aae501f)" style="fill: none; stroke: #b0b0b0; stroke-width: 0.8; stroke-linecap: square"/>
     </g>
     <g id="line2d_18">
      <g>
       <use xlink:href="#m8e040fbc5c" x="72" y="193.916611" style="stroke: #000000; stroke-width: 0.8"/>
      </g>
     </g>
     <g id="text_10">
      <!-- $\mathdefault{10^{-3}}$ -->
      <g transform="translate(41.5 197.71583) scale(0.1 -0.1)">
       <defs>
        <path id="DejaVuSans-33" d="M 2597 2516 
Q 3050 2419 3304 2112 
Q 3559 1806 3559 1356 
Q 3559 666 3084 287 
Q 2609 -91 1734 -91 
Q 1441 -91 1130 -33 
Q 819 25 488 141 
L 488 750 
Q 750 597 1062 519 
Q 1375 441 1716 441 
Q 2309 441 2620 675 
Q 2931 909 2931 1356 
Q 2931 1769 2642 2001 
Q 2353 2234 1838 2234 
L 1294 2234 
L 1294 2753 
L 1863 2753 
Q 2328 2753 2575 2939 
Q 2822 3125 2822 3475 
Q 2822 3834 2567 4026 
Q 2313 4219 1838 4219 
Q 1578 4219 1281 4162 
Q 984 4106 628 3988 
L 628 4550 
Q 988 4650 1302 4700 
Q 1616 4750 1894 4750 
Q 2613 4750 3031 4423 
Q 3450 4097 3450 3541 
Q 3450 3153 3228 2886 
Q 3006 2619 2597 2516 
z
" transform="scale(0.015625)"/>
       </defs>
       <use xlink:href="#DejaVuSans-31" transform="translate(0 0.765625)"/>
       <use xlink:href="#DejaVuSans-30" transform="translate(63.623047 0.765625)"/>
       <use xlink:href="#DejaVuSans-2212" transform="translate(128.203125 39.046875) scale(0.7)"/>
       <use xlink:href="#DejaVuSans-33" transform="translate(186.855469 39.046875) scale(0.7)"/>
      </g>
     </g>
    </g>
    <g id="ytick_4">
     <g id="line2d_19">
      <path d="M 72 147.877719 
L 518.4 147.877719 
" clip-path="url(#p973aae501f)" style="fill: none; stroke: #b0b0b0; stroke-width: 0.8; stroke-linecap: square"/>
     </g>
     <g id="line2d_20">
      <g>
       <use xlink:href="#m8e040fbc5c" x="72" y="147.877719" style="stroke: #000000; stroke-width: 0.8"/>
      </g>
     </g>
     <g id="text_11">
      <!-- $\mathdefault{10^{-2}}$ -->
      <g transform="translate(41.5 151.676937) scale(0.1 -0.1)">
       <use xlink:href="#DejaVuSans-31" transform="translate(0 0.765625)"/>
       <use xlink:href="#DejaVuSans-30" transform="translate(63.623047 0.765625)"/>
       <use xlink:href="#DejaVuSans-2212" transform="translate(128.203125 39.046875) scale(0.7)"/>
       <use xlink:href="#DejaVuSans-32" transform="translate(186.855469 39.046875) scale(0.7)"/>
      </g>
     </g>
    </g>
    <g id="ytick_5">
     <g id="line2d_21">
      <path d="M 72 101.838826 
L 518.4 101.838826 
" clip-path="url(#p973aae501f)" style="fill: none; stroke: #b0b0b0; stroke-width: 0.8; stroke-linecap: square"/>
     </g>
     <g id="line2d_22">
      <g>
       <use xlink:href="#m8e040fbc5c" x="72" y="101.838826" style="stroke: #000000; stroke-width: 0.8"/>
      </g>
     </g>
     <g id="text_12">
      <!-- $\mathdefault{10^{-1}}$ -->
      <g transform="translate(41.5 105.638044) scale(0.1 -0.1)">
       <use xlink:href="#DejaVuSans-31" transform="translate(0 0.684375)"/>
       <use xlink:href="#DejaVuSans-30" transform="translate(63.623047 0.684375)"/>
       <use xlink:href="#DejaVuSans-2212" transform="translate(128.203125 38.965625) scale(0.7)"/>
       <use xlink:href="#DejaVuSans-31" transform="translate(186.855469 38.965625) scale(0.7)"/>
      </g>
     </g>
    </g>
    <g id="ytick_6">
     <g id="line2d_23">
      <path d="M 72 55.799933 
L 518.4 55.799933 
" clip-path="url(#p973aae501f)" style="fill: none; stroke: #b0b0b0; stroke-width: 0.8; stroke-linecap: square"/>
     </g>
     <g id="line2d_24">
      <g>
       <use xlink:href="#m8e040fbc5c" x="72" y="55.799933" style="stroke: #000000; stroke-width: 0.8"/>
      </g>
     </g>
     <g id="text_13">
      <!-- $\mathdefault{10^{0}}$ -->
      <g transform="translate(47.4 59.599152) scale(0.1 -0.1)">
       <use xlink:href="#DejaVuSans-31" transform="translate(0 0.765625)"/>
       <use xlink:href="#DejaVuSans-30" transform="translate(63.623047 0.765625)"/>
       <use xlink:href="#DejaVuSans-30" transform="translate(128.203125 39.046875) scale(0.7)"/>
      </g>
     </g>
    </g>
    <g id="ytick_7">
     <g id="line2d_25">
      <defs>
       <path id="m363b8fcdb5" d="M 0 0 
L -2 0 
" style="stroke: #000000; stroke-width: 0.6"/>
      </defs>
      <g>
       <use xlink:href="#m363b8fcdb5" x="72" y="318.174202" style="stroke: #000000; stroke-width: 0.6"/>
      </g>
     </g>
    </g>
    <g id="ytick_8">
     <g id="line2d_26">
      <g>
       <use xlink:href="#m363b8fcdb5" x="72" y="310.067156" style="stroke: #000000; stroke-width: 0.6"/>
      </g>
     </g>
    </g>
    <g id="ytick_9">
     <g id="line2d_27">
      <g>
       <use xlink:href="#m363b8fcdb5" x="72" y="304.315115" style="stroke: #000000; stroke-width: 0.6"/>
      </g>
     </g>
    </g>
    <g id="ytick_10">
     <g id="line2d_28">
      <g>
       <use xlink:href="#m363b8fcdb5" x="72" y="299.853485" style="stroke: #000000; stroke-width: 0.6"/>
      </g>
     </g>
    </g>
    <g id="ytick_11">
     <g id="line2d_29">
      <g>
       <use xlink:href="#m363b8fcdb5" x="72" y="296.208068" style="stroke: #000000; stroke-width: 0.6"/>
      </g>
     </g>
    </g>
    <g id="ytick_12">
     <g id="line2d_30">
      <g>
       <use xlink:href="#m363b8fcdb5" x="72" y="293.125912" style="stroke: #000000; stroke-width: 0.6"/>
      </g>
     </g>
    </g>
    <g id="ytick_13">
     <g id="line2d_31">
      <g>
       <use xlink:href="#m363b8fcdb5" x="72" y="290.456027" style="stroke: #000000; stroke-width: 0.6"/>
      </g>
     </g>
    </g>
    <g id="ytick_14">
     <g id="line2d_32">
      <g>
       <use xlink:href="#m363b8fcdb5" x="72" y="288.101021" style="stroke: #000000; stroke-width: 0.6"/>
      </g>
     </g>
    </g>
    <g id="ytick_15">
     <g id="line2d_33">
      <g>
       <use xlink:href="#m363b8fcdb5" x="72" y="272.13531" style="stroke: #000000; stroke-width: 0.6"/>
      </g>
     </g>
    </g>
    <g id="ytick_16">
     <g id="line2d_34">
      <g>
       <use xlink:href="#m363b8fcdb5" x="72" y="264.028263" style="stroke: #000000; stroke-width: 0.6"/>
      </g>
     </g>
    </g>
    <g id="ytick_17">
     <g id="line2d_35">
      <g>
       <use xlink:href="#m363b8fcdb5" x="72" y="258.276222" style="stroke: #000000; stroke-width: 0.6"/>
      </g>
     </g>
    </g>
    <g id="ytick_18">
     <g id="line2d_36">
      <g>
       <use xlink:href="#m363b8fcdb5" x="72" y="253.814592" style="stroke: #000000; stroke-width: 0.6"/>
      </g>
     </g>
    </g>
    <g id="ytick_19">
     <g id="line2d_37">
      <g>
       <use xlink:href="#m363b8fcdb5" x="72" y="250.169175" style="stroke: #000000; stroke-width: 0.6"/>
      </g>
     </g>
    </g>
    <g id="ytick_20">
     <g id="line2d_38">
      <g>
       <use xlink:href="#m363b8fcdb5" x="72" y="247.087019" style="stroke: #000000; stroke-width: 0.6"/>
      </g>
     </g>
    </g>
    <g id="ytick_21">
     <g id="line2d_39">
      <g>
       <use xlink:href="#m363b8fcdb5" x="72" y="244.417134" style="stroke: #000000; stroke-width: 0.6"/>
      </g>
     </g>
    </g>
    <g id="ytick_22">
     <g id="line2d_40">
      <g>
       <use xlink:href="#m363b8fcdb5" x="72" y="242.062129" style="stroke: #000000; stroke-width: 0.6"/>
      </g>
     </g>
    </g>
    <g id="ytick_23">
     <g id="line2d_41">
      <g>
       <use xlink:href="#m363b8fcdb5" x="72" y="226.096417" style="stroke: #000000; stroke-width: 0.6"/>
      </g>
     </g>
    </g>
    <g id="ytick_24">
     <g id="line2d_42">
      <g>
       <use xlink:href="#m363b8fcdb5" x="72" y="217.98937" style="stroke: #000000; stroke-width: 0.6"/>
      </g>
     </g>
    </g>
    <g id="ytick_25">
     <g id="line2d_43">
      <g>
       <use xlink:href="#m363b8fcdb5" x="72" y="212.237329" style="stroke: #000000; stroke-width: 0.6"/>
      </g>
     </g>
    </g>
    <g id="ytick_26">
     <g id="line2d_44">
      <g>
       <use xlink:href="#m363b8fcdb5" x="72" y="207.775699" style="stroke: #000000; stroke-width: 0.6"/>
      </g>
     </g>
    </g>
    <g id="ytick_27">
     <g id="line2d_45">
      <g>
       <use xlink:href="#m363b8fcdb5" x="72" y="204.130282" style="stroke: #000000; stroke-width: 0.6"/>
      </g>
     </g>
    </g>
    <g id="ytick_28">
     <g id="line2d_46">
      <g>
       <use xlink:href="#m363b8fcdb5" x="72" y="201.048126" style="stroke: #000000; stroke-width: 0.6"/>
      </g>
     </g>
    </g>
    <g id="ytick_29">
     <g id="line2d_47">
      <g>
       <use xlink:href="#m363b8fcdb5" x="72" y="198.378241" style="stroke: #000000; stroke-width: 0.6"/>
      </g>
     </g>
    </g>
    <g id="ytick_30">
     <g id="line2d_48">
      <g>
       <use xlink:href="#m363b8fcdb5" x="72" y="196.023236" style="stroke: #000000; stroke-width: 0.6"/>
      </g>
     </g>
    </g>
    <g id="ytick_31">
     <g id="line2d_49">
      <g>
       <use xlink:href="#m363b8fcdb5" x="72" y="180.057524" style="stroke: #000000; stroke-width: 0.6"/>
      </g>
     </g>
    </g>
    <g id="ytick_32">
     <g id="line2d_50">
      <g>
       <use xlink:href="#m363b8fcdb5" x="72" y="171.950477" style="stroke: #000000; stroke-width: 0.6"/>
      </g>
     </g>
    </g>
    <g id="ytick_33">
     <g id="line2d_51">
      <g>
       <use xlink:href="#m363b8fcdb5" x="72" y="166.198436" style="stroke: #000000; stroke-width: 0.6"/>
      </g>
     </g>
    </g>
    <g id="ytick_34">
     <g id="line2d_52">
      <g>
       <use xlink:href="#m363b8fcdb5" x="72" y="161.736806" style="stroke: #000000; stroke-width: 0.6"/>
      </g>
     </g>
    </g>
    <g id="ytick_35">
     <g id="line2d_53">
      <g>
       <use xlink:href="#m363b8fcdb5" x="72" y="158.091389" style="stroke: #000000; stroke-width: 0.6"/>
      </g>
     </g>
    </g>
    <g id="ytick_36">
     <g id="line2d_54">
      <g>
       <use xlink:href="#m363b8fcdb5" x="72" y="155.009233" style="stroke: #000000; stroke-width: 0.6"/>
      </g>
     </g>
    </g>
    <g id="ytick_37">
     <g id="line2d_55">
      <g>
       <use xlink:href="#m363b8fcdb5" x="72" y="152.339348" style="stroke: #000000; stroke-width: 0.6"/>
      </g>
     </g>
    </g>
    <g id="ytick_38">
     <g id="line2d_56">
      <g>
       <use xlink:href="#m363b8fcdb5" x="72" y="149.984343" style="stroke: #000000; stroke-width: 0.6"/>
      </g>
     </g>
    </g>
    <g id="ytick_39">
     <g id="line2d_57">
      <g>
       <use xlink:href="#m363b8fcdb5" x="72" y="134.018631" style="stroke: #000000; stroke-width: 0.6"/>
      </g>
     </g>
    </g>
    <g id="ytick_40">
     <g id="line2d_58">
      <g>
       <use xlink:href="#m363b8fcdb5" x="72" y="125.911584" style="stroke: #000000; stroke-width: 0.6"/>
      </g>
     </g>
    </g>
    <g id="ytick_41">
     <g id="line2d_59">
      <g>
       <use xlink:href="#m363b8fcdb5" x="72" y="120.159543" style="stroke: #000000; stroke-width: 0.6"/>
      </g>
     </g>
    </g>
    <g id="ytick_42">
     <g id="line2d_60">
      <g>
       <use xlink:href="#m363b8fcdb5" x="72" y="115.697913" style="stroke: #000000; stroke-width: 0.6"/>
      </g>
     </g>
    </g>
    <g id="ytick_43">
     <g id="line2d_61">
      <g>
       <use xlink:href="#m363b8fcdb5" x="72" y="112.052497" style="stroke: #000000; stroke-width: 0.6"/>
      </g>
     </g>
    </g>
    <g id="ytick_44">
     <g id="line2d_62">
      <g>
       <use xlink:href="#m363b8fcdb5" x="72" y="108.97034" style="stroke: #000000; stroke-width: 0.6"/>
      </g>
     </g>
    </g>
    <g id="ytick_45">
     <g id="line2d_63">
      <g>
       <use xlink:href="#m363b8fcdb5" x="72" y="106.300455" style="stroke: #000000; stroke-width: 0.6"/>
      </g>
     </g>
    </g>
    <g id="ytick_46">
     <g id="line2d_64">
      <g>
       <use xlink:href="#m363b8fcdb5" x="72" y="103.94545" style="stroke: #000000; stroke-width: 0.6"/>
      </g>
     </g>
    </g>
    <g id="ytick_47">
     <g id="line2d_65">
      <g>
       <use xlink:href="#m363b8fcdb5" x="72" y="87.979738" style="stroke: #000000; stroke-width: 0.6"/>
      </g>
     </g>
    </g>
    <g id="ytick_48">
     <g id="line2d_66">
      <g>
       <use xlink:href="#m363b8fcdb5" x="72" y="79.872691" style="stroke: #000000; stroke-width: 0.6"/>
      </g>
     </g>
    </g>
    <g id="ytick_49">
     <g id="line2d_67">
      <g>
       <use xlink:href="#m363b8fcdb5" x="72" y="74.12065" style="stroke: #000000; stroke-width: 0.6"/>
      </g>
     </g>
    </g>
    <g id="ytick_50">
     <g id="line2d_68">
      <g>
       <use xlink:href="#m363b8fcdb5" x="72" y="69.659021" style="stroke: #000000; stroke-width: 0.6"/>
      </g>
     </g>
    </g>
    <g id="ytick_51">
     <g id="line2d_69">
      <g>
       <use xlink:href="#m363b8fcdb5" x="72" y="66.013604" style="stroke: #000000; stroke-width: 0.6"/>
      </g>
     </g>
    </g>
    <g id="ytick_52">
     <g id="line2d_70">
      <g>
       <use xlink:href="#m363b8fcdb5" x="72" y="62.931448" style="stroke: #000000; stroke-width: 0.6"/>
      </g>
     </g>
    </g>
    <g id="ytick_53">
     <g id="line2d_71">
      <g>
       <use xlink:href="#m363b8fcdb5" x="72" y="60.261563" style="stroke: #000000; stroke-width: 0.6"/>
      </g>
     </g>
    </g>
    <g id="ytick_54">
     <g id="line2d_72">
      <g>
       <use xlink:href="#m363b8fcdb5" x="72" y="57.906557" style="stroke: #000000; stroke-width: 0.6"/>
      </g>
     </g>
    </g>
    <g id="text_14">
     <!-- CDF, $\mathrm{P}[Z &lt; z]$ -->
     <g transform="translate(35.420312 214.3) rotate(-90) scale(0.1 -0.1)">
      <defs>
       <path id="DejaVuSans-43" d="M 4122 4306 
L 4122 3641 
Q 3803 3938 3442 4084 
Q 3081 4231 2675 4231 
Q 1875 4231 1450 3742 
Q 1025 3253 1025 2328 
Q 1025 1406 1450 917 
Q 1875 428 2675 428 
Q 3081 428 3442 575 
Q 3803 722 4122 1019 
L 4122 359 
Q 3791 134 3420 21 
Q 3050 -91 2638 -91 
Q 1578 -91 968 557 
Q 359 1206 359 2328 
Q 359 3453 968 4101 
Q 1578 4750 2638 4750 
Q 3056 4750 3426 4639 
Q 3797 4528 4122 4306 
z
" transform="scale(0.015625)"/>
       <path id="DejaVuSans-44" d="M 1259 4147 
L 1259 519 
L 2022 519 
Q 2988 519 3436 956 
Q 3884 1394 3884 2338 
Q 3884 3275 3436 3711 
Q 2988 4147 2022 4147 
L 1259 4147 
z
M 628 4666 
L 1925 4666 
Q 3281 4666 3915 4102 
Q 4550 3538 4550 2338 
Q 4550 1131 3912 565 
Q 3275 0 1925 0 
L 628 0 
L 628 4666 
z
" transform="scale(0.015625)"/>
       <path id="DejaVuSans-46" d="M 628 4666 
L 3309 4666 
L 3309 4134 
L 1259 4134 
L 1259 2759 
L 3109 2759 
L 3109 2228 
L 1259 2228 
L 1259 0 
L 628 0 
L 628 4666 
z
" transform="scale(0.015625)"/>
       <path id="DejaVuSans-20" transform="scale(0.015625)"/>
       <path id="DejaVuSans-50" d="M 1259 4147 
L 1259 2394 
L 2053 2394 
Q 2494 2394 2734 2622 
Q 2975 2850 2975 3272 
Q 2975 3691 2734 3919 
Q 2494 4147 2053 4147 
L 1259 4147 
z
M 628 4666 
L 2053 4666 
Q 2838 4666 3239 4311 
Q 3641 3956 3641 3272 
Q 3641 2581 3239 2228 
Q 2838 1875 2053 1875 
L 1259 1875 
L 1259 0 
L 628 0 
L 628 4666 
z
" transform="scale(0.015625)"/>
       <path id="DejaVuSans-5b" d="M 550 4863 
L 1875 4863 
L 1875 4416 
L 1125 4416 
L 1125 -397 
L 1875 -397 
L 1875 -844 
L 550 -844 
L 550 4863 
z
" transform="scale(0.015625)"/>
       <path id="DejaVuSans-3c" d="M 4684 3150 
L 1459 2003 
L 4684 863 
L 4684 294 
L 678 1747 
L 678 2266 
L 4684 3719 
L 4684 3150 
z
" transform="scale(0.015625)"/>
       <path id="DejaVuSans-Oblique-7a" d="M 744 3500 
L 3475 3500 
L 3372 2975 
L 738 459 
L 2913 459 
L 2822 0 
L -19 0 
L 84 525 
L 2719 3041 
L 653 3041 
L 744 3500 
z
" transform="scale(0.015625)"/>
       <path id="DejaVuSans-5d" d="M 1947 4863 
L 1947 -844 
L 622 -844 
L 622 -397 
L 1369 -397 
L 1369 4416 
L 622 4416 
L 622 4863 
L 1947 4863 
z
" transform="scale(0.015625)"/>
      </defs>
      <use xlink:href="#DejaVuSans-43" transform="translate(0 0.015625)"/>
      <use xlink:href="#DejaVuSans-44" transform="translate(69.824219 0.015625)"/>
      <use xlink:href="#DejaVuSans-46" transform="translate(146.826172 0.015625)"/>
      <use xlink:href="#DejaVuSans-2c" transform="translate(204.345703 0.015625)"/>
      <use xlink:href="#DejaVuSans-20" transform="translate(236.132812 0.015625)"/>
      <use xlink:href="#DejaVuSans-50" transform="translate(267.919922 0.015625)"/>
      <use xlink:href="#DejaVuSans-5b" transform="translate(328.222656 0.015625)"/>
      <use xlink:href="#DejaVuSans-Oblique-5a" transform="translate(367.236328 0.015625)"/>
      <use xlink:href="#DejaVuSans-3c" transform="translate(455.224609 0.015625)"/>
      <use xlink:href="#DejaVuSans-Oblique-7a" transform="translate(558.496094 0.015625)"/>
      <use xlink:href="#DejaVuSans-5d" transform="translate(610.986328 0.015625)"/>
     </g>
    </g>
   </g>
   <g id="line2d_73">
    <path d="M 250.737375 215.728864 
L 250.737375 201.869777 
L 251.59682 201.869777 
L 251.59682 193.76273 
L 252.361605 193.76273 
L 252.361605 188.010689 
L 252.825885 188.010689 
L 252.825885 183.549059 
L 253.006188 183.549059 
L 253.006188 179.903642 
L 253.160948 179.903642 
L 253.160948 176.821486 
L 253.556113 176.821486 
L 253.556113 174.151601 
L 253.736416 174.151601 
L 253.805532 166.044555 
L 253.951277 166.044555 
L 254.011378 161.582925 
L 254.140595 161.582925 
L 254.226239 153.92521 
L 254.4411 153.92521 
L 254.501201 150.585058 
L 254.59586 150.585058 
L 254.690519 147.723837 
L 254.716062 147.723837 
L 254.810721 144.07842 
L 254.930923 144.07842 
L 254.974497 142.478011 
L 255.085683 142.478011 
L 255.145784 140.996264 
L 255.205885 140.996264 
L 255.30956 135.971374 
L 255.344118 135.971374 
L 255.369661 134.542592 
L 255.455305 134.542592 
L 255.515406 131.959076 
L 255.575507 131.959076 
L 255.575507 131.362183 
L 255.730267 131.362183 
L 255.790368 129.671506 
L 255.850469 129.671506 
L 255.945128 127.618994 
L 256.06533 127.618994 
L 256.169004 125.757703 
L 256.194547 125.757703 
L 256.280191 123.85203 
L 256.340292 123.85203 
L 256.434951 122.486025 
L 256.555153 122.486025 
L 256.649812 121.745405 
L 256.709913 121.745405 
L 256.770014 121.031242 
L 256.830115 121.031242 
L 256.924775 119.511947 
L 256.984876 119.511947 
L 256.984876 118.71525 
L 257.139636 118.71525 
L 257.208752 117.650656 
L 257.259838 117.650656 
L 257.354497 116.923506 
L 257.414598 116.923506 
L 257.474699 115.947974 
L 257.5348 115.947974 
L 257.629459 114.888418 
L 257.68956 114.888418 
L 257.749661 113.882196 
L 257.84432 113.882196 
L 257.904421 112.80761 
L 257.964522 112.80761 
L 258.059181 111.898615 
L 258.119282 111.898615 
L 258.119282 111.787842 
L 258.179383 111.350788 
L 258.377717 111.243001 
L 258.454345 110.09418 
L 258.583563 109.992942 
L 258.669206 109.007795 
L 258.738323 108.911898 
L 258.823967 108.532845 
L 258.884068 108.532845 
L 258.884068 108.439194 
L 258.953184 108.068916 
L 259.038828 107.977409 
L 259.098929 106.910786 
L 259.15903 106.910786 
L 259.15903 106.824417 
L 259.262704 106.230058 
L 259.271719 106.230058 
L 259.271719 106.146574 
L 259.373891 105.81608 
L 259.433992 105.81608 
L 259.433992 105.734303 
L 259.528651 105.250543 
L 259.588752 105.171042 
L 259.692426 104.856163 
L 259.743512 104.778212 
L 259.812628 103.940227 
L 259.863714 103.940227 
L 259.863714 103.86576 
L 259.958373 103.424688 
L 260.018474 103.352113 
L 260.122149 102.851331 
L 260.147691 102.780804 
L 260.233335 102.088886 
L 260.293436 102.020993 
L 260.353537 101.35445 
L 260.448197 101.289002 
L 260.508298 100.836766 
L 260.568399 100.836766 
L 260.568399 100.772988 
L 260.663058 100.332148 
L 260.792275 100.269957 
L 260.877919 100.023109 
L 260.972578 99.96187 
L 261.058222 99.658458 
L 261.127338 99.598325 
L 261.196454 99.359582 
L 261.291113 99.300339 
L 261.367742 99.00673 
L 261.522502 98.948522 
L 261.600634 98.432138 
L 261.642704 98.432138 
L 261.642704 98.375576 
L 261.702805 98.150917 
L 261.762906 98.150917 
L 261.762906 98.095145 
L 261.857565 97.600072 
L 261.917666 97.600072 
L 261.917666 97.4917 
L 261.977767 97.063996 
L 262.116 96.958484 
L 262.210659 96.697115 
L 262.287288 96.593517 
L 262.390962 96.133854 
L 262.40749 96.083427 
L 262.40749 96.033126 
L 262.502149 95.733952 
L 262.56225 95.684522 
L 262.56225 95.635214 
L 262.640381 95.439188 
L 262.691467 95.341892 
L 262.786126 95.005034 
L 262.846227 94.909822 
L 262.915343 94.673758 
L 262.957414 94.673758 
L 262.957414 94.580107 
L 263.061088 94.118321 
L 263.112174 94.118321 
L 263.112174 94.02723 
L 263.206833 93.71164 
L 263.266934 93.66696 
L 263.266934 93.622379 
L 263.361593 93.533515 
L 263.456252 93.445044 
L 263.559927 93.138442 
L 263.662098 93.051698 
L 263.756757 92.751024 
L 263.860432 92.708437 
L 263.860432 92.665941 
L 263.860432 92.623535 
L 264.03172 92.538992 
L 264.100836 92.370971 
L 264.195495 92.287486 
L 264.246581 92.121556 
L 264.306682 92.121556 
L 264.306682 92.039105 
L 264.401341 91.793771 
L 264.461442 91.753174 
L 264.461442 91.712658 
L 264.539573 91.272322 
L 264.676303 91.193293 
L 264.736404 90.841475 
L 264.796505 90.841475 
L 264.796505 90.764127 
L 264.891164 90.533863 
L 264.978311 90.457693 
L 265.071467 90.26853 
L 265.106025 90.26853 
L 265.106025 90.193363 
L 265.166126 89.969542 
L 265.286328 89.858564 
L 265.380987 89.5656 
L 265.441088 89.5656 
L 265.441088 89.456836 
L 265.501189 89.34866 
L 265.65595 89.276867 
L 265.65595 89.241067 
L 265.716051 89.169658 
L 265.854283 89.063021 
L 265.930912 88.781404 
L 266.069144 88.676812 
L 266.145773 88.229798 
L 266.300533 88.161906 
L 266.300533 88.128045 
L 266.360634 87.892616 
L 266.420735 87.825857 
L 266.420735 87.79256 
L 266.480836 87.693003 
L 266.635596 87.593938 
L 266.695697 87.332142 
L 266.790356 87.234845 
L 266.885015 86.977678 
L 266.910558 86.977678 
L 266.910558 86.882087 
L 267.005217 86.660803 
L 267.125419 86.598026 
L 267.125419 86.566711 
L 267.229094 86.256232 
L 267.34028 86.164021 
L 267.401884 85.950501 
L 267.495041 85.950501 
L 267.495041 85.859686 
L 267.573172 85.799371 
L 267.709902 85.709238 
L 267.770003 85.530182 
L 267.924763 85.470851 
L 267.924763 85.441252 
L 268.028437 85.20602 
L 268.105066 85.147642 
L 268.105066 85.118517 
L 268.20874 84.686655 
L 268.259826 84.658193 
L 268.259826 84.601391 
L 268.354485 84.460087 
L 268.432616 84.375781 
L 268.534788 84.097303 
L 268.629447 83.986988 
L 268.707579 83.795391 
L 268.784207 83.686725 
L 268.887882 83.417617 
L 268.956998 83.310979 
L 269.05917 83.020626 
L 269.119271 82.91608 
L 269.222945 82.605681 
L 269.299574 82.503277 
L 269.394233 82.224339 
L 269.609094 82.174038 
L 269.609094 82.123864 
L 269.703753 81.874864 
L 269.807427 81.776126 
L 269.884056 81.458554 
L 270.038816 81.361845 
L 270.116947 81.145946 
L 270.177048 81.050734 
L 270.237149 80.908762 
L 270.366367 80.81467 
L 270.470041 80.535023 
L 270.58874 80.44267 
L 270.683399 80.259233 
L 270.726973 80.168142 
L 270.803601 80.009725 
L 270.863702 79.964692 
L 270.863702 79.919761 
L 270.958362 79.71881 
L 271.078564 79.608037 
L 271.173223 79.497875 
L 271.327983 79.388316 
L 271.422642 79.19261 
L 271.500773 79.084707 
L 271.604448 78.743278 
L 271.672061 78.658824 
L 271.672061 78.637766 
L 271.775735 78.470097 
L 271.843349 78.386787 
L 271.843349 78.366013 
L 271.938008 78.200598 
L 271.998109 78.159458 
L 271.998109 78.097905 
L 272.07624 77.914375 
L 272.152869 77.813137 
L 272.249031 77.592201 
L 272.333172 77.512463 
L 272.333172 77.492578 
L 272.436847 77.275137 
L 272.575079 77.177077 
L 272.678753 77.021174 
L 272.720824 76.924349 
L 272.822996 76.712969 
L 272.866569 76.617621 
L 272.970243 76.484893 
L 273.037857 76.390624 
L 273.141531 76.166175 
L 273.201632 76.073393 
L 273.296291 75.889111 
L 273.356392 75.797603 
L 273.356392 75.779352 
L 273.460066 75.597748 
L 273.52768 75.489572 
L 273.623842 75.168513 
L 273.735028 75.062629 
L 273.8372 74.869952 
L 273.906316 74.765633 
L 274.000975 74.661855 
L 274.053564 74.558614 
L 274.112162 74.353716 
L 274.266922 74.268958 
L 274.266922 74.252049 
L 274.370597 74.150896 
L 274.447226 74.050253 
L 274.5509 73.867046 
L 274.662087 73.784322 
L 274.662087 73.767818 
L 274.765761 73.505592 
L 274.929536 73.408137 
L 275.031708 73.295037 
L 275.126367 73.1986 
L 275.221026 73.086676 
L 275.342731 72.991237 
L 275.419359 72.912051 
L 275.530546 72.833177 
L 275.530546 72.801715 
L 275.634221 72.754614 
L 275.694322 72.645141 
L 275.796493 72.489783 
L 275.865609 72.397144 
L 275.865609 72.381746 
L 275.969284 72.182643 
L 276.072958 72.076249 
L 276.167617 71.955345 
L 276.32989 71.85015 
L 276.433564 71.715708 
L 276.511695 71.611763 
L 276.613867 71.47891 
L 276.79417 71.390828 
L 276.79417 71.376186 
L 276.888829 71.317722 
L 277.078147 71.215821 
L 277.172807 71.071143 
L 277.309536 70.984836 
L 277.309536 70.970487 
L 277.39518 70.884613 
L 277.473312 70.78489 
L 277.558956 70.699807 
L 277.679158 70.600999 
L 277.773817 70.502677 
L 277.928577 70.404836 
L 278.006708 70.293601 
L 278.159966 70.182982 
L 278.26364 70.100417 
L 278.452958 69.990858 
L 278.556632 69.868318 
L 278.675332 69.76002 
L 278.779006 69.652305 
L 278.926254 69.545168 
L 279.028425 69.438602 
L 279.1321 69.332601 
L 279.201216 69.227158 
L 279.407062 69.122269 
L 279.501721 69.030941 
L 279.663994 68.927073 
L 279.749638 68.797993 
L 280.000559 68.695326 
L 280.068173 68.631425 
L 280.213918 68.529607 
L 280.31008 68.453583 
L 280.463337 68.352664 
L 280.567011 68.252253 
L 280.652655 68.152343 
L 280.738299 68.015777 
L 280.91109 67.90473 
L 280.996734 67.806538 
L 281.228123 67.696644 
L 281.331797 67.575245 
L 281.486557 67.466612 
L 281.581216 67.394517 
L 281.847163 67.286859 
L 281.899751 67.227298 
L 282.191241 67.132369 
L 282.191241 67.120534 
L 282.276885 67.014338 
L 282.613451 66.908702 
L 282.646507 66.861931 
L 282.853855 66.757096 
L 282.921469 66.664368 
L 283.059701 66.56056 
L 283.161873 66.400145 
L 283.351191 66.297697 
L 283.454865 66.207071 
L 283.644183 66.116853 
L 283.644183 66.105604 
L 283.720812 66.049456 
L 283.970231 65.948785 
L 284.073906 65.881951 
L 284.288767 65.771055 
L 284.392441 65.726868 
L 284.631343 65.616827 
L 284.718489 65.540157 
L 284.862731 65.431136 
L 284.958893 65.355173 
L 285.215825 65.247153 
L 285.319499 65.193361 
L 285.448716 65.08621 
L 285.552391 65.011544 
L 285.834865 64.90536 
L 285.903982 64.841919 
L 286.11133 64.736629 
L 286.213502 64.684192 
L 286.488464 64.579727 
L 286.592138 64.538094 
L 286.806999 64.434388 
L 286.909171 64.382736 
L 287.080459 64.279831 
L 287.167605 64.208111 
L 287.364436 64.106099 
L 287.45008 64.04514 
L 287.657429 63.943953 
L 287.725042 63.903622 
L 287.941406 63.793127 
L 288.043578 63.723129 
L 288.250926 63.613625 
L 288.344083 63.564048 
L 288.697176 63.455409 
L 288.791835 63.406222 
L 288.946595 63.30821 
L 288.946595 63.298435 
L 289.041255 63.210676 
L 289.230573 63.103935 
L 289.332744 63.045952 
L 289.711381 62.940085 
L 289.813553 62.834775 
L 290.020901 62.730017 
L 290.123073 62.701542 
L 290.261305 62.597478 
L 290.346949 62.550354 
L 290.570825 62.456439 
L 290.570825 62.447072 
L 290.6745 62.372292 
L 290.880346 62.279207 
L 290.880346 62.269923 
L 290.982517 62.214305 
L 291.16282 62.103533 
L 291.249967 62.039197 
L 291.455813 61.929388 
L 291.550472 61.883811 
L 291.772846 61.77485 
L 291.869007 61.729623 
L 292.211583 61.621496 
L 292.313755 61.567651 
L 292.513591 61.469311 
L 292.513591 61.460394 
L 292.60825 61.398093 
L 292.865182 61.291739 
L 292.943313 61.247591 
L 293.131129 61.142033 
L 293.225788 61.098215 
L 293.502252 60.99344 
L 293.604424 60.915218 
L 293.759184 60.820027 
L 293.759184 60.811395 
L 293.853843 60.742479 
L 294.068704 60.639547 
L 294.170876 60.579747 
L 294.429311 60.469163 
L 294.516457 60.392961 
L 294.780902 60.283402 
L 294.859033 60.166084 
L 295.099437 60.057757 
L 295.203111 59.983105 
L 295.478073 59.875763 
L 295.580245 59.818201 
L 295.85671 59.711739 
L 295.960384 59.662793 
L 296.251874 59.557152 
L 296.355548 59.492419 
L 296.466735 59.387673 
L 296.568907 59.30747 
L 296.836356 59.203686 
L 296.922 59.155966 
L 297.162404 59.045062 
L 297.257063 59.013488 
L 297.574096 58.903369 
L 297.67777 58.848536 
L 298.030864 58.739319 
L 298.116508 58.684933 
L 298.417013 58.576604 
L 298.520687 58.514964 
L 298.761091 58.407549 
L 298.846735 58.392251 
L 299.276457 58.300708 
L 299.276457 58.285492 
L 299.345574 58.255094 
L 299.817367 58.149062 
L 299.912026 58.118871 
L 300.341748 58.021061 
L 300.341748 58.013557 
L 300.428894 57.938672 
L 300.789501 57.834301 
L 300.831571 57.812006 
L 301.494185 57.700905 
L 301.570814 57.678759 
L 301.914892 57.575733 
L 301.914892 57.568394 
L 301.982506 57.546394 
L 302.714236 57.436755 
L 302.748794 57.414899 
L 303.134943 57.305977 
L 303.195044 57.291499 
L 303.693882 57.183245 
L 303.788541 57.154476 
L 304.17469 57.046959 
L 304.234791 57.011248 
L 304.828289 56.904497 
L 304.913933 56.86904 
L 305.523958 56.770092 
L 305.523958 56.763043 
L 305.609602 56.748953 
L 306.288743 56.650596 
L 306.288743 56.643589 
L 306.392418 56.622583 
L 306.916799 56.517882 
L 306.942342 56.497007 
L 307.73267 56.386042 
L 307.801786 56.358397 
L 308.652216 56.248196 
L 308.652216 56.241329 
L 309.520676 56.13177 
L 309.580777 56.118117 
L 310.67161 56.00923 
L 310.775284 55.988879 
L 313.009539 55.880691 
L 313.009539 55.873949 
L 317.547166 55.80665 
L 317.547166 55.80665 
" clip-path="url(#p973aae501f)" style="fill: none; stroke: #000000; stroke-width: 1.5; stroke-linecap: square"/>
   </g>
   <g id="line2d_74">
    <path d="M 92.290909 307.8 
L 92.290909 293.940912 
L 103.21907 293.940912 
L 103.21907 285.833866 
L 104.735728 285.833866 
L 104.735728 280.081825 
L 111.855191 280.081825 
L 111.855191 275.620195 
L 115.326204 275.620195 
L 115.326204 271.974778 
L 118.513556 271.974778 
L 118.513556 268.892622 
L 119.325002 268.892622 
L 119.325002 266.222737 
L 121.253784 266.222737 
L 121.253784 263.867731 
L 121.456861 263.867731 
L 121.456861 261.761107 
L 122.742091 261.761107 
L 122.742091 259.855434 
L 122.995666 259.855434 
L 122.995666 258.11569 
L 123.262275 258.11569 
L 123.33971 255.033534 
L 124.150845 255.033534 
L 124.150845 253.654061 
L 125.569608 253.654061 
L 125.569608 252.363649 
L 127.525237 252.363649 
L 127.525237 251.151494 
L 127.864201 251.151494 
L 127.864201 250.008644 
L 128.172667 250.008644 
L 128.172667 248.9276 
L 128.528911 248.9276 
L 128.528911 247.902019 
L 129.031198 247.902019 
L 129.031198 246.926488 
L 129.300134 246.926488 
L 129.300134 245.996346 
L 129.542097 245.996346 
L 129.542097 245.107558 
L 129.859289 245.107558 
L 129.859289 244.256602 
L 130.180865 244.256602 
L 130.180865 243.44039 
L 131.18542 243.44039 
L 131.18542 242.656194 
L 131.303128 242.656194 
L 131.303128 241.901597 
L 132.395721 241.901597 
L 132.500143 240.472815 
L 132.866491 240.472815 
L 132.866491 239.794973 
L 133.832389 239.794973 
L 133.938311 238.504561 
L 134.213696 238.504561 
L 134.213696 237.889299 
L 134.496085 237.889299 
L 134.496085 237.292406 
L 134.78267 237.292406 
L 134.835709 236.149556 
L 135.164627 236.149556 
L 135.199862 235.068512 
L 136.162492 235.068512 
L 136.263877 234.042932 
L 136.278665 234.042932 
L 136.278665 233.549217 
L 136.695759 233.549217 
L 136.730722 232.596921 
L 137.220364 232.596921 
L 137.220364 232.137258 
L 137.369262 232.137258 
L 137.400483 231.24847 
L 137.663066 231.24847 
L 137.663066 230.818466 
L 137.902918 230.818466 
L 137.992366 229.985244 
L 138.056786 229.985244 
L 138.109669 229.18536 
L 138.317653 229.18536 
L 138.332187 228.416248 
L 138.505932 228.416248 
L 138.614241 227.675629 
L 138.874293 227.675629 
L 138.874293 227.315359 
L 139.030347 227.315359 
L 139.092031 226.271934 
L 139.193 226.271934 
L 139.263882 225.280271 
L 139.426286 225.280271 
L 139.510253 224.335476 
L 139.611857 224.335476 
L 139.611857 224.030212 
L 139.792513 224.030212 
L 139.792513 223.729538 
L 139.965071 223.729538 
L 139.972115 223.141424 
L 140.373956 223.141424 
L 140.454006 222.290468 
L 140.566496 222.290468 
L 140.566496 222.014678 
L 140.880582 222.014678 
L 140.880582 221.742641 
L 141.030428 221.742641 
L 141.10681 221.209424 
L 141.231369 221.209424 
L 141.323949 220.43535 
L 141.55409 220.43535 
L 141.625974 219.935463 
L 142.237321 219.935463 
L 142.278354 219.447769 
L 142.412156 219.447769 
L 142.412156 219.208312 
L 142.706135 219.208312 
L 142.748327 218.737833 
L 142.852827 218.737833 
L 142.928131 218.052242 
L 142.971185 218.052242 
L 143.051418 217.607903 
L 143.109387 217.607903 
L 143.109387 217.389383 
L 143.338473 217.389383 
L 143.338473 217.173224 
L 143.560446 217.173224 
L 143.622945 216.126156 
L 143.881801 216.126156 
L 143.881801 215.923165 
L 144.094006 215.923165 
L 144.175496 215.326272 
L 144.322112 215.326272 
L 144.423725 214.746682 
L 144.743385 214.746682 
L 144.838281 214.183422 
L 144.881635 214.183422 
L 144.975521 213.816541 
L 145.035845 213.816541 
L 145.114826 212.75464 
L 145.169451 212.75464 
L 145.269226 211.910867 
L 145.334974 211.910867 
L 145.40157 211.583082 
L 145.618536 211.583082 
L 145.639432 211.101265 
L 145.816375 211.101265 
L 145.837351 210.786386 
L 146.091686 210.786386 
L 146.091686 210.630786 
L 146.212639 210.630786 
L 146.30535 210.171124 
L 146.353627 210.171124 
L 146.353627 210.020222 
L 146.510122 210.020222 
L 146.541011 209.721792 
L 146.733145 209.721792 
L 146.820148 209.137971 
L 146.871059 209.137971 
L 146.878276 208.852331 
L 146.98533 208.852331 
L 147.07465 208.29301 
L 147.107714 208.29301 
L 147.114409 208.019109 
L 147.296026 208.019109 
L 147.398919 207.615168 
L 147.452885 207.615168 
L 147.563473 207.350337 
L 147.612203 207.350337 
L 147.697485 206.959554 
L 147.781506 206.959554 
L 147.889292 206.20018 
L 147.914656 206.20018 
L 147.982413 205.953332 
L 148.087466 205.953332 
L 148.173951 205.468594 
L 148.269993 205.468594 
L 148.372136 205.230563 
L 148.403119 205.230563 
L 148.463052 204.878745 
L 148.525258 204.878745 
L 148.561682 204.419083 
L 148.658821 204.419083 
L 148.673787 204.193155 
L 148.971646 204.193155 
L 149.082109 203.530295 
L 149.13933 203.421924 
L 149.220875 203.10029 
L 149.506986 202.994219 
L 149.576101 202.472141 
L 149.662731 202.369342 
L 149.759291 201.963349 
L 149.795139 201.863127 
L 149.880057 201.664175 
L 149.93763 201.565437 
L 149.959179 201.07893 
L 150.070627 200.983034 
L 150.146368 200.698072 
L 150.306757 200.603981 
L 150.414876 200.231981 
L 150.490002 200.140052 
L 150.557817 199.597183 
L 150.698329 199.508121 
L 150.796329 198.723925 
L 151.00045 198.638661 
L 151.082455 198.385028 
L 151.246959 198.301194 
L 151.32541 197.969328 
L 151.377495 197.887216 
L 151.377495 197.805439 
L 151.532179 197.723995 
L 151.61559 197.562096 
L 151.793914 197.481635 
L 151.841671 197.242178 
L 152.04263 197.162992 
L 152.148043 196.771699 
L 152.28839 196.694351 
L 152.382766 196.161134 
L 152.560144 196.086108 
L 152.658323 195.788787 
L 152.756416 195.715143 
L 152.859783 195.278883 
L 152.942297 195.20709 
L 152.942297 195.135554 
L 153.101972 195.064272 
L 153.20451 194.572293 
L 153.285549 194.502988 
L 153.393796 194.365095 
L 153.448186 194.296503 
L 153.559107 194.024466 
L 153.614081 193.957031 
L 153.641849 193.689543 
L 153.730944 193.623226 
L 153.830119 193.360138 
L 153.898294 193.294903 
L 154.008131 192.907902 
L 154.079155 192.844123 
L 154.183712 192.654001 
L 154.30902 192.591026 
L 154.372547 192.279094 
L 154.444729 192.217287 
L 154.519041 192.094244 
L 154.654155 192.033005 
L 154.759751 191.729594 
L 154.810945 191.66946 
L 154.904163 191.371475 
L 154.945581 191.312407 
L 155.049627 191.194792 
L 155.08782 191.136244 
L 155.197176 190.788505 
L 155.216509 190.731133 
L 155.317428 190.446712 
L 155.416114 190.39031 
L 155.488926 190.16628 
L 155.609384 190.0552 
L 155.703692 189.889728 
L 155.783711 189.780169 
L 155.802466 189.671207 
L 155.926044 189.562836 
L 156.004292 189.455049 
L 156.103884 189.34784 
L 156.195604 189.241203 
L 156.281997 189.135131 
L 156.364109 188.820252 
L 156.418868 188.716384 
L 156.512501 188.407981 
L 156.572044 188.306227 
L 156.675434 187.954115 
L 156.831053 187.85464 
L 156.910552 187.608096 
L 157.011013 187.510324 
L 157.090125 187.267964 
L 157.188586 187.171837 
L 157.269774 186.980958 
L 157.366271 186.886197 
L 157.475683 186.604581 
L 157.595494 186.511583 
L 157.676361 186.098365 
L 157.773592 186.007688 
L 157.861426 185.827556 
L 157.995163 185.738096 
L 158.101781 185.516179 
L 158.179268 185.428098 
L 158.263515 185.166158 
L 158.387148 185.079602 
L 158.433056 184.993419 
L 158.594433 184.907606 
L 158.699901 184.52594 
L 158.812661 184.442106 
L 158.916475 184.151424 
L 158.978379 184.069142 
L 159.080764 183.783794 
L 159.146408 183.703008 
L 159.240676 183.542409 
L 159.33299 183.462591 
L 159.428721 183.303904 
L 159.479414 183.22503 
L 159.5632 182.912611 
L 159.622004 182.835263 
L 159.726735 182.566877 
L 159.786602 182.490853 
L 159.89123 182.22702 
L 159.949162 182.152275 
L 160.050087 181.819335 
L 160.107391 181.709575 
L 160.211303 181.312202 
L 160.330353 181.205184 
L 160.384184 181.063379 
L 160.512103 180.957681 
L 160.619728 180.817615 
L 160.683553 180.713205 
L 160.792993 180.403207 
L 160.89549 180.300934 
L 160.976502 180.064311 
L 161.07902 179.963752 
L 161.168774 179.632161 
L 161.242053 179.533747 
L 161.342652 179.241378 
L 161.39862 179.144864 
L 161.495379 178.92146 
L 161.541552 178.826475 
L 161.6388 178.669161 
L 161.674197 178.575364 
L 161.76744 178.296583 
L 161.828635 178.204514 
L 161.928572 177.930821 
L 161.997969 177.840417 
L 162.078373 177.512387 
L 162.186049 177.423851 
L 162.29188 177.131529 
L 162.351109 177.04466 
L 162.436389 176.84342 
L 162.57524 176.757791 
L 162.678906 176.503081 
L 162.781713 176.418894 
L 162.870151 176.251575 
L 162.954619 176.140802 
L 163.015078 175.839304 
L 163.139132 175.730786 
L 163.23837 175.46204 
L 163.340644 175.355544 
L 163.433006 175.14424 
L 163.504556 175.03942 
L 163.583549 174.883213 
L 163.706574 174.779748 
L 163.813793 174.625549 
L 163.875148 174.523406 
L 163.953522 174.345902 
L 164.057983 174.245174 
L 164.168129 173.970761 
L 164.234816 173.8719 
L 164.321973 173.651236 
L 164.447817 173.553939 
L 164.554333 173.240956 
L 164.624939 173.14563 
L 164.719574 172.979897 
L 164.772236 172.885805 
L 164.882385 172.606158 
L 164.933878 172.513805 
L 165.042452 172.262012 
L 165.131478 172.171231 
L 165.237506 171.901335 
L 165.315263 171.812174 
L 165.420992 171.613002 
L 165.468116 171.503203 
L 165.578935 171.328768 
L 165.623771 171.220515 
L 165.732402 170.877989 
L 165.794081 170.772142 
L 165.891987 170.624892 
L 165.965238 170.520373 
L 166.072759 170.35427 
L 166.170427 170.251153 
L 166.277731 170.026149 
L 166.310905 169.924706 
L 166.421645 169.783544 
L 166.491989 169.683321 
L 166.578037 169.48437 
L 166.658302 169.385632 
L 166.760916 169.189606 
L 166.811438 169.09231 
L 166.918696 168.707789 
L 166.974332 168.612804 
L 167.069668 168.367933 
L 167.179706 168.274544 
L 167.281003 168.126024 
L 167.406333 168.015353 
L 167.516416 167.705073 
L 167.634919 167.596702 
L 167.727207 167.363893 
L 167.816647 167.257351 
L 167.9223 166.993452 
L 167.978963 166.88886 
L 168.086165 166.698518 
L 168.187716 166.595453 
L 168.284658 166.475879 
L 168.360475 166.373953 
L 168.463445 166.205223 
L 168.576186 166.104664 
L 168.678461 165.987981 
L 168.757389 165.888506 
L 168.865459 165.576727 
L 168.935401 165.479272 
L 169.037657 165.38229 
L 169.094874 165.285776 
L 169.198107 165.078247 
L 169.30811 164.967387 
L 169.41569 164.778759 
L 169.527831 164.669542 
L 169.627858 164.437496 
L 169.715453 164.330122 
L 169.81502 164.132231 
L 169.860807 164.02648 
L 169.955765 163.846484 
L 170.022803 163.74223 
L 170.13235 163.579492 
L 170.239285 163.476617 
L 170.342796 163.345122 
L 170.423127 163.243443 
L 170.533733 163.055971 
L 170.624485 162.955748 
L 170.730442 162.770942 
L 170.824731 162.672135 
L 170.935465 162.462033 
L 171.020299 162.364737 
L 171.124102 162.185289 
L 171.206355 162.075656 
L 171.315006 161.831155 
L 171.376688 161.723441 
L 171.481161 161.549633 
L 171.545667 161.443421 
L 171.654611 161.27202 
L 171.797742 161.167268 
L 171.899713 160.959397 
L 171.984497 160.856266 
L 172.083505 160.651587 
L 172.144646 160.550028 
L 172.251467 160.360983 
L 172.320859 160.260886 
L 172.420431 160.037482 
L 172.493829 159.926709 
L 172.591693 159.755607 
L 172.677845 159.64638 
L 172.784564 159.47765 
L 172.86838 159.369927 
L 172.960139 159.274659 
L 173.03661 159.168022 
L 173.129623 158.979837 
L 173.278965 158.874757 
L 173.384245 158.712388 
L 173.439015 158.6087 
L 173.528754 158.391554 
L 173.613919 158.289512 
L 173.720369 158.17674 
L 173.783223 158.075786 
L 173.890987 157.908654 
L 174.032551 157.798004 
L 174.136746 157.567613 
L 174.207686 157.458829 
L 174.316979 157.243021 
L 174.364247 157.135984 
L 174.459615 156.955326 
L 174.549066 156.849814 
L 174.645004 156.61963 
L 174.770829 156.51587 
L 174.88186 156.258803 
L 174.949428 156.156894 
L 175.056474 155.984832 
L 175.100556 155.874282 
L 175.208716 155.704625 
L 175.301474 155.59561 
L 175.407266 155.340275 
L 175.503203 155.233222 
L 175.597728 155.020821 
L 175.690605 154.915461 
L 175.801218 154.734773 
L 175.854781 154.630906 
L 175.963693 154.527575 
L 176.049915 154.424776 
L 176.160266 154.183876 
L 176.230199 154.073663 
L 176.341109 153.909474 
L 176.417804 153.800759 
L 176.528331 153.674668 
L 176.631164 153.567218 
L 176.736883 153.469228 
L 176.824474 153.362874 
L 176.923192 153.213169 
L 176.998613 153.108165 
L 177.100808 152.934375 
L 177.173373 152.830821 
L 177.283634 152.63383 
L 177.395151 152.52334 
L 177.505555 152.312559 
L 177.590462 152.203825 
L 177.696622 151.996369 
L 177.772595 151.889337 
L 177.87487 151.782874 
L 177.948495 151.676976 
L 178.057834 151.49098 
L 178.164941 151.386612 
L 178.275537 151.147822 
L 178.373551 151.037355 
L 178.484058 150.872791 
L 178.605968 150.763829 
L 178.707995 150.578408 
L 178.776416 150.471034 
L 178.88167 150.250435 
L 178.959797 150.144804 
L 179.068176 149.927756 
L 179.131787 149.823811 
L 179.238669 149.646868 
L 179.294309 149.537069 
L 179.404944 149.384355 
L 179.488663 149.275984 
L 179.590216 149.096661 
L 179.660708 148.989833 
L 179.767848 148.820088 
L 179.831932 148.714725 
L 179.941937 148.5334 
L 180.042255 148.422627 
L 180.148443 148.278163 
L 180.228222 148.168791 
L 180.333901 148.032913 
L 180.416678 147.924871 
L 180.517826 147.770577 
L 180.649291 147.663939 
L 180.758081 147.432635 
L 180.87564 147.32778 
L 180.986063 147.171522 
L 181.068972 147.061573 
L 181.176948 146.907373 
L 181.249818 146.798864 
L 181.355643 146.69094 
L 181.42713 146.583596 
L 181.537885 146.414283 
L 181.622166 146.30841 
L 181.728384 146.15989 
L 181.827934 146.049219 
L 181.937315 145.872195 
L 182.005447 145.763101 
L 182.109586 145.606564 
L 182.209184 145.498906 
L 182.311087 145.332582 
L 182.382386 145.226385 
L 182.493268 145.038973 
L 182.574596 144.928522 
L 182.681 144.761107 
L 182.745709 144.652176 
L 182.853977 144.447395 
L 182.943143 144.340156 
L 183.048132 144.171993 
L 183.128337 144.066217 
L 183.230576 143.900333 
L 183.312006 143.790503 
L 183.411077 143.637748 
L 183.517092 143.529348 
L 183.627677 143.383933 
L 183.738944 143.276896 
L 183.848835 143.101528 
L 183.947277 142.990726 
L 184.058335 142.781359 
L 184.12334 142.672312 
L 184.222641 142.569008 
L 184.297104 142.46111 
L 184.402592 142.297806 
L 184.514749 142.191358 
L 184.625738 142.050303 
L 184.72662 141.940168 
L 184.836512 141.795911 
L 184.917865 141.687165 
L 185.026542 141.525147 
L 185.107022 141.417859 
L 185.217733 141.277309 
L 185.295712 141.166536 
L 185.404186 140.994375 
L 185.478222 140.885155 
L 185.589256 140.743584 
L 185.676081 140.635721 
L 185.784242 140.47269 
L 185.86915 140.361661 
L 185.97411 140.205418 
L 186.078548 140.095859 
L 186.186973 139.964272 
L 186.257465 139.856023 
L 186.3571 139.708131 
L 186.455328 139.601256 
L 186.566056 139.472873 
L 186.668691 139.362856 
L 186.770111 139.201134 
L 186.835357 139.092598 
L 186.946255 138.954526 
L 187.022481 138.847317 
L 187.131612 138.67697 
L 187.247696 138.567017 
L 187.352987 138.369778 
L 187.419869 138.261497 
L 187.527646 138.104287 
L 187.613521 137.993333 
L 187.722298 137.821951 
L 187.834646 137.712547 
L 187.944931 137.551561 
L 188.017864 137.443623 
L 188.128836 137.312485 
L 188.220296 137.201887 
L 188.330806 137.029318 
L 188.395272 136.920271 
L 188.497611 136.811816 
L 188.586234 136.703946 
L 188.696188 136.527984 
L 188.781601 136.417843 
L 188.883723 136.281954 
L 188.998854 136.173156 
L 189.10931 135.983245 
L 189.179285 135.87237 
L 189.287584 135.743788 
L 189.392097 135.634229 
L 189.503155 135.416896 
L 189.581649 135.309109 
L 189.691059 135.176967 
L 189.778176 135.066922 
L 189.88863 134.904738 
L 189.972243 134.796177 
L 190.082613 134.646561 
L 190.174106 134.535942 
L 190.284783 134.395099 
L 190.390156 134.285858 
L 190.501176 134.133241 
L 190.567643 134.025418 
L 190.676227 133.88144 
L 190.799158 133.771644 
L 190.910101 133.606427 
L 191.026443 133.498127 
L 191.136453 133.328654 
L 191.2307 133.218616 
L 191.337381 133.073903 
L 191.428875 132.965255 
L 191.535782 132.825522 
L 191.629794 132.715064 
L 191.738722 132.548952 
L 191.842607 132.440007 
L 191.953563 132.291556 
L 192.024001 132.180936 
L 192.133106 132.028306 
L 192.221281 131.91913 
L 192.328541 131.756474 
L 192.425049 131.645784 
L 192.528002 131.514946 
L 192.618186 131.405581 
L 192.726469 131.282159 
L 192.814914 131.171143 
L 192.92472 130.997101 
L 192.983904 130.887652 
L 193.095005 130.727444 
L 193.173828 130.616624 
L 193.281987 130.492329 
L 193.374003 130.382801 
L 193.478566 130.257164 
L 193.565643 130.146145 
L 193.675432 129.997241 
L 193.776469 129.887652 
L 193.88685 129.746079 
L 193.979792 129.635156 
L 194.090738 129.53558 
L 194.170802 129.425816 
L 194.2786 129.255672 
L 194.376634 129.144797 
L 194.486909 128.995301 
L 194.601109 128.885856 
L 194.711505 128.725382 
L 194.810907 128.614837 
L 194.921064 128.453972 
L 195.013187 128.344913 
L 195.123426 128.176161 
L 195.211478 128.066109 
L 195.317011 127.94426 
L 195.434664 127.835473 
L 195.545746 127.705216 
L 195.65016 127.595282 
L 195.758807 127.464155 
L 195.847029 127.353128 
L 195.955846 127.254686 
L 196.053874 127.144813 
L 196.162183 127.021332 
L 196.267922 126.910376 
L 196.37757 126.762607 
L 196.455525 126.653074 
L 196.566278 126.521036 
L 196.663392 126.410518 
L 196.770069 126.261826 
L 196.84776 126.152728 
L 196.958775 125.999184 
L 197.039237 125.889269 
L 197.148354 125.771057 
L 197.229468 125.660174 
L 197.339289 125.525724 
L 197.442294 125.416189 
L 197.552122 125.274685 
L 197.64558 125.164355 
L 197.75644 125.046051 
L 197.843048 124.936973 
L 197.952039 124.815762 
L 198.060597 124.705821 
L 198.168965 124.546217 
L 198.251319 124.435664 
L 198.35705 124.321581 
L 198.456378 124.21226 
L 198.563043 124.109672 
L 198.675003 123.999464 
L 198.783067 123.863564 
L 198.8539 123.752691 
L 198.964514 123.602484 
L 199.055153 123.493045 
L 199.165944 123.338861 
L 199.301146 123.228893 
L 199.410966 123.103952 
L 199.485402 122.99333 
L 199.596168 122.850622 
L 199.672613 122.741389 
L 199.78195 122.621347 
L 199.876544 122.511467 
L 199.983624 122.362767 
L 200.072012 122.252429 
L 200.181472 122.113042 
L 200.270481 122.002229 
L 200.381297 121.842632 
L 200.511407 121.733303 
L 200.621677 121.602892 
L 200.703449 121.493067 
L 200.813558 121.34816 
L 200.90019 121.237948 
L 201.009925 121.070246 
L 201.101598 120.959803 
L 201.212313 120.808283 
L 201.30326 120.697549 
L 201.413528 120.563415 
L 201.50872 120.45232 
L 201.618617 120.291053 
L 201.713955 120.181458 
L 201.823639 120.030695 
L 201.897189 119.920853 
L 202.006715 119.78357 
L 202.100366 119.673435 
L 202.21133 119.544348 
L 202.310145 119.433899 
L 202.417686 119.328891 
L 202.51575 119.21802 
L 202.625573 119.091831 
L 202.714341 118.982264 
L 202.820193 118.862272 
L 202.925053 118.752386 
L 203.035418 118.618205 
L 203.143158 118.508102 
L 203.253802 118.374009 
L 203.364414 118.263712 
L 203.474655 118.149462 
L 203.563723 118.038882 
L 203.674425 117.892887 
L 203.78647 117.782222 
L 203.897321 117.654376 
L 203.980259 117.543546 
L 204.091286 117.415748 
L 204.193982 117.304773 
L 204.30292 117.181382 
L 204.410637 117.071696 
L 204.521607 116.906861 
L 204.638723 116.795828 
L 204.74919 116.692468 
L 204.872663 116.582616 
L 204.980252 116.463588 
L 205.069121 116.353595 
L 205.178428 116.23868 
L 205.271728 116.12854 
L 205.380547 116.009448 
L 205.495361 115.899203 
L 205.605343 115.769324 
L 205.700833 115.659051 
L 205.810638 115.513403 
L 205.925293 115.403204 
L 206.036239 115.296243 
L 206.154478 115.185921 
L 206.264862 115.054073 
L 206.360621 114.943782 
L 206.470795 114.804519 
L 206.590638 114.694315 
L 206.700706 114.572008 
L 206.804347 114.461811 
L 206.915255 114.324599 
L 207.004279 114.214506 
L 207.114937 114.074019 
L 207.202782 113.964061 
L 207.31322 113.824093 
L 207.404733 113.713063 
L 207.513171 113.608698 
L 207.615529 113.497651 
L 207.723753 113.364486 
L 207.824714 113.253594 
L 207.935538 113.119677 
L 208.037633 113.008957 
L 208.147136 112.898846 
L 208.251969 112.788176 
L 208.362951 112.67465 
L 208.441665 112.564063 
L 208.551532 112.467798 
L 208.662223 112.357208 
L 208.771846 112.246096 
L 208.887629 112.135598 
L 208.997471 112.021235 
L 209.106669 111.910858 
L 209.217673 111.807722 
L 209.315696 111.697413 
L 209.426751 111.57896 
L 209.521146 111.468816 
L 209.631036 111.332253 
L 209.739661 111.221307 
L 209.850569 111.090687 
L 209.973917 110.980008 
L 210.084553 110.857278 
L 210.185054 110.746831 
L 210.295867 110.641165 
L 210.391291 110.530865 
L 210.502077 110.418074 
L 210.609205 110.307968 
L 210.719893 110.187242 
L 210.845453 110.076368 
L 210.952883 109.955012 
L 211.048851 109.844412 
L 211.158806 109.702536 
L 211.268513 109.592329 
L 211.379609 109.477804 
L 211.520622 109.366868 
L 211.630706 109.275052 
L 211.731595 109.164263 
L 211.841567 109.049266 
L 211.953623 108.938759 
L 212.064386 108.826001 
L 212.171219 108.715771 
L 212.279471 108.607087 
L 212.402498 108.496179 
L 212.513143 108.39987 
L 212.61599 108.289174 
L 212.726091 108.167099 
L 212.815105 108.056764 
L 212.921115 107.943387 
L 213.037902 107.832464 
L 213.147994 107.718545 
L 213.268316 107.607962 
L 213.37834 107.506905 
L 213.496961 107.396595 
L 213.607862 107.286891 
L 213.716576 107.176031 
L 213.827264 107.070145 
L 213.921872 106.959608 
L 214.032963 106.841912 
L 214.14843 106.73091 
L 214.258966 106.613696 
L 214.366938 106.503102 
L 214.477885 106.385525 
L 214.57555 106.274505 
L 214.68592 106.156593 
L 214.80108 106.046004 
L 214.912167 105.937673 
L 215.050179 105.826645 
L 215.160036 105.728469 
L 215.271093 105.617782 
L 215.381974 105.496407 
L 215.509256 105.385389 
L 215.619301 105.277378 
L 215.73592 105.166772 
L 215.846806 105.050463 
L 215.975919 104.939534 
L 216.086376 104.848731 
L 216.211465 104.738136 
L 216.321582 104.631238 
L 216.445329 104.520299 
L 216.554921 104.412264 
L 216.677206 104.30177 
L 216.788257 104.195662 
L 216.899271 104.084852 
L 217.009028 103.970914 
L 217.131577 103.859853 
L 217.242516 103.736841 
L 217.369543 103.626334 
L 217.480105 103.524473 
L 217.592452 103.413676 
L 217.700594 103.302766 
L 217.819621 103.19175 
L 217.930645 103.079202 
L 218.027235 102.968706 
L 218.13831 102.857403 
L 218.254186 102.746716 
L 218.363356 102.633142 
L 218.492568 102.522296 
L 218.602266 102.412061 
L 218.739105 102.301055 
L 218.848457 102.191346 
L 218.969629 102.080876 
L 219.080504 101.97507 
L 219.198146 101.86444 
L 219.30886 101.749066 
L 219.441197 101.638345 
L 219.552032 101.532203 
L 219.675175 101.421357 
L 219.785067 101.309814 
L 219.918411 101.198889 
L 220.029063 101.104113 
L 220.159408 100.993033 
L 220.270297 100.876162 
L 220.414448 100.765064 
L 220.525314 100.652047 
L 220.637857 100.541554 
L 220.748041 100.442317 
L 220.861731 100.331727 
L 220.972602 100.226704 
L 221.097515 100.116065 
L 221.208568 100.007261 
L 221.32248 99.896606 
L 221.432667 99.804152 
L 221.548393 99.693406 
L 221.65921 99.591674 
L 221.788086 99.480902 
L 221.89897 99.371927 
L 222.03158 99.26118 
L 222.14268 99.161031 
L 222.256681 99.050275 
L 222.3677 98.96048 
L 222.491419 98.849669 
L 222.601246 98.746949 
L 222.738621 98.636167 
L 222.849463 98.534536 
L 222.976268 98.423788 
L 223.086799 98.337885 
L 223.19784 98.227097 
L 223.308677 98.131984 
L 223.424865 98.021217 
L 223.534578 97.924314 
L 223.649863 97.81359 
L 223.75933 97.704022 
L 223.8903 97.593421 
L 224.000965 97.485591 
L 224.135742 97.374576 
L 224.246811 97.296267 
L 224.369584 97.185231 
L 224.479647 97.079574 
L 224.598796 96.968678 
L 224.708887 96.87516 
L 224.832936 96.764347 
L 224.944003 96.654144 
L 225.074367 96.543515 
L 225.185362 96.449394 
L 225.3091 96.338357 
L 225.419354 96.258405 
L 225.55386 96.14741 
L 225.664792 96.057647 
L 225.797902 95.946758 
L 225.908983 95.845439 
L 226.030578 95.734727 
L 226.141511 95.632504 
L 226.264844 95.521492 
L 226.37386 95.4301 
L 226.489804 95.319233 
L 226.599803 95.228276 
L 226.734309 95.11756 
L 226.845392 95.019869 
L 226.98346 94.908872 
L 227.094117 94.805575 
L 227.244178 94.694818 
L 227.355218 94.612736 
L 227.49304 94.501643 
L 227.603267 94.412469 
L 227.73718 94.301558 
L 227.848205 94.213729 
L 227.98441 94.102999 
L 228.095407 94.016036 
L 228.223337 93.905037 
L 228.334281 93.818929 
L 228.462261 93.708121 
L 228.573111 93.624637 
L 228.726779 93.513569 
L 228.837368 93.427362 
L 228.969558 93.316504 
L 229.080666 93.22852 
L 229.224028 93.117453 
L 229.334062 93.024717 
L 229.465875 92.913914 
L 229.576777 92.823827 
L 229.710302 92.712851 
L 229.821411 92.62324 
L 229.948835 92.512526 
L 230.059208 92.422967 
L 230.195445 92.312102 
L 230.306174 92.222189 
L 230.43896 92.111189 
L 230.54954 92.024228 
L 230.673924 91.913501 
L 230.784655 91.81681 
L 230.917585 91.706008 
L 231.0281 91.603868 
L 231.171123 91.493036 
L 231.282177 91.40792 
L 231.427145 91.296975 
L 231.537403 91.204792 
L 231.676397 91.093788 
L 231.786952 91.001362 
L 231.927742 90.890313 
L 232.038687 90.79302 
L 232.18693 90.681965 
L 232.296773 90.599843 
L 232.431863 90.489091 
L 232.542826 90.410791 
L 232.706955 90.299947 
L 232.817646 90.220127 
L 232.95079 90.109211 
L 233.061883 90.024937 
L 233.21306 89.913986 
L 233.324053 89.828687 
L 233.466421 89.717716 
L 233.577023 89.624129 
L 233.725101 89.513197 
L 233.835908 89.431754 
L 233.967914 89.320804 
L 234.078878 89.234774 
L 234.22611 89.123841 
L 234.336763 89.037236 
L 234.493003 88.926334 
L 234.603845 88.835669 
L 234.760363 88.72483 
L 234.870206 88.641668 
L 235.010948 88.530861 
L 235.121552 88.440249 
L 235.281533 88.329182 
L 235.3925 88.246625 
L 235.541089 88.135609 
L 235.651969 88.046093 
L 235.807758 87.935177 
L 235.918482 87.846885 
L 236.070226 87.736069 
L 236.18122 87.645346 
L 236.33295 87.534325 
L 236.44399 87.453671 
L 236.594137 87.34273 
L 236.704778 87.262843 
L 236.851896 87.151986 
L 236.962555 87.069325 
L 237.115407 86.958256 
L 237.226151 86.886248 
L 237.401305 86.775239 
L 237.511529 86.690968 
L 237.667944 86.580097 
L 237.777583 86.503194 
L 237.930113 86.392114 
L 238.040546 86.313457 
L 238.215818 86.202501 
L 238.326284 86.123666 
L 238.473757 86.012843 
L 238.584768 85.931415 
L 238.748594 85.820443 
L 238.858729 85.734989 
L 239.011323 85.623904 
L 239.122418 85.549693 
L 239.280028 85.438743 
L 239.390955 85.364036 
L 239.561403 85.252936 
L 239.670991 85.171911 
L 239.832421 85.061 
L 239.943453 84.984507 
L 240.109152 84.873477 
L 240.22 84.799989 
L 240.392902 84.689121 
L 240.503837 84.61943 
L 240.669674 84.508426 
L 240.779876 84.427264 
L 240.936087 84.3162 
L 241.046753 84.239156 
L 241.202573 84.128298 
L 241.313454 84.050041 
L 241.461064 83.939127 
L 241.572098 83.867073 
L 241.725001 83.756079 
L 241.833478 83.685223 
L 242.007191 83.574152 
L 242.117866 83.503132 
L 242.29003 83.392264 
L 242.400623 83.323748 
L 242.563643 83.212809 
L 242.674606 83.140685 
L 242.839171 83.029705 
L 242.95025 82.957453 
L 243.12655 82.846443 
L 243.237316 82.782619 
L 243.402581 82.671543 
L 243.513596 82.602368 
L 243.688688 82.491265 
L 243.799596 82.415587 
L 243.964311 82.304503 
L 244.075419 82.22978 
L 244.24787 82.118717 
L 244.357097 82.043686 
L 244.540641 81.932656 
L 244.651305 81.858813 
L 244.827344 81.747819 
L 244.938001 81.677595 
L 245.105859 81.566624 
L 245.216905 81.497275 
L 245.387084 81.386332 
L 245.497289 81.313513 
L 245.674337 81.202624 
L 245.785142 81.134525 
L 245.958868 81.023436 
L 246.069373 80.954997 
L 246.254865 80.843957 
L 246.365827 80.77402 
L 246.545684 80.663047 
L 246.656717 80.593971 
L 246.834955 80.483066 
L 246.945972 80.408626 
L 247.119945 80.297598 
L 247.230484 80.232735 
L 247.409116 80.12177 
L 247.520207 80.05544 
L 247.695531 79.944552 
L 247.806616 79.872982 
L 247.984259 79.761986 
L 248.095266 79.691731 
L 248.261944 79.58063 
L 248.372924 79.514088 
L 248.567661 79.403092 
L 248.677983 79.330816 
L 248.860629 79.219745 
L 248.971601 79.150936 
L 249.150432 79.039998 
L 249.261486 78.97373 
L 249.437789 78.862704 
L 249.54881 78.797869 
L 249.737963 78.686968 
L 249.848737 78.627118 
L 250.031722 78.516111 
L 250.142029 78.453431 
L 250.318274 78.342345 
L 250.429187 78.27938 
L 250.61963 78.168431 
L 250.730317 78.111546 
L 250.927673 78.000502 
L 251.038681 77.938399 
L 251.234634 77.8273 
L 251.345721 77.757872 
L 251.527597 77.646767 
L 251.638131 77.583154 
L 251.825065 77.472218 
L 251.93608 77.409356 
L 252.129168 77.298393 
L 252.240075 77.238429 
L 252.436159 77.127432 
L 252.547241 77.064475 
L 252.731887 76.953469 
L 252.842457 76.887392 
L 253.044619 76.776403 
L 253.155134 76.710524 
L 253.367574 76.599559 
L 253.478269 76.535776 
L 253.678852 76.424832 
L 253.789901 76.362354 
L 254.004345 76.251244 
L 254.11537 76.187816 
L 254.3027 76.076743 
L 254.413788 76.013495 
L 254.604761 75.902465 
L 254.715658 75.842146 
L 254.919864 75.731151 
L 255.029871 75.677517 
L 255.217696 75.566527 
L 255.328547 75.508111 
L 255.534908 75.397159 
L 255.645033 75.335487 
L 255.870668 75.224421 
L 255.981198 75.165225 
L 256.186944 75.054219 
L 256.297956 74.999735 
L 256.522274 74.888769 
L 256.633294 74.82812 
L 256.847401 74.717061 
L 256.958173 74.657103 
L 257.165991 74.546129 
L 257.277026 74.489076 
L 257.503452 74.378007 
L 257.614543 74.324654 
L 257.820578 74.213649 
L 257.931528 74.159555 
L 258.152937 74.048456 
L 258.263915 73.993971 
L 258.480232 73.882956 
L 258.591256 73.825444 
L 258.827025 73.714371 
L 258.937862 73.656685 
L 259.171364 73.545726 
L 259.28236 73.489337 
L 259.497097 73.37833 
L 259.608115 73.323056 
L 259.824347 73.212003 
L 259.93523 73.156066 
L 260.15228 73.044979 
L 260.26318 72.993951 
L 260.504749 72.882969 
L 260.615582 72.831251 
L 260.850217 72.720226 
L 260.960965 72.669551 
L 261.180771 72.558486 
L 261.291714 72.502177 
L 261.527892 72.39111 
L 261.639003 72.336038 
L 261.872033 72.224972 
L 261.983095 72.174621 
L 262.219339 72.063536 
L 262.328585 72.014799 
L 262.560065 71.903693 
L 262.671003 71.854444 
L 262.921974 71.743478 
L 263.032519 71.693134 
L 263.274941 71.58217 
L 263.385272 71.529426 
L 263.633441 71.418337 
L 263.744486 71.366169 
L 263.994287 71.255108 
L 264.105269 71.207719 
L 264.351272 71.096665 
L 264.461695 71.043313 
L 264.706844 70.932307 
L 264.817225 70.884819 
L 265.075023 70.773835 
L 265.185502 70.724879 
L 265.456779 70.613789 
L 265.567539 70.563395 
L 265.810781 70.452359 
L 265.921849 70.401951 
L 266.175162 70.290972 
L 266.286177 70.248856 
L 266.535848 70.137759 
L 266.646872 70.092393 
L 266.928306 69.98134 
L 267.039291 69.930334 
L 267.308814 69.819226 
L 267.419581 69.770928 
L 267.680115 69.659894 
L 267.791151 69.617476 
L 268.069027 69.506488 
L 268.179461 69.463197 
L 268.459314 69.352133 
L 268.570346 69.30957 
L 268.839532 69.198567 
L 268.950178 69.148993 
L 269.232799 69.037963 
L 269.343894 68.995023 
L 269.62221 68.883938 
L 269.733172 68.838876 
L 270.016442 68.727883 
L 270.127271 68.684196 
L 270.392608 68.573165 
L 270.502558 68.52702 
L 270.790369 68.415972 
L 270.901305 68.377496 
L 271.188782 68.266396 
L 271.299821 68.219703 
L 271.591729 68.108603 
L 271.702812 68.064882 
L 271.993353 67.953773 
L 272.104355 67.910019 
L 272.404373 67.798908 
L 272.51546 67.759767 
L 272.834096 67.648757 
L 272.944496 67.606513 
L 273.248882 67.495504 
L 273.359893 67.455147 
L 273.669134 67.344135 
L 273.779885 67.303127 
L 274.071314 67.192122 
L 274.181415 67.15249 
L 274.481719 67.041491 
L 274.592324 67.002157 
L 274.909294 66.891051 
L 275.020339 66.852361 
L 275.330671 66.741269 
L 275.441207 66.706462 
L 275.741279 66.595368 
L 275.852232 66.5546 
L 276.188533 66.443544 
L 276.299516 66.408794 
L 276.637789 66.297747 
L 276.748683 66.259054 
L 277.078889 66.148045 
L 277.189951 66.107615 
L 277.532219 65.996546 
L 277.643244 65.962563 
L 277.987344 65.851517 
L 278.09791 65.813899 
L 278.421492 65.702791 
L 278.532496 65.668643 
L 278.882392 65.557572 
L 278.993377 65.524217 
L 279.324068 65.413182 
L 279.43502 65.376813 
L 279.790369 65.265728 
L 279.901078 65.233502 
L 280.271833 65.122458 
L 280.382781 65.088324 
L 280.74474 64.977232 
L 280.855842 64.940479 
L 281.21191 64.829463 
L 281.322386 64.794772 
L 281.703252 64.683722 
L 281.814214 64.650642 
L 282.190016 64.539555 
L 282.300923 64.504117 
L 282.660576 64.393013 
L 282.771547 64.363194 
L 283.155669 64.252151 
L 283.266476 64.21865 
L 283.650756 64.10759 
L 283.761323 64.077482 
L 284.159518 63.966392 
L 284.270547 63.932257 
L 284.674999 63.821167 
L 284.785952 63.789081 
L 285.181011 63.677984 
L 285.291945 63.647521 
L 285.702081 63.536414 
L 285.81286 63.507054 
L 286.229076 63.396035 
L 286.339315 63.366292 
L 286.740802 63.255269 
L 286.851795 63.227975 
L 287.266892 63.11694 
L 287.377977 63.08906 
L 287.798184 62.978023 
L 287.908488 62.948895 
L 288.330813 62.837867 
L 288.441681 62.808751 
L 288.870443 62.697642 
L 288.981438 62.669014 
L 289.438936 62.557924 
L 289.549955 62.530906 
L 289.990379 62.419829 
L 290.101095 62.39524 
L 290.55291 62.284169 
L 290.66394 62.257611 
L 291.138229 62.146562 
L 291.249136 62.120555 
L 291.735138 62.009529 
L 291.846134 61.98196 
L 292.326163 61.87088 
L 292.436795 61.842138 
L 292.947377 61.731106 
L 293.058384 61.710238 
L 293.557647 61.599216 
L 293.668745 61.57427 
L 294.160633 61.463195 
L 294.271668 61.43824 
L 294.792234 61.327208 
L 294.902512 61.302156 
L 295.459091 61.191083 
L 295.57018 61.166816 
L 296.111131 61.055792 
L 296.221972 61.034656 
L 296.75905 60.92358 
L 296.869725 60.900762 
L 297.441921 60.789735 
L 297.552033 60.766811 
L 298.124476 60.655753 
L 298.235499 60.636405 
L 298.800945 60.525301 
L 298.912052 60.501998 
L 299.534579 60.390959 
L 299.645568 60.371105 
L 300.259152 60.260034 
L 300.370041 60.240142 
L 300.965195 60.129043 
L 301.076182 60.110947 
L 301.747688 59.999899 
L 301.858637 59.981837 
L 302.529988 59.87076 
L 302.640982 59.853966 
L 303.323503 59.742859 
L 303.433648 59.7256 
L 304.162814 59.614551 
L 304.27377 59.596103 
L 304.968916 59.485042 
L 305.079954 59.469618 
L 305.817235 59.358533 
L 305.928184 59.343047 
L 306.727134 59.231943 
L 306.837263 59.215996 
L 307.662245 59.10496 
L 307.773209 59.089589 
L 308.554146 58.978542 
L 308.665025 58.961851 
L 309.468996 58.850805 
L 309.579631 58.837818 
L 310.391309 58.726757 
L 310.50175 58.711985 
L 311.409524 58.600922 
L 311.520543 58.58578 
L 312.485806 58.474723 
L 312.596856 58.462438 
L 313.518669 58.351376 
L 313.629659 58.337794 
L 314.598761 58.226737 
L 314.709859 58.21521 
L 315.704286 58.104152 
L 315.815068 58.091867 
L 316.842646 57.980815 
L 316.953356 57.969729 
L 318.123744 57.858681 
L 318.233464 57.848035 
L 319.471921 57.736993 
L 319.582778 57.725893 
L 320.867775 57.61479 
L 320.9787 57.605081 
L 322.275321 57.493988 
L 322.38538 57.484557 
L 323.78643 57.373474 
L 323.895849 57.3641 
L 325.33608 57.253033 
L 325.447128 57.245304 
L 327.044532 57.134247 
L 327.152565 57.126635 
L 328.885732 57.01559 
L 328.995728 57.008452 
L 330.859275 56.89735 
L 330.966742 56.891602 
L 333.089055 56.780511 
L 333.199455 56.774091 
L 335.522102 56.663018 
L 335.630806 56.65909 
L 338.057616 56.548024 
L 338.168448 56.542236 
L 341.210064 56.431191 
L 341.318904 56.426546 
L 344.864447 56.315451 
L 344.970647 56.312418 
L 349.200667 56.201337 
L 349.311157 56.198595 
L 354.870688 56.087529 
L 354.963323 56.085348 
L 362.555742 55.974298 
L 362.666077 55.972942 
L 378.629429 55.861839 
L 378.731901 55.8613 
L 498.109091 55.8 
L 498.109091 55.8 
" clip-path="url(#p973aae501f)" style="fill: none; stroke: #ff0000; stroke-width: 1.5; stroke-linecap: square"/>
   </g>
   <g id="patch_3">
    <path d="M 72 320.4 
L 72 43.2 
" style="fill: none; stroke: #000000; stroke-width: 0.8; stroke-linejoin: miter; stroke-linecap: square"/>
   </g>
   <g id="patch_4">
    <path d="M 518.4 320.4 
L 518.4 43.2 
" style="fill: none; stroke: #000000; stroke-width: 0.8; stroke-linejoin: miter; stroke-linecap: square"/>
   </g>
   <g id="patch_5">
    <path d="M 72 320.4 
L 518.4 320.4 
" style="fill: none; stroke: #000000; stroke-width: 0.8; stroke-linejoin: miter; stroke-linecap: square"/>
   </g>
   <g id="patch_6">
    <path d="M 72 43.2 
L 518.4 43.2 
" style="fill: none; stroke: #000000; stroke-width: 0.8; stroke-linejoin: miter; stroke-linecap: square"/>
   </g>
   <g id="text_15">
    <!-- Comparison: CDF (log scale expands lower tail) -->
    <g transform="translate(153.135937 37.2) scale(0.12 -0.12)">
     <defs>
      <path id="DejaVuSans-6f" d="M 1959 3097 
Q 1497 3097 1228 2736 
Q 959 2375 959 1747 
Q 959 1119 1226 758 
Q 1494 397 1959 397 
Q 2419 397 2687 759 
Q 2956 1122 2956 1747 
Q 2956 2369 2687 2733 
Q 2419 3097 1959 3097 
z
M 1959 3584 
Q 2709 3584 3137 3096 
Q 3566 2609 3566 1747 
Q 3566 888 3137 398 
Q 2709 -91 1959 -91 
Q 1206 -91 779 398 
Q 353 888 353 1747 
Q 353 2609 779 3096 
Q 1206 3584 1959 3584 
z
" transform="scale(0.015625)"/>
      <path id="DejaVuSans-6d" d="M 3328 2828 
Q 3544 3216 3844 3400 
Q 4144 3584 4550 3584 
Q 5097 3584 5394 3201 
Q 5691 2819 5691 2113 
L 5691 0 
L 5113 0 
L 5113 2094 
Q 5113 2597 4934 2840 
Q 4756 3084 4391 3084 
Q 3944 3084 3684 2787 
Q 3425 2491 3425 1978 
L 3425 0 
L 2847 0 
L 2847 2094 
Q 2847 2600 2669 2842 
Q 2491 3084 2119 3084 
Q 1678 3084 1418 2786 
Q 1159 2488 1159 1978 
L 1159 0 
L 581 0 
L 581 3500 
L 1159 3500 
L 1159 2956 
Q 1356 3278 1631 3431 
Q 1906 3584 2284 3584 
Q 2666 3584 2933 3390 
Q 3200 3197 3328 2828 
z
" transform="scale(0.015625)"/>
      <path id="DejaVuSans-70" d="M 1159 525 
L 1159 -1331 
L 581 -1331 
L 581 3500 
L 1159 3500 
L 1159 2969 
Q 1341 3281 1617 3432 
Q 1894 3584 2278 3584 
Q 2916 3584 3314 3078 
Q 3713 2572 3713 1747 
Q 3713 922 3314 415 
Q 2916 -91 2278 -91 
Q 1894 -91 1617 61 
Q 1341 213 1159 525 
z
M 3116 1747 
Q 3116 2381 2855 2742 
Q 2594 3103 2138 3103 
Q 1681 3103 1420 2742 
Q 1159 2381 1159 1747 
Q 1159 1113 1420 752 
Q 1681 391 2138 391 
Q 2594 391 2855 752 
Q 3116 1113 3116 1747 
z
" transform="scale(0.015625)"/>
      <path id="DejaVuSans-61" d="M 2194 1759 
Q 1497 1759 1228 1600 
Q 959 1441 959 1056 
Q 959 750 1161 570 
Q 1363 391 1709 391 
Q 2188 391 2477 730 
Q 2766 1069 2766 1631 
L 2766 1759 
L 2194 1759 
z
M 3341 1997 
L 3341 0 
L 2766 0 
L 2766 531 
Q 2569 213 2275 61 
Q 1981 -91 1556 -91 
Q 1019 -91 701 211 
Q 384 513 384 1019 
Q 384 1609 779 1909 
Q 1175 2209 1959 2209 
L 2766 2209 
L 2766 2266 
Q 2766 2663 2505 2880 
Q 2244 3097 1772 3097 
Q 1472 3097 1187 3025 
Q 903 2953 641 2809 
L 641 3341 
Q 956 3463 1253 3523 
Q 1550 3584 1831 3584 
Q 2591 3584 2966 3190 
Q 3341 2797 3341 1997 
z
" transform="scale(0.015625)"/>
      <path id="DejaVuSans-72" d="M 2631 2963 
Q 2534 3019 2420 3045 
Q 2306 3072 2169 3072 
Q 1681 3072 1420 2755 
Q 1159 2438 1159 1844 
L 1159 0 
L 581 0 
L 581 3500 
L 1159 3500 
L 1159 2956 
Q 1341 3275 1631 3429 
Q 1922 3584 2338 3584 
Q 2397 3584 2469 3576 
Q 2541 3569 2628 3553 
L 2631 2963 
z
" transform="scale(0.015625)"/>
      <path id="DejaVuSans-69" d="M 603 3500 
L 1178 3500 
L 1178 0 
L 603 0 
L 603 3500 
z
M 603 4863 
L 1178 4863 
L 1178 4134 
L 603 4134 
L 603 4863 
z
" transform="scale(0.015625)"/>
      <path id="DejaVuSans-73" d="M 2834 3397 
L 2834 2853 
Q 2591 2978 2328 3040 
Q 2066 3103 1784 3103 
Q 1356 3103 1142 2972 
Q 928 2841 928 2578 
Q 928 2378 1081 2264 
Q 1234 2150 1697 2047 
L 1894 2003 
Q 2506 1872 2764 1633 
Q 3022 1394 3022 966 
Q 3022 478 2636 193 
Q 2250 -91 1575 -91 
Q 1294 -91 989 -36 
Q 684 19 347 128 
L 347 722 
Q 666 556 975 473 
Q 1284 391 1588 391 
Q 1994 391 2212 530 
Q 2431 669 2431 922 
Q 2431 1156 2273 1281 
Q 2116 1406 1581 1522 
L 1381 1569 
Q 847 1681 609 1914 
Q 372 2147 372 2553 
Q 372 3047 722 3315 
Q 1072 3584 1716 3584 
Q 2034 3584 2315 3537 
Q 2597 3491 2834 3397 
z
" transform="scale(0.015625)"/>
      <path id="DejaVuSans-6e" d="M 3513 2113 
L 3513 0 
L 2938 0 
L 2938 2094 
Q 2938 2591 2744 2837 
Q 2550 3084 2163 3084 
Q 1697 3084 1428 2787 
Q 1159 2491 1159 1978 
L 1159 0 
L 581 0 
L 581 3500 
L 1159 3500 
L 1159 2956 
Q 1366 3272 1645 3428 
Q 1925 3584 2291 3584 
Q 2894 3584 3203 3211 
Q 3513 2838 3513 2113 
z
" transform="scale(0.015625)"/>
      <path id="DejaVuSans-3a" d="M 750 794 
L 1409 794 
L 1409 0 
L 750 0 
L 750 794 
z
M 750 3309 
L 1409 3309 
L 1409 2516 
L 750 2516 
L 750 3309 
z
" transform="scale(0.015625)"/>
      <path id="DejaVuSans-6c" d="M 603 4863 
L 1178 4863 
L 1178 0 
L 603 0 
L 603 4863 
z
" transform="scale(0.015625)"/>
      <path id="DejaVuSans-67" d="M 2906 1791 
Q 2906 2416 2648 2759 
Q 2391 3103 1925 3103 
Q 1463 3103 1205 2759 
Q 947 2416 947 1791 
Q 947 1169 1205 825 
Q 1463 481 1925 481 
Q 2391 481 2648 825 
Q 2906 1169 2906 1791 
z
M 3481 434 
Q 3481 -459 3084 -895 
Q 2688 -1331 1869 -1331 
Q 1566 -1331 1297 -1286 
Q 1028 -1241 775 -1147 
L 775 -588 
Q 1028 -725 1275 -790 
Q 1522 -856 1778 -856 
Q 2344 -856 2625 -561 
Q 2906 -266 2906 331 
L 2906 616 
Q 2728 306 2450 153 
Q 2172 0 1784 0 
Q 1141 0 747 490 
Q 353 981 353 1791 
Q 353 2603 747 3093 
Q 1141 3584 1784 3584 
Q 2172 3584 2450 3431 
Q 2728 3278 2906 2969 
L 2906 3500 
L 3481 3500 
L 3481 434 
z
" transform="scale(0.015625)"/>
      <path id="DejaVuSans-63" d="M 3122 3366 
L 3122 2828 
Q 2878 2963 2633 3030 
Q 2388 3097 2138 3097 
Q 1578 3097 1268 2742 
Q 959 2388 959 1747 
Q 959 1106 1268 751 
Q 1578 397 2138 397 
Q 2388 397 2633 464 
Q 2878 531 3122 666 
L 3122 134 
Q 2881 22 2623 -34 
Q 2366 -91 2075 -91 
Q 1284 -91 818 406 
Q 353 903 353 1747 
Q 353 2603 823 3093 
Q 1294 3584 2113 3584 
Q 2378 3584 2631 3529 
Q 2884 3475 3122 3366 
z
" transform="scale(0.015625)"/>
      <path id="DejaVuSans-65" d="M 3597 1894 
L 3597 1613 
L 953 1613 
Q 991 1019 1311 708 
Q 1631 397 2203 397 
Q 2534 397 2845 478 
Q 3156 559 3463 722 
L 3463 178 
Q 3153 47 2828 -22 
Q 2503 -91 2169 -91 
Q 1331 -91 842 396 
Q 353 884 353 1716 
Q 353 2575 817 3079 
Q 1281 3584 2069 3584 
Q 2775 3584 3186 3129 
Q 3597 2675 3597 1894 
z
M 3022 2063 
Q 3016 2534 2758 2815 
Q 2500 3097 2075 3097 
Q 1594 3097 1305 2825 
Q 1016 2553 972 2059 
L 3022 2063 
z
" transform="scale(0.015625)"/>
      <path id="DejaVuSans-78" d="M 3513 3500 
L 2247 1797 
L 3578 0 
L 2900 0 
L 1881 1375 
L 863 0 
L 184 0 
L 1544 1831 
L 300 3500 
L 978 3500 
L 1906 2253 
L 2834 3500 
L 3513 3500 
z
" transform="scale(0.015625)"/>
      <path id="DejaVuSans-64" d="M 2906 2969 
L 2906 4863 
L 3481 4863 
L 3481 0 
L 2906 0 
L 2906 525 
Q 2725 213 2448 61 
Q 2172 -91 1784 -91 
Q 1150 -91 751 415 
Q 353 922 353 1747 
Q 353 2572 751 3078 
Q 1150 3584 1784 3584 
Q 2172 3584 2448 3432 
Q 2725 3281 2906 2969 
z
M 947 1747 
Q 947 1113 1208 752 
Q 1469 391 1925 391 
Q 2381 391 2643 752 
Q 2906 1113 2906 1747 
Q 2906 2381 2643 2742 
Q 2381 3103 1925 3103 
Q 1469 3103 1208 2742 
Q 947 2381 947 1747 
z
" transform="scale(0.015625)"/>
      <path id="DejaVuSans-77" d="M 269 3500 
L 844 3500 
L 1563 769 
L 2278 3500 
L 2956 3500 
L 3675 769 
L 4391 3500 
L 4966 3500 
L 4050 0 
L 3372 0 
L 2619 2869 
L 1863 0 
L 1184 0 
L 269 3500 
z
" transform="scale(0.015625)"/>
      <path id="DejaVuSans-74" d="M 1172 4494 
L 1172 3500 
L 2356 3500 
L 2356 3053 
L 1172 3053 
L 1172 1153 
Q 1172 725 1289 603 
Q 1406 481 1766 481 
L 2356 481 
L 2356 0 
L 1766 0 
Q 1100 0 847 248 
Q 594 497 594 1153 
L 594 3053 
L 172 3053 
L 172 3500 
L 594 3500 
L 594 4494 
L 1172 4494 
z
" transform="scale(0.015625)"/>
     </defs>
     <use xlink:href="#DejaVuSans-43"/>
     <use xlink:href="#DejaVuSans-6f" x="69.824219"/>
     <use xlink:href="#DejaVuSans-6d" x="131.005859"/>
     <use xlink:href="#DejaVuSans-70" x="228.417969"/>
     <use xlink:href="#DejaVuSans-61" x="291.894531"/>
     <use xlink:href="#DejaVuSans-72" x="353.173828"/>
     <use xlink:href="#DejaVuSans-69" x="394.287109"/>
     <use xlink:href="#DejaVuSans-73" x="422.070312"/>
     <use xlink:href="#DejaVuSans-6f" x="474.169922"/>
     <use xlink:href="#DejaVuSans-6e" x="535.351562"/>
     <use xlink:href="#DejaVuSans-3a" x="598.730469"/>
     <use xlink:href="#DejaVuSans-20" x="632.421875"/>
     <use xlink:href="#DejaVuSans-43" x="664.208984"/>
     <use xlink:href="#DejaVuSans-44" x="734.033203"/>
     <use xlink:href="#DejaVuSans-46" x="811.035156"/>
     <use xlink:href="#DejaVuSans-20" x="868.554688"/>
     <use xlink:href="#DejaVuSans-28" x="900.341797"/>
     <use xlink:href="#DejaVuSans-6c" x="939.355469"/>
     <use xlink:href="#DejaVuSans-6f" x="967.138672"/>
     <use xlink:href="#DejaVuSans-67" x="1028.320312"/>
     <use xlink:href="#DejaVuSans-20" x="1091.796875"/>
     <use xlink:href="#DejaVuSans-73" x="1123.583984"/>
     <use xlink:href="#DejaVuSans-63" x="1175.683594"/>
     <use xlink:href="#DejaVuSans-61" x="1230.664062"/>
     <use xlink:href="#DejaVuSans-6c" x="1291.943359"/>
     <use xlink:href="#DejaVuSans-65" x="1319.726562"/>
     <use xlink:href="#DejaVuSans-20" x="1381.25"/>
     <use xlink:href="#DejaVuSans-65" x="1413.037109"/>
     <use xlink:href="#DejaVuSans-78" x="1472.810547"/>
     <use xlink:href="#DejaVuSans-70" x="1531.990234"/>
     <use xlink:href="#DejaVuSans-61" x="1595.466797"/>
     <use xlink:href="#DejaVuSans-6e" x="1656.746094"/>
     <use xlink:href="#DejaVuSans-64" x="1720.125"/>
     <use xlink:href="#DejaVuSans-73" x="1783.601562"/>
     <use xlink:href="#DejaVuSans-20" x="1835.701172"/>
     <use xlink:href="#DejaVuSans-6c" x="1867.488281"/>
     <use xlink:href="#DejaVuSans-6f" x="1895.271484"/>
     <use xlink:href="#DejaVuSans-77" x="1956.453125"/>
     <use xlink:href="#DejaVuSans-65" x="2038.240234"/>
     <use xlink:href="#DejaVuSans-72" x="2099.763672"/>
     <use xlink:href="#DejaVuSans-20" x="2140.876953"/>
     <use xlink:href="#DejaVuSans-74" x="2172.664062"/>
     <use xlink:href="#DejaVuSans-61" x="2211.873047"/>
     <use xlink:href="#DejaVuSans-69" x="2273.152344"/>
     <use xlink:href="#DejaVuSans-6c" x="2300.935547"/>
     <use xlink:href="#DejaVuSans-29" x="2328.71875"/>
    </g>
   </g>
   <g id="legend_1">
    <g id="patch_7">
     <path d="M 79 80.55625 
L 173.634375 80.55625 
Q 175.634375 80.55625 175.634375 78.55625 
L 175.634375 50.2 
Q 175.634375 48.2 173.634375 48.2 
L 79 48.2 
Q 77 48.2 77 50.2 
L 77 78.55625 
Q 77 80.55625 79 80.55625 
z
" style="fill: #ffffff; opacity: 0.8; stroke: #cccccc; stroke-linejoin: miter"/>
    </g>
    <g id="line2d_75">
     <path d="M 81 56.298437 
L 81 56.298437 
L 91 56.298437 
L 91 56.298437 
L 101 56.298437 
" style="fill: none; stroke: #000000; stroke-width: 1.5; stroke-linecap: square"/>
    </g>
    <g id="text_16">
     <!-- Data -->
     <g transform="translate(109 59.798437) scale(0.1 -0.1)">
      <use xlink:href="#DejaVuSans-44"/>
      <use xlink:href="#DejaVuSans-61" x="77.001953"/>
      <use xlink:href="#DejaVuSans-74" x="138.28125"/>
      <use xlink:href="#DejaVuSans-61" x="177.490234"/>
     </g>
    </g>
    <g id="line2d_76">
     <path d="M 81 70.976562 
L 81 70.976562 
L 91 70.976562 
L 91 70.976562 
L 101 70.976562 
" style="fill: none; stroke: #ff0000; stroke-width: 1.5; stroke-linecap: square"/>
    </g>
    <g id="text_17">
     <!-- MCS Sample -->
     <g transform="translate(109 74.476562) scale(0.1 -0.1)">
      <defs>
       <path id="DejaVuSans-4d" d="M 628 4666 
L 1569 4666 
L 2759 1491 
L 3956 4666 
L 4897 4666 
L 4897 0 
L 4281 0 
L 4281 4097 
L 3078 897 
L 2444 897 
L 1241 4097 
L 1241 0 
L 628 0 
L 628 4666 
z
" transform="scale(0.015625)"/>
       <path id="DejaVuSans-53" d="M 3425 4513 
L 3425 3897 
Q 3066 4069 2747 4153 
Q 2428 4238 2131 4238 
Q 1616 4238 1336 4038 
Q 1056 3838 1056 3469 
Q 1056 3159 1242 3001 
Q 1428 2844 1947 2747 
L 2328 2669 
Q 3034 2534 3370 2195 
Q 3706 1856 3706 1288 
Q 3706 609 3251 259 
Q 2797 -91 1919 -91 
Q 1588 -91 1214 -16 
Q 841 59 441 206 
L 441 856 
Q 825 641 1194 531 
Q 1563 422 1919 422 
Q 2459 422 2753 634 
Q 3047 847 3047 1241 
Q 3047 1584 2836 1778 
Q 2625 1972 2144 2069 
L 1759 2144 
Q 1053 2284 737 2584 
Q 422 2884 422 3419 
Q 422 4038 858 4394 
Q 1294 4750 2059 4750 
Q 2388 4750 2728 4690 
Q 3069 4631 3425 4513 
z
" transform="scale(0.015625)"/>
      </defs>
      <use xlink:href="#DejaVuSans-4d"/>
      <use xlink:href="#DejaVuSans-43" x="86.279297"/>
      <use xlink:href="#DejaVuSans-53" x="156.103516"/>
      <use xlink:href="#DejaVuSans-20" x="219.580078"/>
      <use xlink:href="#DejaVuSans-53" x="251.367188"/>
      <use xlink:href="#DejaVuSans-61" x="314.84375"/>
      <use xlink:href="#DejaVuSans-6d" x="376.123047"/>
      <use xlink:href="#DejaVuSans-70" x="473.535156"/>
      <use xlink:href="#DejaVuSans-6c" x="537.011719"/>
      <use xlink:href="#DejaVuSans-65" x="564.794922"/>
     </g>
    </g>
   </g>
  </g>
 </g>
 <defs>
  <clipPath id="p973aae501f">
   <rect x="72" y="43.2" width="446.4" height="277.2"/>
  </clipPath>
 </defs>
</svg>
