<?xml version="1.0" encoding="utf-8" standalone="no"?>
<!DOCTYPE svg PUBLIC "-//W3C//DTD SVG 1.1//EN"
  "http://www.w3.org/Graphics/SVG/1.1/DTD/svg11.dtd">
<svg xmlns:xlink="http://www.w3.org/1999/xlink" width="576pt" height="360pt" viewBox="0 0 576 360" xmlns="http://www.w3.org/2000/svg" version="1.1">
 <metadata>
  <rdf:RDF xmlns:dc="http://purl.org/dc/elements/1.1/" xmlns:cc="http://creativecommons.org/ns#" xmlns:rdf="http://www.w3.org/1999/02/22-rdf-syntax-ns#">
   <cc:Work>
    <dc:type rdf:resource="http://purl.org/dc/dcmitype/StillImage"/>
    <dc:date>2024-10-25T10:19:47.130160</dc:date>
    <dc:format>image/svg+xml</dc:format>
    <dc:creator>
     <cc:Agent>
      <dc:title>Matplotlib v3.9.2, https://matplotlib.org/</dc:title>
     </cc:Agent>
    </dc:creator>
   </cc:Work>
  </rdf:RDF>
 </metadata>
 <defs>
  <style type="text/css">*{stroke-linejoin: round; stroke-linecap: butt}</style>
 </defs>
 <g id="figure_1">
  <g id="patch_1">
   <path d="M 0 360 
L 576 360 
L 576 0 
L 0 0 
z
" style="fill: #ffffff"/>
  </g>
  <g id="axes_1">
   <g id="patch_2">
    <path d="M 72 320.4 
L 518.4 320.4 
L 518.4 43.2 
L 72 43.2 
z
" style="fill: #ffffff"/>
   </g>
   <g id="matplotlib.axis_1">
    <g id="xtick_1">
     <g id="line2d_1">
      <path d="M 96.488702 320.4 
L 96.488702 43.2 
" clip-path="url(#p3562c5596f)" style="fill: none; stroke: #b0b0b0; stroke-width: 0.8; stroke-linecap: square"/>
     </g>
     <g id="line2d_2">
      <defs>
       <path id="m8c5a037356" d="M 0 0 
L 0 3.5 
" style="stroke: #000000; stroke-width: 0.8"/>
      </defs>
      <g>
       <use xlink:href="#m8c5a037356" x="96.488702" y="320.4" style="stroke: #000000; stroke-width: 0.8"/>
      </g>
     </g>
     <g id="text_1">
      <!-- 0 -->
      <g transform="translate(93.307452 334.998438) scale(0.1 -0.1)">
       <defs>
        <path id="DejaVuSans-30" d="M 2034 4250 
Q 1547 4250 1301 3770 
Q 1056 3291 1056 2328 
Q 1056 1369 1301 889 
Q 1547 409 2034 409 
Q 2525 409 2770 889 
Q 3016 1369 3016 2328 
Q 3016 3291 2770 3770 
Q 2525 4250 2034 4250 
z
M 2034 4750 
Q 2819 4750 3233 4129 
Q 3647 3509 3647 2328 
Q 3647 1150 3233 529 
Q 2819 -91 2034 -91 
Q 1250 -91 836 529 
Q 422 1150 422 2328 
Q 422 3509 836 4129 
Q 1250 4750 2034 4750 
z
" transform="scale(0.015625)"/>
       </defs>
       <use xlink:href="#DejaVuSans-30"/>
      </g>
     </g>
    </g>
    <g id="xtick_2">
     <g id="line2d_3">
      <path d="M 171.117658 320.4 
L 171.117658 43.2 
" clip-path="url(#p3562c5596f)" style="fill: none; stroke: #b0b0b0; stroke-width: 0.8; stroke-linecap: square"/>
     </g>
     <g id="line2d_4">
      <g>
       <use xlink:href="#m8c5a037356" x="171.117658" y="320.4" style="stroke: #000000; stroke-width: 0.8"/>
      </g>
     </g>
     <g id="text_2">
      <!-- 20000 -->
      <g transform="translate(155.211408 334.998438) scale(0.1 -0.1)">
       <defs>
        <path id="DejaVuSans-32" d="M 1228 531 
L 3431 531 
L 3431 0 
L 469 0 
L 469 531 
Q 828 903 1448 1529 
Q 2069 2156 2228 2338 
Q 2531 2678 2651 2914 
Q 2772 3150 2772 3378 
Q 2772 3750 2511 3984 
Q 2250 4219 1831 4219 
Q 1534 4219 1204 4116 
Q 875 4013 500 3803 
L 500 4441 
Q 881 4594 1212 4672 
Q 1544 4750 1819 4750 
Q 2544 4750 2975 4387 
Q 3406 4025 3406 3419 
Q 3406 3131 3298 2873 
Q 3191 2616 2906 2266 
Q 2828 2175 2409 1742 
Q 1991 1309 1228 531 
z
" transform="scale(0.015625)"/>
       </defs>
       <use xlink:href="#DejaVuSans-32"/>
       <use xlink:href="#DejaVuSans-30" x="63.623047"/>
       <use xlink:href="#DejaVuSans-30" x="127.246094"/>
       <use xlink:href="#DejaVuSans-30" x="190.869141"/>
       <use xlink:href="#DejaVuSans-30" x="254.492188"/>
      </g>
     </g>
    </g>
    <g id="xtick_3">
     <g id="line2d_5">
      <path d="M 245.746613 320.4 
L 245.746613 43.2 
" clip-path="url(#p3562c5596f)" style="fill: none; stroke: #b0b0b0; stroke-width: 0.8; stroke-linecap: square"/>
     </g>
     <g id="line2d_6">
      <g>
       <use xlink:href="#m8c5a037356" x="245.746613" y="320.4" style="stroke: #000000; stroke-width: 0.8"/>
      </g>
     </g>
     <g id="text_3">
      <!-- 40000 -->
      <g transform="translate(229.840363 334.998438) scale(0.1 -0.1)">
       <defs>
        <path id="DejaVuSans-34" d="M 2419 4116 
L 825 1625 
L 2419 1625 
L 2419 4116 
z
M 2253 4666 
L 3047 4666 
L 3047 1625 
L 3713 1625 
L 3713 1100 
L 3047 1100 
L 3047 0 
L 2419 0 
L 2419 1100 
L 313 1100 
L 313 1709 
L 2253 4666 
z
" transform="scale(0.015625)"/>
       </defs>
       <use xlink:href="#DejaVuSans-34"/>
       <use xlink:href="#DejaVuSans-30" x="63.623047"/>
       <use xlink:href="#DejaVuSans-30" x="127.246094"/>
       <use xlink:href="#DejaVuSans-30" x="190.869141"/>
       <use xlink:href="#DejaVuSans-30" x="254.492188"/>
      </g>
     </g>
    </g>
    <g id="xtick_4">
     <g id="line2d_7">
      <path d="M 320.375569 320.4 
L 320.375569 43.2 
" clip-path="url(#p3562c5596f)" style="fill: none; stroke: #b0b0b0; stroke-width: 0.8; stroke-linecap: square"/>
     </g>
     <g id="line2d_8">
      <g>
       <use xlink:href="#m8c5a037356" x="320.375569" y="320.4" style="stroke: #000000; stroke-width: 0.8"/>
      </g>
     </g>
     <g id="text_4">
      <!-- 60000 -->
      <g transform="translate(304.469319 334.998438) scale(0.1 -0.1)">
       <defs>
        <path id="DejaVuSans-36" d="M 2113 2584 
Q 1688 2584 1439 2293 
Q 1191 2003 1191 1497 
Q 1191 994 1439 701 
Q 1688 409 2113 409 
Q 2538 409 2786 701 
Q 3034 994 3034 1497 
Q 3034 2003 2786 2293 
Q 2538 2584 2113 2584 
z
M 3366 4563 
L 3366 3988 
Q 3128 4100 2886 4159 
Q 2644 4219 2406 4219 
Q 1781 4219 1451 3797 
Q 1122 3375 1075 2522 
Q 1259 2794 1537 2939 
Q 1816 3084 2150 3084 
Q 2853 3084 3261 2657 
Q 3669 2231 3669 1497 
Q 3669 778 3244 343 
Q 2819 -91 2113 -91 
Q 1303 -91 875 529 
Q 447 1150 447 2328 
Q 447 3434 972 4092 
Q 1497 4750 2381 4750 
Q 2619 4750 2861 4703 
Q 3103 4656 3366 4563 
z
" transform="scale(0.015625)"/>
       </defs>
       <use xlink:href="#DejaVuSans-36"/>
       <use xlink:href="#DejaVuSans-30" x="63.623047"/>
       <use xlink:href="#DejaVuSans-30" x="127.246094"/>
       <use xlink:href="#DejaVuSans-30" x="190.869141"/>
       <use xlink:href="#DejaVuSans-30" x="254.492188"/>
      </g>
     </g>
    </g>
    <g id="xtick_5">
     <g id="line2d_9">
      <path d="M 395.004524 320.4 
L 395.004524 43.2 
" clip-path="url(#p3562c5596f)" style="fill: none; stroke: #b0b0b0; stroke-width: 0.8; stroke-linecap: square"/>
     </g>
     <g id="line2d_10">
      <g>
       <use xlink:href="#m8c5a037356" x="395.004524" y="320.4" style="stroke: #000000; stroke-width: 0.8"/>
      </g>
     </g>
     <g id="text_5">
      <!-- 80000 -->
      <g transform="translate(379.098274 334.998438) scale(0.1 -0.1)">
       <defs>
        <path id="DejaVuSans-38" d="M 2034 2216 
Q 1584 2216 1326 1975 
Q 1069 1734 1069 1313 
Q 1069 891 1326 650 
Q 1584 409 2034 409 
Q 2484 409 2743 651 
Q 3003 894 3003 1313 
Q 3003 1734 2745 1975 
Q 2488 2216 2034 2216 
z
M 1403 2484 
Q 997 2584 770 2862 
Q 544 3141 544 3541 
Q 544 4100 942 4425 
Q 1341 4750 2034 4750 
Q 2731 4750 3128 4425 
Q 3525 4100 3525 3541 
Q 3525 3141 3298 2862 
Q 3072 2584 2669 2484 
Q 3125 2378 3379 2068 
Q 3634 1759 3634 1313 
Q 3634 634 3220 271 
Q 2806 -91 2034 -91 
Q 1263 -91 848 271 
Q 434 634 434 1313 
Q 434 1759 690 2068 
Q 947 2378 1403 2484 
z
M 1172 3481 
Q 1172 3119 1398 2916 
Q 1625 2713 2034 2713 
Q 2441 2713 2670 2916 
Q 2900 3119 2900 3481 
Q 2900 3844 2670 4047 
Q 2441 4250 2034 4250 
Q 1625 4250 1398 4047 
Q 1172 3844 1172 3481 
z
" transform="scale(0.015625)"/>
       </defs>
       <use xlink:href="#DejaVuSans-38"/>
       <use xlink:href="#DejaVuSans-30" x="63.623047"/>
       <use xlink:href="#DejaVuSans-30" x="127.246094"/>
       <use xlink:href="#DejaVuSans-30" x="190.869141"/>
       <use xlink:href="#DejaVuSans-30" x="254.492188"/>
      </g>
     </g>
    </g>
    <g id="xtick_6">
     <g id="line2d_11">
      <path d="M 469.63348 320.4 
L 469.63348 43.2 
" clip-path="url(#p3562c5596f)" style="fill: none; stroke: #b0b0b0; stroke-width: 0.8; stroke-linecap: square"/>
     </g>
     <g id="line2d_12">
      <g>
       <use xlink:href="#m8c5a037356" x="469.63348" y="320.4" style="stroke: #000000; stroke-width: 0.8"/>
      </g>
     </g>
     <g id="text_6">
      <!-- 100000 -->
      <g transform="translate(450.54598 334.998438) scale(0.1 -0.1)">
       <defs>
        <path id="DejaVuSans-31" d="M 794 531 
L 1825 531 
L 1825 4091 
L 703 3866 
L 703 4441 
L 1819 4666 
L 2450 4666 
L 2450 531 
L 3481 531 
L 3481 0 
L 794 0 
L 794 531 
z
" transform="scale(0.015625)"/>
       </defs>
       <use xlink:href="#DejaVuSans-31"/>
       <use xlink:href="#DejaVuSans-30" x="63.623047"/>
       <use xlink:href="#DejaVuSans-30" x="127.246094"/>
       <use xlink:href="#DejaVuSans-30" x="190.869141"/>
       <use xlink:href="#DejaVuSans-30" x="254.492188"/>
       <use xlink:href="#DejaVuSans-30" x="318.115234"/>
      </g>
     </g>
    </g>
    <g id="text_7">
     <!-- $Z(X_1,X_2)$ -->
     <g transform="translate(273.7 348.676562) scale(0.1 -0.1)">
      <defs>
       <path id="DejaVuSans-Oblique-5a" d="M 838 4666 
L 4500 4666 
L 4409 4184 
L 794 531 
L 3769 531 
L 3669 0 
L -141 0 
L -50 481 
L 3566 4134 
L 738 4134 
L 838 4666 
z
" transform="scale(0.015625)"/>
       <path id="DejaVuSans-28" d="M 1984 4856 
Q 1566 4138 1362 3434 
Q 1159 2731 1159 2009 
Q 1159 1288 1364 580 
Q 1569 -128 1984 -844 
L 1484 -844 
Q 1016 -109 783 600 
Q 550 1309 550 2009 
Q 550 2706 781 3412 
Q 1013 4119 1484 4856 
L 1984 4856 
z
" transform="scale(0.015625)"/>
       <path id="DejaVuSans-Oblique-58" d="M 878 4666 
L 1516 4666 
L 2316 2981 
L 3763 4666 
L 4500 4666 
L 2578 2438 
L 3738 0 
L 3103 0 
L 2163 1966 
L 459 0 
L -275 0 
L 1906 2509 
L 878 4666 
z
" transform="scale(0.015625)"/>
       <path id="DejaVuSans-2c" d="M 750 794 
L 1409 794 
L 1409 256 
L 897 -744 
L 494 -744 
L 750 256 
L 750 794 
z
" transform="scale(0.015625)"/>
       <path id="DejaVuSans-29" d="M 513 4856 
L 1013 4856 
Q 1481 4119 1714 3412 
Q 1947 2706 1947 2009 
Q 1947 1309 1714 600 
Q 1481 -109 1013 -844 
L 513 -844 
Q 928 -128 1133 580 
Q 1338 1288 1338 2009 
Q 1338 2731 1133 3434 
Q 928 4138 513 4856 
z
" transform="scale(0.015625)"/>
      </defs>
      <use xlink:href="#DejaVuSans-Oblique-5a" transform="translate(0 0.125)"/>
      <use xlink:href="#DejaVuSans-28" transform="translate(68.505859 0.125)"/>
      <use xlink:href="#DejaVuSans-Oblique-58" transform="translate(107.519531 0.125)"/>
      <use xlink:href="#DejaVuSans-31" transform="translate(176.025391 -16.28125) scale(0.7)"/>
      <use xlink:href="#DejaVuSans-2c" transform="translate(223.295898 0.125)"/>
      <use xlink:href="#DejaVuSans-Oblique-58" transform="translate(274.56543 0.125)"/>
      <use xlink:href="#DejaVuSans-32" transform="translate(343.071289 -16.28125) scale(0.7)"/>
      <use xlink:href="#DejaVuSans-29" transform="translate(390.341797 0.125)"/>
     </g>
    </g>
   </g>
   <g id="matplotlib.axis_2">
    <g id="ytick_1">
     <g id="line2d_13">
      <path d="M 72 285.994397 
L 518.4 285.994397 
" clip-path="url(#p3562c5596f)" style="fill: none; stroke: #b0b0b0; stroke-width: 0.8; stroke-linecap: square"/>
     </g>
     <g id="line2d_14">
      <defs>
       <path id="mf01a653839" d="M 0 0 
L -3.5 0 
" style="stroke: #000000; stroke-width: 0.8"/>
      </defs>
      <g>
       <use xlink:href="#mf01a653839" x="72" y="285.994397" style="stroke: #000000; stroke-width: 0.8"/>
      </g>
     </g>
     <g id="text_8">
      <!-- $\mathdefault{10^{-5}}$ -->
      <g transform="translate(41.5 289.793616) scale(0.1 -0.1)">
       <defs>
        <path id="DejaVuSans-2212" d="M 678 2272 
L 4684 2272 
L 4684 1741 
L 678 1741 
L 678 2272 
z
" transform="scale(0.015625)"/>
        <path id="DejaVuSans-35" d="M 691 4666 
L 3169 4666 
L 3169 4134 
L 1269 4134 
L 1269 2991 
Q 1406 3038 1543 3061 
Q 1681 3084 1819 3084 
Q 2600 3084 3056 2656 
Q 3513 2228 3513 1497 
Q 3513 744 3044 326 
Q 2575 -91 1722 -91 
Q 1428 -91 1123 -41 
Q 819 9 494 109 
L 494 744 
Q 775 591 1075 516 
Q 1375 441 1709 441 
Q 2250 441 2565 725 
Q 2881 1009 2881 1497 
Q 2881 1984 2565 2268 
Q 2250 2553 1709 2553 
Q 1456 2553 1204 2497 
Q 953 2441 691 2322 
L 691 4666 
z
" transform="scale(0.015625)"/>
       </defs>
       <use xlink:href="#DejaVuSans-31" transform="translate(0 0.684375)"/>
       <use xlink:href="#DejaVuSans-30" transform="translate(63.623047 0.684375)"/>
       <use xlink:href="#DejaVuSans-2212" transform="translate(128.203125 38.965625) scale(0.7)"/>
       <use xlink:href="#DejaVuSans-35" transform="translate(186.855469 38.965625) scale(0.7)"/>
      </g>
     </g>
    </g>
    <g id="ytick_2">
     <g id="line2d_15">
      <path d="M 72 239.955504 
L 518.4 239.955504 
" clip-path="url(#p3562c5596f)" style="fill: none; stroke: #b0b0b0; stroke-width: 0.8; stroke-linecap: square"/>
     </g>
     <g id="line2d_16">
      <g>
       <use xlink:href="#mf01a653839" x="72" y="239.955504" style="stroke: #000000; stroke-width: 0.8"/>
      </g>
     </g>
     <g id="text_9">
      <!-- $\mathdefault{10^{-4}}$ -->
      <g transform="translate(41.5 243.754723) scale(0.1 -0.1)">
       <use xlink:href="#DejaVuSans-31" transform="translate(0 0.684375)"/>
       <use xlink:href="#DejaVuSans-30" transform="translate(63.623047 0.684375)"/>
       <use xlink:href="#DejaVuSans-2212" transform="translate(128.203125 38.965625) scale(0.7)"/>
       <use xlink:href="#DejaVuSans-34" transform="translate(186.855469 38.965625) scale(0.7)"/>
      </g>
     </g>
    </g>
    <g id="ytick_3">
     <g id="line2d_17">
      <path d="M 72 193.916611 
L 518.4 193.916611 
" clip-path="url(#p3562c5596f)" style="fill: none; stroke: #b0b0b0; stroke-width: 0.8; stroke-linecap: square"/>
     </g>
     <g id="line2d_18">
      <g>
       <use xlink:href="#mf01a653839" x="72" y="193.916611" style="stroke: #000000; stroke-width: 0.8"/>
      </g>
     </g>
     <g id="text_10">
      <!-- $\mathdefault{10^{-3}}$ -->
      <g transform="translate(41.5 197.71583) scale(0.1 -0.1)">
       <defs>
        <path id="DejaVuSans-33" d="M 2597 2516 
Q 3050 2419 3304 2112 
Q 3559 1806 3559 1356 
Q 3559 666 3084 287 
Q 2609 -91 1734 -91 
Q 1441 -91 1130 -33 
Q 819 25 488 141 
L 488 750 
Q 750 597 1062 519 
Q 1375 441 1716 441 
Q 2309 441 2620 675 
Q 2931 909 2931 1356 
Q 2931 1769 2642 2001 
Q 2353 2234 1838 2234 
L 1294 2234 
L 1294 2753 
L 1863 2753 
Q 2328 2753 2575 2939 
Q 2822 3125 2822 3475 
Q 2822 3834 2567 4026 
Q 2313 4219 1838 4219 
Q 1578 4219 1281 4162 
Q 984 4106 628 3988 
L 628 4550 
Q 988 4650 1302 4700 
Q 1616 4750 1894 4750 
Q 2613 4750 3031 4423 
Q 3450 4097 3450 3541 
Q 3450 3153 3228 2886 
Q 3006 2619 2597 2516 
z
" transform="scale(0.015625)"/>
       </defs>
       <use xlink:href="#DejaVuSans-31" transform="translate(0 0.765625)"/>
       <use xlink:href="#DejaVuSans-30" transform="translate(63.623047 0.765625)"/>
       <use xlink:href="#DejaVuSans-2212" transform="translate(128.203125 39.046875) scale(0.7)"/>
       <use xlink:href="#DejaVuSans-33" transform="translate(186.855469 39.046875) scale(0.7)"/>
      </g>
     </g>
    </g>
    <g id="ytick_4">
     <g id="line2d_19">
      <path d="M 72 147.877719 
L 518.4 147.877719 
" clip-path="url(#p3562c5596f)" style="fill: none; stroke: #b0b0b0; stroke-width: 0.8; stroke-linecap: square"/>
     </g>
     <g id="line2d_20">
      <g>
       <use xlink:href="#mf01a653839" x="72" y="147.877719" style="stroke: #000000; stroke-width: 0.8"/>
      </g>
     </g>
     <g id="text_11">
      <!-- $\mathdefault{10^{-2}}$ -->
      <g transform="translate(41.5 151.676937) scale(0.1 -0.1)">
       <use xlink:href="#DejaVuSans-31" transform="translate(0 0.765625)"/>
       <use xlink:href="#DejaVuSans-30" transform="translate(63.623047 0.765625)"/>
       <use xlink:href="#DejaVuSans-2212" transform="translate(128.203125 39.046875) scale(0.7)"/>
       <use xlink:href="#DejaVuSans-32" transform="translate(186.855469 39.046875) scale(0.7)"/>
      </g>
     </g>
    </g>
    <g id="ytick_5">
     <g id="line2d_21">
      <path d="M 72 101.838826 
L 518.4 101.838826 
" clip-path="url(#p3562c5596f)" style="fill: none; stroke: #b0b0b0; stroke-width: 0.8; stroke-linecap: square"/>
     </g>
     <g id="line2d_22">
      <g>
       <use xlink:href="#mf01a653839" x="72" y="101.838826" style="stroke: #000000; stroke-width: 0.8"/>
      </g>
     </g>
     <g id="text_12">
      <!-- $\mathdefault{10^{-1}}$ -->
      <g transform="translate(41.5 105.638044) scale(0.1 -0.1)">
       <use xlink:href="#DejaVuSans-31" transform="translate(0 0.684375)"/>
       <use xlink:href="#DejaVuSans-30" transform="translate(63.623047 0.684375)"/>
       <use xlink:href="#DejaVuSans-2212" transform="translate(128.203125 38.965625) scale(0.7)"/>
       <use xlink:href="#DejaVuSans-31" transform="translate(186.855469 38.965625) scale(0.7)"/>
      </g>
     </g>
    </g>
    <g id="ytick_6">
     <g id="line2d_23">
      <path d="M 72 55.799933 
L 518.4 55.799933 
" clip-path="url(#p3562c5596f)" style="fill: none; stroke: #b0b0b0; stroke-width: 0.8; stroke-linecap: square"/>
     </g>
     <g id="line2d_24">
      <g>
       <use xlink:href="#mf01a653839" x="72" y="55.799933" style="stroke: #000000; stroke-width: 0.8"/>
      </g>
     </g>
     <g id="text_13">
      <!-- $\mathdefault{10^{0}}$ -->
      <g transform="translate(47.4 59.599152) scale(0.1 -0.1)">
       <use xlink:href="#DejaVuSans-31" transform="translate(0 0.765625)"/>
       <use xlink:href="#DejaVuSans-30" transform="translate(63.623047 0.765625)"/>
       <use xlink:href="#DejaVuSans-30" transform="translate(128.203125 39.046875) scale(0.7)"/>
      </g>
     </g>
    </g>
    <g id="ytick_7">
     <g id="line2d_25">
      <defs>
       <path id="m1435830770" d="M 0 0 
L -2 0 
" style="stroke: #000000; stroke-width: 0.6"/>
      </defs>
      <g>
       <use xlink:href="#m1435830770" x="72" y="318.174202" style="stroke: #000000; stroke-width: 0.6"/>
      </g>
     </g>
    </g>
    <g id="ytick_8">
     <g id="line2d_26">
      <g>
       <use xlink:href="#m1435830770" x="72" y="310.067156" style="stroke: #000000; stroke-width: 0.6"/>
      </g>
     </g>
    </g>
    <g id="ytick_9">
     <g id="line2d_27">
      <g>
       <use xlink:href="#m1435830770" x="72" y="304.315115" style="stroke: #000000; stroke-width: 0.6"/>
      </g>
     </g>
    </g>
    <g id="ytick_10">
     <g id="line2d_28">
      <g>
       <use xlink:href="#m1435830770" x="72" y="299.853485" style="stroke: #000000; stroke-width: 0.6"/>
      </g>
     </g>
    </g>
    <g id="ytick_11">
     <g id="line2d_29">
      <g>
       <use xlink:href="#m1435830770" x="72" y="296.208068" style="stroke: #000000; stroke-width: 0.6"/>
      </g>
     </g>
    </g>
    <g id="ytick_12">
     <g id="line2d_30">
      <g>
       <use xlink:href="#m1435830770" x="72" y="293.125912" style="stroke: #000000; stroke-width: 0.6"/>
      </g>
     </g>
    </g>
    <g id="ytick_13">
     <g id="line2d_31">
      <g>
       <use xlink:href="#m1435830770" x="72" y="290.456027" style="stroke: #000000; stroke-width: 0.6"/>
      </g>
     </g>
    </g>
    <g id="ytick_14">
     <g id="line2d_32">
      <g>
       <use xlink:href="#m1435830770" x="72" y="288.101021" style="stroke: #000000; stroke-width: 0.6"/>
      </g>
     </g>
    </g>
    <g id="ytick_15">
     <g id="line2d_33">
      <g>
       <use xlink:href="#m1435830770" x="72" y="272.13531" style="stroke: #000000; stroke-width: 0.6"/>
      </g>
     </g>
    </g>
    <g id="ytick_16">
     <g id="line2d_34">
      <g>
       <use xlink:href="#m1435830770" x="72" y="264.028263" style="stroke: #000000; stroke-width: 0.6"/>
      </g>
     </g>
    </g>
    <g id="ytick_17">
     <g id="line2d_35">
      <g>
       <use xlink:href="#m1435830770" x="72" y="258.276222" style="stroke: #000000; stroke-width: 0.6"/>
      </g>
     </g>
    </g>
    <g id="ytick_18">
     <g id="line2d_36">
      <g>
       <use xlink:href="#m1435830770" x="72" y="253.814592" style="stroke: #000000; stroke-width: 0.6"/>
      </g>
     </g>
    </g>
    <g id="ytick_19">
     <g id="line2d_37">
      <g>
       <use xlink:href="#m1435830770" x="72" y="250.169175" style="stroke: #000000; stroke-width: 0.6"/>
      </g>
     </g>
    </g>
    <g id="ytick_20">
     <g id="line2d_38">
      <g>
       <use xlink:href="#m1435830770" x="72" y="247.087019" style="stroke: #000000; stroke-width: 0.6"/>
      </g>
     </g>
    </g>
    <g id="ytick_21">
     <g id="line2d_39">
      <g>
       <use xlink:href="#m1435830770" x="72" y="244.417134" style="stroke: #000000; stroke-width: 0.6"/>
      </g>
     </g>
    </g>
    <g id="ytick_22">
     <g id="line2d_40">
      <g>
       <use xlink:href="#m1435830770" x="72" y="242.062129" style="stroke: #000000; stroke-width: 0.6"/>
      </g>
     </g>
    </g>
    <g id="ytick_23">
     <g id="line2d_41">
      <g>
       <use xlink:href="#m1435830770" x="72" y="226.096417" style="stroke: #000000; stroke-width: 0.6"/>
      </g>
     </g>
    </g>
    <g id="ytick_24">
     <g id="line2d_42">
      <g>
       <use xlink:href="#m1435830770" x="72" y="217.98937" style="stroke: #000000; stroke-width: 0.6"/>
      </g>
     </g>
    </g>
    <g id="ytick_25">
     <g id="line2d_43">
      <g>
       <use xlink:href="#m1435830770" x="72" y="212.237329" style="stroke: #000000; stroke-width: 0.6"/>
      </g>
     </g>
    </g>
    <g id="ytick_26">
     <g id="line2d_44">
      <g>
       <use xlink:href="#m1435830770" x="72" y="207.775699" style="stroke: #000000; stroke-width: 0.6"/>
      </g>
     </g>
    </g>
    <g id="ytick_27">
     <g id="line2d_45">
      <g>
       <use xlink:href="#m1435830770" x="72" y="204.130282" style="stroke: #000000; stroke-width: 0.6"/>
      </g>
     </g>
    </g>
    <g id="ytick_28">
     <g id="line2d_46">
      <g>
       <use xlink:href="#m1435830770" x="72" y="201.048126" style="stroke: #000000; stroke-width: 0.6"/>
      </g>
     </g>
    </g>
    <g id="ytick_29">
     <g id="line2d_47">
      <g>
       <use xlink:href="#m1435830770" x="72" y="198.378241" style="stroke: #000000; stroke-width: 0.6"/>
      </g>
     </g>
    </g>
    <g id="ytick_30">
     <g id="line2d_48">
      <g>
       <use xlink:href="#m1435830770" x="72" y="196.023236" style="stroke: #000000; stroke-width: 0.6"/>
      </g>
     </g>
    </g>
    <g id="ytick_31">
     <g id="line2d_49">
      <g>
       <use xlink:href="#m1435830770" x="72" y="180.057524" style="stroke: #000000; stroke-width: 0.6"/>
      </g>
     </g>
    </g>
    <g id="ytick_32">
     <g id="line2d_50">
      <g>
       <use xlink:href="#m1435830770" x="72" y="171.950477" style="stroke: #000000; stroke-width: 0.6"/>
      </g>
     </g>
    </g>
    <g id="ytick_33">
     <g id="line2d_51">
      <g>
       <use xlink:href="#m1435830770" x="72" y="166.198436" style="stroke: #000000; stroke-width: 0.6"/>
      </g>
     </g>
    </g>
    <g id="ytick_34">
     <g id="line2d_52">
      <g>
       <use xlink:href="#m1435830770" x="72" y="161.736806" style="stroke: #000000; stroke-width: 0.6"/>
      </g>
     </g>
    </g>
    <g id="ytick_35">
     <g id="line2d_53">
      <g>
       <use xlink:href="#m1435830770" x="72" y="158.091389" style="stroke: #000000; stroke-width: 0.6"/>
      </g>
     </g>
    </g>
    <g id="ytick_36">
     <g id="line2d_54">
      <g>
       <use xlink:href="#m1435830770" x="72" y="155.009233" style="stroke: #000000; stroke-width: 0.6"/>
      </g>
     </g>
    </g>
    <g id="ytick_37">
     <g id="line2d_55">
      <g>
       <use xlink:href="#m1435830770" x="72" y="152.339348" style="stroke: #000000; stroke-width: 0.6"/>
      </g>
     </g>
    </g>
    <g id="ytick_38">
     <g id="line2d_56">
      <g>
       <use xlink:href="#m1435830770" x="72" y="149.984343" style="stroke: #000000; stroke-width: 0.6"/>
      </g>
     </g>
    </g>
    <g id="ytick_39">
     <g id="line2d_57">
      <g>
       <use xlink:href="#m1435830770" x="72" y="134.018631" style="stroke: #000000; stroke-width: 0.6"/>
      </g>
     </g>
    </g>
    <g id="ytick_40">
     <g id="line2d_58">
      <g>
       <use xlink:href="#m1435830770" x="72" y="125.911584" style="stroke: #000000; stroke-width: 0.6"/>
      </g>
     </g>
    </g>
    <g id="ytick_41">
     <g id="line2d_59">
      <g>
       <use xlink:href="#m1435830770" x="72" y="120.159543" style="stroke: #000000; stroke-width: 0.6"/>
      </g>
     </g>
    </g>
    <g id="ytick_42">
     <g id="line2d_60">
      <g>
       <use xlink:href="#m1435830770" x="72" y="115.697913" style="stroke: #000000; stroke-width: 0.6"/>
      </g>
     </g>
    </g>
    <g id="ytick_43">
     <g id="line2d_61">
      <g>
       <use xlink:href="#m1435830770" x="72" y="112.052497" style="stroke: #000000; stroke-width: 0.6"/>
      </g>
     </g>
    </g>
    <g id="ytick_44">
     <g id="line2d_62">
      <g>
       <use xlink:href="#m1435830770" x="72" y="108.97034" style="stroke: #000000; stroke-width: 0.6"/>
      </g>
     </g>
    </g>
    <g id="ytick_45">
     <g id="line2d_63">
      <g>
       <use xlink:href="#m1435830770" x="72" y="106.300455" style="stroke: #000000; stroke-width: 0.6"/>
      </g>
     </g>
    </g>
    <g id="ytick_46">
     <g id="line2d_64">
      <g>
       <use xlink:href="#m1435830770" x="72" y="103.94545" style="stroke: #000000; stroke-width: 0.6"/>
      </g>
     </g>
    </g>
    <g id="ytick_47">
     <g id="line2d_65">
      <g>
       <use xlink:href="#m1435830770" x="72" y="87.979738" style="stroke: #000000; stroke-width: 0.6"/>
      </g>
     </g>
    </g>
    <g id="ytick_48">
     <g id="line2d_66">
      <g>
       <use xlink:href="#m1435830770" x="72" y="79.872691" style="stroke: #000000; stroke-width: 0.6"/>
      </g>
     </g>
    </g>
    <g id="ytick_49">
     <g id="line2d_67">
      <g>
       <use xlink:href="#m1435830770" x="72" y="74.12065" style="stroke: #000000; stroke-width: 0.6"/>
      </g>
     </g>
    </g>
    <g id="ytick_50">
     <g id="line2d_68">
      <g>
       <use xlink:href="#m1435830770" x="72" y="69.659021" style="stroke: #000000; stroke-width: 0.6"/>
      </g>
     </g>
    </g>
    <g id="ytick_51">
     <g id="line2d_69">
      <g>
       <use xlink:href="#m1435830770" x="72" y="66.013604" style="stroke: #000000; stroke-width: 0.6"/>
      </g>
     </g>
    </g>
    <g id="ytick_52">
     <g id="line2d_70">
      <g>
       <use xlink:href="#m1435830770" x="72" y="62.931448" style="stroke: #000000; stroke-width: 0.6"/>
      </g>
     </g>
    </g>
    <g id="ytick_53">
     <g id="line2d_71">
      <g>
       <use xlink:href="#m1435830770" x="72" y="60.261563" style="stroke: #000000; stroke-width: 0.6"/>
      </g>
     </g>
    </g>
    <g id="ytick_54">
     <g id="line2d_72">
      <g>
       <use xlink:href="#m1435830770" x="72" y="57.906557" style="stroke: #000000; stroke-width: 0.6"/>
      </g>
     </g>
    </g>
    <g id="text_14">
     <!-- CDF, $\mathrm{P}[Z &lt; z]$ -->
     <g transform="translate(35.420312 214.3) rotate(-90) scale(0.1 -0.1)">
      <defs>
       <path id="DejaVuSans-43" d="M 4122 4306 
L 4122 3641 
Q 3803 3938 3442 4084 
Q 3081 4231 2675 4231 
Q 1875 4231 1450 3742 
Q 1025 3253 1025 2328 
Q 1025 1406 1450 917 
Q 1875 428 2675 428 
Q 3081 428 3442 575 
Q 3803 722 4122 1019 
L 4122 359 
Q 3791 134 3420 21 
Q 3050 -91 2638 -91 
Q 1578 -91 968 557 
Q 359 1206 359 2328 
Q 359 3453 968 4101 
Q 1578 4750 2638 4750 
Q 3056 4750 3426 4639 
Q 3797 4528 4122 4306 
z
" transform="scale(0.015625)"/>
       <path id="DejaVuSans-44" d="M 1259 4147 
L 1259 519 
L 2022 519 
Q 2988 519 3436 956 
Q 3884 1394 3884 2338 
Q 3884 3275 3436 3711 
Q 2988 4147 2022 4147 
L 1259 4147 
z
M 628 4666 
L 1925 4666 
Q 3281 4666 3915 4102 
Q 4550 3538 4550 2338 
Q 4550 1131 3912 565 
Q 3275 0 1925 0 
L 628 0 
L 628 4666 
z
" transform="scale(0.015625)"/>
       <path id="DejaVuSans-46" d="M 628 4666 
L 3309 4666 
L 3309 4134 
L 1259 4134 
L 1259 2759 
L 3109 2759 
L 3109 2228 
L 1259 2228 
L 1259 0 
L 628 0 
L 628 4666 
z
" transform="scale(0.015625)"/>
       <path id="DejaVuSans-20" transform="scale(0.015625)"/>
       <path id="DejaVuSans-50" d="M 1259 4147 
L 1259 2394 
L 2053 2394 
Q 2494 2394 2734 2622 
Q 2975 2850 2975 3272 
Q 2975 3691 2734 3919 
Q 2494 4147 2053 4147 
L 1259 4147 
z
M 628 4666 
L 2053 4666 
Q 2838 4666 3239 4311 
Q 3641 3956 3641 3272 
Q 3641 2581 3239 2228 
Q 2838 1875 2053 1875 
L 1259 1875 
L 1259 0 
L 628 0 
L 628 4666 
z
" transform="scale(0.015625)"/>
       <path id="DejaVuSans-5b" d="M 550 4863 
L 1875 4863 
L 1875 4416 
L 1125 4416 
L 1125 -397 
L 1875 -397 
L 1875 -844 
L 550 -844 
L 550 4863 
z
" transform="scale(0.015625)"/>
       <path id="DejaVuSans-3c" d="M 4684 3150 
L 1459 2003 
L 4684 863 
L 4684 294 
L 678 1747 
L 678 2266 
L 4684 3719 
L 4684 3150 
z
" transform="scale(0.015625)"/>
       <path id="DejaVuSans-Oblique-7a" d="M 744 3500 
L 3475 3500 
L 3372 2975 
L 738 459 
L 2913 459 
L 2822 0 
L -19 0 
L 84 525 
L 2719 3041 
L 653 3041 
L 744 3500 
z
" transform="scale(0.015625)"/>
       <path id="DejaVuSans-5d" d="M 1947 4863 
L 1947 -844 
L 622 -844 
L 622 -397 
L 1369 -397 
L 1369 4416 
L 622 4416 
L 622 4863 
L 1947 4863 
z
" transform="scale(0.015625)"/>
      </defs>
      <use xlink:href="#DejaVuSans-43" transform="translate(0 0.015625)"/>
      <use xlink:href="#DejaVuSans-44" transform="translate(69.824219 0.015625)"/>
      <use xlink:href="#DejaVuSans-46" transform="translate(146.826172 0.015625)"/>
      <use xlink:href="#DejaVuSans-2c" transform="translate(204.345703 0.015625)"/>
      <use xlink:href="#DejaVuSans-20" transform="translate(236.132812 0.015625)"/>
      <use xlink:href="#DejaVuSans-50" transform="translate(267.919922 0.015625)"/>
      <use xlink:href="#DejaVuSans-5b" transform="translate(328.222656 0.015625)"/>
      <use xlink:href="#DejaVuSans-Oblique-5a" transform="translate(367.236328 0.015625)"/>
      <use xlink:href="#DejaVuSans-3c" transform="translate(455.224609 0.015625)"/>
      <use xlink:href="#DejaVuSans-Oblique-7a" transform="translate(558.496094 0.015625)"/>
      <use xlink:href="#DejaVuSans-5d" transform="translate(610.986328 0.015625)"/>
     </g>
    </g>
   </g>
   <g id="line2d_73">
    <path d="M 113.477984 215.728864 
L 113.477984 201.869777 
L 115.612372 201.869777 
L 115.612372 193.76273 
L 117.511679 193.76273 
L 117.511679 188.010689 
L 118.664696 188.010689 
L 118.664696 183.549059 
L 119.11247 183.549059 
L 119.11247 179.903642 
L 119.496809 179.903642 
L 119.496809 176.821486 
L 120.47818 176.821486 
L 120.47818 174.151601 
L 120.925954 174.151601 
L 120.925954 171.796596 
L 121.075212 171.796596 
L 121.0976 166.044555 
L 121.459551 166.044555 
L 121.459551 162.962399 
L 121.608809 162.962399 
L 121.608809 161.582925 
L 121.929713 161.582925 
L 121.993148 157.937508 
L 122.142406 157.937508 
L 122.142406 153.92521 
L 122.676003 153.92521 
L 122.676003 153.036423 
L 122.825261 153.036423 
L 122.825261 150.585058 
L 123.060342 150.585058 
L 123.060342 149.830461 
L 123.2096 149.830461 
L 123.295423 147.723837 
L 123.358858 147.723837 
L 123.358858 144.641681 
L 123.593939 144.641681 
L 123.593939 144.07842 
L 123.892455 144.07842 
L 124.000667 142.478011 
L 124.276794 142.478011 
L 124.362617 141.478081 
L 124.426052 141.478081 
L 124.426052 140.996264 
L 124.57531 140.996264 
L 124.661133 137.114224 
L 124.810391 137.114224 
L 124.918603 135.604493 
L 124.959649 135.604493 
L 124.982037 134.542592 
L 125.19473 134.542592 
L 125.19473 134.200798 
L 125.343988 134.200798 
L 125.343988 131.959076 
L 125.493246 131.959076 
L 125.493246 131.362183 
L 125.877585 131.362183 
L 125.899974 130.219333 
L 126.026843 130.219333 
L 126.026843 129.671506 
L 126.176101 129.671506 
L 126.176101 128.87692 
L 126.325359 128.87692 
L 126.411182 127.618994 
L 126.709698 127.618994 
L 126.709698 126.435545 
L 126.858956 126.435545 
L 126.967168 125.757703 
L 127.030602 125.757703 
L 127.116426 124.260093 
L 127.243295 124.260093 
L 127.243295 123.85203 
L 127.392553 123.85203 
L 127.500765 123.060067 
L 127.627634 123.060067 
L 127.627634 122.486025 
L 127.92615 122.486025 
L 128.011973 122.112286 
L 128.161231 122.112286 
L 128.161231 121.745405 
L 128.310489 121.745405 
L 128.418701 121.207406 
L 128.459747 121.207406 
L 128.459747 121.031242 
L 128.609005 121.031242 
L 128.631393 120.511877 
L 128.844086 120.511877 
L 128.844086 119.511947 
L 128.993344 119.511947 
L 128.993344 118.71525 
L 129.377683 118.71525 
L 129.377683 118.252038 
L 129.526941 118.252038 
L 129.54933 117.650656 
L 129.676199 117.650656 
L 129.784411 117.356615 
L 129.825457 117.356615 
L 129.91128 116.923506 
L 130.060538 116.923506 
L 130.16875 116.49958 
L 130.209796 116.49958 
L 130.209796 115.947974 
L 130.359054 115.947974 
L 130.359054 115.812418 
L 130.5307 115.812418 
L 130.594135 114.888418 
L 130.743393 114.888418 
L 130.829216 114.129044 
L 130.892651 114.129044 
L 130.892651 113.882196 
L 131.127732 113.882196 
L 131.213555 113.397459 
L 131.27699 113.397459 
L 131.27699 112.80761 
L 131.426248 112.80761 
L 131.448636 112.576458 
L 131.575506 112.576458 
L 131.661329 111.898615 
L 131.810587 111.898615 
L 131.810587 111.787842 
L 131.89641 111.568121 
L 131.959845 111.568121 
L 131.959845 111.459159 
L 131.959845 111.350788 
L 132.452396 111.243001 
L 132.493442 110.608204 
L 132.6427 110.504336 
L 132.6427 110.09418 
L 132.963604 109.992942 
L 133.027039 109.396049 
L 133.176297 109.298276 
L 133.176297 109.007795 
L 133.347943 108.911898 
L 133.456155 108.721473 
L 133.560636 108.721473 
L 133.560636 108.626937 
L 133.560636 108.532845 
L 133.709894 108.532845 
L 133.709894 108.439194 
L 133.754671 108.253198 
L 133.88154 108.160845 
L 133.989752 107.977409 
L 134.094233 107.977409 
L 134.094233 107.886318 
L 134.094233 107.436985 
L 134.243491 107.436985 
L 134.243491 107.348318 
L 134.243491 106.910786 
L 134.392749 106.910786 
L 134.392749 106.824417 
L 134.392749 106.652789 
L 134.62783 106.567525 
L 134.713653 105.980644 
L 134.926346 105.898193 
L 134.926346 105.898193 
L 134.926346 105.81608 
L 135.075604 105.81608 
L 135.075604 105.734303 
L 135.161427 105.49096 
L 135.310685 105.410499 
L 135.396508 105.171042 
L 135.609201 105.091856 
L 135.717413 104.856163 
L 135.844282 104.778212 
L 135.952494 104.39295 
L 135.99354 104.39295 
L 135.99354 104.316781 
L 136.015929 103.940227 
L 136.142798 103.940227 
L 136.142798 103.86576 
L 136.228621 103.570633 
L 136.377879 103.570633 
L 136.377879 103.497527 
L 136.463702 103.352113 
L 136.549526 103.2798 
L 136.549526 103.207748 
L 136.676395 103.207748 
L 136.676395 103.135955 
L 136.784607 102.851331 
L 136.848041 102.780804 
L 136.911476 102.501157 
L 137.060734 102.501157 
L 137.060734 102.431852 
L 137.146557 102.020993 
L 137.209992 102.020993 
L 137.209992 101.95333 
L 137.318204 101.684944 
L 137.35925 101.684944 
L 137.35925 101.618407 
L 137.35925 101.35445 
L 137.594331 101.289002 
L 137.680154 100.900748 
L 137.892847 100.836766 
L 137.892847 100.646039 
L 138.127928 100.582865 
L 138.127928 100.332148 
L 138.448832 100.269957 
L 138.448832 100.207958 
L 138.661525 100.146152 
L 138.747348 99.96187 
L 138.960041 99.900818 
L 138.960041 99.718773 
L 139.217511 99.658458 
L 139.280945 99.538371 
L 139.34438 99.538371 
L 139.34438 99.478597 
L 139.452592 99.359582 
L 139.687673 99.300339 
L 139.687673 99.241272 
L 139.877977 99.182378 
L 139.877977 99.00673 
L 140.262316 98.948522 
L 140.370528 98.659997 
L 140.411574 98.659997 
L 140.411574 98.602788 
L 140.456351 98.432138 
L 140.560832 98.432138 
L 140.560832 98.375576 
L 140.669044 98.206846 
L 140.859348 98.150917 
L 140.96756 97.873598 
L 141.094429 97.818592 
L 141.094429 97.763738 
L 141.094429 97.600072 
L 141.243687 97.600072 
L 141.243687 97.4917 
L 141.32951 97.223315 
L 141.392945 97.223315 
L 141.392945 97.116961 
L 141.392945 97.063996 
L 141.736238 96.958484 
L 141.777284 96.853526 
L 141.971319 96.749116 
L 142.0758 96.593517 
L 142.247446 96.490452 
L 142.310881 96.184409 
L 142.460139 96.083427 
L 142.568351 95.88298 
L 142.69522 95.783505 
L 142.781043 95.684522 
L 142.844478 95.684522 
L 142.844478 95.586027 
L 142.844478 95.536961 
L 143.142994 95.439188 
L 143.251206 95.196829 
L 143.378075 95.196829 
L 143.378075 95.100701 
L 143.44151 94.957371 
L 143.549722 94.909822 
L 143.549722 94.862386 
L 143.657934 94.720748 
L 143.825849 94.673758 
L 143.825849 94.626877 
L 143.911672 94.394111 
L 144.06093 94.301757 
L 144.083319 94.118321 
L 144.210188 94.118321 
L 144.210188 94.02723 
L 144.210188 93.891367 
L 144.359446 93.891367 
L 144.359446 93.801302 
L 144.445269 93.71164 
L 144.594527 93.66696 
L 144.594527 93.622379 
L 144.594527 93.577898 
L 145.001255 93.48923 
L 145.087078 93.356963 
L 145.150513 93.269267 
L 145.213947 93.181955 
L 145.42664 93.138442 
L 145.42664 93.095023 
L 145.42664 93.051698 
L 145.661721 92.965329 
L 145.661721 92.922284 
L 145.810979 92.922284 
L 145.810979 92.836471 
L 145.896802 92.708437 
L 146.344576 92.623535 
L 146.452788 92.538992 
L 146.624435 92.454805 
L 146.66548 92.370971 
L 146.900562 92.287486 
L 146.900562 92.245875 
L 147.027431 92.245875 
L 147.027431 92.16291 
L 147.027431 92.121556 
L 147.176689 92.121556 
L 147.176689 92.039105 
L 147.176689 91.998007 
L 147.348335 91.956992 
L 147.348335 91.916062 
L 147.41177 91.793771 
L 147.561028 91.753174 
L 147.561028 91.712658 
L 147.66924 91.551412 
L 147.710286 91.511302 
L 147.710286 91.471274 
L 147.755063 91.272322 
L 148.094625 91.193293 
L 148.139402 90.958061 
L 148.243883 90.958061 
L 148.243883 90.880262 
L 148.243883 90.841475 
L 148.393141 90.841475 
L 148.393141 90.764127 
L 148.501353 90.648664 
L 148.628222 90.610323 
L 148.628222 90.572056 
L 148.628222 90.533863 
L 148.844646 90.457693 
L 148.926738 90.30622 
L 149.161819 90.26853 
L 149.161819 90.230911 
L 149.206596 90.043871 
L 149.460335 89.969542 
L 149.546158 89.858564 
L 149.740193 89.748199 
L 149.844674 89.5656 
L 149.993932 89.5656 
L 149.993932 89.456836 
L 149.993932 89.384654 
L 150.527529 89.276867 
L 150.527529 89.20533 
L 150.911868 89.169658 
L 150.911868 89.098503 
L 151.02008 89.027601 
L 151.169338 88.921716 
L 151.210384 88.781404 
L 151.553677 88.676812 
L 151.661889 88.400546 
L 151.743981 88.36628 
L 151.743981 88.297923 
L 151.743981 88.229798 
L 152.12832 88.161906 
L 152.12832 88.128045 
L 152.236532 88.026807 
L 152.277578 88.026807 
L 152.277578 87.92608 
L 152.277578 87.892616 
L 152.426836 87.825857 
L 152.426836 87.79256 
L 152.426836 87.726134 
L 152.941776 87.626905 
L 153.00521 87.39727 
L 153.258949 87.299657 
L 153.344772 87.073729 
L 153.643288 86.977678 
L 153.729111 86.723777 
L 154.027627 86.660803 
L 154.027627 86.62939 
L 154.027627 86.598026 
L 154.326143 86.504228 
L 154.434355 86.256232 
L 154.710482 86.164021 
L 154.796305 86.04173 
L 155.094821 85.950501 
L 155.094821 85.829505 
L 155.564983 85.739237 
L 155.628418 85.679284 
L 155.777676 85.619509 
L 155.777676 85.589689 
L 155.777676 85.530182 
L 156.162015 85.470851 
L 156.162015 85.441252 
L 156.270227 85.32329 
L 156.419485 85.235273 
L 156.460531 85.17681 
L 156.609789 85.147642 
L 156.609789 85.089434 
L 156.676955 84.944651 
L 156.84487 84.88703 
L 156.84487 84.858282 
L 156.867259 84.686655 
L 156.994128 84.686655 
L 156.994128 84.601391 
L 156.994128 84.57305 
L 157.229209 84.488268 
L 157.273986 84.431945 
L 157.527725 84.347758 
L 157.613548 84.208229 
L 157.807584 84.097303 
L 157.912064 83.877279 
L 158.21058 83.795391 
L 158.21058 83.768169 
L 158.296403 83.65965 
L 158.445661 83.551718 
L 158.553873 83.417617 
L 158.72552 83.310979 
L 158.833732 83.204908 
L 158.897166 83.099396 
L 159.001647 82.994438 
L 159.128516 82.91608 
L 159.128516 82.890028 
L 159.236728 82.786161 
L 159.34494 82.68283 
L 159.427032 82.503277 
L 159.57629 82.503277 
L 159.57629 82.401394 
L 159.662113 82.325321 
L 159.856148 82.224339 
L 159.919583 82.174038 
L 160.344968 82.174038 
L 160.344968 82.073816 
L 160.389745 81.998977 
L 160.580049 81.899625 
L 160.688261 81.800765 
L 160.878565 81.702391 
L 160.945731 81.531393 
L 161.19947 81.434333 
L 161.285293 81.385978 
L 161.456939 81.289619 
L 161.56142 81.193723 
L 161.710678 81.145946 
L 161.710678 81.098284 
L 161.755455 81.003298 
L 162.095017 80.908762 
L 162.162183 80.81467 
L 162.244275 80.791216 
L 162.244275 80.721019 
L 162.289052 80.651067 
L 162.483088 80.558178 
L 162.483088 80.535023 
L 162.777872 80.44267 
L 162.822649 80.327825 
L 163.076388 80.236421 
L 163.162211 80.100095 
L 163.419681 80.009725 
L 163.527893 79.852553 
L 163.609985 79.8302 
L 163.609985 79.763292 
L 163.695808 79.71881 
L 163.994324 79.608037 
L 163.994324 79.585956 
L 164.464486 79.475915 
L 164.527921 79.388316 
L 164.826437 79.279354 
L 164.91226 79.127798 
L 165.065249 79.020243 
L 165.16973 78.934614 
L 165.233165 78.84935 
L 165.233165 78.82809 
L 165.341377 78.722131 
L 165.490634 78.616731 
L 165.595115 78.553756 
L 165.744373 78.470097 
L 165.744373 78.449237 
L 165.811539 78.386787 
L 166.128712 78.283135 
L 166.214535 78.159458 
L 166.322747 78.056974 
L 166.430959 77.955014 
L 166.621263 77.85357 
L 166.707086 77.672259 
L 166.960825 77.572237 
L 167.069037 77.512463 
L 167.326507 77.413235 
L 167.430987 77.255487 
L 167.729503 77.157523 
L 167.796669 77.098974 
L 168.009362 77.001772 
L 168.117574 76.847224 
L 168.326535 76.770397 
L 168.326535 76.751236 
L 168.434747 76.598606 
L 168.692217 76.5038 
L 168.755651 76.428278 
L 168.927298 76.334275 
L 168.990733 76.259389 
L 169.13999 76.166175 
L 169.244471 76.073393 
L 169.393729 75.96262 
L 169.501941 75.889111 
L 169.651199 75.797603 
L 169.651199 75.779352 
L 169.714633 75.706512 
L 169.927326 75.597748 
L 170.035538 75.507561 
L 170.098972 75.399871 
L 170.162407 75.31057 
L 170.315396 75.203933 
L 170.419877 75.133156 
L 170.63257 75.027458 
L 170.718393 74.939802 
L 170.953474 74.852528 
L 170.953474 74.835118 
L 171.016909 74.748299 
L 171.337813 74.644611 
L 171.442294 74.490081 
L 171.528117 74.455902 
L 171.528117 74.38772 
L 171.528117 74.353716 
L 171.912456 74.268958 
L 171.912456 74.252049 
L 171.912456 74.201409 
L 172.233361 74.100511 
L 172.341573 74.050253 
L 172.427396 73.966769 
L 172.427396 73.950114 
L 172.513219 73.900232 
L 172.789346 73.800839 
L 172.897558 73.65267 
L 173.128908 73.603524 
L 173.128908 73.554498 
L 173.23712 73.489316 
L 173.662505 73.391941 
L 173.684894 73.359587 
L 173.901318 73.278932 
L 173.901318 73.26284 
L 173.961021 73.1986 
L 174.281925 73.102627 
L 174.281925 73.086676 
L 174.584173 72.991237 
L 174.625219 72.959525 
L 175.031946 72.848927 
L 175.050604 72.786002 
L 175.412554 72.707623 
L 175.412554 72.676358 
L 175.520766 72.582853 
L 175.755847 72.474313 
L 175.864059 72.397144 
L 176.054363 72.289606 
L 176.140186 72.182643 
L 176.397656 72.076249 
L 176.479748 72.015705 
L 176.886476 71.910193 
L 176.994688 71.85015 
L 177.270815 71.745506 
L 177.379027 71.641407 
L 177.632766 71.537847 
L 177.740978 71.47891 
L 178.188751 71.390828 
L 178.188751 71.376186 
L 178.274575 71.332322 
L 178.722348 71.230347 
L 178.722348 71.215821 
L 179.020864 71.114436 
L 179.129076 71.071143 
L 179.468638 70.984836 
L 179.468638 70.970487 
L 179.57685 70.8989 
L 179.852977 70.799106 
L 179.916412 70.742303 
L 180.323139 70.643286 
L 180.386574 70.586923 
L 180.707479 70.48867 
L 180.729867 70.432742 
L 181.155252 70.335242 
L 181.20003 70.293601 
L 181.580637 70.182982 
L 181.647803 70.141657 
L 182.177669 70.031872 
L 182.267224 69.990858 
L 182.56574 69.881896 
L 182.67022 69.854748 
L 182.882913 69.746524 
L 182.991125 69.67918 
L 183.41651 69.571899 
L 183.524722 69.505139 
L 183.864283 69.398786 
L 183.953838 69.332601 
L 184.271011 69.227158 
L 184.356834 69.187761 
L 184.741174 69.096133 
L 184.741174 69.083077 
L 184.782219 69.043962 
L 185.274771 68.940027 
L 185.382983 68.83663 
L 186.084495 68.746593 
L 186.084495 68.733764 
L 186.151661 68.682529 
L 186.64048 68.580451 
L 186.748692 68.478892 
L 187.196466 68.390449 
L 187.196466 68.377846 
L 187.300947 68.340085 
L 187.599463 68.239736 
L 187.707675 68.164804 
L 187.942756 68.065329 
L 188.050968 67.991046 
L 188.476353 67.880137 
L 188.498741 67.843303 
L 188.987561 67.733208 
L 189.095773 67.696644 
L 189.457724 67.599466 
L 189.457724 67.587352 
L 189.480112 67.563145 
L 189.950275 67.454578 
L 190.054755 67.406514 
L 190.692833 67.298792 
L 190.801045 67.239196 
L 191.592112 67.132369 
L 191.636889 67.061466 
L 192.383179 66.955582 
L 192.491391 66.932128 
L 193.043645 66.826925 
L 193.151857 66.768717 
L 193.513807 66.664368 
L 193.599631 66.618164 
L 193.875758 66.514596 
L 193.98397 66.422983 
L 194.368309 66.320418 
L 194.472789 66.275002 
L 194.857128 66.173191 
L 194.857128 66.161911 
L 195.390726 66.060673 
L 195.390726 66.049456 
L 196.010146 65.948785 
L 196.07358 65.926482 
L 196.566132 65.826426 
L 196.651955 65.782117 
L 197.502725 65.671772 
L 197.588548 65.627804 
L 197.972887 65.518305 
L 198.017665 65.474673 
L 198.465438 65.366007 
L 198.551262 65.333523 
L 199.31994 65.225619 
L 199.424421 65.139714 
L 199.898314 65.032849 
L 200.002795 65.0009 
L 200.749085 64.894772 
L 200.812519 64.841919 
L 201.327459 64.736629 
L 201.431939 64.715638 
L 202.114794 64.611009 
L 202.223006 64.590149 
L 202.689437 64.496547 
L 202.689437 64.486174 
L 202.689437 64.475806 
L 203.41707 64.372422 
L 203.52155 64.341511 
L 203.950667 64.238817 
L 203.950667 64.208111 
L 204.439486 64.106099 
L 204.52531 64.065439 
L 205.062638 63.96415 
L 205.167119 63.933863 
L 205.805196 63.823201 
L 205.872362 63.773103 
L 206.491783 63.663325 
L 206.577606 63.613625 
L 207.514199 63.514593 
L 207.514199 63.504717 
L 207.622411 63.475117 
L 208.241832 63.366959 
L 208.327655 63.30821 
L 208.667217 63.200948 
L 208.775429 63.171795 
L 209.327683 63.065261 
L 209.435895 63.026662 
L 210.268008 62.940085 
L 210.268008 62.920896 
L 210.331442 62.863441 
L 210.950863 62.758533 
L 211.059075 62.711029 
L 211.611329 62.606916 
L 211.656106 62.578615 
L 212.253138 62.475187 
L 212.275527 62.456439 
L 212.85017 62.35364 
L 212.872558 62.335006 
L 213.406155 62.232827 
L 213.510636 62.168075 
L 213.98453 62.057558 
L 214.08901 62.039197 
L 214.600219 61.929388 
L 214.708431 61.902029 
L 215.152473 61.792969 
L 215.152473 61.783907 
L 216.115186 61.675487 
L 216.223398 61.648473 
L 216.883865 61.540783 
L 216.992077 61.505015 
L 217.521942 61.398093 
L 217.611497 61.35371 
L 218.44361 61.247591 
L 218.54809 61.203541 
L 219.126465 61.098215 
L 219.234677 61.045759 
L 219.850366 60.941258 
L 219.958578 60.906545 
L 220.320528 60.820027 
L 220.320528 60.802768 
L 220.42874 60.768294 
L 220.980994 60.66523 
L 221.089206 60.622443 
L 221.727284 60.511623 
L 221.813107 60.477648 
L 222.369093 60.376067 
L 222.369093 60.367625 
L 222.454916 60.342321 
L 222.966125 60.233039 
L 223.051948 60.166084 
L 223.64898 60.057757 
L 223.75346 60.032842 
L 224.246011 59.925234 
L 224.290789 59.89224 
L 225.163947 59.785383 
L 225.208725 59.768994 
L 225.805756 59.662793 
L 225.869191 59.638365 
L 226.615481 59.532853 
L 226.701304 59.500499 
L 226.958774 59.403752 
L 226.958774 59.395711 
L 227.044597 59.379638 
L 227.682675 59.275479 
L 227.790887 59.227588 
L 228.369261 59.124217 
L 228.369261 59.116287 
L 229.283466 59.005602 
L 229.391678 58.966219 
L 230.052144 58.85636 
L 230.137967 58.832897 
L 230.97008 58.723765 
L 231.055903 58.700457 
L 231.738758 58.615226 
L 231.738758 58.592044 
L 231.824582 58.576604 
L 232.33579 58.468858 
L 232.402956 58.445845 
L 233.574631 58.3388 
L 233.574631 58.331176 
L 234.492567 58.224742 
L 234.492567 58.217161 
L 235.772453 58.118871 
L 235.772453 58.11133 
L 235.835888 58.096257 
L 236.69039 58.006056 
L 236.69039 57.991062 
L 236.776213 57.968592 
L 237.694149 57.864066 
L 237.779972 57.826867 
L 239.421809 57.723076 
L 239.530021 57.693521 
L 240.552438 57.583074 
L 240.574827 57.553724 
L 242.537568 57.444045 
L 242.64578 57.414899 
L 243.604762 57.305977 
L 243.604762 57.298736 
L 244.929426 57.190443 
L 245.037638 57.161664 
L 246.145878 57.054109 
L 246.186924 57.032667 
L 247.787715 56.925802 
L 247.85115 56.890307 
L 249.175814 56.784198 
L 249.175814 56.777144 
L 251.160944 56.671632 
L 251.224379 56.657606 
L 252.612477 56.552721 
L 252.675912 56.53181 
L 254.489395 56.427582 
L 254.511784 56.413726 
L 256.112575 56.303221 
L 256.112575 56.296334 
L 258.713394 56.186475 
L 258.713394 56.179628 
L 260.829125 56.070406 
L 260.829125 56.056795 
L 263.49711 55.955008 
L 263.49711 55.94824 
L 263.49711 55.934712 
L 272.93021 55.826816 
L 272.93021 55.820092 
L 279.396809 55.80665 
L 279.396809 55.80665 
" clip-path="url(#p3562c5596f)" style="fill: none; stroke: #000000; stroke-width: 1.5; stroke-linecap: square"/>
   </g>
   <g id="line2d_74">
    <path d="M 92.290909 307.8 
L 92.290909 293.940912 
L 94.317367 293.940912 
L 94.317367 285.833866 
L 96.227689 285.833866 
L 96.227689 280.081825 
L 96.359446 280.081825 
L 96.359446 275.620195 
L 97.321525 275.620195 
L 97.321525 271.974778 
L 97.827916 271.974778 
L 97.827916 268.892622 
L 98.232446 268.892622 
L 98.333987 258.11569 
L 98.348365 258.11569 
L 98.437312 252.363649 
L 98.84743 252.363649 
L 98.890256 250.008644 
L 99.103836 250.008644 
L 99.103836 248.9276 
L 99.220735 248.9276 
L 99.223357 246.926488 
L 99.859864 246.926488 
L 99.859864 245.996346 
L 100.573276 245.996346 
L 100.573276 245.107558 
L 100.706474 245.107558 
L 100.718323 242.656194 
L 101.061386 242.656194 
L 101.123783 240.472815 
L 101.458341 240.472815 
L 101.543073 239.139359 
L 101.581245 239.139359 
L 101.598766 237.889299 
L 101.759166 237.889299 
L 101.759166 237.292406 
L 101.910765 237.292406 
L 101.939321 236.149556 
L 102.024586 236.149556 
L 102.072648 234.549147 
L 102.153347 234.549147 
L 102.153347 234.042932 
L 102.410523 234.042932 
L 102.410523 233.549217 
L 102.597708 233.549217 
L 102.694492 232.137258 
L 102.715079 232.137258 
L 102.809359 231.24847 
L 102.901605 231.24847 
L 102.986794 229.581302 
L 103.044384 229.581302 
L 103.149726 228.416248 
L 103.190377 228.416248 
L 103.256338 227.675629 
L 103.329473 227.675629 
L 103.428273 225.935885 
L 103.452071 225.935885 
L 103.486999 225.280271 
L 103.563204 225.280271 
L 103.64165 224.645474 
L 103.744753 224.645474 
L 103.840472 224.030212 
L 103.86614 224.030212 
L 103.95696 223.433318 
L 104.024401 223.433318 
L 104.12193 222.290468 
L 104.138237 222.290468 
L 104.233764 220.948056 
L 104.359178 220.948056 
L 104.413324 219.208312 
L 104.546732 219.208312 
L 104.571755 218.737833 
L 104.714976 218.737833 
L 104.780526 217.828838 
L 104.858616 217.828838 
L 104.909804 217.389383 
L 105.008357 217.389383 
L 105.088807 216.959378 
L 105.181065 216.959378 
L 105.218414 216.538427 
L 105.299577 216.538427 
L 105.299577 216.331229 
L 105.455201 216.331229 
L 105.523218 215.523263 
L 105.567026 215.523263 
L 105.634548 214.746682 
L 105.727618 214.746682 
L 105.803019 214.183422 
L 105.861355 214.183422 
L 105.9627 212.75464 
L 105.99346 212.75464 
L 106.059428 212.412846 
L 106.111507 212.412846 
L 106.209725 210.943206 
L 106.251466 210.943206 
L 106.356959 210.323174 
L 106.376683 210.323174 
L 106.479794 209.427751 
L 106.505826 209.427751 
L 106.607252 208.43138 
L 106.647742 208.43138 
L 106.751599 207.615168 
L 106.771342 207.615168 
L 106.81695 207.088968 
L 106.899097 207.088968 
L 107.004913 206.076375 
L 107.01321 206.076375 
L 107.088783 205.349224 
L 107.172948 205.349224 
L 107.188963 205.112601 
L 107.310665 205.112601 
L 107.401641 204.3058 
L 107.447127 204.3058 
L 107.547706 203.10029 
L 107.56517 202.994219 
L 107.674923 202.165315 
L 107.733349 202.064077 
L 107.821748 201.565437 
L 107.898388 201.467184 
L 107.975219 201.07893 
L 108.136313 200.983034 
L 108.240689 200.51033 
L 108.283152 200.417116 
L 108.3924 199.866775 
L 108.437216 199.776507 
L 108.538653 199.331178 
L 108.603034 199.24329 
L 108.704511 198.809554 
L 108.716092 198.723925 
L 108.792936 198.134573 
L 108.843234 198.05178 
L 108.920743 197.242178 
L 108.967038 197.162992 
L 109.038974 196.849347 
L 109.089202 196.771699 
L 109.199088 196.312036 
L 109.260035 196.236443 
L 109.360735 195.568663 
L 109.375085 195.495823 
L 109.480695 194.433922 
L 109.55183 194.365095 
L 109.661366 193.75608 
L 109.683548 193.689543 
L 109.781073 193.425586 
L 109.812462 193.360138 
L 109.918992 192.591026 
L 109.951083 192.528249 
L 110.060289 192.094244 
L 110.065772 192.033005 
L 110.168744 191.430718 
L 110.196362 191.371475 
L 110.305947 190.559995 
L 110.320502 190.503273 
L 110.43066 189.725614 
L 110.474356 189.616948 
L 110.564055 188.924661 
L 110.650753 188.820252 
L 110.747288 188.154562 
L 110.825743 188.054087 
L 110.933848 187.608096 
L 110.95433 187.510324 
L 111.057935 187.028507 
L 111.091556 186.933521 
L 111.188997 186.604581 
L 111.233441 186.511583 
L 111.332603 186.189456 
L 111.362383 186.098365 
L 111.470537 185.47209 
L 111.513404 185.384202 
L 111.624067 184.907606 
L 111.645389 184.82216 
L 111.754049 184.483979 
L 111.803115 184.40032 
L 111.897932 184.110241 
L 111.975096 184.028128 
L 112.084647 183.662737 
L 112.096714 183.582438 
L 112.20573 183.06821 
L 112.228801 182.990259 
L 112.33919 182.490853 
L 112.370061 182.415116 
L 112.477209 181.966624 
L 112.544013 181.856055 
L 112.638281 181.312202 
L 112.687993 181.205184 
L 112.790525 180.713205 
L 112.858557 180.609338 
L 112.960502 179.930344 
L 113.00247 179.830455 
L 113.111286 179.435815 
L 113.178037 179.33836 
L 113.288348 179.112796 
L 113.306363 179.016899 
L 113.407565 178.544196 
L 113.431985 178.450981 
L 113.513244 178.265846 
L 113.572611 178.173918 
L 113.676559 177.72051 
L 113.71151 177.631049 
L 113.819922 177.015787 
L 113.837439 176.929418 
L 113.94721 176.559403 
L 113.974255 176.474979 
L 114.071393 175.839304 
L 114.127074 175.730786 
L 114.233043 175.276043 
L 114.263611 175.170532 
L 114.373546 174.728216 
L 114.406569 174.625549 
L 114.515707 174.245174 
L 114.537374 174.144951 
L 114.644484 173.651236 
L 114.664557 173.553939 
L 114.77451 173.169419 
L 114.797306 173.074434 
L 114.906327 172.559928 
L 114.926296 172.467788 
L 115.015611 172.171231 
L 115.101147 172.08086 
L 115.211041 171.590994 
L 115.234199 171.481315 
L 115.343237 171.134332 
L 115.370547 171.027122 
L 115.480548 170.666853 
L 115.495694 170.562115 
L 115.602368 170.189537 
L 115.657921 170.087263 
L 115.767299 169.72335 
L 115.806934 169.623428 
L 115.917269 169.228658 
L 115.932205 169.131172 
L 116.040935 168.707789 
L 116.05969 168.612804 
L 116.169271 168.274544 
L 116.186224 168.18159 
L 116.291947 167.68697 
L 116.310216 167.578697 
L 116.416469 167.151373 
L 116.479176 167.045954 
L 116.587365 166.802116 
L 116.599228 166.698518 
L 116.707902 166.238855 
L 116.732987 166.138127 
L 116.829318 165.641962 
L 116.874259 165.54419 
L 116.976599 165.157812 
L 117.000292 165.062373 
L 117.102625 164.638446 
L 117.149488 164.529991 
L 117.248019 164.208111 
L 117.286134 164.101959 
L 117.395078 163.786844 
L 117.433028 163.682899 
L 117.54166 163.185572 
L 117.57256 163.084699 
L 117.680468 162.587829 
L 117.716285 162.48992 
L 117.82008 162.199036 
L 117.874852 162.089327 
L 117.979562 161.602952 
L 118.042945 161.496457 
L 118.152798 161.128128 
L 118.198538 161.024125 
L 118.307179 160.689805 
L 118.334138 160.588052 
L 118.443148 160.148872 
L 118.488972 160.049828 
L 118.598533 159.658487 
L 118.624825 159.549789 
L 118.734292 159.050199 
L 118.776559 158.944749 
L 118.885605 158.585731 
L 118.920957 158.482697 
L 119.028922 158.042248 
L 119.058735 157.941969 
L 119.169031 157.600364 
L 119.218095 157.491402 
L 119.328017 157.114645 
L 119.364249 157.008291 
L 119.46916 156.640446 
L 119.518602 156.536579 
L 119.628247 156.116275 
L 119.661161 156.015089 
L 119.769059 155.724511 
L 119.808011 155.615387 
L 119.918657 155.155724 
L 119.939283 155.049653 
L 120.049703 154.706392 
L 120.082424 154.602672 
L 120.19282 154.211524 
L 120.231993 154.101159 
L 120.34071 153.746622 
L 120.373118 153.638787 
L 120.481237 153.301095 
L 120.525089 153.19563 
L 120.626499 152.796422 
L 120.665945 152.693578 
L 120.773343 152.32934 
L 120.806851 152.220515 
L 120.91627 151.823754 
L 120.95743 151.71764 
L 121.065096 151.466846 
L 121.113016 151.362604 
L 121.216968 151.068855 
L 121.2551 150.958822 
L 121.366209 150.640024 
L 121.409453 150.53232 
L 121.518813 150.190006 
L 121.57174 150.084693 
L 121.682011 149.809006 
L 121.732506 149.698315 
L 121.843285 149.384355 
L 121.889226 149.275984 
L 121.998687 149.011153 
L 122.03827 148.904781 
L 122.14141 148.623857 
L 122.179646 148.51952 
L 122.282524 148.17561 
L 122.338029 148.066796 
L 122.448773 147.757216 
L 122.483099 147.65065 
L 122.591575 147.171522 
L 122.629108 147.061573 
L 122.734141 146.741655 
L 122.769795 146.634039 
L 122.879485 146.333271 
L 122.920985 146.227824 
L 123.03012 145.933061 
L 123.074932 145.823635 
L 123.178537 145.546683 
L 123.222668 145.439346 
L 123.332396 145.114897 
L 123.371922 145.004028 
L 123.482449 144.686511 
L 123.515494 144.577985 
L 123.621365 144.385239 
L 123.655881 144.278332 
L 123.766097 143.972047 
L 123.798678 143.861824 
L 123.908162 143.583474 
L 123.943564 143.475367 
L 124.05293 143.159814 
L 124.097661 143.053967 
L 124.207968 142.760542 
L 124.266366 142.651608 
L 124.376542 142.389501 
L 124.414103 142.282565 
L 124.521771 142.050303 
L 124.583562 141.940168 
L 124.69231 141.672382 
L 124.745335 141.564304 
L 124.855055 141.311144 
L 124.911581 141.200184 
L 125.021294 140.965825 
L 125.075573 140.85676 
L 125.183757 140.584339 
L 125.233156 140.47733 
L 125.342449 140.123193 
L 125.388644 140.014082 
L 125.497669 139.748356 
L 125.550286 139.641267 
L 125.65952 139.33216 
L 125.709459 139.222912 
L 125.816772 138.96743 
L 125.861912 138.860152 
L 125.972674 138.638841 
L 126.01458 138.529097 
L 126.124282 138.253192 
L 126.173493 138.145539 
L 126.283807 137.89522 
L 126.327831 137.785416 
L 126.438585 137.507515 
L 126.486952 137.399815 
L 126.596479 137.158605 
L 126.647333 137.048853 
L 126.757272 136.780936 
L 126.814034 136.673232 
L 126.923986 136.36111 
L 126.971399 136.251882 
L 127.082335 135.949918 
L 127.13199 135.839227 
L 127.242554 135.547013 
L 127.288264 135.438524 
L 127.398896 135.144956 
L 127.438613 135.035087 
L 127.54775 134.789193 
L 127.585817 134.681256 
L 127.694879 134.415648 
L 127.732083 134.306295 
L 127.838623 134.075888 
L 127.893156 133.965022 
L 128.000535 133.645955 
L 128.057425 133.537441 
L 128.166067 133.280033 
L 128.214427 133.170262 
L 128.324746 132.888916 
L 128.382721 132.778108 
L 128.493478 132.530233 
L 128.539866 132.42139 
L 128.647713 132.162559 
L 128.727317 132.052649 
L 128.837906 131.795511 
L 128.8914 131.684606 
L 129.00218 131.446892 
L 129.056632 131.337898 
L 129.165591 131.107151 
L 129.21925 130.997101 
L 129.325952 130.764521 
L 129.397752 130.653496 
L 129.508781 130.436086 
L 129.548577 130.326865 
L 129.659146 130.088106 
L 129.708083 129.978019 
L 129.819076 129.751505 
L 129.879177 129.640553 
L 129.989564 129.401802 
L 130.038238 129.292768 
L 130.14929 129.03977 
L 130.205992 128.930083 
L 130.31651 128.699619 
L 130.371887 128.589216 
L 130.482428 128.347443 
L 130.53345 128.236446 
L 130.644116 128.016285 
L 130.688935 127.907107 
L 130.799542 127.644067 
L 130.859916 127.534468 
L 130.970888 127.273856 
L 131.021425 127.163878 
L 131.13176 126.94572 
L 131.192955 126.835182 
L 131.303182 126.627525 
L 131.361548 126.516418 
L 131.47244 126.298324 
L 131.525627 126.189028 
L 131.636167 125.94976 
L 131.694177 125.840115 
L 131.80296 125.642489 
L 131.850598 125.532315 
L 131.960813 125.31377 
L 132.016882 125.203226 
L 132.127354 125.024616 
L 132.180802 124.913524 
L 132.291046 124.703712 
L 132.351362 124.594384 
L 132.460472 124.381653 
L 132.515734 124.272003 
L 132.626843 124.060615 
L 132.686473 123.950677 
L 132.796965 123.744651 
L 132.85321 123.634434 
L 132.962916 123.441518 
L 133.020945 123.330986 
L 133.131983 123.113685 
L 133.19054 123.003009 
L 133.301004 122.768163 
L 133.368456 122.657474 
L 133.479031 122.44545 
L 133.539947 122.334657 
L 133.647525 122.100083 
L 133.714414 121.98934 
L 133.824044 121.820718 
L 133.881765 121.709693 
L 133.992037 121.493067 
L 134.049036 121.382056 
L 134.159896 121.161866 
L 134.219895 121.050918 
L 134.330159 120.88477 
L 134.406722 120.775345 
L 134.515982 120.554847 
L 134.583518 120.4438 
L 134.6945 120.231966 
L 134.763138 120.121016 
L 134.872321 119.937457 
L 134.938069 119.826473 
L 135.047862 119.629223 
L 135.128688 119.518305 
L 135.238767 119.317615 
L 135.303919 119.206806 
L 135.413421 119.002861 
L 135.49029 118.892202 
L 135.599913 118.689864 
L 135.66771 118.579367 
L 135.778523 118.387839 
L 135.845937 118.277466 
L 135.956219 118.07971 
L 136.026106 117.969515 
L 136.136211 117.755396 
L 136.213489 117.645487 
L 136.323818 117.445055 
L 136.386035 117.335376 
L 136.495685 117.114921 
L 136.557671 117.004164 
L 136.668408 116.811449 
L 136.733176 116.700943 
L 136.84397 116.505517 
L 136.904821 116.395293 
L 137.015855 116.215224 
L 137.095099 116.105213 
L 137.204208 115.920932 
L 137.280752 115.809821 
L 137.39126 115.646985 
L 137.44619 115.536049 
L 137.557247 115.329194 
L 137.62597 115.218691 
L 137.736091 115.035866 
L 137.815371 114.925675 
L 137.925243 114.740373 
L 137.993327 114.63052 
L 138.104274 114.452971 
L 138.182028 114.34217 
L 138.291163 114.174622 
L 138.360398 114.06411 
L 138.468973 113.891499 
L 138.533939 113.781316 
L 138.644974 113.570003 
L 138.73481 113.45917 
L 138.84562 113.295256 
L 138.933655 113.184746 
L 139.04359 113.011306 
L 139.129109 112.901182 
L 139.238497 112.74292 
L 139.3128 112.631956 
L 139.423291 112.456368 
L 139.500582 112.345842 
L 139.610544 112.162602 
L 139.677458 112.052564 
L 139.788359 111.88086 
L 139.872158 111.770149 
L 139.981106 111.616175 
L 140.053963 111.505826 
L 140.165028 111.330093 
L 140.236721 111.219159 
L 140.347511 111.053371 
L 140.42473 110.942898 
L 140.53332 110.802504 
L 140.608244 110.692359 
L 140.719142 110.537092 
L 140.789621 110.426331 
L 140.898236 110.28028 
L 140.971852 110.16991 
L 141.081939 110.031785 
L 141.164258 109.920761 
L 141.275354 109.764358 
L 141.350134 109.653811 
L 141.460587 109.480758 
L 141.545147 109.369806 
L 141.656087 109.229301 
L 141.741098 109.118765 
L 141.851593 108.960812 
L 141.941435 108.849838 
L 142.049563 108.696827 
L 142.130236 108.586363 
L 142.241279 108.44189 
L 142.322769 108.330962 
L 142.431563 108.176321 
L 142.510457 108.065935 
L 142.621388 107.904221 
L 142.711026 107.793514 
L 142.821942 107.636672 
L 142.90616 107.525647 
L 143.01586 107.383293 
L 143.096851 107.272779 
L 143.207819 107.118205 
L 143.303927 107.007403 
L 143.413582 106.876457 
L 143.497933 106.766123 
L 143.608208 106.620522 
L 143.688288 106.50989 
L 143.797045 106.367821 
L 143.882129 106.2569 
L 143.99237 106.098312 
L 144.08563 105.987218 
L 144.196548 105.838131 
L 144.285669 105.727653 
L 144.396608 105.575622 
L 144.491314 105.46497 
L 144.602393 105.325311 
L 144.68481 105.214441 
L 144.795694 105.055986 
L 144.894361 104.945026 
L 145.005468 104.79881 
L 145.081347 104.687714 
L 145.1923 104.553362 
L 145.275657 104.442853 
L 145.38542 104.321538 
L 145.481654 104.210786 
L 145.59266 104.063814 
L 145.685089 103.952984 
L 145.795317 103.809371 
L 145.88095 103.698463 
L 145.991293 103.56618 
L 146.091675 103.455153 
L 146.202687 103.328807 
L 146.301396 103.218367 
L 146.411815 103.082776 
L 146.506314 102.97226 
L 146.616251 102.828438 
L 146.720811 102.717911 
L 146.831866 102.579385 
L 146.921115 102.468836 
L 147.031871 102.33753 
L 147.138496 102.226936 
L 147.249573 102.093801 
L 147.354908 101.98319 
L 147.465893 101.847629 
L 147.553172 101.737031 
L 147.6637 101.618401 
L 147.755317 101.507738 
L 147.865918 101.378635 
L 147.962804 101.267982 
L 148.073724 101.139115 
L 148.171669 101.028486 
L 148.282314 100.903072 
L 148.382803 100.792462 
L 148.492669 100.669149 
L 148.587699 100.558562 
L 148.698618 100.429164 
L 148.797545 100.318647 
L 148.908624 100.198213 
L 149.008823 100.087116 
L 149.118285 99.956443 
L 149.207663 99.84546 
L 149.318513 99.721186 
L 149.422761 99.610296 
L 149.533729 99.491653 
L 149.657675 99.380837 
L 149.768343 99.267678 
L 149.873509 99.156918 
L 149.984432 99.03567 
L 150.094008 98.925023 
L 150.204952 98.799397 
L 150.307418 98.688325 
L 150.416891 98.563602 
L 150.519478 98.452694 
L 150.629125 98.339013 
L 150.732142 98.228219 
L 150.843072 98.106325 
L 150.95534 97.9957 
L 151.063469 97.893955 
L 151.167515 97.78285 
L 151.278265 97.66636 
L 151.393752 97.555425 
L 151.504689 97.449416 
L 151.605793 97.338602 
L 151.716345 97.228398 
L 151.83454 97.117737 
L 151.945065 96.995553 
L 152.056883 96.884597 
L 152.167636 96.764347 
L 152.295248 96.653626 
L 152.405565 96.550218 
L 152.521554 96.439134 
L 152.632477 96.325095 
L 152.760587 96.214238 
L 152.871696 96.103487 
L 152.982509 95.992845 
L 153.093559 95.871344 
L 153.20964 95.760488 
L 153.319812 95.660107 
L 153.436099 95.549432 
L 153.546775 95.44083 
L 153.668981 95.329904 
L 153.779939 95.241797 
L 153.892142 95.131005 
L 154.003011 95.023213 
L 154.116011 94.912198 
L 154.22674 94.79707 
L 154.338574 94.68636 
L 154.449259 94.574391 
L 154.559738 94.46351 
L 154.668974 94.361096 
L 154.79215 94.250009 
L 154.901288 94.15417 
L 155.025041 94.043313 
L 155.13602 93.941214 
L 155.258342 93.830179 
L 155.369416 93.713938 
L 155.492737 93.603264 
L 155.603008 93.509139 
L 155.712646 93.398268 
L 155.822491 93.306855 
L 155.942643 93.195789 
L 156.053099 93.094446 
L 156.175911 92.983687 
L 156.286989 92.882123 
L 156.402452 92.77125 
L 156.51356 92.681378 
L 156.631429 92.570342 
L 156.741361 92.47758 
L 156.863907 92.36683 
L 156.974485 92.27334 
L 157.108763 92.16247 
L 157.219751 92.066631 
L 157.351485 91.955669 
L 157.462369 91.85225 
L 157.590011 91.741252 
L 157.700721 91.64902 
L 157.821178 91.537937 
L 157.931875 91.438248 
L 158.071209 91.327533 
L 158.181025 91.235209 
L 158.313001 91.124429 
L 158.423228 91.027949 
L 158.552465 90.917142 
L 158.663226 90.822817 
L 158.789811 90.711982 
L 158.900867 90.613634 
L 159.040409 90.502807 
L 159.150706 90.41762 
L 159.283176 90.306738 
L 159.394272 90.220878 
L 159.527814 90.109958 
L 159.637214 90.020844 
L 159.782695 89.909915 
L 159.893565 89.830898 
L 160.041012 89.719915 
L 160.152077 89.626682 
L 160.290681 89.515736 
L 160.4 89.43609 
L 160.537565 89.325115 
L 160.648625 89.233343 
L 160.788473 89.122418 
L 160.89956 89.038298 
L 161.03742 88.927391 
L 161.146941 88.832864 
L 161.288918 88.722041 
L 161.399577 88.640627 
L 161.538465 88.529825 
L 161.64944 88.442999 
L 161.79147 88.331917 
L 161.902363 88.240498 
L 162.047152 88.129516 
L 162.157679 88.047104 
L 162.308337 87.936182 
L 162.419308 87.857232 
L 162.571016 87.74636 
L 162.681788 87.662863 
L 162.823083 87.552074 
L 162.933602 87.477899 
L 163.075077 87.366824 
L 163.185896 87.284245 
L 163.329659 87.173269 
L 163.440189 87.077351 
L 163.576902 86.966557 
L 163.687184 86.884021 
L 163.828151 86.773026 
L 163.938554 86.696323 
L 164.089759 86.585422 
L 164.200141 86.503818 
L 164.35734 86.392734 
L 164.468239 86.31222 
L 164.624293 86.201272 
L 164.734066 86.114178 
L 164.894005 86.003102 
L 165.004996 85.92323 
L 165.16582 85.812303 
L 165.27637 85.729285 
L 165.44402 85.618231 
L 165.554864 85.538392 
L 165.706322 85.427504 
L 165.817423 85.352544 
L 165.987396 85.241508 
L 166.097999 85.159071 
L 166.260905 85.048231 
L 166.371978 84.964563 
L 166.527569 84.853643 
L 166.638562 84.768781 
L 166.817995 84.657801 
L 166.927971 84.580849 
L 167.103168 84.469777 
L 167.214045 84.401968 
L 167.374613 84.291045 
L 167.484986 84.213262 
L 167.656047 84.102271 
L 167.767107 84.022737 
L 167.933943 83.911699 
L 168.044939 83.838379 
L 168.214382 83.727272 
L 168.325014 83.649213 
L 168.489157 83.538341 
L 168.600215 83.466375 
L 168.776934 83.355444 
L 168.886856 83.279617 
L 169.049352 83.168658 
L 169.160317 83.095114 
L 169.3292 82.984124 
L 169.439314 82.92012 
L 169.623014 82.809058 
L 169.733941 82.731912 
L 169.912154 82.62086 
L 170.022798 82.548275 
L 170.208829 82.437217 
L 170.319543 82.367578 
L 170.49431 82.256507 
L 170.604851 82.189253 
L 170.782627 82.078165 
L 170.89362 82.011508 
L 171.061013 81.900409 
L 171.170908 81.832365 
L 171.351035 81.721272 
L 171.462128 81.644532 
L 171.639976 81.533501 
L 171.750049 81.468148 
L 171.920471 81.357124 
L 172.031496 81.289699 
L 172.211178 81.178703 
L 172.320912 81.113306 
L 172.492861 81.002334 
L 172.602646 80.936802 
L 172.786492 80.825863 
L 172.896724 80.758798 
L 173.078574 80.647909 
L 173.189114 80.577725 
L 173.378255 80.46668 
L 173.489359 80.403336 
L 173.681563 80.292337 
L 173.792329 80.227947 
L 173.986286 80.117008 
L 174.097196 80.050694 
L 174.289443 79.939608 
L 174.399784 79.878806 
L 174.593778 79.767777 
L 174.704613 79.708383 
L 174.892301 79.597411 
L 175.003108 79.533235 
L 175.188167 79.422133 
L 175.298955 79.359608 
L 175.507232 79.248595 
L 175.618264 79.184229 
L 175.812505 79.073322 
L 175.92313 79.011448 
L 176.117411 78.900426 
L 176.2283 78.841211 
L 176.431311 78.730281 
L 176.541798 78.669458 
L 176.752574 78.558427 
L 176.863264 78.496868 
L 177.070881 78.385957 
L 177.181422 78.33239 
L 177.400671 78.221354 
L 177.511479 78.161234 
L 177.72528 78.050324 
L 177.836348 77.990512 
L 178.047246 77.879529 
L 178.157542 77.821235 
L 178.361015 77.71018 
L 178.471914 77.646967 
L 178.681077 77.535876 
L 178.791918 77.477582 
L 179.014073 77.366635 
L 179.124634 77.303119 
L 179.358061 77.192155 
L 179.469014 77.137196 
L 179.67957 77.026175 
L 179.789406 76.967602 
L 180.006847 76.856553 
L 180.117 76.800587 
L 180.333428 76.689504 
L 180.443902 76.63286 
L 180.671404 76.521756 
L 180.782435 76.465962 
L 180.984557 76.355028 
L 181.09528 76.30438 
L 181.310318 76.193404 
L 181.421237 76.136103 
L 181.666327 76.025131 
L 181.777411 75.971441 
L 182.004691 75.860461 
L 182.115549 75.805932 
L 182.338479 75.694955 
L 182.449512 75.640512 
L 182.668977 75.529546 
L 182.779306 75.476271 
L 183.002393 75.365316 
L 183.112969 75.309801 
L 183.357743 75.198701 
L 183.468208 75.140288 
L 183.711858 75.029243 
L 183.822879 74.970972 
L 184.058344 74.85999 
L 184.16935 74.806207 
L 184.421434 74.695096 
L 184.532508 74.638478 
L 184.772905 74.527436 
L 184.883757 74.476932 
L 185.132789 74.365931 
L 185.243758 74.309897 
L 185.492772 74.198805 
L 185.603545 74.149292 
L 185.848026 74.038249 
L 185.958786 73.990967 
L 186.216723 73.879969 
L 186.327035 73.836205 
L 186.563929 73.725236 
L 186.674909 73.674581 
L 186.946298 73.563523 
L 187.056693 73.513275 
L 187.324082 73.402297 
L 187.434651 73.355847 
L 187.702764 73.244772 
L 187.813215 73.199808 
L 188.054125 73.088797 
L 188.164708 73.040045 
L 188.428787 72.928965 
L 188.538242 72.884548 
L 188.81444 72.773541 
L 188.925056 72.725394 
L 189.176191 72.614331 
L 189.287285 72.565477 
L 189.568222 72.454369 
L 189.679053 72.409913 
L 189.945346 72.298896 
L 190.056411 72.255855 
L 190.33745 72.144775 
L 190.448175 72.100546 
L 190.701294 71.989569 
L 190.812171 71.944928 
L 191.0897 71.83391 
L 191.20016 71.788568 
L 191.477937 71.67752 
L 191.588821 71.629269 
L 191.862645 71.518215 
L 191.973071 71.474761 
L 192.26776 71.363681 
L 192.376844 71.319247 
L 192.636645 71.208154 
L 192.747522 71.164643 
L 193.019288 71.05354 
L 193.130327 71.010938 
L 193.402433 70.899969 
L 193.513527 70.858692 
L 193.762355 70.74771 
L 193.873037 70.699242 
L 194.154088 70.588154 
L 194.264987 70.548077 
L 194.545086 70.436985 
L 194.655872 70.391216 
L 194.944836 70.280158 
L 195.055892 70.243183 
L 195.358272 70.132117 
L 195.469266 70.09102 
L 195.769544 69.979974 
L 195.880507 69.938371 
L 196.167536 69.827355 
L 196.278254 69.787014 
L 196.558947 69.676026 
L 196.669546 69.634781 
L 196.972777 69.523698 
L 197.083695 69.483565 
L 197.402957 69.372522 
L 197.513418 69.336129 
L 197.816668 69.22511 
L 197.926722 69.186884 
L 198.231947 69.075775 
L 198.342668 69.031451 
L 198.659629 68.920423 
L 198.770352 68.881482 
L 199.087624 68.770382 
L 199.198439 68.729166 
L 199.510854 68.618141 
L 199.621904 68.577492 
L 199.947246 68.466418 
L 200.058032 68.429109 
L 200.384712 68.318099 
L 200.495518 68.279184 
L 200.831019 68.168129 
L 200.942047 68.126641 
L 201.262862 68.015561 
L 201.373849 67.974389 
L 201.70444 67.863289 
L 201.815463 67.824636 
L 202.162436 67.713631 
L 202.273241 67.678916 
L 202.62184 67.567868 
L 202.732654 67.528332 
L 203.084027 67.417274 
L 203.194605 67.376475 
L 203.549741 67.265421 
L 203.660788 67.23088 
L 204.001394 67.1198 
L 204.112259 67.081966 
L 204.452578 66.970886 
L 204.563521 66.935208 
L 204.938554 66.824122 
L 205.0487 66.787075 
L 205.387802 66.675997 
L 205.498468 66.638183 
L 205.841688 66.527123 
L 205.952448 66.495095 
L 206.327051 66.384025 
L 206.438007 66.349947 
L 206.796885 66.238887 
L 206.907536 66.203246 
L 207.282236 66.092208 
L 207.393222 66.057277 
L 207.783505 65.946263 
L 207.893498 65.913814 
L 208.27602 65.802705 
L 208.386547 65.76905 
L 208.766485 65.65797 
L 208.876973 65.630269 
L 209.256766 65.519191 
L 209.367143 65.483283 
L 209.731302 65.372257 
L 209.842108 65.336287 
L 210.219691 65.225211 
L 210.329856 65.195523 
L 210.720012 65.084476 
L 210.831081 65.054035 
L 211.24007 64.943026 
L 211.350674 64.908879 
L 211.754797 64.797827 
L 211.865773 64.766767 
L 212.256924 64.655663 
L 212.367629 64.623883 
L 212.7626 64.512841 
L 212.873501 64.483776 
L 213.285165 64.372682 
L 213.396059 64.345983 
L 213.803866 64.234932 
L 213.914023 64.208724 
L 214.333435 64.097617 
L 214.444244 64.068336 
L 214.872162 63.957297 
L 214.983185 63.928827 
L 215.42342 63.817755 
L 215.53428 63.792488 
L 215.976739 63.681472 
L 216.087841 63.651898 
L 216.519932 63.540866 
L 216.63066 63.509523 
L 217.08815 63.398491 
L 217.198818 63.370804 
L 217.67337 63.259757 
L 217.784221 63.235185 
L 218.240582 63.12411 
L 218.351354 63.098446 
L 218.82979 62.987357 
L 218.940627 62.959272 
L 219.421013 62.848187 
L 219.532093 62.819915 
L 220.037224 62.708839 
L 220.147936 62.685693 
L 220.64403 62.574604 
L 220.755084 62.547658 
L 221.244739 62.436583 
L 221.355613 62.41244 
L 221.878839 62.301367 
L 221.989942 62.276458 
L 222.484593 62.165397 
L 222.595301 62.141948 
L 223.115298 62.030896 
L 223.226119 62.007512 
L 223.764778 61.896473 
L 223.875868 61.871699 
L 224.409293 61.760594 
L 224.520255 61.737434 
L 225.070604 61.626352 
L 225.181425 61.605503 
L 225.741431 61.494434 
L 225.852529 61.473276 
L 226.416407 61.362227 
L 226.527501 61.338461 
L 227.129178 61.227363 
L 227.239491 61.209127 
L 227.83398 61.098043 
L 227.94459 61.07765 
L 228.529863 60.966596 
L 228.640905 60.944164 
L 229.246257 60.83307 
L 229.357359 60.810269 
L 230.007124 60.699227 
L 230.117497 60.678807 
L 230.775293 60.567724 
L 230.885401 60.550164 
L 231.550994 60.439113 
L 231.661131 60.421497 
L 232.334176 60.310399 
L 232.444335 60.293232 
L 233.147967 60.182173 
L 233.259023 60.163361 
L 233.962844 60.052271 
L 234.073533 60.036237 
L 234.800593 59.925189 
L 234.911122 59.908762 
L 235.641016 59.797679 
L 235.751984 59.782258 
L 236.514589 59.671221 
L 236.625539 59.654757 
L 237.455111 59.543695 
L 237.565864 59.528793 
L 238.370099 59.417702 
L 238.481134 59.40056 
L 239.324337 59.289457 
L 239.435361 59.274664 
L 240.258311 59.16362 
L 240.368775 59.148204 
L 241.291662 59.037148 
L 241.401685 59.024671 
L 242.372575 58.91359 
L 242.483587 58.900719 
L 243.462106 58.789621 
L 243.573184 58.776751 
L 244.552416 58.665718 
L 244.663265 58.65347 
L 245.667824 58.542423 
L 245.778717 58.532023 
L 246.851934 58.420957 
L 246.961564 58.409548 
L 248.106182 58.298473 
L 248.216768 58.286981 
L 249.378368 58.175903 
L 249.483906 58.165086 
L 250.694112 58.054004 
L 250.804946 58.044155 
L 252.086837 57.933068 
L 252.197583 57.923951 
L 253.569871 57.812859 
L 253.680588 57.804019 
L 255.181659 57.692926 
L 255.291126 57.684508 
L 256.832628 57.573414 
L 256.941351 57.566587 
L 258.616469 57.455487 
L 258.726832 57.447971 
L 260.511269 57.336874 
L 260.621768 57.329257 
L 262.437196 57.218167 
L 262.547746 57.212398 
L 264.60876 57.101307 
L 264.71964 57.095787 
L 266.908564 56.984699 
L 267.019484 56.980066 
L 269.432003 56.86898 
L 269.542288 56.864019 
L 272.253975 56.75294 
L 272.361439 56.74836 
L 275.370102 56.637289 
L 275.479316 56.633927 
L 278.919385 56.522861 
L 279.02981 56.518752 
L 282.916362 56.407699 
L 283.025353 56.405136 
L 287.844052 56.294091 
L 287.95451 56.291819 
L 293.923667 56.180715 
L 294.029762 56.178729 
L 302.440696 56.067637 
L 302.547491 56.066343 
L 315.160108 55.955263 
L 315.271044 55.95445 
L 342.599982 55.843382 
L 342.701079 55.843112 
L 498.109091 55.8 
L 498.109091 55.8 
" clip-path="url(#p3562c5596f)" style="fill: none; stroke: #ff0000; stroke-width: 1.5; stroke-linecap: square"/>
   </g>
   <g id="patch_3">
    <path d="M 72 320.4 
L 72 43.2 
" style="fill: none; stroke: #000000; stroke-width: 0.8; stroke-linejoin: miter; stroke-linecap: square"/>
   </g>
   <g id="patch_4">
    <path d="M 518.4 320.4 
L 518.4 43.2 
" style="fill: none; stroke: #000000; stroke-width: 0.8; stroke-linejoin: miter; stroke-linecap: square"/>
   </g>
   <g id="patch_5">
    <path d="M 72 320.4 
L 518.4 320.4 
" style="fill: none; stroke: #000000; stroke-width: 0.8; stroke-linejoin: miter; stroke-linecap: square"/>
   </g>
   <g id="patch_6">
    <path d="M 72 43.2 
L 518.4 43.2 
" style="fill: none; stroke: #000000; stroke-width: 0.8; stroke-linejoin: miter; stroke-linecap: square"/>
   </g>
   <g id="text_15">
    <!-- Comparison: CDF (log scale expands lower tail) -->
    <g transform="translate(153.135937 37.2) scale(0.12 -0.12)">
     <defs>
      <path id="DejaVuSans-6f" d="M 1959 3097 
Q 1497 3097 1228 2736 
Q 959 2375 959 1747 
Q 959 1119 1226 758 
Q 1494 397 1959 397 
Q 2419 397 2687 759 
Q 2956 1122 2956 1747 
Q 2956 2369 2687 2733 
Q 2419 3097 1959 3097 
z
M 1959 3584 
Q 2709 3584 3137 3096 
Q 3566 2609 3566 1747 
Q 3566 888 3137 398 
Q 2709 -91 1959 -91 
Q 1206 -91 779 398 
Q 353 888 353 1747 
Q 353 2609 779 3096 
Q 1206 3584 1959 3584 
z
" transform="scale(0.015625)"/>
      <path id="DejaVuSans-6d" d="M 3328 2828 
Q 3544 3216 3844 3400 
Q 4144 3584 4550 3584 
Q 5097 3584 5394 3201 
Q 5691 2819 5691 2113 
L 5691 0 
L 5113 0 
L 5113 2094 
Q 5113 2597 4934 2840 
Q 4756 3084 4391 3084 
Q 3944 3084 3684 2787 
Q 3425 2491 3425 1978 
L 3425 0 
L 2847 0 
L 2847 2094 
Q 2847 2600 2669 2842 
Q 2491 3084 2119 3084 
Q 1678 3084 1418 2786 
Q 1159 2488 1159 1978 
L 1159 0 
L 581 0 
L 581 3500 
L 1159 3500 
L 1159 2956 
Q 1356 3278 1631 3431 
Q 1906 3584 2284 3584 
Q 2666 3584 2933 3390 
Q 3200 3197 3328 2828 
z
" transform="scale(0.015625)"/>
      <path id="DejaVuSans-70" d="M 1159 525 
L 1159 -1331 
L 581 -1331 
L 581 3500 
L 1159 3500 
L 1159 2969 
Q 1341 3281 1617 3432 
Q 1894 3584 2278 3584 
Q 2916 3584 3314 3078 
Q 3713 2572 3713 1747 
Q 3713 922 3314 415 
Q 2916 -91 2278 -91 
Q 1894 -91 1617 61 
Q 1341 213 1159 525 
z
M 3116 1747 
Q 3116 2381 2855 2742 
Q 2594 3103 2138 3103 
Q 1681 3103 1420 2742 
Q 1159 2381 1159 1747 
Q 1159 1113 1420 752 
Q 1681 391 2138 391 
Q 2594 391 2855 752 
Q 3116 1113 3116 1747 
z
" transform="scale(0.015625)"/>
      <path id="DejaVuSans-61" d="M 2194 1759 
Q 1497 1759 1228 1600 
Q 959 1441 959 1056 
Q 959 750 1161 570 
Q 1363 391 1709 391 
Q 2188 391 2477 730 
Q 2766 1069 2766 1631 
L 2766 1759 
L 2194 1759 
z
M 3341 1997 
L 3341 0 
L 2766 0 
L 2766 531 
Q 2569 213 2275 61 
Q 1981 -91 1556 -91 
Q 1019 -91 701 211 
Q 384 513 384 1019 
Q 384 1609 779 1909 
Q 1175 2209 1959 2209 
L 2766 2209 
L 2766 2266 
Q 2766 2663 2505 2880 
Q 2244 3097 1772 3097 
Q 1472 3097 1187 3025 
Q 903 2953 641 2809 
L 641 3341 
Q 956 3463 1253 3523 
Q 1550 3584 1831 3584 
Q 2591 3584 2966 3190 
Q 3341 2797 3341 1997 
z
" transform="scale(0.015625)"/>
      <path id="DejaVuSans-72" d="M 2631 2963 
Q 2534 3019 2420 3045 
Q 2306 3072 2169 3072 
Q 1681 3072 1420 2755 
Q 1159 2438 1159 1844 
L 1159 0 
L 581 0 
L 581 3500 
L 1159 3500 
L 1159 2956 
Q 1341 3275 1631 3429 
Q 1922 3584 2338 3584 
Q 2397 3584 2469 3576 
Q 2541 3569 2628 3553 
L 2631 2963 
z
" transform="scale(0.015625)"/>
      <path id="DejaVuSans-69" d="M 603 3500 
L 1178 3500 
L 1178 0 
L 603 0 
L 603 3500 
z
M 603 4863 
L 1178 4863 
L 1178 4134 
L 603 4134 
L 603 4863 
z
" transform="scale(0.015625)"/>
      <path id="DejaVuSans-73" d="M 2834 3397 
L 2834 2853 
Q 2591 2978 2328 3040 
Q 2066 3103 1784 3103 
Q 1356 3103 1142 2972 
Q 928 2841 928 2578 
Q 928 2378 1081 2264 
Q 1234 2150 1697 2047 
L 1894 2003 
Q 2506 1872 2764 1633 
Q 3022 1394 3022 966 
Q 3022 478 2636 193 
Q 2250 -91 1575 -91 
Q 1294 -91 989 -36 
Q 684 19 347 128 
L 347 722 
Q 666 556 975 473 
Q 1284 391 1588 391 
Q 1994 391 2212 530 
Q 2431 669 2431 922 
Q 2431 1156 2273 1281 
Q 2116 1406 1581 1522 
L 1381 1569 
Q 847 1681 609 1914 
Q 372 2147 372 2553 
Q 372 3047 722 3315 
Q 1072 3584 1716 3584 
Q 2034 3584 2315 3537 
Q 2597 3491 2834 3397 
z
" transform="scale(0.015625)"/>
      <path id="DejaVuSans-6e" d="M 3513 2113 
L 3513 0 
L 2938 0 
L 2938 2094 
Q 2938 2591 2744 2837 
Q 2550 3084 2163 3084 
Q 1697 3084 1428 2787 
Q 1159 2491 1159 1978 
L 1159 0 
L 581 0 
L 581 3500 
L 1159 3500 
L 1159 2956 
Q 1366 3272 1645 3428 
Q 1925 3584 2291 3584 
Q 2894 3584 3203 3211 
Q 3513 2838 3513 2113 
z
" transform="scale(0.015625)"/>
      <path id="DejaVuSans-3a" d="M 750 794 
L 1409 794 
L 1409 0 
L 750 0 
L 750 794 
z
M 750 3309 
L 1409 3309 
L 1409 2516 
L 750 2516 
L 750 3309 
z
" transform="scale(0.015625)"/>
      <path id="DejaVuSans-6c" d="M 603 4863 
L 1178 4863 
L 1178 0 
L 603 0 
L 603 4863 
z
" transform="scale(0.015625)"/>
      <path id="DejaVuSans-67" d="M 2906 1791 
Q 2906 2416 2648 2759 
Q 2391 3103 1925 3103 
Q 1463 3103 1205 2759 
Q 947 2416 947 1791 
Q 947 1169 1205 825 
Q 1463 481 1925 481 
Q 2391 481 2648 825 
Q 2906 1169 2906 1791 
z
M 3481 434 
Q 3481 -459 3084 -895 
Q 2688 -1331 1869 -1331 
Q 1566 -1331 1297 -1286 
Q 1028 -1241 775 -1147 
L 775 -588 
Q 1028 -725 1275 -790 
Q 1522 -856 1778 -856 
Q 2344 -856 2625 -561 
Q 2906 -266 2906 331 
L 2906 616 
Q 2728 306 2450 153 
Q 2172 0 1784 0 
Q 1141 0 747 490 
Q 353 981 353 1791 
Q 353 2603 747 3093 
Q 1141 3584 1784 3584 
Q 2172 3584 2450 3431 
Q 2728 3278 2906 2969 
L 2906 3500 
L 3481 3500 
L 3481 434 
z
" transform="scale(0.015625)"/>
      <path id="DejaVuSans-63" d="M 3122 3366 
L 3122 2828 
Q 2878 2963 2633 3030 
Q 2388 3097 2138 3097 
Q 1578 3097 1268 2742 
Q 959 2388 959 1747 
Q 959 1106 1268 751 
Q 1578 397 2138 397 
Q 2388 397 2633 464 
Q 2878 531 3122 666 
L 3122 134 
Q 2881 22 2623 -34 
Q 2366 -91 2075 -91 
Q 1284 -91 818 406 
Q 353 903 353 1747 
Q 353 2603 823 3093 
Q 1294 3584 2113 3584 
Q 2378 3584 2631 3529 
Q 2884 3475 3122 3366 
z
" transform="scale(0.015625)"/>
      <path id="DejaVuSans-65" d="M 3597 1894 
L 3597 1613 
L 953 1613 
Q 991 1019 1311 708 
Q 1631 397 2203 397 
Q 2534 397 2845 478 
Q 3156 559 3463 722 
L 3463 178 
Q 3153 47 2828 -22 
Q 2503 -91 2169 -91 
Q 1331 -91 842 396 
Q 353 884 353 1716 
Q 353 2575 817 3079 
Q 1281 3584 2069 3584 
Q 2775 3584 3186 3129 
Q 3597 2675 3597 1894 
z
M 3022 2063 
Q 3016 2534 2758 2815 
Q 2500 3097 2075 3097 
Q 1594 3097 1305 2825 
Q 1016 2553 972 2059 
L 3022 2063 
z
" transform="scale(0.015625)"/>
      <path id="DejaVuSans-78" d="M 3513 3500 
L 2247 1797 
L 3578 0 
L 2900 0 
L 1881 1375 
L 863 0 
L 184 0 
L 1544 1831 
L 300 3500 
L 978 3500 
L 1906 2253 
L 2834 3500 
L 3513 3500 
z
" transform="scale(0.015625)"/>
      <path id="DejaVuSans-64" d="M 2906 2969 
L 2906 4863 
L 3481 4863 
L 3481 0 
L 2906 0 
L 2906 525 
Q 2725 213 2448 61 
Q 2172 -91 1784 -91 
Q 1150 -91 751 415 
Q 353 922 353 1747 
Q 353 2572 751 3078 
Q 1150 3584 1784 3584 
Q 2172 3584 2448 3432 
Q 2725 3281 2906 2969 
z
M 947 1747 
Q 947 1113 1208 752 
Q 1469 391 1925 391 
Q 2381 391 2643 752 
Q 2906 1113 2906 1747 
Q 2906 2381 2643 2742 
Q 2381 3103 1925 3103 
Q 1469 3103 1208 2742 
Q 947 2381 947 1747 
z
" transform="scale(0.015625)"/>
      <path id="DejaVuSans-77" d="M 269 3500 
L 844 3500 
L 1563 769 
L 2278 3500 
L 2956 3500 
L 3675 769 
L 4391 3500 
L 4966 3500 
L 4050 0 
L 3372 0 
L 2619 2869 
L 1863 0 
L 1184 0 
L 269 3500 
z
" transform="scale(0.015625)"/>
      <path id="DejaVuSans-74" d="M 1172 4494 
L 1172 3500 
L 2356 3500 
L 2356 3053 
L 1172 3053 
L 1172 1153 
Q 1172 725 1289 603 
Q 1406 481 1766 481 
L 2356 481 
L 2356 0 
L 1766 0 
Q 1100 0 847 248 
Q 594 497 594 1153 
L 594 3053 
L 172 3053 
L 172 3500 
L 594 3500 
L 594 4494 
L 1172 4494 
z
" transform="scale(0.015625)"/>
     </defs>
     <use xlink:href="#DejaVuSans-43"/>
     <use xlink:href="#DejaVuSans-6f" x="69.824219"/>
     <use xlink:href="#DejaVuSans-6d" x="131.005859"/>
     <use xlink:href="#DejaVuSans-70" x="228.417969"/>
     <use xlink:href="#DejaVuSans-61" x="291.894531"/>
     <use xlink:href="#DejaVuSans-72" x="353.173828"/>
     <use xlink:href="#DejaVuSans-69" x="394.287109"/>
     <use xlink:href="#DejaVuSans-73" x="422.070312"/>
     <use xlink:href="#DejaVuSans-6f" x="474.169922"/>
     <use xlink:href="#DejaVuSans-6e" x="535.351562"/>
     <use xlink:href="#DejaVuSans-3a" x="598.730469"/>
     <use xlink:href="#DejaVuSans-20" x="632.421875"/>
     <use xlink:href="#DejaVuSans-43" x="664.208984"/>
     <use xlink:href="#DejaVuSans-44" x="734.033203"/>
     <use xlink:href="#DejaVuSans-46" x="811.035156"/>
     <use xlink:href="#DejaVuSans-20" x="868.554688"/>
     <use xlink:href="#DejaVuSans-28" x="900.341797"/>
     <use xlink:href="#DejaVuSans-6c" x="939.355469"/>
     <use xlink:href="#DejaVuSans-6f" x="967.138672"/>
     <use xlink:href="#DejaVuSans-67" x="1028.320312"/>
     <use xlink:href="#DejaVuSans-20" x="1091.796875"/>
     <use xlink:href="#DejaVuSans-73" x="1123.583984"/>
     <use xlink:href="#DejaVuSans-63" x="1175.683594"/>
     <use xlink:href="#DejaVuSans-61" x="1230.664062"/>
     <use xlink:href="#DejaVuSans-6c" x="1291.943359"/>
     <use xlink:href="#DejaVuSans-65" x="1319.726562"/>
     <use xlink:href="#DejaVuSans-20" x="1381.25"/>
     <use xlink:href="#DejaVuSans-65" x="1413.037109"/>
     <use xlink:href="#DejaVuSans-78" x="1472.810547"/>
     <use xlink:href="#DejaVuSans-70" x="1531.990234"/>
     <use xlink:href="#DejaVuSans-61" x="1595.466797"/>
     <use xlink:href="#DejaVuSans-6e" x="1656.746094"/>
     <use xlink:href="#DejaVuSans-64" x="1720.125"/>
     <use xlink:href="#DejaVuSans-73" x="1783.601562"/>
     <use xlink:href="#DejaVuSans-20" x="1835.701172"/>
     <use xlink:href="#DejaVuSans-6c" x="1867.488281"/>
     <use xlink:href="#DejaVuSans-6f" x="1895.271484"/>
     <use xlink:href="#DejaVuSans-77" x="1956.453125"/>
     <use xlink:href="#DejaVuSans-65" x="2038.240234"/>
     <use xlink:href="#DejaVuSans-72" x="2099.763672"/>
     <use xlink:href="#DejaVuSans-20" x="2140.876953"/>
     <use xlink:href="#DejaVuSans-74" x="2172.664062"/>
     <use xlink:href="#DejaVuSans-61" x="2211.873047"/>
     <use xlink:href="#DejaVuSans-69" x="2273.152344"/>
     <use xlink:href="#DejaVuSans-6c" x="2300.935547"/>
     <use xlink:href="#DejaVuSans-29" x="2328.71875"/>
    </g>
   </g>
   <g id="legend_1">
    <g id="patch_7">
     <path d="M 416.765625 315.4 
L 511.4 315.4 
Q 513.4 315.4 513.4 313.4 
L 513.4 285.04375 
Q 513.4 283.04375 511.4 283.04375 
L 416.765625 283.04375 
Q 414.765625 283.04375 414.765625 285.04375 
L 414.765625 313.4 
Q 414.765625 315.4 416.765625 315.4 
z
" style="fill: #ffffff; opacity: 0.8; stroke: #cccccc; stroke-linejoin: miter"/>
    </g>
    <g id="line2d_75">
     <path d="M 418.765625 291.142187 
L 418.765625 291.142187 
L 428.765625 291.142187 
L 428.765625 291.142187 
L 438.765625 291.142187 
" style="fill: none; stroke: #000000; stroke-width: 1.5; stroke-linecap: square"/>
    </g>
    <g id="text_16">
     <!-- Data -->
     <g transform="translate(446.765625 294.642187) scale(0.1 -0.1)">
      <use xlink:href="#DejaVuSans-44"/>
      <use xlink:href="#DejaVuSans-61" x="77.001953"/>
      <use xlink:href="#DejaVuSans-74" x="138.28125"/>
      <use xlink:href="#DejaVuSans-61" x="177.490234"/>
     </g>
    </g>
    <g id="line2d_76">
     <path d="M 418.765625 305.820312 
L 418.765625 305.820312 
L 428.765625 305.820312 
L 428.765625 305.820312 
L 438.765625 305.820312 
" style="fill: none; stroke: #ff0000; stroke-width: 1.5; stroke-linecap: square"/>
    </g>
    <g id="text_17">
     <!-- MCS Sample -->
     <g transform="translate(446.765625 309.320312) scale(0.1 -0.1)">
      <defs>
       <path id="DejaVuSans-4d" d="M 628 4666 
L 1569 4666 
L 2759 1491 
L 3956 4666 
L 4897 4666 
L 4897 0 
L 4281 0 
L 4281 4097 
L 3078 897 
L 2444 897 
L 1241 4097 
L 1241 0 
L 628 0 
L 628 4666 
z
" transform="scale(0.015625)"/>
       <path id="DejaVuSans-53" d="M 3425 4513 
L 3425 3897 
Q 3066 4069 2747 4153 
Q 2428 4238 2131 4238 
Q 1616 4238 1336 4038 
Q 1056 3838 1056 3469 
Q 1056 3159 1242 3001 
Q 1428 2844 1947 2747 
L 2328 2669 
Q 3034 2534 3370 2195 
Q 3706 1856 3706 1288 
Q 3706 609 3251 259 
Q 2797 -91 1919 -91 
Q 1588 -91 1214 -16 
Q 841 59 441 206 
L 441 856 
Q 825 641 1194 531 
Q 1563 422 1919 422 
Q 2459 422 2753 634 
Q 3047 847 3047 1241 
Q 3047 1584 2836 1778 
Q 2625 1972 2144 2069 
L 1759 2144 
Q 1053 2284 737 2584 
Q 422 2884 422 3419 
Q 422 4038 858 4394 
Q 1294 4750 2059 4750 
Q 2388 4750 2728 4690 
Q 3069 4631 3425 4513 
z
" transform="scale(0.015625)"/>
      </defs>
      <use xlink:href="#DejaVuSans-4d"/>
      <use xlink:href="#DejaVuSans-43" x="86.279297"/>
      <use xlink:href="#DejaVuSans-53" x="156.103516"/>
      <use xlink:href="#DejaVuSans-20" x="219.580078"/>
      <use xlink:href="#DejaVuSans-53" x="251.367188"/>
      <use xlink:href="#DejaVuSans-61" x="314.84375"/>
      <use xlink:href="#DejaVuSans-6d" x="376.123047"/>
      <use xlink:href="#DejaVuSans-70" x="473.535156"/>
      <use xlink:href="#DejaVuSans-6c" x="537.011719"/>
      <use xlink:href="#DejaVuSans-65" x="564.794922"/>
     </g>
    </g>
   </g>
  </g>
 </g>
 <defs>
  <clipPath id="p3562c5596f">
   <rect x="72" y="43.2" width="446.4" height="277.2"/>
  </clipPath>
 </defs>
</svg>
