<?xml version="1.0" encoding="utf-8" standalone="no"?>
<!DOCTYPE svg PUBLIC "-//W3C//DTD SVG 1.1//EN"
  "http://www.w3.org/Graphics/SVG/1.1/DTD/svg11.dtd">
<svg xmlns:xlink="http://www.w3.org/1999/xlink" width="576pt" height="360pt" viewBox="0 0 576 360" xmlns="http://www.w3.org/2000/svg" version="1.1">
 <metadata>
  <rdf:RDF xmlns:dc="http://purl.org/dc/elements/1.1/" xmlns:cc="http://creativecommons.org/ns#" xmlns:rdf="http://www.w3.org/1999/02/22-rdf-syntax-ns#">
   <cc:Work>
    <dc:type rdf:resource="http://purl.org/dc/dcmitype/StillImage"/>
    <dc:date>2024-10-24T22:35:25.957741</dc:date>
    <dc:format>image/svg+xml</dc:format>
    <dc:creator>
     <cc:Agent>
      <dc:title>Matplotlib v3.9.2, https://matplotlib.org/</dc:title>
     </cc:Agent>
    </dc:creator>
   </cc:Work>
  </rdf:RDF>
 </metadata>
 <defs>
  <style type="text/css">*{stroke-linejoin: round; stroke-linecap: butt}</style>
 </defs>
 <g id="figure_1">
  <g id="patch_1">
   <path d="M 0 360 
L 576 360 
L 576 0 
L 0 0 
z
" style="fill: #ffffff"/>
  </g>
  <g id="axes_1">
   <g id="patch_2">
    <path d="M 72 320.4 
L 518.4 320.4 
L 518.4 43.2 
L 72 43.2 
z
" style="fill: #ffffff"/>
   </g>
   <g id="matplotlib.axis_1">
    <g id="xtick_1">
     <g id="line2d_1">
      <path d="M 93.643839 320.4 
L 93.643839 43.2 
" clip-path="url(#p6c65e9ea42)" style="fill: none; stroke: #b0b0b0; stroke-width: 0.8; stroke-linecap: square"/>
     </g>
     <g id="line2d_2">
      <defs>
       <path id="mf9e863e480" d="M 0 0 
L 0 3.5 
" style="stroke: #000000; stroke-width: 0.8"/>
      </defs>
      <g>
       <use xlink:href="#mf9e863e480" x="93.643839" y="320.4" style="stroke: #000000; stroke-width: 0.8"/>
      </g>
     </g>
     <g id="text_1">
      <!-- −100000 -->
      <g transform="translate(70.366495 334.998438) scale(0.1 -0.1)">
       <defs>
        <path id="DejaVuSans-2212" d="M 678 2272 
L 4684 2272 
L 4684 1741 
L 678 1741 
L 678 2272 
z
" transform="scale(0.015625)"/>
        <path id="DejaVuSans-31" d="M 794 531 
L 1825 531 
L 1825 4091 
L 703 3866 
L 703 4441 
L 1819 4666 
L 2450 4666 
L 2450 531 
L 3481 531 
L 3481 0 
L 794 0 
L 794 531 
z
" transform="scale(0.015625)"/>
        <path id="DejaVuSans-30" d="M 2034 4250 
Q 1547 4250 1301 3770 
Q 1056 3291 1056 2328 
Q 1056 1369 1301 889 
Q 1547 409 2034 409 
Q 2525 409 2770 889 
Q 3016 1369 3016 2328 
Q 3016 3291 2770 3770 
Q 2525 4250 2034 4250 
z
M 2034 4750 
Q 2819 4750 3233 4129 
Q 3647 3509 3647 2328 
Q 3647 1150 3233 529 
Q 2819 -91 2034 -91 
Q 1250 -91 836 529 
Q 422 1150 422 2328 
Q 422 3509 836 4129 
Q 1250 4750 2034 4750 
z
" transform="scale(0.015625)"/>
       </defs>
       <use xlink:href="#DejaVuSans-2212"/>
       <use xlink:href="#DejaVuSans-31" x="83.789062"/>
       <use xlink:href="#DejaVuSans-30" x="147.412109"/>
       <use xlink:href="#DejaVuSans-30" x="211.035156"/>
       <use xlink:href="#DejaVuSans-30" x="274.658203"/>
       <use xlink:href="#DejaVuSans-30" x="338.28125"/>
       <use xlink:href="#DejaVuSans-30" x="401.904297"/>
      </g>
     </g>
    </g>
    <g id="xtick_2">
     <g id="line2d_3">
      <path d="M 168.770108 320.4 
L 168.770108 43.2 
" clip-path="url(#p6c65e9ea42)" style="fill: none; stroke: #b0b0b0; stroke-width: 0.8; stroke-linecap: square"/>
     </g>
     <g id="line2d_4">
      <g>
       <use xlink:href="#mf9e863e480" x="168.770108" y="320.4" style="stroke: #000000; stroke-width: 0.8"/>
      </g>
     </g>
     <g id="text_2">
      <!-- −50000 -->
      <g transform="translate(148.674014 334.998438) scale(0.1 -0.1)">
       <defs>
        <path id="DejaVuSans-35" d="M 691 4666 
L 3169 4666 
L 3169 4134 
L 1269 4134 
L 1269 2991 
Q 1406 3038 1543 3061 
Q 1681 3084 1819 3084 
Q 2600 3084 3056 2656 
Q 3513 2228 3513 1497 
Q 3513 744 3044 326 
Q 2575 -91 1722 -91 
Q 1428 -91 1123 -41 
Q 819 9 494 109 
L 494 744 
Q 775 591 1075 516 
Q 1375 441 1709 441 
Q 2250 441 2565 725 
Q 2881 1009 2881 1497 
Q 2881 1984 2565 2268 
Q 2250 2553 1709 2553 
Q 1456 2553 1204 2497 
Q 953 2441 691 2322 
L 691 4666 
z
" transform="scale(0.015625)"/>
       </defs>
       <use xlink:href="#DejaVuSans-2212"/>
       <use xlink:href="#DejaVuSans-35" x="83.789062"/>
       <use xlink:href="#DejaVuSans-30" x="147.412109"/>
       <use xlink:href="#DejaVuSans-30" x="211.035156"/>
       <use xlink:href="#DejaVuSans-30" x="274.658203"/>
       <use xlink:href="#DejaVuSans-30" x="338.28125"/>
      </g>
     </g>
    </g>
    <g id="xtick_3">
     <g id="line2d_5">
      <path d="M 243.896377 320.4 
L 243.896377 43.2 
" clip-path="url(#p6c65e9ea42)" style="fill: none; stroke: #b0b0b0; stroke-width: 0.8; stroke-linecap: square"/>
     </g>
     <g id="line2d_6">
      <g>
       <use xlink:href="#mf9e863e480" x="243.896377" y="320.4" style="stroke: #000000; stroke-width: 0.8"/>
      </g>
     </g>
     <g id="text_3">
      <!-- 0 -->
      <g transform="translate(240.715127 334.998438) scale(0.1 -0.1)">
       <use xlink:href="#DejaVuSans-30"/>
      </g>
     </g>
    </g>
    <g id="xtick_4">
     <g id="line2d_7">
      <path d="M 319.022646 320.4 
L 319.022646 43.2 
" clip-path="url(#p6c65e9ea42)" style="fill: none; stroke: #b0b0b0; stroke-width: 0.8; stroke-linecap: square"/>
     </g>
     <g id="line2d_8">
      <g>
       <use xlink:href="#mf9e863e480" x="319.022646" y="320.4" style="stroke: #000000; stroke-width: 0.8"/>
      </g>
     </g>
     <g id="text_4">
      <!-- 50000 -->
      <g transform="translate(303.116396 334.998438) scale(0.1 -0.1)">
       <use xlink:href="#DejaVuSans-35"/>
       <use xlink:href="#DejaVuSans-30" x="63.623047"/>
       <use xlink:href="#DejaVuSans-30" x="127.246094"/>
       <use xlink:href="#DejaVuSans-30" x="190.869141"/>
       <use xlink:href="#DejaVuSans-30" x="254.492188"/>
      </g>
     </g>
    </g>
    <g id="xtick_5">
     <g id="line2d_9">
      <path d="M 394.148915 320.4 
L 394.148915 43.2 
" clip-path="url(#p6c65e9ea42)" style="fill: none; stroke: #b0b0b0; stroke-width: 0.8; stroke-linecap: square"/>
     </g>
     <g id="line2d_10">
      <g>
       <use xlink:href="#mf9e863e480" x="394.148915" y="320.4" style="stroke: #000000; stroke-width: 0.8"/>
      </g>
     </g>
     <g id="text_5">
      <!-- 100000 -->
      <g transform="translate(375.061415 334.998438) scale(0.1 -0.1)">
       <use xlink:href="#DejaVuSans-31"/>
       <use xlink:href="#DejaVuSans-30" x="63.623047"/>
       <use xlink:href="#DejaVuSans-30" x="127.246094"/>
       <use xlink:href="#DejaVuSans-30" x="190.869141"/>
       <use xlink:href="#DejaVuSans-30" x="254.492188"/>
       <use xlink:href="#DejaVuSans-30" x="318.115234"/>
      </g>
     </g>
    </g>
    <g id="xtick_6">
     <g id="line2d_11">
      <path d="M 469.275184 320.4 
L 469.275184 43.2 
" clip-path="url(#p6c65e9ea42)" style="fill: none; stroke: #b0b0b0; stroke-width: 0.8; stroke-linecap: square"/>
     </g>
     <g id="line2d_12">
      <g>
       <use xlink:href="#mf9e863e480" x="469.275184" y="320.4" style="stroke: #000000; stroke-width: 0.8"/>
      </g>
     </g>
     <g id="text_6">
      <!-- 150000 -->
      <g transform="translate(450.187684 334.998438) scale(0.1 -0.1)">
       <use xlink:href="#DejaVuSans-31"/>
       <use xlink:href="#DejaVuSans-35" x="63.623047"/>
       <use xlink:href="#DejaVuSans-30" x="127.246094"/>
       <use xlink:href="#DejaVuSans-30" x="190.869141"/>
       <use xlink:href="#DejaVuSans-30" x="254.492188"/>
       <use xlink:href="#DejaVuSans-30" x="318.115234"/>
      </g>
     </g>
    </g>
    <g id="text_7">
     <!-- $Z(X_1,X_2)$ -->
     <g transform="translate(273.7 348.676562) scale(0.1 -0.1)">
      <defs>
       <path id="DejaVuSans-Oblique-5a" d="M 838 4666 
L 4500 4666 
L 4409 4184 
L 794 531 
L 3769 531 
L 3669 0 
L -141 0 
L -50 481 
L 3566 4134 
L 738 4134 
L 838 4666 
z
" transform="scale(0.015625)"/>
       <path id="DejaVuSans-28" d="M 1984 4856 
Q 1566 4138 1362 3434 
Q 1159 2731 1159 2009 
Q 1159 1288 1364 580 
Q 1569 -128 1984 -844 
L 1484 -844 
Q 1016 -109 783 600 
Q 550 1309 550 2009 
Q 550 2706 781 3412 
Q 1013 4119 1484 4856 
L 1984 4856 
z
" transform="scale(0.015625)"/>
       <path id="DejaVuSans-Oblique-58" d="M 878 4666 
L 1516 4666 
L 2316 2981 
L 3763 4666 
L 4500 4666 
L 2578 2438 
L 3738 0 
L 3103 0 
L 2163 1966 
L 459 0 
L -275 0 
L 1906 2509 
L 878 4666 
z
" transform="scale(0.015625)"/>
       <path id="DejaVuSans-2c" d="M 750 794 
L 1409 794 
L 1409 256 
L 897 -744 
L 494 -744 
L 750 256 
L 750 794 
z
" transform="scale(0.015625)"/>
       <path id="DejaVuSans-32" d="M 1228 531 
L 3431 531 
L 3431 0 
L 469 0 
L 469 531 
Q 828 903 1448 1529 
Q 2069 2156 2228 2338 
Q 2531 2678 2651 2914 
Q 2772 3150 2772 3378 
Q 2772 3750 2511 3984 
Q 2250 4219 1831 4219 
Q 1534 4219 1204 4116 
Q 875 4013 500 3803 
L 500 4441 
Q 881 4594 1212 4672 
Q 1544 4750 1819 4750 
Q 2544 4750 2975 4387 
Q 3406 4025 3406 3419 
Q 3406 3131 3298 2873 
Q 3191 2616 2906 2266 
Q 2828 2175 2409 1742 
Q 1991 1309 1228 531 
z
" transform="scale(0.015625)"/>
       <path id="DejaVuSans-29" d="M 513 4856 
L 1013 4856 
Q 1481 4119 1714 3412 
Q 1947 2706 1947 2009 
Q 1947 1309 1714 600 
Q 1481 -109 1013 -844 
L 513 -844 
Q 928 -128 1133 580 
Q 1338 1288 1338 2009 
Q 1338 2731 1133 3434 
Q 928 4138 513 4856 
z
" transform="scale(0.015625)"/>
      </defs>
      <use xlink:href="#DejaVuSans-Oblique-5a" transform="translate(0 0.125)"/>
      <use xlink:href="#DejaVuSans-28" transform="translate(68.505859 0.125)"/>
      <use xlink:href="#DejaVuSans-Oblique-58" transform="translate(107.519531 0.125)"/>
      <use xlink:href="#DejaVuSans-31" transform="translate(176.025391 -16.28125) scale(0.7)"/>
      <use xlink:href="#DejaVuSans-2c" transform="translate(223.295898 0.125)"/>
      <use xlink:href="#DejaVuSans-Oblique-58" transform="translate(274.56543 0.125)"/>
      <use xlink:href="#DejaVuSans-32" transform="translate(343.071289 -16.28125) scale(0.7)"/>
      <use xlink:href="#DejaVuSans-29" transform="translate(390.341797 0.125)"/>
     </g>
    </g>
   </g>
   <g id="matplotlib.axis_2">
    <g id="ytick_1">
     <g id="line2d_13">
      <path d="M 72 285.994397 
L 518.4 285.994397 
" clip-path="url(#p6c65e9ea42)" style="fill: none; stroke: #b0b0b0; stroke-width: 0.8; stroke-linecap: square"/>
     </g>
     <g id="line2d_14">
      <defs>
       <path id="m7baca0842c" d="M 0 0 
L -3.5 0 
" style="stroke: #000000; stroke-width: 0.8"/>
      </defs>
      <g>
       <use xlink:href="#m7baca0842c" x="72" y="285.994397" style="stroke: #000000; stroke-width: 0.8"/>
      </g>
     </g>
     <g id="text_8">
      <!-- $\mathdefault{10^{-5}}$ -->
      <g transform="translate(41.5 289.793616) scale(0.1 -0.1)">
       <use xlink:href="#DejaVuSans-31" transform="translate(0 0.684375)"/>
       <use xlink:href="#DejaVuSans-30" transform="translate(63.623047 0.684375)"/>
       <use xlink:href="#DejaVuSans-2212" transform="translate(128.203125 38.965625) scale(0.7)"/>
       <use xlink:href="#DejaVuSans-35" transform="translate(186.855469 38.965625) scale(0.7)"/>
      </g>
     </g>
    </g>
    <g id="ytick_2">
     <g id="line2d_15">
      <path d="M 72 239.955504 
L 518.4 239.955504 
" clip-path="url(#p6c65e9ea42)" style="fill: none; stroke: #b0b0b0; stroke-width: 0.8; stroke-linecap: square"/>
     </g>
     <g id="line2d_16">
      <g>
       <use xlink:href="#m7baca0842c" x="72" y="239.955504" style="stroke: #000000; stroke-width: 0.8"/>
      </g>
     </g>
     <g id="text_9">
      <!-- $\mathdefault{10^{-4}}$ -->
      <g transform="translate(41.5 243.754723) scale(0.1 -0.1)">
       <defs>
        <path id="DejaVuSans-34" d="M 2419 4116 
L 825 1625 
L 2419 1625 
L 2419 4116 
z
M 2253 4666 
L 3047 4666 
L 3047 1625 
L 3713 1625 
L 3713 1100 
L 3047 1100 
L 3047 0 
L 2419 0 
L 2419 1100 
L 313 1100 
L 313 1709 
L 2253 4666 
z
" transform="scale(0.015625)"/>
       </defs>
       <use xlink:href="#DejaVuSans-31" transform="translate(0 0.684375)"/>
       <use xlink:href="#DejaVuSans-30" transform="translate(63.623047 0.684375)"/>
       <use xlink:href="#DejaVuSans-2212" transform="translate(128.203125 38.965625) scale(0.7)"/>
       <use xlink:href="#DejaVuSans-34" transform="translate(186.855469 38.965625) scale(0.7)"/>
      </g>
     </g>
    </g>
    <g id="ytick_3">
     <g id="line2d_17">
      <path d="M 72 193.916611 
L 518.4 193.916611 
" clip-path="url(#p6c65e9ea42)" style="fill: none; stroke: #b0b0b0; stroke-width: 0.8; stroke-linecap: square"/>
     </g>
     <g id="line2d_18">
      <g>
       <use xlink:href="#m7baca0842c" x="72" y="193.916611" style="stroke: #000000; stroke-width: 0.8"/>
      </g>
     </g>
     <g id="text_10">
      <!-- $\mathdefault{10^{-3}}$ -->
      <g transform="translate(41.5 197.71583) scale(0.1 -0.1)">
       <defs>
        <path id="DejaVuSans-33" d="M 2597 2516 
Q 3050 2419 3304 2112 
Q 3559 1806 3559 1356 
Q 3559 666 3084 287 
Q 2609 -91 1734 -91 
Q 1441 -91 1130 -33 
Q 819 25 488 141 
L 488 750 
Q 750 597 1062 519 
Q 1375 441 1716 441 
Q 2309 441 2620 675 
Q 2931 909 2931 1356 
Q 2931 1769 2642 2001 
Q 2353 2234 1838 2234 
L 1294 2234 
L 1294 2753 
L 1863 2753 
Q 2328 2753 2575 2939 
Q 2822 3125 2822 3475 
Q 2822 3834 2567 4026 
Q 2313 4219 1838 4219 
Q 1578 4219 1281 4162 
Q 984 4106 628 3988 
L 628 4550 
Q 988 4650 1302 4700 
Q 1616 4750 1894 4750 
Q 2613 4750 3031 4423 
Q 3450 4097 3450 3541 
Q 3450 3153 3228 2886 
Q 3006 2619 2597 2516 
z
" transform="scale(0.015625)"/>
       </defs>
       <use xlink:href="#DejaVuSans-31" transform="translate(0 0.765625)"/>
       <use xlink:href="#DejaVuSans-30" transform="translate(63.623047 0.765625)"/>
       <use xlink:href="#DejaVuSans-2212" transform="translate(128.203125 39.046875) scale(0.7)"/>
       <use xlink:href="#DejaVuSans-33" transform="translate(186.855469 39.046875) scale(0.7)"/>
      </g>
     </g>
    </g>
    <g id="ytick_4">
     <g id="line2d_19">
      <path d="M 72 147.877719 
L 518.4 147.877719 
" clip-path="url(#p6c65e9ea42)" style="fill: none; stroke: #b0b0b0; stroke-width: 0.8; stroke-linecap: square"/>
     </g>
     <g id="line2d_20">
      <g>
       <use xlink:href="#m7baca0842c" x="72" y="147.877719" style="stroke: #000000; stroke-width: 0.8"/>
      </g>
     </g>
     <g id="text_11">
      <!-- $\mathdefault{10^{-2}}$ -->
      <g transform="translate(41.5 151.676937) scale(0.1 -0.1)">
       <use xlink:href="#DejaVuSans-31" transform="translate(0 0.765625)"/>
       <use xlink:href="#DejaVuSans-30" transform="translate(63.623047 0.765625)"/>
       <use xlink:href="#DejaVuSans-2212" transform="translate(128.203125 39.046875) scale(0.7)"/>
       <use xlink:href="#DejaVuSans-32" transform="translate(186.855469 39.046875) scale(0.7)"/>
      </g>
     </g>
    </g>
    <g id="ytick_5">
     <g id="line2d_21">
      <path d="M 72 101.838826 
L 518.4 101.838826 
" clip-path="url(#p6c65e9ea42)" style="fill: none; stroke: #b0b0b0; stroke-width: 0.8; stroke-linecap: square"/>
     </g>
     <g id="line2d_22">
      <g>
       <use xlink:href="#m7baca0842c" x="72" y="101.838826" style="stroke: #000000; stroke-width: 0.8"/>
      </g>
     </g>
     <g id="text_12">
      <!-- $\mathdefault{10^{-1}}$ -->
      <g transform="translate(41.5 105.638044) scale(0.1 -0.1)">
       <use xlink:href="#DejaVuSans-31" transform="translate(0 0.684375)"/>
       <use xlink:href="#DejaVuSans-30" transform="translate(63.623047 0.684375)"/>
       <use xlink:href="#DejaVuSans-2212" transform="translate(128.203125 38.965625) scale(0.7)"/>
       <use xlink:href="#DejaVuSans-31" transform="translate(186.855469 38.965625) scale(0.7)"/>
      </g>
     </g>
    </g>
    <g id="ytick_6">
     <g id="line2d_23">
      <path d="M 72 55.799933 
L 518.4 55.799933 
" clip-path="url(#p6c65e9ea42)" style="fill: none; stroke: #b0b0b0; stroke-width: 0.8; stroke-linecap: square"/>
     </g>
     <g id="line2d_24">
      <g>
       <use xlink:href="#m7baca0842c" x="72" y="55.799933" style="stroke: #000000; stroke-width: 0.8"/>
      </g>
     </g>
     <g id="text_13">
      <!-- $\mathdefault{10^{0}}$ -->
      <g transform="translate(47.4 59.599152) scale(0.1 -0.1)">
       <use xlink:href="#DejaVuSans-31" transform="translate(0 0.765625)"/>
       <use xlink:href="#DejaVuSans-30" transform="translate(63.623047 0.765625)"/>
       <use xlink:href="#DejaVuSans-30" transform="translate(128.203125 39.046875) scale(0.7)"/>
      </g>
     </g>
    </g>
    <g id="ytick_7">
     <g id="line2d_25">
      <defs>
       <path id="m043bd377b2" d="M 0 0 
L -2 0 
" style="stroke: #000000; stroke-width: 0.6"/>
      </defs>
      <g>
       <use xlink:href="#m043bd377b2" x="72" y="318.174202" style="stroke: #000000; stroke-width: 0.6"/>
      </g>
     </g>
    </g>
    <g id="ytick_8">
     <g id="line2d_26">
      <g>
       <use xlink:href="#m043bd377b2" x="72" y="310.067156" style="stroke: #000000; stroke-width: 0.6"/>
      </g>
     </g>
    </g>
    <g id="ytick_9">
     <g id="line2d_27">
      <g>
       <use xlink:href="#m043bd377b2" x="72" y="304.315115" style="stroke: #000000; stroke-width: 0.6"/>
      </g>
     </g>
    </g>
    <g id="ytick_10">
     <g id="line2d_28">
      <g>
       <use xlink:href="#m043bd377b2" x="72" y="299.853485" style="stroke: #000000; stroke-width: 0.6"/>
      </g>
     </g>
    </g>
    <g id="ytick_11">
     <g id="line2d_29">
      <g>
       <use xlink:href="#m043bd377b2" x="72" y="296.208068" style="stroke: #000000; stroke-width: 0.6"/>
      </g>
     </g>
    </g>
    <g id="ytick_12">
     <g id="line2d_30">
      <g>
       <use xlink:href="#m043bd377b2" x="72" y="293.125912" style="stroke: #000000; stroke-width: 0.6"/>
      </g>
     </g>
    </g>
    <g id="ytick_13">
     <g id="line2d_31">
      <g>
       <use xlink:href="#m043bd377b2" x="72" y="290.456027" style="stroke: #000000; stroke-width: 0.6"/>
      </g>
     </g>
    </g>
    <g id="ytick_14">
     <g id="line2d_32">
      <g>
       <use xlink:href="#m043bd377b2" x="72" y="288.101021" style="stroke: #000000; stroke-width: 0.6"/>
      </g>
     </g>
    </g>
    <g id="ytick_15">
     <g id="line2d_33">
      <g>
       <use xlink:href="#m043bd377b2" x="72" y="272.13531" style="stroke: #000000; stroke-width: 0.6"/>
      </g>
     </g>
    </g>
    <g id="ytick_16">
     <g id="line2d_34">
      <g>
       <use xlink:href="#m043bd377b2" x="72" y="264.028263" style="stroke: #000000; stroke-width: 0.6"/>
      </g>
     </g>
    </g>
    <g id="ytick_17">
     <g id="line2d_35">
      <g>
       <use xlink:href="#m043bd377b2" x="72" y="258.276222" style="stroke: #000000; stroke-width: 0.6"/>
      </g>
     </g>
    </g>
    <g id="ytick_18">
     <g id="line2d_36">
      <g>
       <use xlink:href="#m043bd377b2" x="72" y="253.814592" style="stroke: #000000; stroke-width: 0.6"/>
      </g>
     </g>
    </g>
    <g id="ytick_19">
     <g id="line2d_37">
      <g>
       <use xlink:href="#m043bd377b2" x="72" y="250.169175" style="stroke: #000000; stroke-width: 0.6"/>
      </g>
     </g>
    </g>
    <g id="ytick_20">
     <g id="line2d_38">
      <g>
       <use xlink:href="#m043bd377b2" x="72" y="247.087019" style="stroke: #000000; stroke-width: 0.6"/>
      </g>
     </g>
    </g>
    <g id="ytick_21">
     <g id="line2d_39">
      <g>
       <use xlink:href="#m043bd377b2" x="72" y="244.417134" style="stroke: #000000; stroke-width: 0.6"/>
      </g>
     </g>
    </g>
    <g id="ytick_22">
     <g id="line2d_40">
      <g>
       <use xlink:href="#m043bd377b2" x="72" y="242.062129" style="stroke: #000000; stroke-width: 0.6"/>
      </g>
     </g>
    </g>
    <g id="ytick_23">
     <g id="line2d_41">
      <g>
       <use xlink:href="#m043bd377b2" x="72" y="226.096417" style="stroke: #000000; stroke-width: 0.6"/>
      </g>
     </g>
    </g>
    <g id="ytick_24">
     <g id="line2d_42">
      <g>
       <use xlink:href="#m043bd377b2" x="72" y="217.98937" style="stroke: #000000; stroke-width: 0.6"/>
      </g>
     </g>
    </g>
    <g id="ytick_25">
     <g id="line2d_43">
      <g>
       <use xlink:href="#m043bd377b2" x="72" y="212.237329" style="stroke: #000000; stroke-width: 0.6"/>
      </g>
     </g>
    </g>
    <g id="ytick_26">
     <g id="line2d_44">
      <g>
       <use xlink:href="#m043bd377b2" x="72" y="207.775699" style="stroke: #000000; stroke-width: 0.6"/>
      </g>
     </g>
    </g>
    <g id="ytick_27">
     <g id="line2d_45">
      <g>
       <use xlink:href="#m043bd377b2" x="72" y="204.130282" style="stroke: #000000; stroke-width: 0.6"/>
      </g>
     </g>
    </g>
    <g id="ytick_28">
     <g id="line2d_46">
      <g>
       <use xlink:href="#m043bd377b2" x="72" y="201.048126" style="stroke: #000000; stroke-width: 0.6"/>
      </g>
     </g>
    </g>
    <g id="ytick_29">
     <g id="line2d_47">
      <g>
       <use xlink:href="#m043bd377b2" x="72" y="198.378241" style="stroke: #000000; stroke-width: 0.6"/>
      </g>
     </g>
    </g>
    <g id="ytick_30">
     <g id="line2d_48">
      <g>
       <use xlink:href="#m043bd377b2" x="72" y="196.023236" style="stroke: #000000; stroke-width: 0.6"/>
      </g>
     </g>
    </g>
    <g id="ytick_31">
     <g id="line2d_49">
      <g>
       <use xlink:href="#m043bd377b2" x="72" y="180.057524" style="stroke: #000000; stroke-width: 0.6"/>
      </g>
     </g>
    </g>
    <g id="ytick_32">
     <g id="line2d_50">
      <g>
       <use xlink:href="#m043bd377b2" x="72" y="171.950477" style="stroke: #000000; stroke-width: 0.6"/>
      </g>
     </g>
    </g>
    <g id="ytick_33">
     <g id="line2d_51">
      <g>
       <use xlink:href="#m043bd377b2" x="72" y="166.198436" style="stroke: #000000; stroke-width: 0.6"/>
      </g>
     </g>
    </g>
    <g id="ytick_34">
     <g id="line2d_52">
      <g>
       <use xlink:href="#m043bd377b2" x="72" y="161.736806" style="stroke: #000000; stroke-width: 0.6"/>
      </g>
     </g>
    </g>
    <g id="ytick_35">
     <g id="line2d_53">
      <g>
       <use xlink:href="#m043bd377b2" x="72" y="158.091389" style="stroke: #000000; stroke-width: 0.6"/>
      </g>
     </g>
    </g>
    <g id="ytick_36">
     <g id="line2d_54">
      <g>
       <use xlink:href="#m043bd377b2" x="72" y="155.009233" style="stroke: #000000; stroke-width: 0.6"/>
      </g>
     </g>
    </g>
    <g id="ytick_37">
     <g id="line2d_55">
      <g>
       <use xlink:href="#m043bd377b2" x="72" y="152.339348" style="stroke: #000000; stroke-width: 0.6"/>
      </g>
     </g>
    </g>
    <g id="ytick_38">
     <g id="line2d_56">
      <g>
       <use xlink:href="#m043bd377b2" x="72" y="149.984343" style="stroke: #000000; stroke-width: 0.6"/>
      </g>
     </g>
    </g>
    <g id="ytick_39">
     <g id="line2d_57">
      <g>
       <use xlink:href="#m043bd377b2" x="72" y="134.018631" style="stroke: #000000; stroke-width: 0.6"/>
      </g>
     </g>
    </g>
    <g id="ytick_40">
     <g id="line2d_58">
      <g>
       <use xlink:href="#m043bd377b2" x="72" y="125.911584" style="stroke: #000000; stroke-width: 0.6"/>
      </g>
     </g>
    </g>
    <g id="ytick_41">
     <g id="line2d_59">
      <g>
       <use xlink:href="#m043bd377b2" x="72" y="120.159543" style="stroke: #000000; stroke-width: 0.6"/>
      </g>
     </g>
    </g>
    <g id="ytick_42">
     <g id="line2d_60">
      <g>
       <use xlink:href="#m043bd377b2" x="72" y="115.697913" style="stroke: #000000; stroke-width: 0.6"/>
      </g>
     </g>
    </g>
    <g id="ytick_43">
     <g id="line2d_61">
      <g>
       <use xlink:href="#m043bd377b2" x="72" y="112.052497" style="stroke: #000000; stroke-width: 0.6"/>
      </g>
     </g>
    </g>
    <g id="ytick_44">
     <g id="line2d_62">
      <g>
       <use xlink:href="#m043bd377b2" x="72" y="108.97034" style="stroke: #000000; stroke-width: 0.6"/>
      </g>
     </g>
    </g>
    <g id="ytick_45">
     <g id="line2d_63">
      <g>
       <use xlink:href="#m043bd377b2" x="72" y="106.300455" style="stroke: #000000; stroke-width: 0.6"/>
      </g>
     </g>
    </g>
    <g id="ytick_46">
     <g id="line2d_64">
      <g>
       <use xlink:href="#m043bd377b2" x="72" y="103.94545" style="stroke: #000000; stroke-width: 0.6"/>
      </g>
     </g>
    </g>
    <g id="ytick_47">
     <g id="line2d_65">
      <g>
       <use xlink:href="#m043bd377b2" x="72" y="87.979738" style="stroke: #000000; stroke-width: 0.6"/>
      </g>
     </g>
    </g>
    <g id="ytick_48">
     <g id="line2d_66">
      <g>
       <use xlink:href="#m043bd377b2" x="72" y="79.872691" style="stroke: #000000; stroke-width: 0.6"/>
      </g>
     </g>
    </g>
    <g id="ytick_49">
     <g id="line2d_67">
      <g>
       <use xlink:href="#m043bd377b2" x="72" y="74.12065" style="stroke: #000000; stroke-width: 0.6"/>
      </g>
     </g>
    </g>
    <g id="ytick_50">
     <g id="line2d_68">
      <g>
       <use xlink:href="#m043bd377b2" x="72" y="69.659021" style="stroke: #000000; stroke-width: 0.6"/>
      </g>
     </g>
    </g>
    <g id="ytick_51">
     <g id="line2d_69">
      <g>
       <use xlink:href="#m043bd377b2" x="72" y="66.013604" style="stroke: #000000; stroke-width: 0.6"/>
      </g>
     </g>
    </g>
    <g id="ytick_52">
     <g id="line2d_70">
      <g>
       <use xlink:href="#m043bd377b2" x="72" y="62.931448" style="stroke: #000000; stroke-width: 0.6"/>
      </g>
     </g>
    </g>
    <g id="ytick_53">
     <g id="line2d_71">
      <g>
       <use xlink:href="#m043bd377b2" x="72" y="60.261563" style="stroke: #000000; stroke-width: 0.6"/>
      </g>
     </g>
    </g>
    <g id="ytick_54">
     <g id="line2d_72">
      <g>
       <use xlink:href="#m043bd377b2" x="72" y="57.906557" style="stroke: #000000; stroke-width: 0.6"/>
      </g>
     </g>
    </g>
    <g id="text_14">
     <!-- Exceedance Probability, $\mathrm{P}[Z &gt; z]$ -->
     <g transform="translate(35.4 262.6) rotate(-90) scale(0.1 -0.1)">
      <defs>
       <path id="DejaVuSans-45" d="M 628 4666 
L 3578 4666 
L 3578 4134 
L 1259 4134 
L 1259 2753 
L 3481 2753 
L 3481 2222 
L 1259 2222 
L 1259 531 
L 3634 531 
L 3634 0 
L 628 0 
L 628 4666 
z
" transform="scale(0.015625)"/>
       <path id="DejaVuSans-78" d="M 3513 3500 
L 2247 1797 
L 3578 0 
L 2900 0 
L 1881 1375 
L 863 0 
L 184 0 
L 1544 1831 
L 300 3500 
L 978 3500 
L 1906 2253 
L 2834 3500 
L 3513 3500 
z
" transform="scale(0.015625)"/>
       <path id="DejaVuSans-63" d="M 3122 3366 
L 3122 2828 
Q 2878 2963 2633 3030 
Q 2388 3097 2138 3097 
Q 1578 3097 1268 2742 
Q 959 2388 959 1747 
Q 959 1106 1268 751 
Q 1578 397 2138 397 
Q 2388 397 2633 464 
Q 2878 531 3122 666 
L 3122 134 
Q 2881 22 2623 -34 
Q 2366 -91 2075 -91 
Q 1284 -91 818 406 
Q 353 903 353 1747 
Q 353 2603 823 3093 
Q 1294 3584 2113 3584 
Q 2378 3584 2631 3529 
Q 2884 3475 3122 3366 
z
" transform="scale(0.015625)"/>
       <path id="DejaVuSans-65" d="M 3597 1894 
L 3597 1613 
L 953 1613 
Q 991 1019 1311 708 
Q 1631 397 2203 397 
Q 2534 397 2845 478 
Q 3156 559 3463 722 
L 3463 178 
Q 3153 47 2828 -22 
Q 2503 -91 2169 -91 
Q 1331 -91 842 396 
Q 353 884 353 1716 
Q 353 2575 817 3079 
Q 1281 3584 2069 3584 
Q 2775 3584 3186 3129 
Q 3597 2675 3597 1894 
z
M 3022 2063 
Q 3016 2534 2758 2815 
Q 2500 3097 2075 3097 
Q 1594 3097 1305 2825 
Q 1016 2553 972 2059 
L 3022 2063 
z
" transform="scale(0.015625)"/>
       <path id="DejaVuSans-64" d="M 2906 2969 
L 2906 4863 
L 3481 4863 
L 3481 0 
L 2906 0 
L 2906 525 
Q 2725 213 2448 61 
Q 2172 -91 1784 -91 
Q 1150 -91 751 415 
Q 353 922 353 1747 
Q 353 2572 751 3078 
Q 1150 3584 1784 3584 
Q 2172 3584 2448 3432 
Q 2725 3281 2906 2969 
z
M 947 1747 
Q 947 1113 1208 752 
Q 1469 391 1925 391 
Q 2381 391 2643 752 
Q 2906 1113 2906 1747 
Q 2906 2381 2643 2742 
Q 2381 3103 1925 3103 
Q 1469 3103 1208 2742 
Q 947 2381 947 1747 
z
" transform="scale(0.015625)"/>
       <path id="DejaVuSans-61" d="M 2194 1759 
Q 1497 1759 1228 1600 
Q 959 1441 959 1056 
Q 959 750 1161 570 
Q 1363 391 1709 391 
Q 2188 391 2477 730 
Q 2766 1069 2766 1631 
L 2766 1759 
L 2194 1759 
z
M 3341 1997 
L 3341 0 
L 2766 0 
L 2766 531 
Q 2569 213 2275 61 
Q 1981 -91 1556 -91 
Q 1019 -91 701 211 
Q 384 513 384 1019 
Q 384 1609 779 1909 
Q 1175 2209 1959 2209 
L 2766 2209 
L 2766 2266 
Q 2766 2663 2505 2880 
Q 2244 3097 1772 3097 
Q 1472 3097 1187 3025 
Q 903 2953 641 2809 
L 641 3341 
Q 956 3463 1253 3523 
Q 1550 3584 1831 3584 
Q 2591 3584 2966 3190 
Q 3341 2797 3341 1997 
z
" transform="scale(0.015625)"/>
       <path id="DejaVuSans-6e" d="M 3513 2113 
L 3513 0 
L 2938 0 
L 2938 2094 
Q 2938 2591 2744 2837 
Q 2550 3084 2163 3084 
Q 1697 3084 1428 2787 
Q 1159 2491 1159 1978 
L 1159 0 
L 581 0 
L 581 3500 
L 1159 3500 
L 1159 2956 
Q 1366 3272 1645 3428 
Q 1925 3584 2291 3584 
Q 2894 3584 3203 3211 
Q 3513 2838 3513 2113 
z
" transform="scale(0.015625)"/>
       <path id="DejaVuSans-20" transform="scale(0.015625)"/>
       <path id="DejaVuSans-50" d="M 1259 4147 
L 1259 2394 
L 2053 2394 
Q 2494 2394 2734 2622 
Q 2975 2850 2975 3272 
Q 2975 3691 2734 3919 
Q 2494 4147 2053 4147 
L 1259 4147 
z
M 628 4666 
L 2053 4666 
Q 2838 4666 3239 4311 
Q 3641 3956 3641 3272 
Q 3641 2581 3239 2228 
Q 2838 1875 2053 1875 
L 1259 1875 
L 1259 0 
L 628 0 
L 628 4666 
z
" transform="scale(0.015625)"/>
       <path id="DejaVuSans-72" d="M 2631 2963 
Q 2534 3019 2420 3045 
Q 2306 3072 2169 3072 
Q 1681 3072 1420 2755 
Q 1159 2438 1159 1844 
L 1159 0 
L 581 0 
L 581 3500 
L 1159 3500 
L 1159 2956 
Q 1341 3275 1631 3429 
Q 1922 3584 2338 3584 
Q 2397 3584 2469 3576 
Q 2541 3569 2628 3553 
L 2631 2963 
z
" transform="scale(0.015625)"/>
       <path id="DejaVuSans-6f" d="M 1959 3097 
Q 1497 3097 1228 2736 
Q 959 2375 959 1747 
Q 959 1119 1226 758 
Q 1494 397 1959 397 
Q 2419 397 2687 759 
Q 2956 1122 2956 1747 
Q 2956 2369 2687 2733 
Q 2419 3097 1959 3097 
z
M 1959 3584 
Q 2709 3584 3137 3096 
Q 3566 2609 3566 1747 
Q 3566 888 3137 398 
Q 2709 -91 1959 -91 
Q 1206 -91 779 398 
Q 353 888 353 1747 
Q 353 2609 779 3096 
Q 1206 3584 1959 3584 
z
" transform="scale(0.015625)"/>
       <path id="DejaVuSans-62" d="M 3116 1747 
Q 3116 2381 2855 2742 
Q 2594 3103 2138 3103 
Q 1681 3103 1420 2742 
Q 1159 2381 1159 1747 
Q 1159 1113 1420 752 
Q 1681 391 2138 391 
Q 2594 391 2855 752 
Q 3116 1113 3116 1747 
z
M 1159 2969 
Q 1341 3281 1617 3432 
Q 1894 3584 2278 3584 
Q 2916 3584 3314 3078 
Q 3713 2572 3713 1747 
Q 3713 922 3314 415 
Q 2916 -91 2278 -91 
Q 1894 -91 1617 61 
Q 1341 213 1159 525 
L 1159 0 
L 581 0 
L 581 4863 
L 1159 4863 
L 1159 2969 
z
" transform="scale(0.015625)"/>
       <path id="DejaVuSans-69" d="M 603 3500 
L 1178 3500 
L 1178 0 
L 603 0 
L 603 3500 
z
M 603 4863 
L 1178 4863 
L 1178 4134 
L 603 4134 
L 603 4863 
z
" transform="scale(0.015625)"/>
       <path id="DejaVuSans-6c" d="M 603 4863 
L 1178 4863 
L 1178 0 
L 603 0 
L 603 4863 
z
" transform="scale(0.015625)"/>
       <path id="DejaVuSans-74" d="M 1172 4494 
L 1172 3500 
L 2356 3500 
L 2356 3053 
L 1172 3053 
L 1172 1153 
Q 1172 725 1289 603 
Q 1406 481 1766 481 
L 2356 481 
L 2356 0 
L 1766 0 
Q 1100 0 847 248 
Q 594 497 594 1153 
L 594 3053 
L 172 3053 
L 172 3500 
L 594 3500 
L 594 4494 
L 1172 4494 
z
" transform="scale(0.015625)"/>
       <path id="DejaVuSans-79" d="M 2059 -325 
Q 1816 -950 1584 -1140 
Q 1353 -1331 966 -1331 
L 506 -1331 
L 506 -850 
L 844 -850 
Q 1081 -850 1212 -737 
Q 1344 -625 1503 -206 
L 1606 56 
L 191 3500 
L 800 3500 
L 1894 763 
L 2988 3500 
L 3597 3500 
L 2059 -325 
z
" transform="scale(0.015625)"/>
       <path id="DejaVuSans-5b" d="M 550 4863 
L 1875 4863 
L 1875 4416 
L 1125 4416 
L 1125 -397 
L 1875 -397 
L 1875 -844 
L 550 -844 
L 550 4863 
z
" transform="scale(0.015625)"/>
       <path id="DejaVuSans-3e" d="M 678 3150 
L 678 3719 
L 4684 2266 
L 4684 1747 
L 678 294 
L 678 863 
L 3897 2003 
L 678 3150 
z
" transform="scale(0.015625)"/>
       <path id="DejaVuSans-Oblique-7a" d="M 744 3500 
L 3475 3500 
L 3372 2975 
L 738 459 
L 2913 459 
L 2822 0 
L -19 0 
L 84 525 
L 2719 3041 
L 653 3041 
L 744 3500 
z
" transform="scale(0.015625)"/>
       <path id="DejaVuSans-5d" d="M 1947 4863 
L 1947 -844 
L 622 -844 
L 622 -397 
L 1369 -397 
L 1369 4416 
L 622 4416 
L 622 4863 
L 1947 4863 
z
" transform="scale(0.015625)"/>
      </defs>
      <use xlink:href="#DejaVuSans-45" transform="translate(0 0.015625)"/>
      <use xlink:href="#DejaVuSans-78" transform="translate(63.183594 0.015625)"/>
      <use xlink:href="#DejaVuSans-63" transform="translate(122.363281 0.015625)"/>
      <use xlink:href="#DejaVuSans-65" transform="translate(177.34375 0.015625)"/>
      <use xlink:href="#DejaVuSans-65" transform="translate(238.867188 0.015625)"/>
      <use xlink:href="#DejaVuSans-64" transform="translate(300.390625 0.015625)"/>
      <use xlink:href="#DejaVuSans-61" transform="translate(363.867188 0.015625)"/>
      <use xlink:href="#DejaVuSans-6e" transform="translate(425.146484 0.015625)"/>
      <use xlink:href="#DejaVuSans-63" transform="translate(488.525391 0.015625)"/>
      <use xlink:href="#DejaVuSans-65" transform="translate(543.505859 0.015625)"/>
      <use xlink:href="#DejaVuSans-20" transform="translate(605.029297 0.015625)"/>
      <use xlink:href="#DejaVuSans-50" transform="translate(636.816406 0.015625)"/>
      <use xlink:href="#DejaVuSans-72" transform="translate(697.119141 0.015625)"/>
      <use xlink:href="#DejaVuSans-6f" transform="translate(738.232422 0.015625)"/>
      <use xlink:href="#DejaVuSans-62" transform="translate(799.414062 0.015625)"/>
      <use xlink:href="#DejaVuSans-61" transform="translate(862.890625 0.015625)"/>
      <use xlink:href="#DejaVuSans-62" transform="translate(924.169922 0.015625)"/>
      <use xlink:href="#DejaVuSans-69" transform="translate(987.646484 0.015625)"/>
      <use xlink:href="#DejaVuSans-6c" transform="translate(1015.429688 0.015625)"/>
      <use xlink:href="#DejaVuSans-69" transform="translate(1043.212891 0.015625)"/>
      <use xlink:href="#DejaVuSans-74" transform="translate(1070.996094 0.015625)"/>
      <use xlink:href="#DejaVuSans-79" transform="translate(1110.205078 0.015625)"/>
      <use xlink:href="#DejaVuSans-2c" transform="translate(1169.384766 0.015625)"/>
      <use xlink:href="#DejaVuSans-20" transform="translate(1201.171875 0.015625)"/>
      <use xlink:href="#DejaVuSans-50" transform="translate(1232.958984 0.015625)"/>
      <use xlink:href="#DejaVuSans-5b" transform="translate(1293.261719 0.015625)"/>
      <use xlink:href="#DejaVuSans-Oblique-5a" transform="translate(1332.275391 0.015625)"/>
      <use xlink:href="#DejaVuSans-3e" transform="translate(1420.263672 0.015625)"/>
      <use xlink:href="#DejaVuSans-Oblique-7a" transform="translate(1523.535156 0.015625)"/>
      <use xlink:href="#DejaVuSans-5d" transform="translate(1576.025391 0.015625)"/>
     </g>
    </g>
   </g>
   <g id="line2d_73">
    <path d="M 250.737375 55.80665 
L 250.737375 55.81337 
L 254.226239 55.921193 
L 254.226239 55.94824 
L 254.974497 56.056795 
L 254.974497 56.0636 
L 255.360646 56.172784 
L 255.455305 56.200174 
L 255.850469 56.303221 
L 255.850469 56.310109 
L 255.945128 56.358397 
L 256.280191 56.462264 
L 256.280191 56.469208 
L 256.383865 56.503963 
L 256.924775 56.601599 
L 256.924775 56.608591 
L 256.984876 56.678649 
L 257.474699 56.784198 
L 257.5348 56.819505 
L 257.84432 56.925802 
L 257.904421 56.989853 
L 258.394244 57.097062 
L 258.454345 57.168855 
L 258.823967 57.269801 
L 258.823967 57.277031 
L 258.902098 57.305977 
L 259.15903 57.414899 
L 259.262704 57.473234 
L 259.648853 57.575733 
L 259.648853 57.583074 
L 259.743512 57.627179 
L 259.992931 57.73787 
L 260.08759 57.789737 
L 260.293436 57.886418 
L 260.293436 57.893875 
L 260.353537 57.961108 
L 260.663058 58.051106 
L 260.663058 58.066145 
L 260.663058 58.081195 
L 261.152881 58.1793 
L 261.152881 58.186866 
L 261.196454 58.202008 
L 261.591618 58.308321 
L 261.686277 58.354057 
L 261.917666 58.43818 
L 261.917666 58.461184 
L 261.977767 58.514964 
L 262.347389 58.607495 
L 262.347389 58.622959 
L 262.451063 58.692693 
L 262.777111 58.801655 
L 262.880785 58.872017 
L 263.112174 58.981963 
L 263.206833 59.052963 
L 263.601997 59.155966 
L 263.601997 59.163912 
L 263.696656 59.195725 
L 264.18648 59.299468 
L 264.246581 59.347531 
L 264.505015 59.452067 
L 264.581644 59.52476 
L 264.82355 59.630229 
L 264.891164 59.670942 
L 265.158614 59.777187 
L 265.260785 59.818201 
L 265.501189 59.925234 
L 265.501189 59.933491 
L 265.930912 60.041144 
L 266.009043 60.091026 
L 266.205874 60.199533 
L 266.300533 60.233039 
L 266.575495 60.342321 
L 266.653626 60.40987 
L 266.910558 60.520126 
L 267.005217 60.605354 
L 267.229094 60.708109 
L 267.307225 60.742479 
L 267.615243 60.845943 
L 267.709902 60.88055 
L 267.984864 60.984733 
L 268.044965 61.028304 
L 268.199725 61.11573 
L 268.199725 61.133262 
L 268.259826 61.212343 
L 268.509245 61.318274 
L 268.594889 61.398093 
L 268.80975 61.505015 
L 268.904409 61.612512 
L 269.068185 61.720591 
L 269.162844 61.802034 
L 269.299574 61.902029 
L 269.299574 61.911145 
L 269.394233 62.002527 
L 269.687225 62.11274 
L 269.781884 62.168075 
L 269.884056 62.260642 
L 269.884056 62.269923 
L 269.98773 62.316389 
L 270.159018 62.409647 
L 270.159018 62.418997 
L 270.237149 62.503342 
L 270.43398 62.606916 
L 270.528639 62.692059 
L 270.708942 62.777566 
L 270.708942 62.796618 
L 270.803601 62.873005 
L 270.923804 62.949686 
L 270.923804 62.978517 
L 271.018463 63.036304 
L 271.327983 63.142684 
L 271.422642 63.230144 
L 271.551859 63.327774 
L 271.551859 63.337563 
L 271.655533 63.475117 
L 271.801278 63.583864 
L 271.861379 63.653375 
L 272.016139 63.763098 
L 272.118311 63.853321 
L 272.240016 63.96415 
L 272.333172 64.065439 
L 272.487932 64.167244 
L 272.591607 64.238817 
L 272.720824 64.341511 
L 272.822996 64.455086 
L 272.935685 64.5589 
L 273.037857 64.663255 
L 273.167074 64.768158 
L 273.252718 64.90536 
L 273.381935 64.990262 
L 273.381935 65.011544 
L 273.467579 65.107594 
L 273.536695 65.204108 
L 273.536695 65.214861 
L 273.623842 65.344345 
L 273.769587 65.442011 
L 273.769587 65.452893 
L 273.864246 65.540157 
L 274.000975 65.649776 
L 274.10465 65.793185 
L 274.233867 65.904204 
L 274.328526 65.982285 
L 274.456241 66.083126 
L 274.5509 66.184478 
L 274.662087 66.241007 
L 274.662087 66.286346 
L 274.765761 66.434412 
L 275.024195 66.537565 
L 275.126367 66.664368 
L 275.30667 66.745481 
L 275.30667 66.768717 
L 275.393817 66.850256 
L 275.608678 66.955582 
L 275.703337 67.085073 
L 275.814524 67.191647 
L 275.916695 67.334635 
L 276.003842 67.442551 
L 276.106014 67.551053 
L 276.304347 67.660147 
L 276.399006 67.769839 
L 276.511695 67.880137 
L 276.613867 67.991046 
L 276.819713 68.090151 
L 276.888829 68.127443 
L 277.08566 68.227228 
L 277.189334 68.352664 
L 277.318552 68.453583 
L 277.422226 68.529607 
L 277.54994 68.631425 
L 277.653615 68.746593 
L 277.79936 68.849525 
L 277.894019 68.940027 
L 278.039764 69.043962 
L 278.125408 69.14844 
L 278.376329 69.253467 
L 278.478501 69.372285 
L 278.633261 69.46519 
L 278.633261 69.478498 
L 278.72792 69.638882 
L 278.899208 69.746524 
L 279.002882 69.841188 
L 279.114069 69.949928 
L 279.201216 70.100417 
L 279.407062 70.210579 
L 279.501721 70.307472 
L 279.647466 70.404836 
L 279.749638 70.558802 
L 279.999057 70.657401 
L 280.068173 70.742303 
L 280.206405 70.827567 
L 280.206405 70.841813 
L 280.31008 70.941822 
L 280.437794 71.042332 
L 280.532453 71.157824 
L 280.627112 71.259429 
L 280.730787 71.43482 
L 280.867516 71.537847 
L 280.945648 71.656245 
L 281.116936 71.745506 
L 281.116936 71.760422 
L 281.186052 71.835167 
L 281.315269 71.940283 
L 281.409928 72.030824 
L 281.53013 72.136976 
L 281.632302 72.27429 
L 281.856178 72.381746 
L 281.899751 72.427976 
L 282.174714 72.536264 
L 282.276885 72.707623 
L 282.595421 72.81744 
L 282.646507 72.912051 
L 282.819297 73.022999 
L 282.921469 73.182573 
L 283.050686 73.278932 
L 283.15436 73.521881 
L 283.265547 73.603524 
L 283.265547 73.619893 
L 283.369221 73.751327 
L 283.489423 73.850474 
L 283.566052 73.916845 
L 283.660711 74.000121 
L 283.660711 74.016818 
L 283.720812 74.066992 
L 283.935673 74.150896 
L 283.935673 74.16772 
L 284.039348 74.285881 
L 284.185093 74.370711 
L 284.185093 74.38772 
L 284.288767 74.507192 
L 284.529171 74.610168 
L 284.631343 74.748299 
L 284.744032 74.852528 
L 284.838691 75.009896 
L 284.940863 75.115501 
L 285.035522 75.221666 
L 285.215825 75.328398 
L 285.319499 75.417779 
L 285.405143 75.525566 
L 285.501305 75.670192 
L 285.680105 75.779352 
L 285.749221 75.870776 
L 285.903982 75.98104 
L 286.007656 76.110454 
L 286.11133 76.203409 
L 286.213502 76.296797 
L 286.290131 76.390624 
L 286.324689 76.428278 
L 286.497479 76.522725 
L 286.599651 76.598606 
L 286.737883 76.693863 
L 286.823527 76.808774 
L 286.994815 76.90504 
L 287.081961 77.098974 
L 287.262265 77.196651 
L 287.364436 77.413235 
L 287.537227 77.512463 
L 287.639398 77.692324 
L 287.810686 77.79295 
L 287.914361 77.955014 
L 287.974462 78.056974 
L 288.043578 78.138919 
L 288.147252 78.241824 
L 288.250926 78.386787 
L 288.387656 78.490979 
L 288.465787 78.532808 
L 288.64609 78.637766 
L 288.731734 78.743278 
L 288.868464 78.84935 
L 288.972138 79.106241 
L 289.041255 79.214261 
L 289.143426 79.388316 
L 289.281659 79.497875 
L 289.385333 79.674427 
L 289.591179 79.763292 
L 289.65128 79.852553 
L 289.720396 79.942214 
L 289.813553 80.100095 
L 289.951785 80.190876 
L 290.029916 80.396652 
L 290.141103 80.488793 
L 290.235762 80.651067 
L 290.304878 80.721019 
L 290.304878 80.744391 
L 290.398035 80.86166 
L 290.485181 80.932354 
L 290.485181 80.955974 
L 290.588856 81.145946 
L 290.683515 81.241614 
L 290.760144 81.337741 
L 290.820245 81.434333 
L 290.922416 81.604499 
L 291.000548 81.677873 
L 291.000548 81.702391 
L 291.095207 81.899625 
L 291.180851 81.974092 
L 291.180851 81.998977 
L 291.284525 82.174038 
L 291.386697 82.274766 
L 291.464828 82.477757 
L 291.577517 82.580031 
L 291.678187 82.838027 
L 291.834449 82.942165 
L 291.920093 83.046848 
L 292.065838 83.152082 
L 292.134954 83.257873 
L 292.229613 83.364227 
L 292.313755 83.471149 
L 292.382871 83.578647 
L 292.444475 83.713836 
L 292.530118 83.822649 
L 292.633793 84.042069 
L 292.701406 84.152689 
L 292.796065 84.29183 
L 292.934298 84.375781 
L 293.03647 84.57305 
L 293.080043 84.658193 
L 293.174702 84.858282 
L 293.278376 84.944651 
L 293.355005 85.147642 
L 293.467694 85.235273 
L 293.569866 85.500495 
L 293.620952 85.589689 
L 293.724626 85.859686 
L 293.759184 85.889912 
L 293.759184 85.950501 
L 293.853843 86.164021 
L 293.956015 86.256232 
L 294.043162 86.535445 
L 294.07772 86.598026 
L 294.07772 86.62939 
L 294.170876 86.755339 
L 294.23248 86.850325 
L 294.342164 87.073729 
L 294.429311 87.170243 
L 294.516457 87.462612 
L 294.584071 87.528167 
L 294.584071 87.561026 
L 294.687745 87.693003 
L 294.722303 87.79256 
L 294.824475 88.161906 
L 294.850018 88.263832 
L 294.946179 88.572765 
L 295.048351 88.676812 
L 295.152025 88.992244 
L 295.203111 89.098503 
L 295.288755 89.312731 
L 295.348856 89.420712 
L 295.443515 89.5656 
L 295.487088 89.63844 
L 295.487088 89.674959 
L 295.580245 89.858564 
L 295.676407 89.969542 
L 295.771066 90.193363 
L 295.838679 90.26853 
L 295.942354 90.533863 
L 295.967897 90.572056 
L 295.967897 90.610323 
L 296.052038 90.764127 
L 296.182758 90.841475 
L 296.268402 91.193293 
L 296.30296 91.232768 
L 296.30296 91.272322 
L 296.406634 91.712658 
L 296.415649 91.793771 
L 296.517821 92.039105 
L 296.543364 92.121556 
L 296.61248 92.412844 
L 296.723667 92.496854 
L 296.801798 92.879331 
L 296.878427 92.965329 
L 296.973086 93.313067 
L 297.05873 93.400955 
L 297.162404 93.801302 
L 297.257063 93.891367 
L 297.308149 93.98184 
L 297.384778 94.072723 
L 297.48094 94.394111 
L 297.532025 94.486892 
L 297.626685 94.862386 
L 297.712329 94.957371 
L 297.806988 95.245066 
L 297.832531 95.245066 
L 297.832531 95.341892 
L 297.832531 95.390481 
L 298.012834 95.488015 
L 298.116508 95.932903 
L 298.202152 96.033126 
L 298.295308 96.285904 
L 298.356912 96.387916 
L 298.442556 96.905936 
L 298.520687 97.01117 
L 298.624361 97.545813 
L 298.70099 97.600072 
L 298.70099 97.654478 
L 298.761091 97.873598 
L 298.897821 97.984064 
L 298.932379 98.206846 
L 299.087139 98.262931 
L 299.165271 98.48886 
L 299.268945 98.545743 
L 299.345574 98.948522 
L 299.405675 99.00673 
L 299.465776 99.241272 
L 299.55142 99.300339 
L 299.637064 99.658458 
L 299.766281 99.718773 
L 299.869955 99.900818 
L 299.912026 99.96187 
L 300.006685 100.207958 
L 300.066786 100.269957 
L 300.135902 100.51989 
L 300.205018 100.582865 
L 300.30719 100.772988 
L 300.341748 100.836766 
L 300.428894 101.55209 
L 300.496508 101.55209 
L 300.496508 101.618407 
L 300.600182 101.885895 
L 300.651268 101.95333 
L 300.754942 102.362787 
L 300.780485 102.431852 
L 300.831571 102.710525 
L 300.918718 102.780804 
L 300.986331 102.993137 
L 301.150107 103.064418 
L 301.244766 103.2798 
L 301.270309 103.352113 
L 301.279324 103.497527 
L 301.450612 103.570633 
L 301.528743 103.940227 
L 301.614387 104.014972 
L 301.716559 104.469411 
L 301.778162 104.546165 
L 301.854791 104.934419 
L 301.905877 105.012983 
L 301.982506 105.410499 
L 302.224412 105.49096 
L 302.319071 105.81608 
L 302.439273 105.898193 
L 302.499374 106.313893 
L 302.645119 106.39808 
L 302.748794 106.910786 
L 302.834438 106.99753 
L 302.920082 107.436985 
L 302.963655 107.526048 
L 303.040284 108.068916 
L 303.12743 108.160845 
L 303.195044 108.439194 
L 303.315246 108.532845 
L 303.393377 108.816459 
L 303.470006 108.911898 
L 303.57368 109.692268 
L 303.668339 109.791991 
L 303.711912 110.195933 
L 303.805069 110.298206 
L 303.899728 110.608204 
L 303.985372 110.712614 
L 304.089046 111.459159 
L 304.123604 111.568121 
L 304.209248 112.234664 
L 304.234791 112.234664 
L 304.338465 112.924196 
L 304.509753 112.924196 
L 304.535296 113.159427 
L 304.647986 113.159427 
L 304.724614 113.882196 
L 304.819274 113.882196 
L 304.913933 114.888418 
L 304.974034 114.888418 
L 305.034135 115.677775 
L 305.128794 115.677775 
L 305.223453 115.947974 
L 305.283554 115.947974 
L 305.378213 116.639892 
L 305.438314 116.639892 
L 305.523958 117.066836 
L 305.609602 117.066836 
L 305.609602 117.2112 
L 305.764362 117.2112 
L 305.868036 117.799315 
L 305.902594 117.799315 
L 305.988238 118.252038 
L 306.039324 118.252038 
L 306.142998 118.87207 
L 306.177557 118.87207 
L 306.2632 119.350048 
L 306.288743 119.350048 
L 306.392418 120.005662 
L 306.426976 120.005662 
L 306.520132 120.856617 
L 306.598264 120.856617 
L 306.692923 121.385135 
L 306.718466 121.385135 
L 306.787582 122.298282 
L 306.882241 122.298282 
L 306.942342 123.255136 
L 307.027986 123.255136 
L 307.122645 124.05502 
L 307.277405 124.05502 
L 307.328491 124.676659 
L 307.397607 124.676659 
L 307.406622 125.318247 
L 307.517809 125.318247 
L 307.621483 126.435545 
L 307.681584 126.435545 
L 307.741685 127.137177 
L 307.792771 127.137177 
L 307.896446 128.618924 
L 307.947531 128.618924 
L 308.042191 129.138289 
L 308.076749 129.138289 
L 308.171408 129.943543 
L 308.222494 129.943543 
L 308.231509 130.49898 
L 308.359223 130.49898 
L 308.386269 131.362183 
L 308.497456 131.362183 
L 308.592115 131.959076 
L 308.652216 131.959076 
L 308.652216 132.264341 
L 308.815991 132.264341 
L 308.876092 133.209135 
L 308.936193 133.209135 
L 309.030852 134.542592 
L 309.211155 134.542592 
L 309.271256 135.604493 
L 309.365915 135.604493 
L 309.365915 136.72597 
L 309.486117 136.72597 
L 309.580777 138.74733 
L 309.700979 138.74733 
L 309.795638 140.066123 
L 310.001484 140.066123 
L 310.0706 142.997377 
L 310.130701 142.997377 
L 310.130701 143.530593 
L 310.250903 143.530593 
L 310.311004 144.641681 
L 310.405663 144.641681 
L 310.500322 147.068223 
L 310.67161 147.068223 
L 310.775284 149.103311 
L 310.930044 149.103311 
L 310.98113 152.185467 
L 311.13589 152.185467 
L 311.205006 156.856464 
L 311.54007 156.856464 
L 311.54007 157.937508 
L 311.935234 157.937508 
L 311.995335 160.292514 
L 312.184653 160.292514 
L 312.184653 161.582925 
L 312.339413 161.582925 
L 312.364956 164.444146 
L 312.854779 164.444146 
L 312.854779 166.044555 
L 313.009539 166.044555 
L 313.009539 167.784298 
L 313.439262 167.784298 
L 313.47382 171.796596 
L 313.654123 171.796596 
L 313.654123 174.151601 
L 313.808883 174.151601 
L 313.808883 176.821486 
L 314.513567 176.821486 
L 314.513567 179.903642 
L 314.668327 179.903642 
L 314.668327 188.010689 
L 314.94329 188.010689 
L 314.94329 193.76273 
L 316.137797 193.76273 
L 316.137797 201.869777 
L 316.412759 201.869777 
L 316.412759 215.728864 
L 317.547166 215.728864 
L 317.547166 215.728864 
" clip-path="url(#p6c65e9ea42)" style="fill: none; stroke: #000000; stroke-width: 1.5; stroke-linecap: square"/>
   </g>
   <g id="line2d_74">
    <path d="M 92.290909 55.8 
L 92.290909 55.800067 
L 172.666466 55.911165 
L 172.773914 55.911975 
L 181.986442 56.023019 
L 182.086642 56.024989 
L 187.862109 56.136049 
L 187.972511 56.138987 
L 192.255491 56.250065 
L 192.366547 56.253639 
L 195.816701 56.364735 
L 195.92574 56.368329 
L 198.85254 56.479372 
L 198.961119 56.484724 
L 201.337284 56.595788 
L 201.448054 56.600892 
L 203.596005 56.711971 
L 203.706838 56.718231 
L 205.732966 56.829329 
L 205.839803 56.836828 
L 207.607783 56.947878 
L 207.718015 56.955635 
L 209.416591 57.066704 
L 209.526366 57.075367 
L 211.048075 57.186457 
L 211.158806 57.196901 
L 212.668489 57.307946 
L 212.778709 57.317802 
L 214.127817 57.428865 
L 214.23892 57.438197 
L 215.515709 57.549274 
L 215.626367 57.558956 
L 216.879926 57.670043 
L 216.990666 57.681629 
L 218.102426 57.792734 
L 218.211329 57.804613 
L 219.299017 57.915659 
L 219.408656 57.926043 
L 220.478292 58.03709 
L 220.587473 58.050695 
L 221.564749 58.161759 
L 221.673933 58.174995 
L 222.642953 58.286068 
L 222.752199 58.298397 
L 223.657374 58.409471 
L 223.767191 58.424634 
L 224.648534 58.53572 
L 224.759517 58.548281 
L 225.620471 58.65936 
L 225.731245 58.675723 
L 226.53132 58.786812 
L 226.642324 58.802577 
L 227.467433 58.913669 
L 227.577314 58.928119 
L 228.369573 59.039202 
L 228.478079 59.056036 
L 229.270888 59.167118 
L 229.381695 59.183185 
L 230.092797 59.294258 
L 230.203884 59.312269 
L 230.881172 59.423338 
L 230.991901 59.443079 
L 231.679456 59.55415 
L 231.790239 59.572965 
L 232.457307 59.684027 
L 232.568297 59.701658 
L 233.254599 59.812701 
L 233.364819 59.83209 
L 233.989316 59.9432 
L 234.098643 59.963543 
L 234.731547 60.074639 
L 234.842277 60.094534 
L 235.453317 60.205608 
L 235.563663 60.227478 
L 236.151257 60.338537 
L 236.261874 60.360637 
L 236.842217 60.471676 
L 236.953295 60.49367 
L 237.55887 60.604768 
L 237.669704 60.627935 
L 238.251858 60.73901 
L 238.362202 60.761128 
L 238.894245 60.872168 
L 239.005238 60.89504 
L 239.563698 61.006132 
L 239.674117 61.030117 
L 240.215876 61.141174 
L 240.326028 61.162511 
L 240.848878 61.273601 
L 240.959976 61.297556 
L 241.440676 61.408601 
L 241.551568 61.432006 
L 242.054767 61.543085 
L 242.165476 61.567007 
L 242.66845 61.67803 
L 242.77946 61.704099 
L 243.293811 61.815162 
L 243.404761 61.842683 
L 243.884935 61.953789 
L 243.995133 61.98077 
L 244.463101 62.09182 
L 244.574169 62.117882 
L 245.034725 62.228957 
L 245.14555 62.256683 
L 245.590931 62.367787 
L 245.701955 62.393558 
L 246.152658 62.504582 
L 246.262983 62.531094 
L 246.700586 62.642129 
L 246.811403 62.669298 
L 247.237186 62.780344 
L 247.347896 62.807415 
L 247.763141 62.918466 
L 247.873567 62.948991 
L 248.271167 63.06006 
L 248.380442 63.088963 
L 248.7972 63.200037 
L 248.908219 63.232456 
L 249.312601 63.343548 
L 249.423632 63.376103 
L 249.838218 63.487208 
L 249.949104 63.516836 
L 250.32903 63.627933 
L 250.439835 63.658765 
L 250.856481 63.769855 
L 250.967565 63.80221 
L 251.354952 63.913296 
L 251.46441 63.947399 
L 251.834718 64.058484 
L 251.945491 64.09131 
L 252.328197 64.202381 
L 252.439126 64.235547 
L 252.802927 64.346601 
L 252.913164 64.381658 
L 253.281244 64.492699 
L 253.391738 64.524479 
L 253.754932 64.635586 
L 253.865348 64.669688 
L 254.219678 64.780765 
L 254.330575 64.818701 
L 254.673049 64.929763 
L 254.784151 64.962246 
L 255.131397 65.073256 
L 255.242473 65.112073 
L 255.586098 65.223166 
L 255.696845 65.257855 
L 256.047821 65.368896 
L 256.158633 65.404816 
L 256.518045 65.515914 
L 256.628586 65.554179 
L 256.961801 65.665232 
L 257.071893 65.703673 
L 257.412973 65.814675 
L 257.523102 65.851073 
L 257.853489 65.962116 
L 257.964028 65.998672 
L 258.295325 66.109753 
L 258.406339 66.148608 
L 258.728166 66.259621 
L 258.839067 66.294226 
L 259.169695 66.405253 
L 259.280448 66.445489 
L 259.588993 66.556556 
L 259.700052 66.597443 
L 260.008061 66.708549 
L 260.119114 66.753118 
L 260.449311 66.864159 
L 260.560064 66.903808 
L 260.881172 67.014867 
L 260.992011 67.055642 
L 261.280568 67.16672 
L 261.391379 67.207093 
L 261.686332 67.318181 
L 261.796946 67.357065 
L 262.097121 67.468149 
L 262.207796 67.508411 
L 262.506463 67.619493 
L 262.616642 67.662493 
L 262.928071 67.77358 
L 263.039025 67.815443 
L 263.325678 67.926523 
L 263.436074 67.968585 
L 263.727309 68.079652 
L 263.838059 68.121042 
L 264.128718 68.232085 
L 264.239469 68.278808 
L 264.527179 68.389851 
L 264.638251 68.434037 
L 264.921853 68.545058 
L 265.032898 68.587169 
L 265.325092 68.698278 
L 265.435247 68.741355 
L 265.709513 68.852423 
L 265.819935 68.900361 
L 266.093452 69.011407 
L 266.204476 69.056208 
L 266.475997 69.167208 
L 266.587067 69.210651 
L 266.877846 69.321722 
L 266.988702 69.372389 
L 267.273171 69.483432 
L 267.384171 69.531307 
L 267.643698 69.642298 
L 267.754729 69.686249 
L 268.027605 69.797295 
L 268.138635 69.840503 
L 268.412197 69.951593 
L 268.523243 69.995273 
L 268.779156 70.106267 
L 268.890156 70.155107 
L 269.150998 70.266163 
L 269.262007 70.312341 
L 269.525832 70.423439 
L 269.636914 70.472501 
L 269.895475 70.58351 
L 270.006435 70.632262 
L 270.260436 70.743312 
L 270.371253 70.798571 
L 270.621945 70.90955 
L 270.733049 70.958674 
L 270.997923 71.069683 
L 271.108417 71.121949 
L 271.353357 71.232998 
L 271.46446 71.284236 
L 271.711729 71.395313 
L 271.822774 71.445353 
L 272.065921 71.556445 
L 272.17618 71.606742 
L 272.419648 71.717844 
L 272.530195 71.76407 
L 272.783368 71.87515 
L 272.894306 71.922795 
L 273.137383 72.033856 
L 273.248273 72.085066 
L 273.489719 72.196119 
L 273.600754 72.246983 
L 273.828782 72.358018 
L 273.939675 72.41238 
L 274.178226 72.52341 
L 274.288702 72.577757 
L 274.514732 72.688774 
L 274.625768 72.738557 
L 274.862581 72.849526 
L 274.973597 72.904452 
L 275.206314 73.015555 
L 275.31681 73.069983 
L 275.549764 73.18105 
L 275.660738 73.239789 
L 275.880829 73.350836 
L 275.991563 73.402135 
L 276.229528 73.513112 
L 276.340464 73.562706 
L 276.576625 73.673759 
L 276.687644 73.7282 
L 276.909633 73.839186 
L 277.020742 73.892751 
L 277.236558 74.003821 
L 277.347537 74.05783 
L 277.582558 74.168813 
L 277.693496 74.223777 
L 277.927265 74.334838 
L 278.038204 74.394007 
L 278.251637 74.504993 
L 278.362363 74.565698 
L 278.584313 74.676781 
L 278.694981 74.732122 
L 278.919359 74.843091 
L 279.03008 74.896799 
L 279.232481 75.007811 
L 279.343095 75.065485 
L 279.546745 75.176554 
L 279.657641 75.234008 
L 279.892978 75.344949 
L 280.004052 75.402531 
L 280.23015 75.513513 
L 280.340737 75.573389 
L 280.543962 75.684418 
L 280.654936 75.739709 
L 280.86372 75.850752 
L 280.974734 75.911832 
L 281.182234 76.022914 
L 281.292961 76.084338 
L 281.489365 76.195268 
L 281.600299 76.248815 
L 281.819325 76.359912 
L 281.928681 76.416917 
L 282.129216 76.528007 
L 282.239763 76.587204 
L 282.423244 76.698292 
L 282.534289 76.756846 
L 282.74083 76.867919 
L 282.851306 76.928326 
L 283.060736 77.039387 
L 283.171759 77.101095 
L 283.363713 77.212142 
L 283.474143 77.272616 
L 283.676991 77.383634 
L 283.78741 77.443836 
L 283.99823 77.554814 
L 284.108858 77.620537 
L 284.297067 77.731497 
L 284.40751 77.795987 
L 284.612028 77.906912 
L 284.722813 77.962403 
L 284.905432 78.073439 
L 285.016345 78.138017 
L 285.210558 78.249003 
L 285.320755 78.315809 
L 285.523082 78.426748 
L 285.633597 78.489553 
L 285.832184 78.600622 
L 285.94312 78.659128 
L 286.135118 78.770086 
L 286.245341 78.836745 
L 286.426023 78.94784 
L 286.536057 79.014451 
L 286.723487 79.125462 
L 286.83383 79.187258 
L 287.025348 79.298365 
L 287.136285 79.366812 
L 287.323958 79.477826 
L 287.434578 79.541604 
L 287.624907 79.652709 
L 287.735223 79.725716 
L 287.918241 79.836735 
L 288.029011 79.903688 
L 288.200896 80.014574 
L 288.311987 80.082805 
L 288.490776 80.193782 
L 288.601216 80.261486 
L 288.78283 80.372543 
L 288.893901 80.447079 
L 289.093367 80.558016 
L 289.204258 80.631387 
L 289.387718 80.742418 
L 289.498707 80.808254 
L 289.674049 80.919331 
L 289.784654 80.991437 
L 289.965292 81.102348 
L 290.076269 81.166754 
L 290.255989 81.277683 
L 290.366919 81.347719 
L 290.532965 81.45869 
L 290.643454 81.526689 
L 290.828703 81.637682 
L 290.938407 81.713167 
L 291.120502 81.824215 
L 291.231441 81.891488 
L 291.408288 82.002538 
L 291.519158 82.066416 
L 291.702752 82.177438 
L 291.813644 82.258525 
L 291.998085 82.369608 
L 292.10911 82.448167 
L 292.277849 82.559031 
L 292.388924 82.63834 
L 292.560292 82.749231 
L 292.671088 82.820993 
L 292.850754 82.931861 
L 292.961068 82.998521 
L 293.140902 83.10959 
L 293.251503 83.179753 
L 293.430573 83.290774 
L 293.541662 83.36931 
L 293.704712 83.480319 
L 293.814962 83.551797 
L 293.978863 83.662743 
L 294.089716 83.737322 
L 294.253216 83.848213 
L 294.363699 83.928151 
L 294.543299 84.039005 
L 294.654334 84.113619 
L 294.814177 84.224673 
L 294.924191 84.298029 
L 295.101429 84.408991 
L 295.21234 84.485566 
L 295.393211 84.596442 
L 295.503273 84.675163 
L 295.667652 84.78624 
L 295.778763 84.858528 
L 295.93436 84.969475 
L 296.044047 85.038659 
L 296.215312 85.149738 
L 296.325947 85.237407 
L 296.490114 85.348421 
L 296.59943 85.419523 
L 296.758512 85.530366 
L 296.869345 85.609278 
L 297.037294 85.720282 
L 297.148241 85.794828 
L 297.309205 85.905658 
L 297.420302 85.98242 
L 297.577942 86.093381 
L 297.687556 86.168414 
L 297.839787 86.279488 
L 297.950835 86.358012 
L 298.116909 86.468901 
L 298.226939 86.541921 
L 298.380972 86.652895 
L 298.491834 86.73669 
L 298.640651 86.847483 
L 298.751641 86.925087 
L 298.899808 87.035972 
L 299.00906 87.106271 
L 299.164003 87.217198 
L 299.274526 87.296253 
L 299.435987 87.407262 
L 299.546192 87.479537 
L 299.706777 87.590582 
L 299.817744 87.673777 
L 299.968004 87.784579 
L 300.078619 87.860571 
L 300.240443 87.971409 
L 300.351485 88.051486 
L 300.506516 88.162373 
L 300.617481 88.245604 
L 300.760051 88.356548 
L 300.870714 88.452972 
L 301.033682 88.564039 
L 301.144321 88.639238 
L 301.304653 88.7503 
L 301.4156 88.825153 
L 301.571853 88.936198 
L 301.682679 89.019535 
L 301.847862 89.130601 
L 301.958803 89.215111 
L 302.121672 89.326193 
L 302.231826 89.411897 
L 302.387967 89.522992 
L 302.498365 89.602986 
L 302.664691 89.714052 
L 302.774413 89.792241 
L 302.922218 89.903257 
L 303.032396 89.993333 
L 303.193047 90.104354 
L 303.303438 90.188588 
L 303.46444 90.299569 
L 303.575488 90.373269 
L 303.724684 90.484141 
L 303.835575 90.573819 
L 304.003739 90.684657 
L 304.113605 90.765585 
L 304.26107 90.87633 
L 304.372115 90.969348 
L 304.513705 91.080446 
L 304.624576 91.165358 
L 304.763766 91.276365 
L 304.87437 91.351376 
L 305.019041 91.462224 
L 305.129668 91.543557 
L 305.278914 91.654267 
L 305.389517 91.738008 
L 305.538796 91.848988 
L 305.647971 91.943788 
L 305.800535 92.054683 
L 305.911154 92.134332 
L 306.064132 92.245045 
L 306.174991 92.328379 
L 306.317462 92.439335 
L 306.428319 92.515897 
L 306.58132 92.62663 
L 306.691656 92.702638 
L 306.838717 92.813557 
L 306.949644 92.891139 
L 307.098559 93.002248 
L 307.209469 93.086638 
L 307.367256 93.197534 
L 307.477698 93.287133 
L 307.624546 93.397828 
L 307.734333 93.478599 
L 307.867254 93.589473 
L 307.978306 93.681297 
L 308.129234 93.792405 
L 308.239479 93.892842 
L 308.386956 94.003773 
L 308.497398 94.089315 
L 308.624462 94.199969 
L 308.735323 94.297411 
L 308.881255 94.408299 
L 308.99177 94.50723 
L 309.146904 94.617886 
L 309.257691 94.710805 
L 309.379905 94.821651 
L 309.489421 94.914098 
L 309.652723 95.025124 
L 309.763696 95.11996 
L 309.898436 95.23069 
L 310.009249 95.34495 
L 310.143092 95.45596 
L 310.253081 95.558264 
L 310.396201 95.668987 
L 310.506747 95.762471 
L 310.647293 95.873338 
L 310.758352 95.964779 
L 310.895751 96.075769 
L 311.006411 96.158027 
L 311.154481 96.269081 
L 311.264722 96.367464 
L 311.406624 96.478149 
L 311.517382 96.5817 
L 311.669542 96.692542 
L 311.779966 96.78573 
L 311.937474 96.896662 
L 312.047347 96.978686 
L 312.186039 97.089638 
L 312.29638 97.186828 
L 312.444613 97.297873 
L 312.555572 97.397698 
L 312.690058 97.5083 
L 312.801159 97.605378 
L 312.929288 97.716045 
L 313.040294 97.817436 
L 313.171538 97.928181 
L 313.282255 98.02899 
L 313.406692 98.1398 
L 313.51744 98.225975 
L 313.6389 98.336758 
L 313.74992 98.424921 
L 313.875797 98.535675 
L 313.986198 98.628727 
L 314.10915 98.739468 
L 314.219612 98.842149 
L 314.348963 98.952918 
L 314.45856 99.052028 
L 314.589473 99.162794 
L 314.700107 99.249372 
L 314.826715 99.360053 
L 314.937547 99.451068 
L 315.050236 99.561675 
L 315.160833 99.658434 
L 315.291054 99.768986 
L 315.401512 99.878934 
L 315.537912 99.98949 
L 315.648405 100.09204 
L 315.772798 100.202546 
L 315.883426 100.304953 
L 315.991953 100.41602 
L 316.102737 100.52519 
L 316.234695 100.636225 
L 316.345324 100.728168 
L 316.473465 100.839061 
L 316.584332 100.937081 
L 316.698926 101.04785 
L 316.808111 101.147551 
L 316.933685 101.25819 
L 317.044554 101.351734 
L 317.176727 101.462193 
L 317.286532 101.553387 
L 317.394896 101.664303 
L 317.505987 101.762448 
L 317.653612 101.873187 
L 317.764507 101.973041 
L 317.899165 102.083596 
L 318.010207 102.178358 
L 318.137176 102.28937 
L 318.246501 102.387877 
L 318.384551 102.498673 
L 318.494747 102.600313 
L 318.64072 102.710892 
L 318.750594 102.814324 
L 318.882984 102.925387 
L 318.993587 103.029938 
L 319.137627 103.140774 
L 319.248329 103.242136 
L 319.384774 103.352708 
L 319.495181 103.458795 
L 319.61724 103.569843 
L 319.726814 103.679301 
L 319.856282 103.790103 
L 319.966799 103.878444 
L 320.103343 103.988861 
L 320.214341 104.07433 
L 320.320078 104.185082 
L 320.430692 104.281262 
L 320.56891 104.391643 
L 320.67976 104.504171 
L 320.810015 104.615021 
L 320.920955 104.731147 
L 321.040068 104.841704 
L 321.150621 104.95052 
L 321.26431 105.061511 
L 321.3754 105.171534 
L 321.498889 105.282166 
L 321.609185 105.361336 
L 321.728484 105.47222 
L 321.839177 105.569953 
L 321.957663 105.680375 
L 322.066988 105.794685 
L 322.183524 105.905535 
L 322.293639 106.012036 
L 322.412157 106.122436 
L 322.522911 106.23931 
L 322.648186 106.350133 
L 322.75814 106.463268 
L 322.885532 106.573641 
L 322.995679 106.676068 
L 323.111212 106.786764 
L 323.222157 106.882508 
L 323.348645 106.993488 
L 323.456402 107.108584 
L 323.583873 107.21907 
L 323.693278 107.32575 
L 323.807723 107.436557 
L 323.916113 107.546194 
L 324.047317 107.656435 
L 324.158179 107.761866 
L 324.286128 107.872398 
L 324.396899 107.986285 
L 324.485572 108.097149 
L 324.596477 108.213252 
L 324.72313 108.323527 
L 324.832411 108.426005 
L 324.953631 108.536524 
L 325.063957 108.664663 
L 325.169993 108.775562 
L 325.280025 108.891859 
L 325.405382 109.002106 
L 325.515273 109.101368 
L 325.623357 109.211808 
L 325.7342 109.310166 
L 325.843109 109.420787 
L 325.954209 109.53301 
L 326.086311 109.643882 
L 326.197049 109.750381 
L 326.31253 109.861464 
L 326.423061 109.975187 
L 326.537766 110.0855 
L 326.647512 110.175006 
L 326.765008 110.285405 
L 326.875093 110.401571 
L 326.97462 110.512195 
L 327.085374 110.630733 
L 327.191045 110.741587 
L 327.301573 110.826713 
L 327.425289 110.937602 
L 327.535478 111.043787 
L 327.645092 111.15482 
L 327.755843 111.271856 
L 327.866381 111.382001 
L 327.975223 111.479694 
L 328.091898 111.589898 
L 328.202886 111.685317 
L 328.311424 111.795558 
L 328.421069 111.891965 
L 328.521007 112.002238 
L 328.631934 112.116492 
L 328.725379 112.226884 
L 328.836094 112.341297 
L 328.949404 112.451798 
L 329.057554 112.565212 
L 329.17718 112.675806 
L 329.286933 112.784692 
L 329.392476 112.895342 
L 329.503502 113.000736 
L 329.605068 113.111411 
L 329.715919 113.231015 
L 329.836846 113.341781 
L 329.944494 113.462774 
L 330.055446 113.573627 
L 330.164621 113.679024 
L 330.290536 113.789864 
L 330.401146 113.901322 
L 330.506835 114.01217 
L 330.617853 114.138545 
L 330.733936 114.24947 
L 330.844309 114.363527 
L 330.962718 114.474447 
L 331.072758 114.585985 
L 331.195226 114.696871 
L 331.306288 114.789105 
L 331.430165 114.899835 
L 331.539826 115.033266 
L 331.662686 115.144053 
L 331.772556 115.24626 
L 331.910329 115.356916 
L 332.021419 115.461547 
L 332.131092 115.572069 
L 332.241694 115.665757 
L 332.340506 115.776068 
L 332.451319 115.893774 
L 332.550525 116.003989 
L 332.661112 116.1011 
L 332.759888 116.211088 
L 332.86978 116.335552 
L 332.972592 116.445446 
L 333.082093 116.569979 
L 333.184776 116.679762 
L 333.29531 116.794408 
L 333.396373 116.905433 
L 333.506066 117.019949 
L 333.608674 117.130794 
L 333.719526 117.232098 
L 333.807867 117.342669 
L 333.918208 117.433327 
L 334.026704 117.543546 
L 334.136518 117.6692 
L 334.245118 117.77924 
L 334.353345 117.898887 
L 334.460877 118.008693 
L 334.569509 118.113039 
L 334.683509 118.224031 
L 334.79371 118.334109 
L 334.912162 118.444797 
L 335.023151 118.570057 
L 335.134798 118.680503 
L 335.245511 118.802544 
L 335.357205 118.912707 
L 335.468213 119.02348 
L 335.616647 119.133274 
L 335.721924 119.253303 
L 335.834928 119.36437 
L 335.941667 119.476058 
L 336.042503 119.586741 
L 336.152464 119.727605 
L 336.234736 119.83804 
L 336.34558 119.955737 
L 336.432351 120.065771 
L 336.542897 120.218484 
L 336.622693 120.328284 
L 336.73306 120.442096 
L 336.842201 120.553134 
L 336.953066 120.656181 
L 337.067174 120.766686 
L 337.178112 120.898709 
L 337.267175 121.008813 
L 337.375154 121.119528 
L 337.481565 121.229086 
L 337.592351 121.355291 
L 337.688792 121.466153 
L 337.799428 121.584846 
L 337.910269 121.695178 
L 338.020095 121.835325 
L 338.117878 121.945215 
L 338.226626 122.096381 
L 338.350776 122.205859 
L 338.461847 122.308457 
L 338.578859 122.419105 
L 338.686801 122.536043 
L 338.809919 122.646059 
L 338.919637 122.766249 
L 339.007463 122.875619 
L 339.117232 123.010756 
L 339.219976 123.121475 
L 339.330823 123.236728 
L 339.440975 123.346739 
L 339.55178 123.47916 
L 339.648837 123.588522 
L 339.759334 123.688465 
L 339.880456 123.798981 
L 339.988808 123.926329 
L 340.089421 124.036132 
L 340.197146 124.167056 
L 340.316117 124.27613 
L 340.424447 124.392028 
L 340.541925 124.50234 
L 340.652573 124.606968 
L 340.747589 124.716366 
L 340.857193 124.834852 
L 340.940949 124.945506 
L 341.04685 125.050341 
L 341.160778 125.160041 
L 341.271148 125.294218 
L 341.361534 125.405268 
L 341.47263 125.545504 
L 341.574695 125.655751 
L 341.676742 125.74661 
L 341.816368 125.855742 
L 341.926636 125.969964 
L 342.017488 126.080325 
L 342.128492 126.259547 
L 342.244153 126.369231 
L 342.34965 126.477216 
L 342.470757 126.588104 
L 342.577928 126.708931 
L 342.687959 126.818771 
L 342.795754 126.931575 
L 342.898929 127.042649 
L 343.006879 127.15911 
L 343.106702 127.269062 
L 343.207862 127.386853 
L 343.312878 127.495644 
L 343.419803 127.609905 
L 343.519368 127.719919 
L 343.630064 127.825613 
L 343.714868 127.934346 
L 343.824134 128.081081 
L 343.919963 128.191216 
L 344.018931 128.319636 
L 344.130484 128.428556 
L 344.239039 128.545736 
L 344.338533 128.655899 
L 344.446143 128.771839 
L 344.546776 128.880659 
L 344.654828 129.000527 
L 344.785309 129.110603 
L 344.896148 129.239795 
L 345.002162 129.34854 
L 345.110274 129.489995 
L 345.199334 129.600113 
L 345.310216 129.748792 
L 345.390604 129.85762 
L 345.499997 129.975275 
L 345.616921 130.085346 
L 345.723464 130.240472 
L 345.806635 130.349221 
L 345.915572 130.450132 
L 346.037805 130.560031 
L 346.146044 130.690436 
L 346.239132 130.798807 
L 346.349239 130.936542 
L 346.428087 131.046259 
L 346.538888 131.162405 
L 346.610239 131.273372 
L 346.719692 131.402634 
L 346.810733 131.511982 
L 346.919 131.657721 
L 347.019152 131.768478 
L 347.128934 131.907036 
L 347.226108 132.016146 
L 347.335142 132.113635 
L 347.44887 132.223882 
L 347.559952 132.362551 
L 347.659791 132.471074 
L 347.766265 132.595825 
L 347.891069 132.705624 
L 347.999432 132.819194 
L 348.095386 132.93023 
L 348.203087 133.029094 
L 348.29459 133.138091 
L 348.40526 133.247685 
L 348.512129 133.357883 
L 348.622889 133.465424 
L 348.721029 133.573547 
L 348.829291 133.692169 
L 348.924668 133.801528 
L 349.033754 133.928203 
L 349.120724 134.038864 
L 349.230988 134.19076 
L 349.322338 134.299481 
L 349.430272 134.422503 
L 349.537236 134.532495 
L 349.637258 134.716011 
L 349.760698 134.824136 
L 349.870641 134.953959 
L 349.953415 135.063383 
L 350.049218 135.159177 
L 350.155084 135.269733 
L 350.265095 135.373712 
L 350.351262 135.481849 
L 350.461785 135.601478 
L 350.542789 135.710858 
L 350.653837 135.890807 
L 350.75272 136.001785 
L 350.861357 136.128308 
L 350.951314 136.236862 
L 351.061304 136.391348 
L 351.167521 136.501343 
L 351.277857 136.650228 
L 351.384953 136.757808 
L 351.489448 136.877593 
L 351.598001 136.986407 
L 351.706004 137.115416 
L 351.813393 137.225535 
L 351.922295 137.399815 
L 352.012077 137.507515 
L 352.120029 137.635917 
L 352.214177 137.744901 
L 352.317736 137.834144 
L 352.403977 137.944216 
L 352.509613 138.046678 
L 352.635377 138.153799 
L 352.736898 138.294752 
L 352.836181 138.403213 
L 352.946683 138.554369 
L 353.068761 138.664252 
L 353.176725 138.800327 
L 353.254198 138.907284 
L 353.360974 139.036391 
L 353.450118 139.144622 
L 353.560766 139.253441 
L 353.691528 139.362856 
L 353.801362 139.486116 
L 353.87214 139.596815 
L 353.978964 139.73941 
L 354.080982 139.847028 
L 354.188924 139.986897 
L 354.284269 140.095859 
L 354.392596 140.246658 
L 354.472237 140.357048 
L 354.582672 140.481971 
L 354.679488 140.589005 
L 354.780587 140.673172 
L 354.889412 140.781238 
L 354.992709 140.918333 
L 355.109659 141.027735 
L 355.218894 141.152132 
L 355.299287 141.262825 
L 355.395866 141.417859 
L 355.50574 141.525147 
L 355.611712 141.687165 
L 355.675846 141.795911 
L 355.784047 141.930186 
L 355.857839 142.040266 
L 355.968156 142.252116 
L 356.065269 142.358889 
L 356.174748 142.466235 
L 356.273819 142.574161 
L 356.384128 142.677491 
L 356.488182 142.786566 
L 356.595912 142.948677 
L 356.664653 143.059246 
L 356.774019 143.175739 
L 356.849902 143.282234 
L 356.960585 143.459201 
L 357.059043 143.567221 
L 357.169873 143.69762 
L 357.245622 143.806939 
L 357.356299 143.938916 
L 357.460081 144.049566 
L 357.569156 144.194333 
L 357.670006 144.300791 
L 357.77822 144.475712 
L 357.865451 144.583683 
L 357.969266 144.738125 
L 358.083046 144.847526 
L 358.194041 144.998209 
L 358.263317 145.109047 
L 358.37419 145.279413 
L 358.453424 145.385893 
L 358.563275 145.558645 
L 358.640893 145.666626 
L 358.751532 145.853971 
L 358.847825 145.963563 
L 358.957587 146.141402 
L 359.058062 146.246392 
L 359.159062 146.37062 
L 359.24274 146.476824 
L 359.339746 146.596194 
L 359.432952 146.703607 
L 359.536764 146.849854 
L 359.624 146.958641 
L 359.734801 147.119706 
L 359.858028 147.229975 
L 359.959298 147.419498 
L 360.042856 147.524836 
L 360.150448 147.683891 
L 360.237958 147.790635 
L 360.342145 147.958571 
L 360.455825 148.066796 
L 360.564307 148.141542 
L 360.694037 148.250764 
L 360.804934 148.401925 
L 360.90314 148.512583 
L 361.010258 148.651772 
L 361.092205 148.756804 
L 361.196775 148.940175 
L 361.292411 149.046737 
L 361.398527 149.189708 
L 361.451285 149.297611 
L 361.559159 149.464203 
L 361.685131 149.573602 
L 361.791878 149.742518 
L 361.89817 149.853455 
L 362.008873 150.002334 
L 362.081789 150.107213 
L 362.189267 150.220198 
L 362.291089 150.326229 
L 362.394035 150.493994 
L 362.481321 150.601492 
L 362.58879 150.763829 
L 362.686558 150.872791 
L 362.790278 150.974504 
L 362.911696 151.084623 
L 363.0205 151.21916 
L 363.15144 151.322655 
L 363.262021 151.402633 
L 363.323293 151.507085 
L 363.432895 151.701364 
L 363.494138 151.807392 
L 363.603885 151.971619 
L 363.674986 152.079094 
L 363.781097 152.253937 
L 363.911269 152.362944 
L 364.018645 152.447202 
L 364.121139 152.557272 
L 364.228628 152.693578 
L 364.267069 152.796422 
L 364.356616 152.891162 
L 364.52453 152.99503 
L 364.618724 153.116894 
L 364.716984 153.221944 
L 364.826833 153.398263 
L 364.871748 153.504805 
L 364.966817 153.70162 
L 365.075955 153.809796 
L 365.174255 153.91856 
L 365.306276 154.027919 
L 365.412591 154.156266 
L 365.525431 154.266936 
L 365.627226 154.443427 
L 365.720777 154.546323 
L 365.830868 154.744242 
L 365.96941 154.848702 
L 366.076024 155.01122 
L 366.169087 155.117087 
L 366.276382 155.24293 
L 366.389226 155.350035 
L 366.498446 155.506855 
L 366.566735 155.615387 
L 366.664157 155.784285 
L 366.794723 155.894337 
L 366.886265 156.045391 
L 367.039102 156.146732 
L 367.144033 156.309952 
L 367.207439 156.412646 
L 367.312174 156.536579 
L 367.423514 156.640446 
L 367.53386 156.734391 
L 367.660289 156.839294 
L 367.764537 157.029517 
L 367.825236 157.135984 
L 367.935016 157.296755 
L 367.998386 157.404658 
L 368.103713 157.589441 
L 368.174538 157.69894 
L 368.284546 157.875395 
L 368.363591 157.986475 
L 368.472302 158.187989 
L 368.56627 158.289512 
L 368.676807 158.471281 
L 368.751663 158.574257 
L 368.857191 158.747071 
L 368.971993 158.85148 
L 369.079303 158.979837 
L 369.167066 159.085473 
L 369.276475 159.23905 
L 369.402558 159.346068 
L 369.507443 159.417732 
L 369.681478 159.525713 
L 369.76356 159.719132 
L 369.860315 159.828757 
L 369.967636 159.951272 
L 370.035358 160.062182 
L 370.146403 160.211024 
L 370.229965 160.310872 
L 370.28966 160.386086 
L 370.435981 160.486814 
L 370.536446 160.562694 
L 370.605083 160.664318 
L 370.695125 160.830567 
L 370.832259 160.933564 
L 370.93792 161.089063 
L 371.098955 161.193405 
L 371.192029 161.36413 
L 371.296426 161.469921 
L 371.405615 161.656413 
L 371.473552 161.763766 
L 371.584182 161.858175 
L 371.698256 161.966619 
L 371.79639 162.103008 
L 371.889935 162.212792 
L 371.980224 162.323183 
L 372.073634 162.434186 
L 372.127668 162.559806 
L 372.287655 162.658059 
L 372.353634 162.799263 
L 372.523033 162.898703 
L 372.630775 163.055971 
L 372.750029 163.156699 
L 372.850546 163.345122 
L 372.91971 163.447321 
L 373.029977 163.682899 
L 373.109258 163.786844 
L 373.219242 163.981329 
L 373.312435 164.086841 
L 373.414456 164.208111 
L 373.499477 164.31483 
L 373.609687 164.452882 
L 373.651869 164.560918 
L 373.745077 164.79441 
L 373.860315 164.904313 
L 373.968184 165.094135 
L 374.050285 165.189726 
L 374.118107 165.317896 
L 374.236358 165.414566 
L 374.340536 165.527941 
L 374.484698 165.625633 
L 374.588932 165.871975 
L 374.69171 165.971367 
L 374.794114 166.188428 
L 374.913109 166.28941 
L 374.968489 166.373953 
L 375.103801 166.475879 
L 375.20466 166.54412 
L 375.299743 166.646919 
L 375.402404 166.836768 
L 375.527427 166.941088 
L 375.616107 167.045954 
L 375.707758 167.151373 
L 375.818065 167.328316 
L 375.888907 167.435238 
L 375.969134 167.596702 
L 376.042645 167.705073 
L 376.146222 167.905292 
L 376.262827 168.015353 
L 376.324214 168.070612 
L 376.523654 168.18159 
L 376.619614 168.34922 
L 376.689434 168.442959 
L 376.796169 168.612804 
L 376.863885 168.707789 
L 376.885515 168.803229 
L 377.00938 168.899125 
L 377.119632 169.111731 
L 377.232392 169.209123 
L 377.305146 169.306991 
L 377.434257 169.405341 
L 377.51946 169.603503 
L 377.634642 169.703326 
L 377.745527 169.965221 
L 377.779292 170.066871 
L 377.886478 170.292336 
L 377.934502 170.395667 
L 378.033428 170.478717 
L 378.112708 170.583018 
L 378.210419 170.75104 
L 378.265892 170.856775 
L 378.354714 171.005749 
L 378.468585 171.112844 
L 378.577417 171.242118 
L 378.629429 171.35049 
L 378.731901 171.525115 
L 378.884336 171.635035 
L 378.992529 171.946066 
L 379.0545 172.035828 
L 379.126353 172.239278 
L 379.186953 172.330369 
L 379.287088 172.559928 
L 379.337845 172.652495 
L 379.447894 172.838925 
L 379.536321 172.932796 
L 379.601861 173.098138 
L 379.73332 173.193236 
L 379.829461 173.360755 
L 379.883614 173.457114 
L 379.976718 173.578219 
L 380.039046 173.675635 
L 380.148019 173.798075 
L 380.214406 173.89657 
L 380.319849 174.070112 
L 380.440981 174.16996 
L 380.515792 174.295475 
L 380.609754 174.396457 
L 380.714103 174.651166 
L 380.876118 174.753966 
L 380.9328 174.961164 
L 381.113234 175.065574 
L 381.197257 175.196857 
L 381.277359 175.302509 
L 381.365895 175.435362 
L 381.51873 175.542285 
L 381.601389 175.730786 
L 381.685092 175.839304 
L 381.793995 176.03064 
L 381.893781 176.140802 
L 381.990068 176.307193 
L 382.042891 176.39091 
L 382.12116 176.559403 
L 382.272899 176.644186 
L 382.377933 176.929418 
L 382.46362 177.015787 
L 382.573883 177.218778 
L 382.599569 177.306409 
L 382.683254 177.365044 
L 382.818206 177.453319 
L 382.926523 177.72051 
L 382.975788 177.810372 
L 383.074632 177.961047 
L 383.126526 178.052 
L 383.21043 178.327368 
L 383.324204 178.420006 
L 383.431381 178.826475 
L 383.503992 178.92146 
L 383.613745 179.144864 
L 383.681919 179.241378 
L 383.762238 179.468406 
L 383.913308 179.566498 
L 384.014571 179.764138 
L 384.108989 179.863696 
L 384.148528 179.997215 
L 384.326358 180.097943 
L 384.432915 180.369058 
L 384.470797 180.471682 
L 384.517678 180.6439 
L 384.705278 180.747948 
L 384.811523 180.887525 
L 384.932318 180.992852 
L 385.036989 181.205184 
L 385.131284 181.312202 
L 385.199724 181.527971 
L 385.296061 181.636736 
L 385.380593 181.892844 
L 385.491072 182.003616 
L 385.579565 182.152275 
L 385.672446 182.22702 
L 385.697786 182.377355 
L 385.867406 182.452948 
L 385.962868 182.719799 
L 386.081031 182.796701 
L 386.169102 182.990259 
L 386.3798 183.06821 
L 386.428873 183.146467 
L 386.62982 183.22503 
L 386.716424 183.303904 
L 386.809714 183.38309 
L 386.916829 183.703008 
L 386.960718 183.783794 
L 387.065492 184.028128 
L 387.219097 184.110241 
L 387.302284 184.358622 
L 387.408928 184.442106 
L 387.51648 184.779573 
L 387.586997 184.864837 
L 387.621249 184.993419 
L 387.772286 185.079602 
L 387.855941 185.340403 
L 387.931885 185.428098 
L 387.988201 185.60465 
L 388.175419 185.693515 
L 388.259082 185.872437 
L 388.393125 185.962502 
L 388.49102 186.189456 
L 388.548666 186.280964 
L 388.654744 186.465246 
L 388.686246 186.558028 
L 388.769671 186.698013 
L 388.888011 186.791884 
L 388.952018 186.980958 
L 389.075366 187.076169 
L 389.18419 187.267964 
L 389.269992 187.364556 
L 389.357451 187.510324 
L 389.568884 187.608096 
L 389.651295 187.805088 
L 389.775984 187.904316 
L 389.830768 188.004039 
L 390.044628 188.104262 
L 390.132956 188.459052 
L 390.216314 188.561588 
L 390.299679 188.76825 
L 390.405455 188.872388 
L 390.473475 189.029619 
L 390.587208 189.135131 
L 390.693267 189.401373 
L 390.828678 189.50887 
L 390.935811 189.780169 
L 390.981283 189.889728 
L 391.060972 189.99989 
L 391.284456 190.110663 
L 391.386987 190.334067 
L 391.430826 190.39031 
L 391.500636 190.616878 
L 391.611969 190.673924 
L 391.708398 190.961619 
L 391.828248 191.019658 
L 391.895644 191.312407 
L 392.096024 191.371475 
L 392.203623 191.850406 
L 392.319292 191.911088 
L 392.408483 192.279094 
L 392.526594 192.341092 
L 392.627556 192.465668 
L 392.684784 192.528249 
L 392.764396 192.717174 
L 392.825837 192.780548 
L 392.827 192.907902 
L 392.998835 192.971884 
L 393.087233 193.165068 
L 393.337694 193.22988 
L 393.418231 193.425586 
L 393.494138 193.491249 
L 393.57453 193.689543 
L 393.637746 193.75608 
L 393.730079 194.024466 
L 393.825073 194.092129 
L 393.85159 194.296503 
L 393.996303 194.365095 
L 394.060067 194.502988 
L 394.143504 194.572293 
L 394.213256 194.922467 
L 394.296427 194.993244 
L 394.367845 195.20709 
L 394.469682 195.278883 
L 394.539355 195.788787 
L 394.73197 195.862704 
L 394.73197 195.936895 
L 394.932425 196.011362 
L 395.008009 196.312036 
L 395.164147 196.387917 
L 395.202703 196.617301 
L 395.32792 196.694351 
L 395.419971 197.005554 
L 395.522849 197.084118 
L 395.593008 197.321679 
L 395.684309 197.401497 
L 395.778046 197.642881 
L 395.849305 197.723995 
L 395.915959 198.05178 
L 396.043403 198.134573 
L 396.043403 198.21771 
L 396.257906 198.301194 
L 396.366337 198.469215 
L 396.570539 198.553758 
L 396.670555 199.068665 
L 396.810015 199.155787 
L 396.913348 199.419454 
L 397.016748 199.508121 
L 397.115301 199.866775 
L 397.27318 199.957453 
L 397.372816 200.324334 
L 397.553919 200.417116 
L 397.659198 200.698072 
L 397.961528 200.792609 
L 398.051343 201.272115 
L 398.075273 201.369412 
L 398.173207 201.763403 
L 398.362469 201.863127 
L 398.428227 202.165315 
L 398.510032 202.267068 
L 398.611697 202.472141 
L 398.83986 202.575472 
L 398.947961 202.783749 
L 399.063176 202.888707 
L 399.113316 203.206928 
L 399.433801 203.314137 
L 399.445055 203.639257 
L 399.803022 203.748815 
L 399.803022 203.858978 
L 400.029201 203.969751 
L 400.029201 204.081141 
L 400.142158 204.081141 
L 400.220101 204.3058 
L 400.253532 204.3058 
L 400.343839 204.533012 
L 400.382076 204.533012 
L 400.433401 204.762835 
L 400.52026 204.762835 
L 400.571634 204.995331 
L 400.648798 204.995331 
L 400.663095 205.230563 
L 400.777698 205.230563 
L 400.849798 205.468594 
L 400.94582 205.468594 
L 401.015768 205.831041 
L 401.22587 205.831041 
L 401.316545 206.20018 
L 401.404583 206.20018 
L 401.508812 206.450114 
L 401.73719 206.450114 
L 401.73719 206.576262 
L 401.893412 206.576262 
L 401.987671 206.830972 
L 402.238834 206.830972 
L 402.297499 207.088968 
L 402.37926 207.088968 
L 402.405459 207.350337 
L 402.729254 207.350337 
L 402.729254 207.482314 
L 402.966958 207.482314 
L 403.031707 207.883553 
L 403.361021 207.883553 
L 403.413405 208.155591 
L 403.502827 208.155591 
L 403.502827 208.29301 
L 403.840915 208.29301 
L 403.890292 208.570715 
L 403.965738 208.570715 
L 404.042693 208.852331 
L 404.108593 208.852331 
L 404.178134 209.137971 
L 404.225545 209.137971 
L 404.287399 209.574231 
L 404.475319 209.574231 
L 404.569901 210.171124 
L 404.593369 210.171124 
L 404.665927 210.786386 
L 404.722379 210.786386 
L 404.722379 210.943206 
L 404.918114 210.943206 
L 404.984237 211.260585 
L 405.113114 211.260585 
L 405.200757 211.746303 
L 405.40247 211.746303 
L 405.40247 211.910867 
L 405.743257 211.910867 
L 405.743257 212.076797 
L 405.989744 212.076797 
L 406.054303 212.583013 
L 406.297468 212.583013 
L 406.373282 212.927753 
L 406.485834 212.927753 
L 406.579906 213.278541 
L 406.758084 213.278541 
L 406.758084 213.456271 
L 406.908086 213.456271 
L 407.002142 213.99914 
L 407.046591 213.99914 
L 407.149783 214.369418 
L 407.175248 214.369418 
L 407.285695 215.131203 
L 407.675482 215.131203 
L 407.746913 215.722214 
L 408.086921 215.722214 
L 408.188055 216.331229 
L 408.234002 216.331229 
L 408.234002 216.538427 
L 408.517196 216.538427 
L 408.612219 217.389383 
L 408.698078 217.389383 
L 408.698078 217.607903 
L 408.870822 217.607903 
L 408.870822 217.828838 
L 409.042436 217.828838 
L 409.042436 218.052242 
L 409.322206 218.052242 
L 409.399037 218.506681 
L 409.439783 218.506681 
L 409.439783 218.737833 
L 409.745935 218.737833 
L 409.756979 219.208312 
L 410.025834 219.208312 
L 410.025834 219.447769 
L 410.238849 219.447769 
L 410.238849 219.690129 
L 410.40798 219.690129 
L 410.40798 219.935463 
L 410.743437 219.935463 
L 410.840852 220.43535 
L 411.132357 220.43535 
L 411.156566 220.948056 
L 411.320882 220.948056 
L 411.320882 221.209424 
L 411.468314 221.209424 
L 411.503027 221.742641 
L 411.70386 221.742641 
L 411.806496 222.290468 
L 412.222703 222.290468 
L 412.222703 222.570115 
L 412.618902 222.570115 
L 412.618902 222.853729 
L 413.215733 222.853729 
L 413.308453 223.433318 
L 413.463489 223.433318 
L 413.463489 223.729538 
L 413.926914 223.729538 
L 413.926914 224.030212 
L 414.057527 224.030212 
L 414.058692 224.645474 
L 414.380874 224.645474 
L 414.380874 224.960353 
L 415.048684 224.960353 
L 415.048684 225.280271 
L 415.231269 225.280271 
L 415.231269 225.605391 
L 415.687896 225.605391 
L 415.731339 226.271934 
L 416.229481 226.271934 
L 416.308071 226.961466 
L 416.466036 226.961466 
L 416.466036 227.315359 
L 416.608278 227.315359 
L 416.608278 227.675629 
L 416.765353 227.675629 
L 416.779493 228.416248 
L 417.288913 228.416248 
L 417.288913 228.797106 
L 417.434208 228.797106 
L 417.434208 229.18536 
L 417.982125 229.18536 
L 417.982125 229.581302 
L 418.119491 229.581302 
L 418.119491 229.985244 
L 418.316008 229.985244 
L 418.316008 230.397515 
L 419.010253 230.397515 
L 419.010253 230.818466 
L 419.128188 230.818466 
L 419.236106 232.137258 
L 419.264133 232.137258 
L 419.30562 233.0674 
L 419.729422 233.0674 
L 419.827082 234.042932 
L 420.172987 234.042932 
L 420.172987 234.549147 
L 420.594101 234.549147 
L 420.594101 235.068512 
L 421.021224 235.068512 
L 421.089537 236.149556 
L 421.524487 236.149556 
L 421.524487 236.712817 
L 421.858704 236.712817 
L 421.858704 237.292406 
L 423.007537 237.292406 
L 423.007537 237.889299 
L 423.262011 237.889299 
L 423.262011 238.504561 
L 423.408817 238.504561 
L 423.408817 239.139359 
L 423.681548 239.139359 
L 423.681548 239.794973 
L 424.096767 239.794973 
L 424.11763 241.174446 
L 424.367474 241.174446 
L 424.414927 242.656194 
L 425.113685 242.656194 
L 425.113685 243.44039 
L 425.363355 243.44039 
L 425.405761 245.107558 
L 426.969597 245.107558 
L 426.969597 245.996346 
L 427.419577 245.996346 
L 427.419577 246.926488 
L 427.572899 246.926488 
L 427.572899 247.902019 
L 427.705393 247.902019 
L 427.705393 248.9276 
L 428.382906 248.9276 
L 428.446463 251.151494 
L 429.991419 251.151494 
L 430.019706 253.654061 
L 430.22225 253.654061 
L 430.22225 255.033534 
L 431.118606 255.033534 
L 431.118606 256.515281 
L 432.036384 256.515281 
L 432.072399 259.855434 
L 433.30174 259.855434 
L 433.30174 261.761107 
L 437.7571 261.761107 
L 437.7571 263.867731 
L 438.609086 263.867731 
L 438.609086 266.222737 
L 438.87096 266.222737 
L 438.87096 268.892622 
L 439.746531 268.892622 
L 439.746531 271.974778 
L 439.889662 271.974778 
L 439.889662 275.620195 
L 447.097404 275.620195 
L 447.097404 280.081825 
L 450.655397 280.081825 
L 450.655397 285.833866 
L 458.462918 285.833866 
L 458.462918 293.940912 
L 492.252616 293.940912 
L 492.252616 307.8 
L 498.109091 307.8 
L 498.109091 307.8 
" clip-path="url(#p6c65e9ea42)" style="fill: none; stroke: #ff0000; stroke-width: 1.5; stroke-linecap: square"/>
   </g>
   <g id="patch_3">
    <path d="M 72 320.4 
L 72 43.2 
" style="fill: none; stroke: #000000; stroke-width: 0.8; stroke-linejoin: miter; stroke-linecap: square"/>
   </g>
   <g id="patch_4">
    <path d="M 518.4 320.4 
L 518.4 43.2 
" style="fill: none; stroke: #000000; stroke-width: 0.8; stroke-linejoin: miter; stroke-linecap: square"/>
   </g>
   <g id="patch_5">
    <path d="M 72 320.4 
L 518.4 320.4 
" style="fill: none; stroke: #000000; stroke-width: 0.8; stroke-linejoin: miter; stroke-linecap: square"/>
   </g>
   <g id="patch_6">
    <path d="M 72 43.2 
L 518.4 43.2 
" style="fill: none; stroke: #000000; stroke-width: 0.8; stroke-linejoin: miter; stroke-linecap: square"/>
   </g>
   <g id="text_15">
    <!-- Comparison: CDF (log scale expands upper tail) -->
    <g transform="translate(151.960312 37.2) scale(0.12 -0.12)">
     <defs>
      <path id="DejaVuSans-43" d="M 4122 4306 
L 4122 3641 
Q 3803 3938 3442 4084 
Q 3081 4231 2675 4231 
Q 1875 4231 1450 3742 
Q 1025 3253 1025 2328 
Q 1025 1406 1450 917 
Q 1875 428 2675 428 
Q 3081 428 3442 575 
Q 3803 722 4122 1019 
L 4122 359 
Q 3791 134 3420 21 
Q 3050 -91 2638 -91 
Q 1578 -91 968 557 
Q 359 1206 359 2328 
Q 359 3453 968 4101 
Q 1578 4750 2638 4750 
Q 3056 4750 3426 4639 
Q 3797 4528 4122 4306 
z
" transform="scale(0.015625)"/>
      <path id="DejaVuSans-6d" d="M 3328 2828 
Q 3544 3216 3844 3400 
Q 4144 3584 4550 3584 
Q 5097 3584 5394 3201 
Q 5691 2819 5691 2113 
L 5691 0 
L 5113 0 
L 5113 2094 
Q 5113 2597 4934 2840 
Q 4756 3084 4391 3084 
Q 3944 3084 3684 2787 
Q 3425 2491 3425 1978 
L 3425 0 
L 2847 0 
L 2847 2094 
Q 2847 2600 2669 2842 
Q 2491 3084 2119 3084 
Q 1678 3084 1418 2786 
Q 1159 2488 1159 1978 
L 1159 0 
L 581 0 
L 581 3500 
L 1159 3500 
L 1159 2956 
Q 1356 3278 1631 3431 
Q 1906 3584 2284 3584 
Q 2666 3584 2933 3390 
Q 3200 3197 3328 2828 
z
" transform="scale(0.015625)"/>
      <path id="DejaVuSans-70" d="M 1159 525 
L 1159 -1331 
L 581 -1331 
L 581 3500 
L 1159 3500 
L 1159 2969 
Q 1341 3281 1617 3432 
Q 1894 3584 2278 3584 
Q 2916 3584 3314 3078 
Q 3713 2572 3713 1747 
Q 3713 922 3314 415 
Q 2916 -91 2278 -91 
Q 1894 -91 1617 61 
Q 1341 213 1159 525 
z
M 3116 1747 
Q 3116 2381 2855 2742 
Q 2594 3103 2138 3103 
Q 1681 3103 1420 2742 
Q 1159 2381 1159 1747 
Q 1159 1113 1420 752 
Q 1681 391 2138 391 
Q 2594 391 2855 752 
Q 3116 1113 3116 1747 
z
" transform="scale(0.015625)"/>
      <path id="DejaVuSans-73" d="M 2834 3397 
L 2834 2853 
Q 2591 2978 2328 3040 
Q 2066 3103 1784 3103 
Q 1356 3103 1142 2972 
Q 928 2841 928 2578 
Q 928 2378 1081 2264 
Q 1234 2150 1697 2047 
L 1894 2003 
Q 2506 1872 2764 1633 
Q 3022 1394 3022 966 
Q 3022 478 2636 193 
Q 2250 -91 1575 -91 
Q 1294 -91 989 -36 
Q 684 19 347 128 
L 347 722 
Q 666 556 975 473 
Q 1284 391 1588 391 
Q 1994 391 2212 530 
Q 2431 669 2431 922 
Q 2431 1156 2273 1281 
Q 2116 1406 1581 1522 
L 1381 1569 
Q 847 1681 609 1914 
Q 372 2147 372 2553 
Q 372 3047 722 3315 
Q 1072 3584 1716 3584 
Q 2034 3584 2315 3537 
Q 2597 3491 2834 3397 
z
" transform="scale(0.015625)"/>
      <path id="DejaVuSans-3a" d="M 750 794 
L 1409 794 
L 1409 0 
L 750 0 
L 750 794 
z
M 750 3309 
L 1409 3309 
L 1409 2516 
L 750 2516 
L 750 3309 
z
" transform="scale(0.015625)"/>
      <path id="DejaVuSans-44" d="M 1259 4147 
L 1259 519 
L 2022 519 
Q 2988 519 3436 956 
Q 3884 1394 3884 2338 
Q 3884 3275 3436 3711 
Q 2988 4147 2022 4147 
L 1259 4147 
z
M 628 4666 
L 1925 4666 
Q 3281 4666 3915 4102 
Q 4550 3538 4550 2338 
Q 4550 1131 3912 565 
Q 3275 0 1925 0 
L 628 0 
L 628 4666 
z
" transform="scale(0.015625)"/>
      <path id="DejaVuSans-46" d="M 628 4666 
L 3309 4666 
L 3309 4134 
L 1259 4134 
L 1259 2759 
L 3109 2759 
L 3109 2228 
L 1259 2228 
L 1259 0 
L 628 0 
L 628 4666 
z
" transform="scale(0.015625)"/>
      <path id="DejaVuSans-67" d="M 2906 1791 
Q 2906 2416 2648 2759 
Q 2391 3103 1925 3103 
Q 1463 3103 1205 2759 
Q 947 2416 947 1791 
Q 947 1169 1205 825 
Q 1463 481 1925 481 
Q 2391 481 2648 825 
Q 2906 1169 2906 1791 
z
M 3481 434 
Q 3481 -459 3084 -895 
Q 2688 -1331 1869 -1331 
Q 1566 -1331 1297 -1286 
Q 1028 -1241 775 -1147 
L 775 -588 
Q 1028 -725 1275 -790 
Q 1522 -856 1778 -856 
Q 2344 -856 2625 -561 
Q 2906 -266 2906 331 
L 2906 616 
Q 2728 306 2450 153 
Q 2172 0 1784 0 
Q 1141 0 747 490 
Q 353 981 353 1791 
Q 353 2603 747 3093 
Q 1141 3584 1784 3584 
Q 2172 3584 2450 3431 
Q 2728 3278 2906 2969 
L 2906 3500 
L 3481 3500 
L 3481 434 
z
" transform="scale(0.015625)"/>
      <path id="DejaVuSans-75" d="M 544 1381 
L 544 3500 
L 1119 3500 
L 1119 1403 
Q 1119 906 1312 657 
Q 1506 409 1894 409 
Q 2359 409 2629 706 
Q 2900 1003 2900 1516 
L 2900 3500 
L 3475 3500 
L 3475 0 
L 2900 0 
L 2900 538 
Q 2691 219 2414 64 
Q 2138 -91 1772 -91 
Q 1169 -91 856 284 
Q 544 659 544 1381 
z
M 1991 3584 
L 1991 3584 
z
" transform="scale(0.015625)"/>
     </defs>
     <use xlink:href="#DejaVuSans-43"/>
     <use xlink:href="#DejaVuSans-6f" x="69.824219"/>
     <use xlink:href="#DejaVuSans-6d" x="131.005859"/>
     <use xlink:href="#DejaVuSans-70" x="228.417969"/>
     <use xlink:href="#DejaVuSans-61" x="291.894531"/>
     <use xlink:href="#DejaVuSans-72" x="353.173828"/>
     <use xlink:href="#DejaVuSans-69" x="394.287109"/>
     <use xlink:href="#DejaVuSans-73" x="422.070312"/>
     <use xlink:href="#DejaVuSans-6f" x="474.169922"/>
     <use xlink:href="#DejaVuSans-6e" x="535.351562"/>
     <use xlink:href="#DejaVuSans-3a" x="598.730469"/>
     <use xlink:href="#DejaVuSans-20" x="632.421875"/>
     <use xlink:href="#DejaVuSans-43" x="664.208984"/>
     <use xlink:href="#DejaVuSans-44" x="734.033203"/>
     <use xlink:href="#DejaVuSans-46" x="811.035156"/>
     <use xlink:href="#DejaVuSans-20" x="868.554688"/>
     <use xlink:href="#DejaVuSans-28" x="900.341797"/>
     <use xlink:href="#DejaVuSans-6c" x="939.355469"/>
     <use xlink:href="#DejaVuSans-6f" x="967.138672"/>
     <use xlink:href="#DejaVuSans-67" x="1028.320312"/>
     <use xlink:href="#DejaVuSans-20" x="1091.796875"/>
     <use xlink:href="#DejaVuSans-73" x="1123.583984"/>
     <use xlink:href="#DejaVuSans-63" x="1175.683594"/>
     <use xlink:href="#DejaVuSans-61" x="1230.664062"/>
     <use xlink:href="#DejaVuSans-6c" x="1291.943359"/>
     <use xlink:href="#DejaVuSans-65" x="1319.726562"/>
     <use xlink:href="#DejaVuSans-20" x="1381.25"/>
     <use xlink:href="#DejaVuSans-65" x="1413.037109"/>
     <use xlink:href="#DejaVuSans-78" x="1472.810547"/>
     <use xlink:href="#DejaVuSans-70" x="1531.990234"/>
     <use xlink:href="#DejaVuSans-61" x="1595.466797"/>
     <use xlink:href="#DejaVuSans-6e" x="1656.746094"/>
     <use xlink:href="#DejaVuSans-64" x="1720.125"/>
     <use xlink:href="#DejaVuSans-73" x="1783.601562"/>
     <use xlink:href="#DejaVuSans-20" x="1835.701172"/>
     <use xlink:href="#DejaVuSans-75" x="1867.488281"/>
     <use xlink:href="#DejaVuSans-70" x="1930.867188"/>
     <use xlink:href="#DejaVuSans-70" x="1994.34375"/>
     <use xlink:href="#DejaVuSans-65" x="2057.820312"/>
     <use xlink:href="#DejaVuSans-72" x="2119.34375"/>
     <use xlink:href="#DejaVuSans-20" x="2160.457031"/>
     <use xlink:href="#DejaVuSans-74" x="2192.244141"/>
     <use xlink:href="#DejaVuSans-61" x="2231.453125"/>
     <use xlink:href="#DejaVuSans-69" x="2292.732422"/>
     <use xlink:href="#DejaVuSans-6c" x="2320.515625"/>
     <use xlink:href="#DejaVuSans-29" x="2348.298828"/>
    </g>
   </g>
   <g id="legend_1">
    <g id="patch_7">
     <path d="M 416.765625 80.55625 
L 511.4 80.55625 
Q 513.4 80.55625 513.4 78.55625 
L 513.4 50.2 
Q 513.4 48.2 511.4 48.2 
L 416.765625 48.2 
Q 414.765625 48.2 414.765625 50.2 
L 414.765625 78.55625 
Q 414.765625 80.55625 416.765625 80.55625 
z
" style="fill: #ffffff; opacity: 0.8; stroke: #cccccc; stroke-linejoin: miter"/>
    </g>
    <g id="line2d_75">
     <path d="M 418.765625 56.298437 
L 418.765625 56.298437 
L 428.765625 56.298437 
L 428.765625 56.298437 
L 438.765625 56.298437 
" style="fill: none; stroke: #000000; stroke-width: 1.5; stroke-linecap: square"/>
    </g>
    <g id="text_16">
     <!-- Data -->
     <g transform="translate(446.765625 59.798437) scale(0.1 -0.1)">
      <use xlink:href="#DejaVuSans-44"/>
      <use xlink:href="#DejaVuSans-61" x="77.001953"/>
      <use xlink:href="#DejaVuSans-74" x="138.28125"/>
      <use xlink:href="#DejaVuSans-61" x="177.490234"/>
     </g>
    </g>
    <g id="line2d_76">
     <path d="M 418.765625 70.976562 
L 418.765625 70.976562 
L 428.765625 70.976562 
L 428.765625 70.976562 
L 438.765625 70.976562 
" style="fill: none; stroke: #ff0000; stroke-width: 1.5; stroke-linecap: square"/>
    </g>
    <g id="text_17">
     <!-- MCS Sample -->
     <g transform="translate(446.765625 74.476562) scale(0.1 -0.1)">
      <defs>
       <path id="DejaVuSans-4d" d="M 628 4666 
L 1569 4666 
L 2759 1491 
L 3956 4666 
L 4897 4666 
L 4897 0 
L 4281 0 
L 4281 4097 
L 3078 897 
L 2444 897 
L 1241 4097 
L 1241 0 
L 628 0 
L 628 4666 
z
" transform="scale(0.015625)"/>
       <path id="DejaVuSans-53" d="M 3425 4513 
L 3425 3897 
Q 3066 4069 2747 4153 
Q 2428 4238 2131 4238 
Q 1616 4238 1336 4038 
Q 1056 3838 1056 3469 
Q 1056 3159 1242 3001 
Q 1428 2844 1947 2747 
L 2328 2669 
Q 3034 2534 3370 2195 
Q 3706 1856 3706 1288 
Q 3706 609 3251 259 
Q 2797 -91 1919 -91 
Q 1588 -91 1214 -16 
Q 841 59 441 206 
L 441 856 
Q 825 641 1194 531 
Q 1563 422 1919 422 
Q 2459 422 2753 634 
Q 3047 847 3047 1241 
Q 3047 1584 2836 1778 
Q 2625 1972 2144 2069 
L 1759 2144 
Q 1053 2284 737 2584 
Q 422 2884 422 3419 
Q 422 4038 858 4394 
Q 1294 4750 2059 4750 
Q 2388 4750 2728 4690 
Q 3069 4631 3425 4513 
z
" transform="scale(0.015625)"/>
      </defs>
      <use xlink:href="#DejaVuSans-4d"/>
      <use xlink:href="#DejaVuSans-43" x="86.279297"/>
      <use xlink:href="#DejaVuSans-53" x="156.103516"/>
      <use xlink:href="#DejaVuSans-20" x="219.580078"/>
      <use xlink:href="#DejaVuSans-53" x="251.367188"/>
      <use xlink:href="#DejaVuSans-61" x="314.84375"/>
      <use xlink:href="#DejaVuSans-6d" x="376.123047"/>
      <use xlink:href="#DejaVuSans-70" x="473.535156"/>
      <use xlink:href="#DejaVuSans-6c" x="537.011719"/>
      <use xlink:href="#DejaVuSans-65" x="564.794922"/>
     </g>
    </g>
   </g>
  </g>
 </g>
 <defs>
  <clipPath id="p6c65e9ea42">
   <rect x="72" y="43.2" width="446.4" height="277.2"/>
  </clipPath>
 </defs>
</svg>
