<?xml version="1.0" encoding="utf-8" standalone="no"?>
<!DOCTYPE svg PUBLIC "-//W3C//DTD SVG 1.1//EN"
  "http://www.w3.org/Graphics/SVG/1.1/DTD/svg11.dtd">
<svg xmlns:xlink="http://www.w3.org/1999/xlink" width="529.69125pt" height="342.76925pt" viewBox="0 0 529.69125 342.76925" xmlns="http://www.w3.org/2000/svg" version="1.1">
 <metadata>
  <rdf:RDF xmlns:dc="http://purl.org/dc/elements/1.1/" xmlns:cc="http://creativecommons.org/ns#" xmlns:rdf="http://www.w3.org/1999/02/22-rdf-syntax-ns#">
   <cc:Work>
    <dc:type rdf:resource="http://purl.org/dc/dcmitype/StillImage"/>
    <dc:date>2024-01-22T05:35:42.011514</dc:date>
    <dc:format>image/svg+xml</dc:format>
    <dc:creator>
     <cc:Agent>
      <dc:title>Matplotlib v3.7.1, https://matplotlib.org/</dc:title>
     </cc:Agent>
    </dc:creator>
   </cc:Work>
  </rdf:RDF>
 </metadata>
 <defs>
  <style type="text/css">*{stroke-linejoin: round; stroke-linecap: butt}</style>
 </defs>
 <g id="figure_1">
  <g id="patch_1">
   <path d="M 0 342.76925 
L 529.69125 342.76925 
L 529.69125 0 
L 0 0 
z
" style="fill: #ffffff"/>
  </g>
  <g id="axes_1">
   <g id="patch_2">
    <path d="M 60.82125 301.34175 
L 507.22125 301.34175 
L 507.22125 24.14175 
L 60.82125 24.14175 
z
" style="fill: #ffffff"/>
   </g>
   <g id="matplotlib.axis_1">
    <g id="xtick_1">
     <g id="line2d_1">
      <path d="M 63.976449 301.34175 
L 63.976449 24.14175 
" clip-path="url(#p08da2adf9a)" style="fill: none; stroke: #b0b0b0; stroke-width: 0.8; stroke-linecap: square"/>
     </g>
     <g id="line2d_2">
      <defs>
       <path id="m78b79b33fc" d="M 0 0 
L 0 3.5 
" style="stroke: #000000; stroke-width: 0.8"/>
      </defs>
      <g>
       <use xlink:href="#m78b79b33fc" x="63.976449" y="301.34175" style="stroke: #000000; stroke-width: 0.8"/>
      </g>
     </g>
     <g id="text_1">
      <!-- 1900 -->
      <g transform="translate(48.706449 317.459875) scale(0.12 -0.12)">
       <defs>
        <path id="DejaVuSans-31" d="M 794 531 
L 1825 531 
L 1825 4091 
L 703 3866 
L 703 4441 
L 1819 4666 
L 2450 4666 
L 2450 531 
L 3481 531 
L 3481 0 
L 794 0 
L 794 531 
z
" transform="scale(0.015625)"/>
        <path id="DejaVuSans-39" d="M 703 97 
L 703 672 
Q 941 559 1184 500 
Q 1428 441 1663 441 
Q 2288 441 2617 861 
Q 2947 1281 2994 2138 
Q 2813 1869 2534 1725 
Q 2256 1581 1919 1581 
Q 1219 1581 811 2004 
Q 403 2428 403 3163 
Q 403 3881 828 4315 
Q 1253 4750 1959 4750 
Q 2769 4750 3195 4129 
Q 3622 3509 3622 2328 
Q 3622 1225 3098 567 
Q 2575 -91 1691 -91 
Q 1453 -91 1209 -44 
Q 966 3 703 97 
z
M 1959 2075 
Q 2384 2075 2632 2365 
Q 2881 2656 2881 3163 
Q 2881 3666 2632 3958 
Q 2384 4250 1959 4250 
Q 1534 4250 1286 3958 
Q 1038 3666 1038 3163 
Q 1038 2656 1286 2365 
Q 1534 2075 1959 2075 
z
" transform="scale(0.015625)"/>
        <path id="DejaVuSans-30" d="M 2034 4250 
Q 1547 4250 1301 3770 
Q 1056 3291 1056 2328 
Q 1056 1369 1301 889 
Q 1547 409 2034 409 
Q 2525 409 2770 889 
Q 3016 1369 3016 2328 
Q 3016 3291 2770 3770 
Q 2525 4250 2034 4250 
z
M 2034 4750 
Q 2819 4750 3233 4129 
Q 3647 3509 3647 2328 
Q 3647 1150 3233 529 
Q 2819 -91 2034 -91 
Q 1250 -91 836 529 
Q 422 1150 422 2328 
Q 422 3509 836 4129 
Q 1250 4750 2034 4750 
z
" transform="scale(0.015625)"/>
       </defs>
       <use xlink:href="#DejaVuSans-31"/>
       <use xlink:href="#DejaVuSans-39" x="63.623047"/>
       <use xlink:href="#DejaVuSans-30" x="127.246094"/>
       <use xlink:href="#DejaVuSans-30" x="190.869141"/>
      </g>
     </g>
    </g>
    <g id="xtick_2">
     <g id="line2d_3">
      <path d="M 127.297135 301.34175 
L 127.297135 24.14175 
" clip-path="url(#p08da2adf9a)" style="fill: none; stroke: #b0b0b0; stroke-width: 0.8; stroke-linecap: square"/>
     </g>
     <g id="line2d_4">
      <g>
       <use xlink:href="#m78b79b33fc" x="127.297135" y="301.34175" style="stroke: #000000; stroke-width: 0.8"/>
      </g>
     </g>
     <g id="text_2">
      <!-- 1920 -->
      <g transform="translate(112.027135 317.459875) scale(0.12 -0.12)">
       <defs>
        <path id="DejaVuSans-32" d="M 1228 531 
L 3431 531 
L 3431 0 
L 469 0 
L 469 531 
Q 828 903 1448 1529 
Q 2069 2156 2228 2338 
Q 2531 2678 2651 2914 
Q 2772 3150 2772 3378 
Q 2772 3750 2511 3984 
Q 2250 4219 1831 4219 
Q 1534 4219 1204 4116 
Q 875 4013 500 3803 
L 500 4441 
Q 881 4594 1212 4672 
Q 1544 4750 1819 4750 
Q 2544 4750 2975 4387 
Q 3406 4025 3406 3419 
Q 3406 3131 3298 2873 
Q 3191 2616 2906 2266 
Q 2828 2175 2409 1742 
Q 1991 1309 1228 531 
z
" transform="scale(0.015625)"/>
       </defs>
       <use xlink:href="#DejaVuSans-31"/>
       <use xlink:href="#DejaVuSans-39" x="63.623047"/>
       <use xlink:href="#DejaVuSans-32" x="127.246094"/>
       <use xlink:href="#DejaVuSans-30" x="190.869141"/>
      </g>
     </g>
    </g>
    <g id="xtick_3">
     <g id="line2d_5">
      <path d="M 190.617821 301.34175 
L 190.617821 24.14175 
" clip-path="url(#p08da2adf9a)" style="fill: none; stroke: #b0b0b0; stroke-width: 0.8; stroke-linecap: square"/>
     </g>
     <g id="line2d_6">
      <g>
       <use xlink:href="#m78b79b33fc" x="190.617821" y="301.34175" style="stroke: #000000; stroke-width: 0.8"/>
      </g>
     </g>
     <g id="text_3">
      <!-- 1940 -->
      <g transform="translate(175.347821 317.459875) scale(0.12 -0.12)">
       <defs>
        <path id="DejaVuSans-34" d="M 2419 4116 
L 825 1625 
L 2419 1625 
L 2419 4116 
z
M 2253 4666 
L 3047 4666 
L 3047 1625 
L 3713 1625 
L 3713 1100 
L 3047 1100 
L 3047 0 
L 2419 0 
L 2419 1100 
L 313 1100 
L 313 1709 
L 2253 4666 
z
" transform="scale(0.015625)"/>
       </defs>
       <use xlink:href="#DejaVuSans-31"/>
       <use xlink:href="#DejaVuSans-39" x="63.623047"/>
       <use xlink:href="#DejaVuSans-34" x="127.246094"/>
       <use xlink:href="#DejaVuSans-30" x="190.869141"/>
      </g>
     </g>
    </g>
    <g id="xtick_4">
     <g id="line2d_7">
      <path d="M 253.938507 301.34175 
L 253.938507 24.14175 
" clip-path="url(#p08da2adf9a)" style="fill: none; stroke: #b0b0b0; stroke-width: 0.8; stroke-linecap: square"/>
     </g>
     <g id="line2d_8">
      <g>
       <use xlink:href="#m78b79b33fc" x="253.938507" y="301.34175" style="stroke: #000000; stroke-width: 0.8"/>
      </g>
     </g>
     <g id="text_4">
      <!-- 1960 -->
      <g transform="translate(238.668507 317.459875) scale(0.12 -0.12)">
       <defs>
        <path id="DejaVuSans-36" d="M 2113 2584 
Q 1688 2584 1439 2293 
Q 1191 2003 1191 1497 
Q 1191 994 1439 701 
Q 1688 409 2113 409 
Q 2538 409 2786 701 
Q 3034 994 3034 1497 
Q 3034 2003 2786 2293 
Q 2538 2584 2113 2584 
z
M 3366 4563 
L 3366 3988 
Q 3128 4100 2886 4159 
Q 2644 4219 2406 4219 
Q 1781 4219 1451 3797 
Q 1122 3375 1075 2522 
Q 1259 2794 1537 2939 
Q 1816 3084 2150 3084 
Q 2853 3084 3261 2657 
Q 3669 2231 3669 1497 
Q 3669 778 3244 343 
Q 2819 -91 2113 -91 
Q 1303 -91 875 529 
Q 447 1150 447 2328 
Q 447 3434 972 4092 
Q 1497 4750 2381 4750 
Q 2619 4750 2861 4703 
Q 3103 4656 3366 4563 
z
" transform="scale(0.015625)"/>
       </defs>
       <use xlink:href="#DejaVuSans-31"/>
       <use xlink:href="#DejaVuSans-39" x="63.623047"/>
       <use xlink:href="#DejaVuSans-36" x="127.246094"/>
       <use xlink:href="#DejaVuSans-30" x="190.869141"/>
      </g>
     </g>
    </g>
    <g id="xtick_5">
     <g id="line2d_9">
      <path d="M 317.259192 301.34175 
L 317.259192 24.14175 
" clip-path="url(#p08da2adf9a)" style="fill: none; stroke: #b0b0b0; stroke-width: 0.8; stroke-linecap: square"/>
     </g>
     <g id="line2d_10">
      <g>
       <use xlink:href="#m78b79b33fc" x="317.259192" y="301.34175" style="stroke: #000000; stroke-width: 0.8"/>
      </g>
     </g>
     <g id="text_5">
      <!-- 1980 -->
      <g transform="translate(301.989192 317.459875) scale(0.12 -0.12)">
       <defs>
        <path id="DejaVuSans-38" d="M 2034 2216 
Q 1584 2216 1326 1975 
Q 1069 1734 1069 1313 
Q 1069 891 1326 650 
Q 1584 409 2034 409 
Q 2484 409 2743 651 
Q 3003 894 3003 1313 
Q 3003 1734 2745 1975 
Q 2488 2216 2034 2216 
z
M 1403 2484 
Q 997 2584 770 2862 
Q 544 3141 544 3541 
Q 544 4100 942 4425 
Q 1341 4750 2034 4750 
Q 2731 4750 3128 4425 
Q 3525 4100 3525 3541 
Q 3525 3141 3298 2862 
Q 3072 2584 2669 2484 
Q 3125 2378 3379 2068 
Q 3634 1759 3634 1313 
Q 3634 634 3220 271 
Q 2806 -91 2034 -91 
Q 1263 -91 848 271 
Q 434 634 434 1313 
Q 434 1759 690 2068 
Q 947 2378 1403 2484 
z
M 1172 3481 
Q 1172 3119 1398 2916 
Q 1625 2713 2034 2713 
Q 2441 2713 2670 2916 
Q 2900 3119 2900 3481 
Q 2900 3844 2670 4047 
Q 2441 4250 2034 4250 
Q 1625 4250 1398 4047 
Q 1172 3844 1172 3481 
z
" transform="scale(0.015625)"/>
       </defs>
       <use xlink:href="#DejaVuSans-31"/>
       <use xlink:href="#DejaVuSans-39" x="63.623047"/>
       <use xlink:href="#DejaVuSans-38" x="127.246094"/>
       <use xlink:href="#DejaVuSans-30" x="190.869141"/>
      </g>
     </g>
    </g>
    <g id="xtick_6">
     <g id="line2d_11">
      <path d="M 380.579878 301.34175 
L 380.579878 24.14175 
" clip-path="url(#p08da2adf9a)" style="fill: none; stroke: #b0b0b0; stroke-width: 0.8; stroke-linecap: square"/>
     </g>
     <g id="line2d_12">
      <g>
       <use xlink:href="#m78b79b33fc" x="380.579878" y="301.34175" style="stroke: #000000; stroke-width: 0.8"/>
      </g>
     </g>
     <g id="text_6">
      <!-- 2000 -->
      <g transform="translate(365.309878 317.459875) scale(0.12 -0.12)">
       <use xlink:href="#DejaVuSans-32"/>
       <use xlink:href="#DejaVuSans-30" x="63.623047"/>
       <use xlink:href="#DejaVuSans-30" x="127.246094"/>
       <use xlink:href="#DejaVuSans-30" x="190.869141"/>
      </g>
     </g>
    </g>
    <g id="xtick_7">
     <g id="line2d_13">
      <path d="M 443.900564 301.34175 
L 443.900564 24.14175 
" clip-path="url(#p08da2adf9a)" style="fill: none; stroke: #b0b0b0; stroke-width: 0.8; stroke-linecap: square"/>
     </g>
     <g id="line2d_14">
      <g>
       <use xlink:href="#m78b79b33fc" x="443.900564" y="301.34175" style="stroke: #000000; stroke-width: 0.8"/>
      </g>
     </g>
     <g id="text_7">
      <!-- 2020 -->
      <g transform="translate(428.630564 317.459875) scale(0.12 -0.12)">
       <use xlink:href="#DejaVuSans-32"/>
       <use xlink:href="#DejaVuSans-30" x="63.623047"/>
       <use xlink:href="#DejaVuSans-32" x="127.246094"/>
       <use xlink:href="#DejaVuSans-30" x="190.869141"/>
      </g>
     </g>
    </g>
    <g id="xtick_8">
     <g id="line2d_15">
      <path d="M 507.22125 301.34175 
L 507.22125 24.14175 
" clip-path="url(#p08da2adf9a)" style="fill: none; stroke: #b0b0b0; stroke-width: 0.8; stroke-linecap: square"/>
     </g>
     <g id="line2d_16">
      <g>
       <use xlink:href="#m78b79b33fc" x="507.22125" y="301.34175" style="stroke: #000000; stroke-width: 0.8"/>
      </g>
     </g>
     <g id="text_8">
      <!-- 2040 -->
      <g transform="translate(491.95125 317.459875) scale(0.12 -0.12)">
       <use xlink:href="#DejaVuSans-32"/>
       <use xlink:href="#DejaVuSans-30" x="63.623047"/>
       <use xlink:href="#DejaVuSans-34" x="127.246094"/>
       <use xlink:href="#DejaVuSans-30" x="190.869141"/>
      </g>
     </g>
    </g>
    <g id="text_9">
     <!-- Year -->
     <g transform="translate(271.31625 333.073625) scale(0.12 -0.12)">
      <defs>
       <path id="DejaVuSans-59" d="M -13 4666 
L 666 4666 
L 1959 2747 
L 3244 4666 
L 3922 4666 
L 2272 2222 
L 2272 0 
L 1638 0 
L 1638 2222 
L -13 4666 
z
" transform="scale(0.015625)"/>
       <path id="DejaVuSans-65" d="M 3597 1894 
L 3597 1613 
L 953 1613 
Q 991 1019 1311 708 
Q 1631 397 2203 397 
Q 2534 397 2845 478 
Q 3156 559 3463 722 
L 3463 178 
Q 3153 47 2828 -22 
Q 2503 -91 2169 -91 
Q 1331 -91 842 396 
Q 353 884 353 1716 
Q 353 2575 817 3079 
Q 1281 3584 2069 3584 
Q 2775 3584 3186 3129 
Q 3597 2675 3597 1894 
z
M 3022 2063 
Q 3016 2534 2758 2815 
Q 2500 3097 2075 3097 
Q 1594 3097 1305 2825 
Q 1016 2553 972 2059 
L 3022 2063 
z
" transform="scale(0.015625)"/>
       <path id="DejaVuSans-61" d="M 2194 1759 
Q 1497 1759 1228 1600 
Q 959 1441 959 1056 
Q 959 750 1161 570 
Q 1363 391 1709 391 
Q 2188 391 2477 730 
Q 2766 1069 2766 1631 
L 2766 1759 
L 2194 1759 
z
M 3341 1997 
L 3341 0 
L 2766 0 
L 2766 531 
Q 2569 213 2275 61 
Q 1981 -91 1556 -91 
Q 1019 -91 701 211 
Q 384 513 384 1019 
Q 384 1609 779 1909 
Q 1175 2209 1959 2209 
L 2766 2209 
L 2766 2266 
Q 2766 2663 2505 2880 
Q 2244 3097 1772 3097 
Q 1472 3097 1187 3025 
Q 903 2953 641 2809 
L 641 3341 
Q 956 3463 1253 3523 
Q 1550 3584 1831 3584 
Q 2591 3584 2966 3190 
Q 3341 2797 3341 1997 
z
" transform="scale(0.015625)"/>
       <path id="DejaVuSans-72" d="M 2631 2963 
Q 2534 3019 2420 3045 
Q 2306 3072 2169 3072 
Q 1681 3072 1420 2755 
Q 1159 2438 1159 1844 
L 1159 0 
L 581 0 
L 581 3500 
L 1159 3500 
L 1159 2956 
Q 1341 3275 1631 3429 
Q 1922 3584 2338 3584 
Q 2397 3584 2469 3576 
Q 2541 3569 2628 3553 
L 2631 2963 
z
" transform="scale(0.015625)"/>
      </defs>
      <use xlink:href="#DejaVuSans-59"/>
      <use xlink:href="#DejaVuSans-65" x="47.833984"/>
      <use xlink:href="#DejaVuSans-61" x="109.357422"/>
      <use xlink:href="#DejaVuSans-72" x="170.636719"/>
     </g>
    </g>
   </g>
   <g id="matplotlib.axis_2">
    <g id="ytick_1">
     <g id="line2d_17">
      <path d="M 60.82125 301.34175 
L 507.22125 301.34175 
" clip-path="url(#p08da2adf9a)" style="fill: none; stroke: #b0b0b0; stroke-width: 0.8; stroke-linecap: square"/>
     </g>
     <g id="line2d_18">
      <defs>
       <path id="m19f255bdaa" d="M 0 0 
L -3.5 0 
" style="stroke: #000000; stroke-width: 0.8"/>
      </defs>
      <g>
       <use xlink:href="#m19f255bdaa" x="60.82125" y="301.34175" style="stroke: #000000; stroke-width: 0.8"/>
      </g>
     </g>
     <g id="text_10">
      <!-- April 01 -->
      <g transform="translate(22.81375 304.381125) scale(0.08 -0.08)">
       <defs>
        <path id="DejaVuSans-41" d="M 2188 4044 
L 1331 1722 
L 3047 1722 
L 2188 4044 
z
M 1831 4666 
L 2547 4666 
L 4325 0 
L 3669 0 
L 3244 1197 
L 1141 1197 
L 716 0 
L 50 0 
L 1831 4666 
z
" transform="scale(0.015625)"/>
        <path id="DejaVuSans-70" d="M 1159 525 
L 1159 -1331 
L 581 -1331 
L 581 3500 
L 1159 3500 
L 1159 2969 
Q 1341 3281 1617 3432 
Q 1894 3584 2278 3584 
Q 2916 3584 3314 3078 
Q 3713 2572 3713 1747 
Q 3713 922 3314 415 
Q 2916 -91 2278 -91 
Q 1894 -91 1617 61 
Q 1341 213 1159 525 
z
M 3116 1747 
Q 3116 2381 2855 2742 
Q 2594 3103 2138 3103 
Q 1681 3103 1420 2742 
Q 1159 2381 1159 1747 
Q 1159 1113 1420 752 
Q 1681 391 2138 391 
Q 2594 391 2855 752 
Q 3116 1113 3116 1747 
z
" transform="scale(0.015625)"/>
        <path id="DejaVuSans-69" d="M 603 3500 
L 1178 3500 
L 1178 0 
L 603 0 
L 603 3500 
z
M 603 4863 
L 1178 4863 
L 1178 4134 
L 603 4134 
L 603 4863 
z
" transform="scale(0.015625)"/>
        <path id="DejaVuSans-6c" d="M 603 4863 
L 1178 4863 
L 1178 0 
L 603 0 
L 603 4863 
z
" transform="scale(0.015625)"/>
        <path id="DejaVuSans-20" transform="scale(0.015625)"/>
       </defs>
       <use xlink:href="#DejaVuSans-41"/>
       <use xlink:href="#DejaVuSans-70" x="68.408203"/>
       <use xlink:href="#DejaVuSans-72" x="131.884766"/>
       <use xlink:href="#DejaVuSans-69" x="172.998047"/>
       <use xlink:href="#DejaVuSans-6c" x="200.78125"/>
       <use xlink:href="#DejaVuSans-20" x="228.564453"/>
       <use xlink:href="#DejaVuSans-30" x="260.351562"/>
       <use xlink:href="#DejaVuSans-31" x="323.974609"/>
      </g>
     </g>
    </g>
    <g id="ytick_2">
     <g id="line2d_19">
      <path d="M 60.82125 237.722078 
L 507.22125 237.722078 
" clip-path="url(#p08da2adf9a)" style="fill: none; stroke: #b0b0b0; stroke-width: 0.8; stroke-linecap: square"/>
     </g>
     <g id="line2d_20">
      <g>
       <use xlink:href="#m19f255bdaa" x="60.82125" y="237.722078" style="stroke: #000000; stroke-width: 0.8"/>
      </g>
     </g>
     <g id="text_11">
      <!-- April 15 -->
      <g transform="translate(22.81375 240.761453) scale(0.08 -0.08)">
       <defs>
        <path id="DejaVuSans-35" d="M 691 4666 
L 3169 4666 
L 3169 4134 
L 1269 4134 
L 1269 2991 
Q 1406 3038 1543 3061 
Q 1681 3084 1819 3084 
Q 2600 3084 3056 2656 
Q 3513 2228 3513 1497 
Q 3513 744 3044 326 
Q 2575 -91 1722 -91 
Q 1428 -91 1123 -41 
Q 819 9 494 109 
L 494 744 
Q 775 591 1075 516 
Q 1375 441 1709 441 
Q 2250 441 2565 725 
Q 2881 1009 2881 1497 
Q 2881 1984 2565 2268 
Q 2250 2553 1709 2553 
Q 1456 2553 1204 2497 
Q 953 2441 691 2322 
L 691 4666 
z
" transform="scale(0.015625)"/>
       </defs>
       <use xlink:href="#DejaVuSans-41"/>
       <use xlink:href="#DejaVuSans-70" x="68.408203"/>
       <use xlink:href="#DejaVuSans-72" x="131.884766"/>
       <use xlink:href="#DejaVuSans-69" x="172.998047"/>
       <use xlink:href="#DejaVuSans-6c" x="200.78125"/>
       <use xlink:href="#DejaVuSans-20" x="228.564453"/>
       <use xlink:href="#DejaVuSans-31" x="260.351562"/>
       <use xlink:href="#DejaVuSans-35" x="323.974609"/>
      </g>
     </g>
    </g>
    <g id="ytick_3">
     <g id="line2d_21">
      <path d="M 60.82125 174.102406 
L 507.22125 174.102406 
" clip-path="url(#p08da2adf9a)" style="fill: none; stroke: #b0b0b0; stroke-width: 0.8; stroke-linecap: square"/>
     </g>
     <g id="line2d_22">
      <g>
       <use xlink:href="#m19f255bdaa" x="60.82125" y="174.102406" style="stroke: #000000; stroke-width: 0.8"/>
      </g>
     </g>
     <g id="text_12">
      <!-- April 29 -->
      <g transform="translate(22.81375 177.141781) scale(0.08 -0.08)">
       <use xlink:href="#DejaVuSans-41"/>
       <use xlink:href="#DejaVuSans-70" x="68.408203"/>
       <use xlink:href="#DejaVuSans-72" x="131.884766"/>
       <use xlink:href="#DejaVuSans-69" x="172.998047"/>
       <use xlink:href="#DejaVuSans-6c" x="200.78125"/>
       <use xlink:href="#DejaVuSans-20" x="228.564453"/>
       <use xlink:href="#DejaVuSans-32" x="260.351562"/>
       <use xlink:href="#DejaVuSans-39" x="323.974609"/>
      </g>
     </g>
    </g>
    <g id="ytick_4">
     <g id="line2d_23">
      <path d="M 60.82125 110.482734 
L 507.22125 110.482734 
" clip-path="url(#p08da2adf9a)" style="fill: none; stroke: #b0b0b0; stroke-width: 0.8; stroke-linecap: square"/>
     </g>
     <g id="line2d_24">
      <g>
       <use xlink:href="#m19f255bdaa" x="60.82125" y="110.482734" style="stroke: #000000; stroke-width: 0.8"/>
      </g>
     </g>
     <g id="text_13">
      <!-- May 13 -->
      <g transform="translate(24.55875 113.522109) scale(0.08 -0.08)">
       <defs>
        <path id="DejaVuSans-4d" d="M 628 4666 
L 1569 4666 
L 2759 1491 
L 3956 4666 
L 4897 4666 
L 4897 0 
L 4281 0 
L 4281 4097 
L 3078 897 
L 2444 897 
L 1241 4097 
L 1241 0 
L 628 0 
L 628 4666 
z
" transform="scale(0.015625)"/>
        <path id="DejaVuSans-79" d="M 2059 -325 
Q 1816 -950 1584 -1140 
Q 1353 -1331 966 -1331 
L 506 -1331 
L 506 -850 
L 844 -850 
Q 1081 -850 1212 -737 
Q 1344 -625 1503 -206 
L 1606 56 
L 191 3500 
L 800 3500 
L 1894 763 
L 2988 3500 
L 3597 3500 
L 2059 -325 
z
" transform="scale(0.015625)"/>
        <path id="DejaVuSans-33" d="M 2597 2516 
Q 3050 2419 3304 2112 
Q 3559 1806 3559 1356 
Q 3559 666 3084 287 
Q 2609 -91 1734 -91 
Q 1441 -91 1130 -33 
Q 819 25 488 141 
L 488 750 
Q 750 597 1062 519 
Q 1375 441 1716 441 
Q 2309 441 2620 675 
Q 2931 909 2931 1356 
Q 2931 1769 2642 2001 
Q 2353 2234 1838 2234 
L 1294 2234 
L 1294 2753 
L 1863 2753 
Q 2328 2753 2575 2939 
Q 2822 3125 2822 3475 
Q 2822 3834 2567 4026 
Q 2313 4219 1838 4219 
Q 1578 4219 1281 4162 
Q 984 4106 628 3988 
L 628 4550 
Q 988 4650 1302 4700 
Q 1616 4750 1894 4750 
Q 2613 4750 3031 4423 
Q 3450 4097 3450 3541 
Q 3450 3153 3228 2886 
Q 3006 2619 2597 2516 
z
" transform="scale(0.015625)"/>
       </defs>
       <use xlink:href="#DejaVuSans-4d"/>
       <use xlink:href="#DejaVuSans-61" x="86.279297"/>
       <use xlink:href="#DejaVuSans-79" x="147.558594"/>
       <use xlink:href="#DejaVuSans-20" x="206.738281"/>
       <use xlink:href="#DejaVuSans-31" x="238.525391"/>
       <use xlink:href="#DejaVuSans-33" x="302.148438"/>
      </g>
     </g>
    </g>
    <g id="ytick_5">
     <g id="line2d_25">
      <path d="M 60.82125 46.863061 
L 507.22125 46.863061 
" clip-path="url(#p08da2adf9a)" style="fill: none; stroke: #b0b0b0; stroke-width: 0.8; stroke-linecap: square"/>
     </g>
     <g id="line2d_26">
      <g>
       <use xlink:href="#m19f255bdaa" x="60.82125" y="46.863061" style="stroke: #000000; stroke-width: 0.8"/>
      </g>
     </g>
     <g id="text_14">
      <!-- May 27 -->
      <g transform="translate(24.55875 49.902436) scale(0.08 -0.08)">
       <defs>
        <path id="DejaVuSans-37" d="M 525 4666 
L 3525 4666 
L 3525 4397 
L 1831 0 
L 1172 0 
L 2766 4134 
L 525 4134 
L 525 4666 
z
" transform="scale(0.015625)"/>
       </defs>
       <use xlink:href="#DejaVuSans-4d"/>
       <use xlink:href="#DejaVuSans-61" x="86.279297"/>
       <use xlink:href="#DejaVuSans-79" x="147.558594"/>
       <use xlink:href="#DejaVuSans-20" x="206.738281"/>
       <use xlink:href="#DejaVuSans-32" x="238.525391"/>
       <use xlink:href="#DejaVuSans-37" x="302.148438"/>
      </g>
     </g>
    </g>
    <g id="text_15">
     <!-- Day, relative to April 01 each year -->
     <g transform="translate(16.318125 265.796438) rotate(-90) scale(0.12 -0.12)">
      <defs>
       <path id="DejaVuSans-44" d="M 1259 4147 
L 1259 519 
L 2022 519 
Q 2988 519 3436 956 
Q 3884 1394 3884 2338 
Q 3884 3275 3436 3711 
Q 2988 4147 2022 4147 
L 1259 4147 
z
M 628 4666 
L 1925 4666 
Q 3281 4666 3915 4102 
Q 4550 3538 4550 2338 
Q 4550 1131 3912 565 
Q 3275 0 1925 0 
L 628 0 
L 628 4666 
z
" transform="scale(0.015625)"/>
       <path id="DejaVuSans-2c" d="M 750 794 
L 1409 794 
L 1409 256 
L 897 -744 
L 494 -744 
L 750 256 
L 750 794 
z
" transform="scale(0.015625)"/>
       <path id="DejaVuSans-74" d="M 1172 4494 
L 1172 3500 
L 2356 3500 
L 2356 3053 
L 1172 3053 
L 1172 1153 
Q 1172 725 1289 603 
Q 1406 481 1766 481 
L 2356 481 
L 2356 0 
L 1766 0 
Q 1100 0 847 248 
Q 594 497 594 1153 
L 594 3053 
L 172 3053 
L 172 3500 
L 594 3500 
L 594 4494 
L 1172 4494 
z
" transform="scale(0.015625)"/>
       <path id="DejaVuSans-76" d="M 191 3500 
L 800 3500 
L 1894 563 
L 2988 3500 
L 3597 3500 
L 2284 0 
L 1503 0 
L 191 3500 
z
" transform="scale(0.015625)"/>
       <path id="DejaVuSans-6f" d="M 1959 3097 
Q 1497 3097 1228 2736 
Q 959 2375 959 1747 
Q 959 1119 1226 758 
Q 1494 397 1959 397 
Q 2419 397 2687 759 
Q 2956 1122 2956 1747 
Q 2956 2369 2687 2733 
Q 2419 3097 1959 3097 
z
M 1959 3584 
Q 2709 3584 3137 3096 
Q 3566 2609 3566 1747 
Q 3566 888 3137 398 
Q 2709 -91 1959 -91 
Q 1206 -91 779 398 
Q 353 888 353 1747 
Q 353 2609 779 3096 
Q 1206 3584 1959 3584 
z
" transform="scale(0.015625)"/>
       <path id="DejaVuSans-63" d="M 3122 3366 
L 3122 2828 
Q 2878 2963 2633 3030 
Q 2388 3097 2138 3097 
Q 1578 3097 1268 2742 
Q 959 2388 959 1747 
Q 959 1106 1268 751 
Q 1578 397 2138 397 
Q 2388 397 2633 464 
Q 2878 531 3122 666 
L 3122 134 
Q 2881 22 2623 -34 
Q 2366 -91 2075 -91 
Q 1284 -91 818 406 
Q 353 903 353 1747 
Q 353 2603 823 3093 
Q 1294 3584 2113 3584 
Q 2378 3584 2631 3529 
Q 2884 3475 3122 3366 
z
" transform="scale(0.015625)"/>
       <path id="DejaVuSans-68" d="M 3513 2113 
L 3513 0 
L 2938 0 
L 2938 2094 
Q 2938 2591 2744 2837 
Q 2550 3084 2163 3084 
Q 1697 3084 1428 2787 
Q 1159 2491 1159 1978 
L 1159 0 
L 581 0 
L 581 4863 
L 1159 4863 
L 1159 2956 
Q 1366 3272 1645 3428 
Q 1925 3584 2291 3584 
Q 2894 3584 3203 3211 
Q 3513 2838 3513 2113 
z
" transform="scale(0.015625)"/>
      </defs>
      <use xlink:href="#DejaVuSans-44"/>
      <use xlink:href="#DejaVuSans-61" x="77.001953"/>
      <use xlink:href="#DejaVuSans-79" x="138.28125"/>
      <use xlink:href="#DejaVuSans-2c" x="197.460938"/>
      <use xlink:href="#DejaVuSans-20" x="229.248047"/>
      <use xlink:href="#DejaVuSans-72" x="261.035156"/>
      <use xlink:href="#DejaVuSans-65" x="299.898438"/>
      <use xlink:href="#DejaVuSans-6c" x="361.421875"/>
      <use xlink:href="#DejaVuSans-61" x="389.205078"/>
      <use xlink:href="#DejaVuSans-74" x="450.484375"/>
      <use xlink:href="#DejaVuSans-69" x="489.693359"/>
      <use xlink:href="#DejaVuSans-76" x="517.476562"/>
      <use xlink:href="#DejaVuSans-65" x="576.65625"/>
      <use xlink:href="#DejaVuSans-20" x="638.179688"/>
      <use xlink:href="#DejaVuSans-74" x="669.966797"/>
      <use xlink:href="#DejaVuSans-6f" x="709.175781"/>
      <use xlink:href="#DejaVuSans-20" x="770.357422"/>
      <use xlink:href="#DejaVuSans-41" x="802.144531"/>
      <use xlink:href="#DejaVuSans-70" x="870.552734"/>
      <use xlink:href="#DejaVuSans-72" x="934.029297"/>
      <use xlink:href="#DejaVuSans-69" x="975.142578"/>
      <use xlink:href="#DejaVuSans-6c" x="1002.925781"/>
      <use xlink:href="#DejaVuSans-20" x="1030.708984"/>
      <use xlink:href="#DejaVuSans-30" x="1062.496094"/>
      <use xlink:href="#DejaVuSans-31" x="1126.119141"/>
      <use xlink:href="#DejaVuSans-20" x="1189.742188"/>
      <use xlink:href="#DejaVuSans-65" x="1221.529297"/>
      <use xlink:href="#DejaVuSans-61" x="1283.052734"/>
      <use xlink:href="#DejaVuSans-63" x="1344.332031"/>
      <use xlink:href="#DejaVuSans-68" x="1399.3125"/>
      <use xlink:href="#DejaVuSans-20" x="1462.691406"/>
      <use xlink:href="#DejaVuSans-79" x="1494.478516"/>
      <use xlink:href="#DejaVuSans-65" x="1553.658203"/>
      <use xlink:href="#DejaVuSans-61" x="1615.181641"/>
      <use xlink:href="#DejaVuSans-72" x="1676.460938"/>
     </g>
    </g>
   </g>
   <g id="line2d_27">
    <defs>
     <path id="m769908a145" d="M 0 2.5 
C 0.663008 2.5 1.29895 2.236584 1.767767 1.767767 
C 2.236584 1.29895 2.5 0.663008 2.5 0 
C 2.5 -0.663008 2.236584 -1.29895 1.767767 -1.767767 
C 1.29895 -2.236584 0.663008 -2.5 0 -2.5 
C -0.663008 -2.5 -1.29895 -2.236584 -1.767767 -1.767767 
C -2.236584 -1.29895 -2.5 -0.663008 -2.5 0 
C -2.5 0.663008 -2.236584 1.29895 -1.767767 1.767767 
C -1.29895 2.236584 -0.663008 2.5 0 2.5 
z
" style="stroke: #000000"/>
    </defs>
    <g clip-path="url(#p08da2adf9a)">
     <use xlink:href="#m769908a145" x="115.677327" y="167.380684" style="fill: #ff0000; stroke: #000000"/>
     <use xlink:href="#m769908a145" x="118.935839" y="117.76302" style="fill: #ff0000; stroke: #000000"/>
     <use xlink:href="#m769908a145" x="122.032167" y="153.170398" style="fill: #ff0000; stroke: #000000"/>
     <use xlink:href="#m769908a145" x="125.272681" y="117.532652" style="fill: #ff0000; stroke: #000000"/>
     <use xlink:href="#m769908a145" x="128.43508" y="118.302652" style="fill: #ff0000; stroke: #000000"/>
     <use xlink:href="#m769908a145" x="131.610011" y="112.502406" style="fill: #ff0000; stroke: #000000"/>
     <use xlink:href="#m769908a145" x="134.743781" y="128.281094" style="fill: #ff0000; stroke: #000000"/>
     <use xlink:href="#m769908a145" x="137.938408" y="116.699537" style="fill: #ff0000; stroke: #000000"/>
     <use xlink:href="#m769908a145" x="141.068818" y="134.239127" style="fill: #ff0000; stroke: #000000"/>
     <use xlink:href="#m769908a145" x="144.136439" y="184.696217" style="fill: #ff0000; stroke: #000000"/>
     <use xlink:href="#m769908a145" x="147.443927" y="109.403471" style="fill: #ff0000; stroke: #000000"/>
     <use xlink:href="#m769908a145" x="150.559656" y="139.184168" style="fill: #ff0000; stroke: #000000"/>
     <use xlink:href="#m769908a145" x="153.71459" y="143.867283" style="fill: #ff0000; stroke: #000000"/>
     <use xlink:href="#m769908a145" x="156.905677" y="129.597037" style="fill: #ff0000; stroke: #000000"/>
     <use xlink:href="#m769908a145" x="160.08339" y="122.33884" style="fill: #ff0000; stroke: #000000"/>
     <use xlink:href="#m769908a145" x="163.178225" y="163.073102" style="fill: #ff0000; stroke: #000000"/>
     <use xlink:href="#m769908a145" x="166.40611" y="129.511832" style="fill: #ff0000; stroke: #000000"/>
     <use xlink:href="#m769908a145" x="169.498688" y="166.885234" style="fill: #ff0000; stroke: #000000"/>
     <use xlink:href="#m769908a145" x="172.792366" y="98.83175" style="fill: #ff0000; stroke: #000000"/>
     <use xlink:href="#m769908a145" x="175.834675" y="167.10298" style="fill: #ff0000; stroke: #000000"/>
     <use xlink:href="#m769908a145" x="179.105124" y="111.227488" style="fill: #ff0000; stroke: #000000"/>
     <use xlink:href="#m769908a145" x="182.217043" y="138.461504" style="fill: #ff0000; stroke: #000000"/>
     <use xlink:href="#m769908a145" x="185.317777" y="171.558881" style="fill: #ff0000; stroke: #000000"/>
     <use xlink:href="#m769908a145" x="188.413028" y="212.075398" style="fill: #ff0000; stroke: #000000"/>
     <use xlink:href="#m769908a145" x="191.684663" y="155.578225" style="fill: #ff0000; stroke: #000000"/>
     <use xlink:href="#m769908a145" x="194.826727" y="167.008307" style="fill: #ff0000; stroke: #000000"/>
     <use xlink:href="#m769908a145" x="197.975389" y="174.979701" style="fill: #ff0000; stroke: #000000"/>
     <use xlink:href="#m769908a145" x="201.198043" y="148.705029" style="fill: #ff0000; stroke: #000000"/>
     <use xlink:href="#m769908a145" x="204.464321" y="95.016463" style="fill: #ff0000; stroke: #000000"/>
     <use xlink:href="#m769908a145" x="207.535361" y="143.681094" style="fill: #ff0000; stroke: #000000"/>
     <use xlink:href="#m769908a145" x="210.682331" y="152.53925" style="fill: #ff0000; stroke: #000000"/>
     <use xlink:href="#m769908a145" x="213.93914" y="108.358922" style="fill: #ff0000; stroke: #000000"/>
     <use xlink:href="#m769908a145" x="217.112193" y="103.543266" style="fill: #ff0000; stroke: #000000"/>
     <use xlink:href="#m769908a145" x="220.20801" y="139.218881" style="fill: #ff0000; stroke: #000000"/>
     <use xlink:href="#m769908a145" x="223.32047" y="166.168881" style="fill: #ff0000; stroke: #000000"/>
     <use xlink:href="#m769908a145" x="226.596722" y="111.79552" style="fill: #ff0000; stroke: #000000"/>
     <use xlink:href="#m769908a145" x="229.647482" y="171.091832" style="fill: #ff0000; stroke: #000000"/>
     <use xlink:href="#m769908a145" x="232.872791" y="138.881217" style="fill: #ff0000; stroke: #000000"/>
     <use xlink:href="#m769908a145" x="236.06129" y="125.967939" style="fill: #ff0000; stroke: #000000"/>
     <use xlink:href="#m769908a145" x="239.167797" y="160.583225" style="fill: #ff0000; stroke: #000000"/>
     <use xlink:href="#m769908a145" x="242.361317" y="145.038061" style="fill: #ff0000; stroke: #000000"/>
     <use xlink:href="#m769908a145" x="245.475138" y="171.274865" style="fill: #ff0000; stroke: #000000"/>
     <use xlink:href="#m769908a145" x="248.715754" y="131.039209" style="fill: #ff0000; stroke: #000000"/>
     <use xlink:href="#m769908a145" x="251.839086" y="156.834209" style="fill: #ff0000; stroke: #000000"/>
     <use xlink:href="#m769908a145" x="255.026182" y="144.656217" style="fill: #ff0000; stroke: #000000"/>
     <use xlink:href="#m769908a145" x="258.255012" y="110.599496" style="fill: #ff0000; stroke: #000000"/>
     <use xlink:href="#m769908a145" x="261.356409" y="143.349742" style="fill: #ff0000; stroke: #000000"/>
     <use xlink:href="#m769908a145" x="264.656534" y="76.460725" style="fill: #ff0000; stroke: #000000"/>
     <use xlink:href="#m769908a145" x="267.710365" y="134.147611" style="fill: #ff0000; stroke: #000000"/>
     <use xlink:href="#m769908a145" x="270.880432" y="130.897201" style="fill: #ff0000; stroke: #000000"/>
     <use xlink:href="#m769908a145" x="274.00953" y="149.124742" style="fill: #ff0000; stroke: #000000"/>
     <use xlink:href="#m769908a145" x="277.215841" y="131.417898" style="fill: #ff0000; stroke: #000000"/>
     <use xlink:href="#m769908a145" x="280.294123" y="176.286176" style="fill: #ff0000; stroke: #000000"/>
     <use xlink:href="#m769908a145" x="283.509331" y="149.370889" style="fill: #ff0000; stroke: #000000"/>
     <use xlink:href="#m769908a145" x="286.711807" y="129.129988" style="fill: #ff0000; stroke: #000000"/>
     <use xlink:href="#m769908a145" x="289.898218" y="121.856012" style="fill: #ff0000; stroke: #000000"/>
     <use xlink:href="#m769908a145" x="293.010094" y="149.112119" style="fill: #ff0000; stroke: #000000"/>
     <use xlink:href="#m769908a145" x="296.192652" y="139.313553" style="fill: #ff0000; stroke: #000000"/>
     <use xlink:href="#m769908a145" x="299.3905" y="121.499414" style="fill: #ff0000; stroke: #000000"/>
     <use xlink:href="#m769908a145" x="302.492619" y="158.415234" style="fill: #ff0000; stroke: #000000"/>
     <use xlink:href="#m769908a145" x="305.691851" y="139.875275" style="fill: #ff0000; stroke: #000000"/>
     <use xlink:href="#m769908a145" x="308.804624" y="166.661176" style="fill: #ff0000; stroke: #000000"/>
     <use xlink:href="#m769908a145" x="311.969563" y="166.099455" style="fill: #ff0000; stroke: #000000"/>
     <use xlink:href="#m769908a145" x="315.131624" y="171.590439" style="fill: #ff0000; stroke: #000000"/>
     <use xlink:href="#m769908a145" x="318.306134" y="166.011094" style="fill: #ff0000; stroke: #000000"/>
     <use xlink:href="#m769908a145" x="321.556273" y="120.783061" style="fill: #ff0000; stroke: #000000"/>
     <use xlink:href="#m769908a145" x="324.625158" y="170.577447" style="fill: #ff0000; stroke: #000000"/>
     <use xlink:href="#m769908a145" x="327.883267" y="125.71548" style="fill: #ff0000; stroke: #000000"/>
     <use xlink:href="#m769908a145" x="331.064128" y="116.806832" style="fill: #ff0000; stroke: #000000"/>
     <use xlink:href="#m769908a145" x="334.204964" y="128.880684" style="fill: #ff0000; stroke: #000000"/>
     <use xlink:href="#m769908a145" x="337.340064" y="143.961955" style="fill: #ff0000; stroke: #000000"/>
     <use xlink:href="#m769908a145" x="340.441112" y="181.439496" style="fill: #ff0000; stroke: #000000"/>
     <use xlink:href="#m769908a145" x="343.643618" y="161.182816" style="fill: #ff0000; stroke: #000000"/>
     <use xlink:href="#m769908a145" x="346.745755" y="193.544906" style="fill: #ff0000; stroke: #000000"/>
     <use xlink:href="#m769908a145" x="349.964069" y="165.001258" style="fill: #ff0000; stroke: #000000"/>
     <use xlink:href="#m769908a145" x="353.25159" y="104.720357" style="fill: #ff0000; stroke: #000000"/>
     <use xlink:href="#m769908a145" x="356.235804" y="198.903348" style="fill: #ff0000; stroke: #000000"/>
     <use xlink:href="#m769908a145" x="359.455292" y="169.744332" style="fill: #ff0000; stroke: #000000"/>
     <use xlink:href="#m769908a145" x="362.589669" y="185.204291" style="fill: #ff0000; stroke: #000000"/>
     <use xlink:href="#m769908a145" x="365.839917" y="144.463717" style="fill: #ff0000; stroke: #000000"/>
     <use xlink:href="#m769908a145" x="368.959697" y="167.57634" style="fill: #ff0000; stroke: #000000"/>
     <use xlink:href="#m769908a145" x="372.039206" y="211.800848" style="fill: #ff0000; stroke: #000000"/>
     <use xlink:href="#m769908a145" x="375.282851" y="169.977857" style="fill: #ff0000; stroke: #000000"/>
     <use xlink:href="#m769908a145" x="378.468749" y="162.972119" style="fill: #ff0000; stroke: #000000"/>
     <use xlink:href="#m769908a145" x="381.694094" y="130.74257" style="fill: #ff0000; stroke: #000000"/>
     <use xlink:href="#m769908a145" x="384.852345" y="133.686873" style="fill: #ff0000; stroke: #000000"/>
     <use xlink:href="#m769908a145" x="387.945754" y="170.624783" style="fill: #ff0000; stroke: #000000"/>
     <use xlink:href="#m769908a145" x="391.073468" y="194.122406" style="fill: #ff0000; stroke: #000000"/>
     <use xlink:href="#m769908a145" x="394.271195" y="176.371381" style="fill: #ff0000; stroke: #000000"/>
     <use xlink:href="#m769908a145" x="397.471709" y="157.15925" style="fill: #ff0000; stroke: #000000"/>
     <use xlink:href="#m769908a145" x="400.591622" y="180.202447" style="fill: #ff0000; stroke: #000000"/>
     <use xlink:href="#m769908a145" x="403.844735" y="137.959742" style="fill: #ff0000; stroke: #000000"/>
     <use xlink:href="#m769908a145" x="406.964467" y="161.097611" style="fill: #ff0000; stroke: #000000"/>
     <use xlink:href="#m769908a145" x="410.106814" y="172.379373" style="fill: #ff0000; stroke: #000000"/>
     <use xlink:href="#m769908a145" x="413.316658" y="148.275848" style="fill: #ff0000; stroke: #000000"/>
     <use xlink:href="#m769908a145" x="416.395018" y="197.647365" style="fill: #ff0000; stroke: #000000"/>
     <use xlink:href="#m769908a145" x="419.791131" y="75.892693" style="fill: #ff0000; stroke: #000000"/>
     <use xlink:href="#m769908a145" x="422.738698" y="189.287816" style="fill: #ff0000; stroke: #000000"/>
     <use xlink:href="#m769908a145" x="425.893398" y="194.094004" style="fill: #ff0000; stroke: #000000"/>
     <use xlink:href="#m769908a145" x="429.057711" y="198.404742" style="fill: #ff0000; stroke: #000000"/>
     <use xlink:href="#m769908a145" x="432.289605" y="162.74175" style="fill: #ff0000; stroke: #000000"/>
     <use xlink:href="#m769908a145" x="435.453942" y="162.495602" style="fill: #ff0000; stroke: #000000"/>
     <use xlink:href="#m769908a145" x="438.470107" y="239.927939" style="fill: #ff0000; stroke: #000000"/>
     <use xlink:href="#m769908a145" x="441.759873" y="178.469947" style="fill: #ff0000; stroke: #000000"/>
     <use xlink:href="#m769908a145" x="444.949709" y="164.856094" style="fill: #ff0000; stroke: #000000"/>
     <use xlink:href="#m769908a145" x="448.128607" y="156.976217" style="fill: #ff0000; stroke: #000000"/>
     <use xlink:href="#m769908a145" x="451.343604" y="130.171381" style="fill: #ff0000; stroke: #000000"/>
    </g>
   </g>
   <g id="patch_3">
    <path d="M 60.82125 301.34175 
L 60.82125 24.14175 
" style="fill: none; stroke: #000000; stroke-width: 0.8; stroke-linejoin: miter; stroke-linecap: square"/>
   </g>
   <g id="patch_4">
    <path d="M 507.22125 301.34175 
L 507.22125 24.14175 
" style="fill: none; stroke: #000000; stroke-width: 0.8; stroke-linejoin: miter; stroke-linecap: square"/>
   </g>
   <g id="patch_5">
    <path d="M 60.82125 301.34175 
L 507.22125 301.34175 
" style="fill: none; stroke: #000000; stroke-width: 0.8; stroke-linejoin: miter; stroke-linecap: square"/>
   </g>
   <g id="patch_6">
    <path d="M 60.82125 24.14175 
L 507.22125 24.14175 
" style="fill: none; stroke: #000000; stroke-width: 0.8; stroke-linejoin: miter; stroke-linecap: square"/>
   </g>
   <g id="text_16">
    <!-- Breakup observations: day of the year -->
    <g transform="translate(146.0985 18.14175) scale(0.144 -0.144)">
     <defs>
      <path id="DejaVuSans-42" d="M 1259 2228 
L 1259 519 
L 2272 519 
Q 2781 519 3026 730 
Q 3272 941 3272 1375 
Q 3272 1813 3026 2020 
Q 2781 2228 2272 2228 
L 1259 2228 
z
M 1259 4147 
L 1259 2741 
L 2194 2741 
Q 2656 2741 2882 2914 
Q 3109 3088 3109 3444 
Q 3109 3797 2882 3972 
Q 2656 4147 2194 4147 
L 1259 4147 
z
M 628 4666 
L 2241 4666 
Q 2963 4666 3353 4366 
Q 3744 4066 3744 3513 
Q 3744 3084 3544 2831 
Q 3344 2578 2956 2516 
Q 3422 2416 3680 2098 
Q 3938 1781 3938 1306 
Q 3938 681 3513 340 
Q 3088 0 2303 0 
L 628 0 
L 628 4666 
z
" transform="scale(0.015625)"/>
      <path id="DejaVuSans-6b" d="M 581 4863 
L 1159 4863 
L 1159 1991 
L 2875 3500 
L 3609 3500 
L 1753 1863 
L 3688 0 
L 2938 0 
L 1159 1709 
L 1159 0 
L 581 0 
L 581 4863 
z
" transform="scale(0.015625)"/>
      <path id="DejaVuSans-75" d="M 544 1381 
L 544 3500 
L 1119 3500 
L 1119 1403 
Q 1119 906 1312 657 
Q 1506 409 1894 409 
Q 2359 409 2629 706 
Q 2900 1003 2900 1516 
L 2900 3500 
L 3475 3500 
L 3475 0 
L 2900 0 
L 2900 538 
Q 2691 219 2414 64 
Q 2138 -91 1772 -91 
Q 1169 -91 856 284 
Q 544 659 544 1381 
z
M 1991 3584 
L 1991 3584 
z
" transform="scale(0.015625)"/>
      <path id="DejaVuSans-62" d="M 3116 1747 
Q 3116 2381 2855 2742 
Q 2594 3103 2138 3103 
Q 1681 3103 1420 2742 
Q 1159 2381 1159 1747 
Q 1159 1113 1420 752 
Q 1681 391 2138 391 
Q 2594 391 2855 752 
Q 3116 1113 3116 1747 
z
M 1159 2969 
Q 1341 3281 1617 3432 
Q 1894 3584 2278 3584 
Q 2916 3584 3314 3078 
Q 3713 2572 3713 1747 
Q 3713 922 3314 415 
Q 2916 -91 2278 -91 
Q 1894 -91 1617 61 
Q 1341 213 1159 525 
L 1159 0 
L 581 0 
L 581 4863 
L 1159 4863 
L 1159 2969 
z
" transform="scale(0.015625)"/>
      <path id="DejaVuSans-73" d="M 2834 3397 
L 2834 2853 
Q 2591 2978 2328 3040 
Q 2066 3103 1784 3103 
Q 1356 3103 1142 2972 
Q 928 2841 928 2578 
Q 928 2378 1081 2264 
Q 1234 2150 1697 2047 
L 1894 2003 
Q 2506 1872 2764 1633 
Q 3022 1394 3022 966 
Q 3022 478 2636 193 
Q 2250 -91 1575 -91 
Q 1294 -91 989 -36 
Q 684 19 347 128 
L 347 722 
Q 666 556 975 473 
Q 1284 391 1588 391 
Q 1994 391 2212 530 
Q 2431 669 2431 922 
Q 2431 1156 2273 1281 
Q 2116 1406 1581 1522 
L 1381 1569 
Q 847 1681 609 1914 
Q 372 2147 372 2553 
Q 372 3047 722 3315 
Q 1072 3584 1716 3584 
Q 2034 3584 2315 3537 
Q 2597 3491 2834 3397 
z
" transform="scale(0.015625)"/>
      <path id="DejaVuSans-6e" d="M 3513 2113 
L 3513 0 
L 2938 0 
L 2938 2094 
Q 2938 2591 2744 2837 
Q 2550 3084 2163 3084 
Q 1697 3084 1428 2787 
Q 1159 2491 1159 1978 
L 1159 0 
L 581 0 
L 581 3500 
L 1159 3500 
L 1159 2956 
Q 1366 3272 1645 3428 
Q 1925 3584 2291 3584 
Q 2894 3584 3203 3211 
Q 3513 2838 3513 2113 
z
" transform="scale(0.015625)"/>
      <path id="DejaVuSans-3a" d="M 750 794 
L 1409 794 
L 1409 0 
L 750 0 
L 750 794 
z
M 750 3309 
L 1409 3309 
L 1409 2516 
L 750 2516 
L 750 3309 
z
" transform="scale(0.015625)"/>
      <path id="DejaVuSans-64" d="M 2906 2969 
L 2906 4863 
L 3481 4863 
L 3481 0 
L 2906 0 
L 2906 525 
Q 2725 213 2448 61 
Q 2172 -91 1784 -91 
Q 1150 -91 751 415 
Q 353 922 353 1747 
Q 353 2572 751 3078 
Q 1150 3584 1784 3584 
Q 2172 3584 2448 3432 
Q 2725 3281 2906 2969 
z
M 947 1747 
Q 947 1113 1208 752 
Q 1469 391 1925 391 
Q 2381 391 2643 752 
Q 2906 1113 2906 1747 
Q 2906 2381 2643 2742 
Q 2381 3103 1925 3103 
Q 1469 3103 1208 2742 
Q 947 2381 947 1747 
z
" transform="scale(0.015625)"/>
      <path id="DejaVuSans-66" d="M 2375 4863 
L 2375 4384 
L 1825 4384 
Q 1516 4384 1395 4259 
Q 1275 4134 1275 3809 
L 1275 3500 
L 2222 3500 
L 2222 3053 
L 1275 3053 
L 1275 0 
L 697 0 
L 697 3053 
L 147 3053 
L 147 3500 
L 697 3500 
L 697 3744 
Q 697 4328 969 4595 
Q 1241 4863 1831 4863 
L 2375 4863 
z
" transform="scale(0.015625)"/>
     </defs>
     <use xlink:href="#DejaVuSans-42"/>
     <use xlink:href="#DejaVuSans-72" x="68.603516"/>
     <use xlink:href="#DejaVuSans-65" x="107.466797"/>
     <use xlink:href="#DejaVuSans-61" x="168.990234"/>
     <use xlink:href="#DejaVuSans-6b" x="230.269531"/>
     <use xlink:href="#DejaVuSans-75" x="285.054688"/>
     <use xlink:href="#DejaVuSans-70" x="348.433594"/>
     <use xlink:href="#DejaVuSans-20" x="411.910156"/>
     <use xlink:href="#DejaVuSans-6f" x="443.697266"/>
     <use xlink:href="#DejaVuSans-62" x="504.878906"/>
     <use xlink:href="#DejaVuSans-73" x="568.355469"/>
     <use xlink:href="#DejaVuSans-65" x="620.455078"/>
     <use xlink:href="#DejaVuSans-72" x="681.978516"/>
     <use xlink:href="#DejaVuSans-76" x="723.091797"/>
     <use xlink:href="#DejaVuSans-61" x="782.271484"/>
     <use xlink:href="#DejaVuSans-74" x="843.550781"/>
     <use xlink:href="#DejaVuSans-69" x="882.759766"/>
     <use xlink:href="#DejaVuSans-6f" x="910.542969"/>
     <use xlink:href="#DejaVuSans-6e" x="971.724609"/>
     <use xlink:href="#DejaVuSans-73" x="1035.103516"/>
     <use xlink:href="#DejaVuSans-3a" x="1087.203125"/>
     <use xlink:href="#DejaVuSans-20" x="1120.894531"/>
     <use xlink:href="#DejaVuSans-64" x="1152.681641"/>
     <use xlink:href="#DejaVuSans-61" x="1216.158203"/>
     <use xlink:href="#DejaVuSans-79" x="1277.4375"/>
     <use xlink:href="#DejaVuSans-20" x="1336.617188"/>
     <use xlink:href="#DejaVuSans-6f" x="1368.404297"/>
     <use xlink:href="#DejaVuSans-66" x="1429.585938"/>
     <use xlink:href="#DejaVuSans-20" x="1464.791016"/>
     <use xlink:href="#DejaVuSans-74" x="1496.578125"/>
     <use xlink:href="#DejaVuSans-68" x="1535.787109"/>
     <use xlink:href="#DejaVuSans-65" x="1599.166016"/>
     <use xlink:href="#DejaVuSans-20" x="1660.689453"/>
     <use xlink:href="#DejaVuSans-79" x="1692.476562"/>
     <use xlink:href="#DejaVuSans-65" x="1751.65625"/>
     <use xlink:href="#DejaVuSans-61" x="1813.179688"/>
     <use xlink:href="#DejaVuSans-72" x="1874.458984"/>
    </g>
   </g>
  </g>
 </g>
 <defs>
  <clipPath id="p08da2adf9a">
   <rect x="60.82125" y="24.14175" width="446.4" height="277.2"/>
  </clipPath>
 </defs>
</svg>
